<svg width="36.000000" height="36.000000" viewBox="0 0 36 36" fill="none" xmlns="http://www.w3.org/2000/svg" xmlns:xlink="http://www.w3.org/1999/xlink">
	<desc>
			Created with Pixso.
	</desc>
	<defs/>
	<rect id="arr" width="36.000000" height="36.000000" transform="matrix(-1 0 0 1 36 0)" fill="#FFFFFF" fill-opacity="0"/>
	<path id="Arrow 1" d="M2 18.75L34 18.75L34 17.25L2 17.25L2 18.75ZM32.9393 18L29.2271 21.7124C28.9301 22.0093 28.9301 22.4761 29.2271 22.7729C29.524 23.0698 29.9907 23.0698 30.2877 22.7729L34.5303 18.5303C34.8273 18.2334 34.8273 17.7666 34.5303 17.4697L30.2877 13.2271C29.9907 12.9302 29.524 12.9302 29.2271 13.2271C28.9301 13.5239 28.9301 13.9907 29.2271 14.2876L32.9393 18Z" fill="#C95C3F" fill-opacity="1.000000" fill-rule="evenodd"/>
</svg>
