<svg width="283.000000" height="56.005859" viewBox="0 0 283 56.0059" fill="none" xmlns="http://www.w3.org/2000/svg" xmlns:xlink="http://www.w3.org/1999/xlink">
	<desc>
			Created with Pixso.
	</desc>
	<defs/>
	<rect id="pagination" width="283.000000" height="56.000000" transform="translate(0.000000 0.002930)" fill="#FFFFFF" fill-opacity="0"/>
	<rect id="arr1" width="36.000000" height="36.000000" transform="translate(0.000000 8.002930)" fill="#FFFFFF" fill-opacity="0"/>
	<path id="Arrow 1" d="M34 26.7529L2 26.7529L2 25.2529L34 25.2529L34 26.7529ZM3.06067 26.0029L6.77298 29.7153C7.06995 30.0122 7.06995 30.479 6.77298 30.7759C6.47598 31.0728 6.00931 31.0728 5.71231 30.7759L1.46967 26.5332C1.17267 26.2363 1.17267 25.7695 1.46967 25.4727L5.71231 21.23C6.00931 20.9331 6.47598 20.9331 6.77298 21.23C7.06995 21.5269 7.06995 21.9937 6.77298 22.2905L3.06067 26.0029Z" fill="#C95C3F" fill-opacity="1.000000" fill-rule="evenodd"/>
	<rect id="arr 2" width="36.000000" height="36.000000" transform="matrix(-1 0 0 1 283 8.00293)" fill="#FFFFFF" fill-opacity="0"/>
	<path id="Arrow 1" d="M249 26.7529L281 26.7529L281 25.2529L249 25.2529L249 26.7529ZM279.939 26.0029L276.227 29.7153C275.93 30.0122 275.93 30.479 276.227 30.7759C276.524 31.0728 276.991 31.0728 277.288 30.7759L281.53 26.5332C281.827 26.2363 281.827 25.7695 281.53 25.4727L277.288 21.23C276.991 20.9331 276.524 20.9331 276.227 21.23C275.93 21.5269 275.93 21.9937 276.227 22.2905L279.939 26.0029Z" fill="#C95C3F" fill-opacity="1.000000" fill-rule="evenodd"/>
	<rect id="elipse" width="56.000000" height="56.000000" transform="translate(85.000000 0.002930)" fill="#FFFFFF" fill-opacity="0"/>
	<path id="Ellipse 13" d="M138.336 16.083C135.182 9.37939 129.701 4.50732 123.308 1.97705C116.421 -0.757812 109.09 -0.557129 102.698 1.97461C95.8059 4.69531 90.5994 9.85986 87.6658 16.0791L88.1614 16.3125C91.2547 9.74023 96.6296 4.96436 102.898 2.48486C109.65 -0.195801 116.838 0.00195312 123.104 2.48535C129.861 5.15381 134.965 10.2183 137.841 16.3164L138.336 16.083Z" fill="#C95C3F" fill-opacity="1.000000" fill-rule="evenodd"/>
	<path id="Ellipse 14" d="M138.335 39.9248C135.181 46.6284 129.699 51.5 123.306 54.0293C116.419 56.7642 109.088 56.5625 102.696 54.0303C95.804 51.3096 90.598 46.144 87.6649 39.9248L88.1715 39.6865C91.2629 46.2559 96.6351 51.0298 102.9 53.5088C109.649 56.189 116.834 55.9912 123.098 53.5098C129.852 50.8433 134.954 45.7812 137.828 39.6865L138.335 39.9248Z" fill="#C95C3F" fill-opacity="1.000000" fill-rule="evenodd"/>
	<path id="1" d="M66.6211 17.457L64.8584 17.457L61.2207 19.874L61.2207 21.6611L64.7705 19.3027L64.8584 19.3027L64.8584 32.0029L66.6211 32.0029L66.6211 17.457Z" fill="#1B1B1B" fill-opacity="1.000000" fill-rule="evenodd"/>
	<rect id="Frame 69" rx="0.500000" width="30.000000" height="40.000000" transform="translate(48.500000 5.502930)" stroke="#E07153" stroke-opacity="0" stroke-width="1.000000"/>
	<path id="2" d="M108.401 32.5029L117.972 32.5029L117.972 30.623L111.424 30.623L111.424 30.5156L114.314 27.4883C116.98 24.7979 117.737 23.5137 117.737 21.8828C117.737 19.5488 115.833 17.7568 113.094 17.7568C110.374 17.7568 108.387 19.5195 108.387 22.1758L110.481 22.1758C110.472 20.6133 111.482 19.5928 113.05 19.5928C114.529 19.5928 115.652 20.501 115.652 21.9512C115.652 23.2354 114.886 24.1582 113.323 25.8135L108.401 30.9111L108.401 32.5029Z" fill="#C95C3F" fill-opacity="1.000000" fill-rule="evenodd"/>
	<path id="3" d="M166.421 32.2031C169.238 32.2031 171.333 30.4355 171.333 28.0527C171.333 26.207 170.239 24.8643 168.408 24.5615L168.408 24.4443C169.878 24 170.796 22.7891 170.796 21.1484C170.796 19.0928 169.17 17.2568 166.479 17.2568C163.965 17.2568 161.875 18.8047 161.792 21.0947L163.496 21.0947C163.56 19.6445 164.937 18.7949 166.45 18.7949C168.052 18.7949 169.092 19.7666 169.092 21.2363C169.092 22.7695 167.891 23.7656 166.167 23.7656L165 23.7656L165 25.3281L166.167 25.3281C168.374 25.3281 169.604 26.4512 169.604 28.0527C169.604 29.5957 168.262 30.6406 166.392 30.6406C164.707 30.6406 163.374 29.7715 163.267 28.3652L161.479 28.3652C161.582 30.6553 163.599 32.2031 166.421 32.2031Z" fill="#1B1B1B" fill-opacity="1.000000" fill-rule="evenodd"/>
	<path id="4" d="M213.167 29.0195L220.013 29.0195L220.013 32.0029L221.688 32.0029L221.688 29.0195L223.675 29.0195L223.675 27.457L221.688 27.457L221.688 17.457L219.559 17.457L213.167 27.5693L213.167 29.0195ZM220.013 27.457L215.066 27.457L215.066 27.3447L219.896 19.7031L220.013 19.7031L220.013 27.457Z" fill="#1B1B1B" fill-opacity="1.000000" fill-rule="evenodd"/>
</svg>
