<svg width="108.648621" height="27.209320" viewBox="0 0 108.649 27.2093" fill="white" xmlns="http://www.w3.org/2000/svg" xmlns:xlink="http://www.w3.org/1999/xlink">
	<desc>
			Created with Pixso.
	</desc>
	<defs/>
	<path id="Vector" d="M18.2926 4.67348C19.1809 6.39513 19.2483 8.34952 18.4948 10.5366C17.7731 12.606 16.6192 13.9996 15.033 14.7174C13.4468 15.4352 11.5963 15.3819 9.48138 14.5576C8.78781 14.2968 8.12302 13.957 7.49866 13.5439C6.82794 13.0807 6.20111 12.5497 5.62698 11.9583L3.80682 17.2326L0 15.7563L3.60458 5.30437C4.42676 2.93219 5.67984 1.34795 7.36383 0.551605C9.04782 -0.24472 11.0755 -0.178833 13.4468 0.749283C15.7864 1.64656 17.4017 2.95462 18.2926 4.67348ZM12.7846 11.3232C13.2168 11.1113 13.6014 10.8039 13.9126 10.4217C14.2237 10.0394 14.4543 9.59103 14.5889 9.1066C14.7841 8.63678 14.8849 8.129 14.8849 7.61557C14.8849 7.10216 14.7841 6.59436 14.5889 6.12454C14.1201 5.19945 13.3242 4.5096 12.3762 4.20662C11.9056 3.98708 11.3972 3.8737 10.8832 3.8737C10.3691 3.8737 9.86072 3.98708 9.39017 4.20662C8.52042 4.65245 7.87274 5.49365 7.44711 6.73021L6.76108 8.74068C7.13336 9.29955 7.58557 9.79338 8.10141 10.2044C8.64148 10.6373 9.24051 10.9805 9.87793 11.2222C10.9962 11.6596 11.9651 11.6933 12.7846 11.3232Z" fill="white" fill-opacity="1.000000" fill-rule="nonzero"/>
	<path id="Vector" d="M38.9324 8.52051L35.4077 25.3954L31.4883 24.6257L31.9149 22.5745C30.3918 23.9035 28.4633 24.3396 26.1294 23.883C24.064 23.4827 22.5848 22.5386 21.6917 21.0506C20.7985 19.5626 20.5952 17.6538 21.0816 15.3243L23.147 5.44186L27.194 6.21153L25.1526 15.9747C24.8867 17.3242 25.0037 18.4055 25.5034 19.2188C25.7777 19.6309 26.1402 19.9815 26.5666 20.2471C26.993 20.5126 27.4734 20.6869 27.9755 20.7581C28.5099 20.8868 29.0662 20.9061 29.6087 20.8146C30.1512 20.7231 30.6679 20.523 31.1254 20.2271C32.0106 19.6421 32.6033 18.6326 32.9037 17.1985L34.8973 7.70082L38.9324 8.52051Z" fill="white" fill-opacity="1.000000" fill-rule="nonzero"/>
	<path id="Vector" d="M49.5742 19.4036L46.8344 19.2648L46.5009 26.6171L42.554 26.4169L43.3779 8.16283L47.3172 8.36296L46.9838 15.7439L49.8347 15.8827L54.6668 8.73058L58.8513 8.94707L52.8505 17.4716L58.1961 27.2093L53.6974 26.9765L49.5742 19.4036Z" fill="white" fill-opacity="1.000000" fill-rule="nonzero"/>
	<path id="Vector" d="M83.5293 5.44186L86.0135 23.8451L62.2409 27.2093L59.7567 8.80188L63.8997 8.22043L65.9326 23.1723L71.6247 22.3707L69.5918 7.41884L73.7348 6.83322L75.7677 21.7851L81.3988 20.9794L79.3659 6.02748L83.5293 5.44186Z" fill="white" fill-opacity="1.000000" fill-rule="nonzero"/>
	<path id="Vector" d="M98.8809 0.952103C100.283 1.14314 101.593 1.75139 102.64 2.69655C103.826 3.80072 104.715 5.18181 105.226 6.71404L108.649 16.0665L104.656 17.5019L103.156 13.399L95.278 16.2454L96.7782 20.3483L92.8391 21.7675L89.4165 12.415C88.8153 10.9146 88.6039 9.28845 88.8017 7.68588C88.9925 6.29463 89.6058 4.99402 90.5601 3.95709C91.6357 2.8756 92.9403 2.04491 94.3795 1.52519C95.8186 1.00546 97.3561 0.809708 98.8809 0.952103ZM101.996 10.2273L101.103 7.78754C100.581 6.37247 99.836 5.42366 98.8686 4.94113C97.8162 4.52852 96.648 4.51202 95.5842 4.89478C94.5204 5.27751 93.6344 6.03307 93.0932 7.01901C92.6588 7.99492 92.7011 9.19176 93.2203 10.6095L94.1139 13.0493L101.996 10.2273Z" fill="white" fill-opacity="1.000000" fill-rule="nonzero"/>
</svg>
