<svg width="64.000000" height="64.000000" viewBox="0 0 64 64" fill="none" xmlns="http://www.w3.org/2000/svg" xmlns:xlink="http://www.w3.org/1999/xlink">
	<desc>
			Created with Pixso.
	</desc>
	<defs/>
	<rect id="Frame 119" width="64.000000" height="64.000000" fill="#FFFFFF" fill-opacity="0"/>
	<path id="image 48 (Traced)" d="M0.0800781 27.9814C0.37793 26.1047 1.78613 24.4526 3.56641 23.8911C3.99512 23.7556 8.10059 23.7292 25.832 23.7487L47.5703 23.7723L48.3203 24.1415C49.7598 24.8501 50.9209 26.397 51.0898 27.8308L51.166 28.4825L25.583 28.4825L0 28.4825L0.0800781 27.9814ZM0.0322266 40.7925L0.0322266 36.5215L0.0322266 32.2507L25.6455 32.2507L51.2598 32.2507L51.2266 36.4899L51.1943 40.729L25.6133 40.7606L0.0322266 40.7925ZM0.0947266 57.1968L0.0576172 50.8784L0.0214844 44.5599L25.6387 44.5599L51.2568 44.5599L51.252 50.1179C51.25 53.1748 51.1992 56.0571 51.1396 56.5228C50.9365 58.1036 50.0166 59.5513 48.7354 60.3063C48.6006 60.3859 48.4932 60.4567 48.3818 60.5195C47.4434 61.0485 46.1904 61.017 25.2598 60.9845L3.84277 60.9514L3.00781 60.5538C1.84668 60.0009 1.12305 59.2886 0.561523 58.1458L0.0947266 57.1968ZM16.7734 54.6084C16.7734 54.0618 16.2998 53.2876 15.7881 52.9985C15.3135 52.7302 15.2031 52.7242 10.6348 52.7249L5.9668 52.7256L5.47852 53.0226C4.23242 53.7811 4.24512 55.5004 5.50195 56.2108C5.99316 56.4884 6.06641 56.4924 10.5977 56.4924C14.9854 56.4924 15.2197 56.4806 15.7275 56.2336C16.2891 55.9603 16.7734 55.2073 16.7734 54.6084Z" fill="#000000" fill-opacity="1.000000" fill-rule="evenodd"/>
	<path id="image 48 (Traced)" d="M49.3203 4.82104C19.2666 10.0844 11.1953 11.5449 10.5703 11.8325C9.13086 12.4949 8.02832 14.0067 7.7666 15.6766C7.65918 16.3589 7.68555 16.756 7.93164 18.183L8.22363 19.8787L28.1475 19.9414L48.0703 20.0043L49.041 20.3618C51.1387 21.1345 53.0439 22.8236 53.9883 24.7479C54.8799 26.5641 54.876 26.5122 54.8779 34.8496C54.8789 38.9386 54.9219 42.3092 54.9736 42.3396C55.0244 42.3701 56.293 42.1749 57.792 41.9058C60.5957 41.4022 61.3389 41.155 62.1885 40.4445C63.1982 39.5992 64 37.948 64 36.7142C64 36.4204 62.873 29.7427 61.4951 21.8748C59.5723 10.8865 58.9219 7.41736 58.6934 6.91394C58.3369 6.13013 57.4316 5.12305 56.6895 4.68604C56.083 4.32874 54.8926 3.98413 54.3223 4.00061C54.1133 4.00647 51.8623 4.37573 49.3203 4.82104Z" fill="#E07153" fill-opacity="1.000000" fill-rule="nonzero"/>
</svg>
