<svg width="64.000000" height="64.000000" viewBox="0 0 64 64" fill="none" xmlns="http://www.w3.org/2000/svg" xmlns:xlink="http://www.w3.org/1999/xlink">
	<desc>
			Created with Pixso.
	</desc>
	<defs/>
	<rect id="Frame 121" width="64.000000" height="64.000000" fill="#FFFFFF" fill-opacity="0"/>
	<path id="image 46 (Traced)" d="M26.208 22.723C24.7627 23.3352 23.2109 24.7677 22.6377 26.0203C19.9414 31.9042 17.7383 34.9131 13.1689 38.9526L12.7617 39.3125L15.9531 49.927C17.709 55.765 19.1445 60.5693 19.1445 60.6035C19.1445 60.7043 36.5928 60.5129 39.791 60.377C47.6377 60.0433 54.1328 59.5189 54.959 59.152C56.0869 58.6516 56.8213 57.7224 57.0713 56.4827C57.1836 55.9226 57.1729 55.7174 57.0146 55.3376L56.8213 54.875L52.8008 54.875L48.7803 54.875L48.415 54.5096C47.8818 53.9769 47.9736 53.0819 48.5947 52.7664C48.7666 52.679 50.2939 52.6182 52.8662 52.5964L56.8711 52.5625L57.5986 52.2053C58.8574 51.588 59.5195 50.3716 59.4121 48.8767C59.3457 47.9686 59.0762 47.549 58.3076 47.1562C57.7627 46.8784 57.6963 46.875 52.7246 46.875L47.6934 46.875L47.3076 46.5514C46.7959 46.1207 46.7695 45.4371 47.248 44.9594L47.5732 44.6348L53.0977 44.5986C58.6045 44.5626 58.625 44.5615 59.2783 44.2662C60.5176 43.7068 61.3477 42.4293 61.3652 41.0533C61.3779 40.1246 61.0137 39.5001 60.2412 39.1232C59.7549 38.8861 59.4629 38.875 53.6934 38.875L47.6543 38.875L47.2891 38.5096C46.8105 38.0321 46.7861 37.3751 47.2305 36.9319L47.5371 36.625L54.2754 36.625L61.0137 36.625L61.665 36.3007C62.8965 35.6877 63.9941 33.8522 64 32.3962C64.0029 31.6589 63.9756 31.5802 63.5947 31.24L63.1855 30.875L45.7891 30.875C26.5322 30.875 27.8154 30.9318 27.5303 30.0682C27.3428 29.5023 27.5615 29.0098 28.1152 28.75C28.5127 28.5635 28.5146 28.5585 28.4473 27.8125C28.3604 26.8562 27.9893 24.9893 27.6152 23.625C27.2852 22.4176 27.1436 22.3269 26.208 22.723ZM19.7051 47.0884C19.7939 46.5754 19.3945 45.301 19.0234 44.9163C18.4648 44.3369 17.3926 44.6456 17.1924 45.4435C17.1064 45.7848 17.3057 46.7148 17.5957 47.3264C18.0615 48.3093 19.5225 48.1445 19.7051 47.0884ZM21.7646 53.3125C20.9824 50.7595 20.8916 50.5663 20.3809 50.3885C19.9248 50.2296 19.9229 50.2295 19.5645 50.374C19.1865 50.5264 18.8945 50.9897 18.8955 51.4341C18.8975 51.9872 20.1885 56.026 20.5732 56.6816C20.9189 57.2714 21.6709 57.8621 22.3857 58.1051C22.9658 58.3029 27.5713 58.3024 27.9434 58.1046C28.0938 58.0247 28.2852 57.8699 28.3691 57.7609C28.6035 57.4554 28.5605 56.6918 28.29 56.3577C28.0566 56.0688 27.9961 56.0612 25.4785 56C23.1162 55.9426 22.8848 55.917 22.6602 55.6875C22.5215 55.5453 22.1348 54.5214 21.7646 53.3125ZM34.1504 57.5188C34.3691 57.1089 34.3066 56.5387 34.0039 56.1903C33.6836 55.8228 33.1768 55.729 32.2207 55.8607C31.4131 55.972 31.0879 56.1598 30.9336 56.6023C30.7598 57.1005 30.8809 57.5865 31.252 57.8779C31.877 58.3696 33.8232 58.1287 34.1504 57.5188Z" fill="#1B1B1B" fill-opacity="1.000000" fill-rule="evenodd"/>
	<path id="image 46 (Traced)" d="M30.8564 0.40625C30.8223 0.629761 30.7637 1.3042 30.7246 1.90515C30.6338 3.32397 30.2881 5.08667 29.666 7.29004C28.7295 10.6113 28.4668 13.0049 28.6582 16.493C28.7891 18.8772 28.9766 19.986 29.6729 22.4788C30.2461 24.5299 30.5977 26.2612 30.7236 27.6562L30.8105 28.625L31.9414 28.625L33.0713 28.625L32.9932 27.5312C32.8867 26.0281 32.627 24.7085 31.9072 22C31 18.5908 30.9688 18.3469 30.9727 14.75C30.9775 11.2344 31.0488 10.7146 31.9609 7.56274C32.5039 5.68555 32.623 5.56445 33.8037 5.68079C35.4561 5.84351 36.335 5.13318 36.5996 3.41992C36.6484 3.10437 36.8027 2.78711 36.9941 2.60742L37.3076 2.3125L43.5234 2.27429C46.9414 2.2533 49.9844 2.27173 50.2861 2.31555C50.9111 2.40637 51.4277 2.83972 51.4287 3.27563C51.4316 4.56934 52.2939 5.47705 53.833 5.80542C54.292 5.9032 54.6807 6.34534 54.6807 6.7688C54.6807 6.95935 54.5693 7.59277 54.4336 8.17627C53.9824 10.1069 53.8047 12.0009 53.8047 14.875C53.8047 18.668 53.9902 19.9496 55.2148 24.625C55.46 25.5616 55.6963 26.827 55.7451 27.4688L55.834 28.625L57.0088 28.625L58.1846 28.625L58.1846 28.1373C58.1846 27.3342 57.7188 24.916 57.2432 23.25C56.2529 19.7842 55.9951 17.703 56.0908 13.9452C56.1553 11.3802 56.3926 9.58191 56.9141 7.6875C57.6475 5.02942 57.8174 4.34131 57.9824 3.375C58.083 2.79065 58.2041 1.79224 58.2529 1.15625L58.3418 0L44.6299 0L30.918 0L30.8564 0.40625ZM38.6064 4.96875C38.4824 5.4707 37.835 6.43335 37.3145 6.89014C36.6992 7.42957 35.6758 7.87878 34.8711 7.96167L34.2051 8.0304L33.8643 9.25391C33.3105 11.2438 33.1201 13.0969 33.2021 15.6875C33.2773 18.0719 33.4336 19.0376 34.1475 21.5522C34.6484 23.3163 35.1201 25.5796 35.2178 26.6875C35.2598 27.1687 35.3242 27.8035 35.3613 28.0981L35.4277 28.6339L36.6318 28.5981L37.8359 28.5625L37.9922 27.946C38.2588 26.9022 38.9287 25.7505 39.7412 24.9386C43.3975 21.2864 49.4492 22.7279 51.1045 27.6455L51.4131 28.5625L52.4844 28.5986C53.0732 28.6185 53.5537 28.5903 53.5527 28.5361C53.5322 27.616 53.1982 25.8425 52.6875 23.9391C51.7246 20.3512 51.5127 18.7238 51.5107 14.875C51.5098 12.212 51.5547 11.3951 51.7832 9.91089C51.9346 8.93359 52.0879 8.05505 52.125 7.95813C52.1699 7.84167 51.9668 7.65466 51.5254 7.40564C50.6934 6.93665 49.9902 6.17041 49.5898 5.29626L49.2822 4.625L43.9873 4.625L38.6914 4.625L38.6064 4.96875ZM44.0449 10.6621C44.5352 10.8427 44.9531 11.1349 45.4951 11.6765C46.4717 12.6523 46.8389 13.5258 46.8389 14.875C46.8389 16.2242 46.4717 17.0977 45.4951 18.0735C44.5479 19.0201 43.666 19.3914 42.3594 19.3944C40.498 19.3987 39.0889 18.531 38.1885 16.8259C37.8848 16.25 37.8516 16.059 37.8516 14.875C37.8516 13.6174 37.8691 13.5295 38.2803 12.7723C39.4209 10.6704 41.752 9.81726 44.0449 10.6621ZM41.3008 12.844C41.0654 12.9641 40.7031 13.2743 40.4961 13.5331C40.0039 14.1487 39.8994 15.2083 40.2656 15.8718C41.126 17.4313 43.2598 17.5568 44.2031 16.1034C44.9219 14.9958 44.5088 13.4321 43.3496 12.8715C42.7197 12.5667 41.8682 12.5552 41.3008 12.844ZM43.4238 25.3179C41.9248 25.7361 40.6768 26.9205 40.2363 28.3438L40.1494 28.625L44.5527 28.625L48.9561 28.625L48.875 28.2188C48.7529 27.6079 47.9854 26.5377 47.3457 26.0879C46.1611 25.2533 44.6904 24.9646 43.4238 25.3179Z" fill="#E07153" fill-opacity="1.000000" fill-rule="evenodd"/>
	<path id="image 46 (Traced)" d="M0.685547 38.3025C0.476562 38.3915 0.237305 38.6155 0.15332 38.8005C0.0361328 39.0585 0 41.9435 0 51.203L0 63.2693L0.366211 63.6346C0.567383 63.8356 0.849609 64 0.995117 64C1.13965 64 4.0293 63.4403 7.41699 62.7561C16 61.0228 16.6768 60.8815 16.75 60.809C16.7852 60.7738 15.4111 56.0701 13.6963 50.3566C11.1113 41.7452 10.5352 39.9501 10.3252 39.8621C10.1865 39.8035 8.1582 39.4163 5.81836 39.0013C3.47852 38.5865 1.45117 38.2233 1.31348 38.194C1.17578 38.1648 0.893555 38.2136 0.685547 38.3025Z" fill="#1B1B1B" fill-opacity="1.000000" fill-rule="nonzero"/>
</svg>
