<svg width="64.000000" height="64.000000" viewBox="0 0 64 64" fill="none" xmlns="http://www.w3.org/2000/svg" xmlns:xlink="http://www.w3.org/1999/xlink">
	<desc>
			Created with Pixso.
	</desc>
	<defs/>
	<rect id="Frame 120" width="64.000000" height="64.000000" fill="#FFFFFF" fill-opacity="0"/>
	<path id="Rectangle 21" d="M9 19.3L31 19.3L31 58.3L9 58.3L9 19.3Z" fill="#E07153" fill-opacity="1.000000" fill-rule="nonzero"/>
	<path id="image 47 (Traced)" d="M5.93945 5.92432C3.12695 6.59814 0.832031 8.96887 0.179688 11.8732C-0.655273 15.5945 1.57324 19.449 5.30566 20.7367L6.3125 21.0841L4.31152 21.0858C3.21094 21.0867 2.12012 21.1417 1.88672 21.208C1.18555 21.4072 0.638672 21.8579 0.310547 22.5056L0 23.1185L0 39.7002C0 54.3866 0.0224609 56.3345 0.193359 56.7408C0.451172 57.3531 0.832031 57.7454 1.4375 58.0222C1.90625 58.2367 2.41895 58.251 9.65625 58.2537L17.376 58.2563L17.376 42.1887L17.376 26.1211L15.7588 28.4672C14.0205 30.9885 13.707 31.2882 12.8057 31.2882C11.7598 31.2882 10.9541 30.4751 10.9697 29.4363C10.9795 28.7831 10.8613 28.9803 13.8135 24.6804L16.1885 21.2205L19.2744 21.2158L22.3613 21.2113L25.2695 25.2035C28.1309 29.1332 28.1777 29.2064 28.2207 29.8806C28.2783 30.7679 27.9678 31.2898 27.1768 31.6366C26.4697 31.9465 25.8174 31.8633 25.2744 31.3938C25.0635 31.2108 24.0645 29.9182 23.0537 28.5212C22.0439 27.1243 21.1973 25.9581 21.1719 25.9297C21.1465 25.9014 21.126 33.1632 21.126 42.0671L21.126 58.2563L41.5957 58.2537C61.2295 58.251 62.085 58.2416 62.5654 58.0222C63.1699 57.7454 63.5508 57.3531 63.8086 56.7408C63.9805 56.3344 64.002 54.3912 64 39.7068C63.9971 23.8185 63.9873 23.1112 63.7646 22.6361C63.4863 22.0416 63.1348 21.6614 62.5928 21.3676C62.2158 21.1633 61.2373 21.1473 47.1895 21.1157L32.1885 21.082L33.1885 20.7374C37.6982 19.1835 39.7471 14.2383 37.6377 9.99878C36.3721 7.45361 33.9395 5.88367 31.0635 5.75525C29.543 5.68738 28.4688 5.90771 27.1309 6.56226C25.8096 7.20862 24.8857 8.18005 21.8848 12.074C20.4795 13.8969 19.2939 15.3882 19.25 15.3882C19.2061 15.3882 17.8906 13.744 16.3252 11.7343C14.7607 9.72473 13.1895 7.82593 12.834 7.51501C12.0586 6.8363 10.7314 6.17627 9.62305 5.91736C8.62012 5.68311 6.93262 5.68628 5.93945 5.92432ZM9.07129 9.62769C9.41016 9.73022 9.92285 9.99512 10.209 10.2162C10.6113 10.5262 15.4404 16.5504 15.9258 17.3468C16.0059 17.4792 15.1973 17.5012 11.4814 17.4672C7.30664 17.4292 6.8877 17.406 6.3252 17.1814C5.47363 16.8419 4.58105 16.0096 4.16309 15.1656C3.86035 14.5554 3.81348 14.3153 3.81836 13.4059C3.82422 12.2955 4.01172 11.7573 4.70996 10.8486C5.61328 9.67297 7.4873 9.14844 9.07129 9.62769ZM32.4385 9.8125C33.248 10.201 33.9541 10.9242 34.3574 11.7769C34.7939 12.6998 34.8242 14.1597 34.4238 15.0228C34.0996 15.7214 33.4746 16.4385 32.8477 16.8311C31.877 17.438 31.2715 17.5005 26.6992 17.4652L22.4795 17.4325L25.125 14.0254C26.5801 12.1515 28.0049 10.4371 28.292 10.2157C29.0361 9.64136 29.7607 9.43652 30.8848 9.48267C31.5615 9.5105 32.0049 9.60449 32.4385 9.8125ZM44.8896 29.5459C46.0312 30.3018 46.002 31.7958 44.8291 32.6641C44.4922 32.9127 44.3418 32.9196 39.1895 32.9196C34.0371 32.9196 33.8857 32.9127 33.5498 32.6641C32.376 31.7958 32.3467 30.3018 33.4883 29.5459L33.9131 29.2646L39.1895 29.2646L44.4648 29.2646L44.8896 29.5459ZM52.1748 38.1093C52.8105 38.3723 53.1895 38.9874 53.1895 39.7557C53.1895 40.4487 52.9609 40.8694 52.3291 41.3368C51.9873 41.5894 51.8789 41.5923 42.9395 41.5923C33.999 41.5923 33.8906 41.5894 33.5498 41.3368C32.9111 40.8644 32.6885 40.4504 32.6885 39.7339C32.6885 38.9598 32.9697 38.4906 33.6348 38.1544C34.0312 37.9542 34.7354 37.9377 42.9121 37.9376C50.1738 37.9374 51.834 37.9683 52.1748 38.1093ZM52.1748 46.782C52.8105 47.045 53.1895 47.6602 53.1895 48.4285C53.1895 49.1215 52.9609 49.5421 52.3291 50.0095C51.9873 50.2621 51.8789 50.265 42.9395 50.265C33.999 50.265 33.8906 50.2621 33.5498 50.0095C32.9111 49.5371 32.6885 49.1232 32.6885 48.4066C32.6885 47.6326 32.9697 47.1633 33.6348 46.8271C34.0312 46.627 34.7354 46.6105 42.9121 46.6104C50.1738 46.6101 51.834 46.641 52.1748 46.782Z" fill="#000000" fill-opacity="1.000000" fill-rule="evenodd"/>
	<mask id="mask853_4884" mask-type="alpha" maskUnits="userSpaceOnUse" x="0.000000" y="5.743530" width="64.000000" height="52.512817">
		<path id="image 47 (Traced)" d="M5.93945 5.92432C3.12695 6.59814 0.832031 8.96887 0.179688 11.8732C-0.655273 15.5945 1.57324 19.449 5.30566 20.7367L6.3125 21.0841L4.31152 21.0858C3.21094 21.0867 2.12012 21.1417 1.88672 21.208C1.18555 21.4072 0.638672 21.8579 0.310547 22.5056L0 23.1185L0 39.7002C0 54.3866 0.0224609 56.3345 0.193359 56.7408C0.451172 57.3531 0.832031 57.7454 1.4375 58.0222C1.90625 58.2367 2.41895 58.251 9.65625 58.2537L17.376 58.2563L17.376 42.1887L17.376 26.1211L15.7588 28.4672C14.0205 30.9885 13.707 31.2882 12.8057 31.2882C11.7598 31.2882 10.9541 30.4751 10.9697 29.4363C10.9795 28.7831 10.8613 28.9803 13.8135 24.6804L16.1885 21.2205L19.2744 21.2158L22.3613 21.2113L25.2695 25.2035C28.1309 29.1332 28.1777 29.2064 28.2207 29.8806C28.2783 30.7679 27.9678 31.2898 27.1768 31.6366C26.4697 31.9465 25.8174 31.8633 25.2744 31.3938C25.0635 31.2108 24.0645 29.9182 23.0537 28.5212C22.0439 27.1243 21.1973 25.9581 21.1719 25.9297C21.1465 25.9014 21.126 33.1632 21.126 42.0671L21.126 58.2563L41.5957 58.2537C61.2295 58.251 62.085 58.2416 62.5654 58.0222C63.1699 57.7454 63.5508 57.3531 63.8086 56.7408C63.9805 56.3344 64.002 54.3912 64 39.7068C63.9971 23.8185 63.9873 23.1112 63.7646 22.6361C63.4863 22.0416 63.1348 21.6614 62.5928 21.3676C62.2158 21.1633 61.2373 21.1473 47.1895 21.1157L32.1885 21.082L33.1885 20.7374C37.6982 19.1835 39.7471 14.2383 37.6377 9.99878C36.3721 7.45361 33.9395 5.88367 31.0635 5.75525C29.543 5.68738 28.4688 5.90771 27.1309 6.56226C25.8096 7.20862 24.8857 8.18005 21.8848 12.074C20.4795 13.8969 19.2939 15.3882 19.25 15.3882C19.2061 15.3882 17.8906 13.744 16.3252 11.7343C14.7607 9.72473 13.1895 7.82593 12.834 7.51501C12.0586 6.8363 10.7314 6.17627 9.62305 5.91736C8.62012 5.68311 6.93262 5.68628 5.93945 5.92432ZM9.07129 9.62769C9.41016 9.73022 9.92285 9.99512 10.209 10.2162C10.6113 10.5262 15.4404 16.5504 15.9258 17.3468C16.0059 17.4792 15.1973 17.5012 11.4814 17.4672C7.30664 17.4292 6.8877 17.406 6.3252 17.1814C5.47363 16.8419 4.58105 16.0096 4.16309 15.1656C3.86035 14.5554 3.81348 14.3153 3.81836 13.4059C3.82422 12.2955 4.01172 11.7573 4.70996 10.8486C5.61328 9.67297 7.4873 9.14844 9.07129 9.62769ZM32.4385 9.8125C33.248 10.201 33.9541 10.9242 34.3574 11.7769C34.7939 12.6998 34.8242 14.1597 34.4238 15.0228C34.0996 15.7214 33.4746 16.4385 32.8477 16.8311C31.877 17.438 31.2715 17.5005 26.6992 17.4652L22.4795 17.4325L25.125 14.0254C26.5801 12.1515 28.0049 10.4371 28.292 10.2157C29.0361 9.64136 29.7607 9.43652 30.8848 9.48267C31.5615 9.5105 32.0049 9.60449 32.4385 9.8125ZM44.8896 29.5459C46.0312 30.3018 46.002 31.7958 44.8291 32.6641C44.4922 32.9127 44.3418 32.9196 39.1895 32.9196C34.0371 32.9196 33.8857 32.9127 33.5498 32.6641C32.376 31.7958 32.3467 30.3018 33.4883 29.5459L33.9131 29.2646L39.1895 29.2646L44.4648 29.2646L44.8896 29.5459ZM52.1748 38.1093C52.8105 38.3723 53.1895 38.9874 53.1895 39.7557C53.1895 40.4487 52.9609 40.8694 52.3291 41.3368C51.9873 41.5894 51.8789 41.5923 42.9395 41.5923C33.999 41.5923 33.8906 41.5894 33.5498 41.3368C32.9111 40.8644 32.6885 40.4504 32.6885 39.7339C32.6885 38.9598 32.9697 38.4906 33.6348 38.1544C34.0312 37.9542 34.7354 37.9377 42.9121 37.9376C50.1738 37.9374 51.834 37.9683 52.1748 38.1093ZM52.1748 46.782C52.8105 47.045 53.1895 47.6602 53.1895 48.4285C53.1895 49.1215 52.9609 49.5421 52.3291 50.0095C51.9873 50.2621 51.8789 50.265 42.9395 50.265C33.999 50.265 33.8906 50.2621 33.5498 50.0095C32.9111 49.5371 32.6885 49.1232 32.6885 48.4066C32.6885 47.6326 32.9697 47.1633 33.6348 46.8271C34.0312 46.627 34.7354 46.6105 42.9121 46.6104C50.1738 46.6101 51.834 46.641 52.1748 46.782Z" fill="#000000" fill-opacity="1.000000" fill-rule="evenodd"/>
	</mask>
	<g mask="url(#mask853_4884)">
		<path id="Rectangle 21" d="M-4.92285 3.20007L44.3076 3.20007L44.3076 21.0873L-4.92285 21.0873L-4.92285 3.20007Z" fill="#E07153" fill-opacity="1.000000" fill-rule="nonzero"/>
	</g>
</svg>
