<svg width="64.000000" height="64.000000" viewBox="0 0 64 64" fill="none" xmlns="http://www.w3.org/2000/svg" xmlns:xlink="http://www.w3.org/1999/xlink">
	<desc>
			Created with Pixso.
	</desc>
	<defs>
		<clipPath id="clip850_23393">
			<rect id="ic 2" width="64.000000" height="64.000000" fill="white" fill-opacity="0"/>
		</clipPath>
	</defs>
	<rect id="ic 2" width="64.000000" height="64.000000" fill="#FFFFFF" fill-opacity="0"/>
	<g clip-path="url(#clip850_23393)">
		<g opacity="0.030000">
			<path id="Vector" d="M48.8154 59.6571C48.8535 61.8862 38.4463 63.8079 25.5527 63.9617C12.6982 64.1154 2.25195 62.4243 2.21289 60.1952C2.17383 57.9659 12.582 56.0443 25.4756 55.8906C38.3291 55.7368 48.8154 57.4279 48.8154 59.6571Z" fill="#4A7085" fill-opacity="1.000000" fill-rule="nonzero"/>
		</g>
		<g opacity="0.030000">
			<path id="Vector" d="M48.1553 59.6187C48.1943 61.7325 38.0967 63.5388 25.5918 63.6926C13.0869 63.8463 2.95117 62.2322 2.95117 60.1567C2.91211 58.0428 13.0098 56.198 25.5146 56.0828C37.9805 55.929 48.1162 57.5048 48.1553 59.6187Z" fill="#4A7085" fill-opacity="1.000000" fill-rule="nonzero"/>
		</g>
		<g opacity="0.030000">
			<path id="Vector" d="M47.417 59.6187C47.4561 61.5787 37.6689 63.2699 25.5918 63.3851C13.5137 63.5389 3.68848 62.0784 3.68848 60.1183C3.64941 58.1582 13.4365 56.4672 25.5137 56.3518C37.5918 56.1981 47.3779 57.6586 47.417 59.6187Z" fill="#4A7085" fill-opacity="1.000000" fill-rule="nonzero"/>
		</g>
		<g opacity="0.030000">
			<path id="Vector" d="M46.6006 59.5802C46.6006 61.425 37.2031 63.0393 25.5527 63.1545C13.9023 63.3083 4.46484 61.9247 4.46484 60.0798C4.42578 58.2351 13.8633 56.6208 25.4746 56.5056C37.125 56.3518 46.5625 57.7355 46.6006 59.5802Z" fill="#4A7085" fill-opacity="1.000000" fill-rule="nonzero"/>
		</g>
		<g opacity="0.030000">
			<path id="Vector" d="M45.8252 59.5033C45.8643 61.2712 36.7764 62.8086 25.5918 62.9238C14.3691 63.0392 5.28125 61.7324 5.28125 59.9645C5.24219 58.1965 14.3301 56.6592 25.5146 56.5438C36.6992 56.4286 45.7861 57.7738 45.8252 59.5033Z" fill="#4A7085" fill-opacity="1.000000" fill-rule="nonzero"/>
		</g>
		<g opacity="0.030000">
			<path id="Vector" d="M45.0098 59.4648C45.0479 61.156 36.3496 62.6549 25.5918 62.7701C14.835 62.8855 6.09668 61.6172 6.09668 59.9261C6.05762 58.235 14.7959 56.7361 25.5527 56.6208C36.2324 56.5055 44.9707 57.7738 45.0098 59.4648Z" fill="#4A7085" fill-opacity="1.000000" fill-rule="nonzero"/>
		</g>
		<g opacity="0.030000">
			<path id="Vector" d="M44.3486 59.4264C44.3877 61.0791 35.96 62.5396 25.5527 62.6549C15.1445 62.7701 6.67871 61.5403 6.67871 59.8877C6.67871 58.235 15.0674 56.7745 25.4746 56.6592C35.8828 56.5055 44.3486 57.7354 44.3486 59.4264Z" fill="#4A7085" fill-opacity="1.000000" fill-rule="nonzero"/>
		</g>
		<g opacity="0.030000">
			<path id="Vector" d="M43.4951 59.465C43.5332 61.0023 35.4951 62.3859 25.5527 62.5012C15.6504 62.6165 7.57227 61.4635 7.57227 59.8877C7.5332 58.3503 15.5723 56.9668 25.5137 56.8514C35.417 56.7362 43.4561 57.8892 43.4951 59.465Z" fill="#4A7085" fill-opacity="1.000000" fill-rule="nonzero"/>
		</g>
		<g opacity="0.030000">
			<path id="Vector" d="M42.7568 59.465C42.7568 60.9254 35.0674 62.2322 25.5527 62.3474C16.0381 62.4628 8.27148 61.3481 8.27148 59.8877C8.27148 58.4272 15.9609 57.1205 25.4756 57.0051C35.0283 56.8899 42.7568 57.9661 42.7568 59.465Z" fill="#4A7085" fill-opacity="1.000000" fill-rule="nonzero"/>
		</g>
		<path id="Vector" d="M17.7861 58.6578C17.4756 58.6578 17.2031 58.4271 17.1641 58.1198C16.1934 49.818 22.6016 40.7092 22.873 40.325C23.0674 40.0559 23.4561 39.979 23.7275 40.1711C23.999 40.3634 24.0771 40.7477 23.8828 41.0167C23.8057 41.0936 17.4756 50.1639 18.4072 57.9659C18.4463 58.3119 18.2129 58.5809 17.8633 58.6194C17.8633 58.6578 17.8242 58.6578 17.7861 58.6578Z" fill="#3C2012" fill-opacity="1.000000" fill-rule="nonzero"/>
		<path id="Vector" d="M18.0967 57.7352C18.0967 57.7352 14.291 56.0057 13.6309 58.3502C12.9707 60.6562 17.4365 60.0797 18.0195 60.0028C18.6406 59.9644 19.3008 58.427 18.0967 57.7352Z" fill="#3C2012" fill-opacity="1.000000" fill-rule="evenodd"/>
		<path id="Vector" d="M36.6211 58.6577C36.582 58.6577 36.582 58.6577 36.543 58.6577C36.1934 58.6193 35.9609 58.3118 36 58.0043C36.9707 50.1638 30.6016 41.132 30.5234 41.0551C30.3301 40.786 30.4072 40.4017 30.6797 40.2095C30.9512 40.0173 31.3398 40.0942 31.5332 40.3633C31.8057 40.7476 38.2129 49.8563 37.2031 58.1581C37.165 58.4271 36.8926 58.6577 36.6211 58.6577Z" fill="#3C2012" fill-opacity="1.000000" fill-rule="nonzero"/>
		<path id="Vector" d="M36.3105 57.7352C36.3105 57.7352 40.1162 56.0057 40.7764 58.3502C41.4365 60.6562 36.9707 60.0797 36.3887 60.0028C35.7666 59.9644 35.1064 58.427 36.3105 57.7352Z" fill="#3C2012" fill-opacity="1.000000" fill-rule="evenodd"/>
		<path id="Vector" d="M47.9609 35.4823C46.4463 35.4823 44.4658 34.9442 41.9033 33.868C41.5918 33.7528 41.4365 33.3684 41.5918 33.0609C41.709 32.7535 42.0967 32.5997 42.4082 32.7535C46.1748 34.3677 48.5049 34.7136 49.709 33.8296C50.6406 33.1378 50.9902 31.6005 50.7188 29.1792C50.6797 28.8333 50.9121 28.5642 51.2617 28.5258C51.6113 28.4873 51.8838 28.7179 51.9219 29.0638C52.2334 31.9464 51.7666 33.8296 50.4082 34.8289C49.7861 35.2517 48.9707 35.4823 47.9609 35.4823Z" fill="#3C2012" fill-opacity="1.000000" fill-rule="nonzero"/>
		<path id="Vector" d="M49.5918 25.9122C49.5918 25.9122 50.7959 25.1052 51.4561 25.9507C52.1162 26.7963 53.2031 28.7948 51.2227 29.7556C49.2422 30.7166 48.543 30.0631 48.8154 29.1023C49.0479 28.1415 49.7861 28.4105 49.7861 28.4105C49.7861 28.4105 48.2715 26.95 49.5918 25.9122Z" fill="#3C2012" fill-opacity="1.000000" fill-rule="evenodd"/>
		<path id="Vector" d="M0.116211 42.7462C-0.233398 43.3612 0.232422 43.8992 0.232422 43.8992L63.1455 21.7615C63.417 20.1088 62.5244 18.3793 62.5244 18.3793L0.116211 42.7462Z" fill="#EEC357" fill-opacity="1.000000" fill-rule="evenodd"/>
		<path id="Vector" d="M0 43.1305C0 43.2074 0 43.2843 0 43.3611L57.748 21.7615L63.0293 19.7628C62.9512 19.5322 62.9131 19.3016 62.835 19.1095L0.504883 42.9768L0 43.1305Z" fill="#F5E0B3" fill-opacity="1.000000" fill-rule="evenodd"/>
		<path id="Vector" d="M0.116211 42.7462C0 42.9768 0 43.1689 0 43.3228L62.9902 19.6476C62.7959 18.9174 62.5244 18.4177 62.5244 18.4177L0.116211 42.7462Z" fill="#F3D99A" fill-opacity="1.000000" fill-rule="evenodd"/>
		<path id="Vector" d="M0.504883 44.0144C0.155273 44.6294 0.621094 45.1675 0.621094 45.1675L63.9609 25.4895C64.2715 23.8368 63.3789 22.0688 63.3789 22.0688L0.504883 44.0144Z" fill="#EEC357" fill-opacity="1.000000" fill-rule="evenodd"/>
		<path id="Vector" d="M0.349609 44.3988C0.349609 44.4757 0.349609 44.5525 0.349609 44.6294L58.5244 25.2972L63.8447 23.4908C63.8057 23.2603 63.7285 23.0297 63.6504 22.8375L0.854492 44.2451L0.349609 44.3988Z" fill="#F5E0B3" fill-opacity="1.000000" fill-rule="evenodd"/>
		<path id="Vector" d="M0.504883 44.0145C0.388672 44.2067 0.349609 44.3988 0.349609 44.5525L63.8057 23.3372C63.6113 22.6069 63.3398 22.0688 63.3398 22.0688L0.504883 44.0145Z" fill="#F3D99A" fill-opacity="1.000000" fill-rule="evenodd"/>
		<path id="Vector" d="M4.69824 44.2836C4.46582 44.2836 4.27148 44.1683 4.15527 43.9376C0.853516 37.5961 2.3291 36.4431 5.70801 34.6367C6.3291 34.2909 7.02832 33.9449 7.7666 33.4838C8.03809 33.2915 8.42676 33.4069 8.62109 33.6759C8.81543 33.9449 8.69824 34.3292 8.42676 34.5215C7.65039 35.0211 6.95117 35.4054 6.29102 35.7513C3.33887 37.3271 2.36816 37.8651 5.28125 43.438C5.43652 43.7455 5.32031 44.0914 5.00879 44.2451C4.89258 44.2451 4.81543 44.2836 4.69824 44.2836Z" fill="#3C2012" fill-opacity="1.000000" fill-rule="nonzero"/>
		<path id="Vector" d="M42.291 16.7651C43.1455 17.726 43.9219 19.0712 43.9219 24.4902C43.9219 28.6027 44.0391 35.2133 44 40.248C43.9609 46.3975 43.6504 48.9341 37.126 50.3561C31.8447 51.5092 18.835 52.2394 12.5049 50.087C10.1357 49.2799 7.68945 46.1284 7.68945 42.8616C7.68945 40.4786 7.37891 19.4554 7.37891 19.4554C7.37891 19.4554 6.75684 14.9972 11.3789 13.7672C15.2617 12.5374 35.2617 9.96228 42.291 16.7651Z" fill="#2E5753" fill-opacity="1.000000" fill-rule="evenodd"/>
		<path id="Vector" d="M40.7764 49.1262C39.8447 49.6259 38.6797 50.0103 37.126 50.3561C31.8447 51.5092 18.835 52.2394 12.5049 50.087C11.1455 49.6259 9.74707 48.3575 8.81543 46.7817C8.54297 45.6288 8.27148 44.1299 8.23242 42.631C8.19336 39.5563 7.7666 20.0704 7.7666 20.0704C7.7666 20.0704 8.03809 17.726 9.51465 16.6882C10.9512 15.689 16.0771 19.8782 16.0771 19.8782L22.6016 21.1465C22.6016 21.1465 15.1836 21.9921 14.5625 24.5287C14.5625 24.5287 14.1357 41.2473 14.9512 45.1292C15.7666 49.0493 19.3779 49.7028 22.5625 49.7795C25.7471 49.8949 35.8447 50.9326 40.7764 49.1262Z" fill="#1E3E3B" fill-opacity="1.000000" fill-rule="evenodd"/>
		<path id="Vector" d="M34.7178 50.7788C28.582 51.6628 18.0195 51.9702 12.543 50.087C11.6895 49.7795 10.7959 49.1646 10.0195 48.3575C9.55273 46.9739 9.12598 45.2059 9.12598 43.438C9.12598 39.71 8.62109 21.5308 8.62109 21.5308C8.62109 21.5308 8.85449 19.3016 9.51465 18.7251C10.1748 18.1487 14.7568 20.7621 14.7568 20.7621L14.6406 21.6077C14.6406 21.6077 12.6211 22.3379 12.4658 23.9521C12.3105 25.5663 12.4658 44.322 12.7373 46.1283C13.0098 47.9347 15.5342 50.3561 20.3496 50.5482C24.1553 50.6636 30.3691 51.1248 34.7178 50.7788Z" fill="#15312E" fill-opacity="1.000000" fill-rule="evenodd"/>
		<path id="Vector" d="M28.6602 12.8447C32.1943 13.1522 37.3984 13.9209 39.6895 15.6119C43.3789 18.3024 45.7871 20.5699 35.9229 21.8383C26.0586 23.1066 7.76758 23.0297 7.96191 18.0718C8.07812 13.9594 14.4082 13.2676 20.9326 12.8447C23.5732 12.691 26.0586 12.6141 28.6602 12.8447Z" fill="#718280" fill-opacity="1.000000" fill-rule="evenodd"/>
		<path id="Vector" d="M30.0195 13.306C33.2822 13.6519 37.2432 14.3438 39.1455 15.6505C42.7188 18.1102 45.0098 20.1472 35.4951 21.3002C25.9805 22.4532 8.38867 22.3763 8.54395 17.8796C8.69922 14.2668 14.5635 13.5751 20.6992 13.1907C23.8447 12.9985 26.835 12.9601 30.0195 13.306Z" fill="#FFFFFF" fill-opacity="1.000000" fill-rule="evenodd"/>
		<path id="Vector" d="M36.3496 14.4207C37.4756 14.7665 38.4473 15.1509 39.1455 15.6505C42.7188 18.1102 45.0098 20.1472 35.4951 21.3002C25.9805 22.4532 8.38867 22.3763 8.54395 17.8796C8.69922 14.5743 13.5537 13.7288 19.0293 13.306C18.9131 13.3445 18.7578 13.4214 18.6025 13.5366C17.9805 13.8826 18.2529 13.9978 17.5537 13.9978C16.8545 13.9978 16.9326 13.8826 16.6221 13.9978C16.3105 14.1132 15.5732 13.8826 15.6123 14.3053C15.6504 14.7665 16.4277 14.6897 15.7285 14.8434C15.0293 14.9586 15.3398 14.9586 15.0293 14.9586C14.7188 14.9586 14.0586 15.074 14.0586 15.074C14.0586 15.074 13.3594 14.6128 13.8252 15.074C14.292 15.5352 14.4082 15.5352 13.6699 15.6505C12.8154 15.8042 13.127 15.6121 12.583 15.9963C12.0391 16.3423 11.8838 16.4576 11.8838 16.4576C11.8838 16.4576 12.6602 16.2654 12.6221 16.7267C12.583 17.1879 12.6602 16.8419 12.6221 17.2646C12.583 17.649 13.3203 16.7267 13.2822 17.5721C13.2432 18.4177 12.8936 18.4562 13.2432 18.4946C13.5928 18.533 12.8936 17.7643 14.1357 18.1487C15.418 18.4946 15.6123 18.1102 15.7676 18.6483C15.9229 19.1864 16.4277 18.9174 16.8154 19.3785C17.2041 19.8397 17.709 19.7629 18.0195 19.6476C18.292 19.5322 17.5537 18.9943 18.4854 19.5322C19.418 20.0703 20.2334 18.802 20.9326 19.3785C21.6318 19.9551 22.9131 20.2241 22.9131 20.2241C22.9131 20.2241 24.1943 19.4939 24.6992 20.1472C25.2041 20.7622 26.5635 20.2241 26.9902 20.3778C27.418 20.5316 28.2334 20.5316 29.0488 19.7629C29.8643 18.9943 30.7578 18.6868 31.1846 18.9943C31.6123 19.3016 31.3789 19.2633 32.5439 19.1479C33.709 18.9943 34.0195 18.9943 34.0195 18.9943C34.0195 18.9943 34.4473 18.6099 35.0684 18.7252C35.6895 18.8405 36.1553 17.995 36.6221 18.2639C37.0488 18.533 37.5146 17.9565 37.9805 18.1871C38.4082 18.4177 38.9131 18.3024 39.3398 18.3024C39.7285 18.3024 40.0391 18.4946 40.0391 18.1871C40.0391 17.8796 41.2432 18.3793 40 17.726C38.7578 17.111 38.9521 16.6113 38.9521 16.6113C38.9521 16.6113 39.9229 16.4192 38.9131 16.0732C37.9033 15.7273 37.8643 15.5352 37.4756 15.4967C37.127 15.4584 37.709 15.8427 36.8545 14.9586C36.6221 14.7665 36.5049 14.5743 36.3496 14.4207Z" fill="#F1EFE5" fill-opacity="1.000000" fill-rule="evenodd"/>
		<path id="Vector" d="M40.583 16.6497C43.1465 18.6482 43.6895 20.3009 35.5342 21.3002C26.0195 22.4531 8.42773 22.3763 8.58301 17.8795C8.66113 15.3429 11.5732 14.2284 15.3789 13.6903C15.1465 13.9209 14.8359 14.1515 14.6025 14.3436C13.8643 14.8817 13.0098 14.5359 13.0098 14.5359C13.0098 14.5359 12.9326 14.8049 12.583 15.1892C12.1943 15.6119 11.8066 15.1892 11.8066 15.1892C11.8066 15.1892 10.9912 15.6119 11.2627 16.0348C11.5342 16.4575 11.1846 16.3806 10.8359 16.6497C10.5244 16.9572 10.1367 18.6099 10.7578 18.4945C11.418 18.3793 11.6895 17.6106 12.0391 18.1102C12.3496 18.6099 11.8838 19.6091 12.9326 19.5322C13.9814 19.4553 15.1074 18.9941 15.1846 19.6859C15.2627 20.3778 16.583 20.9542 17.8262 20.7621C19.0684 20.5315 21.5146 20.6084 21.5146 20.9542C21.5146 21.3002 21.8262 20.9542 23.1846 21.1848C24.5439 21.4155 26.6797 21.108 27.3018 21.3386C27.9229 21.5692 29.7871 21.7614 29.709 20.9927C29.6318 20.224 30.3311 19.7244 31.2236 20.0703C32.1172 20.4546 33.0098 20.1472 33.3213 20.1472C33.6318 20.1472 33.8262 19.5322 34.9131 19.6476C36.001 19.7628 36.2334 20.0703 36.2334 20.0703C36.2334 20.0703 36.3115 19.5707 37.0879 19.5707C37.8643 19.5707 38.6416 19.5322 38.8359 19.6476C39.0293 19.7628 39.418 18.9557 40.3496 19.0326C41.2822 19.1095 41.3213 19.8397 41.3594 18.9557C41.3984 18.0718 41.6318 18.1486 41.2432 17.5721C41.0488 17.3416 40.8164 16.9956 40.583 16.6497Z" fill="#E7E5D8" fill-opacity="1.000000" fill-rule="evenodd"/>
		<path id="Vector" d="M13.9033 15.9963C13.8262 16.0348 13.3213 15.9963 13.3213 16.3806C13.2822 16.765 13.3984 16.8804 13.5156 16.8804C13.6318 16.8804 14.0586 16.8804 13.9424 16.765C13.8652 16.6497 13.5928 16.6497 13.748 16.4575C13.9033 16.2654 14.3311 16.0348 14.3311 16.0348L13.9033 15.9963Z" fill="#F1EFE5" fill-opacity="1.000000" fill-rule="evenodd"/>
		<path id="Vector" d="M14.7969 17.1877C14.7969 17.1877 14.5254 17.3799 15.2236 17.4952C15.9229 17.6105 15.9229 17.3799 15.9229 17.3799C15.9229 17.3799 16.2334 17.9949 15.418 17.9949C14.6416 17.9949 14.4082 17.3414 14.7969 17.1877Z" fill="#F1EFE5" fill-opacity="1.000000" fill-rule="evenodd"/>
		<path id="Vector" d="M16.7373 18.1871C16.7373 18.1871 16.4658 18.3793 17.165 18.4946C17.8643 18.6099 17.8643 18.3408 17.8643 18.3408C17.8643 18.3408 18.1748 18.9558 17.3594 18.9558C16.5439 18.9943 16.3496 18.3408 16.7373 18.1871Z" fill="#F1EFE5" fill-opacity="1.000000" fill-rule="evenodd"/>
		<path id="Vector" d="M15.4561 15.0355C15.3789 15.074 14.874 15.0355 14.874 15.4198C14.835 15.8042 14.9512 15.9196 15.0684 15.9196C15.1846 15.9196 15.6113 15.9196 15.4951 15.8042C15.418 15.6888 15.1455 15.6888 15.3008 15.4967C15.4561 15.3046 15.8838 15.074 15.8838 15.074L15.4561 15.0355Z" fill="#F1EFE5" fill-opacity="1.000000" fill-rule="evenodd"/>
		<path id="Vector" d="M38.5244 16.8419C38.5244 16.8419 38.7959 17.0341 38.0967 17.1494C37.3975 17.2646 37.3975 16.9956 37.3975 16.9956C37.3975 16.9956 37.0869 17.6106 37.9023 17.6106C38.6797 17.649 38.874 16.9956 38.5244 16.8419Z" fill="#F1EFE5" fill-opacity="1.000000" fill-rule="evenodd"/>
		<path id="Vector" d="M36 17.4183C36 17.4183 35.9609 17.8411 35.6504 17.9949C35.3398 18.1486 34.835 18.1486 34.835 18.1486C34.835 18.1486 35.3789 17.918 35.5342 17.7643C35.6895 17.572 36 17.2646 36 17.4183Z" fill="#F1EFE5" fill-opacity="1.000000" fill-rule="evenodd"/>
		<path id="Vector" d="M37.5537 16.2654C37.5537 16.2654 37.5537 16.5344 37.3975 16.6498C37.2422 16.7267 36.9707 16.765 36.9707 16.765C36.9707 16.765 37.2422 16.6113 37.3203 16.4961C37.3975 16.3807 37.5537 16.1501 37.5537 16.2654Z" fill="#F1EFE5" fill-opacity="1.000000" fill-rule="evenodd"/>
		<path id="Vector" d="M15.2627 27.0269C15.2627 27.0269 15.1846 43.9761 16.1162 46.0131C17.0488 48.05 19.4561 48.934 21.9805 49.1646C24.4658 49.3953 25.9033 49.472 25.9033 49.472C25.9033 49.472 26.9131 49.1646 25.3203 48.4343C23.7666 47.7041 17.3984 47.8962 17.0488 44.2067C16.6992 40.4786 15.6895 29.7941 15.7666 28.4104C15.8447 27.0269 15.1846 25.5663 15.2627 27.0269Z" fill="#416260" fill-opacity="1.000000" fill-rule="evenodd"/>
		<path id="Vector" d="M41.165 21.7614C41.165 21.7614 42.5635 20.8774 42.7959 22.2227C43.0293 23.6062 43.2617 29.256 43.417 34.7904C43.5342 40.3248 43.0684 45.3596 42.0195 46.5896C41.0098 47.8195 40.3887 46.2437 40.9316 44.6294C41.4756 42.9768 41.4756 40.248 41.3984 35.1364C41.3203 30.0247 41.2812 24.7593 40.6211 24.0291C39.9609 23.2604 39.6895 22.4532 41.165 21.7614Z" fill="#416260" fill-opacity="1.000000" fill-rule="evenodd"/>
		<path id="Vector" d="M37.708 22.7223C38.6787 22.6069 38.7178 23.2603 38.0186 23.5293C37.3193 23.7983 34.9893 24.1443 34.3682 24.1443C33.7471 24.1443 34.2129 23.145 34.9512 22.9913C35.6885 22.876 37.708 22.7223 37.708 22.7223Z" fill="#416260" fill-opacity="1.000000" fill-rule="evenodd"/>
		<path id="Vector" d="M41.7471 22.069C41.7471 22.069 42.5244 21.4924 42.6016 22.8761C42.6797 24.2596 43.3008 33.9449 43.1455 38.0189C42.9902 42.0929 42.6016 45.5134 42.0967 46.1284C41.5918 46.705 41.5527 46.1284 41.7861 45.1676C41.9805 44.2067 42.3301 36.6353 42.291 33.868C42.252 31.1008 41.9414 24.8362 41.7861 23.9906C41.6309 23.1451 41.126 22.2227 41.7471 22.069Z" fill="#536D6A" fill-opacity="1.000000" fill-rule="evenodd"/>
		<path id="Vector" d="M41.7471 22.069C41.7471 22.069 42.5244 21.4924 42.6016 22.8761C42.6797 24.2596 43.3008 33.9449 43.1455 38.0189C42.9902 42.0929 42.6016 45.5134 42.0967 46.1284C41.7471 46.5896 41.6309 46.359 41.6699 45.8209C42.0195 44.9753 42.3301 43.8224 42.5244 42.2081C43.1455 37.0966 42.4463 26.1045 42.1357 24.1444C41.9414 22.9529 41.6699 22.4917 41.4756 22.2996C41.5146 22.1842 41.5918 22.1074 41.7471 22.069Z" fill="#627976" fill-opacity="1.000000" fill-rule="evenodd"/>
		<path id="Vector" d="M17.0869 31.7542C17.0869 31.7542 17.7861 29.7172 20 30.0631C22.2129 30.4091 22.6406 31.8695 22.6406 31.8695C22.5625 28.6794 17.3584 28.2952 17.0869 31.7542Z" fill="#3C2012" fill-opacity="1.000000" fill-rule="evenodd"/>
		<path id="Vector" d="M19.7275 31.7926C18.7178 31.8311 17.9414 32.8688 17.9795 34.1755C18.0186 35.4438 18.873 36.4816 19.8828 36.4431C20.8926 36.4047 21.6689 35.3669 21.6309 34.0602C21.5527 32.7919 20.6982 31.7926 19.7275 31.7926Z" fill="#FFFFFF" fill-opacity="1.000000" fill-rule="evenodd"/>
		<path id="Vector" d="M19.5332 31.9078C18.6787 31.9463 18.0186 32.8303 18.0576 33.9064C18.0957 34.9825 18.7949 35.8666 19.6494 35.8281C20.5039 35.7897 21.1641 34.9058 21.125 33.8296C21.125 32.715 20.3877 31.8694 19.5332 31.9078Z" fill="#3C2012" fill-opacity="1.000000" fill-rule="evenodd"/>
		<path id="Vector" d="M18.2119 33.7527C18.2119 33.7527 18.29 34.4829 18.9111 35.021C19.5322 35.5591 20.2705 35.4822 20.2705 35.4822C20.2705 35.4822 19.3389 35.7897 18.834 35.3669C18.3672 34.9441 18.0566 34.137 18.2119 33.7527Z" fill="#878787" fill-opacity="1.000000" fill-rule="evenodd"/>
		<path id="Vector" d="M18.2129 33.7527C18.2129 33.7527 18.29 34.4829 18.9121 35.021C19.5332 35.5591 20.2705 35.4822 20.2705 35.4822C20.2705 35.4822 20.2324 35.4822 20.1543 35.5206C19.8828 35.5591 19.4941 35.5591 19.1836 35.4822C18.834 35.3669 18.5234 35.021 18.3291 34.5983C18.1738 34.2523 18.1738 33.9448 18.1738 33.8296C18.2129 33.7911 18.2129 33.7911 18.2129 33.7527Z" fill="#706F6F" fill-opacity="1.000000" fill-rule="evenodd"/>
		<path id="Vector" d="M18.251 33.868C18.29 34.0986 18.4453 34.5983 18.9111 35.021C19.4551 35.4823 20.1152 35.4823 20.2705 35.4823C20.0371 35.5591 19.4941 35.5206 19.1826 35.4054C18.8721 35.2517 18.4844 34.7904 18.3672 34.483C18.29 34.2908 18.251 34.0217 18.251 33.868Z" fill="#575756" fill-opacity="1.000000" fill-rule="evenodd"/>
		<path id="Vector" d="M18.3291 34.137C18.4072 34.406 18.6006 34.752 18.9502 35.021C19.416 35.4053 19.96 35.4822 20.1934 35.4822C19.96 35.5206 19.5723 35.4822 19.3389 35.4053C19.1055 35.3284 18.7559 34.9825 18.5625 34.7135C18.4072 34.5597 18.3291 34.2906 18.3291 34.137Z" fill="#3C3C3B" fill-opacity="1.000000" fill-rule="evenodd"/>
		<path id="Vector" d="M19.6494 32.2922C19.3779 32.4075 19.2998 32.7534 19.417 33.0992C19.5723 33.4452 19.8828 33.6373 20.1543 33.5221C20.4268 33.4067 20.5039 33.0609 20.3877 32.715C20.2715 32.369 19.9219 32.1769 19.6494 32.2922Z" fill="#FFFFFF" fill-opacity="1.000000" fill-rule="evenodd"/>
		<path id="Vector" d="M39.1064 30.5627C39.1064 30.5627 38.3291 28.5642 36.1162 28.9869C33.9023 29.4481 33.5527 30.9087 33.5527 30.9087C33.5527 27.7186 38.7178 27.1038 39.1064 30.5627Z" fill="#3C2012" fill-opacity="1.000000" fill-rule="evenodd"/>
		<path id="Vector" d="M19.7666 37.3655C19.1846 37.4039 18.7188 37.7114 18.7568 38.0574C18.7959 38.4032 19.3008 38.6338 19.8838 38.557C20.4658 38.5186 20.9316 38.2111 20.8926 37.8651C20.8926 37.5577 20.3887 37.327 19.7666 37.3655Z" fill="#EA5160" fill-opacity="1.000000" fill-rule="evenodd"/>
		<path id="Vector" d="M36.6992 36.4431C36.1943 36.4816 35.8057 36.7506 35.8447 37.0197C35.8838 37.2887 36.3105 37.4808 36.7764 37.4424C37.2812 37.4039 37.6699 37.1349 37.6309 36.8658C37.6309 36.5969 37.2041 36.4047 36.6992 36.4431Z" fill="#EA5160" fill-opacity="1.000000" fill-rule="evenodd"/>
		<path id="Vector" d="M36.4268 30.9087C35.417 30.9471 34.6406 31.9849 34.6787 33.2915C34.7178 34.5598 35.5723 35.5975 36.582 35.5591C37.5918 35.5208 38.3682 34.483 38.3301 33.1763C38.291 31.8695 37.4365 30.8702 36.4268 30.9087Z" fill="#FFFFFF" fill-opacity="1.000000" fill-rule="evenodd"/>
		<path id="Vector" d="M36.2715 30.9856C35.417 31.024 34.7568 31.908 34.7959 32.9841C34.834 34.0603 35.5332 34.9442 36.3877 34.9058C37.2422 34.8674 37.9023 33.9834 37.8633 32.9072C37.8242 31.8312 37.126 30.9471 36.2715 30.9856Z" fill="#3C2012" fill-opacity="1.000000" fill-rule="evenodd"/>
		<path id="Vector" d="M34.9512 32.8687C34.9512 32.8687 35.0293 33.5989 35.6504 34.137C36.2715 34.675 37.0098 34.5981 37.0098 34.5981C37.0098 34.5981 36.0771 34.9056 35.5723 34.4829C35.1064 34.0216 34.7568 33.2146 34.9512 32.8687Z" fill="#878787" fill-opacity="1.000000" fill-rule="evenodd"/>
		<path id="Vector" d="M34.9512 32.8687C34.9512 32.8687 35.0283 33.5989 35.6504 34.137C36.2715 34.675 37.0088 34.5981 37.0088 34.5981C37.0088 34.5981 36.9707 34.5981 36.8926 34.6366C36.6211 34.675 36.2324 34.675 35.9219 34.5981C35.5723 34.4829 35.2617 34.137 35.0674 33.7142C34.9121 33.3683 34.9121 33.0608 34.9121 32.9456C34.9512 32.8687 34.9512 32.8687 34.9512 32.8687Z" fill="#706F6F" fill-opacity="1.000000" fill-rule="evenodd"/>
		<path id="Vector" d="M34.9512 32.9456C34.9902 33.1761 35.1455 33.6758 35.6113 34.0985C36.1553 34.5598 36.8154 34.5598 36.9707 34.5598C36.7373 34.6366 36.1943 34.5983 35.8828 34.4829C35.5723 34.3292 35.1846 33.8679 35.0674 33.5605C34.9902 33.3683 34.9902 33.0992 34.9512 32.9456Z" fill="#575756" fill-opacity="1.000000" fill-rule="evenodd"/>
		<path id="Vector" d="M35.0293 33.2146C35.1074 33.4836 35.3008 33.8296 35.6504 34.0986C36.1162 34.4829 36.6602 34.5598 36.8936 34.5598C36.6602 34.5983 36.2725 34.5598 36.0391 34.4829C35.8057 34.406 35.4561 34.0602 35.2627 33.7911C35.1455 33.6373 35.0684 33.4067 35.0293 33.2146Z" fill="#3C3C3B" fill-opacity="1.000000" fill-rule="evenodd"/>
		<path id="Vector" d="M36.3877 31.37C36.1162 31.4852 36.0381 31.8312 36.1553 32.177C36.3105 32.5229 36.6211 32.7151 36.8926 32.5999C37.165 32.4845 37.2422 32.1387 37.126 31.7927C36.9707 31.4468 36.6602 31.2546 36.3877 31.37Z" fill="#FFFFFF" fill-opacity="1.000000" fill-rule="evenodd"/>
		<path id="Vector" d="M26.0195 11.1537C27.0293 11.1537 27.8838 11.9224 27.8838 12.8832C27.8838 13.844 27.0293 14.6127 26.0195 14.6127C25.0098 14.6127 24.1553 13.844 24.1553 12.8832C24.1553 11.9224 24.9707 11.1537 26.0195 11.1537Z" fill="#DB3715" fill-opacity="1.000000" fill-rule="evenodd"/>
		<path id="Vector" d="M26.0576 11.269C27.0674 11.269 27.8447 12.0377 27.8447 12.9601C27.8447 13.8826 27.0283 14.6512 26.0576 14.6512C25.0479 14.6512 24.2715 13.8826 24.2715 12.9601C24.2715 11.9993 25.0869 11.269 26.0576 11.269Z" fill="#BE2218" fill-opacity="1.000000" fill-rule="evenodd"/>
		<path id="Vector" d="M26.7959 11.4612C27.3398 11.7302 27.7285 12.2683 27.7285 12.9216C27.7285 13.8057 26.9512 14.5359 25.9805 14.5359C25.4365 14.5359 24.9707 14.3053 24.6602 13.9594C24.8936 14.0747 25.165 14.1515 25.4365 14.1515C26.4082 14.1515 27.1846 13.4213 27.1846 12.5374C27.2236 12.0762 27.0684 11.7302 26.7959 11.4612Z" fill="#AC2014" fill-opacity="1.000000" fill-rule="evenodd"/>
		<path id="Vector" d="M25.6318 11.4612C26.0195 11.4612 26.3691 11.7302 26.3691 12.0762C26.3691 12.422 26.0586 12.691 25.6318 12.691C25.2432 12.691 24.8936 12.422 24.8936 12.0762C24.8936 11.7302 25.2432 11.4612 25.6318 11.4612Z" fill="#DB3715" fill-opacity="1.000000" fill-rule="evenodd"/>
		<path id="Vector" d="M26.9131 11.9608C26.9131 11.9608 27.4561 12.4604 27.3398 12.9985C27.2236 13.5365 27.6895 13.2291 27.6895 12.8832C27.6895 12.5757 27.6504 12.2299 27.4951 12.076C27.3398 11.9224 26.7959 11.7686 26.9131 11.9608Z" fill="#DB3715" fill-opacity="1.000000" fill-rule="evenodd"/>
		<path id="Vector" d="M25.5527 11.7687C25.708 11.7687 25.8252 11.884 25.8252 11.9993C25.8252 12.153 25.708 12.2299 25.5527 12.2299C25.3975 12.2299 25.2812 12.1146 25.2812 11.9993C25.2812 11.884 25.3975 11.7687 25.5527 11.7687Z" fill="#E26037" fill-opacity="1.000000" fill-rule="evenodd"/>
		<path id="Vector" d="M36.0771 11.7302C37.2812 11.7302 38.252 12.6526 38.252 13.8057C38.252 14.9586 37.2812 15.8811 36.0771 15.8811C34.873 15.8811 33.9023 14.9586 33.9023 13.8057C33.9414 12.6526 34.9121 11.7302 36.0771 11.7302Z" fill="#DB3715" fill-opacity="1.000000" fill-rule="evenodd"/>
		<path id="Vector" d="M36.1543 11.884C37.3193 11.884 38.252 12.7681 38.252 13.8826C38.252 14.9972 37.3193 15.8811 36.1543 15.8811C34.9893 15.8811 34.0576 14.9972 34.0576 13.8826C34.0967 12.7681 35.0283 11.884 36.1543 11.884Z" fill="#BE2218" fill-opacity="1.000000" fill-rule="evenodd"/>
		<path id="Vector" d="M37.0479 12.0762C37.708 12.3837 38.1357 13.037 38.1357 13.8057C38.1357 14.8818 37.2422 15.7274 36.1162 15.7274C35.4941 15.7274 34.9512 15.4584 34.5625 15.0355C34.834 15.1893 35.1455 15.2661 35.4941 15.2661C36.6211 15.2661 37.5137 14.4207 37.5137 13.3445C37.5137 12.8448 37.3193 12.4221 37.0479 12.0762Z" fill="#AC2014" fill-opacity="1.000000" fill-rule="evenodd"/>
		<path id="Vector" d="M35.6504 12.1145C36.1162 12.1145 36.5049 12.4604 36.5049 12.8447C36.5049 13.2291 36.1162 13.575 35.6504 13.575C35.1846 13.575 34.7959 13.2291 34.7959 12.8447C34.7959 12.4604 35.1846 12.1145 35.6504 12.1145Z" fill="#DB3715" fill-opacity="1.000000" fill-rule="evenodd"/>
		<path id="Vector" d="M35.5723 12.4989C35.7666 12.4989 35.8828 12.6143 35.8828 12.8064C35.8828 12.9985 35.7275 13.1139 35.5723 13.1139C35.3779 13.1139 35.2617 12.9985 35.2617 12.8064C35.2617 12.6143 35.3779 12.4989 35.5723 12.4989Z" fill="#E26037" fill-opacity="1.000000" fill-rule="evenodd"/>
		<path id="Vector" d="M33.3584 12.2299C34.5625 12.2299 35.5332 13.1522 35.5332 14.3053C35.5332 15.4583 34.5625 16.3807 33.3584 16.3807C32.1543 16.3807 31.1836 15.4583 31.1836 14.3053C31.1836 13.1522 32.1543 12.2299 33.3584 12.2299Z" fill="#C8231A" fill-opacity="1.000000" fill-rule="evenodd"/>
		<path id="Vector" d="M33.4355 12.3835C34.6006 12.3835 35.5332 13.2676 35.5332 14.3821C35.5332 15.4967 34.6006 16.3806 33.4355 16.3806C32.2705 16.3806 31.3389 15.4967 31.3389 14.3821C31.3389 13.2676 32.2705 12.3835 33.4355 12.3835Z" fill="#AD2419" fill-opacity="1.000000" fill-rule="evenodd"/>
		<path id="Vector" d="M34.29 12.5758C34.9502 12.9218 35.417 13.5751 35.417 14.3053C35.417 15.3815 34.5234 16.2271 33.3975 16.2271C32.7754 16.2271 32.2324 15.958 31.8438 15.5352C32.1152 15.689 32.4268 15.7657 32.7754 15.7657C33.9023 15.7657 34.7949 14.9203 34.7949 13.8441C34.7949 13.3445 34.6006 12.9218 34.29 12.5758Z" fill="#941D0E" fill-opacity="1.000000" fill-rule="evenodd"/>
		<path id="Vector" d="M32.9316 12.6141C33.3975 12.6141 33.7861 12.9601 33.7861 13.3444C33.7861 13.7288 33.3975 14.0746 32.9316 14.0746C32.4658 14.0746 32.0771 13.7288 32.0771 13.3444C32.0771 12.9601 32.4658 12.6141 32.9316 12.6141Z" fill="#BE2218" fill-opacity="1.000000" fill-rule="evenodd"/>
		<path id="Vector" d="M34.4453 13.2291C34.4453 13.2291 35.0664 13.8057 34.9502 14.459C34.7949 15.1124 35.3389 14.728 35.3389 14.3438C35.3389 13.9594 35.2998 13.5751 35.1055 13.3829C34.9111 13.1907 34.251 12.9601 34.4453 13.2291Z" fill="#BE2218" fill-opacity="1.000000" fill-rule="evenodd"/>
		<path id="Vector" d="M21.6699 11.4996C22.874 11.4996 23.8447 12.422 23.8447 13.5751C23.8447 14.728 22.874 15.6505 21.6699 15.6505C20.4658 15.6505 19.4951 14.728 19.4951 13.5751C19.4951 12.422 20.4658 11.4996 21.6699 11.4996Z" fill="#DB3715" fill-opacity="1.000000" fill-rule="evenodd"/>
		<path id="Vector" d="M21.7471 11.6533C22.9121 11.6533 23.8447 12.5374 23.8447 13.6519C23.8447 14.7665 22.9121 15.6504 21.7471 15.6504C20.582 15.6504 19.6504 14.7665 19.6504 13.6519C19.6504 12.5374 20.582 11.6533 21.7471 11.6533Z" fill="#BE2218" fill-opacity="1.000000" fill-rule="evenodd"/>
		<path id="Vector" d="M22.6016 11.8456C23.2617 12.1915 23.6895 12.8064 23.6895 13.5751C23.6895 14.6512 22.7959 15.4968 21.6699 15.4968C21.0479 15.4968 20.5049 15.2278 20.1162 14.8049C20.3877 14.9587 20.6992 15.0355 21.0479 15.0355C22.1748 15.0355 23.0674 14.1901 23.0674 13.1139C23.0674 12.6143 22.9121 12.1915 22.6016 11.8456Z" fill="#AC2014" fill-opacity="1.000000" fill-rule="evenodd"/>
		<path id="Vector" d="M21.2041 11.8839C21.6699 11.8839 22.0586 12.2299 22.0586 12.6141C22.0586 13.0369 21.6699 13.3444 21.2041 13.3444C20.7383 13.3444 20.3496 12.9985 20.3496 12.6141C20.3887 12.2299 20.7383 11.8839 21.2041 11.8839Z" fill="#DB3715" fill-opacity="1.000000" fill-rule="evenodd"/>
		<path id="Vector" d="M22.7568 12.4989C22.7568 12.4989 23.3779 13.0754 23.2617 13.7288C23.1064 14.3822 23.6504 13.9978 23.6504 13.6135C23.6504 13.2291 23.6113 12.8448 23.417 12.6527C23.2227 12.4221 22.5625 12.2299 22.7568 12.4989Z" fill="#DB3715" fill-opacity="1.000000" fill-rule="evenodd"/>
		<path id="Vector" d="M21.126 12.2683C21.3203 12.2683 21.4365 12.3837 21.4365 12.5758C21.4365 12.7295 21.2812 12.8833 21.126 12.8833C20.9316 12.8833 20.8154 12.7679 20.8154 12.5758C20.8154 12.3837 20.9707 12.2683 21.126 12.2683Z" fill="#E26037" fill-opacity="1.000000" fill-rule="evenodd"/>
		<path id="Vector" d="M23.1455 12.8064C24.3496 12.8064 25.3203 13.7288 25.3203 14.8818C25.3203 16.0348 24.3496 16.9573 23.1455 16.9573C21.9414 16.9573 20.9707 16.0348 20.9707 14.8818C20.9707 13.7672 21.9414 12.8064 23.1455 12.8064Z" fill="#DB3715" fill-opacity="1.000000" fill-rule="evenodd"/>
		<path id="Vector" d="M23.2227 12.9601C24.3877 12.9601 25.3203 13.8441 25.3203 14.9586C25.3203 16.0732 24.3877 16.9572 23.2227 16.9572C22.0576 16.9572 21.126 16.0732 21.126 14.9586C21.126 13.8441 22.0576 12.9601 23.2227 12.9601Z" fill="#BE2218" fill-opacity="1.000000" fill-rule="evenodd"/>
		<path id="Vector" d="M24.0771 13.1907C24.7373 13.4982 25.165 14.1515 25.165 14.9202C25.165 15.9963 24.2715 16.8419 23.1455 16.8419C22.5234 16.8419 21.9805 16.5729 21.5918 16.15C21.8633 16.3038 22.1748 16.3806 22.5234 16.3806C23.6504 16.3806 24.543 15.5352 24.543 14.459C24.543 13.9594 24.3877 13.5366 24.0771 13.1907Z" fill="#AC2014" fill-opacity="1.000000" fill-rule="evenodd"/>
		<path id="Vector" d="M22.6797 13.2291C23.1455 13.2291 23.5342 13.5751 23.5342 13.9594C23.5342 14.3821 23.1455 14.6896 22.6797 14.6896C22.2139 14.6896 21.8252 14.3438 21.8252 13.9594C21.8643 13.5366 22.2139 13.2291 22.6797 13.2291Z" fill="#DB3715" fill-opacity="1.000000" fill-rule="evenodd"/>
		<path id="Vector" d="M24.2324 13.8057C24.2324 13.8057 24.8535 14.3822 24.7373 15.0355C24.582 15.689 25.126 15.3046 25.126 14.9203C25.126 14.5359 25.0869 14.1516 24.8926 13.9595C24.6982 13.7672 24.0381 13.5751 24.2324 13.8057Z" fill="#DB3715" fill-opacity="1.000000" fill-rule="evenodd"/>
		<path id="Vector" d="M22.6016 13.5751C22.7959 13.5751 22.9121 13.6904 22.9121 13.8826C22.9121 14.0363 22.7568 14.1901 22.6016 14.1901C22.4072 14.1901 22.291 14.0747 22.291 13.8826C22.291 13.7288 22.4463 13.5751 22.6016 13.5751Z" fill="#E26037" fill-opacity="1.000000" fill-rule="evenodd"/>
		<path id="Vector" d="M26.252 13.5751C27.4561 13.5751 28.4268 14.4974 28.4268 15.6505C28.4268 16.8035 27.4561 17.726 26.252 17.726C25.0479 17.726 24.0771 16.8035 24.0771 15.6505C24.0771 14.4974 25.0479 13.5751 26.252 13.5751Z" fill="#C8231A" fill-opacity="1.000000" fill-rule="evenodd"/>
		<path id="Vector" d="M26.3291 13.7288C27.4941 13.7288 28.4268 14.6128 28.4268 15.7273C28.4268 16.8419 27.4941 17.7258 26.3291 17.7258C25.1641 17.7258 24.2324 16.8419 24.2324 15.7273C24.2324 14.6128 25.1641 13.7288 26.3291 13.7288Z" fill="#AD2419" fill-opacity="1.000000" fill-rule="evenodd"/>
		<path id="Vector" d="M27.1836 13.921C27.8438 14.2285 28.2715 14.8818 28.2715 15.6505C28.2715 16.7267 27.3779 17.5723 26.252 17.5723C25.6299 17.5723 25.0869 17.3032 24.6982 16.8804C24.9697 17.0342 25.2812 17.111 25.6299 17.111C26.7568 17.111 27.6494 16.2655 27.6494 15.1893C27.6885 14.7281 27.4941 14.267 27.1836 13.921Z" fill="#AC2014" fill-opacity="1.000000" fill-rule="evenodd"/>
		<path id="Vector" d="M25.8252 13.9594C26.291 13.9594 26.6797 14.3053 26.6797 14.6896C26.6797 15.074 26.291 15.4198 25.8252 15.4198C25.3594 15.4198 24.9707 15.074 24.9707 14.6896C24.9707 14.3053 25.3594 13.9594 25.8252 13.9594Z" fill="#BE2218" fill-opacity="1.000000" fill-rule="evenodd"/>
		<path id="Vector" d="M27.3389 14.5743C27.3389 14.5743 27.96 15.1509 27.8438 15.8042C27.6885 16.4576 28.2324 16.0732 28.2324 15.689C28.2324 15.3046 28.1934 14.9203 27.999 14.7281C27.8047 14.5359 27.1445 14.3053 27.3389 14.5743Z" fill="#BE2218" fill-opacity="1.000000" fill-rule="evenodd"/>
		<path id="Vector" d="M24.0771 16.0732C25.2812 16.0732 26.252 16.9956 26.252 18.1487C26.252 19.3016 25.2812 20.2241 24.0771 20.2241C22.873 20.2241 21.9023 19.3016 21.9023 18.1487C21.9023 16.9956 22.873 16.0732 24.0771 16.0732Z" fill="#DB3715" fill-opacity="1.000000" fill-rule="evenodd"/>
		<path id="Vector" d="M24.1543 16.2269C25.3193 16.2269 26.252 17.111 26.252 18.2255C26.252 19.3401 25.3193 20.224 24.1543 20.224C22.9893 20.224 22.0576 19.3401 22.0576 18.2255C22.0576 17.111 22.9893 16.2269 24.1543 16.2269Z" fill="#BE2218" fill-opacity="1.000000" fill-rule="evenodd"/>
		<path id="Vector" d="M25.0088 16.4192C25.6689 16.7267 26.0967 17.38 26.0967 18.1487C26.0967 19.2249 25.2031 20.0704 24.0771 20.0704C23.4551 20.0704 22.9121 19.8014 22.5234 19.3785C22.7949 19.5323 23.1064 19.6091 23.4551 19.6091C24.582 19.6091 25.4746 18.7637 25.4746 17.6875C25.4746 17.1879 25.3193 16.7651 25.0088 16.4192Z" fill="#AC2014" fill-opacity="1.000000" fill-rule="evenodd"/>
		<path id="Vector" d="M23.6504 16.4575C24.1162 16.4575 24.5049 16.8035 24.5049 17.1877C24.5049 17.6105 24.1162 17.918 23.6504 17.918C23.1846 17.918 22.7959 17.5721 22.7959 17.1877C22.7959 16.765 23.1846 16.4575 23.6504 16.4575Z" fill="#DB3715" fill-opacity="1.000000" fill-rule="evenodd"/>
		<path id="Vector" d="M25.1641 17.0341C25.1641 17.0341 25.7852 17.6106 25.6689 18.2639C25.5137 18.9174 26.0967 18.533 26.0967 18.1487C26.0967 17.7643 26.0576 17.38 25.8633 17.1879C25.6299 16.9956 24.9697 16.8035 25.1641 17.0341Z" fill="#DB3715" fill-opacity="1.000000" fill-rule="evenodd"/>
		<path id="Vector" d="M23.5332 16.8419C23.7275 16.8419 23.8438 16.9573 23.8438 17.1494C23.8438 17.3416 23.6885 17.4569 23.5332 17.4569C23.3389 17.4569 23.2227 17.3416 23.2227 17.1494C23.2227 16.9573 23.3779 16.8419 23.5332 16.8419Z" fill="#E26037" fill-opacity="1.000000" fill-rule="evenodd"/>
		<path id="Vector" d="M27.6504 16.8035C28.8545 16.8035 29.8252 17.7258 29.8252 18.8789C29.8252 20.0319 28.8545 20.9543 27.6504 20.9543C26.4463 20.9543 25.4756 20.0319 25.4756 18.8789C25.4756 17.7258 26.4463 16.8035 27.6504 16.8035Z" fill="#DB3715" fill-opacity="1.000000" fill-rule="evenodd"/>
		<path id="Vector" d="M27.7275 16.9572C28.8926 16.9572 29.8252 17.8412 29.8252 18.9557C29.8252 20.0703 28.8926 20.9542 27.7275 20.9542C26.5625 20.9542 25.6309 20.0703 25.6309 18.9557C25.6309 17.8412 26.5625 16.9572 27.7275 16.9572Z" fill="#BE2218" fill-opacity="1.000000" fill-rule="evenodd"/>
		<path id="Vector" d="M28.582 17.1494C29.2422 17.4569 29.6699 18.1102 29.6699 18.8789C29.6699 19.9551 28.7764 20.8007 27.6504 20.8007C27.0283 20.8007 26.4854 20.5316 26.0967 20.1088C26.3682 20.2626 26.6797 20.3394 27.0283 20.3394C28.1553 20.3394 29.0479 19.4939 29.0479 18.4177C29.0479 17.9181 28.8926 17.4954 28.582 17.1494Z" fill="#AC2014" fill-opacity="1.000000" fill-rule="evenodd"/>
		<path id="Vector" d="M27.1846 17.1877C27.6504 17.1877 28.0391 17.5337 28.0391 17.918C28.0391 18.3407 27.6504 18.6482 27.1846 18.6482C26.7188 18.6482 26.3301 18.3024 26.3301 17.918C26.3691 17.4952 26.7188 17.1877 27.1846 17.1877Z" fill="#DB3715" fill-opacity="1.000000" fill-rule="evenodd"/>
		<path id="Vector" d="M28.7373 17.7643C28.7373 17.7643 29.3584 18.3408 29.2422 18.9941C29.0869 19.6476 29.6309 19.2632 29.6309 18.8789C29.6309 18.4945 29.5918 18.1102 29.3975 17.9181C29.2031 17.7258 28.543 17.5337 28.7373 17.7643Z" fill="#DB3715" fill-opacity="1.000000" fill-rule="evenodd"/>
		<path id="Vector" d="M27.1064 17.5721C27.3008 17.5721 27.417 17.6875 27.417 17.8796C27.417 18.0333 27.2617 18.1871 27.1064 18.1871C26.9121 18.1871 26.7959 18.0718 26.7959 17.8796C26.7959 17.6875 26.9512 17.5721 27.1064 17.5721Z" fill="#E26037" fill-opacity="1.000000" fill-rule="evenodd"/>
		<path id="Vector" d="M29.5918 12.0377C30.7959 12.0377 31.7666 12.9601 31.7666 14.1132C31.7666 15.2661 30.7959 16.1886 29.5918 16.1886C28.3877 16.1886 27.417 15.2661 27.417 14.1132C27.417 12.9601 28.3877 12.0377 29.5918 12.0377Z" fill="#DB3715" fill-opacity="1.000000" fill-rule="evenodd"/>
		<path id="Vector" d="M29.6689 12.1914C30.834 12.1914 31.7666 13.0754 31.7666 14.1899C31.7666 15.3046 30.834 16.1885 29.6689 16.1885C28.5039 16.1885 27.5723 15.3046 27.5723 14.1899C27.5723 13.0754 28.5039 12.1914 29.6689 12.1914Z" fill="#BE2218" fill-opacity="1.000000" fill-rule="evenodd"/>
		<path id="Vector" d="M30.5234 12.3837C31.1836 12.6912 31.6113 13.3445 31.6113 14.1132C31.6113 15.1893 30.7178 16.0349 29.5918 16.0349C28.9697 16.0349 28.4268 15.7659 28.0381 15.343C28.3096 15.4968 28.6211 15.5736 28.9697 15.5736C30.0967 15.5736 30.9893 14.7281 30.9893 13.652C31.0283 13.1523 30.834 12.7296 30.5234 12.3837Z" fill="#AC2014" fill-opacity="1.000000" fill-rule="evenodd"/>
		<path id="Vector" d="M29.165 12.422C29.6309 12.422 30.0195 12.7679 30.0195 13.1522C30.0195 13.575 29.6309 13.8824 29.165 13.8824C28.6992 13.8824 28.3105 13.5366 28.3105 13.1522C28.3105 12.7679 28.6992 12.422 29.165 12.422Z" fill="#DB3715" fill-opacity="1.000000" fill-rule="evenodd"/>
		<path id="Vector" d="M29.0869 12.8064C29.2812 12.8064 29.3975 12.9218 29.3975 13.1139C29.3975 13.2676 29.2422 13.4214 29.0869 13.4214C28.8926 13.4214 28.7764 13.306 28.7764 13.1139C28.7373 12.9218 28.8926 12.8064 29.0869 12.8064Z" fill="#E26037" fill-opacity="1.000000" fill-rule="evenodd"/>
		<path id="Vector" d="M30.1357 14.459C31.3398 14.459 32.3105 15.3813 32.3105 16.5344C32.3105 17.6874 31.3398 18.6099 30.1357 18.6099C28.9316 18.6099 27.9609 17.6874 27.9609 16.5344C27.9609 15.3813 28.9316 14.459 30.1357 14.459Z" fill="#DB3715" fill-opacity="1.000000" fill-rule="evenodd"/>
		<path id="Vector" d="M30.2129 14.6127C31.3779 14.6127 32.3105 15.4967 32.3105 16.6112C32.3105 17.7258 31.3779 18.6097 30.2129 18.6097C29.0479 18.6097 28.1162 17.7258 28.1162 16.6112C28.1162 15.4967 29.0479 14.6127 30.2129 14.6127Z" fill="#BE2218" fill-opacity="1.000000" fill-rule="evenodd"/>
		<path id="Vector" d="M31.0674 14.8433C31.7275 15.1508 32.1553 15.8041 32.1553 16.5728C32.1553 17.6489 31.2617 18.4945 30.1357 18.4945C29.5137 18.4945 28.9707 18.2255 28.582 17.8026C28.8535 17.9564 29.165 18.0332 29.5137 18.0332C30.6406 18.0332 31.5332 17.1877 31.5332 16.1116C31.5723 15.6119 31.3779 15.1508 31.0674 14.8433Z" fill="#AC2014" fill-opacity="1.000000" fill-rule="evenodd"/>
		<path id="Vector" d="M29.709 14.8433C30.1748 14.8433 30.5635 15.1892 30.5635 15.5735C30.5635 15.9962 30.1748 16.3037 29.709 16.3037C29.2432 16.3037 28.8545 15.9579 28.8545 15.5735C28.8545 15.1892 29.2432 14.8433 29.709 14.8433Z" fill="#DB3715" fill-opacity="1.000000" fill-rule="evenodd"/>
		<path id="Vector" d="M31.2227 15.4583C31.2227 15.4583 31.8447 16.0348 31.7275 16.6881C31.5723 17.3416 32.1162 16.9572 32.1162 16.5729C32.1162 16.1885 32.0771 15.8042 31.8828 15.6121C31.6885 15.4198 31.0674 15.2277 31.2227 15.4583Z" fill="#DB3715" fill-opacity="1.000000" fill-rule="evenodd"/>
		<path id="Vector" d="M29.6309 15.2277C29.8252 15.2277 29.9414 15.343 29.9414 15.5352C29.9414 15.6888 29.7861 15.8427 29.6309 15.8427C29.4365 15.8427 29.3203 15.7273 29.3203 15.5352C29.3203 15.343 29.4365 15.2277 29.6309 15.2277Z" fill="#E26037" fill-opacity="1.000000" fill-rule="evenodd"/>
		<path id="Vector" d="M39.9609 14.6128C41.0088 14.6128 41.8633 15.4199 41.8633 16.4192C41.8633 17.4185 41.0088 18.2256 39.9609 18.2256C38.9121 18.2256 38.0576 17.4185 38.0576 16.4192C38.0576 15.4199 38.9121 14.6128 39.9609 14.6128Z" fill="#DB3715" fill-opacity="1.000000" fill-rule="evenodd"/>
		<path id="Vector" d="M40.0381 14.7281C41.0479 14.7281 41.9023 15.5353 41.9023 16.4961C41.9023 17.4569 41.0869 18.264 40.0381 18.264C38.9893 18.264 38.1738 17.4569 38.1738 16.4961C38.1738 15.5353 38.9893 14.7281 40.0381 14.7281Z" fill="#BE2218" fill-opacity="1.000000" fill-rule="evenodd"/>
		<path id="Vector" d="M40.7764 14.9203C41.3584 15.1893 41.7471 15.7659 41.7471 16.4192C41.7471 17.3416 40.9316 18.1102 39.9609 18.1102C39.417 18.1102 38.9121 17.8796 38.6016 17.4954C38.835 17.6106 39.1064 17.6875 39.417 17.6875C40.3877 17.6875 41.2031 16.9188 41.2031 15.9965C41.2031 15.6121 41.0479 15.2278 40.7764 14.9203Z" fill="#AC2014" fill-opacity="1.000000" fill-rule="evenodd"/>
		<path id="Vector" d="M39.5723 14.9587C39.999 14.9587 40.3096 15.2662 40.3096 15.6121C40.3096 15.958 39.96 16.2655 39.5723 16.2655C39.1445 16.2655 38.834 15.958 38.834 15.6121C38.834 15.2278 39.1445 14.9587 39.5723 14.9587Z" fill="#DB3715" fill-opacity="1.000000" fill-rule="evenodd"/>
		<path id="Vector" d="M40.9316 15.4967C40.9316 15.4967 41.4756 15.9963 41.3594 16.5729C41.2422 17.1494 41.709 16.8035 41.709 16.4576C41.709 16.1117 41.6699 15.8042 41.5146 15.6121C41.3203 15.4199 40.7764 15.2661 40.9316 15.4967Z" fill="#DB3715" fill-opacity="1.000000" fill-rule="evenodd"/>
		<path id="Vector" d="M36.8154 13.3445C38.0195 13.3445 38.9902 14.2668 38.9902 15.4199C38.9902 16.5729 38.0195 17.4954 36.8154 17.4954C35.6113 17.4954 34.6406 16.5729 34.6406 15.4199C34.6406 14.2668 35.6113 13.3445 36.8154 13.3445Z" fill="#DB3715" fill-opacity="1.000000" fill-rule="evenodd"/>
		<path id="Vector" d="M36.8926 13.4598C38.0576 13.4598 38.9902 14.3439 38.9902 15.4584C38.9902 16.573 38.0576 17.4569 36.8926 17.4569C35.7275 17.4569 34.7959 16.573 34.7959 15.4584C34.7959 14.3822 35.7275 13.4598 36.8926 13.4598Z" fill="#BE2218" fill-opacity="1.000000" fill-rule="evenodd"/>
		<path id="Vector" d="M37.7471 13.6904C38.4072 13.9979 38.835 14.6512 38.835 15.4199C38.835 16.4961 37.9414 17.3417 36.8154 17.3417C36.1934 17.3417 35.6504 17.0726 35.2617 16.6498C35.5332 16.8036 35.8447 16.8804 36.1934 16.8804C37.3203 16.8804 38.2129 16.0349 38.2129 14.9587C38.2129 14.4591 38.0186 14.0364 37.7471 13.6904Z" fill="#AC2014" fill-opacity="1.000000" fill-rule="evenodd"/>
		<path id="Vector" d="M36.3496 13.7288C36.8154 13.7288 37.2041 14.0747 37.2041 14.459C37.2041 14.8817 36.8154 15.1892 36.3496 15.1892C35.8838 15.1892 35.4951 14.8434 35.4951 14.459C35.5342 14.0363 35.8838 13.7288 36.3496 13.7288Z" fill="#DB3715" fill-opacity="1.000000" fill-rule="evenodd"/>
		<path id="Vector" d="M36.2715 14.0747C36.4658 14.0747 36.582 14.1901 36.582 14.3822C36.582 14.5359 36.4268 14.6897 36.2715 14.6897C36.0771 14.6897 35.9609 14.5743 35.9609 14.3822C35.9609 14.2284 36.1162 14.0747 36.2715 14.0747Z" fill="#E26037" fill-opacity="1.000000" fill-rule="evenodd"/>
		<path id="Vector" d="M33.5527 15.4583C34.7568 15.4583 35.7275 16.3806 35.7275 17.5337C35.7275 18.6866 34.7568 19.6091 33.5527 19.6091C32.3486 19.6091 31.3779 18.6866 31.3779 17.5337C31.3779 16.3806 32.3486 15.4583 33.5527 15.4583Z" fill="#DB3715" fill-opacity="1.000000" fill-rule="evenodd"/>
		<path id="Vector" d="M33.6299 15.6119C34.7949 15.6119 35.7275 16.496 35.7275 17.6105C35.7275 18.7251 34.7949 19.609 33.6299 19.609C32.4648 19.609 31.5332 18.7251 31.5332 17.6105C31.5332 16.496 32.4648 15.6119 33.6299 15.6119Z" fill="#BE2218" fill-opacity="1.000000" fill-rule="evenodd"/>
		<path id="Vector" d="M34.4844 15.8042C35.1445 16.1117 35.5723 16.765 35.5723 17.5337C35.5723 18.6099 34.6787 19.4554 33.5527 19.4554C32.9307 19.4554 32.3877 19.1864 31.999 18.7635C32.2705 18.9174 32.582 18.9941 32.9307 18.9941C34.0576 18.9941 34.9502 18.1487 34.9502 17.0725C34.9502 16.5729 34.7949 16.1501 34.4844 15.8042Z" fill="#AC2014" fill-opacity="1.000000" fill-rule="evenodd"/>
		<path id="Vector" d="M33.126 15.8425C33.5918 15.8425 33.9805 16.1885 33.9805 16.5728C33.9805 16.9572 33.5918 17.303 33.126 17.303C32.6602 17.303 32.2715 16.9572 32.2715 16.5728C32.2715 16.1885 32.6602 15.8425 33.126 15.8425Z" fill="#DB3715" fill-opacity="1.000000" fill-rule="evenodd"/>
		<path id="Vector" d="M34.6396 16.4575C34.6396 16.4575 35.2607 17.0341 35.1445 17.6874C34.9893 18.3408 35.5332 17.9564 35.5332 17.5721C35.5332 17.1877 35.4941 16.8035 35.2998 16.6113C35.1055 16.3807 34.4453 16.1885 34.6396 16.4575Z" fill="#DB3715" fill-opacity="1.000000" fill-rule="evenodd"/>
		<path id="Vector" d="M33.0088 16.2269C33.2031 16.2269 33.3193 16.3423 33.3193 16.5344C33.3193 16.6881 33.1641 16.8419 33.0088 16.8419C32.8145 16.8419 32.6982 16.7266 32.6982 16.5344C32.6982 16.3423 32.8535 16.2269 33.0088 16.2269Z" fill="#E26037" fill-opacity="1.000000" fill-rule="evenodd"/>
		<path id="Vector" d="M37.2031 16.3038C38.4072 16.3038 39.3779 17.2262 39.3779 18.3793C39.3779 19.5322 38.4072 20.4547 37.2031 20.4547C35.999 20.4547 35.0283 19.5322 35.0283 18.3793C35.0283 17.2262 35.999 16.3038 37.2031 16.3038Z" fill="#C8231A" fill-opacity="1.000000" fill-rule="evenodd"/>
		<path id="Vector" d="M37.2803 16.4575C38.4453 16.4575 39.3779 17.3416 39.3779 18.4561C39.3779 19.5707 38.4453 20.4546 37.2803 20.4546C36.1152 20.4546 35.1836 19.5707 35.1836 18.4561C35.1836 17.3416 36.1152 16.4575 37.2803 16.4575Z" fill="#AD2419" fill-opacity="1.000000" fill-rule="evenodd"/>
		<path id="Vector" d="M38.1348 16.6498C38.7949 16.9573 39.2227 17.6106 39.2227 18.3793C39.2227 19.4554 38.3291 20.301 37.2031 20.301C36.5811 20.301 36.0381 20.032 35.6494 19.6091C35.9209 19.7629 36.2324 19.8397 36.5811 19.8397C37.708 19.8397 38.6006 18.9943 38.6006 17.9181C38.6006 17.4185 38.4453 16.9957 38.1348 16.6498Z" fill="#AC2014" fill-opacity="1.000000" fill-rule="evenodd"/>
		<path id="Vector" d="M36.7764 16.6881C37.2422 16.6881 37.6309 17.0341 37.6309 17.4183C37.6309 17.8411 37.2422 18.1486 36.7764 18.1486C36.3105 18.1486 35.9219 17.8027 35.9219 17.4183C35.9219 17.0341 36.3105 16.6881 36.7764 16.6881Z" fill="#DB3715" fill-opacity="1.000000" fill-rule="evenodd"/>
		<path id="Vector" d="M34.2129 18.6868C35.417 18.6868 36.3877 19.6091 36.3877 20.7622C36.3877 20.9159 36.3877 21.0697 36.3486 21.1849C36.0771 21.2234 35.8047 21.2618 35.5332 21.3003C34.5234 21.4155 33.3975 21.5309 32.2324 21.6461C32.1162 21.3771 32.0381 21.108 32.0381 20.8007C32.0381 19.6091 33.0088 18.6868 34.2129 18.6868Z" fill="#DB3715" fill-opacity="1.000000" fill-rule="evenodd"/>
		<path id="Vector" d="M34.29 18.8405C35.4551 18.8405 36.3877 19.7245 36.3877 20.839C36.3877 20.9543 36.3877 21.0696 36.3486 21.1849C36.0771 21.2234 35.8047 21.2617 35.5332 21.3002C34.5625 21.4155 33.4746 21.5308 32.3486 21.6077C32.2324 21.3771 32.1934 21.108 32.1934 20.839C32.1934 19.7245 33.125 18.8405 34.29 18.8405Z" fill="#BE2218" fill-opacity="1.000000" fill-rule="evenodd"/>
		<path id="Vector" d="M35.1445 19.071C35.8047 19.3785 36.2314 20.0319 36.2314 20.8005C36.2314 20.9543 36.2314 21.108 36.1934 21.2234C35.96 21.2617 35.7656 21.3002 35.5332 21.3002L35.3389 21.3386C35.5332 21.0311 35.6494 20.6853 35.6494 20.3394C35.6104 19.8397 35.4551 19.417 35.1445 19.071Z" fill="#AC2014" fill-opacity="1.000000" fill-rule="evenodd"/>
		<path id="Vector" d="M33.7471 19.1095C34.2129 19.1095 34.6016 19.4554 34.6016 19.8397C34.6016 20.2625 34.2129 20.5699 33.7471 20.5699C33.2812 20.5699 32.8926 20.2241 32.8926 19.8397C32.9316 19.417 33.2812 19.1095 33.7471 19.1095Z" fill="#DB3715" fill-opacity="1.000000" fill-rule="evenodd"/>
		<path id="Vector" d="M35.2998 19.686C35.2998 19.686 35.9209 20.2626 35.8047 20.9159C35.6494 21.5693 36.1934 21.1849 36.1934 20.8007C36.1934 20.4163 36.1543 20.032 35.96 19.8398C35.7656 19.6476 35.1055 19.4554 35.2998 19.686Z" fill="#DB3715" fill-opacity="1.000000" fill-rule="evenodd"/>
		<path id="Vector" d="M33.6689 19.4554C33.8633 19.4554 33.9795 19.5708 33.9795 19.7629C33.9795 19.9166 33.8242 20.0704 33.6689 20.0704C33.4746 20.0704 33.3584 19.9551 33.3584 19.7629C33.3584 19.6091 33.5137 19.4554 33.6689 19.4554Z" fill="#E26037" fill-opacity="1.000000" fill-rule="evenodd"/>
		<path id="Vector" d="M30.6016 18.0718C31.8057 18.0718 32.7764 18.9941 32.7764 20.1472C32.7764 20.7621 32.5049 21.3002 32.0771 21.6846C31.2227 21.7614 30.291 21.7998 29.3975 21.8383C28.8154 21.454 28.4658 20.839 28.4658 20.1472C28.4658 18.9941 29.4365 18.0718 30.6016 18.0718Z" fill="#DB3715" fill-opacity="1.000000" fill-rule="evenodd"/>
		<path id="Vector" d="M30.6787 18.1871C31.8438 18.1871 32.7764 19.0712 32.7764 20.1857C32.7764 20.7622 32.5039 21.2618 32.1162 21.6461C31.2617 21.723 30.3682 21.7615 29.4756 21.7999C28.9316 21.454 28.582 20.8391 28.582 20.1857C28.582 19.1095 29.5527 18.1871 30.6787 18.1871Z" fill="#BE2218" fill-opacity="1.000000" fill-rule="evenodd"/>
		<path id="Vector" d="M31.5342 18.4177C32.1943 18.7252 32.6221 19.3785 32.6221 20.1472C32.6221 20.7622 32.3105 21.3386 31.8057 21.6846C31.0684 21.723 30.3301 21.7999 29.5928 21.8384C29.3984 21.723 29.2041 21.5693 29.0488 21.4155C29.3203 21.5693 29.6318 21.6461 29.9805 21.6461C31.1074 21.6461 32 20.8007 32 19.7245C32.0391 19.1864 31.8447 18.7637 31.5342 18.4177Z" fill="#AC2014" fill-opacity="1.000000" fill-rule="evenodd"/>
		<path id="Vector" d="M30.1748 18.4561C30.6406 18.4561 31.0293 18.802 31.0293 19.1863C31.0293 19.609 30.6406 19.9165 30.1748 19.9165C29.709 19.9165 29.3203 19.5707 29.3203 19.1863C29.3203 18.7635 29.709 18.4561 30.1748 18.4561Z" fill="#DB3715" fill-opacity="1.000000" fill-rule="evenodd"/>
		<path id="Vector" d="M31.6885 19.0326C31.6885 19.0326 32.3105 19.6091 32.1934 20.2625C32.0381 20.9159 32.582 20.5315 32.582 20.1472C32.582 19.7628 32.543 19.3785 32.3486 19.1864C32.1543 18.9941 31.5332 18.802 31.6885 19.0326Z" fill="#DB3715" fill-opacity="1.000000" fill-rule="evenodd"/>
		<path id="Vector" d="M30.0967 18.802C30.291 18.802 30.4072 18.9174 30.4072 19.1095C30.4072 19.2632 30.252 19.417 30.0967 19.417C29.9023 19.417 29.7861 19.3016 29.7861 19.1095C29.7861 18.9557 29.9023 18.802 30.0967 18.802Z" fill="#E26037" fill-opacity="1.000000" fill-rule="evenodd"/>
		<path id="Vector" d="M40.0771 16.6498C41.2812 16.6498 42.252 17.5721 42.252 18.7252C42.252 18.8789 42.252 18.9943 42.2129 19.1479C41.9805 19.7245 41.126 20.2241 39.3389 20.6469C38.5234 20.3778 37.9023 19.6091 37.9023 18.6868C37.9023 17.5721 38.873 16.6498 40.0771 16.6498Z" fill="#DB3715" fill-opacity="1.000000" fill-rule="evenodd"/>
		<path id="Vector" d="M40.1543 16.765C41.3193 16.765 42.252 17.649 42.252 18.7635C42.252 18.8405 42.252 18.9557 42.2129 19.0326C42.0186 19.6091 41.2031 20.1472 39.3779 20.6084C38.6016 20.3009 38.0576 19.6091 38.0576 18.7635C38.0576 17.6874 38.9893 16.765 40.1543 16.765Z" fill="#BE2218" fill-opacity="1.000000" fill-rule="evenodd"/>
		<path id="Vector" d="M41.0088 16.9957C41.6689 17.3032 42.0967 17.9565 42.0967 18.7252C42.0967 18.9943 42.0186 19.3018 41.9023 19.5323C41.5137 19.9166 40.7754 20.2626 39.5723 20.6085C39.1445 20.4932 38.7949 20.301 38.5234 19.9935C38.7949 20.1473 39.1064 20.2241 39.4551 20.2241C40.582 20.2241 41.4746 19.3787 41.4746 18.3025C41.4746 17.7644 41.3193 17.3417 41.0088 16.9957Z" fill="#AC2014" fill-opacity="1.000000" fill-rule="evenodd"/>
		<path id="Vector" d="M39.6113 17.0341C40.0771 17.0341 40.4658 17.38 40.4658 17.7643C40.4658 18.187 40.0771 18.4945 39.6113 18.4945C39.1455 18.4945 38.7568 18.1487 38.7568 17.7643C38.7959 17.3416 39.1455 17.0341 39.6113 17.0341Z" fill="#DB3715" fill-opacity="1.000000" fill-rule="evenodd"/>
		<path id="Vector" d="M41.1641 17.6106C41.1641 17.6106 41.7852 18.1871 41.6689 18.8405C41.5137 19.4939 42.0576 19.1095 42.0576 18.7252C42.0576 18.3408 42.0186 17.9565 41.8242 17.7644C41.6299 17.5721 40.9697 17.38 41.1641 17.6106Z" fill="#DB3715" fill-opacity="1.000000" fill-rule="evenodd"/>
		<path id="Vector" d="M39.5332 17.38C39.7275 17.38 39.8438 17.4954 39.8438 17.6875C39.8438 17.8412 39.6885 17.995 39.5332 17.995C39.3389 17.995 39.2227 17.8796 39.2227 17.6875C39.2227 17.5337 39.3779 17.38 39.5332 17.38Z" fill="#E26037" fill-opacity="1.000000" fill-rule="evenodd"/>
		<path id="Vector" d="M38.0186 19.1864C38.9121 19.1864 39.6885 19.7245 39.999 20.4547C38.9893 20.7622 37.6299 21.0312 35.8438 21.2618C35.8438 20.1088 36.8145 19.1864 38.0186 19.1864Z" fill="#DB3715" fill-opacity="1.000000" fill-rule="evenodd"/>
		<path id="Vector" d="M38.0967 19.3401C38.9121 19.3401 39.6494 19.8013 39.999 20.4547C39.0283 20.7238 37.7471 20.9927 36.0381 21.2234C36.0381 20.1857 36.9697 19.3401 38.0967 19.3401Z" fill="#BE2218" fill-opacity="1.000000" fill-rule="evenodd"/>
		<path id="Vector" d="M38.9502 19.5323C39.377 19.7245 39.6885 20.0704 39.8818 20.4547C39.7266 20.4932 39.5713 20.5316 39.416 20.5701C39.377 20.2241 39.2217 19.8398 38.9502 19.5323Z" fill="#AC2014" fill-opacity="1.000000" fill-rule="evenodd"/>
		<path id="Vector" d="M37.5918 19.5707C38.0576 19.5707 38.4463 19.9166 38.4463 20.3009C38.4463 20.5315 38.3291 20.7621 38.0967 20.8774C37.8633 20.9159 37.6309 20.9543 37.3975 20.9927C37.0479 20.9159 36.7764 20.6084 36.7764 20.2625C36.7373 19.9166 37.126 19.5707 37.5918 19.5707Z" fill="#DB3715" fill-opacity="1.000000" fill-rule="evenodd"/>
		<path id="Vector" d="M39.1055 20.1857C39.1055 20.1857 39.2998 20.3778 39.4551 20.6085C39.6104 20.5701 39.7656 20.5316 39.8828 20.4932C39.8438 20.4163 39.8047 20.3778 39.7656 20.3395C39.5713 20.1472 38.9111 19.9166 39.1055 20.1857Z" fill="#DB3715" fill-opacity="1.000000" fill-rule="evenodd"/>
		<path id="Vector" d="M37.5137 19.9551C37.708 19.9551 37.8242 20.0704 37.8242 20.2626C37.8242 20.4547 37.6689 20.5701 37.5137 20.5701C37.3193 20.5701 37.2031 20.4547 37.2031 20.2626C37.2031 20.0704 37.3193 19.9551 37.5137 19.9551Z" fill="#E26037" fill-opacity="1.000000" fill-rule="evenodd"/>
		<path id="Vector" d="M27.4941 18.7252C28.6982 18.7252 29.6689 19.6476 29.6689 20.8007C29.6689 21.1849 29.5527 21.5309 29.3975 21.8384C28.1934 21.9152 26.9512 21.9536 25.708 21.9536C25.4746 21.6078 25.3584 21.2234 25.3584 20.8007C25.3193 19.6476 26.291 18.7252 27.4941 18.7252Z" fill="#DB3715" fill-opacity="1.000000" fill-rule="evenodd"/>
		<path id="Vector" d="M27.5332 18.8789C28.6982 18.8789 29.6309 19.7629 29.6309 20.8774C29.6309 21.2234 29.5527 21.5309 29.3584 21.8383C28.1934 21.9152 26.9902 21.9536 25.7471 21.9536C25.5527 21.6461 25.4365 21.2618 25.4365 20.8774C25.4756 19.7629 26.4072 18.8789 27.5332 18.8789Z" fill="#BE2218" fill-opacity="1.000000" fill-rule="evenodd"/>
		<path id="Vector" d="M28.4268 19.0712C29.0869 19.3787 29.5137 20.032 29.5137 20.8007C29.5137 21.1851 29.3975 21.5309 29.2031 21.8384C28.8154 21.8384 28.4658 21.8768 28.0771 21.8768C28.582 21.5309 28.8926 20.9545 28.8926 20.3395C28.8926 19.8398 28.6982 19.4171 28.4268 19.0712Z" fill="#AC2014" fill-opacity="1.000000" fill-rule="evenodd"/>
		<path id="Vector" d="M27.0283 19.1095C27.4941 19.1095 27.8828 19.4554 27.8828 19.8397C27.8828 20.2625 27.4941 20.5699 27.0283 20.5699C26.5625 20.5699 26.1738 20.2241 26.1738 19.8397C26.1738 19.4554 26.5625 19.1095 27.0283 19.1095Z" fill="#DB3715" fill-opacity="1.000000" fill-rule="evenodd"/>
		<path id="Vector" d="M28.543 19.7245C28.543 19.7245 29.1641 20.301 29.0479 20.9543C28.8926 21.6078 29.4365 21.2234 29.4365 20.8391C29.4365 20.4547 29.3975 20.0704 29.2031 19.8783C29.0479 19.686 28.3877 19.4554 28.543 19.7245Z" fill="#DB3715" fill-opacity="1.000000" fill-rule="evenodd"/>
		<path id="Vector" d="M26.9502 19.4939C27.1445 19.4939 27.2607 19.6093 27.2607 19.8014C27.2607 19.9551 27.1055 20.1089 26.9502 20.1089C26.7559 20.1089 26.6396 19.9935 26.6396 19.8014C26.6396 19.6093 26.7949 19.4939 26.9502 19.4939Z" fill="#E26037" fill-opacity="1.000000" fill-rule="evenodd"/>
		<path id="Vector" d="M21.708 18.4945C22.9121 18.4945 23.8828 19.4169 23.8828 20.5699C23.8828 21.108 23.6885 21.5692 23.3389 21.9535C22.2129 21.9535 21.0869 21.9152 19.999 21.8383C19.7275 21.4923 19.5332 21.0311 19.5332 20.5699C19.5332 19.4169 20.5039 18.4945 21.708 18.4945Z" fill="#DB3715" fill-opacity="1.000000" fill-rule="evenodd"/>
		<path id="Vector" d="M21.7852 18.6482C22.9502 18.6482 23.8828 19.5322 23.8828 20.6467C23.8828 21.1464 23.6885 21.6075 23.3779 21.9535C22.29 21.9535 21.2031 21.915 20.1152 21.8381C19.8438 21.4923 19.6885 21.0695 19.6885 20.6467C19.6885 19.5322 20.6201 18.6482 21.7852 18.6482Z" fill="#BE2218" fill-opacity="1.000000" fill-rule="evenodd"/>
		<path id="Vector" d="M22.6396 18.8405C23.2998 19.1479 23.7275 19.8013 23.7275 20.5699C23.7275 21.108 23.4941 21.5692 23.1445 21.9152C22.7178 21.9152 22.251 21.9152 21.8242 21.8767C22.6006 21.6077 23.1445 20.9159 23.1445 20.0703C23.1445 19.6091 22.9502 19.1864 22.6396 18.8405Z" fill="#AC2014" fill-opacity="1.000000" fill-rule="evenodd"/>
		<path id="Vector" d="M21.2812 18.8788C21.7471 18.8788 22.1357 19.2247 22.1357 19.609C22.1357 20.0317 21.7471 20.3392 21.2812 20.3392C20.8154 20.3392 20.4268 19.9934 20.4268 19.609C20.4268 19.2247 20.8154 18.8788 21.2812 18.8788Z" fill="#DB3715" fill-opacity="1.000000" fill-rule="evenodd"/>
		<path id="Vector" d="M22.7949 19.4938C22.7949 19.4938 23.416 20.0703 23.2998 20.7236C23.1445 21.3771 23.6885 20.9927 23.6885 20.6084C23.6885 20.224 23.6494 19.8397 23.4551 19.6476C23.2607 19.417 22.6006 19.2247 22.7949 19.4938Z" fill="#DB3715" fill-opacity="1.000000" fill-rule="evenodd"/>
		<path id="Vector" d="M21.2031 19.2632C21.3975 19.2632 21.5137 19.3785 21.5137 19.5707C21.5137 19.7244 21.3584 19.8782 21.2031 19.8782C21.0088 19.8782 20.8926 19.7628 20.8926 19.5707C20.8535 19.3785 21.0088 19.2632 21.2031 19.2632Z" fill="#E26037" fill-opacity="1.000000" fill-rule="evenodd"/>
		<path id="Vector" d="M17.3975 11C18.6016 11 19.5723 11.9224 19.5723 13.0754C19.5723 14.2284 18.6016 15.1509 17.3975 15.1509C16.1934 15.1509 15.2227 14.2284 15.2227 13.0754C15.2227 11.9224 16.1934 11 17.3975 11Z" fill="#DB3715" fill-opacity="1.000000" fill-rule="evenodd"/>
		<path id="Vector" d="M17.4746 11.1537C18.6396 11.1537 19.5723 12.0377 19.5723 13.1522C19.5723 14.2668 18.6396 15.1508 17.4746 15.1508C16.3096 15.1508 15.3779 14.2668 15.3779 13.1522C15.3779 12.0377 16.3096 11.1537 17.4746 11.1537Z" fill="#BE2218" fill-opacity="1.000000" fill-rule="evenodd"/>
		<path id="Vector" d="M18.3291 11.3459C18.9893 11.6534 19.417 12.3068 19.417 13.0754C19.417 14.1516 18.5234 14.9972 17.3975 14.9972C16.7754 14.9972 16.2324 14.7281 15.8438 14.3053C16.1152 14.4591 16.4268 14.5359 16.7754 14.5359C17.9023 14.5359 18.7949 13.6904 18.7949 12.6143C18.834 12.1146 18.6396 11.6919 18.3291 11.3459Z" fill="#AC2014" fill-opacity="1.000000" fill-rule="evenodd"/>
		<path id="Vector" d="M16.9707 11.3843C17.4365 11.3843 17.8252 11.7302 17.8252 12.1145C17.8252 12.5372 17.4365 12.8447 16.9707 12.8447C16.5049 12.8447 16.1162 12.4989 16.1162 12.1145C16.1162 11.7302 16.5049 11.3843 16.9707 11.3843Z" fill="#DB3715" fill-opacity="1.000000" fill-rule="evenodd"/>
		<path id="Vector" d="M18.4844 11.9993C18.4844 11.9993 19.1064 12.5758 18.9893 13.2291C18.834 13.8826 19.3779 13.4982 19.3779 13.1139C19.3779 12.7295 19.3389 12.3452 19.1445 12.1531C18.9502 11.9225 18.3291 11.7302 18.4844 11.9993Z" fill="#DB3715" fill-opacity="1.000000" fill-rule="evenodd"/>
		<path id="Vector" d="M16.8926 11.7687C17.0869 11.7687 17.2031 11.884 17.2031 12.0762C17.2031 12.2683 17.0479 12.3837 16.8926 12.3837C16.6982 12.3837 16.582 12.2683 16.582 12.0762C16.582 11.884 16.6982 11.7687 16.8926 11.7687Z" fill="#E26037" fill-opacity="1.000000" fill-rule="evenodd"/>
		<path id="Vector" d="M11.1064 13.306C12.3105 13.306 13.2812 14.2284 13.2812 15.3815C13.2812 16.5344 12.3105 17.4569 11.1064 17.4569C9.90234 17.4569 8.93164 16.5344 8.93164 15.3815C8.93164 14.2668 9.90234 13.306 11.1064 13.306Z" fill="#DB3715" fill-opacity="1.000000" fill-rule="evenodd"/>
		<path id="Vector" d="M11.1836 13.4597C12.3486 13.4597 13.2812 14.3438 13.2812 15.4583C13.2812 16.5729 12.3486 17.4568 11.1836 17.4568C10.0186 17.4568 9.08691 16.5729 9.08691 15.4583C9.08691 14.3438 10.0186 13.4597 11.1836 13.4597Z" fill="#BE2218" fill-opacity="1.000000" fill-rule="evenodd"/>
		<path id="Vector" d="M12.0381 13.6903C12.6982 13.9978 13.126 14.6511 13.126 15.4198C13.126 16.496 12.2324 17.3416 11.1064 17.3416C10.4844 17.3416 9.94141 17.0725 9.55273 16.6497C9.82422 16.8035 10.1357 16.8802 10.4844 16.8802C11.6113 16.8802 12.5039 16.0348 12.5039 14.9586C12.5039 14.459 12.3486 14.0363 12.0381 13.6903Z" fill="#AC2014" fill-opacity="1.000000" fill-rule="evenodd"/>
		<path id="Vector" d="M10.6797 13.7288C11.1455 13.7288 11.5342 14.0747 11.5342 14.459C11.5342 14.8817 11.1455 15.1892 10.6797 15.1892C10.2139 15.1892 9.8252 14.8434 9.8252 14.459C9.8252 14.0363 10.2139 13.7288 10.6797 13.7288Z" fill="#DB3715" fill-opacity="1.000000" fill-rule="evenodd"/>
		<path id="Vector" d="M12.1934 14.3053C12.1934 14.3053 12.8145 14.8818 12.6982 15.5352C12.543 16.1886 13.0869 15.8042 13.0869 15.4199C13.0869 15.0355 13.0479 14.6512 12.8535 14.4591C12.6592 14.2668 11.999 14.0747 12.1934 14.3053Z" fill="#DB3715" fill-opacity="1.000000" fill-rule="evenodd"/>
		<path id="Vector" d="M10.6016 14.0747C10.7959 14.0747 10.9121 14.1901 10.9121 14.3822C10.9121 14.5743 10.7568 14.6897 10.6016 14.6897C10.4072 14.6897 10.291 14.5743 10.291 14.3822C10.291 14.1901 10.4072 14.0747 10.6016 14.0747Z" fill="#E26037" fill-opacity="1.000000" fill-rule="evenodd"/>
		<path id="Vector" d="M14.835 11.8456C16.0391 11.8456 17.0098 12.7679 17.0098 13.921C17.0098 15.074 16.0391 15.9965 14.835 15.9965C13.6309 15.9965 12.6602 15.074 12.6602 13.921C12.6992 12.7679 13.6699 11.8456 14.835 11.8456Z" fill="#DB3715" fill-opacity="1.000000" fill-rule="evenodd"/>
		<path id="Vector" d="M14.9121 11.9993C16.0771 11.9993 17.0098 12.8833 17.0098 13.9978C17.0098 15.1124 16.0771 15.9963 14.9121 15.9963C13.7471 15.9963 12.8154 15.1124 12.8154 13.9978C12.8154 12.8833 13.7861 11.9993 14.9121 11.9993Z" fill="#BE2218" fill-opacity="1.000000" fill-rule="evenodd"/>
		<path id="Vector" d="M15.8057 12.1915C16.4658 12.499 16.8936 13.1523 16.8936 13.921C16.8936 14.9972 16 15.8428 14.874 15.8428C14.252 15.8428 13.709 15.5737 13.3203 15.1509C13.5918 15.3047 13.9033 15.3815 14.252 15.3815C15.3789 15.3815 16.2715 14.536 16.2715 13.4598C16.2715 12.9602 16.0771 12.5375 15.8057 12.1915Z" fill="#AC2014" fill-opacity="1.000000" fill-rule="evenodd"/>
		<path id="Vector" d="M14.4082 12.2299C14.874 12.2299 15.2627 12.5758 15.2627 12.9601C15.2627 13.3828 14.874 13.6903 14.4082 13.6903C13.9424 13.6903 13.5537 13.3445 13.5537 12.9601C13.5537 12.5758 13.9424 12.2299 14.4082 12.2299Z" fill="#DB3715" fill-opacity="1.000000" fill-rule="evenodd"/>
		<path id="Vector" d="M15.9219 12.8448C15.9219 12.8448 16.5439 13.4214 16.4268 14.0747C16.2715 14.7281 16.8154 14.3438 16.8154 13.9595C16.8154 13.5751 16.7764 13.1908 16.582 12.9987C16.3877 12.7681 15.7666 12.5758 15.9219 12.8448Z" fill="#DB3715" fill-opacity="1.000000" fill-rule="evenodd"/>
		<path id="Vector" d="M14.3301 12.6143C14.5244 12.6143 14.6406 12.7296 14.6406 12.9218C14.6406 13.1139 14.4854 13.2292 14.3301 13.2292C14.1357 13.2292 14.0195 13.1139 14.0195 12.9218C14.0195 12.7296 14.1357 12.6143 14.3301 12.6143Z" fill="#E26037" fill-opacity="1.000000" fill-rule="evenodd"/>
		<path id="Vector" d="M13.6699 15.1509C14.874 15.1509 15.8447 16.0732 15.8447 17.2263C15.8447 18.3793 14.874 19.3018 13.6699 19.3018C12.4658 19.3018 11.4951 18.3793 11.4951 17.2263C11.4951 16.0732 12.4658 15.1509 13.6699 15.1509Z" fill="#C8231A" fill-opacity="1.000000" fill-rule="evenodd"/>
		<path id="Vector" d="M13.7471 15.3046C14.9121 15.3046 15.8447 16.1886 15.8447 17.3031C15.8447 18.4177 14.9121 19.3016 13.7471 19.3016C12.582 19.3016 11.6504 18.4177 11.6504 17.3031C11.6504 16.1886 12.582 15.3046 13.7471 15.3046Z" fill="#AD2419" fill-opacity="1.000000" fill-rule="evenodd"/>
		<path id="Vector" d="M14.6016 15.4968C15.2617 15.8043 15.6895 16.4576 15.6895 17.2263C15.6895 18.3025 14.7959 19.1481 13.6699 19.1481C13.0479 19.1481 12.5049 18.879 12.1162 18.4562C12.3877 18.61 12.6992 18.6868 13.0479 18.6868C14.1748 18.6868 15.0674 17.8413 15.0674 16.7651C15.0674 16.304 14.873 15.8428 14.6016 15.4968Z" fill="#AC2014" fill-opacity="1.000000" fill-rule="evenodd"/>
		<path id="Vector" d="M13.2041 15.5352C13.6699 15.5352 14.0586 15.8811 14.0586 16.2654C14.0586 16.6881 13.6699 16.9956 13.2041 16.9956C12.7383 16.9956 12.3496 16.6498 12.3496 16.2654C12.3887 15.8811 12.7383 15.5352 13.2041 15.5352Z" fill="#BE2218" fill-opacity="1.000000" fill-rule="evenodd"/>
		<path id="Vector" d="M14.7188 16.1501C14.7188 16.1501 15.3398 16.7267 15.2236 17.38C15.0684 18.0334 15.6123 17.649 15.6123 17.2648C15.6123 16.8804 15.5732 16.4961 15.3789 16.304C15.2236 16.1117 14.5635 15.8811 14.7188 16.1501Z" fill="#BE2218" fill-opacity="1.000000" fill-rule="evenodd"/>
		<path id="Vector" d="M10.7568 15.7657C11.9609 15.7657 12.9316 16.6881 12.9316 17.8412C12.9316 18.9941 11.9609 19.9166 10.7568 19.9166C10.252 19.9166 9.78613 19.7628 9.39746 19.4553C9.24219 19.3401 9.12598 19.2247 9.04785 19.1095C8.77637 18.7635 8.58203 18.3024 8.58203 17.8412C8.58203 16.6881 9.55273 15.7657 10.7568 15.7657Z" fill="#DB3715" fill-opacity="1.000000" fill-rule="evenodd"/>
		<path id="Vector" d="M10.834 15.9196C11.999 15.9196 12.9316 16.8036 12.9316 17.9181C12.9316 19.0327 11.999 19.9166 10.834 19.9166C9.66895 19.9166 8.7373 19.0327 8.7373 17.9181C8.7373 16.8036 9.66895 15.9196 10.834 15.9196Z" fill="#BE2218" fill-opacity="1.000000" fill-rule="evenodd"/>
		<path id="Vector" d="M11.6885 16.15C12.3486 16.4575 12.7764 17.1108 12.7764 17.8795C12.7764 18.9557 11.8828 19.8013 10.7568 19.8013C10.1348 19.8013 9.5918 19.5322 9.20312 19.1094C9.47461 19.2632 9.78613 19.34 10.1348 19.34C11.2617 19.34 12.1543 18.4945 12.1543 17.4183C12.1934 16.9187 11.999 16.496 11.6885 16.15Z" fill="#AC2014" fill-opacity="1.000000" fill-rule="evenodd"/>
		<path id="Vector" d="M10.3301 16.1885C10.7959 16.1885 11.1846 16.5344 11.1846 16.9187C11.1846 17.3414 10.7959 17.6489 10.3301 17.6489C9.86426 17.6489 9.47559 17.3031 9.47559 16.9187C9.47559 16.496 9.86426 16.1885 10.3301 16.1885Z" fill="#DB3715" fill-opacity="1.000000" fill-rule="evenodd"/>
		<path id="Vector" d="M11.8438 16.765C11.8438 16.765 12.4648 17.3416 12.3486 17.9949C12.1934 18.6483 12.7373 18.2639 12.7373 17.8796C12.7373 17.4952 12.6982 17.111 12.5039 16.9188C12.3096 16.7266 11.6494 16.5344 11.8438 16.765Z" fill="#DB3715" fill-opacity="1.000000" fill-rule="evenodd"/>
		<path id="Vector" d="M10.252 16.5344C10.4463 16.5344 10.5625 16.6498 10.5625 16.8419C10.5625 17.0341 10.4072 17.1494 10.252 17.1494C10.0576 17.1494 9.94141 17.0341 9.94141 16.8419C9.94141 16.6498 10.0576 16.5344 10.252 16.5344Z" fill="#E26037" fill-opacity="1.000000" fill-rule="evenodd"/>
		<path id="Vector" d="M19.5723 11.7687C20.7764 11.7687 21.7471 12.691 21.7471 13.8441C21.7471 14.9971 20.7764 15.9196 19.5723 15.9196C18.3682 15.9196 17.3975 14.9971 17.3975 13.8441C17.3975 12.691 18.3682 11.7687 19.5723 11.7687Z" fill="#C8231A" fill-opacity="1.000000" fill-rule="evenodd"/>
		<path id="Vector" d="M19.6494 11.9224C20.8145 11.9224 21.7471 12.8064 21.7471 13.9209C21.7471 15.0355 20.8145 15.9194 19.6494 15.9194C18.4844 15.9194 17.5527 15.0355 17.5527 13.9209C17.5527 12.8064 18.4844 11.9224 19.6494 11.9224Z" fill="#AD2419" fill-opacity="1.000000" fill-rule="evenodd"/>
		<path id="Vector" d="M20.5039 12.1146C21.1641 12.4221 21.5918 13.0754 21.5918 13.8441C21.5918 14.9203 20.6982 15.7659 19.5723 15.7659C18.9502 15.7659 18.4072 15.4968 18.0186 15.074C18.29 15.2278 18.6016 15.3046 18.9502 15.3046C20.0771 15.3046 20.9697 14.4591 20.9697 13.3829C20.9697 12.8833 20.7754 12.4606 20.5039 12.1146Z" fill="#AC2014" fill-opacity="1.000000" fill-rule="evenodd"/>
		<path id="Vector" d="M19.1064 12.153C19.5723 12.153 19.9609 12.4989 19.9609 12.8832C19.9609 13.3059 19.5723 13.6134 19.1064 13.6134C18.6406 13.6134 18.252 13.2676 18.252 12.8832C18.291 12.4989 18.6406 12.153 19.1064 12.153Z" fill="#BE2218" fill-opacity="1.000000" fill-rule="evenodd"/>
		<path id="Vector" d="M20.6592 12.7679C20.6592 12.7679 21.2803 13.3445 21.1641 13.9978C21.0088 14.6512 21.5527 14.2668 21.5527 13.8826C21.5527 13.4982 21.5137 13.1139 21.3193 12.9218C21.125 12.7295 20.4648 12.4989 20.6592 12.7679Z" fill="#BE2218" fill-opacity="1.000000" fill-rule="evenodd"/>
		<path id="Vector" d="M17.2031 14.6512C18.4072 14.6512 19.3779 15.5736 19.3779 16.7267C19.3779 17.8796 18.4072 18.8021 17.2031 18.8021C15.999 18.8021 15.0283 17.8796 15.0283 16.7267C15.0283 15.6121 15.999 14.6512 17.2031 14.6512Z" fill="#DB3715" fill-opacity="1.000000" fill-rule="evenodd"/>
		<path id="Vector" d="M17.2803 14.8049C18.4453 14.8049 19.3779 15.689 19.3779 16.8035C19.3779 17.9181 18.4453 18.802 17.2803 18.802C16.1152 18.802 15.1836 17.9181 15.1836 16.8035C15.1836 15.689 16.1152 14.8049 17.2803 14.8049Z" fill="#BE2218" fill-opacity="1.000000" fill-rule="evenodd"/>
		<path id="Vector" d="M18.1348 15.0355C18.7949 15.343 19.2227 15.9963 19.2227 16.765C19.2227 17.8412 18.3291 18.6868 17.2031 18.6868C16.5811 18.6868 16.0381 18.4177 15.6494 17.9949C15.9209 18.1487 16.2324 18.2255 16.5811 18.2255C17.708 18.2255 18.6006 17.38 18.6006 16.3038C18.6006 15.8042 18.4453 15.3815 18.1348 15.0355Z" fill="#AC2014" fill-opacity="1.000000" fill-rule="evenodd"/>
		<path id="Vector" d="M16.7764 15.074C17.2422 15.074 17.6309 15.4199 17.6309 15.8042C17.6309 16.2269 17.2422 16.5344 16.7764 16.5344C16.3105 16.5344 15.9219 16.1886 15.9219 15.8042C15.9219 15.3815 16.3105 15.074 16.7764 15.074Z" fill="#DB3715" fill-opacity="1.000000" fill-rule="evenodd"/>
		<path id="Vector" d="M18.29 15.6505C18.29 15.6505 18.9111 16.2271 18.7949 16.8804C18.6396 17.5338 19.1836 17.1494 19.1836 16.7651C19.1836 16.3807 19.1445 15.9965 18.9502 15.8043C18.7559 15.6121 18.0957 15.4199 18.29 15.6505Z" fill="#DB3715" fill-opacity="1.000000" fill-rule="evenodd"/>
		<path id="Vector" d="M16.6592 15.4199C16.8535 15.4199 16.9697 15.5353 16.9697 15.7274C16.9697 15.9196 16.8145 16.0349 16.6592 16.0349C16.4648 16.0349 16.3486 15.9196 16.3486 15.7274C16.3486 15.5353 16.5039 15.4199 16.6592 15.4199Z" fill="#E26037" fill-opacity="1.000000" fill-rule="evenodd"/>
		<path id="Vector" d="M20.2715 15.3046C21.4756 15.3046 22.4463 16.2269 22.4463 17.38C22.4463 18.533 21.4756 19.4554 20.2715 19.4554C19.0674 19.4554 18.0967 18.533 18.0967 17.38C18.0967 16.2269 19.0674 15.3046 20.2715 15.3046Z" fill="#DB3715" fill-opacity="1.000000" fill-rule="evenodd"/>
		<path id="Vector" d="M20.3486 15.4583C21.5137 15.4583 22.4463 16.3423 22.4463 17.4568C22.4463 18.5714 21.5137 19.4553 20.3486 19.4553C19.1836 19.4553 18.252 18.5714 18.252 17.4568C18.252 16.3423 19.1836 15.4583 20.3486 15.4583Z" fill="#BE2218" fill-opacity="1.000000" fill-rule="evenodd"/>
		<path id="Vector" d="M21.2031 15.6888C21.8633 15.9963 22.291 16.6497 22.291 17.4183C22.291 18.4945 21.3975 19.3401 20.2715 19.3401C19.6494 19.3401 19.1064 19.071 18.7178 18.6482C18.9893 18.802 19.3008 18.8788 19.6494 18.8788C20.7764 18.8788 21.6689 18.0333 21.6689 16.9572C21.6689 16.4575 21.5137 15.9963 21.2031 15.6888Z" fill="#AC2014" fill-opacity="1.000000" fill-rule="evenodd"/>
		<path id="Vector" d="M19.8057 15.6888C20.2715 15.6888 20.6602 16.0348 20.6602 16.4191C20.6602 16.8418 20.2715 17.1493 19.8057 17.1493C19.3398 17.1493 18.9512 16.8035 18.9512 16.4191C18.9902 16.0348 19.3398 15.6888 19.8057 15.6888Z" fill="#DB3715" fill-opacity="1.000000" fill-rule="evenodd"/>
		<path id="Vector" d="M21.3584 16.3038C21.3584 16.3038 21.9795 16.8804 21.8633 17.5337C21.708 18.1871 22.252 17.8027 22.252 17.4185C22.252 17.0341 22.2129 16.6498 22.0186 16.4576C21.8242 16.2654 21.1641 16.0732 21.3584 16.3038Z" fill="#DB3715" fill-opacity="1.000000" fill-rule="evenodd"/>
		<path id="Vector" d="M19.7275 16.0732C19.9219 16.0732 20.0381 16.1886 20.0381 16.3807C20.0381 16.5344 19.8828 16.6882 19.7275 16.6882C19.5332 16.6882 19.417 16.5729 19.417 16.3807C19.417 16.2269 19.5723 16.0732 19.7275 16.0732Z" fill="#E26037" fill-opacity="1.000000" fill-rule="evenodd"/>
		<path id="Vector" d="M18.4463 18.4177C19.6504 18.4177 20.6211 19.3401 20.6211 20.4932C20.6211 20.9928 20.4268 21.454 20.1162 21.8384C18.9121 21.7615 17.708 21.6846 16.582 21.5309C16.3877 21.2234 16.2715 20.8774 16.2715 20.4932C16.2715 19.3401 17.2422 18.4177 18.4463 18.4177Z" fill="#DB3715" fill-opacity="1.000000" fill-rule="evenodd"/>
		<path id="Vector" d="M18.5244 18.5714C19.6895 18.5714 20.6211 19.4554 20.6211 20.5699C20.6211 21.0696 20.4268 21.4923 20.1553 21.8383C18.9512 21.7614 17.8252 21.6846 16.7383 21.5692C16.5439 21.2617 16.4658 20.9543 16.4658 20.5699C16.4268 19.4554 17.3594 18.5714 18.5244 18.5714Z" fill="#BE2218" fill-opacity="1.000000" fill-rule="evenodd"/>
		<path id="Vector" d="M19.3779 18.802C20.0381 19.1095 20.4658 19.7628 20.4658 20.5315C20.4658 21.0311 20.2715 21.4923 19.9219 21.8383C19.5332 21.7998 19.1455 21.7998 18.7568 21.7614C19.417 21.454 19.8438 20.8005 19.8438 20.0319C19.8438 19.5707 19.6885 19.1095 19.3779 18.802Z" fill="#AC2014" fill-opacity="1.000000" fill-rule="evenodd"/>
		<path id="Vector" d="M18.0195 18.802C18.4854 18.802 18.874 19.1479 18.874 19.5322C18.874 19.955 18.4854 20.2625 18.0195 20.2625C17.5537 20.2625 17.165 19.9166 17.165 19.5322C17.165 19.1479 17.5537 18.802 18.0195 18.802Z" fill="#DB3715" fill-opacity="1.000000" fill-rule="evenodd"/>
		<path id="Vector" d="M19.5332 19.417C19.5332 19.417 20.1543 19.9935 20.0381 20.6469C19.8828 21.3003 20.4268 20.9159 20.4268 20.5316C20.4268 20.1472 20.3877 19.7629 20.1934 19.5708C19.999 19.3785 19.3389 19.1864 19.5332 19.417Z" fill="#DB3715" fill-opacity="1.000000" fill-rule="evenodd"/>
		<path id="Vector" d="M17.9414 19.1864C18.1357 19.1864 18.252 19.3018 18.252 19.4939C18.252 19.6476 18.0967 19.8014 17.9414 19.8014C17.7471 19.8014 17.6309 19.686 17.6309 19.4939C17.5918 19.3401 17.7471 19.1864 17.9414 19.1864Z" fill="#E26037" fill-opacity="1.000000" fill-rule="evenodd"/>
		<path id="Vector" d="M24.7754 18.4177C25.9795 18.4177 26.9502 19.3401 26.9502 20.4932C26.9502 21.0312 26.7178 21.5309 26.3682 21.9152C25.3193 21.9536 24.2705 21.9536 23.2607 21.9152C22.873 21.5309 22.6396 21.0312 22.6396 20.4932C22.6006 19.3401 23.5723 18.4177 24.7754 18.4177Z" fill="#DB3715" fill-opacity="1.000000" fill-rule="evenodd"/>
		<path id="Vector" d="M24.8525 18.5714C26.0176 18.5714 26.9502 19.4554 26.9502 20.5699C26.9502 21.108 26.7559 21.5692 26.4062 21.9152C25.3965 21.9536 24.3477 21.9536 23.3389 21.9152C22.9893 21.5692 22.7559 21.0696 22.7559 20.5315C22.7559 19.4554 23.6875 18.5714 24.8525 18.5714Z" fill="#BE2218" fill-opacity="1.000000" fill-rule="evenodd"/>
		<path id="Vector" d="M25.708 18.802C26.3682 19.1095 26.7959 19.7628 26.7959 20.5315C26.7959 21.108 26.5234 21.6077 26.1357 21.9536C25.5918 21.9536 25.0088 21.9536 24.4658 21.9536C25.4365 21.7998 26.1738 20.9927 26.1738 20.0319C26.1738 19.5707 25.9795 19.1095 25.708 18.802ZM23.417 21.9536C23.3389 21.8767 23.3008 21.8383 23.2227 21.7614C23.417 21.8383 23.6113 21.9152 23.8057 21.9536C23.6885 21.9536 23.5332 21.9536 23.417 21.9536Z" fill="#AC2014" fill-opacity="1.000000" fill-rule="evenodd"/>
		<path id="Vector" d="M24.3096 18.802C24.7754 18.802 25.1641 19.1479 25.1641 19.5322C25.1641 19.955 24.7754 20.2625 24.3096 20.2625C23.8438 20.2625 23.4551 19.9166 23.4551 19.5322C23.4941 19.1479 23.8438 18.802 24.3096 18.802Z" fill="#DB3715" fill-opacity="1.000000" fill-rule="evenodd"/>
		<path id="Vector" d="M25.8633 19.417C25.8633 19.417 26.4844 19.9935 26.3682 20.6469C26.2129 21.3003 26.7568 20.9159 26.7568 20.5316C26.7568 20.1472 26.7178 19.7629 26.5234 19.5708C26.3291 19.3785 25.6689 19.1864 25.8633 19.417Z" fill="#DB3715" fill-opacity="1.000000" fill-rule="evenodd"/>
		<path id="Vector" d="M24.2314 19.1864C24.4258 19.1864 24.542 19.3018 24.542 19.4939C24.542 19.6476 24.3867 19.8014 24.2314 19.8014C24.0371 19.8014 23.9209 19.686 23.9209 19.4939C23.9209 19.3401 24.0762 19.1864 24.2314 19.1864Z" fill="#E26037" fill-opacity="1.000000" fill-rule="evenodd"/>
		<path id="Vector" d="M15.417 17.7643C16.6211 17.7643 17.5918 18.6866 17.5918 19.8397C17.5918 20.5699 17.2031 21.2233 16.582 21.5692C15.5723 21.4539 14.6016 21.3002 13.708 21.108C13.3975 20.7621 13.2422 20.3009 13.2422 19.8013C13.2422 18.6866 14.2129 17.7643 15.417 17.7643Z" fill="#DB3715" fill-opacity="1.000000" fill-rule="evenodd"/>
		<path id="Vector" d="M15.4941 17.8796C16.6592 17.8796 17.5918 18.7637 17.5918 19.8782C17.5918 20.5699 17.2031 21.1849 16.6592 21.5309C15.6885 21.4155 14.7178 21.2618 13.8633 21.108C13.5918 20.7622 13.3975 20.3394 13.3975 19.8782C13.3975 18.802 14.3291 17.8796 15.4941 17.8796Z" fill="#BE2218" fill-opacity="1.000000" fill-rule="evenodd"/>
		<path id="Vector" d="M16.3486 18.1102C17.0088 18.4177 17.4365 19.071 17.4365 19.8397C17.4365 20.5699 17.0088 21.2234 16.3877 21.5309C15.8047 21.454 15.2227 21.3771 14.6787 21.3002C14.7178 21.3002 14.7568 21.3002 14.7949 21.3002C15.9219 21.3002 16.8145 20.4547 16.8145 19.3785C16.8145 18.8789 16.6592 18.4562 16.3486 18.1102ZM13.9414 21.1465C13.9023 21.108 13.9023 21.108 13.8633 21.0696C13.9795 21.108 14.0576 21.1465 14.1738 21.1849C14.0967 21.1849 14.0186 21.1465 13.9414 21.1465Z" fill="#AC2014" fill-opacity="1.000000" fill-rule="evenodd"/>
		<path id="Vector" d="M14.9902 18.1486C15.4561 18.1486 15.8447 18.4945 15.8447 18.8788C15.8447 19.3015 15.4561 19.609 14.9902 19.609C14.5244 19.609 14.1357 19.2632 14.1357 18.8788C14.1357 18.4561 14.5244 18.1486 14.9902 18.1486Z" fill="#DB3715" fill-opacity="1.000000" fill-rule="evenodd"/>
		<path id="Vector" d="M16.5039 18.7251C16.5039 18.7251 17.125 19.3016 17.0088 19.955C16.8535 20.6084 17.3975 20.224 17.3975 19.8397C17.3975 19.4553 17.3584 19.071 17.1641 18.8789C16.9697 18.6866 16.3096 18.4945 16.5039 18.7251Z" fill="#DB3715" fill-opacity="1.000000" fill-rule="evenodd"/>
		<path id="Vector" d="M14.873 18.4945C15.0674 18.4945 15.1836 18.6099 15.1836 18.802C15.1836 18.9557 15.0283 19.1095 14.873 19.1095C14.6787 19.1095 14.5625 18.9941 14.5625 18.802C14.5625 18.6482 14.7178 18.4945 14.873 18.4945Z" fill="#E26037" fill-opacity="1.000000" fill-rule="evenodd"/>
		<path id="Vector" d="M12.0381 17.8412C13.2422 17.8412 14.2129 18.7635 14.2129 19.9166C14.2129 20.3778 14.0576 20.7621 13.8242 21.108C12.1934 20.7621 10.834 20.3394 9.90234 19.7628C9.94141 18.7252 10.873 17.8412 12.0381 17.8412Z" fill="#DB3715" fill-opacity="1.000000" fill-rule="evenodd"/>
		<path id="Vector" d="M12.1152 17.9949C13.2803 17.9949 14.2129 18.8789 14.2129 19.9934C14.2129 20.4161 14.0576 20.8005 13.8242 21.108C12.2324 20.8005 10.9502 20.3778 10.0186 19.8782C10.0967 18.8405 10.9893 17.9949 12.1152 17.9949Z" fill="#BE2218" fill-opacity="1.000000" fill-rule="evenodd"/>
		<path id="Vector" d="M12.9707 18.2256C13.6309 18.5331 14.0576 19.1864 14.0576 19.9551C14.0576 20.3779 13.9023 20.8007 13.6309 21.1082C13.3203 21.0312 13.0479 20.9928 12.7373 20.9159C13.1641 20.5701 13.3975 20.0704 13.3975 19.4939C13.4756 18.9943 13.2812 18.5715 12.9707 18.2256Z" fill="#AC2014" fill-opacity="1.000000" fill-rule="evenodd"/>
		<path id="Vector" d="M11.6113 18.2639C12.0771 18.2639 12.4658 18.6099 12.4658 18.9941C12.4658 19.4169 12.0771 19.7244 11.6113 19.7244C11.1455 19.7244 10.7568 19.3785 10.7568 18.9941C10.7568 18.5714 11.1455 18.2639 11.6113 18.2639Z" fill="#DB3715" fill-opacity="1.000000" fill-rule="evenodd"/>
		<path id="Vector" d="M13.125 18.8405C13.125 18.8405 13.7471 19.417 13.6299 20.0703C13.4746 20.7238 14.0186 20.3394 14.0186 19.9551C14.0186 19.5707 13.9795 19.1864 13.7852 18.9943C13.5908 18.802 12.9697 18.6099 13.125 18.8405Z" fill="#DB3715" fill-opacity="1.000000" fill-rule="evenodd"/>
		<path id="Vector" d="M11.5332 18.6099C11.7275 18.6099 11.8438 18.7252 11.8438 18.9174C11.8438 19.071 11.6885 19.2249 11.5332 19.2249C11.3389 19.2249 11.2227 19.1095 11.2227 18.9174C11.1836 18.7635 11.3389 18.6099 11.5332 18.6099Z" fill="#E26037" fill-opacity="1.000000" fill-rule="evenodd"/>
		<path id="Vector" d="M30.5244 38.7491C30.5244 38.7491 30.0576 39.5178 28.6602 39.5178C27.2617 39.5178 26.291 38.9028 27.4561 38.9028C28.6602 38.9413 30.5244 38.7491 30.5244 38.7491Z" fill="#416260" fill-opacity="1.000000" fill-rule="evenodd"/>
		<path id="Vector" d="M30.3682 33.9065C30.3682 33.9065 29.0869 34.3677 27.9609 34.1755C26.834 33.9833 26.6406 33.4453 27.6113 33.5605C28.582 33.6759 28.6211 33.7142 29.2031 33.599C29.7471 33.4836 30.9512 33.4836 30.3682 33.9065Z" fill="#416260" fill-opacity="1.000000" fill-rule="evenodd"/>
		<path id="Vector" d="M24.5439 34.8289C27.0684 35.29 29.165 35.2133 31.5342 34.4061C32.5049 34.0602 33.0098 34.2908 32.8936 35.1364C32.6602 36.3278 32 37.7499 28.1553 38.0189C24.2715 38.2878 23.2617 36.0587 23.4561 35.2516C23.6113 34.4061 24.1553 34.7904 24.5439 34.8289Z" fill="#3C2012" fill-opacity="1.000000" fill-rule="evenodd"/>
		<path id="Vector" d="M32.5439 36.174C32.0391 37.0195 30.9121 37.7882 28.1553 37.9803C26.0967 38.1342 24.8545 37.5576 24.1553 36.9042C24.1553 35.6743 24.8154 35.6743 24.8154 35.6743C24.8154 35.6743 30.0967 35.7897 31.417 35.4822C32.0391 35.3669 32.3496 35.7128 32.5439 36.174Z" fill="#FFFFFF" fill-opacity="1.000000" fill-rule="evenodd"/>
		<path id="Vector" d="M32.1943 36.6353C31.5723 37.2886 30.4072 37.8651 28.1553 38.0189C26.0967 38.1726 24.8545 37.5961 24.1553 36.9427C24.1553 36.9043 24.1553 36.8658 24.1553 36.8274L24.1943 36.8658C24.5049 37.2502 26.1748 37.8267 28.0391 37.8651C29.9033 37.9036 32.0771 36.6737 32.0771 36.6737L32.1943 36.6353Z" fill="#E4E2D8" fill-opacity="1.000000" fill-rule="evenodd"/>
		<path id="Vector" d="M32.5439 36.174C32.4277 36.3662 32.2725 36.5968 32.0781 36.7889C32.0391 36.443 31.9609 35.9818 31.8057 35.9049C31.5732 35.7897 31.1455 36.4045 29.5537 36.443C27.9609 36.4814 25.0879 36.3278 24.8936 36.2509C24.7773 36.174 24.5049 36.6736 24.5049 37.2501C24.3887 37.1732 24.3105 37.0964 24.1943 36.9811C24.1943 35.7512 24.8545 35.7512 24.8545 35.7512C24.8545 35.7512 30.1357 35.8666 31.4561 35.5591C32.0391 35.3669 32.3496 35.7128 32.5439 36.174Z" fill="#E4E2D8" fill-opacity="1.000000" fill-rule="evenodd"/>
		<path id="Vector" d="M24.543 34.8289C27.0674 35.29 29.165 35.2131 31.5332 34.406C31.8828 34.2908 32.1553 34.2523 32.3877 34.2523C32.3486 34.675 32.0771 35.2131 31.3008 35.636C30.291 36.2124 26.0186 36.1356 24.8926 35.8666C24 35.6743 23.9219 34.9441 23.9219 34.675C24.1553 34.7135 24.3877 34.7904 24.543 34.8289Z" fill="#FFFFFF" fill-opacity="1.000000" fill-rule="evenodd"/>
		<path id="Vector" d="M24.543 34.8289C27.0674 35.29 29.165 35.2131 31.5332 34.406C31.8828 34.2908 32.1553 34.2523 32.3877 34.2523C32.3486 34.6366 32.1162 35.0979 31.4951 35.5206L31.5332 35.4822C32.1553 34.3677 31.4951 34.675 30.835 34.9441C30.1357 35.2516 27.5723 35.3669 26.835 35.3285C26.0967 35.3285 25.165 35.0979 24.9316 35.0594C24.6982 35.021 24.543 35.0979 24.582 35.3669C24.6211 35.5975 24.9316 35.7897 25.0479 35.8666C25.0088 35.8666 24.9316 35.8281 24.8926 35.8281C24 35.636 23.9219 34.9056 23.9219 34.6366C24.1553 34.7135 24.3877 34.7904 24.543 34.8289Z" fill="#E4E2D8" fill-opacity="1.000000" fill-rule="evenodd"/>
		<path id="Vector" d="M7.41699 44.7448C7.41699 44.7448 6.83398 46.0515 5.78613 45.7056C4.77637 45.3213 2.75684 44.2067 3.96094 42.3619C5.12598 40.5171 6.05762 40.7092 6.36816 41.6316C6.67871 42.5541 5.90234 42.7078 5.90234 42.7078C5.90234 42.7078 7.99902 43.1689 7.41699 44.7448Z" fill="#3C2012" fill-opacity="1.000000" fill-rule="evenodd"/>
	</g>
</svg>
