<svg width="18.000000" height="21.000000" viewBox="0 0 18 21" fill="none" xmlns="http://www.w3.org/2000/svg" xmlns:xlink="http://www.w3.org/1999/xlink">
	<desc>
			Created with Pixso.
	</desc>
	<defs/>
	<path id="Vector" d="M9 0C9.65662 0 10.3068 0.12933 10.9135 0.380604C11.52 0.631874 12.0713 1.00017 12.5355 1.46447C12.9999 1.92876 13.3682 2.47995 13.6194 3.08658C13.8707 3.69321 14 4.34339 14 5L14 7L17 7C17.2653 7 17.5195 7.10536 17.7072 7.29289C17.8947 7.48043 18 7.73478 18 8L18 20C18 20.2652 17.8947 20.5196 17.7072 20.7071C17.5195 20.8946 17.2653 21 17 21L1 21C0.734741 21 0.480469 20.8946 0.292847 20.7071C0.105347 20.5196 0 20.2652 0 20L0 8C0 7.73478 0.105347 7.48043 0.292847 7.29289C0.480469 7.10536 0.734741 7 1 7L4 7L4 5C4 3.67392 4.52673 2.40215 5.46448 1.46447C6.4021 0.526783 7.67395 0 9 0ZM14 10L12 10L12 11C12.0002 11.2549 12.0979 11.5 12.2728 11.6854C12.4479 11.8707 12.687 11.9822 12.9414 11.9972C13.1958 12.0121 13.4464 11.9293 13.6418 11.7657C13.8373 11.6021 13.9629 11.3701 13.993 11.117L14 11L14 10ZM6 10L4 10L4 11C4.00024 11.2549 4.0979 11.5 4.27283 11.6854C4.44788 11.8707 4.68701 11.9822 4.94141 11.9972C5.1958 12.0121 5.44641 11.9293 5.64185 11.7657C5.83728 11.6021 5.96289 11.3701 5.99304 11.117L6 11L6 10ZM9 2C8.23474 1.99996 7.49854 2.29232 6.94177 2.81728C6.38501 3.34224 6.04993 4.06011 6.005 4.824L6 5L6 7L12 7L12 5C12 4.23479 11.7076 3.49849 11.1827 2.94174C10.6577 2.38499 9.93994 2.04989 9.17603 2.005L9 2Z" fill="#1B1B1B" fill-opacity="1.000000" fill-rule="nonzero"/>
</svg>
