<svg width="16.000000" height="16.000000" viewBox="0 0 16 16" fill="none" xmlns="http://www.w3.org/2000/svg" xmlns:xlink="http://www.w3.org/1999/xlink">
	<desc>
			Created with Pixso.
	</desc>
	<defs/>
	<circle id="Ellipse 2" cx="8.000000" cy="8.000000" r="8.000000" fill="#E07153" fill-opacity="1.000000"/>
	<path id="0" d="M10.4213 10.688C9.9093 11.392 9.19104 11.744 8.2666 11.744C7.34216 11.744 6.62036 11.392 6.1012 10.688C5.58923 9.984 5.33325 9.04533 5.33325 7.872C5.33325 6.69867 5.58923 5.76 6.1012 5.056C6.62036 4.352 7.34216 4 8.2666 4C9.19104 4 9.9093 4.352 10.4213 5.056C10.9403 5.76 11.2 6.69867 11.2 7.872C11.2 9.04533 10.9403 9.984 10.4213 10.688ZM8.2666 10.5493C8.82129 10.5493 9.24438 10.3182 9.53589 9.856C9.82751 9.39378 9.97327 8.73244 9.97327 7.872C9.97327 7.01155 9.82751 6.35022 9.53589 5.888C9.24438 5.42578 8.82129 5.19467 8.2666 5.19467C7.71899 5.19467 7.2959 5.42578 6.99719 5.888C6.70569 6.35022 6.55994 7.01155 6.55994 7.872C6.55994 8.73244 6.70569 9.39378 6.99719 9.856C7.2959 10.3182 7.71899 10.5493 8.2666 10.5493Z" fill="#FFFFFF" fill-opacity="1.000000" fill-rule="nonzero"/>
</svg>
