<svg width="12.000610" height="12.000000" viewBox="0 0 12.0006 12" fill="none" xmlns="http://www.w3.org/2000/svg" xmlns:xlink="http://www.w3.org/1999/xlink">
	<desc>
			Created with Pixso.
	</desc>
	<defs/>
	<path id="Vector" d="M12 8.94667L12 11.304C12.0001 11.4728 11.9362 11.6353 11.821 11.7588C11.7061 11.8823 11.5483 11.9575 11.38 11.9693C11.0886 11.9893 10.8507 12 10.6666 12C4.77539 12 0 7.22467 0 1.33333C0 1.14933 0.0100098 0.911333 0.0306396 0.620001C0.0424805 0.45163 0.117676 0.294006 0.241211 0.17894C0.364624 0.0638714 0.527222 -7.62939e-05 0.696045 0L3.05334 0C3.13599 -8.39233e-05 3.21582 0.0305729 3.2771 0.0860138C3.3385 0.141455 3.37708 0.217722 3.38538 0.299999C3.40063 0.453333 3.41467 0.575333 3.42798 0.667999C3.56055 1.59262 3.83203 2.49189 4.23328 3.33533C4.29663 3.46867 4.25537 3.628 4.13538 3.71333L2.69666 4.74133C3.57629 6.79097 5.20972 8.42436 7.25928 9.304L8.28601 7.868C8.328 7.80933 8.38916 7.76725 8.45898 7.7491C8.52881 7.73095 8.60278 7.73787 8.66797 7.76867C9.51135 8.16924 10.4104 8.44008 11.3347 8.572C11.4274 8.58533 11.5493 8.6 11.7013 8.61467C11.7834 8.62309 11.8596 8.66171 11.9149 8.72305C11.9702 8.78439 12.0007 8.86408 12.0006 8.94667L12 8.94667Z" fill="#09121F" fill-opacity="1.000000" fill-rule="nonzero"/>
</svg>
