<svg width="53.169189" height="64.000000" viewBox="0 0 53.1692 64" fill="none" xmlns="http://www.w3.org/2000/svg" xmlns:xlink="http://www.w3.org/1999/xlink">
	<desc>
			Created with Pixso.
	</desc>
	<defs/>
	<g opacity="0.300000">
		<g opacity="0.300000">
			<path id="Vector" d="M53.1692 60.3042C53.1692 62.3452 43.2327 64 30.9754 64C18.7181 64 8.78168 62.3452 8.78168 60.3042C8.78168 58.2629 18.7181 56.6082 30.9754 56.6082C43.2327 56.6082 53.1692 58.2629 53.1692 60.3042Z" fill="#1B1B1B" fill-opacity="1.000000" fill-rule="evenodd"/>
		</g>
	</g>
	<path id="Vector" d="M47.7123 31.6453C47.7123 31.6453 46.9999 39.2031 47.4502 45.939C47.7224 49.9949 45.7635 53.8923 42.3063 56.0134C34.4556 60.835 20.8148 59.6685 17.7467 54.3262C17.5533 53.9919 17.4033 53.6396 17.299 53.272L19.123 6.36084C21.1328 1.20996 30.3928 -0.860107 38.2792 1.28125C39.7877 1.6897 41.248 2.25391 42.5963 2.97876C46.9719 5.33472 49.7118 9.93164 49.8034 14.9141C49.9001 20.3533 49.1115 25.9456 47.7123 31.6453Z" fill="#E07153" fill-opacity="1.000000" fill-rule="nonzero"/>
	<path id="Vector" d="M26.0197 1.1333C26.4242 0.931641 26.8618 0.793945 27.3121 0.709717C27.7623 0.62793 28.2253 0.60498 28.6884 0.625488C29.1488 0.650879 29.6093 0.724854 30.0596 0.832275C30.5098 0.94458 30.9474 1.10278 31.3723 1.28149C32.2245 1.64136 33.0106 2.13135 33.761 2.64941C34.509 3.17529 35.2061 3.74951 35.9183 4.28564C36.623 4.82666 37.3405 5.33716 38.1036 5.74316C38.4827 5.94995 38.877 6.12085 39.2815 6.26123C39.485 6.32495 39.6911 6.39136 39.8997 6.43726C40.1057 6.49609 40.3195 6.5293 40.5331 6.57007C42.2402 6.83813 44.054 6.54956 45.6491 5.70728C44.2219 6.82544 42.3139 7.34082 40.4594 7.16235C39.9963 7.11621 39.5333 7.03467 39.0805 6.90186C38.6302 6.7666 38.1927 6.5957 37.7729 6.38892C36.9334 5.97534 36.1753 5.44434 35.4553 4.89307C34.7379 4.33423 34.0485 3.76489 33.3387 3.23413C32.9851 2.96851 32.6265 2.71338 32.2576 2.47583C31.8861 2.24121 31.5096 2.01904 31.1204 1.82007C30.3419 1.427 29.5151 1.12817 28.6502 0.99292C28.2177 0.921631 27.7776 0.898438 27.3375 0.916504C26.8948 0.941895 26.4547 1.01343 26.0197 1.1333Z" fill="#FFFFFF" fill-opacity="1.000000" fill-rule="nonzero"/>
	<path id="Vector" d="M23.2849 2.28198C23.842 2.14917 24.4449 2.22314 24.9944 2.4375C25.5439 2.65454 26.0451 3.02197 26.4216 3.49683C26.7981 3.97168 27.0424 4.54321 27.1313 5.12793C27.2179 5.7124 27.1568 6.31982 26.9024 6.83545C26.8414 6.2688 26.7294 5.75586 26.5513 5.27588C26.3733 4.79858 26.129 4.35962 25.8264 3.97412C25.5211 3.58862 25.1497 3.25439 24.7248 2.97363C24.2949 2.69019 23.8217 2.46558 23.2849 2.28198Z" fill="#FFFFFF" fill-opacity="1.000000" fill-rule="nonzero"/>
	<path id="Vector" d="M48.6026 9.41357C47.5469 10.1589 46.7938 11.2207 46.4351 12.3796C46.3486 12.6704 46.2825 12.9641 46.2443 13.2627C46.2112 13.5588 46.1985 13.8599 46.2112 14.1636C46.2393 14.7686 46.3512 15.376 46.4962 15.9888C46.6412 16.6013 46.8142 17.219 46.9592 17.8545C47.0304 18.1736 47.0991 18.4927 47.1449 18.8269C47.1882 19.1589 47.2187 19.4932 47.2187 19.8276C47.2213 20.4963 47.1322 21.1753 46.8879 21.8057C46.7582 22.1172 46.6056 22.4182 46.3995 22.6812C46.1935 22.9417 45.9467 23.1687 45.6745 23.3423C45.8932 23.1023 46.079 22.8445 46.2214 22.5688C46.3613 22.2908 46.4631 21.9946 46.5292 21.696C46.6641 21.0935 46.6768 20.4734 46.6183 19.8582C46.5903 19.552 46.5394 19.2456 46.4809 18.9419C46.4173 18.6433 46.3384 18.3345 46.2571 18.0308C46.0892 17.4207 45.906 16.803 45.7534 16.1648C45.6796 15.8457 45.6134 15.519 45.5651 15.1897C45.5193 14.8579 45.4913 14.521 45.4888 14.1816C45.4888 13.842 45.5193 13.4976 45.5803 13.1606C45.644 12.8237 45.7457 12.4944 45.8704 12.1804C46.3843 10.9194 47.3891 9.87817 48.6026 9.41357Z" fill="#FFFFFF" fill-opacity="1.000000" fill-rule="nonzero"/>
	<path id="Vector" d="M49.0123 26.6782C48.9106 27.3367 48.6231 27.9646 48.2364 28.5186C47.8472 29.0725 47.3511 29.5549 46.7914 29.9377C46.2292 30.3206 45.6008 30.6038 44.9444 30.7622C44.2881 30.9177 43.6012 30.9536 42.9525 30.803C43.5936 30.6321 44.1888 30.438 44.7562 30.1904C45.3235 29.9429 45.8577 29.6467 46.364 29.3047C46.8677 28.9626 47.3409 28.572 47.7784 28.1357C48.2186 27.6965 48.618 27.2117 49.0123 26.6782Z" fill="#FFFFFF" fill-opacity="1.000000" fill-rule="nonzero"/>
	<path id="Vector" d="M42.9423 43.7593C43.652 44.0044 44.2931 44.4612 44.8044 45.0405C45.3107 45.6252 45.6796 46.3501 45.8449 47.1284C46.0078 47.907 45.9722 48.7263 45.7534 49.4973C45.6414 49.8826 45.4811 50.2554 45.2802 50.605C45.0767 50.9546 44.8299 51.2712 44.5602 51.5596C44.0184 52.1365 43.3951 52.5984 42.7693 53.0171C42.1409 53.4355 41.51 53.8135 40.9224 54.2397C40.3372 54.6633 39.7877 55.1382 39.3654 55.7124C38.9457 56.2893 38.6556 56.981 38.5895 57.729C38.5361 57.3562 38.5615 56.9707 38.6429 56.5957C38.7244 56.2205 38.8668 55.8579 39.05 55.5134C39.4265 54.8267 39.9734 54.2576 40.556 53.7649C41.1385 53.2698 41.767 52.8486 42.3597 52.4197C42.955 51.991 43.5273 51.5493 44.0031 51.0364C44.4865 50.5283 44.8477 49.9414 45.0614 49.2854C45.2751 48.6294 45.3438 47.9224 45.2548 47.2307C45.1657 46.5388 44.9037 45.8677 44.5068 45.2678C44.1125 44.6704 43.5757 44.1575 42.9423 43.7593Z" fill="#FFFFFF" fill-opacity="1.000000" fill-rule="nonzero"/>
	<path id="Vector" d="M23.7302 58.2085C23.9388 57.7107 24.239 57.2717 24.5798 56.8684C24.9207 56.4651 25.3099 56.1028 25.7297 55.7837C26.1495 55.4646 26.6049 55.1917 27.0856 54.9746C27.5665 54.7576 28.0727 54.5918 28.6069 54.5305C28.2025 54.8853 27.7928 55.189 27.3909 55.4954L26.1902 56.3989L24.9919 57.3074C24.585 57.606 24.1804 57.9175 23.7302 58.2085Z" fill="#FFFFFF" fill-opacity="1.000000" fill-rule="nonzero"/>
	<g opacity="0.550000">
		<g opacity="0.550000">
			<path id="Vector" d="M43.8759 3.76514C42.5556 3.06299 41.131 2.51685 39.6555 2.11865C31.7717 -0.0227051 22.5116 2.04468 20.4993 7.198L18.6752 54.1096C18.7821 54.4771 18.9322 54.8267 19.1255 55.1638C19.5555 55.9116 20.194 56.5803 20.9954 57.1597C19.5377 56.417 18.4005 55.4675 17.7467 54.3291C17.5533 53.9946 17.4033 53.6423 17.299 53.2749L19.123 6.36353C21.1328 1.21265 30.3928 -0.857422 38.2792 1.28394C39.7877 1.69238 41.248 2.25659 42.5963 2.98145C43.0389 3.21875 43.4664 3.48169 43.8759 3.76514Z" fill="#FFFFFF" fill-opacity="1.000000" fill-rule="nonzero"/>
		</g>
	</g>
	<path id="Vector" d="M30.2224 59.5051C27.2256 59.5051 24.3814 59.0278 22.0536 58.1191C19.2324 57.019 17.4388 55.3855 16.869 53.3948C16.8004 53.1572 16.9377 52.9097 17.1743 52.8408C17.4109 52.772 17.6577 52.9097 17.7263 53.1472C18.3445 55.3091 20.5959 56.5903 22.3767 57.2847C27.4876 59.2805 36.2542 59.2065 42.0748 55.6306C45.3794 53.6013 47.267 49.8979 47.005 45.967C46.5573 39.272 47.2619 31.6785 47.2695 31.6018C47.2721 31.5789 47.2747 31.5586 47.2797 31.5381C48.7705 25.4734 49.4498 20.0393 49.3582 14.9243C49.2717 10.0696 46.6005 5.64355 42.3851 3.37451C37.3328 0.656006 30.1333 0.112549 24.8749 2.05225C22.1274 3.06567 20.283 4.6123 19.5377 6.52417C19.4486 6.75391 19.1891 6.86621 18.9601 6.77686C18.7312 6.6875 18.6193 6.42725 18.7083 6.19751C19.5504 4.04053 21.5754 2.31763 24.5671 1.21265C27.1543 0.257812 30.3394 -0.153076 33.5372 0.0512695C36.9232 0.268066 40.1286 1.14624 42.8074 2.58838C47.3052 5.0105 50.157 9.72998 50.2485 14.9089C50.3427 20.093 49.6558 25.5908 48.1523 31.7192C48.104 32.2656 47.468 39.5068 47.8928 45.9084C48.1777 50.1736 46.1248 54.1912 42.5378 56.3938C39.7903 58.0811 36.1244 59.1606 32.2169 59.4338C31.5478 59.4822 30.8812 59.5051 30.2224 59.5051Z" fill="#1B1B1B" fill-opacity="1.000000" fill-rule="nonzero"/>
	<path id="Vector" d="M6.58624 30.8694C5.41602 30.0476 4.20508 28.9475 3.16205 27.7222C2.16736 26.5508 1.32782 25.2668 0.824158 24.0007C0.389099 22.9058 0.119446 21.1165 1.23627 20.3762C2.07068 19.825 3.48004 19.7151 4.30176 20.3508C4.7851 20.7261 5.16162 21.2085 5.5127 21.7163C5.71619 22.0098 5.90955 22.311 6.1131 22.6045C6.42346 23.0513 6.75415 23.4851 7.11029 23.8962C9.71283 26.7498 9.07428 28.9883 6.58624 30.8694Z" fill="#FFFFFF" fill-opacity="1.000000" fill-rule="nonzero"/>
	<path id="Vector" d="M6.58875 30.9485L6.5506 30.9229C5.35236 30.0833 4.13379 28.9602 3.11365 27.7629C2.05029 26.5098 1.23877 25.2156 0.765564 24.0212C0.368713 23.0181 0.0125732 21.1089 1.20312 20.3201C2.02991 19.7739 3.48761 19.636 4.34241 20.2996C4.85376 20.6953 5.24805 21.2185 5.5661 21.678C5.67035 21.8286 5.77216 21.9792 5.87134 22.1299C5.96802 22.2751 6.06726 22.4207 6.16644 22.5637C6.47681 23.0129 6.81262 23.4468 7.15863 23.8501C8.3772 25.1875 8.93939 26.4663 8.83252 27.6455C8.72571 28.8044 8.00323 29.8738 6.62689 30.9177L6.58875 30.9485ZM2.87451 19.9807C2.28943 19.9807 1.69415 20.1492 1.27185 20.4272C0.149902 21.1702 0.500977 23.0054 0.885132 23.9751C1.35321 25.157 2.1571 26.4382 3.21033 27.6814C4.21014 28.8579 5.40833 29.9607 6.58368 30.7927C7.90656 29.782 8.60107 28.7507 8.70282 27.6379C8.80713 26.4944 8.25507 25.2488 7.06195 23.937C6.71088 23.5259 6.3725 23.0896 6.05963 22.6377C5.96039 22.4949 5.86121 22.3467 5.76453 22.2012C5.66272 22.0505 5.56354 21.9001 5.45923 21.7495C5.1463 21.2976 4.75964 20.7847 4.26355 20.3992C3.88702 20.1082 3.38336 19.9807 2.87451 19.9807Z" fill="#1B1B1B" fill-opacity="1.000000" fill-rule="nonzero"/>
	<g opacity="0.300000">
		<g opacity="0.300000">
			<path id="Vector" d="M39.7293 57.3079C40.2254 57.0652 40.7037 56.8049 41.1616 56.5242C44.6189 54.4031 46.5752 50.5081 46.303 46.4497C45.8552 39.7112 46.565 32.156 46.565 32.156C47.9667 26.4563 48.7529 20.864 48.6562 15.4272C48.5671 10.4448 45.8273 5.8479 41.449 3.49194C40.668 3.0708 39.8463 2.70581 39.0017 2.39185C45.6949 14.0029 41.6144 49.3313 27.2027 54.8369C24.7172 56.1055 21.8985 56.4629 18.749 55.595C22.8448 59.5793 33.7713 60.3401 41.0267 56.718C40.607 56.9299 40.1745 57.1265 39.7293 57.3079Z" fill="#1B1B1B" fill-opacity="1.000000" fill-rule="nonzero"/>
		</g>
	</g>
	<g opacity="0.300000">
		<g opacity="0.300000">
			<path id="Vector" d="M6.45905 30.7417C5.28882 29.9199 4.07788 28.8198 3.03485 27.5947C3.06793 27.5486 3.08826 27.5256 3.08826 27.5256C4.92249 28.8123 6.64984 24.5266 5.3855 21.5862C5.58899 21.8796 5.78235 22.1809 5.9859 22.4744C6.29626 22.9211 6.62695 23.355 6.98309 23.7659C9.58563 26.6221 8.94708 28.8606 6.45905 30.7417Z" fill="#1B1B1B" fill-opacity="1.000000" fill-rule="nonzero"/>
		</g>
	</g>
	<path id="Vector" d="M15.4011 58.5073C14.7728 57.2922 14.2233 55.3652 13.8646 52.583L17.0878 52.6545L19.9854 52.7183C20.3669 58.8289 17.4643 62.5071 15.4011 58.5073Z" fill="#FFFFFF" fill-opacity="1.000000" fill-rule="nonzero"/>
	<path id="Vector" d="M17.3015 60.2429C16.6019 60.2429 15.9176 59.6506 15.3427 58.5352C14.6533 57.2029 14.1343 55.2017 13.801 52.5881L13.7908 52.5115L20.049 52.6494L20.0516 52.7104C20.3136 56.9043 19.0314 59.8088 17.6424 60.1943C17.5305 60.2275 17.416 60.2429 17.3015 60.2429ZM13.9409 52.6494C14.2742 55.2095 14.7855 57.1697 15.4597 58.4739C16.0957 59.7095 16.8589 60.2734 17.6093 60.0667C18.9398 59.6965 20.166 56.8735 19.9244 52.782L13.9409 52.6494Z" fill="#1B1B1B" fill-opacity="1.000000" fill-rule="nonzero"/>
	<path id="Vector" d="M30.0468 58.9844C29.3498 57.8127 28.7341 55.845 28.3271 52.8816L31.8708 52.5471L35.0228 52.2485C35.2823 58.3743 32.2576 62.7007 30.0468 58.9844Z" fill="#FFFFFF" fill-opacity="1.000000" fill-rule="nonzero"/>
	<path id="Vector" d="M31.8353 60.4265C31.3087 60.4265 30.6498 60.1228 29.991 59.0176C29.2252 57.7339 28.6452 55.6714 28.2636 52.8918L28.2534 52.8254L35.0814 52.1797L35.084 52.2461C35.2519 56.2024 33.9799 59.8447 32.2449 60.3655C32.1228 60.4011 31.9854 60.4265 31.8353 60.4265ZM28.3984 52.9404C28.7775 55.6714 29.3499 57.6929 30.1003 58.9539C30.7363 60.0208 31.4664 60.4675 32.2119 60.2429C33.6696 59.8064 35.1298 56.6541 34.9619 52.3176L28.3984 52.9404Z" fill="#1B1B1B" fill-opacity="1.000000" fill-rule="nonzero"/>
	<path id="Vector" d="M6.5863 31.3162C6.49725 31.3162 6.4082 31.2908 6.33185 31.2346C3.71155 29.3943 1.38892 26.6196 0.412048 24.1616C-0.134949 22.7834 -0.310486 20.864 0.992065 20.0012C1.92316 19.386 3.55896 19.2073 4.57397 19.9961C5.2558 20.5244 5.72894 21.2314 6.18689 21.9155C6.28357 22.061 6.38019 22.2039 6.47943 22.3469C6.78217 22.7834 7.10779 23.207 7.44867 23.6028C7.60895 23.7891 7.58862 24.0723 7.40289 24.2332C7.21716 24.394 6.93481 24.3735 6.77454 24.1873C6.41583 23.7686 6.06982 23.322 5.74933 22.8574C5.64752 22.7119 5.54834 22.564 5.4491 22.4133C5.01154 21.7598 4.59943 21.1448 4.0321 20.7031C3.35797 20.1824 2.14954 20.3074 1.48303 20.7466C0.564636 21.354 0.92334 23.031 1.23883 23.8325C2.2793 26.4539 4.80292 29.0725 6.8432 30.5044C7.04419 30.6448 7.09253 30.9258 6.95264 31.1272C6.86609 31.2498 6.7262 31.3162 6.5863 31.3162Z" fill="#1B1B1B" fill-opacity="1.000000" fill-rule="nonzero"/>
	<g opacity="0.300000">
		<g opacity="0.300000">
			<path id="Vector" d="M30.0468 58.9846C30.085 58.9028 30.1104 58.8542 30.1104 58.8542C32.7587 58.6296 33.1708 53.6372 31.2297 53.5964L31.8708 52.5447L35.0228 52.2461C35.2823 58.3745 32.2575 62.7009 30.0468 58.9846Z" fill="#1B1B1B" fill-opacity="1.000000" fill-rule="nonzero"/>
		</g>
	</g>
	<path id="Vector" d="M42.4894 26.4717C43.5529 27.1965 43.2654 27.9189 42.2656 28.6411C44.1379 30.2188 43.6699 31.5613 42.1078 32.7891C42.8431 33.3657 42.6904 34.1443 42.3165 34.9739C42.2529 35.1167 42.1816 35.2598 42.1078 35.4053L41.7263 42.3274C41.8992 42.4194 42.0544 42.5164 42.1918 42.616C43.4307 43.5066 43.2959 44.6526 41.7899 46.0591C43.5706 46.2173 43.3162 48.9307 41.9807 49.1221C41.1615 50.7761 40.1159 51.0288 38.9279 50.3982C38.5056 51.4983 37.8365 51.6975 37.0199 51.3757C36.1702 52.6418 35.0687 52.4504 33.8831 51.7588C33.4023 53.8748 31.1789 54.0483 30.113 53.04C29.9578 52.8921 29.8281 52.7185 29.7288 52.5244C28.958 53.137 28.2609 53.1829 27.6936 52.2258C26.8821 53.3948 25.9993 53.3667 25.0657 52.5244C24.1753 53.6091 21.9773 53.8083 21.1836 52.5679C20.5781 53.5581 19.3392 53.5889 18.894 52.7261C18.4157 53.5557 16.4136 53.4612 15.9048 52.3738C14.6201 53.7471 13.4728 53.3667 12.3865 52.2666C10.2673 54.5637 8.84271 52.3176 8.99536 50.947C7.6394 51.3376 7.44861 49.311 8.65698 49.1194C7.72339 48.2568 7.46893 47.3684 7.91418 46.4597C6.86859 45.6023 6.84821 44.7114 7.55292 43.8003L7.16113 36.0381C5.67798 35.0198 6.31653 32.7302 7.38501 32.5923C6.2326 31.8267 6.39795 30.4534 7.25781 29.5933C5.64746 28.9961 6.11304 27.0408 7.43079 26.658C6.23004 24.4526 7.76404 22.5383 7.76404 22.5383C7.23999 21.4663 7.32648 20.5015 8.03882 19.6465C6.40558 16.9229 8.6239 15.2102 8.6239 15.2102C7.73352 14.7305 7.8302 12.9768 9.13275 12.7549C8.43311 11.5425 9.16327 10.1384 10.2673 9.77612C8.91138 6.92505 12.6841 4.84229 14.4649 7.22363C15.1442 5.31958 17.2429 5.63867 17.3931 7.6167C18.5786 5.70239 21.3133 5.95264 22.1071 7.7749C22.9008 6.09546 24.6816 6.27417 25.0963 7.74438C26.124 6.01123 28.1592 6.56519 28.7952 7.89233C29.1132 6.15674 31.764 5.73291 31.7208 8.19873C31.8785 7.86182 32.0744 7.57324 32.2932 7.3335C32.517 7.08325 32.7714 6.88428 33.0334 6.73877C34.4072 5.9729 36.1244 6.57544 36.3839 8.41309C37.4956 8.08643 38.2792 8.28296 38.2614 9.77344C39.4519 9.52075 40.6145 10.677 40.2965 11.8257C41.9196 10.9834 42.7769 12.5608 41.6321 13.5486C43.3442 13.0432 44.6213 14.8555 43.4434 15.8765C44.4559 17.002 44.0794 19.0364 42.9041 19.802C44.3542 20.5398 43.5757 21.7292 42.7769 22.7681C44.5017 24.1897 43.8047 25.2976 42.4894 26.4717Z" fill="#FFFFFF" fill-opacity="1.000000" fill-rule="nonzero"/>
	<path id="Vector" d="M31.675 53.7012C31.0873 53.7012 30.5022 53.4893 30.085 53.1064L30.0646 53.0884C29.9196 52.9507 29.7975 52.7949 29.7034 52.624C29.2709 52.9531 28.8893 53.0808 28.5408 53.0171C28.2228 52.9583 27.9353 52.7312 27.686 52.3433C27.3095 52.8562 26.9025 53.1421 26.47 53.1907C26.0324 53.2417 25.5593 53.0476 25.0682 52.6189C24.5594 53.1982 23.6741 53.5352 22.7914 53.4814C22.0892 53.4407 21.522 53.1575 21.181 52.6853C20.863 53.1523 20.3619 53.428 19.8607 53.4075C19.4486 53.3923 19.1001 53.1907 18.8864 52.8486C18.6345 53.1804 18.1257 53.3667 17.5228 53.3411C16.7952 53.3105 16.1643 52.9788 15.887 52.4861C15.3452 53.0425 14.8135 53.3181 14.2589 53.3232C14.2512 53.3232 14.2436 53.3232 14.236 53.3232C13.6432 53.3232 13.0352 53.0093 12.384 52.3611C11.3511 53.4534 10.5548 53.4204 10.0664 53.1956C9.30573 52.8459 8.87329 51.8198 8.92157 51.0337C8.56799 51.1104 8.2627 51.0337 8.04901 50.8091C7.79968 50.5461 7.71832 50.1123 7.84802 49.7295C7.95746 49.4028 8.20166 49.1731 8.52222 49.0837C7.65216 48.2388 7.42065 47.3633 7.83276 46.4802C6.86096 45.6609 6.74396 44.7546 7.48682 43.7822L7.09753 36.074C6.2428 35.469 6.1181 34.4888 6.29114 33.7715C6.44122 33.1514 6.79993 32.6943 7.22729 32.5642C6.80499 32.2451 6.55823 31.8188 6.50989 31.3264C6.45142 30.7444 6.68799 30.1113 7.14337 29.6187C6.50739 29.3508 6.14612 28.8223 6.16644 28.1895C6.19189 27.4849 6.6676 26.8494 7.33417 26.6221C6.27838 24.5852 7.49695 22.7883 7.68774 22.5254C7.17896 21.4585 7.27057 20.4861 7.95996 19.6335C6.52515 17.196 8.14569 15.542 8.51202 15.2126C8.11517 14.9497 7.90399 14.4011 7.99304 13.842C8.08972 13.25 8.47388 12.8313 9.03101 12.7012C8.7486 12.165 8.71301 11.5627 8.92926 10.991C9.15308 10.4038 9.61609 9.93677 10.1758 9.72998C9.52454 8.28784 10.1682 7.07031 11.1094 6.49878C12.0456 5.92944 13.4728 5.88086 14.442 7.08569C14.7728 6.26392 15.424 5.79663 16.1236 5.89111C16.813 5.98315 17.3142 6.57788 17.4338 7.42529C18.0138 6.59814 18.9398 6.15405 19.9447 6.22559C20.8885 6.29443 21.7051 6.82544 22.1045 7.62183C22.4988 6.87891 23.145 6.45776 23.8166 6.51147C24.4043 6.55981 24.8902 6.96826 25.1089 7.5835C25.5567 6.90454 26.2003 6.54712 26.9355 6.58301C27.6733 6.61597 28.3881 7.05762 28.7646 7.70093C29.014 6.80762 29.8611 6.33276 30.5556 6.40161C31.1179 6.45776 31.7081 6.89429 31.7717 7.93579C31.9065 7.69312 32.0616 7.47363 32.2397 7.27979C32.4636 7.02954 32.7206 6.82544 32.9979 6.67212C33.7178 6.27148 34.5497 6.23071 35.2238 6.56494C35.87 6.88672 36.2974 7.50952 36.4323 8.32104C37.0835 8.13989 37.5516 8.16797 37.8645 8.40527C38.1672 8.6377 38.3173 9.05615 38.3199 9.68677C38.8948 9.59473 39.5028 9.80908 39.9251 10.2634C40.3067 10.6719 40.472 11.2002 40.3831 11.7004C41.2225 11.3152 41.8 11.5857 42.0468 11.9507C42.2885 12.3105 42.3088 12.9028 41.8382 13.4233C42.7617 13.25 43.4867 13.7273 43.7894 14.281C44.0922 14.835 43.9904 15.4399 43.5299 15.8738C43.9726 16.3945 44.166 17.1321 44.0641 17.9055C43.9624 18.6892 43.5757 19.3833 43.0211 19.7866C43.4282 20.0139 43.6724 20.2998 43.7487 20.6367C43.8988 21.303 43.3773 22.0737 42.8608 22.75C43.5248 23.3066 43.853 23.8452 43.8632 24.3914C43.8785 25.1672 43.2374 25.8667 42.5887 26.4536C43.0059 26.7549 43.2195 27.074 43.2247 27.4058C43.2297 27.7988 42.9499 28.1995 42.3673 28.6335C43.1738 29.3276 43.5605 29.9966 43.5477 30.678C43.535 31.3774 43.0975 32.064 42.207 32.7786C42.9423 33.4116 42.7057 34.2488 42.3724 34.989C42.3063 35.1345 42.2325 35.2827 42.1689 35.4102L41.7899 42.2788C41.9526 42.3682 42.1002 42.4602 42.2274 42.552C42.7693 42.9399 43.0593 43.3867 43.0898 43.8767C43.1306 44.5071 42.7388 45.2219 41.9297 46.0029C42.7769 46.1458 43.1 46.8809 43.1152 47.4934C43.1331 48.2185 42.7566 49.0427 42.0214 49.1704C41.6067 49.9976 41.108 50.5081 40.5433 50.6917C40.0726 50.845 39.5385 50.7708 38.9584 50.4773C38.7523 50.9878 38.475 51.3223 38.1342 51.4727C37.8238 51.6106 37.4651 51.6003 37.0402 51.4446C36.0837 52.823 34.8193 52.3584 33.9188 51.8479C33.6924 52.7312 33.1403 53.3489 32.3568 53.5889C32.138 53.668 31.9065 53.7012 31.675 53.7012ZM30.1384 52.9839L30.1537 52.9966C30.7006 53.5146 31.5707 53.7087 32.3212 53.479C33.0844 53.2468 33.616 52.6316 33.817 51.7485L33.8373 51.6643L33.9111 51.7075C35.3078 52.5217 36.2491 52.4094 36.9639 51.3452L36.9919 51.3018L37.0402 51.3196C37.4523 51.4805 37.7933 51.4983 38.0833 51.3682C38.4064 51.2251 38.6684 50.8909 38.8668 50.3777L38.8923 50.3115L38.9559 50.3445C39.5359 50.6533 40.0421 50.73 40.5051 50.582C41.0419 50.4084 41.5202 49.9082 41.9221 49.0964L41.9374 49.0659L41.9705 49.0608C42.6548 48.9636 43.0059 48.1877 42.988 47.5088C42.9728 46.8911 42.6472 46.2019 41.7822 46.1255L41.6398 46.1125L41.7441 46.0156C42.5912 45.2244 43.0008 44.5122 42.9626 43.8997C42.9346 43.4504 42.6624 43.0369 42.1536 42.6719C42.0214 42.575 41.8661 42.4805 41.6957 42.3887L41.6601 42.3682L42.0519 35.3796C42.118 35.2495 42.1943 35.0989 42.2579 34.9507C42.5811 34.2361 42.81 33.4243 42.0671 32.8425L42.0035 32.7915L42.0671 32.7405C42.9677 32.0334 43.4104 31.3621 43.4205 30.6882C43.4307 30.0322 43.0389 29.3789 42.2224 28.6921L42.1588 28.6387L42.2249 28.5901C42.8151 28.1638 43.1 27.781 43.0949 27.4185C43.0898 27.1147 42.8736 26.8135 42.4487 26.5251L42.3801 26.4792L42.4411 26.4255C43.0873 25.8489 43.7487 25.157 43.7335 24.4067C43.7233 23.886 43.3951 23.3677 42.7311 22.8215L42.6828 22.7832L42.7209 22.7349C43.2323 22.071 43.764 21.3079 43.6241 20.6802C43.5503 20.3533 43.3035 20.0854 42.871 19.8657L42.7719 19.8147L42.8634 19.7534C43.4333 19.3833 43.8326 18.6917 43.937 17.9031C44.0362 17.1423 43.8378 16.4226 43.3926 15.9248L43.3493 15.8765L43.3976 15.833C43.8505 15.4399 43.9573 14.8733 43.6749 14.355C43.3722 13.7986 42.6064 13.3291 41.6423 13.6123L41.3599 13.6965L41.5838 13.5027C42.1689 12.9973 42.1765 12.3872 41.9399 12.0349C41.711 11.6956 41.1513 11.4529 40.3195 11.887L40.1897 11.9534L40.2278 11.8127C40.3652 11.3176 40.2177 10.7766 39.831 10.363C39.4189 9.92139 38.8185 9.72241 38.2664 9.83984L38.1876 9.85522L38.1876 9.77612C38.1952 9.15576 38.0604 8.73218 37.7805 8.52026C37.493 8.30078 37.0377 8.2854 36.3915 8.47681L36.3203 8.49731L36.3101 8.4231C36.1956 7.61914 35.7886 7.00415 35.1602 6.69263C34.5242 6.37622 33.7382 6.41455 33.0538 6.79736C32.7892 6.94531 32.545 7.14185 32.3288 7.37915C32.1075 7.62183 31.9192 7.90771 31.7665 8.22925L31.6393 8.49731L31.6445 8.20117C31.6622 7.23389 31.2476 6.61353 30.5378 6.54199C29.8586 6.47314 29.0165 6.97607 28.8461 7.90503L28.8104 8.09912L28.7265 7.92285C28.3983 7.23877 27.6758 6.75635 26.9254 6.72339C26.1953 6.69019 25.5618 7.06543 25.1395 7.77734L25.0632 7.90503L25.0225 7.76221C24.8419 7.12402 24.3737 6.69775 23.7988 6.64917C23.1475 6.59302 22.5167 7.03735 22.1528 7.80542L22.0918 7.93066L22.0358 7.80298C21.6771 6.98364 20.8707 6.42969 19.9269 6.36328C18.9118 6.28931 17.9781 6.77173 17.4338 7.65234L17.332 7.81836L17.3167 7.62427C17.2506 6.74634 16.7723 6.12085 16.0981 6.02905C15.4316 5.9397 14.8083 6.41699 14.5132 7.24658L14.4726 7.35889L14.4013 7.2644C13.4804 6.03149 12.0787 6.0647 11.1654 6.61865C10.2597 7.16992 9.6441 8.34912 10.3106 9.75049L10.3411 9.81689L10.2725 9.83984C9.71783 10.021 9.25739 10.4729 9.03864 11.0471C8.82495 11.6086 8.87329 12.2034 9.17346 12.7241L9.21924 12.8032L9.13019 12.8186C8.58325 12.9131 8.20166 13.3062 8.11005 13.8701C8.02106 14.4114 8.23981 14.9397 8.64178 15.1565L8.72827 15.2024L8.64941 15.2637C8.56036 15.3328 6.49719 16.9739 8.08209 19.6157L8.10498 19.6541L8.07703 19.6897C7.37994 20.5295 7.29089 21.4534 7.80988 22.5127L7.8277 22.5483L7.80225 22.5791C7.78699 22.5969 6.3089 24.4883 7.47156 26.635L7.5097 26.7039L7.43335 26.7268C6.78973 26.9131 6.3064 27.5334 6.28351 28.1995C6.26062 28.8123 6.61932 29.3022 7.26544 29.5422L7.35962 29.5754L7.28839 29.6467C6.81519 30.1216 6.56842 30.7468 6.62439 31.3186C6.67523 31.8164 6.94495 32.24 7.4054 32.5464L7.54785 32.6409L7.37738 32.6638C6.94495 32.72 6.55316 33.1794 6.40308 33.8074C6.23767 34.4915 6.35724 35.4255 7.18408 35.9946L7.20947 36.0127L7.60382 43.8308L7.58856 43.8486C6.86096 44.7878 6.97546 45.6277 7.93964 46.4189L7.97778 46.4521L7.9549 46.498C7.52753 47.3711 7.77173 48.2388 8.68243 49.0811L8.77911 49.1704L8.64941 49.1909C8.3161 49.2444 8.06171 49.459 7.9549 49.7778C7.84039 50.1174 7.90912 50.4978 8.12787 50.7275C8.26526 50.873 8.52222 51.0186 8.96228 50.8933L9.05389 50.8679L9.0437 50.9624C8.95978 51.7126 9.36682 52.7439 10.1071 53.0859C10.565 53.2979 11.3231 53.3181 12.3254 52.2334L12.3712 52.1848L12.4171 52.2334C13.0632 52.8867 13.6534 53.2034 14.2258 53.2034C14.2335 53.2034 14.2385 53.2034 14.2462 53.2034C14.7855 53.1956 15.307 52.9148 15.8438 52.3406L15.9073 52.2717L15.9481 52.356C16.1796 52.8511 16.7952 53.1907 17.5152 53.2212C18.1155 53.2468 18.6295 53.0425 18.8228 52.7031L18.8813 52.6011L18.9347 52.7056C19.1179 53.0603 19.4537 53.2722 19.8531 53.2876C20.3441 53.303 20.8173 53.0271 21.1149 52.5422L21.1683 52.4556L21.2243 52.5422C21.5347 53.0298 22.0918 53.3208 22.7888 53.3616C23.6436 53.4126 24.534 53.063 25.0021 52.4937L25.0453 52.4426L25.0937 52.4885C25.577 52.925 26.0299 53.1191 26.4446 53.0732C26.8592 53.0247 27.2561 52.7312 27.6249 52.2002L27.6809 52.1187L27.7318 52.2029C27.9735 52.6086 28.2482 52.8435 28.551 52.8997C28.8766 52.9609 29.2455 52.823 29.6729 52.4836L29.7339 52.4351L29.7695 52.5066C29.8713 52.6775 29.9908 52.8384 30.1384 52.9839Z" fill="#1B1B1B" fill-opacity="1.000000" fill-rule="nonzero"/>
	<path id="Vector" d="M31.6674 54.0864C30.8558 54.0864 30.085 53.7344 29.6042 53.1548C29.2073 53.3845 28.8334 53.4636 28.4721 53.3975C28.1796 53.3438 27.915 53.1931 27.6758 52.9507C27.3171 53.3184 26.9279 53.5276 26.5132 53.5735C26.0528 53.6272 25.5771 53.4766 25.0938 53.1294C24.4959 53.6348 23.6309 53.918 22.7686 53.8669C22.1453 53.8286 21.5958 53.6143 21.1913 53.262C20.8173 53.6143 20.3365 53.8108 19.8455 53.7957C19.4664 53.7827 19.1205 53.6399 18.8508 53.3999C18.5048 53.6296 18.0291 53.7522 17.505 53.7292C16.9504 53.7063 16.2864 53.5122 15.8362 53.0579C15.3274 53.4868 14.7982 53.7063 14.2615 53.7114C13.6407 53.7214 13.0276 53.4509 12.3891 52.897C11.2621 53.9282 10.3615 53.7625 9.90363 53.5505C9.11243 53.1855 8.63922 52.2742 8.54767 51.4473C8.24493 51.4219 7.97528 51.2966 7.76923 51.0798C7.41815 50.7097 7.30621 50.1353 7.48175 49.6121C7.56567 49.3594 7.71326 49.1475 7.90405 48.9868C7.15613 48.0703 7.15863 47.228 7.37488 46.5901C6.47687 45.7146 6.37762 44.6909 7.09253 43.6726L6.71851 36.2781C5.84338 35.5583 5.72131 34.4863 5.91461 33.6875C6.03674 33.1846 6.28094 32.7659 6.59644 32.4929C6.32928 32.1687 6.1665 31.7832 6.12579 31.3699C6.06982 30.8235 6.2301 30.2441 6.56335 29.7412C6.04437 29.3762 5.75946 28.8225 5.78235 28.1792C5.8078 27.4595 6.21735 26.8008 6.82538 26.4409C6.07745 24.6187 6.88135 23.0615 7.25024 22.4897C6.82281 21.4561 6.90936 20.4707 7.50208 19.6082C6.37762 17.4819 7.36218 15.9121 7.96252 15.2307C7.66235 14.8555 7.52496 14.3296 7.61401 13.7859C7.70813 13.2014 8.04138 12.7395 8.52222 12.4893C8.35175 11.9609 8.3645 11.3994 8.57056 10.8635C8.78424 10.3018 9.18622 9.83228 9.68738 9.54639C9.18622 8.04541 9.90106 6.79492 10.9084 6.18213C11.865 5.60034 13.2667 5.49048 14.348 6.44775C14.788 5.77905 15.4546 5.42676 16.172 5.52368C16.7189 5.59766 17.2939 5.9729 17.6042 6.66455C18.2428 6.08521 19.0772 5.79175 19.9702 5.85547C20.83 5.91675 21.5983 6.31738 22.1071 6.94287C22.5726 6.38379 23.1985 6.08789 23.8472 6.14404C24.389 6.18994 24.8571 6.4707 25.1777 6.91211C25.6636 6.43237 26.2843 6.18726 26.9534 6.21533C27.6072 6.24609 28.2253 6.53198 28.6833 6.98877C29.1361 6.3125 29.9222 5.96777 30.5938 6.03662C31.1204 6.09033 31.6649 6.38892 31.9523 7.04248C32.7435 6.16943 33.7941 5.87329 34.6387 6.00098C35.6512 6.15405 36.4144 6.85864 36.7147 7.87964C37.2972 7.77759 37.7501 7.85669 38.0909 8.11694C38.4191 8.36719 38.6124 8.75757 38.676 9.30127C39.2383 9.3269 39.7928 9.58203 40.2025 10.0186C40.5204 10.3579 40.7138 10.7664 40.7698 11.1875C41.5024 11.042 42.0723 11.3254 42.3597 11.7517C42.6192 12.1345 42.6625 12.5991 42.5098 13.0381C43.2603 13.135 43.8378 13.5972 44.1176 14.1152C44.4458 14.7175 44.3975 15.3862 44.0133 15.9121C44.3822 16.4863 44.5349 17.2139 44.4356 17.9719C44.3441 18.6663 44.054 19.3018 43.6241 19.7688C43.881 19.9985 44.0439 20.2666 44.1125 20.573C44.2754 21.2979 43.8556 22.0432 43.3672 22.7195C43.9396 23.2708 44.2245 23.8247 44.2347 24.4041C44.2499 25.1953 43.7437 25.877 43.1509 26.4614C43.4409 26.7576 43.5911 27.0791 43.5961 27.4211C43.6012 27.8447 43.3849 28.2583 42.9373 28.6719C43.6088 29.343 43.9294 30.012 43.9192 30.7036C43.9065 31.4309 43.5223 32.1304 42.749 32.8323C43.4078 33.7307 42.8813 34.8513 42.5353 35.5327L42.174 42.0874C42.9373 42.5571 43.3672 43.1187 43.4485 43.7593C43.535 44.4229 43.2552 45.1172 42.5989 45.865C43.1357 46.1765 43.4664 46.761 43.4868 47.5037C43.5096 48.3281 43.0898 49.2625 42.2707 49.5227C41.8229 50.3523 41.2786 50.8755 40.6527 51.0771C40.1846 51.2278 39.6758 51.2021 39.1365 50.998C38.9101 51.4089 38.6226 51.6924 38.2817 51.8455C37.9536 51.991 37.5847 52.0115 37.1777 51.9092C36.1626 53.1421 34.8983 52.7847 34.1351 52.4172C33.7509 53.3489 32.9801 53.9539 31.9981 54.0713C31.8912 54.0789 31.7793 54.0864 31.6674 54.0864ZM29.7263 52.0828C29.7594 52.0828 29.7899 52.0854 29.823 52.093C29.9528 52.1211 30.0647 52.208 30.1257 52.3303C30.4208 52.9202 31.1484 53.2722 31.8989 53.1804C32.6875 53.0859 33.2523 52.532 33.4482 51.6643C33.4787 51.5264 33.5754 51.4116 33.7051 51.3528C33.8348 51.2966 33.9849 51.3044 34.1071 51.3757C35.3384 52.093 36.0507 52.0242 36.6511 51.1309C36.7681 50.9573 36.9894 50.8884 37.1827 50.9648C37.4957 51.0874 37.7399 51.1052 37.9307 51.021C38.1571 50.9214 38.353 50.6587 38.5107 50.2424C38.5565 50.1226 38.6506 50.0281 38.7702 49.9849C38.8898 49.9387 39.022 49.949 39.134 50.0078C39.6199 50.2656 40.0295 50.3345 40.3882 50.2195C40.8232 50.0791 41.2251 49.6453 41.5813 48.928C41.6474 48.7954 41.7721 48.7061 41.9171 48.6855C42.3597 48.6218 42.6218 48.0322 42.6065 47.5217C42.5989 47.241 42.4996 46.5771 41.7492 46.511C41.5737 46.4956 41.4236 46.3782 41.3676 46.2097C41.3116 46.0437 41.3574 45.8574 41.4846 45.7375C42.2631 45.0127 42.6396 44.3643 42.576 43.8691C42.5226 43.4631 42.1664 43.0779 41.5126 42.7256C41.36 42.6438 41.2684 42.4805 41.2786 42.3069L41.6602 35.3848C41.6627 35.3235 41.6805 35.2622 41.7085 35.2061C42.2961 34.0549 42.3267 33.5342 41.8306 33.1438C41.7238 33.0596 41.6602 32.9292 41.6602 32.7915C41.6602 32.6536 41.7238 32.5234 41.8306 32.4392C42.6218 31.8164 43.0288 31.2244 43.039 30.6807C43.0466 30.1548 42.6905 29.5857 41.9781 28.9858C41.8738 28.8965 41.8153 28.7637 41.8204 28.626C41.8255 28.488 41.8942 28.3604 42.0061 28.2788C42.6294 27.8296 42.7184 27.5513 42.7184 27.4236C42.7159 27.2578 42.5455 27.051 42.2402 26.8418C42.1257 26.7651 42.0544 26.6375 42.0468 26.5022C42.0392 26.3645 42.0927 26.2317 42.1944 26.1399C43.0085 25.4124 43.3672 24.8813 43.357 24.4143C43.3494 24.0188 43.0593 23.5823 42.4946 23.1177C42.3088 22.9646 42.2783 22.6914 42.4233 22.5C42.7541 22.0713 43.3697 21.2698 43.2552 20.7617C43.2069 20.5525 43.0262 20.3687 42.7006 20.2029C42.5582 20.1313 42.4666 19.9883 42.4564 19.8276C42.4462 19.6667 42.5251 19.5161 42.6599 19.4294C43.1281 19.123 43.474 18.5183 43.563 17.8494C43.647 17.2012 43.4842 16.5911 43.1128 16.1802C43.0314 16.0908 42.9907 15.9734 42.9983 15.8535C43.0059 15.7334 43.0619 15.6211 43.1509 15.542C43.6038 15.1489 43.4359 14.7073 43.3442 14.5388C43.1128 14.1125 42.5175 13.7554 41.7543 13.98C41.5533 14.0386 41.337 13.9492 41.2379 13.7656C41.1386 13.5818 41.1793 13.3521 41.3396 13.2141C41.7466 12.8621 41.7747 12.4663 41.6296 12.2493C41.4439 11.9736 41.0013 11.9661 40.5001 12.2263C40.3423 12.3081 40.1516 12.2876 40.0142 12.1753C39.8768 12.063 39.8183 11.8794 39.8666 11.7083C39.9684 11.3433 39.8539 10.9375 39.5588 10.6235C39.2383 10.2788 38.7753 10.1206 38.3504 10.2126C38.2181 10.2407 38.0807 10.2075 37.9764 10.1206C37.8721 10.0339 37.8111 9.90625 37.8137 9.76831C37.8187 9.42896 37.778 8.98999 37.5593 8.82397C37.3786 8.68628 37.0148 8.69385 36.5086 8.8418C36.3839 8.87769 36.2516 8.85962 36.1423 8.78833C36.0328 8.71924 35.9616 8.60449 35.9438 8.47681C35.8192 7.59375 35.2823 6.99902 34.5141 6.88159C33.7357 6.76416 32.6951 7.1853 32.1227 8.39258C32.0337 8.58154 31.8226 8.68359 31.619 8.63501C31.4155 8.58667 31.2731 8.40283 31.2756 8.1936C31.2883 7.43555 31.011 6.97339 30.5124 6.92236C29.9985 6.87134 29.36 7.28223 29.2328 7.97412C29.1971 8.16553 29.0446 8.31104 28.8538 8.33643C28.663 8.36206 28.4772 8.26245 28.3932 8.08643C28.1262 7.52734 27.5334 7.13184 26.9203 7.10376C26.3377 7.07812 25.8264 7.38696 25.4778 7.97144C25.3863 8.12451 25.2133 8.20898 25.0378 8.18579C24.8622 8.16284 24.7147 8.0354 24.6663 7.86426C24.5289 7.37671 24.1957 7.06274 23.7785 7.0271C23.2798 6.98633 22.8067 7.33594 22.509 7.96631C22.4352 8.12451 22.2775 8.21899 22.0995 8.22168C21.924 8.21899 21.7687 8.1145 21.6975 7.95361C21.3973 7.2644 20.713 6.7998 19.9091 6.74121C19.0365 6.67993 18.2352 7.09351 17.767 7.85156C17.6653 8.01489 17.4694 8.09644 17.2837 8.05054C17.0955 8.00464 16.9606 7.84375 16.9454 7.6499C16.8919 6.96069 16.5434 6.4707 16.0575 6.4043C15.5767 6.34058 15.1162 6.71826 14.8822 7.37158C14.8262 7.52734 14.6914 7.63721 14.5286 7.6626C14.3657 7.68823 14.2029 7.61914 14.1063 7.48901C13.3278 6.44775 12.1448 6.47583 11.374 6.94287C10.6719 7.36914 10.0638 8.31616 10.6668 9.58203C10.7228 9.69702 10.7253 9.83228 10.6744 9.94971C10.6235 10.0671 10.5244 10.1589 10.4048 10.1973C9.96722 10.3401 9.58307 10.718 9.40753 11.1772C9.23706 11.6292 9.27521 12.1064 9.51691 12.5251C9.5907 12.6526 9.59576 12.8059 9.53473 12.9385C9.47369 13.0713 9.349 13.1658 9.20654 13.1887C8.65961 13.2832 8.52985 13.7349 8.49933 13.9238C8.43829 14.2991 8.57819 14.6743 8.83514 14.8096C8.96741 14.8809 9.05646 15.0164 9.06915 15.1667C9.08191 15.3174 9.01575 15.4656 8.89618 15.5574C8.81989 15.616 7.02124 17.071 8.42297 19.4089C8.51965 19.5723 8.50439 19.7791 8.38483 19.9246C7.78448 20.647 7.71576 21.4126 8.16858 22.334C8.24493 22.4897 8.22455 22.676 8.11517 22.8115C8.06177 22.8804 6.78723 24.5317 7.82263 26.446C7.88623 26.5662 7.89386 26.7065 7.84296 26.8315C7.79211 26.9565 7.68524 27.051 7.55548 27.0894C7.00092 27.25 6.69562 27.7734 6.68036 28.2073C6.6651 28.6514 6.92462 28.9961 7.41302 29.1772C7.55548 29.2307 7.66235 29.3508 7.69287 29.5015C7.72595 29.6494 7.68018 29.8052 7.5733 29.9124C7.18152 30.3054 6.97296 30.8159 7.01874 31.2754C7.05688 31.6606 7.26294 31.9773 7.63184 32.2222C7.78699 32.3245 7.86078 32.5132 7.82007 32.6946C7.77686 32.8757 7.62671 33.0134 7.44354 33.0366C7.17645 33.0723 6.90167 33.4297 6.78979 33.8889C6.65491 34.4504 6.74908 35.2112 7.41559 35.6707C7.53009 35.7498 7.60132 35.8774 7.60895 36.0151L8.00067 43.7798C8.0058 43.887 7.97272 43.9917 7.90656 44.0759C7.30872 44.8467 7.39526 45.4568 8.19659 46.1152C8.35687 46.248 8.40521 46.4727 8.3136 46.6589C8.08972 47.1133 7.91418 47.8279 8.95721 48.7927C9.08191 48.9077 9.13025 49.0862 9.08191 49.2498C9.03357 49.4131 8.89362 49.5354 8.72571 49.561C8.47894 49.5994 8.3772 49.7627 8.33142 49.8928C8.26276 50.0945 8.3009 50.3318 8.42047 50.457C8.51459 50.5564 8.66724 50.5793 8.87329 50.5208C9.01575 50.48 9.17096 50.5132 9.2829 50.6101C9.39734 50.707 9.45331 50.8525 9.43805 51.0007C9.36938 51.603 9.7179 52.4734 10.2827 52.7312C10.9059 53.0171 11.5928 52.4734 12.0609 51.9653C12.1423 51.8762 12.2593 51.825 12.3789 51.8225C12.501 51.8174 12.618 51.8684 12.702 51.9553C13.2719 52.532 13.7756 52.8127 14.2411 52.8127C14.2462 52.8127 14.2513 52.8127 14.2563 52.8127C14.6863 52.8079 15.1188 52.5652 15.5818 52.0701C15.6835 51.9629 15.8311 51.9119 15.9761 51.9348C16.1211 51.9578 16.2457 52.0522 16.3093 52.1851C16.5052 52.6035 17.0726 52.8103 17.5483 52.8308C17.9935 52.8486 18.3878 52.7158 18.5099 52.5039C18.5913 52.3635 18.744 52.2742 18.9067 52.2793C19.0696 52.282 19.2171 52.3765 19.2909 52.5193C19.4537 52.8333 19.731 52.8894 19.8837 52.8945C20.2372 52.9099 20.5858 52.6929 20.8046 52.333C20.8834 52.2029 21.0259 52.1211 21.1785 52.1187C21.3388 52.116 21.4762 52.1951 21.5576 52.3254C21.8857 52.8384 22.4912 52.9482 22.8245 52.9685C23.5648 53.0144 24.328 52.7209 24.7198 52.2385C24.7961 52.144 24.9106 52.0854 25.0302 52.0776C25.1522 52.0676 25.2718 52.1108 25.3608 52.1926C25.7577 52.5525 26.1113 52.7158 26.4115 52.6802C26.7117 52.647 27.0195 52.407 27.3248 51.9705C27.4113 51.8455 27.5563 51.7791 27.7064 51.7791C27.8565 51.7842 27.9964 51.866 28.0728 51.9961C28.2559 52.3022 28.4442 52.4758 28.6324 52.5117C28.8944 52.5601 29.2201 52.3535 29.449 52.1721C29.5279 52.116 29.6271 52.0828 29.7263 52.0828Z" fill="#1B1B1B" fill-opacity="1.000000" fill-rule="nonzero"/>
	<g opacity="0.300000">
		<g opacity="0.300000">
			<path id="Vector" d="M37.8264 36.4771C39.0399 36.1733 40.2076 35.77 41.1693 35.2314L41.1718 35.2314C41.5457 34.4021 41.6958 33.6235 40.9631 33.0466C42.5277 31.8188 42.9958 30.4763 41.1209 28.8989C42.1207 28.1792 42.4081 27.4543 41.3447 26.7292C42.66 25.5552 43.3596 24.4475 41.6297 23.0283C42.4285 21.9895 43.207 20.8 41.7569 20.0623C42.9322 19.2966 43.3113 17.2649 42.2962 16.1367C43.4716 15.1157 42.197 13.3035 40.4849 13.8088C41.6297 12.821 40.7723 11.2437 39.1493 12.0859C39.4673 10.9375 38.3047 9.78125 37.1141 10.0339C37.1345 8.54321 36.3509 8.34668 35.2366 8.67334C35.0535 7.38428 34.1554 6.70288 33.1607 6.6748C33.1174 6.69531 33.0742 6.71826 33.0309 6.74365L32.2881 7.33838C34.6846 6.83057 35.0305 8.09644 33.326 11.1389C34.0892 11.7771 33.9849 12.4739 33.1149 13.2244C35.14 14.5388 34.5269 15.9658 32.8605 17.4358C33.8069 18.217 33.9137 19.0771 32.5222 20.0701C33.1276 21.364 33.1938 22.5688 32.0134 23.5618C32.8859 24.2764 32.7892 24.9426 31.7997 25.5603C32.7969 27.199 32.8503 28.5952 31.3875 29.6008C32.0388 30.3997 31.965 31.0762 31.2603 31.6479C32.166 32.9548 32.1354 33.8328 31.2603 34.323C31.9472 35.1958 31.6979 36.1504 31.1026 37.1306C31.1026 37.1306 34.6464 37.1484 38.1215 36.4158C38.0248 36.4363 37.9256 36.4568 37.8264 36.4771Z" fill="#1B1B1B" fill-opacity="1.000000" fill-rule="nonzero"/>
		</g>
	</g>
	<path id="Vector" d="M45.3311 25.4634C44.2754 28.1306 41.7161 30.8821 39.3731 32.4724L34.9313 28.8171C35.4197 28.5261 35.8954 28.2124 36.3559 27.8728C36.3559 27.8704 36.3559 27.8704 36.3559 27.8704C37.7806 26.8135 39.0322 25.522 40.0422 24.062C40.5917 23.2656 41.0878 22.4055 41.851 21.8108C42.6065 21.2236 43.8607 21.2698 44.7053 21.7112C44.7791 21.7495 44.8503 21.7903 44.9164 21.8337C46.0358 22.5764 45.7636 24.3684 45.3311 25.4634Z" fill="#FFFFFF" fill-opacity="1.000000" fill-rule="nonzero"/>
	<path id="Vector" d="M34.8549 28.6897C35.206 28.2124 35.6156 27.8728 36.0328 27.5334C36.4449 27.1914 36.8672 26.8672 37.2743 26.52C37.6838 26.1755 38.0604 25.7927 38.4191 25.3945C38.7778 24.9963 39.1161 24.5828 39.4341 24.1489C39.7496 23.72 40.037 23.2605 40.3677 22.7935C40.6959 22.3291 41.0724 21.8618 41.5558 21.479C41.8204 21.2671 42.1384 21.1191 42.4487 21.0374C42.7642 20.9531 43.0822 20.9226 43.3951 20.9329C43.708 20.9431 44.0184 20.9915 44.3186 21.0808C44.6188 21.1702 44.9139 21.2952 45.1912 21.4841C45.4837 21.6782 45.7178 21.9666 45.8679 22.2727C46.0205 22.5791 46.0968 22.9033 46.1324 23.2197C46.1884 23.8503 46.1045 24.45 45.9467 25.0217C45.8679 25.3052 45.7661 25.5962 45.6491 25.854C45.5397 26.1218 45.41 26.3772 45.2828 26.6323C45.0131 27.1353 44.7205 27.6252 44.3975 28.0898C44.0743 28.5544 43.7335 29.0061 43.3646 29.4351C43.0034 29.8689 42.6166 30.2798 42.2198 30.678L41.9171 30.9741L41.6067 31.2625L40.991 31.8418C40.7773 32.0256 40.5535 32.1992 40.3016 32.3345C40.0523 32.4724 39.775 32.5718 39.4545 32.595C39.3604 32.6025 39.2789 32.531 39.2713 32.4341C39.2687 32.406 39.2739 32.3779 39.284 32.355L39.2866 32.3472C39.4163 32.0513 39.5919 31.8418 39.7775 31.6401C39.9684 31.4487 40.1668 31.2676 40.3805 31.1067C40.5891 30.9382 40.8104 30.7827 41.0038 30.5962C41.103 30.5044 41.2022 30.415 41.2989 30.3232L41.5863 30.0398C41.9654 29.6597 42.3343 29.2666 42.6777 28.8555C43.0262 28.4473 43.3519 28.0183 43.6572 27.5793C43.965 27.1404 44.2346 26.6809 44.4865 26.2163C44.6035 25.979 44.7256 25.7441 44.8223 25.5017C44.9342 25.2593 45.0131 25.0269 45.0818 24.7793C45.2192 24.2917 45.2828 23.7812 45.2395 23.3091C45.1886 22.8394 45.0106 22.4414 44.6798 22.2192C44.3211 21.9717 43.8301 21.8389 43.3595 21.8235C42.8863 21.8108 42.4182 21.9207 42.0977 22.1809C41.7161 22.4822 41.3904 22.8777 41.0851 23.3118C40.7799 23.7456 40.4822 24.2202 40.1439 24.6772C39.8081 25.134 39.4519 25.5732 39.0729 25.9917C38.6938 26.4128 38.2919 26.8086 37.8848 27.2017C37.4778 27.5947 37.0479 27.9673 36.5721 28.2788C36.1015 28.5928 35.5927 28.8606 34.9974 28.9424C34.9083 28.9551 34.8295 28.8938 34.8168 28.8044C34.8193 28.7661 34.8295 28.7229 34.8549 28.6897Z" fill="#1B1B1B" fill-opacity="1.000000" fill-rule="nonzero"/>
	<path id="Vector" d="M47.3053 40.1807C43.5427 42.0745 39.882 43.3967 35.8319 44.313C34.6515 44.4841 33.4711 44.6296 32.2932 44.752C32.2296 44.7598 32.1686 44.7649 32.105 44.7725C23.8141 45.6274 15.6251 45.3367 7.55042 43.8076C5.54321 42.4268 5.54321 37.5771 7.15863 36.0457C14.5693 37.6538 22.9517 37.9753 32.105 37.2761L32.1075 37.2734C33.0412 37.2019 33.9824 37.1204 34.9339 37.0286C42.9576 36.0457 47.7123 31.6479 47.7123 31.6479C48.59 32.7456 49.1141 37.7278 47.3053 40.1807Z" fill="#CA2C02" fill-opacity="1.000000" fill-rule="nonzero"/>
	<g opacity="0.550000">
		<g opacity="0.550000">
			<path id="Vector" d="M8.55786 43.9915C8.22205 43.9326 7.88623 43.8689 7.55042 43.8076C5.54321 42.4268 5.54321 37.5771 7.15863 36.0457C7.56824 36.135 7.98035 36.2192 8.39502 36.2983C8.38232 36.3213 8.37469 36.3442 8.36957 36.3699C8.35944 36.3672 8.34924 36.3647 8.34161 36.3647C6.77448 37.8477 6.7287 42.4548 8.55786 43.9915Z" fill="#FFFFFF" fill-opacity="1.000000" fill-rule="nonzero"/>
		</g>
	</g>
	<path id="Vector" d="M23.0204 45.6865C17.7391 45.6865 12.5417 45.2065 7.46899 44.2468C7.40796 44.2366 7.34943 44.2112 7.29858 44.1753C6.33698 43.5144 5.70856 42.1335 5.57373 40.3926C5.42114 38.4351 5.9248 36.5996 6.85339 35.7166C6.96021 35.6145 7.11029 35.5737 7.25281 35.6042C14.989 37.2837 24.2873 37.6106 34.8881 36.5793C42.6523 35.6299 47.3638 31.3569 47.4095 31.3162C47.5012 31.2319 47.6207 31.1885 47.7454 31.1987C47.8675 31.209 47.9819 31.2676 48.0583 31.3647C49.0809 32.6433 49.5592 37.8708 47.6614 40.4436C47.6207 40.4998 47.5648 40.5459 47.5037 40.5764C43.6877 42.4985 40.0091 43.8232 35.9286 44.7446C35.9158 44.7471 35.9056 44.7498 35.8929 44.7522C31.5656 45.3777 27.2663 45.6865 23.0204 45.6865ZM7.73108 43.3867C16.7469 45.0815 26.1749 45.2449 35.7505 43.8716C39.7166 42.9731 43.296 41.6892 47.0076 39.8286C48.4449 37.761 48.2084 33.8176 47.5927 32.332C46.2495 33.4246 41.7975 36.6328 34.9873 37.4675C24.2466 38.5142 15.1926 38.2078 7.31384 36.5308C6.69055 37.2864 6.3446 38.7949 6.46417 40.3213C6.57098 41.7251 7.04163 42.8608 7.73108 43.3867Z" fill="#1B1B1B" fill-opacity="1.000000" fill-rule="nonzero"/>
	<path id="Vector" d="M17.3091 60.623C16.3271 60.623 14.3352 59.7732 13.427 53.2822C13.3939 53.0374 13.5618 52.8127 13.806 52.7769C14.0503 52.7412 14.2742 52.9121 14.3098 53.1572C15.0093 58.1702 16.406 59.8293 17.388 59.7246C18.6014 59.5969 19.7844 56.9578 19.5427 53.3743C19.5249 53.1292 19.7106 52.9148 19.9574 52.897C20.2042 52.8816 20.4153 53.0654 20.4305 53.313C20.6951 57.2053 19.4003 60.4138 17.4821 60.6128C17.4286 60.6206 17.3702 60.623 17.3091 60.623Z" fill="#1B1B1B" fill-opacity="1.000000" fill-rule="nonzero"/>
	<path id="Vector" d="M31.8379 60.8093C30.6956 60.8093 28.813 59.6941 27.887 52.9426C27.8539 52.6978 28.0244 52.4731 28.2686 52.4399C28.5129 52.4067 28.7368 52.5776 28.7698 52.8228C29.5076 58.2007 30.9297 60.0054 31.9167 59.9136C33.1582 59.8013 34.7711 56.8379 34.5778 52.2688C34.5676 52.0212 34.7584 51.8145 35.0026 51.8044C35.2468 51.7942 35.4554 51.9856 35.4656 52.2307C35.6589 56.7664 34.1021 60.6128 31.9956 60.8042C31.9447 60.8069 31.8939 60.8093 31.8379 60.8093Z" fill="#1B1B1B" fill-opacity="1.000000" fill-rule="nonzero"/>
	<path id="Vector" d="M20.3441 28.3171C20.0999 28.5034 19.8404 28.6643 19.5707 28.7996C19.1128 29.0293 18.6168 29.1848 18.1054 29.2563C16.4772 29.481 15.1264 28.8608 14.3353 27.8779C13.4932 26.834 13.2846 25.3792 14.0503 24.0903C14.2869 23.6921 14.8008 23.585 15.1875 23.8325C16.2788 24.5293 17.762 24.2537 19.1433 23.3679C19.7411 22.9851 20.5222 22.9927 21.0793 23.4368C22.1249 24.2791 22.509 26.6682 20.3441 28.3171Z" fill="#1B1B1B" fill-opacity="1.000000" fill-rule="nonzero"/>
	<path id="Vector" d="M19.5707 28.7993C19.1128 29.0291 18.6167 29.1848 18.1054 29.2563C16.4772 29.481 15.1264 28.8606 14.3352 27.8779C15.6581 26.3364 18.3572 26.1985 19.5707 28.7993Z" fill="#CA2C02" fill-opacity="1.000000" fill-rule="nonzero"/>
	<path id="Vector" d="M17.4592 29.6851C15.9557 29.6851 14.5998 29.0037 13.8188 27.8193C13.0175 26.6069 12.9818 25.1418 13.7221 23.8962C13.8849 23.6204 14.147 23.4265 14.4599 23.3525C14.7753 23.2759 15.1162 23.3345 15.3935 23.5132C16.2916 24.0876 17.5839 23.9165 18.9373 23.0488C19.6877 22.5664 20.6443 22.6045 21.3134 23.1406C21.9341 23.6357 22.3131 24.5291 22.3004 25.4685C22.2852 26.6655 21.6746 27.7861 20.5756 28.6233C19.8607 29.167 19.0263 29.5193 18.1562 29.6367C17.9222 29.6699 17.6882 29.6851 17.4592 29.6851ZM14.7346 24.085C14.7015 24.085 14.666 24.0901 14.6329 24.0977C14.5235 24.1233 14.4319 24.1921 14.3759 24.2893C13.7908 25.2771 13.8188 26.4385 14.4548 27.3982C15.1926 28.5161 16.5714 29.0828 18.0545 28.8811C18.7922 28.7791 19.5046 28.4805 20.1151 28.0159C21.0208 27.3242 21.527 26.418 21.5397 25.4634C21.5474 24.7639 21.2726 24.0901 20.8401 23.7429C20.4255 23.4111 19.8251 23.3933 19.3494 23.697C17.7339 24.7334 16.144 24.9019 14.9839 24.1616C14.9051 24.1079 14.8211 24.085 14.7346 24.085Z" fill="#1B1B1B" fill-opacity="1.000000" fill-rule="nonzero"/>
	<path id="Vector" d="M23.9183 22.6123C23.7759 22.0659 23.7784 21.4509 24.0328 20.8638C24.1626 20.5754 24.3585 20.2947 24.6307 20.0776C24.9003 19.8582 25.2514 19.7048 25.6279 19.6897C26.0044 19.6616 26.3911 19.7891 26.6862 20.0112C26.9889 20.2334 27.1823 20.5474 27.2891 20.8586C27.3985 21.1726 27.4214 21.4917 27.3934 21.7903C27.3629 22.0889 27.2814 22.3696 27.1568 22.6301C27.1263 22.6965 27.0449 22.7246 26.9787 22.6938C26.9406 22.676 26.9151 22.6404 26.905 22.5994L26.9024 22.5918C26.849 22.3213 26.8109 22.0686 26.7447 21.8362C26.6785 21.604 26.592 21.3921 26.4852 21.2185C26.2664 20.8662 25.9789 20.6978 25.6686 20.708C25.3557 20.708 25.0123 20.9224 24.7553 21.2747C24.6255 21.4509 24.5136 21.6575 24.417 21.8821C24.3177 22.1094 24.2491 22.3545 24.1677 22.6147L24.1651 22.6223C24.1422 22.6914 24.0684 22.7295 23.9998 22.7065C23.959 22.6887 23.9285 22.6531 23.9183 22.6123Z" fill="#1B1B1B" fill-opacity="1.000000" fill-rule="nonzero"/>
	<g opacity="0.300000">
		<g opacity="0.300000">
			<g opacity="0.300000">
				<path id="Vector" d="M11.4783 48.3486C11.491 48.1445 11.5419 47.9402 11.6335 47.7412C11.7251 47.5447 11.8676 47.3582 12.0558 47.2102C12.244 47.0647 12.4807 46.9626 12.7325 46.937C12.9818 46.9089 13.2413 46.95 13.4702 47.0544C13.6992 47.1592 13.9001 47.3276 14.0427 47.5317C14.1876 47.7361 14.2716 47.9785 14.2919 48.2185C14.3123 48.4558 14.2716 48.6907 14.1876 48.8923C14.1037 49.0964 13.9841 49.2727 13.8365 49.4182C13.7959 49.4563 13.7348 49.4563 13.6941 49.4155C13.6712 49.3926 13.6636 49.3621 13.6661 49.334L13.6661 49.3289C13.6916 49.1348 13.7119 48.9587 13.7119 48.7903C13.7119 48.6218 13.6865 48.4685 13.6432 48.3333C13.5542 48.0627 13.3761 47.8638 13.1472 47.7463C12.9182 47.6389 12.6511 47.6238 12.389 47.7385C12.2593 47.7974 12.127 47.884 12.0074 48.0015C11.8853 48.1165 11.7759 48.2593 11.6564 48.4099L11.6538 48.415C11.6208 48.4585 11.5572 48.4661 11.5139 48.4329C11.491 48.4124 11.4758 48.3818 11.4783 48.3486Z" fill="#1B1B1B" fill-opacity="1.000000" fill-rule="nonzero"/>
			</g>
		</g>
	</g>
	<g opacity="0.300000">
		<g opacity="0.300000">
			<g opacity="0.300000">
				<path id="Vector" d="M10.2776 33.3809C10.2827 33.1716 10.3285 32.9624 10.42 32.7581C10.5117 32.554 10.6541 32.3625 10.85 32.2068C11.0433 32.0537 11.2901 31.949 11.5496 31.9209C11.8091 31.8904 12.0787 31.9336 12.3179 32.0435C12.557 32.1533 12.7631 32.3293 12.9106 32.5437C13.0607 32.7581 13.1447 33.0107 13.1599 33.2585C13.1777 33.5061 13.132 33.7461 13.0403 33.9502C12.9488 34.157 12.819 34.333 12.6613 34.4734C12.613 34.5168 12.5366 34.5117 12.4934 34.4631C12.4705 34.4377 12.4629 34.407 12.4654 34.3765L12.4654 34.3689C12.4807 34.1721 12.4959 33.9937 12.4883 33.8303C12.4832 33.6667 12.4527 33.5188 12.4069 33.3911C12.3127 33.136 12.1474 32.9597 11.9413 32.8501C11.7302 32.7505 11.4911 32.7275 11.2392 32.8271C11.1146 32.8782 10.9823 32.9573 10.8602 33.0669C10.7355 33.1768 10.6185 33.3096 10.4913 33.4575L10.4862 33.4626C10.4429 33.5112 10.3692 33.5164 10.3209 33.4753C10.2903 33.45 10.2776 33.4141 10.2776 33.3809Z" fill="#1B1B1B" fill-opacity="1.000000" fill-rule="nonzero"/>
			</g>
		</g>
	</g>
	<g opacity="0.300000">
		<g opacity="0.300000">
			<g opacity="0.300000">
				<path id="Vector" d="M24.6714 30.3027C24.5467 30.1343 24.4526 29.9404 24.3992 29.7258C24.3458 29.509 24.3381 29.269 24.3966 29.0266C24.4551 28.7866 24.5823 28.5493 24.7706 28.3655C24.9563 28.1816 25.1954 28.0464 25.4498 27.9851C25.7042 27.9238 25.9764 27.9341 26.2257 28.0107C26.475 28.0872 26.6989 28.2327 26.8617 28.4165C27.027 28.6003 27.139 28.8171 27.1949 29.0342C27.2509 29.2537 27.2585 29.4707 27.2178 29.6799C27.2051 29.7439 27.144 29.7871 27.0804 29.7744C27.0474 29.7693 27.022 29.7488 27.0042 29.7234L26.9991 29.7183C26.8896 29.5549 26.7905 29.4043 26.6836 29.2793C26.5768 29.1541 26.4623 29.0571 26.3478 28.9832C26.1163 28.8428 25.8798 28.8044 25.6483 28.8479C25.4218 28.8989 25.2183 29.0317 25.0809 29.2664C25.0123 29.3838 24.9588 29.5269 24.9308 29.6902C24.9003 29.8535 24.8901 30.0322 24.8825 30.2261L24.8825 30.2339C24.8799 30.2976 24.824 30.3486 24.7604 30.3462C24.7248 30.3462 24.6917 30.3284 24.6714 30.3027Z" fill="#1B1B1B" fill-opacity="1.000000" fill-rule="nonzero"/>
			</g>
		</g>
	</g>
	<g opacity="0.300000">
		<g opacity="0.300000">
			<g opacity="0.300000">
				<path id="Vector" d="M24.4832 13.717C24.4323 13.5154 24.4196 13.2983 24.4526 13.0789C24.4857 12.8594 24.5722 12.6321 24.7197 12.4331C24.8647 12.2339 25.0759 12.0654 25.3176 11.9685C25.5592 11.8689 25.8314 11.8384 26.0909 11.8818C26.3504 11.9226 26.5972 12.0374 26.7956 12.2034C26.9966 12.3694 27.1467 12.5889 27.2281 12.8235C27.312 13.0559 27.3298 13.301 27.2968 13.5229C27.2637 13.7451 27.1874 13.9519 27.0703 14.1279C27.0347 14.1841 26.9609 14.1995 26.905 14.1636C26.877 14.1458 26.8592 14.1177 26.8541 14.0872L26.8516 14.0793C26.8134 13.8855 26.7803 13.7092 26.7294 13.5537C26.6786 13.3979 26.6099 13.2627 26.5336 13.1528C26.3759 12.9333 26.1698 12.8083 25.9408 12.7573C25.7119 12.7163 25.4727 12.7598 25.2565 12.9258C25.1497 13.0073 25.0453 13.1196 24.9538 13.2576C24.8622 13.3953 24.7859 13.5562 24.7019 13.7322L24.6994 13.7373C24.6714 13.7961 24.6027 13.8215 24.5442 13.7935C24.5137 13.7783 24.4908 13.7476 24.4832 13.717Z" fill="#1B1B1B" fill-opacity="1.000000" fill-rule="nonzero"/>
			</g>
		</g>
	</g>
	<g opacity="0.300000">
		<g opacity="0.300000">
			<g opacity="0.300000">
				<path id="Vector" d="M19.9523 49.8059C19.9192 49.6042 19.9243 49.3923 19.9675 49.178C20.0134 48.9663 20.11 48.7517 20.2626 48.5654C20.4128 48.3792 20.6213 48.2285 20.8605 48.147C21.0971 48.0627 21.3591 48.0449 21.6059 48.0959C21.8527 48.147 22.0842 48.2644 22.2699 48.4329C22.4556 48.5986 22.593 48.8157 22.6642 49.0454C22.738 49.2725 22.7507 49.5098 22.7151 49.7268C22.6795 49.9438 22.6006 50.1428 22.4886 50.3188C22.4581 50.365 22.3971 50.3801 22.3513 50.3496C22.3259 50.3318 22.308 50.3037 22.3055 50.2756L22.3055 50.2705C22.2852 50.0764 22.2673 49.8977 22.2292 49.7344C22.191 49.571 22.1325 49.4255 22.0587 49.3032C21.9112 49.0581 21.6924 48.905 21.4456 48.8438C21.1989 48.79 20.9343 48.8359 20.7053 49.0071C20.5908 49.0938 20.484 49.2087 20.3924 49.3491C20.2983 49.4895 20.2245 49.6528 20.1406 49.8264L20.138 49.8315C20.1151 49.8799 20.0566 49.9028 20.0057 49.8799C19.9752 49.8645 19.9574 49.8364 19.9523 49.8059Z" fill="#1B1B1B" fill-opacity="1.000000" fill-rule="nonzero"/>
			</g>
		</g>
	</g>
	<g opacity="0.300000">
		<g opacity="0.300000">
			<g opacity="0.300000">
				<path id="Vector" d="M26.1317 34.9995C25.8671 34.8821 25.6204 34.6421 25.5364 34.2847C25.4957 34.1111 25.5033 33.9121 25.5669 33.7307C25.6305 33.5496 25.745 33.3838 25.8951 33.2637C26.1902 33.0161 26.6303 32.9548 26.9611 33.1079C27.2943 33.251 27.4952 33.542 27.5512 33.8354C27.5614 33.8916 27.5258 33.9478 27.4673 33.958C27.4444 33.9631 27.4215 33.958 27.4037 33.9504L27.3961 33.9478C27.2689 33.8892 27.162 33.833 27.0577 33.7971C26.9534 33.7615 26.8593 33.7437 26.7753 33.741C26.6074 33.7358 26.4802 33.7844 26.3708 33.8611C26.2665 33.9453 26.1851 34.0549 26.1597 34.2209C26.1292 34.3894 26.1801 34.6113 26.269 34.8667L26.2716 34.8718C26.2894 34.9253 26.2614 34.9841 26.208 35.0044C26.18 35.0095 26.1546 35.0095 26.1317 34.9995Z" fill="#1B1B1B" fill-opacity="1.000000" fill-rule="nonzero"/>
			</g>
		</g>
	</g>
	<g opacity="0.300000">
		<g opacity="0.300000">
			<g opacity="0.300000">
				<path id="Vector" d="M17.5406 15.9019C17.2761 15.7847 17.0293 15.5447 16.9453 15.1873C16.9046 15.0137 16.9122 14.8147 16.9758 14.6333C17.0394 14.4521 17.1539 14.2864 17.304 14.1663C17.5991 13.9187 18.0392 13.8574 18.3699 14.0105C18.7032 14.1536 18.9042 14.4446 18.9601 14.738C18.9703 14.7942 18.9347 14.8503 18.8762 14.8606C18.8533 14.8657 18.8304 14.8606 18.8126 14.853L18.8049 14.8503C18.6777 14.7917 18.5709 14.7356 18.4666 14.6997C18.3623 14.6614 18.2682 14.6462 18.1842 14.6436C18.0163 14.6384 17.8891 14.687 17.7797 14.7637C17.6754 14.8479 17.5941 14.9575 17.5686 15.1235C17.5381 15.292 17.5889 15.5139 17.6805 15.7693L17.683 15.7744C17.7009 15.8279 17.6729 15.8867 17.6194 15.907C17.5889 15.9148 17.5635 15.9121 17.5406 15.9019Z" fill="#1B1B1B" fill-opacity="1.000000" fill-rule="nonzero"/>
			</g>
		</g>
	</g>
	<g opacity="0.300000">
		<g opacity="0.300000">
			<g opacity="0.300000">
				<path id="Vector" d="M27.5486 49.7883C27.2841 49.6709 27.0373 49.4309 26.9533 49.0735C26.9126 48.8999 26.9202 48.7009 26.9838 48.5195C27.0474 48.3384 27.1619 48.1726 27.312 48.0525C27.6071 47.8049 28.0472 47.7437 28.378 47.8967C28.7112 48.0398 28.9122 48.3308 28.9682 48.6243C28.9784 48.6804 28.9427 48.7366 28.8842 48.7468C28.8613 48.752 28.8384 48.7468 28.8206 48.7393L28.813 48.7366C28.6858 48.678 28.579 48.6218 28.4747 48.5859C28.3704 48.5503 28.2762 48.5325 28.1923 48.5298C28.0244 48.5247 27.8972 48.5732 27.7878 48.6499C27.6835 48.7341 27.6021 48.8438 27.5766 49.0098C27.5461 49.1782 27.597 49.4001 27.686 49.6555L27.6885 49.6606C27.7064 49.7141 27.6783 49.7729 27.6249 49.7932C27.597 49.7983 27.5715 49.7983 27.5486 49.7883Z" fill="#1B1B1B" fill-opacity="1.000000" fill-rule="nonzero"/>
			</g>
		</g>
	</g>
	<path id="Vector" d="M9.94684 22.0405C9.80438 21.4941 9.80695 20.8792 10.0613 20.292C10.1911 20.0037 10.387 19.7229 10.6592 19.5059C10.9288 19.2864 11.2799 19.1331 11.6564 19.1179C12.0329 19.0898 12.4196 19.2173 12.7147 19.4395C13.0175 19.6616 13.2108 19.9756 13.3176 20.2869C13.427 20.6008 13.4499 20.9199 13.4219 21.2185C13.3914 21.5171 13.31 21.7979 13.1854 22.0583C13.1548 22.1248 13.0734 22.1528 13.0073 22.1221C12.9691 22.1042 12.9437 22.0686 12.9335 22.0276L12.931 22.02C12.8775 21.7495 12.8394 21.4993 12.7732 21.2644C12.7071 21.0322 12.6206 20.8203 12.5137 20.6467C12.2949 20.2944 12.0075 20.126 11.6971 20.1362C11.3842 20.1362 11.0408 20.3506 10.7838 20.7004C10.6541 20.8765 10.5421 21.0833 10.4455 21.3079C10.3463 21.5352 10.2776 21.78 10.1962 22.0405L10.1936 22.0481C10.1707 22.1169 10.0969 22.1553 10.0283 22.1323C9.99011 22.1196 9.95959 22.0837 9.94684 22.0405Z" fill="#1B1B1B" fill-opacity="1.000000" fill-rule="nonzero"/>
	<g opacity="0.300000">
		<g opacity="0.300000">
			<path id="Vector" d="M45.3311 25.4636C44.2753 28.1309 41.7161 30.8823 39.373 32.4724L34.9313 28.8174C35.4197 28.5264 35.8954 28.2124 36.3559 27.873C36.4068 27.9419 37.9917 30.0886 40.4975 28.8735C43.2119 26.9236 44.4381 23.4905 44.4839 21.77L44.7103 21.7114C44.7841 21.7498 44.8553 21.7905 44.9214 21.834C46.0357 22.5767 45.7635 24.3684 45.3311 25.4636Z" fill="#1B1B1B" fill-opacity="1.000000" fill-rule="nonzero"/>
		</g>
	</g>
	<g opacity="0.300000">
		<g opacity="0.300000">
			<path id="Vector" d="M46.5446 32.5669C46.0027 32.9575 45.2776 33.4373 44.3796 33.9402C42.2579 35.3081 38.5742 37.1919 33.6592 37.7942C33.4048 37.8198 33.153 37.8403 32.9012 37.8633C34.1426 39.5964 33.8654 44.3975 32.2932 44.7522C33.4684 44.6296 34.6514 44.4844 35.8318 44.3132C39.4774 43.4888 42.8074 42.3352 46.1807 40.7295C47.7427 38.3149 47.3332 33.8738 46.5446 32.5669Z" fill="#1B1B1B" fill-opacity="1.000000" fill-rule="nonzero"/>
		</g>
	</g>
	<g opacity="0.300000">
		<g opacity="0.300000">
			<path id="Vector" d="M39.8259 50.7043C40.1414 50.4441 40.4365 50.0535 40.7087 49.5073C42.0443 49.3159 42.2986 46.6025 40.5179 46.4443C42.0264 45.0378 42.1588 43.8918 40.9198 42.9985L31.759 44.9155C31.7488 44.9001 31.7361 44.8848 31.7234 44.8669C32.3416 45.6887 32.2296 46.5132 31.3825 47.3352C31.8353 47.8508 31.5631 48.259 31.1052 48.6421C31.7437 49.3262 31.8175 49.9771 31.1052 50.5869C32.6112 52.2537 31.8989 52.8943 30.113 53.0374C31.179 54.0454 33.4024 53.8721 33.8832 51.7561C35.0712 52.4478 36.1702 52.6392 37.0199 51.373C37.8365 51.6948 38.5081 51.4956 38.9279 50.3955C39.457 50.6763 39.9582 50.781 40.4238 50.666C40.2304 50.7197 40.0294 50.73 39.8259 50.7043Z" fill="#1B1B1B" fill-opacity="1.000000" fill-rule="nonzero"/>
		</g>
	</g>
	<g opacity="0.300000">
		<g opacity="0.300000">
			<path id="Vector" d="M15.4011 58.6477C17.3295 59.0715 18.5098 54.4414 17.0878 53.2876L19.9854 53.3462C20.3669 58.9414 17.4643 62.3105 15.4011 58.6477Z" fill="#1B1B1B" fill-opacity="1.000000" fill-rule="nonzero"/>
		</g>
	</g>
</svg>
