<svg width="64.000000" height="64.000000" viewBox="0 0 64 64" fill="none" xmlns="http://www.w3.org/2000/svg" xmlns:xlink="http://www.w3.org/1999/xlink">
	<desc>
			Created with Pixso.
	</desc>
	<defs/>
	<rect id="ill roll 5" width="64.000000" height="64.000000" fill="#FFFFFF" fill-opacity="0"/>
	<path id="Vector" d="M59.3389 34.0908L50.6594 36.3828C50.0954 36.5308 49.5705 36.8003 49.1213 37.1719C48.672 37.5435 48.3091 38.0083 48.0579 38.5342L45.2272 44.4395L44.0634 46.8691C43.8471 47.3262 43.5082 47.7148 43.0845 47.9912C42.0602 48.6582 40.6411 48.6069 39.6649 47.6831L33.8703 42.1992C33.5207 41.8687 33.0925 41.6323 32.6262 41.5132C32.1598 41.394 31.6707 41.3955 31.2052 41.5181L22.4946 43.8188C21.9888 43.9526 21.4605 43.978 20.9442 43.894C20.4279 43.8096 19.9352 43.6177 19.4982 43.3301C19.0612 43.043 18.6897 42.667 18.408 42.2266C18.1263 41.7861 17.9408 41.291 17.8635 40.7744L14.5943 18.9131C14.4598 18.0132 14.6624 17.0952 15.1633 16.335C15.6641 15.5747 16.4281 15.0254 17.3089 14.793L55.1448 4.80273C55.509 4.70703 55.8892 4.68896 56.2607 4.74951C56.6323 4.81055 56.9869 4.94873 57.3013 5.15576C57.6157 5.36279 57.8829 5.63379 58.0856 5.95068C58.2883 6.26758 58.4218 6.62402 58.4774 6.99561L61.9404 30.144C62.0686 31.0063 61.8742 31.8853 61.3943 32.6138C60.9143 33.3418 60.1826 33.8677 59.3389 34.0908Z" fill="#FFFFFF" fill-opacity="1.000000" fill-rule="nonzero"/>
	<path id="Vector" d="M41.5679 48.521C40.8396 48.5205 40.1392 48.2407 39.6117 47.7393L33.817 42.2554C33.4763 41.9351 33.0598 41.7065 32.6066 41.5908C32.1534 41.4751 31.6783 41.4761 31.2256 41.5938L22.5151 43.8945C21.9985 44.0312 21.4589 44.0571 20.9315 43.9707C20.4042 43.8848 19.901 43.6885 19.4548 43.395C19.0086 43.1011 18.6294 42.7168 18.342 42.2666C18.0546 41.8169 17.8654 41.311 17.7869 40.7832L14.5177 18.9224C14.3793 18.0029 14.5857 17.0654 15.0972 16.2891C15.6087 15.5127 16.3893 14.9521 17.2891 14.7158L55.125 4.72754C55.5449 4.61572 55.9855 4.60596 56.41 4.69873C56.9486 4.81494 57.44 5.08984 57.8209 5.48779C58.2156 5.89746 58.4718 6.42041 58.5534 6.9834L62.0164 30.1313C62.1483 31.0127 61.95 31.9111 61.4594 32.6558C60.9689 33.3999 60.2207 33.937 59.3582 34.1641L50.679 36.4575C50.1258 36.603 49.611 36.8672 49.1704 37.2314C48.7298 37.5957 48.374 38.0518 48.1279 38.5674L45.2969 44.4727L44.1334 46.9028C43.9023 47.3867 43.5387 47.7954 43.0847 48.0815C42.6307 48.3677 42.1048 48.52 41.5679 48.5195L41.5679 48.521ZM31.9172 41.3477C32.6629 41.3472 33.3806 41.6313 33.9236 42.1416L39.7183 47.626C40.0256 47.918 40.3978 48.1328 40.8044 48.2534C41.2111 48.374 41.6405 48.397 42.0576 48.3198C42.4747 48.2427 42.8676 48.0679 43.2041 47.8101C43.5406 47.5522 43.8112 47.2183 43.9938 46.8359L45.1573 44.4058L47.988 38.501C48.2438 37.9648 48.6135 37.4907 49.0715 37.1118C49.5294 36.7334 50.0646 36.459 50.6395 36.3076L59.319 34.0156C60.1448 33.7983 60.8611 33.2842 61.3307 32.5713C61.8004 31.8589 61.9902 30.9985 61.8638 30.1548L58.4008 7.00684C58.3214 6.48535 58.0854 6 57.7242 5.61475C57.3629 5.22949 56.8932 4.96289 56.3772 4.84961C55.9764 4.7627 55.5607 4.77246 55.1644 4.87842L17.3288 14.8662C16.4659 15.0933 15.7173 15.6304 15.2267 16.375C14.7362 17.1196 14.5383 18.019 14.6711 18.9004L17.9404 40.7617C18.0161 41.2676 18.1978 41.7524 18.4735 42.1836C18.7493 42.6147 19.113 42.9829 19.541 43.2646C19.9689 43.5459 20.4514 43.7339 20.9569 43.8164C21.4625 43.8984 21.9798 43.8735 22.475 43.7427L31.1856 41.4419C31.4244 41.3789 31.6703 41.3477 31.9172 41.3477Z" fill="#1B1B1B" fill-opacity="1.000000" fill-rule="nonzero"/>
	<g opacity="0.350000">
		<g opacity="0.350000">
			<path id="Vector" d="M45.2273 44.439L44.0635 46.8687C43.8472 47.3262 43.5083 47.7144 43.0845 47.9907C42.7201 48.0029 42.3569 47.9424 42.0163 47.812C41.6757 47.6821 41.3646 47.4854 41.1012 47.2334L35.3065 41.75C34.957 41.4194 34.5289 41.1831 34.0626 41.064C33.5963 40.9448 33.1072 40.9463 32.6417 41.0688L23.9308 43.3701C23.4249 43.5034 22.8964 43.5288 22.38 43.4443C21.8635 43.3604 21.3707 43.168 20.9337 42.8804C20.4966 42.5928 20.1252 42.2163 19.8438 41.7754C19.5623 41.335 19.377 40.8398 19.3 40.3228L16.1733 19.4126C16.1445 18.0239 16.4409 17.0371 17.1754 16.3491C17.4788 16.0645 17.9767 16.2339 18.0392 16.645L21.0538 36.8135C21.1312 37.3306 21.3168 37.8252 21.5986 38.2656C21.8804 38.7061 22.252 39.0825 22.6892 39.3696C23.1263 39.6567 23.6193 39.8486 24.1357 39.9326C24.6522 40.0166 25.1805 39.9912 25.6864 39.8574L34.397 37.5562C34.8624 37.4336 35.3514 37.4321 35.8178 37.5513C36.2841 37.6704 36.7123 37.9062 37.0618 38.2368L42.8564 43.7207C43.1675 44.0181 43.5441 44.2378 43.9561 44.3628C44.3679 44.4873 44.8034 44.5137 45.2273 44.439Z" fill="#1B1B1B" fill-opacity="1.000000" fill-rule="nonzero"/>
		</g>
	</g>
	<g opacity="0.350000">
		<g opacity="0.350000">
			<path id="Vector" d="M59.1019 34.104L59.1002 34.104L50.4199 36.3965C49.5189 36.6343 48.7286 37.1777 48.1841 37.9331L48.5405 37.1904L49.5722 35.0371C49.8235 34.5112 50.1863 34.0464 50.6356 33.6753C51.0848 33.3037 51.6097 33.0342 52.1737 32.8857L60.1808 30.771C60.2368 30.7559 60.2953 30.7539 60.3521 30.7646C60.4089 30.7759 60.4625 30.7993 60.5088 30.834C60.5551 30.8687 60.5929 30.9136 60.6193 30.9648C60.6458 31.0166 60.6602 31.0732 60.6614 31.1309C60.6671 31.7168 60.5276 32.2944 60.2556 32.813C59.9835 33.332 59.5872 33.7754 59.1019 34.104Z" fill="#1B1B1B" fill-opacity="1.000000" fill-rule="nonzero"/>
		</g>
	</g>
	<path id="Vector" d="M56.3936 4.77441C55.981 4.68506 55.553 4.69482 55.1448 4.80322L17.3104 14.7915C16.598 14.979 15.9579 15.375 15.4724 15.9287C14.9868 16.4819 14.6778 17.168 14.5851 17.8979C14.5414 18.2349 14.545 18.5757 14.5957 18.9116L17.8649 40.7725C17.9554 41.3843 18.1975 41.9634 18.5694 42.458C18.9412 42.9521 19.4309 43.3452 19.9939 43.6021L8.48517 39.6191L8.45898 39.6113C7.78345 39.4077 7.17975 39.0166 6.71832 38.4829C6.2569 37.9497 5.95679 37.2964 5.85291 36.5991L2.58368 14.7383C2.53784 14.4351 2.53052 14.127 2.56183 13.8218C2.6377 13.0732 2.94012 12.3657 3.42883 11.793C3.91748 11.2207 4.56927 10.8105 5.29718 10.6177L43.1351 0.630859C43.585 0.51123 44.0584 0.511719 44.508 0.632324L44.5236 0.636719L44.8875 0.763672L44.8953 0.768555L56.3936 4.77441Z" fill="#1B1B1B" fill-opacity="1.000000" fill-rule="nonzero"/>
	<g opacity="0.550000">
		<g opacity="0.550000">
			<path id="Vector" d="M56.3744 4.83252C55.9616 4.74316 55.5335 4.75293 55.1253 4.86084L53.7326 5.22803L44.8763 2.14307L44.8685 2.13867L44.5043 2.01172L44.4891 2.00684C44.0395 1.88623 43.5661 1.88574 43.1162 2.00537L5.27881 11.9927C4.59766 12.1733 3.98218 12.5439 3.50446 13.0615C3.02673 13.5791 2.70654 14.2222 2.58148 14.915L2.56421 14.7974C2.51843 14.4941 2.51117 14.186 2.5426 13.8809C2.61835 13.1323 2.92078 12.4248 3.40948 11.8525C3.89819 11.2798 4.54999 10.8696 5.27795 10.6768L43.1153 0.688965C43.5652 0.569336 44.0386 0.569824 44.4882 0.69043L44.5034 0.695312L44.8677 0.821777L44.8754 0.82666L56.3744 4.83252Z" fill="#FFFFFF" fill-opacity="1.000000" fill-rule="nonzero"/>
		</g>
	</g>
	<path id="Vector" d="M40.9468 48.3701L33.2933 47.2222C32.195 47.0571 31.1841 46.5283 30.4229 45.7207L27.4067 42.52L31.3874 41.6011C31.8418 41.4961 32.3147 41.501 32.7668 41.6152C33.2191 41.729 33.6376 41.9492 33.9877 42.2568L40.9468 48.3701Z" fill="#1B1B1B" fill-opacity="1.000000" fill-rule="nonzero"/>
	<g opacity="0.350000">
		<g opacity="0.350000">
			<path id="Vector" d="M39.1861 46.8232L34.1058 46.0615C33.0073 45.897 31.9961 45.3682 31.2348 44.5601L28.9725 42.1597L31.3866 41.6025C31.8411 41.4976 32.3141 41.502 32.7665 41.6157C33.2188 41.7295 33.6376 41.9492 33.988 42.2568L39.1861 46.8232Z" fill="#1B1B1B" fill-opacity="1.000000" fill-rule="nonzero"/>
		</g>
	</g>
	<path id="Vector" d="M41.555 48.9829C40.7113 48.9834 39.9002 48.6577 39.2913 48.0742L33.4966 42.5903C33.2136 42.3242 32.8677 42.1338 32.4911 42.0376C32.1146 41.9414 31.7198 41.9424 31.3437 42.0405L22.6326 44.3398C21.6865 44.5894 20.6833 44.5063 19.7912 44.1045L8.31616 40.1333L8.2998 40.1284C7.52637 39.895 6.83527 39.4473 6.30707 38.8364C5.77893 38.2256 5.43549 37.4775 5.31677 36.6792L2.047 14.8184C1.89185 13.7861 2.12372 12.7334 2.69812 11.8613C3.27252 10.9897 4.14899 10.3604 5.1593 10.0947L42.9961 0.107422C43.5373 -0.0361328 44.1068 -0.0356445 44.6476 0.108887L44.6699 0.115234L44.6863 0.120605L44.7018 0.125488L45.0654 0.251953C45.0776 0.256348 45.0899 0.26123 45.1017 0.266113L56.5428 4.25195C57.1588 4.39209 57.7201 4.70996 58.1569 5.16553C58.6181 5.64502 58.9177 6.25684 59.0139 6.91455L62.4765 30.063C62.6259 31.0571 62.4024 32.0718 61.849 32.9116C61.2956 33.7515 60.4513 34.3574 59.478 34.6133L50.7977 36.9058C50.3097 37.0337 49.8555 37.2666 49.4669 37.5884C49.0782 37.9097 48.7643 38.312 48.5472 38.7666L44.5535 47.1025C44.3304 47.5742 43.9976 47.9858 43.5828 48.3032C43.168 48.6201 42.6833 48.834 42.1691 48.9258C41.9666 48.9634 41.761 48.9829 41.555 48.9829ZM31.9262 40.8813C32.788 40.8813 33.6171 41.2114 34.2426 41.8037L40.0375 47.2876C40.2921 47.5288 40.6 47.7065 40.9363 47.8062C41.2726 47.9058 41.6277 47.9243 41.9727 47.8608C42.3176 47.7974 42.6426 47.6533 42.9211 47.4399C43.1997 47.2271 43.4239 46.9512 43.5754 46.6353L47.5693 38.2998C47.8542 37.7031 48.266 37.1758 48.7758 36.7539C49.2857 36.3325 49.8814 36.0269 50.5215 35.8589L59.2018 33.5664C59.9169 33.3784 60.5372 32.9331 60.9437 32.3159C61.3502 31.6992 61.5143 30.9541 61.4045 30.2236L57.9421 7.07471C57.8766 6.64648 57.6826 6.24805 57.3859 5.93164C57.0892 5.61572 56.7036 5.39697 56.2799 5.30371C56.2584 5.29932 56.2371 5.29346 56.2162 5.28613L44.7173 1.2793C44.7053 1.2749 44.6932 1.27002 44.6813 1.26514L44.356 1.15234C44.0015 1.05957 43.6292 1.06055 43.2751 1.1543L5.43774 11.1426C4.68567 11.3403 4.03326 11.8086 3.60571 12.4575C3.17822 13.1064 3.00568 13.8901 3.12128 14.6582L6.3902 36.5195C6.48102 37.1143 6.73828 37.6714 7.13226 38.1265C7.52625 38.5815 8.04095 38.916 8.61707 39.0918L8.64587 39.1006L8.66376 39.106L20.1719 43.0894C20.1887 43.0947 20.2053 43.1016 20.2214 43.1089C20.8905 43.4155 21.6454 43.4805 22.357 43.2925L31.0679 40.9932C31.348 40.9189 31.6365 40.8818 31.9262 40.8813Z" fill="#1B1B1B" fill-opacity="1.000000" fill-rule="nonzero"/>
	<path id="Vector" d="M40.9468 48.9121C40.9196 48.9121 40.8925 48.9102 40.8656 48.9058L33.212 47.7578C31.9941 47.5732 30.873 46.9868 30.0272 46.0923L27.0108 42.8911C26.9601 42.8398 26.9203 42.7788 26.8935 42.7119C26.8668 42.6445 26.8537 42.5728 26.8551 42.501C26.8564 42.4287 26.8723 42.3574 26.9016 42.2915C26.9308 42.2256 26.973 42.166 27.0256 42.1167C27.0782 42.0669 27.1402 42.0288 27.2079 42.0034C27.2756 41.978 27.3477 41.9668 27.4199 41.9697C27.4921 41.9727 27.5629 41.9902 27.6284 42.021C27.6937 42.0513 27.7523 42.0947 27.8007 42.1484L30.8167 45.3496C31.4956 46.0679 32.3954 46.5386 33.373 46.6865L41.0266 47.8345C41.1622 47.8545 41.2852 47.9248 41.3708 48.0317C41.4565 48.1387 41.4986 48.2739 41.4885 48.4102C41.4784 48.5469 41.4169 48.6743 41.3164 48.7676C41.2159 48.8608 41.0839 48.9121 40.9468 48.9121Z" fill="#1B1B1B" fill-opacity="1.000000" fill-rule="nonzero"/>
	<path id="Vector" d="M19.9927 44.1436C19.9147 44.1436 19.8376 44.1265 19.7667 44.0938C19.1216 43.7993 18.5605 43.3486 18.1345 42.7827C17.7084 42.2163 17.431 41.5522 17.3273 40.8516L14.0584 18.9907C13.9025 17.9585 14.134 16.9048 14.7086 16.0332C15.2831 15.1611 16.16 14.5322 17.1707 14.2671L55.0052 4.2793C55.4965 4.14795 56.0123 4.13623 56.5091 4.24561C56.58 4.25928 56.6475 4.28711 56.7076 4.32715C56.7676 4.36719 56.8191 4.41895 56.8589 4.47949C56.8987 4.53955 56.926 4.60693 56.9392 4.67822C56.9525 4.74902 56.9514 4.82178 56.936 4.89258C56.9207 4.96289 56.8914 5.02979 56.8498 5.08887C56.8083 5.14795 56.7553 5.19824 56.6941 5.23633C56.6328 5.2749 56.5646 5.30029 56.4932 5.31201C56.4219 5.32373 56.3489 5.3208 56.2787 5.30371C55.9501 5.23193 55.6089 5.23975 55.2839 5.32666L17.4494 15.3145C16.6971 15.5117 16.0444 15.98 15.6167 16.6289C15.189 17.2778 15.0167 18.062 15.1327 18.8301L18.4019 40.6914C18.4793 41.2134 18.6863 41.708 19.0041 42.1304C19.3218 42.5522 19.7402 42.8882 20.2211 43.1074C20.3342 43.1587 20.4263 43.2471 20.482 43.3579C20.5377 43.4688 20.5536 43.5957 20.5271 43.7168C20.5006 43.8379 20.4332 43.9463 20.3363 44.0239C20.2393 44.1016 20.1187 44.1436 19.9944 44.1431L19.9927 44.1436Z" fill="#1B1B1B" fill-opacity="1.000000" fill-rule="nonzero"/>
	<path id="Vector" d="M43.711 33.5522C43.3766 34.0132 42.8898 34.3418 42.3367 34.4795C41.7836 34.6172 41.1995 34.5552 40.6877 34.3042L34.3903 31.2266C21.8873 25.064 33.4839 13.2705 39.4384 21.4668C40.9318 14.8115 47.6913 15.147 49.6888 19.9619C50.5797 22.1074 50.2283 24.5698 48.8635 26.4507L43.711 33.5522Z" fill="#E07153" fill-opacity="1.000000" fill-rule="nonzero"/>
	<g opacity="0.300000">
		<g opacity="0.300000">
			<path id="Vector" d="M43.3246 33.9692L41.9022 35.9292C41.5673 36.3896 41.0806 36.7178 40.5276 36.8555C39.9747 36.9927 39.3909 36.9312 38.8789 36.6812L32.582 33.6011C25.424 30.0737 26.1646 24.7012 29.223 22.2896C28.1168 24.9751 29.0805 28.6079 34.3903 31.2251L40.6868 34.3032C41.111 34.5107 41.5869 34.5903 42.0557 34.5308C42.5245 34.4717 42.9656 34.2764 43.3246 33.9692Z" fill="#1B1B1B" fill-opacity="1.000000" fill-rule="nonzero"/>
		</g>
	</g>
	<g opacity="0.300000">
		<g opacity="0.300000">
			<path id="Vector" d="M48.865 26.4497L43.7109 33.5513C43.3766 34.0127 42.8898 34.3408 42.3367 34.4785C41.7836 34.6162 41.1995 34.5542 40.6877 34.3037L34.3911 31.2256C29.5599 28.8457 28.3267 25.624 28.9756 23.04C29.4577 24.9873 31.0776 27.0146 34.3909 28.6489L40.6874 31.7271C41.1993 31.9775 41.7834 32.0396 42.3367 31.9019C42.8899 31.7642 43.3766 31.4355 43.7109 30.9741L48.865 23.8711C49.4534 23.062 49.8589 22.1348 50.0536 21.1533C50.4198 22.9814 49.9822 24.9097 48.865 26.4497Z" fill="#1B1B1B" fill-opacity="1.000000" fill-rule="nonzero"/>
		</g>
	</g>
	<g opacity="0.550000">
		<g opacity="0.550000">
			<path id="Vector" d="M50.1319 23.2305C50.0614 22.6519 49.9124 22.0854 49.6888 21.5464C47.8201 17.0459 41.7899 16.4595 39.7931 21.8433C39.7518 21.9551 39.6828 22.0542 39.5926 22.1323C39.5024 22.21 39.3939 22.2637 39.2773 22.2881C39.1606 22.3125 39.0397 22.3071 38.9258 22.2725C38.8119 22.2373 38.7086 22.1743 38.6258 22.0889C34.8276 18.229 29.4966 21.0337 28.8761 25.1235C28.0889 19.9355 35.1959 15.626 39.438 21.4663C40.9316 14.8105 47.6902 15.1465 49.6885 19.96C50.1154 20.9941 50.2681 22.1206 50.1319 23.2305Z" fill="#FFFFFF" fill-opacity="1.000000" fill-rule="nonzero"/>
		</g>
	</g>
	<g opacity="0.350000">
		<g opacity="0.350000">
			<path id="Vector" d="M17.5179 42.7456L8.48517 39.6191L8.45898 39.6113C7.78345 39.4077 7.17975 39.0166 6.71832 38.4829C6.2569 37.9497 5.95679 37.2964 5.85291 36.5991L2.58368 14.7383C2.53784 14.4351 2.53052 14.127 2.56183 13.8218L5.77661 14.9116L11.2646 16.7715C11.4431 16.8325 11.6234 16.8896 11.8007 16.9536C12.0714 17.0508 12.254 17.2412 12.4377 17.4629C13.2969 18.4985 13.3063 20.1094 13.4998 21.4033C13.7204 22.8779 13.9412 24.3525 14.1621 25.8271L14.9456 31.0659C15.1917 32.7119 15.4377 34.3574 15.6838 36.0034L16.2101 39.5225C16.2624 39.8706 16.3144 40.2183 16.3662 40.5659C16.4885 41.4028 16.8952 42.1724 17.5179 42.7456Z" fill="#1B1B1B" fill-opacity="1.000000" fill-rule="nonzero"/>
		</g>
	</g>
	<path id="Vector" d="M32.0595 19.0483C32.288 19.2427 32.4998 19.4556 32.6929 19.6846L32.7643 19.771C32.7883 19.7998 32.8116 19.8286 32.8335 19.8574L32.967 20.0337L33.0926 20.2148C33.1346 20.2749 33.1715 20.3379 33.2112 20.3994C33.3646 20.646 33.5026 20.9023 33.6241 21.1665C33.7435 21.4287 33.8486 21.6978 33.9388 21.9717C34.0279 22.2437 34.1016 22.52 34.1594 22.8003C34.1882 22.939 34.217 23.0771 34.2386 23.2158L34.2734 23.4243L34.3022 23.6323C34.3777 24.188 34.4174 24.7422 34.4462 25.293C34.4995 26.394 34.506 27.4854 34.6376 28.5654C34.7719 29.6504 35.0382 30.7144 35.4309 31.7349C34.9637 30.7358 34.6202 29.6841 34.4082 28.6021C34.1974 27.5161 34.1127 26.4136 33.9832 25.332C33.9178 24.791 33.8392 24.2549 33.731 23.7305L33.6895 23.5337L33.6426 23.3394C33.6138 23.209 33.5757 23.0806 33.5403 22.9536L33.5135 22.8579L33.4848 22.7642C33.4644 22.7021 33.4468 22.6387 33.4237 22.5776L33.3581 22.3926L33.2861 22.2104C33.1873 21.9697 33.0754 21.7344 32.9509 21.5059C32.8268 21.2798 32.6887 21.0615 32.5375 20.8525C32.4989 20.8018 32.4632 20.7485 32.4223 20.6992L32.3028 20.5503L32.1776 20.4062C32.1571 20.3823 32.1355 20.3594 32.1133 20.3369L32.048 20.2686C31.8745 20.0903 31.6867 19.9268 31.4865 19.7793L32.0595 19.0483Z" fill="#FFFFFF" fill-opacity="1.000000" fill-rule="nonzero"/>
	<path id="Vector" d="M38.0056 19.7681C38.2177 19.9824 38.4058 20.2188 38.5665 20.4736C38.6473 20.6016 38.7205 20.7344 38.7853 20.8711C38.8524 21.0073 38.902 21.1509 38.9581 21.2925C39.0543 21.5815 39.126 21.8779 39.1726 22.1787L39.2031 22.4048C39.2123 22.4805 39.2175 22.5562 39.2247 22.6323C39.2319 22.708 39.236 22.7837 39.2397 22.8594C39.2435 22.9351 39.2486 23.0117 39.2486 23.0874C39.2636 23.6948 39.2198 24.2998 39.1766 24.8975C39.1334 25.4956 39.0955 26.0874 39.0903 26.6812C39.075 29.0459 39.4694 31.396 40.2558 33.6265L40.2748 33.6802L40.2774 33.7661L40.2774 33.7676L39.3488 33.7676L39.3488 33.7661L39.3704 33.9062C39.0405 32.7275 38.8108 31.5234 38.684 30.3066C38.5612 29.0957 38.5419 27.8765 38.6264 26.6621C38.6693 26.0581 38.7448 25.4541 38.8279 24.8613C38.9111 24.2681 38.9907 23.6772 39.0142 23.0854C39.0192 23.0112 39.0182 22.9375 39.0197 22.8638C39.0212 22.7896 39.0226 22.7153 39.0197 22.6421C39.0168 22.5684 39.0172 22.4941 39.0131 22.4199L38.9976 22.1992C38.9713 21.9048 38.9203 21.6128 38.8452 21.3267C38.8 21.186 38.7609 21.0425 38.7042 20.9058C38.6492 20.7676 38.5859 20.6333 38.5147 20.5029C38.3723 20.2402 38.2015 19.9937 38.0056 19.7681Z" fill="#FFFFFF" fill-opacity="1.000000" fill-rule="nonzero"/>
	<path id="Vector" d="M41.3546 17.5103C41.6805 17.6421 41.9961 17.7983 42.2987 17.9775C42.6054 18.1587 42.894 18.3691 43.1605 18.6055C43.4314 18.8447 43.6713 19.1167 43.8746 19.4155C44.0773 19.7163 44.238 20.0435 44.3519 20.3877C44.3672 20.4297 44.379 20.4736 44.3914 20.5156C44.4038 20.5576 44.4171 20.6021 44.428 20.645C44.4478 20.7314 44.4714 20.8174 44.4855 20.9038L44.5103 21.0342L44.5296 21.1646L44.5391 21.2295L44.5463 21.2949L44.5604 21.4248C44.5891 21.7671 44.5933 22.1113 44.5731 22.4541C44.5532 22.7925 44.5187 23.1274 44.4723 23.4561C44.4611 23.5386 44.4513 23.6216 44.4389 23.7031L44.4018 23.9492C44.3779 24.1133 44.3499 24.2759 44.3234 24.438C44.2158 25.0894 44.0966 25.7344 44.0024 26.3804C43.9083 27.0264 43.838 27.6748 43.8297 28.3242C43.8262 28.4058 43.8297 28.4868 43.8297 28.5679L43.8348 28.8115C43.8377 28.8926 43.8455 28.9736 43.8504 29.0547L43.859 29.1763C43.8625 29.2168 43.8633 29.2573 43.8694 29.2979L43.8999 29.5391L43.9155 29.6606C43.9195 29.7012 43.9296 29.7402 43.9362 29.7803L43.9817 30.02C43.9955 30.1006 44.0142 30.1797 44.0335 30.2588C44.192 30.895 44.446 31.5039 44.787 32.064C44.4105 31.5195 44.1187 30.9219 43.9215 30.29C43.8973 30.2109 43.8734 30.1313 43.8544 30.0508L43.7939 29.8091C43.7844 29.769 43.772 29.729 43.7651 29.688L43.7421 29.5654L43.6964 29.3203C43.6877 29.2798 43.6843 29.2383 43.6785 29.1973L43.6624 29.0737C43.6523 28.9912 43.6393 28.9087 43.6315 28.8262L43.6117 28.5776C43.6053 28.4946 43.5976 28.4116 43.5961 28.3286C43.5656 27.6646 43.5984 26.9995 43.6537 26.3403C43.709 25.6816 43.7919 25.0269 43.8607 24.376C43.8771 24.2134 43.8956 24.0503 43.9094 23.8867L43.9316 23.6436C43.9388 23.5625 43.9437 23.4814 43.95 23.4004C43.9765 23.0762 43.9898 22.7549 43.99 22.4365C43.9901 22.123 43.9678 21.8091 43.9235 21.4985L43.9042 21.3833L43.8947 21.3257L43.8829 21.2686L43.8593 21.1562L43.8305 21.0459C43.8135 20.9712 43.7888 20.9004 43.768 20.8276C43.7565 20.792 43.7433 20.7568 43.7309 20.7217C43.7185 20.686 43.7067 20.6509 43.6917 20.6167C43.5825 20.3418 43.436 20.0835 43.2563 19.8486C43.0747 19.6133 42.8643 19.4019 42.6301 19.2188C42.1605 18.8477 41.6062 18.5728 41.0234 18.3735L41.3546 17.5103Z" fill="#FFFFFF" fill-opacity="1.000000" fill-rule="nonzero"/>
	<path id="Vector" d="M48.1138 17.7295C47.8427 18.4233 47.6633 19.1489 47.5803 19.8892C47.5713 19.981 47.5607 20.0728 47.5538 20.1646L47.5362 20.4404L47.529 20.7163C47.529 20.8081 47.529 20.8994 47.5307 20.9912C47.5389 21.3564 47.5715 21.7207 47.6284 22.0815C47.7418 22.7964 47.9523 23.4922 48.254 24.1499C48.5532 24.7983 48.9352 25.4058 49.3905 25.9565L48.6433 26.5098C48.2083 25.856 47.8599 25.1484 47.6068 24.4053C47.2325 23.3047 47.0885 22.1392 47.1835 20.9805C47.1927 20.8853 47.1999 20.79 47.2123 20.6953L47.2494 20.4121L47.2966 20.1309C47.3136 20.0371 47.3344 19.9443 47.3542 19.8516C47.5141 19.1143 47.7695 18.4009 48.1138 17.7295Z" fill="#FFFFFF" fill-opacity="1.000000" fill-rule="nonzero"/>
	<path id="Vector" d="M29.5666 21.5024C30.1273 21.7803 30.5985 22.21 30.9265 22.7427L30.9841 22.8413L31.0377 22.9429L31.0641 22.9937L31.088 23.0459C31.1039 23.0806 31.1205 23.1147 31.1353 23.1499C31.1948 23.2896 31.2429 23.4336 31.2792 23.5811C31.3508 23.8706 31.3799 24.1689 31.3656 24.4668C31.3384 25.0454 31.1597 25.6064 30.8473 26.0942C30.6959 26.3315 30.5123 26.5464 30.3019 26.7329C30.0942 26.9146 29.8631 27.0674 29.6147 27.1875C29.8393 27.0366 30.0427 26.8564 30.2194 26.6514C30.3908 26.4487 30.5335 26.2236 30.6434 25.9824C30.8589 25.5117 30.9471 24.9922 30.8992 24.4766C30.8756 24.2295 30.8162 23.9873 30.7229 23.7578C30.699 23.7002 30.6774 23.645 30.6484 23.5918C30.6193 23.5391 30.5908 23.4858 30.562 23.4336C30.5467 23.4077 30.5294 23.3828 30.5133 23.3574L30.4888 23.3198L30.4626 23.2832L30.4097 23.2109L30.3521 23.1411C30.0497 22.7773 29.6516 22.5059 29.2026 22.3569L29.5666 21.5024Z" fill="#FFFFFF" fill-opacity="1.000000" fill-rule="nonzero"/>
	<path id="Vector" d="M41.7531 35.0166C41.3129 35.0161 40.8787 34.9155 40.4836 34.7217L34.1862 31.6436C32.0699 30.6006 30.4974 29.3384 29.5104 27.8921C28.6334 26.6064 28.2415 25.1836 28.3777 23.7788C28.4977 22.5342 29.0164 21.3569 29.8766 20.374C30.7045 19.4287 31.8116 18.731 32.9944 18.4097C34.1534 18.0898 35.3837 18.1421 36.5115 18.5581C37.5159 18.9287 38.4269 19.5693 39.2291 20.4673C39.6261 19.2334 40.2308 18.2207 41.0327 17.4468C41.9344 16.5771 43.0482 16.0625 44.2521 15.9585C45.4216 15.8574 46.6347 16.1616 47.6675 16.8154C48.7496 17.501 49.5967 18.5278 50.1199 19.7852C50.5863 20.918 50.7465 22.1533 50.5846 23.3677C50.4224 24.5806 49.9609 25.7344 49.2414 26.7246L44.0873 33.8271C43.8201 34.1958 43.4692 34.4956 43.0635 34.7026C42.6577 34.9092 42.2086 35.0166 41.7531 35.0166ZM34.5328 19.127C34.095 19.1274 33.6592 19.1865 33.2371 19.3027C31.124 19.8779 29.5056 21.7534 29.3014 23.8657C29.152 25.4106 29.6412 28.3677 34.5947 30.8091L40.891 33.8867C41.3043 34.0898 41.7762 34.1401 42.2231 34.0288C42.67 33.9175 43.063 33.6519 43.3327 33.2788L48.4867 26.1763C49.7732 24.4038 50.0703 22.0894 49.2589 20.1377C48.3761 18.0112 46.3954 16.7021 44.3301 16.8804C42.1666 17.0674 40.5069 18.8193 39.8901 21.5664C39.8707 21.6538 39.8265 21.7339 39.7628 21.7964C39.6991 21.8594 39.6186 21.9023 39.531 21.9204C39.4434 21.939 39.3524 21.9312 39.2689 21.8994C39.1854 21.8672 39.113 21.8115 39.0603 21.7393C37.8254 20.0361 36.223 19.127 34.5326 19.127L34.5328 19.127Z" fill="#1B1B1B" fill-opacity="1.000000" fill-rule="nonzero"/>
	<g opacity="0.250000">
		<g opacity="0.250000">
			<path id="Vector" d="M33.1223 22.5571C33.3379 22.2725 33.6926 22.1162 34.0482 22.0806C34.4038 22.0449 34.7615 22.1187 35.1027 22.2241C35.9537 22.4902 36.7291 22.9551 37.3647 23.5801C37.5634 23.7754 37.751 23.9922 37.8467 24.2539C37.9423 24.5156 37.9299 24.8296 37.7548 25.0479C37.6028 25.2363 37.3517 25.3228 37.1093 25.3296C36.8668 25.3364 36.6287 25.272 36.3949 25.2095C35.5438 24.9785 32.0096 24.0259 33.1223 22.5571Z" fill="#FFFFFF" fill-opacity="1.000000" fill-rule="nonzero"/>
		</g>
	</g>
	<g opacity="0.250000">
		<g opacity="0.250000">
			<path id="Vector" d="M40.0327 24.9097C40.2592 24.9502 40.4979 25.0181 40.6459 25.1943C40.8156 25.3955 40.8219 25.6831 40.8187 25.9482C40.8156 26.2129 40.8008 26.5073 40.6062 26.6851C40.4841 26.7964 40.3111 26.8374 40.1455 26.832C39.9799 26.8267 39.8201 26.7793 39.6618 26.7319C39.3419 26.6362 38.9995 26.5269 38.798 26.2627C38.5858 25.9878 38.4761 25.3745 38.6868 25.063C38.9465 24.6797 39.6609 24.8423 40.0327 24.9097Z" fill="#FFFFFF" fill-opacity="1.000000" fill-rule="nonzero"/>
		</g>
	</g>
	<path id="Vector" d="M44.1028 14.3364C44.7614 14.7363 45.3773 15.3184 45.5178 16.0757C45.6583 16.8325 45.1132 17.731 44.3427 17.7168C43.9108 17.709 43.5236 17.4292 43.275 17.0776C43.0266 16.7261 42.895 16.3081 42.7668 15.8984L44.1028 14.3364Z" fill="#FFFFFF" fill-opacity="1.000000" fill-rule="nonzero"/>
	<path id="Vector" d="M44.3603 17.7944L44.3412 17.7944C43.9261 17.7866 43.504 17.5352 43.2117 17.1221C42.954 16.7578 42.8213 16.332 42.6934 15.9204L42.8411 15.874C42.9661 16.2744 43.0954 16.6885 43.339 17.0332C43.6027 17.4072 43.9788 17.6328 44.3447 17.6396L44.3608 17.6396C44.6422 17.6396 44.9111 17.5044 45.1196 17.2588C45.3885 16.9424 45.5152 16.4824 45.442 16.0894C45.2952 15.2979 44.6113 14.7354 44.0634 14.4023L44.1437 14.27C44.7196 14.6191 45.4371 15.2134 45.5947 16.061C45.677 16.5049 45.5402 17.002 45.2376 17.3589C44.9986 17.6401 44.6879 17.7944 44.3603 17.7944Z" fill="#1B1B1B" fill-opacity="1.000000" fill-rule="nonzero"/>
	<path id="Vector" d="M44.1835 14.2046C44.4859 14.312 44.7701 14.4653 45.0263 14.6582C45.3012 14.8628 45.5325 15.1201 45.7067 15.415C45.728 15.4546 45.7519 15.4922 45.7706 15.5337C45.7893 15.5747 45.8089 15.6152 45.8282 15.6567C45.8632 15.7407 45.8929 15.8271 45.9172 15.9155L45.9356 15.9824C45.9417 16.0044 45.9457 16.0303 45.9509 16.0542C45.9561 16.0781 45.9601 16.1035 45.9633 16.1279C45.9664 16.1523 45.9705 16.1768 45.9725 16.2012C45.9821 16.2988 45.9838 16.3965 45.9776 16.4941C45.9653 16.6865 45.9241 16.8765 45.8552 17.0566C45.8215 17.147 45.7806 17.2344 45.7329 17.3184C45.7098 17.3613 45.683 17.4023 45.6569 17.4434C45.6307 17.4844 45.601 17.5239 45.5705 17.563C45.444 17.7241 45.2886 17.8608 45.1124 17.9653C44.9243 18.0767 44.7129 18.1436 44.4948 18.1597C44.4402 18.1636 44.3856 18.1641 44.3309 18.1621C44.2775 18.1592 44.2242 18.1533 44.1714 18.1445C44.0682 18.1279 43.9672 18.1006 43.8699 18.062C43.7768 18.0259 43.6873 17.981 43.6025 17.9277C43.3663 17.7764 43.1667 17.5742 43.0182 17.3359C42.9722 17.2617 42.9303 17.1851 42.893 17.106C42.8573 17.0278 42.8259 16.9497 42.798 16.8711C42.746 16.7183 42.7058 16.5615 42.6776 16.4028C42.6499 16.2505 42.6307 16.0967 42.6201 15.9424C42.6175 15.9067 42.6271 15.8711 42.6472 15.8418C42.6674 15.812 42.697 15.79 42.7312 15.7793C42.7654 15.7686 42.8022 15.7695 42.8358 15.7827C42.8693 15.7954 42.8974 15.8188 42.9157 15.8501C42.9943 15.9814 43.0649 16.1138 43.1366 16.2407C43.1732 16.3037 43.2077 16.3662 43.2451 16.4258C43.2826 16.4858 43.3188 16.5444 43.3569 16.6001C43.3948 16.6562 43.4337 16.7095 43.4743 16.7598C43.5128 16.8096 43.5542 16.8564 43.5981 16.9014C43.6791 16.9849 43.7698 17.0591 43.8682 17.1216C43.9146 17.1499 43.9626 17.1753 44.0122 17.1978C44.024 17.2031 44.0361 17.207 44.0479 17.2119C44.0594 17.2173 44.0712 17.2217 44.0833 17.2256L44.1184 17.2373L44.1533 17.2466C44.1971 17.2578 44.2419 17.2651 44.2872 17.2671C44.3091 17.2695 44.3301 17.2671 44.3511 17.2671C44.3712 17.2661 44.3912 17.2637 44.411 17.2603C44.4915 17.2476 44.5684 17.2183 44.637 17.1743C44.7158 17.1226 44.7858 17.0586 44.8443 16.9849C44.9754 16.8184 45.0607 16.6211 45.0919 16.4116C45.0995 16.3604 45.1035 16.3091 45.1038 16.2573C45.1038 16.2441 45.1038 16.2319 45.1038 16.2192C45.1038 16.2065 45.1038 16.1938 45.1017 16.1816C45.1011 16.1685 45.0999 16.1558 45.098 16.1431L45.0914 16.1006C45.083 16.0435 45.0718 15.9863 45.0577 15.9302C45.0491 15.9019 45.0404 15.873 45.0323 15.8442C45.0243 15.8154 45.0119 15.7866 45.0021 15.7578C44.9183 15.5298 44.7784 15.3062 44.6094 15.0908C44.523 14.9834 44.4317 14.8779 44.3338 14.7744C44.2359 14.6709 44.1323 14.5693 44.0251 14.4653L44.0223 14.4624C43.9965 14.4375 43.9802 14.4043 43.9759 14.3682C43.9717 14.3325 43.9797 14.2964 43.9988 14.2656C44.0179 14.2354 44.0469 14.2119 44.081 14.2002C44.1151 14.1885 44.1521 14.1885 44.1861 14.2007L44.1835 14.2046Z" fill="#1B1B1B" fill-opacity="1.000000" fill-rule="nonzero"/>
	<path id="Vector" d="M57.9292 34.6704C57.8949 35.4399 57.1606 36.1919 56.4138 36.0049C55.9954 35.8994 55.6793 35.54 55.5166 35.1416C55.5105 35.1265 55.5042 35.1133 55.4996 35.0972C55.351 34.7114 55.3199 34.2915 55.2888 33.8774L56.9436 32.6577C57.1992 32.9014 57.4203 33.1792 57.6006 33.4829C57.816 33.8472 57.9476 34.2495 57.9292 34.6704Z" fill="#FFFFFF" fill-opacity="1.000000" fill-rule="nonzero"/>
	<path id="Vector" d="M57.0513 32.5464C57.3221 32.7192 57.5649 32.9331 57.7711 33.1792C57.9929 33.4409 58.1602 33.7441 58.2632 34.0708C58.275 34.1143 58.2897 34.1572 58.2986 34.2007C58.3076 34.2441 58.3173 34.2891 58.3274 34.3335C58.3428 34.4238 58.3524 34.5156 58.3562 34.6069L58.3591 34.6763C58.3591 34.6992 58.3591 34.7256 58.3591 34.75C58.3591 34.7744 58.3571 34.7998 58.3545 34.8242C58.3519 34.8491 58.3507 34.874 58.347 34.8979C58.3344 34.9951 58.314 35.0913 58.2859 35.1855C58.2303 35.3701 58.1473 35.5454 58.0397 35.7056C57.9863 35.7861 57.9266 35.8623 57.8613 35.9336C57.829 35.9697 57.7939 36.0039 57.759 36.0381C57.7242 36.0723 57.6862 36.104 57.647 36.1348C57.4874 36.2637 57.3052 36.3618 57.1097 36.4248C56.8483 36.5083 56.568 36.5137 56.3035 36.4399C56.2521 36.4253 56.2015 36.4072 56.152 36.3872C56.0552 36.3481 55.963 36.2983 55.8771 36.2388C55.7946 36.1826 55.7175 36.1182 55.6467 36.0479C55.5794 35.9795 55.5175 35.9062 55.4616 35.8281C55.4078 35.7524 55.3597 35.6729 55.3176 35.5903C55.2761 35.5093 55.2405 35.4258 55.2111 35.3398C55.1832 35.2568 55.1599 35.1724 55.1411 35.0864C55.1241 35.0024 55.1124 34.9194 55.1017 34.8369C55.0857 34.6758 55.0819 34.5142 55.0905 34.353C55.0978 34.1982 55.1138 34.0439 55.1385 33.8911C55.1441 33.8555 55.1615 33.8232 55.1879 33.7988C55.2142 33.7744 55.2479 33.7598 55.2837 33.7573C55.3194 33.7544 55.355 33.7637 55.3848 33.7837C55.4145 33.8037 55.4366 33.833 55.4475 33.8672C55.4944 34.0132 55.5339 34.1582 55.5745 34.2988C55.5958 34.3682 55.6154 34.437 55.6384 34.5039C55.6614 34.5708 55.6833 34.6357 55.7078 34.6987C55.7322 34.7622 55.7579 34.8228 55.7861 34.8809C55.8126 34.938 55.8422 34.9932 55.8748 35.0469C55.935 35.1465 56.0067 35.2388 56.0884 35.3218C56.1266 35.3599 56.1673 35.3955 56.2102 35.4282C56.2206 35.436 56.2313 35.4429 56.2416 35.4507C56.2516 35.458 56.2623 35.4648 56.2733 35.4712L56.3047 35.4907L56.3364 35.5078C56.3766 35.5288 56.4188 35.5454 56.4625 35.5576C56.4829 35.5654 56.5042 35.5679 56.5244 35.5732C56.5445 35.5786 56.5644 35.5796 56.5842 35.5801C56.6656 35.5854 56.7471 35.5742 56.8238 35.5464C56.9124 35.5142 56.9951 35.4678 57.0688 35.4087C57.2341 35.2764 57.3618 35.103 57.4394 34.9062C57.4586 34.8584 57.4742 34.8086 57.4861 34.7583C57.4898 34.7461 57.4913 34.7339 57.4941 34.7212C57.497 34.709 57.4992 34.6968 57.5007 34.6841C57.5022 34.6714 57.5054 34.6606 57.5059 34.646L57.5091 34.603C57.5138 34.5459 57.5156 34.4883 57.5146 34.4307C57.5126 34.4019 57.5103 34.373 57.5091 34.3418C57.5079 34.311 57.5019 34.2827 57.4987 34.2524C57.47 34.0117 57.3835 33.7617 57.2684 33.5137C57.2093 33.3901 57.1436 33.2666 57.0714 33.1431C56.9986 33.02 56.9203 32.8975 56.8411 32.7725L56.8391 32.7686C56.8199 32.7383 56.8118 32.7026 56.8157 32.667C56.8198 32.6313 56.8358 32.5981 56.8612 32.5728C56.8867 32.5474 56.9199 32.5312 56.9556 32.5273C56.9913 32.5234 57.0272 32.5317 57.0576 32.5508L57.0513 32.5464Z" fill="#1B1B1B" fill-opacity="1.000000" fill-rule="nonzero"/>
	<path id="Vector" d="M60.2719 14.4346C61.002 14.6807 61.5212 15.5947 61.1336 16.2593C60.9162 16.6318 60.4829 16.8345 60.0538 16.8804C60.0372 16.8818 60.0222 16.8838 60.0058 16.8843C59.5941 16.9199 59.1805 16.8325 58.7746 16.7471L58.0616 14.8198C58.3672 14.6426 58.6955 14.5078 59.0375 14.4189C59.4486 14.3135 59.8722 14.2993 60.2719 14.4346Z" fill="#FFFFFF" fill-opacity="1.000000" fill-rule="nonzero"/>
	<path id="Vector" d="M57.9856 14.686C58.2267 14.4751 58.4985 14.3018 58.7918 14.1724C59.1048 14.0322 59.4424 13.9561 59.7852 13.9478C59.8298 13.9478 59.8745 13.9458 59.9197 13.9497C59.9648 13.9531 60.0101 13.9561 60.0553 13.96C60.1464 13.9707 60.2368 13.9868 60.3259 14.0093L60.3936 14.0259C60.4155 14.0312 60.4406 14.0405 60.4639 14.0479C60.4872 14.0547 60.5111 14.0635 60.5338 14.0728C60.5566 14.082 60.5804 14.0903 60.6027 14.1016C60.6926 14.1406 60.7792 14.187 60.8618 14.2397C61.024 14.3442 61.1697 14.4727 61.2937 14.6206C61.3561 14.6943 61.4128 14.7725 61.463 14.855C61.4889 14.896 61.512 14.9395 61.5353 14.9824C61.5586 15.0249 61.5782 15.0703 61.5966 15.1167C61.6765 15.3057 61.7206 15.5078 61.7264 15.7129C61.7319 15.9312 61.687 16.1475 61.5952 16.3457C61.5719 16.395 61.5458 16.4429 61.5171 16.4893C61.4885 16.5347 61.4576 16.5781 61.4244 16.6201C61.3597 16.7021 61.2863 16.7769 61.2053 16.8428C61.128 16.9062 61.045 16.9624 60.9574 17.0107C60.7912 17.1006 60.6119 17.1641 60.4261 17.1992C60.337 17.2168 60.2466 17.2275 60.1558 17.2314C60.0682 17.2354 59.9804 17.2344 59.8929 17.2285C59.8065 17.2217 59.7236 17.2104 59.6415 17.1973C59.4825 17.1675 59.326 17.1265 59.1733 17.0732C59.0262 17.0234 58.882 16.9648 58.7415 16.8989C58.7091 16.8833 58.6828 16.8579 58.6668 16.8257C58.6509 16.7939 58.6461 16.7573 58.6534 16.7227C58.6607 16.6875 58.6796 16.6558 58.707 16.6328C58.7344 16.6099 58.7687 16.5972 58.8045 16.5957C58.9579 16.5918 59.108 16.5942 59.2537 16.5938C59.3265 16.5938 59.3976 16.5938 59.4684 16.5894C59.5393 16.585 59.6078 16.5825 59.6755 16.5767C59.7432 16.5713 59.8085 16.563 59.8721 16.5522C59.9342 16.543 59.9956 16.5298 60.0562 16.5132C60.1689 16.4834 60.2777 16.4404 60.3804 16.3848C60.4276 16.3589 60.4731 16.3301 60.5165 16.2983C60.5269 16.2905 60.5364 16.2822 60.5453 16.2744C60.5555 16.2666 60.5651 16.2588 60.5742 16.25L60.6029 16.2251L60.6277 16.1992C60.6591 16.1665 60.6871 16.1309 60.7112 16.0923C60.7239 16.0747 60.7322 16.0552 60.7432 16.0371C60.7541 16.019 60.7604 16.0005 60.7665 15.9819C60.7942 15.9053 60.8059 15.8237 60.8007 15.7422C60.7941 15.6479 60.7723 15.5562 60.7363 15.4688C60.6548 15.2734 60.5239 15.103 60.3562 14.9736C60.3152 14.9419 60.272 14.9126 60.2269 14.8872C60.2159 14.8804 60.2044 14.8755 60.1935 14.8691C60.1825 14.8628 60.1711 14.8574 60.1595 14.8525C60.1477 14.8477 60.1382 14.8413 60.1241 14.8369L60.084 14.8218C60.0314 14.7993 59.9747 14.7861 59.9188 14.7686C59.89 14.7622 59.8612 14.7563 59.8324 14.749C59.8036 14.7422 59.7731 14.7397 59.7435 14.7344C59.5033 14.6963 59.2396 14.709 58.9686 14.751C58.8333 14.7734 58.6962 14.8027 58.5574 14.8374C58.4186 14.8721 58.2796 14.9146 58.1368 14.9561L58.1331 14.9561C58.0985 14.9658 58.0616 14.9639 58.0283 14.9502C57.9951 14.9365 57.9675 14.9121 57.9501 14.8804C57.9328 14.8491 57.9267 14.8125 57.9328 14.7773C57.9389 14.7417 57.957 14.7095 57.9839 14.6855L57.9856 14.686Z" fill="#1B1B1B" fill-opacity="1.000000" fill-rule="nonzero"/>
	<path id="Vector" d="M32.3439 29.1724C32.3211 29.249 32.29 29.3223 32.2512 29.3921C32.0822 29.6938 31.7756 29.915 31.447 30.0342C31.0439 30.1812 30.6025 30.1982 30.1735 30.2139L29.016 28.5166C29.1337 28.4048 29.2573 28.2993 29.3863 28.2002C29.8789 27.8242 30.4586 27.5581 31.0675 27.6074C31.667 27.6567 32.2417 28.1338 32.3595 28.6909C32.395 28.8501 32.3896 29.0161 32.3439 29.1724Z" fill="#FFFFFF" fill-opacity="1.000000" fill-rule="nonzero"/>
	<path id="Vector" d="M28.9092 28.4053C29.0923 28.1421 29.3147 27.9082 29.5686 27.7119C29.8383 27.5005 30.1476 27.3447 30.4781 27.2544C30.5219 27.2441 30.5645 27.231 30.6092 27.2236C30.6538 27.2163 30.6984 27.2085 30.7433 27.2007C30.8345 27.1895 30.9262 27.1836 31.018 27.1836L31.0874 27.1836C31.1102 27.1836 31.1364 27.1865 31.1608 27.188C31.1853 27.1895 31.2106 27.1919 31.2351 27.1953C31.2596 27.1982 31.2844 27.2007 31.3085 27.2056C31.405 27.2217 31.5001 27.2461 31.5928 27.2773C31.7755 27.3398 31.9478 27.4292 32.1038 27.543C32.1823 27.5991 32.2562 27.6616 32.325 27.7295C32.3598 27.7632 32.3926 27.7993 32.4255 27.8354C32.4583 27.8716 32.4888 27.9106 32.5179 27.9507C32.6408 28.1143 32.7324 28.2998 32.788 28.4971C32.8452 28.7051 32.8539 28.9233 32.8136 29.1353C32.7733 29.3477 32.6849 29.5474 32.5553 29.7202C32.4954 29.8003 32.4279 29.875 32.3538 29.9429C32.283 30.0073 32.2073 30.0664 32.1271 30.1191C31.9729 30.2192 31.8053 30.2964 31.6293 30.3496C31.5452 30.374 31.4599 30.3945 31.3737 30.4097C31.2872 30.4238 31.2049 30.4331 31.1219 30.4385C30.9606 30.4487 30.7987 30.4463 30.6377 30.4316C30.483 30.4185 30.3292 30.3965 30.177 30.3662C30.1418 30.3594 30.1101 30.3403 30.0869 30.3135C30.0637 30.2861 30.0503 30.252 30.0489 30.2163C30.0475 30.1802 30.0583 30.145 30.0793 30.1162C30.1005 30.0874 30.1307 30.0664 30.1652 30.0571C30.3132 30.0156 30.4595 29.9824 30.6005 29.9463C30.6711 29.9282 30.7405 29.9106 30.8081 29.8901C30.8758 29.8701 30.9417 29.8506 31.0057 29.8286C31.0696 29.8062 31.1315 29.7832 31.1908 29.7573C31.2487 29.7329 31.3051 29.7056 31.3598 29.6748C31.4619 29.6191 31.5571 29.5518 31.6434 29.4736C31.6829 29.437 31.72 29.3975 31.7546 29.356C31.7629 29.3462 31.7701 29.3354 31.7779 29.3252C31.7859 29.3159 31.7933 29.3057 31.7997 29.2944L31.8205 29.2642L31.8386 29.2329C31.8612 29.1938 31.8796 29.1523 31.8936 29.1089C31.9017 29.0889 31.9052 29.0679 31.9115 29.0479C31.9178 29.0278 31.9193 29.0083 31.9207 28.9883C31.9291 28.9072 31.9207 28.8252 31.8959 28.748C31.8669 28.6582 31.8234 28.5737 31.7672 28.498C31.6408 28.3281 31.472 28.1938 31.2778 28.1089C31.2302 28.0884 31.1813 28.0708 31.1315 28.0571C31.1191 28.0527 31.107 28.0508 31.0946 28.0479C31.0825 28.0439 31.0703 28.0415 31.0578 28.0396C31.0451 28.0376 31.0344 28.0342 31.0198 28.0332L30.9772 28.0283C30.9196 28.019 30.862 28.0195 30.8044 28.0161C30.7756 28.0161 30.7468 28.0181 30.7157 28.0186C30.6846 28.0186 30.6558 28.0234 30.6256 28.0254C30.3834 28.0464 30.1303 28.1221 29.877 28.2285C29.7509 28.2827 29.6247 28.3438 29.4983 28.4111C29.3719 28.479 29.2473 28.5527 29.1188 28.6274L29.1154 28.6294C29.0843 28.6475 29.048 28.6543 29.0125 28.6489C28.977 28.6436 28.9443 28.6265 28.9199 28.6001C28.8955 28.5737 28.8808 28.54 28.8782 28.5044C28.8755 28.4683 28.8852 28.4326 28.9055 28.4033L28.9092 28.4053Z" fill="#1B1B1B" fill-opacity="1.000000" fill-rule="nonzero"/>
	<path id="Vector" d="M45.0741 29.7798C45.136 29.7534 45.2004 29.7344 45.2664 29.7222C45.5526 29.6685 45.861 29.7466 46.115 29.8945C46.4282 30.0762 46.6765 30.3511 46.9177 30.6191L46.4464 32.2793C46.3109 32.2637 46.1763 32.2407 46.0433 32.2104C45.5348 32.0952 45.0502 31.8652 44.7539 31.4458C44.4628 31.0322 44.4611 30.4043 44.7576 30.0283C44.8408 29.9204 44.9495 29.835 45.0741 29.7798Z" fill="#FFFFFF" fill-opacity="1.000000" fill-rule="nonzero"/>
	<path id="Vector" d="M46.4297 32.4092C46.1608 32.4331 45.8898 32.4155 45.626 32.3579C45.3441 32.2974 45.0768 32.1816 44.84 32.0176C44.8112 31.9946 44.7787 31.9741 44.7499 31.9492L44.6635 31.875C44.6068 31.8228 44.5535 31.7666 44.5043 31.707L44.4669 31.6626C44.4545 31.6479 44.4421 31.6294 44.43 31.6128C44.4179 31.5962 44.4055 31.5786 44.3946 31.561C44.3836 31.5435 44.3715 31.5259 44.3615 31.5083C44.3203 31.437 44.2847 31.3628 44.2552 31.2861C44.1965 31.1348 44.1613 30.9751 44.1507 30.8135C44.1448 30.7324 44.1454 30.6509 44.1524 30.5703C44.155 30.5293 44.1608 30.4888 44.1666 30.4482C44.1723 30.4072 44.1809 30.3667 44.1913 30.3262C44.2311 30.1582 44.3018 29.999 44.3998 29.8569C44.5308 29.667 44.7145 29.5195 44.9284 29.4331C45.0521 29.3838 45.1828 29.3545 45.3157 29.3467C45.3997 29.3423 45.4839 29.3452 45.5673 29.3555C45.6473 29.3662 45.7262 29.3838 45.8034 29.4072C45.8784 29.4292 45.9514 29.4575 46.0217 29.4912C46.091 29.5234 46.1579 29.561 46.2218 29.603C46.2832 29.6436 46.3422 29.688 46.3986 29.7354C46.4533 29.7827 46.5046 29.8315 46.5535 29.8818C46.6469 29.9805 46.7327 30.0864 46.8101 30.1982C46.8848 30.3047 46.9536 30.416 47.0159 30.5303C47.0302 30.5566 47.0352 30.5874 47.0302 30.6167C47.025 30.6465 47.0101 30.6733 46.9879 30.6934C46.9655 30.7139 46.9371 30.7256 46.9071 30.728C46.8771 30.73 46.8473 30.7217 46.8224 30.7051C46.7159 30.6313 46.6157 30.5552 46.5164 30.4834C46.4662 30.4482 46.4179 30.4126 46.3683 30.3799C46.3188 30.3472 46.2704 30.3149 46.2218 30.2856C46.1732 30.2563 46.1245 30.228 46.0758 30.2046C46.0291 30.1802 45.981 30.1587 45.9318 30.1401C45.8404 30.1045 45.7451 30.0796 45.6479 30.0659C45.5613 30.0537 45.4733 30.0552 45.3871 30.0698C45.3496 30.0771 45.3129 30.0874 45.2774 30.1016C45.2598 30.1069 45.2446 30.1162 45.2281 30.123C45.2117 30.1294 45.1993 30.1392 45.1849 30.1489C45.1274 30.187 45.0784 30.2368 45.041 30.2949C44.9988 30.3623 44.9678 30.4365 44.9492 30.5142C44.9075 30.687 44.9114 30.8682 44.9606 31.0391C44.9726 31.0811 44.9878 31.1221 45.0062 31.1616C45.0102 31.1714 45.0154 31.1802 45.0197 31.1899C45.0239 31.2002 45.0288 31.2095 45.0344 31.2188C45.0399 31.2285 45.0433 31.2368 45.0505 31.2476L45.0704 31.2764C45.0954 31.3174 45.1279 31.3545 45.1567 31.3945L45.206 31.4521C45.2218 31.4717 45.2417 31.4883 45.2592 31.5063C45.4032 31.6499 45.5889 31.7734 45.7936 31.8804C45.8967 31.9321 46.0042 31.9805 46.1158 32.0259C46.2275 32.0698 46.3425 32.1118 46.4614 32.1538L46.4645 32.1538C46.4937 32.1641 46.5184 32.1836 46.5347 32.2095C46.5509 32.2358 46.5576 32.2666 46.5537 32.2969C46.5498 32.3276 46.5355 32.356 46.5131 32.377C46.4908 32.3979 46.4618 32.4106 46.4312 32.4131L46.4297 32.4092Z" fill="#1B1B1B" fill-opacity="1.000000" fill-rule="nonzero"/>
	<g opacity="0.600000">
		<g opacity="0.600000">
			<path id="Vector" d="M49.772 14.9268C49.8485 14.6157 49.9721 14.3174 50.1385 14.0435C50.3144 13.7495 50.5472 13.4932 50.8232 13.29C50.8604 13.2651 50.8955 13.2378 50.9346 13.2148C50.9738 13.1924 51.0124 13.1685 51.0516 13.1455C51.1324 13.1021 51.216 13.0635 51.3018 13.0303L51.3665 13.0059C51.3876 12.9976 51.4132 12.9907 51.4365 12.9829C51.4598 12.9756 51.4843 12.9688 51.5085 12.9634C51.5327 12.958 51.5566 12.9512 51.5807 12.9468C51.6767 12.9272 51.774 12.9155 51.8719 12.9121C52.0648 12.9048 52.2578 12.9268 52.4443 12.9766C52.5377 13.001 52.6291 13.0327 52.7175 13.0718C52.7621 13.0903 52.8059 13.1123 52.8497 13.1343C52.8934 13.1562 52.9361 13.1821 52.9772 13.209C53.1511 13.3184 53.3032 13.459 53.4258 13.6235C53.5558 13.7993 53.6434 14.0024 53.6818 14.2178C53.6913 14.2715 53.6976 14.3257 53.7006 14.3804C53.7034 14.4336 53.7034 14.4873 53.7006 14.5405C53.6945 14.645 53.6772 14.748 53.649 14.8486C53.6221 14.9448 53.5864 15.0386 53.5422 15.1279C53.415 15.3779 53.2341 15.5967 53.0124 15.7686C52.9429 15.8218 52.8704 15.8711 52.7953 15.9165C52.721 15.96 52.6461 15.9985 52.571 16.0347C52.424 16.1016 52.2721 16.1577 52.1166 16.2017C51.9676 16.2446 51.8163 16.2793 51.6634 16.3052C51.6282 16.3115 51.5919 16.3057 51.5604 16.2886C51.529 16.2715 51.5042 16.2441 51.4901 16.2114C51.4759 16.1787 51.4733 16.1421 51.4825 16.1074C51.4918 16.0728 51.5124 16.0425 51.541 16.021C51.6642 15.9297 51.7889 15.8462 51.9076 15.7622C51.9669 15.7197 52.0256 15.6787 52.0803 15.6357C52.1351 15.5928 52.1906 15.5493 52.2427 15.5068C52.2949 15.4644 52.3438 15.4204 52.3899 15.374C52.4353 15.3311 52.4781 15.2852 52.518 15.2368C52.5932 15.1475 52.6577 15.0503 52.71 14.9458C52.7336 14.8975 52.7542 14.8477 52.7714 14.7964C52.7754 14.7842 52.7786 14.7715 52.7823 14.7593C52.7863 14.7476 52.7895 14.7354 52.7918 14.7227L52.8002 14.687L52.8057 14.6514C52.8126 14.6064 52.8149 14.561 52.8126 14.5161C52.8126 14.4941 52.8085 14.4731 52.8071 14.4521C52.8057 14.4312 52.8005 14.4126 52.7944 14.395C52.7732 14.3159 52.736 14.2427 52.685 14.1787C52.6254 14.106 52.5547 14.0425 52.4754 13.9917C52.2965 13.8784 52.0912 13.814 51.8796 13.8042C51.8279 13.8013 51.776 13.8027 51.7244 13.8076C51.7115 13.8076 51.6994 13.811 51.6867 13.812C51.6741 13.813 51.6614 13.8154 51.6493 13.8179C51.6372 13.8203 51.6254 13.8213 51.6116 13.8252L51.5701 13.8364C51.5139 13.8506 51.4584 13.8672 51.404 13.8872C51.3766 13.8984 51.3495 13.9102 51.3219 13.9209C51.2943 13.9316 51.2678 13.9468 51.2402 13.9595C51.0219 14.0659 50.8129 14.2275 50.6154 14.4175C50.5175 14.5132 50.4214 14.6152 50.3274 14.7236C50.2347 14.832 50.144 14.9458 50.051 15.0615L50.0484 15.0645C50.0258 15.0923 49.9944 15.1118 49.9594 15.1196C49.9243 15.1274 49.8876 15.123 49.8553 15.1069C49.8231 15.0913 49.7972 15.0649 49.7819 15.0327C49.7665 15 49.7628 14.9634 49.7711 14.9282L49.772 14.9268Z" fill="#1B1B1B" fill-opacity="1.000000" fill-rule="nonzero"/>
		</g>
		<g opacity="0.600000">
			<path id="Vector" d="M24.8151 32.9746C24.7626 33.084 24.712 33.1929 24.6667 33.3008C24.6216 33.4092 24.5804 33.5176 24.5475 33.6245C24.5314 33.6782 24.5162 33.7314 24.5044 33.7847C24.4926 33.8384 24.4805 33.8906 24.4721 33.9429C24.4561 34.0439 24.4489 34.146 24.4506 34.2485C24.4503 34.4307 24.4924 34.6104 24.5735 34.7734C24.6104 34.8384 24.6524 34.9004 24.6993 34.959C24.7425 35.0161 24.7837 35.0737 24.8312 35.1255C24.8768 35.1753 24.9297 35.2178 24.9881 35.252C25.0025 35.2583 25.0169 35.2686 25.0313 35.2739C25.0457 35.2793 25.0601 35.2852 25.0759 35.292C25.0917 35.2988 25.1064 35.2993 25.122 35.3037C25.1297 35.3066 25.1378 35.3081 25.1459 35.3081L25.1701 35.3115C25.1782 35.313 25.1865 35.314 25.1948 35.3145L25.2199 35.3145C25.2374 35.3159 25.2549 35.3154 25.2723 35.313C25.2899 35.3105 25.3083 35.3101 25.3267 35.3066C25.3452 35.3032 25.3638 35.2969 25.3843 35.293C25.4033 35.2881 25.4219 35.2822 25.4402 35.2754C25.4577 35.2671 25.4767 35.2612 25.4943 35.2515C25.5311 35.2334 25.5665 35.2124 25.6003 35.189C25.6725 35.1362 25.7361 35.0728 25.7889 35.0005C25.8474 34.9229 25.895 34.8374 25.9305 34.7466C26.0104 34.5464 26.051 34.333 26.05 34.1177L26.05 34.1133C26.0499 34.0757 26.0633 34.0396 26.0878 34.0112C26.1123 33.9824 26.1462 33.9639 26.1833 33.9585C26.2205 33.9531 26.2584 33.9609 26.2902 33.981C26.3218 34.001 26.3453 34.0322 26.3561 34.0679C26.3748 34.1304 26.3909 34.1943 26.4039 34.2593C26.4162 34.3257 26.425 34.3921 26.4304 34.459C26.4355 34.5259 26.437 34.5933 26.4347 34.6602C26.4347 34.6938 26.4321 34.728 26.4295 34.7612C26.4269 34.7944 26.4243 34.8271 26.4191 34.8628C26.4003 35.0059 26.3626 35.145 26.3071 35.2778C26.2479 35.418 26.1677 35.5479 26.0693 35.6636C25.9646 35.7861 25.8387 35.8887 25.6976 35.9663C25.6616 35.9849 25.625 36.0039 25.5881 36.022C25.5513 36.04 25.5101 36.0522 25.4707 36.0669C25.4305 36.082 25.3893 36.0938 25.3475 36.1021L25.2841 36.1167C25.2627 36.1206 25.241 36.1235 25.2193 36.125L25.1537 36.1318C25.1318 36.1343 25.1097 36.1357 25.0877 36.1353C25.0437 36.1353 24.9993 36.1353 24.955 36.1323C24.9106 36.1289 24.8686 36.1211 24.8237 36.1143C24.7788 36.1074 24.7373 36.0947 24.6953 36.084C24.5286 36.0361 24.3715 35.9595 24.2311 35.8574C24.0924 35.7598 23.9749 35.6353 23.8856 35.4912C23.8747 35.4731 23.8632 35.4561 23.8533 35.437C23.8436 35.4185 23.8347 35.3994 23.8246 35.3794C23.8145 35.3599 23.8067 35.3418 23.7978 35.3223C23.7889 35.3027 23.7831 35.2827 23.7756 35.2632C23.7469 35.186 23.7252 35.1064 23.7106 35.0259C23.6812 34.8726 23.6725 34.7163 23.6846 34.561C23.6958 34.4146 23.7235 34.2695 23.7673 34.1294C23.8087 33.9951 23.8636 33.8657 23.9314 33.7427C23.9639 33.6826 23.9988 33.6245 24.0353 33.5698C24.0719 33.5151 24.1122 33.4614 24.1522 33.4092C24.3106 33.21 24.4928 33.0308 24.6947 32.8755C24.7088 32.8647 24.7262 32.8589 24.7441 32.8589C24.762 32.8589 24.7793 32.8652 24.7933 32.8765C24.8072 32.8877 24.817 32.9028 24.821 32.9204C24.825 32.938 24.823 32.9561 24.8154 32.9722L24.8151 32.9746Z" fill="#1B1B1B" fill-opacity="1.000000" fill-rule="nonzero"/>
		</g>
		<g opacity="0.600000">
			<path id="Vector" d="M51.728 27.5835C51.8126 27.6875 51.8967 27.79 51.9839 27.8872C52.0712 27.9844 52.1607 28.0762 52.2523 28.1611C52.299 28.2031 52.3456 28.2441 52.3937 28.2817C52.4418 28.3193 52.4893 28.3569 52.5377 28.3906C52.586 28.4243 52.6361 28.4551 52.6865 28.4834C52.7115 28.4976 52.7372 28.5103 52.762 28.5244C52.7867 28.5381 52.8126 28.5493 52.8385 28.5605C53.0266 28.6504 53.2328 28.6958 53.4412 28.6934C53.4529 28.6934 53.4648 28.6934 53.4763 28.6914L53.5106 28.6885C53.5223 28.6885 53.5333 28.686 53.5437 28.6846C53.554 28.6826 53.565 28.6821 53.5756 28.6797C53.6182 28.6724 53.6603 28.6646 53.7017 28.6553C53.7842 28.6387 53.8656 28.6172 53.9456 28.5913C54.0222 28.5645 54.0938 28.5259 54.1578 28.4761C54.2194 28.4287 54.2706 28.3696 54.3084 28.3018C54.3286 28.2666 54.3449 28.229 54.3571 28.1904C54.3711 28.1484 54.3807 28.105 54.3859 28.0615C54.397 27.9683 54.3923 27.8745 54.3721 27.7827C54.3488 27.6831 54.3105 27.5874 54.2583 27.4995C54.2032 27.4038 54.1354 27.3159 54.0568 27.2383C53.8863 27.0669 53.6841 26.9302 53.4616 26.8354L53.4584 26.8354C53.4236 26.8208 53.3953 26.7935 53.379 26.7593C53.3625 26.7251 53.3592 26.6865 53.3694 26.6499C53.3796 26.6138 53.4028 26.582 53.4345 26.5615C53.4662 26.5405 53.5045 26.5322 53.5419 26.5376C53.687 26.5576 53.8293 26.5933 53.9664 26.6445C54.0358 26.6704 54.1037 26.7002 54.1699 26.7334C54.2033 26.7495 54.2361 26.7671 54.2681 26.7852C54.3 26.8032 54.3317 26.8208 54.3649 26.8428C54.4979 26.9268 54.6192 27.0278 54.7256 27.1436C54.8365 27.2646 54.9284 27.4023 54.998 27.5513C55.071 27.709 55.1154 27.8789 55.129 28.0522C55.1368 28.1416 55.1362 28.2314 55.127 28.3203C55.1182 28.4126 55.0995 28.5039 55.0715 28.5928C55.043 28.6831 55.0054 28.7705 54.9594 28.8535C54.9128 28.936 54.8583 29.0142 54.7968 29.0864C54.6758 29.2285 54.5305 29.3477 54.3674 29.439C54.2095 29.5308 54.035 29.5903 53.8541 29.6147C53.6755 29.6367 53.4943 29.626 53.3196 29.5825C53.1548 29.5449 52.9957 29.4849 52.8466 29.4053C52.7052 29.3301 52.5727 29.2393 52.4515 29.1343C52.335 29.0342 52.2289 28.9224 52.1348 28.8008C52.0887 28.7417 52.0453 28.6816 52.0052 28.6201C51.9652 28.5591 51.929 28.4956 51.8938 28.4326C51.7612 28.1851 51.6586 27.9229 51.5883 27.6514C51.5837 27.6338 51.5852 27.6157 51.5926 27.5991C51.6 27.5825 51.6128 27.5688 51.6289 27.561C51.6451 27.5527 51.6635 27.5503 51.6812 27.5537C51.6989 27.5576 51.7148 27.5674 51.7263 27.5815L51.728 27.5835Z" fill="#1B1B1B" fill-opacity="1.000000" fill-rule="nonzero"/>
		</g>
		<g opacity="0.600000">
			<path id="Vector" d="M22.3063 21.5625C22.3042 21.7393 22.3263 21.915 22.3719 22.0854C22.3835 22.126 22.3964 22.1646 22.4111 22.2021C22.4249 22.2393 22.4406 22.2759 22.4581 22.3115C22.4911 22.3784 22.5313 22.4419 22.5778 22.5005L22.6115 22.5396C22.6224 22.5527 22.6363 22.5645 22.6481 22.5767C22.6708 22.6016 22.7002 22.6211 22.7241 22.6431C22.7374 22.6533 22.7529 22.6621 22.765 22.6719L22.7849 22.686C22.7915 22.6904 22.799 22.6943 22.8058 22.6982C22.82 22.7061 22.8347 22.7139 22.847 22.7222L22.8894 22.7412C22.8963 22.7441 22.9029 22.748 22.9098 22.7505L22.9312 22.7573C22.9455 22.7612 22.9582 22.7681 22.972 22.772C22.9856 22.7749 22.999 22.7788 23.012 22.7832C23.0247 22.7886 23.0377 22.7896 23.05 22.7935C23.0745 22.8027 23.0984 22.8071 23.1218 22.8159C23.1335 22.8208 23.1451 22.8223 23.1569 22.8257C23.1682 22.8306 23.1799 22.834 23.192 22.8359C23.2041 22.8379 23.2159 22.8403 23.2283 22.8438C23.2407 22.8467 23.2527 22.8452 23.2654 22.8472L23.2844 22.8496C23.2908 22.8501 23.2973 22.8501 23.3037 22.8496C23.3164 22.8496 23.3297 22.8496 23.3431 22.8496C23.3567 22.8496 23.3699 22.8447 23.3837 22.8428C23.3979 22.8418 23.4119 22.8389 23.4255 22.835C23.4548 22.8267 23.4836 22.8174 23.5119 22.8062C23.6333 22.7549 23.7386 22.6719 23.8165 22.5659C23.8619 22.5073 23.9005 22.4434 23.9317 22.3765C23.9401 22.3589 23.9481 22.3418 23.955 22.3237C23.9629 22.3057 23.9698 22.2876 23.9758 22.269C23.9827 22.2515 23.9887 22.2319 23.9948 22.2119C24.0008 22.1914 24.0063 22.1719 24.0115 22.1519C24.0549 21.9888 24.0732 21.8203 24.0656 21.6519L24.0656 21.6489C24.0643 21.6172 24.0744 21.5854 24.0941 21.5601C24.1138 21.5347 24.1419 21.5171 24.1733 21.5107C24.2048 21.5039 24.2375 21.5088 24.2659 21.5239C24.2942 21.5391 24.3163 21.5635 24.3282 21.5933C24.4031 21.7861 24.4429 21.9907 24.4457 22.1973C24.4457 22.2236 24.4457 22.2495 24.4457 22.2754C24.4457 22.3013 24.4457 22.3271 24.4419 22.3545C24.4382 22.3818 24.4382 22.4092 24.4344 22.436C24.4307 22.4634 24.4275 22.4907 24.4229 22.5176C24.4035 22.6289 24.3718 22.7378 24.3285 22.8418C24.2357 23.0669 24.0834 23.2627 23.8879 23.4082C23.8364 23.4448 23.7827 23.4785 23.7272 23.5093C23.6994 23.5249 23.6705 23.5391 23.6409 23.5513C23.6121 23.5635 23.5813 23.5776 23.5499 23.5884C23.5185 23.5991 23.4863 23.6084 23.4537 23.6172C23.4376 23.6216 23.4218 23.6274 23.4051 23.6304L23.355 23.6392C23.3213 23.6445 23.2876 23.6514 23.2536 23.6538C23.2196 23.6567 23.1854 23.6572 23.1508 23.6582C23.1165 23.6597 23.0822 23.6582 23.048 23.6543L22.9968 23.6489C22.9798 23.6479 22.963 23.6455 22.9464 23.6416C22.9133 23.6338 22.8799 23.627 22.847 23.6177L22.8226 23.6108L22.7993 23.6021C22.7834 23.5962 22.7679 23.5894 22.7526 23.5835C22.6916 23.5581 22.6331 23.5264 22.5781 23.4897C22.5513 23.4712 22.526 23.4517 22.5007 23.4321L22.4633 23.4033C22.4512 23.3931 22.4399 23.3818 22.4284 23.3711L22.3607 23.3052C22.34 23.2822 22.3196 23.2588 22.2997 23.2354C22.2899 23.2236 22.2795 23.2119 22.2709 23.1997L22.2438 23.1626C22.2263 23.1372 22.2084 23.1128 22.192 23.0874C22.1599 23.0366 22.131 22.9834 22.1056 22.9287C22.0935 22.8999 22.08 22.875 22.0699 22.8472L22.0411 22.7632C22.006 22.6548 21.9843 22.543 21.9766 22.4297C21.9726 22.3745 21.9714 22.3198 21.9729 22.2656C21.9743 22.2119 21.9803 22.1587 21.9873 22.106C22.015 21.9038 22.0809 21.7085 22.1816 21.5308C22.1892 21.5176 22.201 21.5073 22.2151 21.5015C22.2292 21.4956 22.2448 21.4946 22.2596 21.4985C22.2743 21.5024 22.2874 21.5107 22.2967 21.5229C22.306 21.5352 22.3112 21.5498 22.3112 21.5649L22.3063 21.5625Z" fill="#1B1B1B" fill-opacity="1.000000" fill-rule="nonzero"/>
		</g>
		<g opacity="0.600000">
			<path id="Vector" d="M25.5579 17.2671C25.6102 17.4355 25.6851 17.5962 25.7808 17.7446C25.8041 17.7793 25.8282 17.8125 25.8539 17.8442C25.8795 17.8755 25.9048 17.9058 25.9319 17.9336C25.9843 17.9873 26.0422 18.0356 26.1047 18.0771L26.1487 18.106C26.1634 18.1152 26.1798 18.1216 26.1948 18.1299C26.2236 18.1465 26.2581 18.1562 26.2878 18.1699C26.3036 18.1753 26.3201 18.1797 26.3353 18.1846L26.3586 18.1919C26.3664 18.1938 26.3745 18.1953 26.3825 18.1968C26.3984 18.1997 26.4136 18.2036 26.4289 18.207L26.475 18.2124C26.4824 18.2124 26.4899 18.2144 26.4974 18.2148L26.5199 18.2148C26.5349 18.2148 26.5486 18.2168 26.563 18.2148C26.5768 18.2139 26.5907 18.2139 26.6046 18.2148C26.6183 18.2148 26.6313 18.2129 26.6443 18.2129C26.6705 18.2129 26.6943 18.2109 26.7194 18.2129C26.7318 18.2129 26.7433 18.2129 26.7557 18.2129C26.7679 18.2144 26.7801 18.2144 26.7922 18.2129C26.8044 18.2114 26.8165 18.2104 26.8291 18.2095C26.8418 18.2085 26.853 18.2036 26.8654 18.2012L26.8844 18.1978C26.8906 18.1958 26.8967 18.1938 26.9025 18.1914C26.9146 18.1865 26.927 18.1821 26.9397 18.1782C26.9523 18.1738 26.9639 18.1655 26.9766 18.1597C26.9896 18.1543 27.0021 18.147 27.014 18.1392C27.037 18.1216 27.0646 18.1064 27.0862 18.0864C27.1862 18.0005 27.2609 17.8892 27.3025 17.7642C27.3271 17.6948 27.344 17.6226 27.3528 17.5493C27.3555 17.5303 27.3578 17.5112 27.3589 17.4917C27.36 17.4722 27.3618 17.4531 27.3621 17.4341C27.3624 17.415 27.3621 17.3945 27.3621 17.3735C27.3621 17.3525 27.3621 17.332 27.3595 17.3115C27.3511 17.1431 27.3168 16.9771 27.2576 16.8188L27.2576 16.8164C27.2465 16.7861 27.2464 16.7529 27.2574 16.7227C27.2684 16.6929 27.2897 16.6675 27.3176 16.6514C27.3455 16.6353 27.3782 16.6299 27.4099 16.6357C27.4415 16.6411 27.47 16.6582 27.4905 16.6826C27.6208 16.8433 27.7213 17.0259 27.7874 17.2217C27.7957 17.2461 27.8035 17.271 27.811 17.2954C27.8185 17.3203 27.8256 17.3452 27.832 17.3721C27.8383 17.3989 27.845 17.4253 27.8499 17.4521C27.8547 17.4785 27.8599 17.5059 27.8636 17.5332C27.8792 17.645 27.8825 17.7583 27.8735 17.8706C27.8539 18.1133 27.7689 18.3462 27.6276 18.5444C27.5898 18.5947 27.5491 18.6431 27.5055 18.6885C27.4835 18.7119 27.4601 18.7344 27.4352 18.7549C27.4105 18.7764 27.3868 18.7988 27.36 18.8188C27.3333 18.8384 27.3054 18.8569 27.2774 18.876C27.2633 18.8853 27.2487 18.8955 27.2348 18.9048L27.1899 18.9287C27.1597 18.9438 27.1297 18.9609 27.098 18.9741C27.0663 18.9868 27.0341 18.998 27.0016 19.0098C26.9694 19.0215 26.9362 19.0312 26.9025 19.0386L26.8522 19.0488C26.8356 19.0532 26.8187 19.0557 26.8018 19.0571C26.7681 19.0601 26.7341 19.0635 26.7001 19.0649L26.6745 19.0649L26.6494 19.0649L26.5994 19.0615C26.5334 19.0557 26.4683 19.0435 26.4047 19.0254C26.3736 19.0161 26.3434 19.0049 26.3131 18.9937L26.2682 18.9766C26.2535 18.9707 26.2394 18.9629 26.2253 18.9565L26.1407 18.9146C26.1139 18.8989 26.0871 18.8828 26.0609 18.8662C26.048 18.8584 26.0347 18.8501 26.022 18.8418L25.9852 18.813C25.9607 18.7944 25.936 18.7769 25.9126 18.7578C25.8668 18.7188 25.8233 18.6768 25.7825 18.6328C25.7626 18.6104 25.7419 18.5894 25.7249 18.5659L25.6708 18.4951C25.6041 18.4028 25.5491 18.3027 25.5072 18.1973C25.4865 18.146 25.4685 18.0942 25.4534 18.0425C25.439 17.9902 25.4274 17.938 25.418 17.8862C25.3824 17.6851 25.3853 17.479 25.4266 17.2788C25.4297 17.2637 25.4377 17.2505 25.4493 17.2402C25.4609 17.2305 25.4755 17.2246 25.4908 17.2241C25.506 17.2231 25.5211 17.2275 25.5338 17.2358C25.5463 17.2446 25.5557 17.2573 25.5605 17.2715L25.5579 17.2671Z" fill="#1B1B1B" fill-opacity="1.000000" fill-rule="nonzero"/>
		</g>
		<g opacity="0.600000">
			<path id="Vector" d="M54.7912 22.75C54.9436 22.8389 55.1074 22.9062 55.2781 22.9512C55.3187 22.9609 55.359 22.9692 55.399 22.9751C55.438 22.9814 55.4773 22.9863 55.5168 22.9888C55.5915 22.9932 55.6664 22.9897 55.7405 22.979L55.7914 22.9692C55.8085 22.9663 55.8251 22.96 55.8416 22.9556C55.8747 22.9482 55.9064 22.9326 55.9374 22.9229C55.9527 22.916 55.9662 22.9082 55.9824 22.9014L56.0045 22.8916C56.0117 22.8877 56.0184 22.8828 56.0256 22.8789C56.0391 22.8706 56.0529 22.8628 56.0665 22.855L56.1042 22.8281C56.1102 22.8237 56.1168 22.8193 56.1226 22.8149L56.139 22.7998C56.1497 22.7891 56.1617 22.7817 56.1718 22.771C56.1808 22.7607 56.1904 22.751 56.2006 22.7422C56.2113 22.7334 56.2191 22.7227 56.2294 22.7134C56.2496 22.6963 56.2651 22.6777 56.2847 22.6626C56.2945 22.6548 56.3014 22.645 56.3106 22.6367C56.3201 22.6289 56.3289 22.6201 56.3368 22.6108C56.3443 22.6016 56.3527 22.5928 56.3613 22.5835C56.3699 22.5742 56.3751 22.563 56.3826 22.5532L56.3941 22.5381C56.3978 22.5327 56.4008 22.5269 56.4033 22.521C56.4091 22.5093 56.4154 22.498 56.4221 22.4863C56.4286 22.4741 56.4313 22.4604 56.4367 22.4478C56.4426 22.4346 56.4472 22.4214 56.4506 22.4072C56.4578 22.3789 56.4637 22.3501 56.4681 22.3208C56.484 22.1904 56.4641 22.0576 56.4105 21.9375C56.3817 21.8696 56.3454 21.8047 56.3022 21.7446C56.2916 21.729 56.2804 21.7134 56.2683 21.6987C56.2562 21.6836 56.2444 21.668 56.2314 21.6533C56.2185 21.6387 56.2052 21.6245 56.1906 21.6084C56.1758 21.5918 56.1617 21.5796 56.1468 21.564C56.0269 21.4458 55.8895 21.3462 55.7394 21.269L55.7368 21.2676C55.7084 21.2529 55.6863 21.2285 55.6742 21.1987C55.6621 21.1689 55.6608 21.1362 55.6706 21.1055C55.6804 21.0752 55.7006 21.0493 55.7277 21.0322C55.7548 21.0151 55.7871 21.0083 55.8188 21.0127C56.0234 21.043 56.2208 21.1104 56.4016 21.2104C56.4243 21.2227 56.4468 21.2358 56.4692 21.249C56.4917 21.2617 56.5133 21.2759 56.5361 21.2915C56.5588 21.3071 56.5815 21.3218 56.6035 21.3384C56.6253 21.355 56.6472 21.3716 56.6685 21.3892C56.7555 21.4614 56.8342 21.5425 56.9032 21.6318C57.0526 21.8242 57.147 22.0532 57.1765 22.2949C57.1827 22.3579 57.1854 22.4214 57.1842 22.4844C57.1839 22.5166 57.1816 22.5488 57.1773 22.5811C57.1733 22.6138 57.1713 22.6465 57.1646 22.6787C57.158 22.7114 57.1502 22.7437 57.1422 22.7764C57.1378 22.793 57.1349 22.8096 57.1292 22.8252L57.1119 22.873C57.1001 22.9048 57.0892 22.9375 57.0748 22.9683C57.0604 22.9995 57.0437 23.0293 57.0273 23.0596C57.0114 23.0898 56.9933 23.1187 56.9731 23.146L56.9443 23.1875C56.9346 23.2017 56.924 23.2153 56.9124 23.228C56.8893 23.2524 56.8666 23.2778 56.8424 23.3018L56.8243 23.3198L56.805 23.3359C56.7921 23.3467 56.7788 23.3569 56.7656 23.3667C56.7132 23.4072 56.657 23.4424 56.5977 23.4717C56.5689 23.4858 56.5386 23.4976 56.5087 23.5098L56.4638 23.5273C56.4488 23.5327 56.435 23.5371 56.4186 23.5415L56.3279 23.5679C56.2974 23.5742 56.2668 23.5801 56.2366 23.5859C56.2214 23.5884 56.2061 23.5913 56.1911 23.5938L56.1453 23.5986C56.1148 23.6011 56.0846 23.605 56.0543 23.606C55.9942 23.6084 55.934 23.6069 55.8741 23.6016C55.8453 23.5986 55.8148 23.5972 55.7852 23.5923L55.6987 23.5762C55.5873 23.5532 55.4792 23.5161 55.3768 23.4663C55.327 23.4424 55.2789 23.4165 55.2328 23.3887C55.1868 23.3604 55.1433 23.3286 55.1013 23.2969C54.9394 23.1719 54.8026 23.0181 54.6982 22.8423C54.6888 22.8267 54.6861 22.8076 54.6906 22.79C54.6951 22.7725 54.7065 22.7568 54.7224 22.7476C54.7329 22.7412 54.7449 22.7383 54.7572 22.7383C54.7695 22.7383 54.7815 22.7412 54.7921 22.7476L54.7912 22.75Z" fill="#1B1B1B" fill-opacity="1.000000" fill-rule="nonzero"/>
		</g>
		<g opacity="0.300000">
			<g opacity="0.300000">
				<path id="Vector" d="M25.9374 35.3081C24.8254 38.7749 21.534 35.8916 24.0831 33.7681C24.0831 33.7681 23.5233 36.3755 25.9374 35.3081Z" fill="#1B1B1B" fill-opacity="1.000000" fill-rule="nonzero"/>
			</g>
		</g>
		<g opacity="0.300000">
			<g opacity="0.300000">
				<path id="Vector" d="M24.2354 22.397C24.2354 25.6758 20.7981 24.7676 22.1755 22.0005C22.5991 23.1035 23.3809 23.4775 24.2354 22.397Z" fill="#1B1B1B" fill-opacity="1.000000" fill-rule="nonzero"/>
			</g>
		</g>
		<g opacity="0.300000">
			<g opacity="0.300000">
				<path id="Vector" d="M27.6083 17.2407C28.8176 20.6655 24.7103 21.0137 25.4908 17.6904C25.8286 19.2778 27.946 18.8281 27.6083 17.2407Z" fill="#1B1B1B" fill-opacity="1.000000" fill-rule="nonzero"/>
			</g>
		</g>
		<g opacity="0.350000">
			<g opacity="0.350000">
				<path id="Vector" d="M54.9232 28.1489C55.3686 31.8481 51.011 31.5581 51.9667 28.1489C53.0018 29.4805 53.996 29.7173 54.9232 28.1489Z" fill="#1B1B1B" fill-opacity="1.000000" fill-rule="nonzero"/>
			</g>
		</g>
		<g opacity="0.300000">
			<g opacity="0.300000">
				<path id="Vector" d="M51.8826 16.1636C52.6378 18.9043 55.2719 16.5439 53.6061 14.377C53.6061 14.3774 53.1803 16.0923 51.8826 16.1636Z" fill="#1B1B1B" fill-opacity="1.000000" fill-rule="nonzero"/>
			</g>
		</g>
		<g opacity="0.300000">
			<g opacity="0.300000">
				<path id="Vector" d="M56.824 22.0718C57.9443 25.124 54.866 25.6768 54.9553 23.0645C55.9386 23.4316 56.7255 23.417 56.824 22.0718Z" fill="#1B1B1B" fill-opacity="1.000000" fill-rule="nonzero"/>
			</g>
		</g>
	</g>
	<g opacity="0.300000">
		<g opacity="0.300000">
			<path id="Vector" d="M32.358 28.7017C32.3517 28.7529 32.3114 29.0376 32.2512 29.394C32.0822 29.6958 31.7756 29.917 31.447 30.0361C31.0439 30.1831 30.6025 30.2002 30.1735 30.2158L29.016 28.5186C29.1337 28.4067 29.2573 28.3008 29.3863 28.2021C29.1384 29.6909 32.1024 30.1851 32.358 28.7017Z" fill="#1B1B1B" fill-opacity="1.000000" fill-rule="nonzero"/>
		</g>
	</g>
	<g opacity="0.350000">
		<g opacity="0.350000">
			<path id="Vector" d="M57.6007 33.4819C56.4373 33.3745 55.7366 33.9126 55.4988 35.0962C55.3502 34.7104 55.3191 34.2905 55.288 33.8765L56.9427 32.6567C57.1987 32.9004 57.42 33.1782 57.6007 33.4819Z" fill="#1B1B1B" fill-opacity="1.000000" fill-rule="nonzero"/>
		</g>
	</g>
	<g opacity="0.200000">
		<g opacity="0.200000">
			<path id="Vector" d="M58.4958 60.8359C58.4958 62.5835 49.4789 64 38.356 64C27.2331 64 18.2162 62.5835 18.2162 60.8359C18.2162 59.0884 27.2331 57.6719 38.356 57.6719C49.4789 57.6719 58.4958 59.0884 58.4958 60.8359Z" fill="#650000" fill-opacity="1.000000" fill-rule="evenodd"/>
		</g>
	</g>
</svg>
