<svg width="63.749756" height="56.888916" viewBox="0 0 63.7498 56.8889" fill="none" xmlns="http://www.w3.org/2000/svg" xmlns:xlink="http://www.w3.org/1999/xlink">
	<desc>
			Created with Pixso.
	</desc>
	<defs/>
	<g opacity="0.350000">
		<g opacity="0.350000">
			<g opacity="0.350000">
				<path id="Vector" d="M53.087 47.6951L3.72369 47.6951C1.47668 47.6951 -0.240845 45.7107 0.108704 43.5186L3.79462 20.3643C3.91626 19.6035 4.57996 19.043 5.35767 19.043L51.6379 19.043C52.4308 19.043 53.1022 19.6211 53.2086 20.3967L56.4308 43.9165C56.7045 45.9158 55.1313 47.6951 53.087 47.6951Z" fill="#792937" fill-opacity="1.000000" fill-rule="nonzero"/>
			</g>
		</g>
		<g opacity="0.350000">
			<g opacity="0.350000">
				<path id="Vector" d="M53.0867 47.7578L3.72369 47.7578C2.63434 47.7578 1.60077 47.2874 0.894043 46.469C0.187256 45.6509 -0.124329 44.5723 0.0453491 43.5063L3.73126 20.3518C3.85791 19.5562 4.54193 18.978 5.3576 18.978L51.6378 18.978C52.4585 18.978 53.1602 19.5835 53.2717 20.387L56.494 43.9067C56.6282 44.8774 56.3293 45.8584 55.6758 46.5967C55.0222 47.335 54.0798 47.7578 53.0867 47.7578ZM5.3576 19.1057C4.60522 19.1057 3.97449 19.6387 3.85541 20.3743L0.169495 43.5288C0.00482178 44.5574 0.303772 45.5981 0.987732 46.3889C1.67175 47.1797 2.6698 47.6326 3.72113 47.6326L53.0842 47.6326C54.0392 47.6326 54.9487 47.2249 55.577 46.5142C56.2052 45.8035 56.494 44.8601 56.3648 43.9241L53.1425 20.4043C53.0411 19.6636 52.3926 19.1057 51.6352 19.1057L5.3576 19.1057Z" fill="#1B1B1B" fill-opacity="1.000000" fill-rule="nonzero"/>
			</g>
		</g>
	</g>
	<path id="Vector" d="M17.8973 41.0063L17.8973 43.5188C17.8973 44.0894 17.4312 44.5498 16.8536 44.5498L12.547 44.5498C12.0809 44.5498 11.6705 44.2444 11.5413 43.7991L11.1588 42.4653L10.7408 41.0063L17.8973 41.0063Z" fill="#FFD78F" fill-opacity="1.000000" fill-rule="nonzero"/>
	<path id="Vector" d="M16.851 44.6147L12.5444 44.6147C12.0505 44.6147 11.6122 44.2869 11.478 43.8188L10.6572 40.9463L17.9606 40.9463L17.9606 43.5212C17.9606 44.1216 17.4615 44.6147 16.851 44.6147ZM10.8243 41.0688L11.5995 43.7839C11.7186 44.1992 12.1087 44.4895 12.5444 44.4895L16.8535 44.4895C17.3956 44.4895 17.8364 44.0542 17.8364 43.5186L17.8364 41.0688L10.8243 41.0688Z" fill="#1B1B1B" fill-opacity="1.000000" fill-rule="nonzero"/>
	<path id="Vector" d="M58.6423 41.0066L58.2243 42.4656L57.8418 43.7993C57.7151 44.2446 57.3047 44.55 56.8361 44.55L52.5295 44.55C51.952 44.55 51.4858 44.0896 51.4858 43.519L51.4858 41.0066L58.6423 41.0066Z" fill="#FFD78F" fill-opacity="1.000000" fill-rule="nonzero"/>
	<path id="Vector" d="M56.8387 44.6147L52.5321 44.6147C51.9216 44.6147 51.4225 44.1243 51.4225 43.5188L51.4225 40.9438L58.726 40.9438L57.9026 43.8164C57.7709 44.2869 57.3326 44.6147 56.8387 44.6147ZM51.5492 41.0688L51.5492 43.5188C51.5492 44.0542 51.99 44.4895 52.5321 44.4895L56.8387 44.4895C57.2769 44.4895 57.6645 44.1992 57.7836 43.7839L58.5613 41.0688L51.5492 41.0688Z" fill="#1B1B1B" fill-opacity="1.000000" fill-rule="nonzero"/>
	<path id="Vector" d="M63.306 34.9231L5.8009 34.9231L10.1505 7.59229C10.2721 6.83154 10.9359 6.271 11.7136 6.271L57.9937 6.271C58.7867 6.271 59.4579 6.84912 59.5644 7.62476L63.306 34.9231Z" fill="#FFD78F" fill-opacity="1.000000" fill-rule="nonzero"/>
	<path id="Vector" d="M63.377 34.9856L5.72491 34.9856L10.0872 7.58228C10.2139 6.78662 10.8978 6.2085 11.7136 6.2085L57.9937 6.2085C58.8145 6.2085 59.5162 6.81396 59.6277 7.61743L63.377 34.9856ZM5.87439 34.8606L63.2325 34.8606L59.501 7.63232C59.3997 6.8916 58.7512 6.3335 57.9937 6.3335L11.7136 6.3335C10.9612 6.3335 10.3304 6.8667 10.2113 7.60229L5.87439 34.8606Z" fill="#1B1B1B" fill-opacity="1.000000" fill-rule="nonzero"/>
	<g opacity="0.350000">
		<g opacity="0.350000">
			<path id="Vector" d="M13.4387 6.271C12.661 6.271 11.9973 6.83154 11.8757 7.59229L7.52612 34.9231L6.13281 34.9231L10.4824 7.59229C10.604 6.83154 11.2678 6.271 12.0455 6.271L13.4387 6.271Z" fill="#1B1B1B" fill-opacity="1.000000" fill-rule="nonzero"/>
		</g>
	</g>
	<g opacity="0.550000">
		<g opacity="0.550000">
			<path id="Vector" d="M63.306 34.9231L61.7861 34.9231L58.0444 7.62476C57.938 6.84912 57.2667 6.271 56.4738 6.271L57.9938 6.271C58.7867 6.271 59.458 6.84912 59.5644 7.62476L63.306 34.9231Z" fill="#FFFFFF" fill-opacity="1.000000" fill-rule="nonzero"/>
		</g>
	</g>
	<path id="Vector" d="M5.80096 34.9231L7.06 39.8276C7.2373 40.521 7.87067 41.0088 8.59515 41.0088L60.5118 41.0088C61.2364 41.0088 61.8697 40.5234 62.047 39.8276L63.306 34.9231L5.80096 34.9231Z" fill="#FFD78F" fill-opacity="1.000000" fill-rule="nonzero"/>
	<path id="Vector" d="M60.5118 41.0688L8.59515 41.0688C7.84027 41.0688 7.18414 40.5635 6.99921 39.8428L5.71991 34.8606L63.3871 34.8606L62.1078 39.8428C61.9229 40.5635 61.2642 41.0688 60.5118 41.0688ZM5.88202 34.9856L7.12079 39.8127C7.29309 40.4807 7.8985 40.9463 8.59515 40.9463L60.5118 40.9463C61.2085 40.9463 61.8139 40.4807 61.9862 39.8127L63.225 34.9856L5.88202 34.9856Z" fill="#1B1B1B" fill-opacity="1.000000" fill-rule="nonzero"/>
	<g opacity="0.350000">
		<g opacity="0.350000">
			<path id="Vector" d="M10.7408 41.0063L17.8973 41.0063L17.8973 42.4678L11.1562 42.4678L10.7408 41.0063Z" fill="#1B1B1B" fill-opacity="1.000000" fill-rule="nonzero"/>
		</g>
	</g>
	<g opacity="0.350000">
		<g opacity="0.350000">
			<path id="Vector" d="M58.6423 41.0063L58.2242 42.4678L51.4858 42.4678L51.4858 41.0063L58.6423 41.0063Z" fill="#1B1B1B" fill-opacity="1.000000" fill-rule="nonzero"/>
		</g>
	</g>
	<g opacity="0.350000">
		<g opacity="0.350000">
			<path id="Vector" d="M10.3229 41.0063L8.59515 41.0063C7.87067 41.0063 7.2373 40.521 7.06 39.8276L5.80096 34.9231L7.52869 34.9231L8.79022 39.8276C8.96503 40.521 9.59833 41.0063 10.3229 41.0063Z" fill="#1B1B1B" fill-opacity="1.000000" fill-rule="nonzero"/>
		</g>
	</g>
	<g opacity="0.550000">
		<g opacity="0.550000">
			<path id="Vector" d="M63.306 34.9231L62.047 39.8276C61.8671 40.521 61.2364 41.0063 60.5118 41.0063L58.8652 41.0063C59.5897 41.0063 60.2231 40.521 60.4004 39.8276L61.6594 34.9231L63.306 34.9231Z" fill="#FFFFFF" fill-opacity="1.000000" fill-rule="nonzero"/>
		</g>
	</g>
	<g opacity="0.550000">
		<g opacity="0.550000">
			<path id="Vector" d="M17.7706 41.0063L17.7706 43.5188C17.7706 44.0894 17.3046 44.5498 16.7269 44.5498L15.7719 44.5498C16.3495 44.5498 16.8156 44.0894 16.8156 43.5188L16.8156 41.0063L17.7706 41.0063Z" fill="#FFFFFF" fill-opacity="1.000000" fill-rule="nonzero"/>
		</g>
	</g>
	<g opacity="0.550000">
		<g opacity="0.550000">
			<path id="Vector" d="M58.6423 41.0063L57.8444 43.7991C57.7177 44.2444 57.3073 44.5498 56.8386 44.5498L55.6683 44.5498C56.1369 44.5498 56.5473 44.2444 56.674 43.7991L57.472 41.0063L58.6423 41.0063Z" fill="#FFFFFF" fill-opacity="1.000000" fill-rule="nonzero"/>
		</g>
	</g>
	<path id="Vector" d="M16.8511 44.9902L12.5445 44.9902C11.8808 44.9902 11.2931 44.5498 11.1132 43.9192L10.3152 41.1267C10.2494 40.8938 10.3862 40.6511 10.6218 40.5862C10.8574 40.521 11.1031 40.6562 11.1689 40.8889L11.9669 43.6814C12.0404 43.9368 12.2785 44.1143 12.5471 44.1143L16.8536 44.1143C17.1855 44.1143 17.4565 43.8467 17.4565 43.5188L17.4565 41.0066C17.4565 40.7637 17.6541 40.5686 17.8998 40.5686C18.1456 40.5686 18.3432 40.7637 18.3432 41.0066L18.3432 43.5188C18.3406 44.3296 17.6719 44.9902 16.8511 44.9902Z" fill="#1B1B1B" fill-opacity="1.000000" fill-rule="nonzero"/>
	<path id="Vector" d="M56.8386 44.9902L52.532 44.9902C51.7113 44.9902 51.045 44.3296 51.045 43.5188L51.045 41.0066C51.045 40.7637 51.2426 40.5686 51.4883 40.5686C51.7341 40.5686 51.9317 40.7637 51.9317 41.0066L51.9317 43.5188C51.9317 43.8467 52.2028 44.1143 52.5346 44.1143L56.8411 44.1143C57.1097 44.1143 57.3478 43.9368 57.4213 43.6814L58.2192 40.8889C58.2851 40.6562 58.5308 40.521 58.7664 40.5862C59.002 40.6511 59.1388 40.8938 59.0729 41.1267L58.275 43.9192C58.09 44.5498 57.5023 44.9902 56.8386 44.9902Z" fill="#1B1B1B" fill-opacity="1.000000" fill-rule="nonzero"/>
	<path id="Vector" d="M63.3061 35.3608L5.80096 35.3608C5.67175 35.3608 5.54767 35.3059 5.46405 35.2083C5.38043 35.1106 5.34247 34.9832 5.36273 34.8555L9.71234 7.52466C9.86938 6.5437 10.7104 5.83301 11.7136 5.83301L57.9938 5.83301C59.0046 5.83301 59.8685 6.57861 60.0027 7.56714L63.7444 34.8655C63.7621 34.9905 63.7241 35.1182 63.6379 35.2134C63.5544 35.3059 63.4327 35.3608 63.3061 35.3608ZM6.31775 34.4851L62.7969 34.4851L59.1262 7.68237C59.0502 7.12671 58.5638 6.70874 57.9938 6.70874L11.7136 6.70874C11.1487 6.70874 10.675 7.10913 10.5863 7.65967L6.31775 34.4851Z" fill="#1B1B1B" fill-opacity="1.000000" fill-rule="nonzero"/>
	<path id="Vector" d="M60.5118 41.4443L8.59515 41.4443C7.66541 41.4443 6.8573 40.8237 6.62933 39.9329L5.3703 35.0281C5.30951 34.793 5.45386 34.5552 5.69202 34.4951C5.93011 34.4351 6.17078 34.5776 6.23157 34.813L7.4906 39.7175C7.61981 40.218 8.0733 40.5684 8.59515 40.5684L60.5118 40.5684C61.0337 40.5684 61.4897 40.218 61.6163 39.7175L62.8754 34.813C62.9362 34.5776 63.1768 34.4375 63.415 34.4951C63.6531 34.5552 63.795 34.793 63.7367 35.0281L62.4777 39.9329C62.2471 40.8237 61.439 41.4443 60.5118 41.4443Z" fill="#1B1B1B" fill-opacity="1.000000" fill-rule="nonzero"/>
	<g opacity="0.350000">
		<g opacity="0.350000">
			<g opacity="0.350000">
				<path id="Vector" d="M46.7765 30.9319L37.5984 30.9319C37.2388 30.9319 36.8942 31.0669 36.6308 31.3047L35.8784 31.9954L33.7023 33.9871C33.454 34.2148 33.1754 34.395 32.8841 34.5303C32.4585 34.7278 31.9974 34.8254 31.5364 34.823C30.7612 34.823 29.986 34.5427 29.3781 33.9871L26.4521 31.3047C26.1887 31.0645 25.8441 30.9319 25.4844 30.9319L16.3089 30.9319C14.0138 30.9319 12.2607 28.9075 12.6179 26.6677L12.5952 19.8037C12.5571 19.4761 12.5622 19.1382 12.6179 18.7954L14.6091 6.271L48.7499 6.271L50.4776 18.8728C50.5029 19.0581 50.5156 19.2407 50.5106 19.4185C50.5106 19.4409 50.5106 19.4634 50.508 19.4834L50.5106 19.4834L50.4776 26.7454C50.7841 28.96 49.0387 30.9319 46.7765 30.9319Z" fill="#792937" fill-opacity="1.000000" fill-rule="nonzero"/>
			</g>
		</g>
		<g opacity="0.350000">
			<g opacity="0.350000">
				<path id="Vector" d="M31.5464 34.8855C31.5439 34.8855 31.5414 34.8855 31.5363 34.8855C30.7156 34.8831 29.9353 34.5803 29.335 34.0322L26.409 31.3523C26.1557 31.1221 25.8289 30.9944 25.4844 30.9944L16.3089 30.9944C15.1968 30.9944 14.143 30.5164 13.421 29.6807C12.699 28.8447 12.3824 27.7439 12.5571 26.6577L12.5344 19.8037C12.4963 19.4709 12.5014 19.1257 12.5571 18.7878L14.5584 6.21094L48.8106 6.21094L50.5459 18.8679C50.5712 19.0557 50.5839 19.2432 50.5789 19.4233C50.5789 19.4385 50.5789 19.4509 50.5789 19.4661L50.5789 19.4885L50.5459 26.7478C50.6929 27.814 50.3635 28.8975 49.6415 29.7131C48.9196 30.5288 47.8759 30.9968 46.779 30.9968L37.601 30.9968C37.259 30.9968 36.9296 31.1245 36.6763 31.3547L33.7479 34.0322C33.4996 34.26 33.2184 34.4451 32.9144 34.5852C32.4914 34.783 32.0176 34.8855 31.5464 34.8855ZM14.6649 6.3335L12.6813 18.8054C12.6281 19.1331 12.623 19.4685 12.661 19.7964L12.6838 26.6677C12.5166 27.7263 12.8206 28.7922 13.5198 29.5981C14.219 30.4062 15.2374 30.8691 16.3115 30.8691L25.4894 30.8691C25.8644 30.8691 26.2216 31.0068 26.4977 31.2595L29.4261 33.9421C30.0037 34.4702 30.7535 34.7605 31.5414 34.7629C31.5439 34.7629 31.5464 34.7629 31.549 34.7629C32.0024 34.7629 32.4559 34.6628 32.8612 34.4751C33.1551 34.3401 33.4261 34.1624 33.6642 33.9421L36.5927 31.2595C36.8688 31.0068 37.2286 30.8691 37.601 30.8691L46.779 30.8691C47.8404 30.8691 48.8486 30.4163 49.5453 29.6282C50.2419 28.8398 50.5611 27.7913 50.4193 26.7529L50.4522 19.5461L50.4496 19.5461L50.4522 19.4785C50.4522 19.4585 50.4522 19.4385 50.4522 19.4185C50.4547 19.2432 50.4446 19.063 50.4193 18.8804L48.6992 6.3335L14.6649 6.3335Z" fill="#1B1B1B" fill-opacity="1.000000" fill-rule="nonzero"/>
			</g>
		</g>
	</g>
	<g opacity="0.250000">
		<g opacity="0.250000">
			<g opacity="0.250000">
				<path id="Vector" d="M62.5132 27.4912C61.3149 27.4211 60.1699 27.7915 59.1692 28.3594C58.9184 28.5046 58.6777 28.6621 58.4421 28.8274C58.2091 28.9951 57.9811 29.1753 57.7607 29.3628C57.5428 29.553 57.325 29.7458 57.1172 29.9485C56.9095 30.1511 56.7043 30.3589 56.5042 30.5715C56.0989 30.9919 55.7087 31.4324 55.3161 31.8728C54.9158 32.3081 54.5206 32.751 54.0925 33.1689C53.2489 34.0046 52.2939 34.783 51.1919 35.2483C52.19 34.5979 53.0234 33.772 53.8037 32.9011C54.1888 32.4607 54.5739 32.0178 54.9539 31.5625C55.3364 31.1145 55.729 30.6665 56.1369 30.2288C56.5523 29.7983 56.9855 29.3804 57.4542 29C57.6923 28.8123 57.9355 28.6348 58.1913 28.467C58.4472 28.302 58.7107 28.1519 58.9843 28.0166C59.2604 27.8865 59.5391 27.7639 59.8279 27.6687C60.1192 27.5762 60.4131 27.4985 60.7145 27.446C61.016 27.4011 61.3174 27.3735 61.6215 27.3784C61.9229 27.386 62.2218 27.426 62.5132 27.4912Z" fill="#1B1B1B" fill-opacity="1.000000" fill-rule="nonzero"/>
			</g>
		</g>
		<g opacity="0.250000">
			<g opacity="0.250000">
				<path id="Vector" d="M62.5916 29.6455C62.0646 29.8484 61.5986 30.126 61.211 30.479C60.8209 30.8291 60.5093 31.2522 60.3041 31.7151C60.0989 32.1804 60.0001 32.6934 60.0027 33.2139C60.0052 33.7371 60.1141 34.2625 60.3218 34.783C59.9317 34.3726 59.6911 33.8196 59.605 33.2466C59.5214 32.6709 59.5974 32.063 59.838 31.5173C60.0787 30.9719 60.4789 30.5039 60.9627 30.1736C61.4491 29.8433 62.0216 29.6406 62.5916 29.6455Z" fill="#1B1B1B" fill-opacity="1.000000" fill-rule="nonzero"/>
			</g>
		</g>
		<g opacity="0.250000">
			<g opacity="0.250000">
				<path id="Vector" d="M7.45013 22.061C7.79974 23.6226 8.50397 25.0764 9.48438 26.3076C10.4647 27.5361 11.7162 28.5471 13.1449 29.2029C13.8593 29.5405 14.6142 29.8059 15.3716 30.0837C16.1266 30.3689 16.8942 30.6567 17.6161 31.0596C18.3381 31.4575 19.0044 31.9653 19.5364 32.5911C19.7998 32.9062 20.0303 33.249 20.1976 33.6221C20.3672 33.9924 20.4737 34.3901 20.5041 34.7881C20.3369 34.0024 19.9062 33.3091 19.3514 32.7561C18.7992 32.1956 18.1329 31.7578 17.4312 31.4075C16.7219 31.0645 15.9695 30.7917 15.2095 30.5315C14.4496 30.2664 13.6794 30.001 12.9296 29.6582C12.1848 29.3054 11.4755 28.865 10.8422 28.3369C10.2114 27.8064 9.64392 27.2085 9.16766 26.5427C8.21014 25.219 7.58948 23.6575 7.45013 22.061Z" fill="#1B1B1B" fill-opacity="1.000000" fill-rule="nonzero"/>
			</g>
		</g>
		<g opacity="0.250000">
			<g opacity="0.250000">
				<path id="Vector" d="M6.35065 30.2361C7.0473 30.1208 7.76166 30.0708 8.48114 30.1633C9.19806 30.251 9.92004 30.4937 10.5229 30.9465C10.8218 31.1719 11.0828 31.457 11.2804 31.7749C11.478 32.0928 11.6173 32.4431 11.6857 32.8035C11.8301 33.5215 11.7186 34.2898 11.3336 34.8828C11.5185 34.2073 11.4932 33.5215 11.3007 32.8984C11.103 32.2729 10.7281 31.73 10.2139 31.342C9.69708 30.9517 9.06885 30.7014 8.41022 30.5437C7.74902 30.3887 7.05237 30.3259 6.35065 30.2361Z" fill="#1B1B1B" fill-opacity="1.000000" fill-rule="nonzero"/>
			</g>
		</g>
		<g opacity="0.250000">
			<g opacity="0.250000">
				<path id="Vector" d="M61.9026 24.6809L61.2034 24.6458C60.9703 24.6458 60.7373 24.6409 60.5042 24.6458C60.2712 24.6558 60.0381 24.6584 59.8076 24.6733C59.5745 24.6934 59.344 24.7034 59.1135 24.7334C58.1888 24.8335 57.2743 25.0088 56.375 25.239C54.5739 25.6919 52.8335 26.355 51.1312 27.0957C49.4288 27.8389 47.7467 28.6421 46.0292 29.3828C44.3116 30.1211 42.5459 30.7842 40.7119 31.2295C39.7948 31.4524 38.8575 31.5999 37.9202 31.6975C37.4515 31.7524 36.9803 31.7725 36.5092 31.8C36.038 31.8101 35.5668 31.8276 35.0956 31.8076C34.1532 31.7852 33.2108 31.7175 32.2786 31.5874C31.3464 31.4624 30.4192 31.2971 29.5047 31.0769C25.8466 30.2161 22.3685 28.6897 19.2374 26.6802C20.048 27.1382 20.8713 27.571 21.7098 27.9766C22.5483 28.3794 23.402 28.7473 24.2684 29.0825C25.9987 29.7632 27.7795 30.3013 29.5933 30.6965C31.4072 31.0769 33.2514 31.3196 35.1032 31.3347C35.5643 31.3447 36.0278 31.3296 36.4889 31.3171C36.95 31.2871 37.411 31.2646 37.8695 31.2095C38.7866 31.1094 39.6985 30.9619 40.5953 30.7417C42.3914 30.3162 44.1318 29.6631 45.8442 28.9448C47.5593 28.2317 49.2464 27.4385 50.9792 26.7329C52.7068 26.0195 54.4852 25.3992 56.3193 24.9988C57.2363 24.8035 58.166 24.6633 59.1033 24.6008C59.3364 24.5808 59.572 24.5808 59.8051 24.5684C60.0381 24.5608 60.2737 24.5684 60.5068 24.5684C60.7398 24.5757 60.9754 24.5933 61.2085 24.6057L61.9026 24.6809Z" fill="#1B1B1B" fill-opacity="1.000000" fill-rule="nonzero"/>
			</g>
		</g>
		<g opacity="0.250000">
			<g opacity="0.250000">
				<path id="Vector" d="M60.712 15.9878L59.8254 15.79C59.6785 15.7576 59.5315 15.7227 59.3821 15.6951L58.9337 15.6199C58.6348 15.5698 58.3384 15.5125 58.0394 15.4697L57.1401 15.3623C56.8412 15.3196 56.5397 15.3047 56.2383 15.2822L55.7874 15.2495C55.6379 15.2395 55.4859 15.2246 55.3364 15.2271C54.7335 15.217 54.1306 15.1921 53.5276 15.2246C51.116 15.2695 48.7195 15.675 46.4168 16.3533L45.5605 16.636L45.1324 16.7786L44.7119 16.9412C44.4332 17.0513 44.1495 17.1541 43.8734 17.2666L43.0501 17.6294C42.774 17.7444 42.508 17.8821 42.2394 18.0173C41.9734 18.1548 41.7024 18.28 41.4415 18.4277C40.9221 18.728 40.3978 19.0132 39.8962 19.3411C38.8854 19.9866 37.9 20.6797 36.879 21.3403C36.3699 21.6707 35.8505 21.991 35.316 22.2888C34.7815 22.5867 34.2343 22.8643 33.6618 23.0972C33.0918 23.3298 32.5041 23.5325 31.8986 23.6702C31.2932 23.8103 30.6776 23.8953 30.0569 23.9253C28.8182 23.9854 27.5743 23.8352 26.3837 23.5049C25.1956 23.1746 24.0607 22.6716 23.012 22.0334C21.9632 21.3979 21.0031 20.6196 20.1646 19.7314C19.3235 18.8455 18.6218 17.8372 18.0468 16.771C17.4717 15.7051 17.0208 14.574 16.6889 13.4153C16.3621 12.2544 16.1646 11.0605 16.0632 9.86694L16.0277 9.41919L16.0074 8.96875C15.9897 8.66846 15.9897 8.36816 15.9872 8.07031C15.9821 7.77002 16.0024 7.47217 16.0074 7.17188C16.0201 6.87158 16.0455 6.57397 16.0632 6.27612C15.9796 8.66577 16.2126 11.0757 16.9271 13.3503C17.2792 14.4863 17.7402 15.5898 18.3254 16.6235C18.9081 17.6594 19.6123 18.6252 20.4457 19.4712C22.1152 21.1501 24.2178 22.4314 26.5129 23.0471C27.658 23.3547 28.8486 23.5 30.0316 23.4375C30.6219 23.4075 31.2096 23.3247 31.7847 23.1897C32.3597 23.0571 32.9196 22.8594 33.4667 22.6367C34.0165 22.4138 34.5485 22.1487 35.0703 21.8584C35.5922 21.5706 36.1039 21.2578 36.608 20.9326C37.6188 20.2844 38.6068 19.5886 39.6378 18.9431C41.7024 17.647 43.9595 16.656 46.3028 15.9854C48.6537 15.3423 51.0856 14.9744 53.5201 14.9795C54.1281 14.9668 54.736 15.0095 55.3441 15.0396C55.496 15.0444 55.648 15.062 55.7975 15.0769L56.2509 15.1221C56.5524 15.1521 56.8564 15.177 57.1553 15.2295L58.0546 15.3672C58.3536 15.4197 58.65 15.4873 58.9464 15.5474L59.3922 15.6399C59.5391 15.675 59.686 15.7175 59.8329 15.7551L60.712 15.9878Z" fill="#1B1B1B" fill-opacity="1.000000" fill-rule="nonzero"/>
			</g>
		</g>
		<g opacity="0.250000">
			<g opacity="0.250000">
				<path id="Vector" d="M10.8928 6.82422C11.7946 10.0623 13.5071 13.1025 15.8529 15.5898C13.3855 13.2202 11.4957 10.2397 10.4089 6.97168C10.3658 6.84155 10.4368 6.69897 10.571 6.65649C10.7028 6.61401 10.8472 6.68408 10.8903 6.81665C10.8903 6.81665 10.8928 6.82153 10.8928 6.82422Z" fill="#1B1B1B" fill-opacity="1.000000" fill-rule="nonzero"/>
			</g>
		</g>
		<g opacity="0.250000">
			<g opacity="0.250000">
				<path id="Vector" d="M47.4605 6.271C48.1901 7.17188 49.0337 7.95752 49.9811 8.58325C50.4573 8.89087 50.9539 9.16626 51.4757 9.38135C51.9951 9.60425 52.5347 9.77686 53.0869 9.8894C53.6366 10.012 54.2015 10.0771 54.7664 10.092C55.3339 10.1172 55.9014 10.072 56.4662 9.99951C57.5961 9.83936 58.7006 9.49658 59.7545 8.99609C58.8096 9.67676 57.6974 10.1448 56.5347 10.3823C55.9545 10.5076 55.3567 10.5625 54.7589 10.5652C54.161 10.5625 53.5632 10.4976 52.978 10.3774C52.3928 10.2473 51.8203 10.062 51.2781 9.81177C50.7385 9.55664 50.2217 9.25879 49.7506 8.89844C48.8082 8.18774 48.0153 7.28687 47.4605 6.271Z" fill="#1B1B1B" fill-opacity="1.000000" fill-rule="nonzero"/>
			</g>
		</g>
		<g opacity="0.250000">
			<g opacity="0.250000">
				<path id="Vector" d="M61.1528 17.9521C60.1622 18.1375 59.1312 17.9922 58.2066 18.2075C57.9761 18.26 57.7531 18.3352 57.5454 18.4277C57.3402 18.5251 57.1477 18.6479 56.9932 18.7981C56.6841 19.0884 56.4941 19.5237 56.5144 19.9292C56.5169 20.0293 56.5372 20.1267 56.5676 20.2219C56.603 20.312 56.6436 20.3997 56.7043 20.4797C56.8234 20.6399 56.9982 20.7725 57.1958 20.8826C57.3909 20.9976 57.6163 21.0876 57.8393 21.1777C58.0647 21.2629 58.2952 21.3379 58.5258 21.408C59.458 21.6733 60.4434 21.7759 61.4415 21.7234C60.4738 21.9836 59.4301 21.9961 58.4295 21.7883C58.1787 21.7358 57.9305 21.6733 57.6873 21.5906C57.4441 21.5081 57.2034 21.4231 56.9628 21.3003C56.7247 21.1777 56.4891 21.0076 56.3066 20.7749C56.2155 20.6599 56.1471 20.5222 56.0913 20.3845C56.0432 20.2444 56.0128 20.0994 56.0052 19.9541C55.9951 19.6638 56.0584 19.3811 56.1724 19.1257C56.2889 18.8706 56.451 18.6379 56.6638 18.4526C57.0869 18.0874 57.6138 17.8972 58.1281 17.8271C58.6474 17.7471 59.1616 17.782 59.6581 17.8271C60.1622 17.8772 60.6512 17.9373 61.1528 17.9521Z" fill="#1B1B1B" fill-opacity="1.000000" fill-rule="nonzero"/>
			</g>
		</g>
		<g opacity="0.250000">
			<g opacity="0.250000">
				<path id="Vector" d="M9.53754 12.3242C10.105 12.637 10.6269 13.0325 11.1006 13.4829C11.5667 13.9407 11.9872 14.4487 12.3317 15.0068C13.0208 16.1204 13.4692 17.3989 13.5072 18.7378C13.5148 19.4033 13.4008 20.0867 13.1221 20.7046C12.8409 21.3176 12.4052 21.8833 11.8175 22.2485C10.6497 22.9919 9.03595 22.8643 8.06573 21.9934C9.1601 22.6865 10.6168 22.624 11.5945 21.9258C12.0809 21.573 12.4559 21.075 12.6813 20.5171C12.9169 19.9614 13.0157 19.356 13.0005 18.7454C12.9955 18.1348 12.8815 17.5217 12.7067 16.926C12.5395 16.3281 12.2836 15.7549 11.9923 15.2019C11.6909 14.6538 11.3311 14.1335 10.9207 13.6504C10.5103 13.165 10.0417 12.7271 9.53754 12.3242Z" fill="#1B1B1B" fill-opacity="1.000000" fill-rule="nonzero"/>
			</g>
		</g>
	</g>
	<g opacity="0.200000">
		<g opacity="0.200000">
			<g opacity="0.200000">
				<path id="Vector" d="M51.7772 35.3335C50.9311 36.5671 49.8367 37.6409 48.5878 38.499L48.3522 38.6592C48.2737 38.7144 48.1951 38.7644 48.1116 38.812L47.6226 39.1021C47.2857 39.2798 46.9513 39.4624 46.6017 39.6125C45.9076 39.9229 45.1856 40.1831 44.4409 40.3633C43.6986 40.5461 42.9386 40.6687 42.171 40.7136L41.596 40.7288L41.3098 40.7363C41.2134 40.7363 41.1172 40.7312 41.0235 40.7263L40.4484 40.7063L39.8759 40.6536L39.5897 40.6262L39.3059 40.5862L38.7385 40.501L38.1761 40.3909L37.8949 40.3359L37.6162 40.2708L37.0615 40.1382L36.5117 39.988C36.1444 39.8928 35.7847 39.7727 35.4199 39.6653C33.9785 39.1997 32.5674 38.6619 31.1589 38.1387C30.4547 37.876 29.7504 37.6208 29.0411 37.3806C28.3293 37.1428 27.6149 36.9102 26.898 36.6873C25.4617 36.2495 24.0151 35.844 22.5458 35.5312C21.8112 35.3711 21.074 35.2285 20.3292 35.1233C20.1443 35.0933 19.9568 35.0732 19.7694 35.0483C19.5819 35.0232 19.397 35.0007 19.2095 34.9832C18.8346 34.9382 18.4597 34.9106 18.0848 34.8806C19.5946 34.8782 21.1019 35.0408 22.594 35.291C24.0861 35.5464 25.5554 35.9041 27.0095 36.312C27.7365 36.5171 28.4585 36.7324 29.1779 36.9626C29.8974 37.1929 30.6118 37.4407 31.3236 37.6934C32.7422 38.2039 34.1482 38.7344 35.5744 39.1873C35.9316 39.2949 36.2863 39.415 36.6486 39.51L37.1881 39.6602L37.7302 39.7927L38.0013 39.8579L38.2749 39.9128L38.8221 40.0229L39.3718 40.1082L39.6479 40.1506L39.924 40.1807L40.4763 40.2407L41.0311 40.2708C41.1248 40.2759 41.216 40.2808 41.3098 40.2832L41.5884 40.2808L42.1432 40.2759C42.8829 40.2383 43.6176 40.1406 44.342 39.9829C45.0691 39.8303 45.7734 39.5901 46.4624 39.3123C46.8094 39.1772 47.1413 39.012 47.4757 38.8494L47.9646 38.5818C48.1293 38.4966 48.2812 38.3889 48.4434 38.2939L48.6815 38.1487L48.912 37.9912C49.064 37.8835 49.2236 37.7859 49.368 37.6682L49.8113 37.3279L50.2344 36.9626C50.3054 36.9026 50.3738 36.8401 50.4396 36.7749L50.6398 36.5798L50.8398 36.3845L51.0298 36.1794L51.2224 35.9741L51.3187 35.8716L51.4073 35.7639L51.7772 35.3335Z" fill="#1B1B1B" fill-opacity="1.000000" fill-rule="nonzero"/>
			</g>
		</g>
	</g>
	<g opacity="0.200000">
		<g opacity="0.200000">
			<g opacity="0.200000">
				<path id="Vector" d="M24.922 41.0063C24.3242 40.4585 23.668 39.9829 22.9714 39.5801C22.2798 39.1697 21.5477 38.8345 20.7979 38.5391C20.6129 38.459 20.4229 38.3965 20.2329 38.3289C20.043 38.2639 19.8555 38.1887 19.6655 38.1262L19.0879 37.9509L18.7991 37.8635L18.5078 37.7908L17.9251 37.6406C17.73 37.5957 17.5325 37.5581 17.3349 37.5181C16.9422 37.428 16.5445 37.3804 16.1468 37.3179C15.9492 37.283 15.7491 37.2705 15.549 37.2454C15.3488 37.2253 15.1512 37.1929 14.9485 37.1853C14.5483 37.1628 14.1455 37.1277 13.7452 37.1304C12.9397 37.0952 12.1366 37.1553 11.3336 37.2129C9.73004 37.373 8.14166 37.7134 6.59131 38.2188C8.06311 37.5205 9.65912 37.0627 11.288 36.8274C12.9194 36.6047 14.5837 36.6023 16.2203 36.825C17.8517 37.0676 19.4603 37.498 20.9575 38.1863C21.3273 38.364 21.7048 38.5266 22.062 38.7317C22.4217 38.9319 22.7712 39.1472 23.1082 39.3799C23.777 39.8428 24.4027 40.3809 24.922 41.0063Z" fill="#1B1B1B" fill-opacity="1.000000" fill-rule="nonzero"/>
			</g>
		</g>
	</g>
	<g opacity="0.200000">
		<g opacity="0.200000">
			<g opacity="0.200000">
				<path id="Vector" d="M9.27155 41.0063C9.47168 40.626 9.74017 40.2756 10.0467 39.9602C10.3583 39.6499 10.7104 39.3748 11.0955 39.1494C11.4805 38.9219 11.8986 38.7542 12.3342 38.6292C12.77 38.5115 13.2234 38.4539 13.6743 38.4563C14.5787 38.4563 15.478 38.6917 16.2557 39.1321C16.6459 39.3496 17.0005 39.6226 17.3146 39.9302C17.6212 40.2456 17.8871 40.606 18.0493 41.0063C17.5325 40.3157 16.8257 39.8276 16.0734 39.4773C15.3184 39.1321 14.4926 38.9592 13.6718 38.9568C13.2614 38.9543 12.851 39.002 12.4482 39.0894C12.0455 39.177 11.6579 39.3223 11.2779 39.4949C10.903 39.675 10.5432 39.8901 10.2089 40.1455C9.87445 40.3958 9.56543 40.6885 9.27155 41.0063Z" fill="#1B1B1B" fill-opacity="1.000000" fill-rule="nonzero"/>
			</g>
		</g>
	</g>
	<g opacity="0.200000">
		<g opacity="0.200000">
			<g opacity="0.200000">
				<path id="Vector" d="M35.1286 34.9231C35.8734 35.4561 36.6764 35.8789 37.52 36.1667C37.9431 36.3069 38.3712 36.4246 38.8094 36.4946C39.2451 36.5696 39.6859 36.6096 40.1292 36.6045C40.57 36.6072 41.0133 36.5671 41.449 36.4919C41.8873 36.4219 42.3154 36.3044 42.7385 36.1667C43.582 35.8789 44.3851 35.4585 45.1298 34.9255C44.5269 35.6138 43.7441 36.1592 42.8829 36.5295C42.4547 36.7197 42.0013 36.8547 41.5402 36.9575C41.0767 37.0525 40.6055 37.1001 40.1318 37.105C39.658 37.1025 39.1843 37.0549 38.7208 36.9575C38.2597 36.8547 37.8062 36.7197 37.3781 36.5295C36.5143 36.1567 35.7315 35.6113 35.1286 34.9231Z" fill="#1B1B1B" fill-opacity="1.000000" fill-rule="nonzero"/>
			</g>
		</g>
	</g>
	<g opacity="0.200000">
		<g opacity="0.200000">
			<g opacity="0.200000">
				<path id="Vector" d="M50.6677 41.0063C51.3947 40.2581 52.256 39.6301 53.1857 39.127C53.6493 38.8718 54.1357 38.6592 54.6296 38.4666C55.1262 38.2812 55.6379 38.1311 56.1572 38.0085C56.6765 37.896 57.2059 37.8132 57.7354 37.7708C58.2648 37.7332 58.7994 37.7207 59.3288 37.7559C60.3877 37.8184 61.4365 38.0234 62.4168 38.3914C61.3807 38.2263 60.3472 38.1335 59.3187 38.1462C58.8044 38.1562 58.2902 38.1787 57.7835 38.2437C57.2744 38.3013 56.7677 38.3813 56.2712 38.499C55.7722 38.6067 55.2781 38.7493 54.7943 38.9119C54.3079 39.072 53.8342 39.2671 53.363 39.4749C52.4257 39.9004 51.5315 40.4182 50.6677 41.0063Z" fill="#1B1B1B" fill-opacity="1.000000" fill-rule="nonzero"/>
			</g>
		</g>
	</g>
	<path id="Vector" d="M54.2927 16.2878C54.2927 16.3103 54.2927 16.3328 54.2927 16.3528C54.2698 17.1487 53.9861 17.8892 53.52 18.4873C52.8411 19.3582 51.7746 19.9312 50.5561 19.9312L41.3781 19.9312C41.1855 19.9312 40.9981 19.9688 40.8233 20.0413C40.6738 20.1038 40.532 20.1938 40.4129 20.304L37.3071 23.1467L36.5016 23.885C35.8378 24.4929 34.8094 24.4929 34.1431 23.885L30.2318 20.304C29.9683 20.0637 29.6238 19.9287 29.2666 19.9287L20.0886 19.9287C18.1456 19.9287 16.5901 18.4773 16.3748 16.6707C16.3369 16.3428 16.3419 16.0049 16.3951 15.6621L18.485 2.53735C18.6776 1.32861 19.7314 0.437744 20.9702 0.437744L49.9633 0.437744C51.2224 0.437744 52.2888 1.3562 52.4561 2.58984L54.2597 15.7422C54.285 15.9248 54.2977 16.1077 54.2927 16.2878Z" fill="#FFFFFF" fill-opacity="1.000000" fill-rule="nonzero"/>
	<path id="Vector" d="M35.3236 24.4004C34.8828 24.4004 34.4446 24.2429 34.1026 23.9302L30.1912 20.3491C29.9379 20.1189 29.6111 19.9912 29.2665 19.9912L20.0886 19.9912C18.1608 19.9912 16.5369 18.5674 16.314 16.6782C16.2734 16.3379 16.2811 15.9951 16.3368 15.6548L18.4242 2.52734C18.6218 1.28101 19.6934 0.375244 20.9727 0.375244L49.9659 0.375244C51.2502 0.375244 52.3497 1.32373 52.5219 2.58228L54.3231 15.7322C54.3484 15.9199 54.3611 16.1077 54.356 16.2878C54.356 16.3103 54.356 16.3328 54.3535 16.3555C54.3307 17.1436 54.0596 17.8943 53.5682 18.5225C52.8411 19.4558 51.7442 19.9888 50.5561 19.9888L41.3781 19.9888C41.1957 19.9888 41.0184 20.0239 40.8486 20.0964C40.7043 20.1565 40.57 20.2415 40.456 20.3467L36.5446 23.9275C36.2026 24.2429 35.7618 24.4004 35.3236 24.4004ZM20.9727 0.500244C19.7567 0.500244 18.7383 1.36108 18.5508 2.54736L16.4634 15.6721C16.4103 16 16.4052 16.3354 16.4432 16.6631C16.6585 18.4873 18.2291 19.8638 20.0936 19.8638L29.2716 19.8638C29.6465 19.8638 30.0037 20.0012 30.2798 20.2542L34.1912 23.835C34.8271 24.418 35.8252 24.418 36.4636 23.8374L40.3749 20.2566C40.5016 20.1414 40.646 20.0488 40.8056 19.9812C40.9905 19.9038 41.1855 19.8662 41.3857 19.8662L50.5637 19.8662C51.7138 19.8662 52.7753 19.3481 53.477 18.4473C53.9507 17.8394 54.2142 17.1135 54.2344 16.3503C54.2369 16.3279 54.2344 16.3079 54.2344 16.2878L54.2344 16.2854C54.2369 16.1125 54.2268 15.9324 54.2015 15.7498L52.4003 2.59741C52.2357 1.40112 51.192 0.500244 49.9709 0.500244L20.9727 0.500244Z" fill="#1B1B1B" fill-opacity="1.000000" fill-rule="nonzero"/>
	<g opacity="0.350000">
		<g opacity="0.350000">
			<path id="Vector" d="M52.8665 16.3254C53.1805 16.3254 53.4009 16.6357 53.2921 16.926C53.1603 17.2739 52.9779 17.6018 52.7499 17.8921C52.6359 18.0396 52.5118 18.1772 52.375 18.3049C51.9545 18.7053 51.3895 18.9255 50.8044 18.9255L42.356 18.9255C41.9987 18.9255 41.6542 19.0581 41.3933 19.2983L41.3553 19.3333L40.5497 20.0715L37.4819 22.8818C37.3452 23.0068 37.1931 23.1045 37.0336 23.1794C36.6358 23.3623 36.1824 23.3872 35.7695 23.2546C35.5364 23.1794 35.316 23.0569 35.1235 22.8818L31.2121 19.3008C30.9487 19.0605 30.6041 18.928 30.2469 18.928L21.0689 18.928C19.1259 18.928 17.5705 17.4766 17.3552 15.6699C17.3171 15.3445 17.3222 15.0042 17.3779 14.6614L19.1766 3.35571C19.3387 2.33984 20.1671 1.53394 21.2057 1.44897C21.2513 1.44629 21.2969 1.44141 21.3476 1.44141L19.6579 12.0615C19.6022 12.4043 19.5971 12.7422 19.6351 13.0698C19.8479 14.8767 21.4033 16.3281 23.3489 16.3281L32.5269 16.3281C32.8866 16.3281 33.2311 16.4607 33.4921 16.7009L37.4034 20.2817C37.72 20.572 38.1178 20.7246 38.5206 20.7373C38.9639 20.7522 39.4123 20.6021 39.7593 20.2817L40.7929 19.3359L43.6732 16.6985C43.9367 16.4583 44.2812 16.3254 44.6384 16.3254L52.8665 16.3254Z" fill="#1B1B1B" fill-opacity="1.000000" fill-rule="nonzero"/>
		</g>
	</g>
	<path id="Vector" d="M35.3237 24.7734C34.7917 24.7734 34.2598 24.5833 33.8443 24.2029L29.9329 20.6221C29.7505 20.4568 29.515 20.3643 29.2692 20.3643L20.0887 20.3643C17.9683 20.3643 16.1824 18.7979 15.9366 16.7209C15.8936 16.3479 15.9012 15.9675 15.9594 15.5947L18.0469 2.46729C18.2773 1.03857 19.506 0 20.9728 0L49.966 0C51.4404 0 52.702 1.08862 52.897 2.53247L54.6981 15.6824C54.7311 15.9175 54.7412 16.1477 54.7336 16.3655C54.6678 18.5701 52.7957 20.3643 50.5563 20.3643L41.3782 20.3643C41.1299 20.3643 40.8943 20.4568 40.7145 20.6221L36.8032 24.2029C36.3877 24.5833 35.8557 24.7734 35.3237 24.7734ZM20.9728 0.875732C19.9468 0.875732 19.0855 1.604 18.9259 2.60498L16.8385 15.73C16.7903 16.0251 16.7853 16.3254 16.8182 16.6182C17.0132 18.2522 18.4193 19.4858 20.0912 19.4858L29.2692 19.4858C29.7404 19.4858 30.1913 19.6611 30.5358 19.9763L34.4472 23.5574C34.9387 24.0078 35.7088 24.0078 36.2028 23.5574L40.1141 19.9763C40.4587 19.6611 40.9096 19.4858 41.3808 19.4858L50.5588 19.4858C52.322 19.4858 53.7988 18.072 53.8495 16.3354C53.8495 16.333 53.8495 16.333 53.8495 16.3306C53.8571 16.1604 53.847 15.9802 53.8217 15.7949L52.0205 2.64502C51.8812 1.63403 50.9996 0.873291 49.966 0.873291L20.9728 0.873291L20.9728 0.875732Z" fill="#1B1B1B" fill-opacity="1.000000" fill-rule="nonzero"/>
	<path id="Vector" d="M50.5586 27.7988L41.3806 27.7988C41.0234 27.7988 40.6764 27.9338 40.4155 28.1716L39.6631 28.8623L37.487 30.8542C37.2387 31.0818 36.9601 31.2646 36.6688 31.3972C36.2432 31.5947 35.7821 31.6924 35.321 31.6924C34.5459 31.6899 33.7707 31.4121 33.1627 30.8542L30.2368 28.1716C29.9733 27.9314 29.6288 27.7988 29.2716 27.7988L20.0886 27.7988C17.7935 27.7988 16.0404 25.7744 16.3976 23.5347L16.3773 16.6707C16.5901 18.4749 18.1456 19.9287 20.0911 19.9287L29.2691 19.9287C29.6263 19.9287 29.9733 20.0615 30.2343 20.3042L34.1456 23.885C34.4775 24.1904 34.8954 24.3406 35.321 24.343C35.7441 24.343 36.1697 24.1929 36.5041 23.8875L36.6688 23.7373L39.6631 20.9973L40.4155 20.3091C40.6789 20.0688 41.0234 19.9338 41.3806 19.9338L50.5586 19.9338C52.6105 19.9338 54.2369 18.3123 54.2927 16.3579L54.2597 23.6199C54.5637 25.8293 52.8208 27.7988 50.5586 27.7988Z" fill="#1B1B1B" fill-opacity="1.000000" fill-rule="nonzero"/>
	<g opacity="0.550000">
		<g opacity="0.550000">
			<path id="Vector" d="M50.5587 27.7988L50.5156 27.7988C51.9798 27.1584 52.9324 25.6143 52.6993 23.9302L52.7195 19.2458C53.6493 18.5928 54.2573 17.5317 54.2927 16.3506L54.2598 23.6125C54.5638 25.8296 52.8209 27.7988 50.5587 27.7988Z" fill="#FFFFFF" fill-opacity="1.000000" fill-rule="nonzero"/>
		</g>
	</g>
	<g opacity="0.250000">
		<g opacity="0.250000">
			<path id="Vector" d="M39.957 22.5364L39.957 28.4695L37.7809 30.4614C37.5327 30.689 37.2565 30.8718 36.9626 31.0044L36.9626 25.314C36.9626 25.0386 37.0792 24.7734 37.2844 24.5857L39.6606 22.4087C39.7746 22.3062 39.957 22.3835 39.957 22.5364Z" fill="#FFFFFF" fill-opacity="1.000000" fill-rule="nonzero"/>
		</g>
	</g>
	<path id="Vector" d="M35.3237 32.1228C34.437 32.1228 33.5504 31.8076 32.8588 31.1746L29.9303 28.4944C29.7479 28.3293 29.5123 28.2368 29.2666 28.2368L20.0886 28.2368C18.865 28.2368 17.7073 27.7087 16.9119 26.7903C16.124 25.8821 15.7769 24.6833 15.9543 23.5022L15.934 16.6733C15.934 16.4404 16.1164 16.2478 16.352 16.2354C16.5876 16.2202 16.7902 16.3904 16.8181 16.6206C17.0132 18.2573 18.4191 19.491 20.0911 19.491L29.2691 19.491C29.7403 19.491 30.1912 19.666 30.5358 19.9814L34.4471 23.5623C34.9386 24.0127 35.7087 24.0127 36.2027 23.5623L40.1141 19.9814C40.4586 19.666 40.9095 19.491 41.3807 19.491L50.5588 19.491C52.3219 19.491 53.7988 18.0771 53.8495 16.3403C53.8571 16.1028 54.0521 15.915 54.2928 15.915C54.4119 15.915 54.5233 15.9626 54.6069 16.0452C54.6905 16.1277 54.7361 16.2402 54.7361 16.3555L54.7032 23.5874C54.8552 24.7583 54.4929 25.937 53.7051 26.8279C52.9122 27.7263 51.7646 28.2393 50.5562 28.2393L41.3782 28.2393C41.1299 28.2393 40.8943 28.3293 40.7145 28.4971L37.786 31.177C37.0969 31.8076 36.2103 32.1228 35.3237 32.1228ZM16.8257 18.8228L16.8409 23.5347C16.8409 23.5574 16.8384 23.5823 16.8358 23.6047C16.6864 24.5457 16.96 25.499 17.5857 26.2224C18.2114 26.9456 19.1259 27.3608 20.0886 27.3608L29.2666 27.3608C29.7378 27.3608 30.1887 27.5361 30.5333 27.8513L33.4617 30.5315C34.5054 31.4873 36.1393 31.4873 37.183 30.5315L40.1115 27.8513C40.4561 27.5361 40.907 27.3608 41.3782 27.3608L50.5562 27.3608C51.5062 27.3608 52.4106 26.9556 53.0363 26.2473C53.662 25.5391 53.9482 24.6008 53.8191 23.6699C53.8165 23.6499 53.814 23.6299 53.814 23.6099L53.8368 18.7803C53.0667 19.7437 51.8735 20.3643 50.5562 20.3643L41.3782 20.3643C41.1299 20.3643 40.8943 20.4568 40.7145 20.6221L36.8031 24.2029C35.9722 24.9636 34.6726 24.9636 33.8442 24.2029L29.9329 20.6221C29.7504 20.4568 29.5148 20.3643 29.2691 20.3643L20.0886 20.3643C18.7789 20.3667 17.5958 19.7688 16.8257 18.8228Z" fill="#1B1B1B" fill-opacity="1.000000" fill-rule="nonzero"/>
	<path id="Vector" d="M35.4047 14.0383C47.7062 9.6792 43.9747 -0.122559 35.4047 5.27246C26.8093 0.0700684 23.1032 9.6792 35.4047 14.0383Z" fill="#E07153" fill-opacity="1.000000" fill-rule="nonzero"/>
	<g opacity="0.350000">
		<g opacity="0.350000">
			<path id="Vector" d="M39.2451 12.0688C38.1254 13.1248 36.5395 14.1382 34.4243 14.989C33.8542 15.2192 33.2108 15.2168 32.6408 14.9866C24.395 11.6833 24.2278 5.94043 28.0429 5.14478C27.0195 7.3894 28.9625 11.3381 35.6833 13.7178C37.0665 13.23 38.2495 12.6694 39.2451 12.0688Z" fill="#1B1B1B" fill-opacity="1.000000" fill-rule="nonzero"/>
		</g>
	</g>
	<g opacity="0.350000">
		<g opacity="0.350000">
			<path id="Vector" d="M43.2756 6.97168C43.0628 9.22632 40.7449 12.1465 35.4022 14.0408C27.9543 11.4009 26.3762 6.83643 28.1976 4.79956C28.2736 7.05908 30.5687 10.0745 36.0938 12.0315C39.9418 10.6675 42.2217 8.77075 43.2756 6.97168Z" fill="#1B1B1B" fill-opacity="1.000000" fill-rule="nonzero"/>
		</g>
	</g>
	<g opacity="0.550000">
		<g opacity="0.550000">
			<path id="Vector" d="M41.4338 10.47C44.2686 6.4436 40.8892 2.62744 35.0576 5.97827C34.7511 6.15332 34.3762 6.15845 34.0646 5.9856C31.2704 4.44434 29.0411 4.49927 27.7872 5.41504C28.6611 3.58838 31.5364 2.93286 35.4022 5.27246C42.0291 1.10352 45.7631 6.01318 41.4338 10.47Z" fill="#FFFFFF" fill-opacity="1.000000" fill-rule="nonzero"/>
		</g>
	</g>
	<g opacity="0.350000">
		<g opacity="0.350000">
			<path id="Vector" d="M35.3185 26.4924L35.3185 31.6899C34.5434 31.6875 33.7682 31.4097 33.1602 30.8516L30.2343 28.1692C29.9708 27.929 29.6263 27.7964 29.2691 27.7964L20.0886 27.7964C18.2012 27.7964 16.6788 26.4275 16.3976 24.6934C16.3368 24.323 16.3342 23.9351 16.3976 23.5398C16.3976 23.5374 16.3976 23.5347 16.3976 23.5322L16.3798 17.9495C16.6078 19.7412 18.1556 21.1775 20.0886 21.1775L29.2666 21.1775C29.6238 21.1775 29.9708 21.3101 30.2318 21.553L34.1431 25.1338C34.285 25.2639 34.4421 25.3665 34.6093 25.439C35.0349 25.6292 35.3185 26.0347 35.3185 26.4924Z" fill="#1B1B1B" fill-opacity="1.000000" fill-rule="nonzero"/>
		</g>
	</g>
	<path id="Vector" d="M30.6219 3.77368C31.0145 4.09644 31.3236 4.51196 31.5491 4.96729C31.7745 5.42529 31.9164 5.91821 32.0202 6.41357C32.2254 7.40723 32.2761 8.42065 32.5294 9.3689C32.6535 9.84204 32.8309 10.2925 33.0817 10.7026C33.3299 11.1157 33.6389 11.4885 33.9885 11.8213C34.6902 12.4895 35.5389 12.99 36.4432 13.3677L36.124 14.0483C35.1893 13.5854 34.2976 12.9873 33.5807 12.2117C33.2235 11.8237 32.9094 11.396 32.6662 10.928C32.4179 10.4626 32.2558 9.95459 32.1595 9.45166C31.9594 8.43799 31.9746 7.42969 31.8353 6.44629C31.7643 5.95581 31.6555 5.46777 31.4655 5.00732C31.2704 4.54932 30.9918 4.1189 30.6219 3.77368Z" fill="#FFFFFF" fill-opacity="1.000000" fill-rule="nonzero"/>
	<path id="Vector" d="M34.2748 4.50928C34.1862 5.40747 34.1634 6.30347 34.4091 7.13672C34.6548 7.96509 35.1893 8.71069 35.886 9.28125C36.5826 9.85425 37.4212 10.2646 38.3104 10.5049C39.2021 10.7451 40.1394 10.8303 41.0742 10.8252C40.142 10.8928 39.197 10.8728 38.2673 10.6875C37.3401 10.5 36.4383 10.137 35.653 9.57642C35.2628 9.29614 34.9031 8.96606 34.5991 8.58569C34.2926 8.20776 34.0468 7.7749 33.8695 7.31445C33.6973 6.854 33.6035 6.36841 33.5554 5.89062C33.5073 5.41016 33.5047 4.93213 33.5199 4.46167L34.2748 4.50928Z" fill="#FFFFFF" fill-opacity="1.000000" fill-rule="nonzero"/>
	<path id="Vector" d="M37.5301 4.19409C37.2996 4.97485 37.2945 5.80811 37.5098 6.57397C37.6163 6.9541 37.7784 7.32446 38.0241 7.61475C38.2648 7.90771 38.6042 8.09033 38.9716 8.13794C39.3389 8.18799 39.7214 8.1228 40.0786 7.99268C40.4383 7.86255 40.76 7.65991 41.0767 7.42212C41.3933 7.18701 41.6998 6.92163 42.0266 6.66138C42.356 6.40112 42.7056 6.14844 43.126 5.9458L43.4224 6.63647C43.2578 6.71143 43.0881 6.77661 42.9209 6.87671C42.7537 6.97168 42.589 7.0769 42.4218 7.18945C42.09 7.41211 41.7581 7.65991 41.3984 7.8877C40.6942 8.34814 39.7949 8.6958 38.8981 8.5083C38.4548 8.41553 38.0444 8.14795 37.7936 7.7876C37.5377 7.42969 37.4034 7.02173 37.3224 6.61646C37.1628 5.80322 37.2413 4.95483 37.5301 4.19409Z" fill="#FFFFFF" fill-opacity="1.000000" fill-rule="nonzero"/>
	<path id="Vector" d="M28.4863 4.37939C28.8942 4.65723 29.2692 5.00757 29.5377 5.4353C29.6694 5.65063 29.7758 5.88574 29.8366 6.13354C29.8974 6.38135 29.905 6.63892 29.8746 6.88428C29.8087 7.37476 29.5883 7.81519 29.2996 8.18311C29.0082 8.55347 28.6434 8.84106 28.2634 9.09131C28.6054 8.79346 28.9221 8.45825 29.1425 8.07788C29.3654 7.69995 29.4997 7.27222 29.4946 6.85913C29.4921 6.44629 29.3325 6.0686 29.0715 5.76074C28.8106 5.45044 28.4686 5.21021 28.0937 5.02246L28.4863 4.37939Z" fill="#FFFFFF" fill-opacity="1.000000" fill-rule="nonzero"/>
	<path id="Vector" d="M35.4047 14.4763C35.354 14.4763 35.3033 14.4688 35.2552 14.4512C29.6162 12.4543 27.3413 9.36377 27.0905 7.13916C26.9385 5.78052 27.4705 4.60938 28.5547 3.92871C30.1912 2.90283 32.7346 3.21313 35.3996 4.75708C38.0697 3.14307 40.5396 2.80005 42.209 3.82104C43.311 4.49414 43.8607 5.67529 43.7138 7.06177C43.4731 9.32129 41.2033 12.4468 35.5541 14.4487C35.506 14.4688 35.4554 14.4763 35.4047 14.4763ZM30.8448 4.20142C30.1456 4.20142 29.53 4.35669 29.031 4.66943C28.2432 5.16235 27.8581 6.02832 27.9721 7.04419C28.1899 8.98853 30.2621 11.7136 35.4047 13.5754C40.5574 11.7112 42.6219 8.94849 42.8322 6.97412C42.9437 5.93555 42.546 5.05981 41.7429 4.56934C40.3471 3.71606 38.0671 4.11646 35.6428 5.64282C35.501 5.73291 35.3185 5.73535 35.1741 5.64795C33.5984 4.69434 32.0912 4.20142 30.8448 4.20142Z" fill="#1B1B1B" fill-opacity="1.000000" fill-rule="nonzero"/>
	<g opacity="0.250000">
		<g opacity="0.250000">
			<path id="Vector" d="M41.14 6.0957C41.3325 6.24585 41.5098 6.43115 41.5833 6.66382C41.6593 6.89404 41.6086 7.17676 41.4136 7.32446C41.2565 7.44214 41.0463 7.45215 40.8486 7.44214C40.2457 7.40698 39.6681 7.20435 39.1057 6.98901C38.9005 6.90894 38.675 6.81152 38.5813 6.61377C38.5002 6.44604 38.5383 6.23584 38.6421 6.08081C38.746 5.92554 38.9081 5.81543 39.0778 5.73291C39.4173 5.57031 39.8024 5.51025 40.1748 5.55518C40.5624 5.60278 40.8436 5.8606 41.14 6.0957Z" fill="#FFFFFF" fill-opacity="1.000000" fill-rule="nonzero"/>
		</g>
	</g>
	<g opacity="0.250000">
		<g opacity="0.250000">
			<path id="Vector" d="M36.6663 6.04321C36.5522 6.0957 36.4408 6.15845 36.3673 6.25586C36.2482 6.41357 36.2559 6.64136 36.3572 6.80884C36.4585 6.97656 36.646 7.08423 36.8385 7.12427C37.0336 7.16187 37.2362 7.13428 37.4262 7.07666C37.5605 7.03662 37.6922 6.97656 37.791 6.87891C37.9202 6.74634 37.9709 6.55127 37.9456 6.36841C37.8417 5.63794 37.178 5.81055 36.6663 6.04321Z" fill="#FFFFFF" fill-opacity="1.000000" fill-rule="nonzero"/>
		</g>
	</g>
	<path id="Vector" d="M53.8113 10.1572C54.2902 10.5601 54.4092 11.4009 53.9127 11.7861C53.634 12.0015 53.244 12.0239 52.9045 11.929C52.8918 11.9263 52.8792 11.9214 52.8665 11.9163C52.5422 11.8213 52.256 11.6311 51.9723 11.4458L52.0154 9.78687C52.2965 9.74927 52.5929 9.73926 52.8792 9.77686C53.2211 9.81934 53.5479 9.93457 53.8113 10.1572Z" fill="#FFFFFF" fill-opacity="1.000000" fill-rule="nonzero"/>
	<path id="Vector" d="M51.9977 9.66162C52.4789 9.49658 53.0363 9.44385 53.5885 9.64404C53.7253 9.69678 53.8596 9.76416 53.9811 9.85181C54.0419 9.89185 54.1052 9.94946 54.1635 10.002C54.2192 10.0596 54.2725 10.1196 54.3181 10.1846C54.5029 10.4399 54.6043 10.7427 54.6119 11.063C54.6144 11.2231 54.5891 11.3882 54.5308 11.5483C54.47 11.7085 54.3687 11.8613 54.2395 11.9839C53.9735 12.2317 53.624 12.3167 53.3199 12.3018C53.1655 12.2966 53.0185 12.2666 52.8792 12.219C52.7399 12.1716 52.6157 12.1089 52.4992 12.0388C52.2687 11.8938 52.0787 11.7285 51.9064 11.5459C51.8583 11.4934 51.8608 11.4133 51.9115 11.3633C51.9495 11.3281 52.0002 11.3208 52.0458 11.3357C52.2814 11.4209 52.4992 11.5234 52.712 11.5811C52.9248 11.6484 53.1224 11.6685 53.3047 11.6484C53.4872 11.626 53.6366 11.5559 53.7202 11.4583C53.7633 11.4109 53.7962 11.3557 53.819 11.2908C53.8418 11.2231 53.8494 11.1455 53.8519 11.0654C53.8519 10.9028 53.8013 10.7251 53.7126 10.5801C53.667 10.5049 53.6189 10.4475 53.553 10.3848C53.4846 10.3223 53.4086 10.2646 53.3199 10.2173C52.9755 10.0144 52.5119 9.94189 52.0331 9.9043L52.0306 9.9043C51.9597 9.89941 51.9064 9.83691 51.9115 9.76685C51.9166 9.72168 51.952 9.6792 51.9977 9.66162Z" fill="#1B1B1B" fill-opacity="1.000000" fill-rule="nonzero"/>
	<path id="Vector" d="M44.0911 20.9998C43.7416 21.5178 42.9106 21.7305 42.4673 21.29C42.2191 21.0422 42.1507 20.6619 42.2039 20.3167C42.2064 20.3042 42.2064 20.2915 42.2115 20.2791C42.2698 19.9512 42.4268 19.646 42.5814 19.3481L44.2558 19.1956C44.3267 19.4683 44.3723 19.7585 44.3672 20.0413C44.3596 20.3843 44.2811 20.717 44.0911 20.9998Z" fill="#FFFFFF" fill-opacity="1.000000" fill-rule="nonzero"/>
	<path id="Vector" d="M44.3749 19.1655C44.5953 19.6187 44.7144 20.1592 44.5776 20.7246C44.5421 20.8647 44.4889 21.0024 44.4154 21.1326C44.3825 21.1975 44.3318 21.2651 44.2863 21.3301C44.2356 21.3901 44.1824 21.4502 44.1216 21.5029C43.886 21.7131 43.5947 21.8481 43.273 21.8933C43.1134 21.9158 42.9437 21.9082 42.7739 21.8706C42.6042 21.8306 42.4396 21.748 42.3028 21.6355C42.0242 21.4053 41.895 21.0698 41.8747 20.7698C41.862 20.6169 41.8747 20.4695 41.9051 20.3267C41.938 20.1841 41.9861 20.0564 42.0419 19.9338C42.1609 19.6912 42.3053 19.4834 42.4675 19.2957C42.5131 19.2407 42.5966 19.2356 42.6498 19.2808C42.6878 19.3132 42.703 19.3633 42.6929 19.4084C42.6346 19.6487 42.5587 19.8738 42.5232 20.0916C42.4801 20.3066 42.4827 20.5044 42.5257 20.6821C42.5688 20.8572 42.6574 20.9973 42.7638 21.0674C42.817 21.105 42.8778 21.1299 42.9462 21.145C43.0172 21.1599 43.0956 21.1599 43.1767 21.1526C43.3389 21.1326 43.5136 21.0625 43.6479 20.9597C43.7188 20.9072 43.772 20.8523 43.8252 20.7798C43.8784 20.7046 43.9291 20.6221 43.967 20.532C44.1292 20.1692 44.1495 19.7061 44.1317 19.2332L44.1317 19.2307C44.1292 19.1606 44.1849 19.1006 44.2559 19.0981C44.3065 19.0906 44.3546 19.1206 44.3749 19.1655Z" fill="#1B1B1B" fill-opacity="1.000000" fill-rule="nonzero"/>
	<path id="Vector" d="M18.6117 11.113C18.328 11.2983 18.0417 11.4885 17.7175 11.5835C17.7048 11.5884 17.6921 11.5911 17.6794 11.5959C17.34 11.6912 16.9473 11.666 16.6712 11.4534C16.6509 11.4358 16.6307 11.4209 16.6129 11.4033C16.1848 11.0005 16.3115 10.2122 16.7725 9.8269C17.036 9.60425 17.3628 9.48901 17.7048 9.44653C17.8948 9.42139 18.0949 9.4165 18.2875 9.42651C18.3812 9.43408 18.4749 9.44141 18.5661 9.4541L18.6117 11.113Z" fill="#FFFFFF" fill-opacity="1.000000" fill-rule="nonzero"/>
	<path id="Vector" d="M18.5509 9.57935C18.0721 9.6167 17.6085 9.68945 17.264 9.89209C17.1779 9.9397 17.0993 9.99707 17.0309 10.0598C16.9625 10.1223 16.9144 10.1799 16.8713 10.2549C16.7827 10.4001 16.732 10.5776 16.732 10.7405C16.7346 10.8203 16.7421 10.8979 16.765 10.9656C16.7903 11.0305 16.8207 11.0881 16.8637 11.1333C16.9473 11.2307 17.0968 11.3008 17.2792 11.3235C17.4616 11.3435 17.6592 11.3235 17.8719 11.2559C18.0848 11.1958 18.3026 11.0957 18.5382 11.0105C18.6066 10.9856 18.6801 11.0205 18.7054 11.0857C18.7231 11.1333 18.7104 11.1833 18.6776 11.2183C18.5053 11.3984 18.3153 11.5662 18.0848 11.7112C17.9683 11.7788 17.8441 11.8413 17.7048 11.8914C17.5654 11.939 17.4185 11.9666 17.264 11.9741C16.96 11.989 16.6104 11.9014 16.3444 11.6562C16.2152 11.5337 16.1139 11.3809 16.0531 11.2207C15.9948 11.0605 15.9695 10.8955 15.972 10.7354C15.9796 10.415 16.081 10.1123 16.2659 9.85693C16.3115 9.79199 16.3647 9.73438 16.4204 9.67432C16.4787 9.62183 16.542 9.56421 16.6028 9.52417C16.7244 9.43652 16.8586 9.36646 16.9955 9.31641C17.5477 9.11621 18.105 9.16895 18.5864 9.33398C18.6547 9.35645 18.6902 9.4292 18.6674 9.49658C18.6497 9.54663 18.6041 9.57935 18.556 9.58179L18.5509 9.57935Z" fill="#1B1B1B" fill-opacity="1.000000" fill-rule="nonzero"/>
	<g opacity="0.600000">
		<g opacity="0.600000">
			<g opacity="0.600000">
				<path id="Vector" d="M23.9898 10.2795C23.815 10.6274 23.6833 10.9875 23.6909 11.3079C23.6934 11.468 23.7289 11.6182 23.7922 11.7334C23.8251 11.7935 23.8606 11.8359 23.8961 11.8835C23.9315 11.9285 23.9645 11.9761 24.005 12.0186C24.0835 12.1013 24.1747 12.1614 24.2811 12.1714C24.3875 12.1838 24.5218 12.1487 24.6307 12.0713C24.7447 11.9912 24.8409 11.8635 24.8992 11.7134C24.9651 11.5557 24.998 11.3855 24.998 11.2053L24.998 11.2029C24.998 11.1328 25.0563 11.0752 25.1246 11.0752C25.1829 11.0752 25.2311 11.1128 25.2463 11.1628C25.3121 11.3655 25.3248 11.5881 25.2969 11.8059C25.2665 12.0312 25.1754 12.2588 25.0107 12.4541C24.8435 12.6467 24.6003 12.7869 24.3166 12.8245C24.0303 12.8645 23.7314 12.7693 23.5085 12.6091C23.278 12.4541 23.1285 12.1963 23.0854 11.9385C23.0373 11.6833 23.0627 11.4355 23.131 11.2153C23.2729 10.7676 23.5743 10.4473 23.8885 10.2019C23.9163 10.1794 23.9568 10.1843 23.9797 10.2119C23.9999 10.2295 24.0024 10.2571 23.9898 10.2795Z" fill="#1B1B1B" fill-opacity="1.000000" fill-rule="nonzero"/>
			</g>
		</g>
		<g opacity="0.600000">
			<g opacity="0.600000">
				<path id="Vector" d="M45.9 6.59106C46.1685 6.9314 46.4725 7.23413 46.8069 7.38184C46.9741 7.45679 47.1464 7.49438 47.3009 7.4895C47.3795 7.48682 47.4453 7.47192 47.5137 7.45679C47.5822 7.44189 47.648 7.42676 47.7139 7.4043C47.8405 7.35669 47.952 7.28418 48.0128 7.17163C48.0761 7.06152 48.0964 6.90381 48.0635 6.75122C48.028 6.59619 47.9368 6.43848 47.8051 6.31079C47.6683 6.1731 47.5061 6.06567 47.3187 5.9856C47.2528 5.95801 47.2249 5.88281 47.2502 5.82031C47.2731 5.76782 47.3288 5.73779 47.3845 5.74536C47.6176 5.77539 47.8506 5.86548 48.0584 5.99048C48.2712 6.12305 48.4587 6.31592 48.5778 6.56348C48.6943 6.81372 48.7247 7.11157 48.636 7.4043C48.5474 7.69971 48.3219 7.94482 48.0635 8.09009C47.8051 8.24268 47.4858 8.27515 47.2072 8.20508C46.9285 8.14014 46.6904 8.00732 46.4979 7.84229C46.1052 7.50684 45.9101 7.06641 45.7936 6.64355C45.7834 6.60864 45.8037 6.57349 45.8392 6.56616C45.8569 6.56104 45.8823 6.57104 45.9 6.59106Z" fill="#1B1B1B" fill-opacity="1.000000" fill-rule="nonzero"/>
			</g>
		</g>
		<g opacity="0.300000">
			<g opacity="0.300000">
				<path id="Vector" d="M24.9094 12.1665C24 14.9692 21.3097 12.6394 23.3945 10.9229C23.392 10.9204 22.936 13.0273 24.9094 12.1665Z" fill="#1B1B1B" fill-opacity="1.000000" fill-rule="nonzero"/>
			</g>
		</g>
		<g opacity="0.350000">
			<g opacity="0.350000">
				<path id="Vector" d="M48.5118 7.04883C48.8765 10.0391 45.3149 9.80396 46.0951 7.04883C46.9412 8.12476 47.7543 8.31494 48.5118 7.04883Z" fill="#1B1B1B" fill-opacity="1.000000" fill-rule="nonzero"/>
			</g>
		</g>
		<g opacity="0.600000">
			<g opacity="0.600000">
				<path id="Vector" d="M39.7797 14.3083C40.0483 14.6487 40.3522 14.9514 40.6866 15.0991C40.8538 15.1741 41.0261 15.2117 41.1806 15.2068C41.2592 15.2041 41.325 15.1892 41.3934 15.1741C41.4618 15.1592 41.5277 15.144 41.5936 15.1216C41.7202 15.074 41.8317 15.0015 41.8925 14.8889C41.9558 14.7788 41.9761 14.6211 41.9431 14.4685C41.9077 14.3135 41.8165 14.1558 41.6848 14.0281C41.548 13.8904 41.3858 13.783 41.1984 13.7029C41.1325 13.6753 41.1046 13.6001 41.1299 13.5376C41.1528 13.4851 41.2085 13.4551 41.2642 13.4626C41.4973 13.4927 41.7303 13.5828 41.938 13.7078C42.1509 13.8403 42.3383 14.0332 42.4574 14.2808C42.5739 14.531 42.6043 14.8289 42.5157 15.1216C42.427 15.417 42.2015 15.6621 41.9431 15.8074C41.6848 15.96 41.3655 15.9924 41.0869 15.9224C40.8082 15.8599 40.5701 15.7246 40.3776 15.5596C39.9849 15.2241 39.7899 14.7839 39.6733 14.3608C39.6632 14.3259 39.6835 14.2908 39.7189 14.2834C39.7366 14.2783 39.7645 14.2883 39.7797 14.3083Z" fill="#1B1B1B" fill-opacity="1.000000" fill-rule="nonzero"/>
			</g>
		</g>
		<g opacity="0.350000">
			<g opacity="0.350000">
				<path id="Vector" d="M42.3914 14.7639C42.7561 17.7542 39.1945 17.519 39.9747 14.7639C40.8208 15.8398 41.6339 16.0327 42.3914 14.7639Z" fill="#1B1B1B" fill-opacity="1.000000" fill-rule="nonzero"/>
			</g>
		</g>
	</g>
	<g opacity="0.350000">
		<g opacity="0.350000">
			<path id="Vector" d="M18.6117 11.113C18.328 11.2981 18.0417 11.4883 17.7175 11.5833C17.7048 11.5884 17.6921 11.5908 17.6795 11.5959C17.34 11.6909 16.9474 11.666 16.6713 11.4531C16.651 11.4358 16.6307 11.4207 16.613 11.4031C17.8214 11.2556 18.3787 10.5974 18.2875 9.42627L18.29 9.42383C18.3837 9.4314 18.4775 9.43872 18.5687 9.45142L18.6117 11.113Z" fill="#1B1B1B" fill-opacity="1.000000" fill-rule="nonzero"/>
		</g>
	</g>
	<g opacity="0.350000">
		<g opacity="0.350000">
			<path id="Vector" d="M62.9716 49.144C62.9943 50.0198 62.2723 50.7505 61.3578 50.7732L61.3376 50.7732L24.2963 51.3037L17.3323 51.4038L6.39624 51.5588C5.85156 51.5664 5.4057 51.1536 5.3905 50.6355C5.38293 50.3752 5.48682 50.135 5.65906 49.9597C5.8313 49.7847 6.07196 49.6694 6.34558 49.6594L17.2462 49.249L24.0581 48.9939L61.254 47.5974C62.1736 47.5701 62.9462 48.2607 62.9716 49.144Z" fill="#1B1B1B" fill-opacity="1.000000" fill-rule="nonzero"/>
		</g>
	</g>
	<path id="Vector" d="M62.9716 47.7524C62.9944 48.6284 62.2725 49.3591 61.3579 49.3816L61.3376 49.3816L24.2963 49.9121L17.3324 50.0122L6.3963 50.1672C5.85162 50.1748 5.40576 49.762 5.39056 49.2439C5.383 48.9836 5.48688 48.7434 5.65912 48.5684C5.83136 48.3931 6.07202 48.2781 6.34564 48.2681L17.2463 47.8577L24.0582 47.6023L61.2541 46.2061C62.1736 46.176 62.9463 46.8691 62.9716 47.7524Z" fill="#FFD78F" fill-opacity="1.000000" fill-rule="nonzero"/>
	<path id="Vector" d="M6.38361 50.2324C5.8161 50.2324 5.34497 49.7944 5.32977 49.249C5.32214 48.9788 5.42346 48.7234 5.61603 48.5283C5.80853 48.3333 6.06689 48.2205 6.34558 48.2104L61.2541 46.1487C61.7252 46.1287 62.1736 46.2937 62.5156 46.6091C62.8424 46.9119 63.0273 47.3147 63.04 47.75C63.0527 48.1904 62.8829 48.6108 62.5663 48.9312C62.2496 49.2515 61.824 49.4341 61.3655 49.4441L61.3453 49.4441L24.3039 49.9746L6.40387 50.2324C6.39117 50.2324 6.38867 50.2324 6.38361 50.2324ZM61.3199 46.2712C61.2997 46.2712 61.2769 46.2712 61.2566 46.2712L24.0607 47.6699L6.34814 48.3357C6.10242 48.3457 5.87439 48.4431 5.70465 48.616C5.53748 48.7861 5.44879 49.0112 5.45386 49.2466C5.46655 49.7244 5.88202 50.1099 6.38104 50.1099C6.38611 50.1099 6.38867 50.1099 6.39374 50.1099L24.2938 49.8521L61.3554 49.3215C61.781 49.3091 62.1761 49.1414 62.47 48.8462C62.7639 48.5508 62.9184 48.1631 62.9083 47.7576C62.8981 47.3572 62.7259 46.9819 62.4244 46.7041C62.1255 46.4238 61.7354 46.2712 61.3199 46.2712Z" fill="#1B1B1B" fill-opacity="1.000000" fill-rule="nonzero"/>
	<path id="Vector" d="M45.0259 49.6169L43.5515 49.657C44.1443 48.696 44.0633 47.7026 43.4705 46.6841L44.9449 46.644C45.4794 47.6226 45.5073 48.6135 45.0259 49.6169Z" fill="#1B1B1B" fill-opacity="1.000000" fill-rule="nonzero"/>
	<path id="Vector" d="M48.3396 49.5293L46.3129 49.5842C46.9058 48.6233 46.8246 47.6299 46.2319 46.6113L48.2585 46.5564C48.7956 47.5349 48.8209 48.5232 48.3396 49.5293Z" fill="#1B1B1B" fill-opacity="1.000000" fill-rule="nonzero"/>
	<g opacity="0.550000">
		<g opacity="0.550000">
			<path id="Vector" d="M62.9716 47.7527C62.9742 47.8254 62.9691 47.9004 62.9615 47.9729C62.6829 47.4299 62.0875 47.0623 61.4137 47.0896L24.2177 48.4858L17.4033 48.7388L6.50513 49.1465C6.23157 49.1565 5.99091 49.2693 5.8186 49.4468C5.71985 49.5469 5.6438 49.6694 5.60077 49.8022C5.47662 49.6494 5.39807 49.4568 5.39301 49.2466C5.38544 48.9863 5.48932 48.7488 5.66156 48.571C5.8338 48.3958 6.07446 48.2808 6.34808 48.2708L17.2462 47.8604L24.0582 47.6052L61.2541 46.209C62.1762 46.1763 62.9489 46.8694 62.9716 47.7527Z" fill="#FFFFFF" fill-opacity="1.000000" fill-rule="nonzero"/>
		</g>
	</g>
	<path id="Vector" d="M6.38104 50.6079C5.6084 50.6079 4.97003 50.0073 4.94977 49.259C4.9295 48.5032 5.54761 47.8625 6.33038 47.8352L61.2389 45.7756C61.8114 45.7532 62.3586 45.9534 62.774 46.3362C63.1743 46.7065 63.4023 47.207 63.4175 47.7424C63.4327 48.2781 63.23 48.791 62.85 49.1814C62.4574 49.5869 61.9229 49.8145 61.3478 49.822L6.40637 50.6079C6.39374 50.6079 6.38867 50.6079 6.38104 50.6079ZM61.3199 46.6465C61.3022 46.6465 61.287 46.6465 61.2693 46.6465L6.36078 48.7061C6.06189 48.7161 5.82629 48.9536 5.83386 49.2314C5.84149 49.5068 6.08466 49.7295 6.38104 49.7295C6.38361 49.7295 6.38611 49.7295 6.38867 49.7295L61.3301 48.9463C61.667 48.9412 61.9786 48.8086 62.2066 48.5732C62.4219 48.353 62.5359 48.0654 62.5283 47.7651C62.5208 47.4648 62.3915 47.1846 62.1635 46.9744C61.9355 46.7615 61.6366 46.6465 61.3199 46.6465Z" fill="#1B1B1B" fill-opacity="1.000000" fill-rule="nonzero"/>
	<g opacity="0.350000">
		<g opacity="0.350000">
			<path id="Vector" d="M62.9514 55.3049C62.9489 56.1833 62.204 56.8889 61.2921 56.8889L61.2718 56.8889L24.2305 56.3684L17.2665 56.2708L6.33044 56.1157C5.78833 56.1082 5.3526 55.6829 5.3526 55.1648C5.3526 54.9045 5.46155 54.6694 5.63885 54.4966C5.81616 54.3264 6.06189 54.219 6.33295 54.2163L17.2412 54.1162L24.0582 54.0537L61.2794 53.7158C62.2015 53.7058 62.9539 54.4216 62.9514 55.3049Z" fill="#1B1B1B" fill-opacity="1.000000" fill-rule="nonzero"/>
		</g>
	</g>
	<path id="Vector" d="M62.9921 53.9136C62.9895 54.792 62.2448 55.4976 61.3328 55.4976L61.3125 55.4976L24.2711 54.9771L17.3071 54.8794L6.37097 54.7244C5.82886 54.7168 5.39313 54.2915 5.39313 53.7734C5.39313 53.5132 5.50208 53.2781 5.67938 53.1052C5.85669 52.9351 6.10242 52.8276 6.37347 52.825L17.2817 52.7249L24.0988 52.6624L61.3201 52.3245C62.2422 52.3145 62.9946 53.0303 62.9921 53.9136Z" fill="#FFD78F" fill-opacity="1.000000" fill-rule="nonzero"/>
	<path id="Vector" d="M45.0007 55.2673L43.5238 55.2649C44.1445 54.3213 44.0912 53.3254 43.5289 52.292L45.0057 52.2944C45.5124 53.2854 45.5099 54.2764 45.0007 55.2673Z" fill="#1B1B1B" fill-opacity="1.000000" fill-rule="nonzero"/>
	<path id="Vector" d="M48.3167 55.2722L46.2901 55.2698C46.9108 54.3262 46.8575 53.3303 46.2952 52.2969L48.3218 52.2993C48.8284 53.2903 48.8259 54.2812 48.3167 55.2722Z" fill="#1B1B1B" fill-opacity="1.000000" fill-rule="nonzero"/>
	<g opacity="0.550000">
		<g opacity="0.550000">
			<path id="Vector" d="M62.992 53.9111C62.992 53.9863 62.9869 54.0588 62.9743 54.1289C62.7108 53.5759 62.1282 53.1956 61.4518 53.2004L24.2305 53.5383L17.4135 53.6008L6.50775 53.7009C6.23419 53.7034 5.99097 53.811 5.81366 53.9812C5.71234 54.0789 5.63379 54.1965 5.58563 54.3291C5.46405 54.1714 5.39313 53.9788 5.39313 53.7686C5.39313 53.5083 5.50458 53.2729 5.68195 53.1003C5.85925 52.9277 6.10498 52.8225 6.37604 52.8201L17.2817 52.72L24.0988 52.6575L61.3201 52.3196C62.2422 52.3147 62.9946 53.0278 62.992 53.9111Z" fill="#FFFFFF" fill-opacity="1.000000" fill-rule="nonzero"/>
		</g>
	</g>
	<path id="Vector" d="M61.3377 55.9355C61.3276 55.9355 61.3174 55.9355 61.3048 55.9355L6.36334 55.1597C5.58307 55.1497 4.94727 54.5242 4.94977 53.7686C4.95233 53.0127 5.58813 52.3896 6.37091 52.3821L61.3174 51.8816C61.8925 51.8767 62.4321 52.0918 62.8349 52.4873C63.225 52.8701 63.4378 53.3755 63.4378 53.9111C63.4378 54.4465 63.2199 54.9521 62.8298 55.3325C62.4296 55.7229 61.9001 55.9355 61.3377 55.9355ZM61.3174 55.0596C61.6519 55.0596 61.9685 54.9421 62.2041 54.7119C62.4245 54.4966 62.5486 54.2139 62.5486 53.9111C62.5486 53.6108 62.427 53.3254 62.2092 53.1104C61.9786 52.8826 61.6696 52.76 61.3377 52.76C61.3326 52.76 61.3301 52.76 61.3251 52.76L6.37854 53.2605C6.07959 53.2629 5.83643 53.4932 5.83643 53.771C5.83643 54.0488 6.07709 54.2791 6.37598 54.2839L61.3174 55.0596Z" fill="#1B1B1B" fill-opacity="1.000000" fill-rule="nonzero"/>
</svg>
