<svg width="64.003326" height="61.090942" viewBox="0 0 64.0033 61.0909" fill="none" xmlns="http://www.w3.org/2000/svg" xmlns:xlink="http://www.w3.org/1999/xlink">
	<desc>
			Created with Pixso.
	</desc>
	<defs/>
	<path id="Vector" d="M36.1324 60.5441L32.4227 58.741C31.8931 58.4851 31.6394 57.8683 31.8309 57.309L33.0816 53.64L33.7778 51.5938C33.7778 51.5938 37.2364 50.2419 38.9123 54.0864L37.6268 55.7767L36.5203 57.2312C37.5994 57.6274 38.1539 58.618 37.6044 59.9823C37.3707 60.5616 36.6919 60.8149 36.1324 60.5441Z" fill="#FFFFFF" fill-opacity="1.000000" fill-rule="nonzero"/>
	<path id="Vector" d="M36.6073 60.7147C36.4357 60.7147 36.2642 60.6771 36.105 60.5994L32.3953 58.7961C31.8383 58.5254 31.5698 57.8759 31.7712 57.2865L33.728 51.546L33.7554 51.536C33.7902 51.5234 37.2886 50.2069 38.9694 54.0614L38.9843 54.0966L36.6222 57.2037C37.1494 57.4169 37.5323 57.7655 37.7312 58.2169C37.9549 58.726 37.9326 59.3455 37.664 60.0074C37.5472 60.3009 37.3184 60.524 37.025 60.637C36.8883 60.6896 36.7466 60.7147 36.6073 60.7147ZM33.825 51.6438L31.8881 57.3291C31.7065 57.8583 31.9477 58.4401 32.45 58.6833L36.1597 60.4865C36.4134 60.6094 36.7117 60.6219 36.9778 60.519C37.2389 60.4163 37.4427 60.2181 37.5472 59.9573C37.8008 59.3253 37.8257 58.7411 37.6168 58.2645C37.4229 57.8231 37.0374 57.4846 36.5004 57.2889L36.4208 57.2589L38.8426 54.0764C37.2612 50.5103 34.1706 51.5184 33.825 51.6438Z" fill="#1B1B1B" fill-opacity="1.000000" fill-rule="nonzero"/>
	<g opacity="0.300000">
		<g opacity="0.300000">
			<path id="Vector" d="M38.6537 54.9591L37.3682 56.6494C37.1767 56.4261 37.0325 56.1102 36.943 55.6864C35.6302 56.0751 34.6456 55.8619 34.3298 54.4175C33.7405 54.5604 33.2283 54.6055 32.8206 54.5127L33.5168 52.4664C33.5192 52.4689 36.9778 51.1172 38.6537 54.9591Z" fill="#1B1B1B" fill-opacity="1.000000" fill-rule="nonzero"/>
		</g>
	</g>
	<path id="Vector" d="M36.3736 57.6451C36.1598 57.6151 35.9782 57.5549 35.8092 57.5072C35.6426 57.4596 35.476 57.4119 35.287 57.3843C35.098 57.3542 34.8941 57.3367 34.6828 57.3217C34.4714 57.3041 34.2526 57.2965 34.0239 57.2665L34.0214 57.2665C33.9841 57.2615 33.9592 57.2289 33.9642 57.1912C33.9667 57.1711 33.9766 57.1561 33.9915 57.1461C34.1805 57.0132 34.377 56.9028 34.5858 56.8101C34.7947 56.7172 35.016 56.642 35.2547 56.5944C35.4934 56.5492 35.757 56.5341 36.0081 56.5792C36.2567 56.6244 36.4805 56.7072 36.6695 56.8251C36.8784 56.9554 36.943 57.2313 36.8137 57.442C36.7192 57.5975 36.5427 57.6727 36.3761 57.6501L36.3736 57.6451Z" fill="#1B1B1B" fill-opacity="1.000000" fill-rule="nonzero"/>
	<path id="Vector" d="M36.6072 61.0908C36.3784 61.0908 36.1522 61.0406 35.9458 60.9379L32.2336 59.1348C31.5076 58.7811 31.157 57.9335 31.4181 57.166L33.365 51.4532C33.442 51.225 33.6907 51.1021 33.9169 51.1798C34.1432 51.2576 34.265 51.5083 34.188 51.7366L32.2411 57.4495C32.1218 57.798 32.2809 58.1818 32.6116 58.3423L36.3238 60.1454C36.4879 60.2256 36.6743 60.2332 36.8434 60.1654C37.0075 60.1002 37.1368 59.9773 37.2014 59.8143C37.5943 58.8438 37.3432 58.0714 36.5152 57.6978C36.2964 57.5999 36.197 57.3391 36.2964 57.1184C36.3959 56.8977 36.652 56.7974 36.8708 56.8977C38.1289 57.4645 38.5739 58.741 38.007 60.1454C37.8504 60.5341 37.5471 60.8325 37.1567 60.9855C36.9777 61.0557 36.7937 61.0908 36.6072 61.0908Z" fill="#1B1B1B" fill-opacity="1.000000" fill-rule="nonzero"/>
	<path id="Vector" d="M36.5202 57.67C36.4282 57.67 36.3337 57.64 36.2567 57.5798C36.0652 57.4318 36.0304 57.156 36.1771 56.9653L38.569 53.8206C38.7157 53.6274 38.9892 53.5924 39.1782 53.7404C39.3696 53.8883 39.4044 54.1642 39.2578 54.3547L36.8658 57.4995C36.7813 57.6124 36.652 57.67 36.5202 57.67Z" fill="#1B1B1B" fill-opacity="1.000000" fill-rule="nonzero"/>
	<path id="Vector" d="M18.4218 55.7843L15.0627 53.3793C14.5853 53.0358 14.4361 52.3862 14.717 51.8671L16.5594 48.4639L17.5863 46.5654C17.5863 46.5654 21.2189 45.8181 22.2334 49.8909L20.6844 51.3379L19.3517 52.5844C20.3487 53.1587 20.7316 54.2295 19.9608 55.481C19.6376 56.0126 18.9265 56.1479 18.4218 55.7843Z" fill="#FFFFFF" fill-opacity="1.000000" fill-rule="nonzero"/>
	<path id="Vector" d="M19.0558 56.05C18.8171 56.05 18.5834 55.9749 18.387 55.8344L15.0278 53.4293C14.5231 53.0682 14.3665 52.3835 14.6623 51.8369L17.5465 46.5077L17.5739 46.5027C17.6112 46.4952 21.2786 45.7905 22.2931 49.8757L22.303 49.9109L19.4561 52.5742C19.9409 52.8727 20.2592 53.2814 20.3786 53.7604C20.5153 54.2996 20.3885 54.9065 20.0131 55.5134C19.849 55.7817 19.5879 55.9648 19.2771 56.0275C19.2075 56.0425 19.1304 56.05 19.0558 56.05ZM17.6286 46.6206L14.7717 51.8971C14.5057 52.3887 14.6449 53.0031 15.0999 53.3291L18.4591 55.734C18.6903 55.8995 18.9812 55.9623 19.2597 55.9045C19.5357 55.8495 19.7669 55.6864 19.9136 55.4481C20.2692 54.8689 20.391 54.2971 20.2642 53.7905C20.1448 53.3215 19.8216 52.9227 19.3268 52.6394L19.2522 52.5968L22.1688 49.8683C21.214 46.1266 17.9668 46.5654 17.6286 46.6206Z" fill="#1B1B1B" fill-opacity="1.000000" fill-rule="nonzero"/>
	<g opacity="0.300000">
		<g opacity="0.300000">
			<path id="Vector" d="M21.5994 50.6733L20.1423 52.2157C19.9757 51.9749 19.8664 51.6438 19.8216 51.2125C18.4764 51.4583 17.5192 51.1398 17.3576 49.6677C16.7584 49.7454 16.2412 49.7354 15.8483 49.6L16.7584 47.6414C16.7584 47.6438 20.3388 46.6708 21.5994 50.6733Z" fill="#1B1B1B" fill-opacity="1.000000" fill-rule="nonzero"/>
		</g>
	</g>
	<path id="Vector" d="M19.1428 52.9679C18.9365 52.9027 18.7674 52.8124 18.6107 52.7372C18.4541 52.6619 18.2975 52.5892 18.1159 52.5265C17.9369 52.4639 17.7355 52.4137 17.5316 52.3635C17.3253 52.3083 17.1115 52.2657 16.8926 52.1956L16.8901 52.1956C16.8553 52.1854 16.8354 52.1478 16.8454 52.1128C16.8504 52.0952 16.8653 52.0802 16.8802 52.0726C17.0891 51.9749 17.3004 51.8997 17.5217 51.8419C17.743 51.7867 17.9717 51.7491 18.2179 51.7416C18.4591 51.7366 18.7226 51.7667 18.9638 51.8545C19.2025 51.9423 19.4089 52.0601 19.5755 52.208C19.7595 52.3711 19.7769 52.6544 19.6153 52.84C19.4959 52.9779 19.3094 53.0231 19.1478 52.9703L19.1428 52.9679Z" fill="#1B1B1B" fill-opacity="1.000000" fill-rule="nonzero"/>
	<path id="Vector" d="M19.0558 56.4263C18.74 56.4263 18.4292 56.3285 18.1706 56.1429L14.8114 53.7379C14.1526 53.2665 13.9487 52.3737 14.3365 51.6589L17.2083 46.3574C17.3227 46.1443 17.5888 46.0665 17.7976 46.1819C18.009 46.2972 18.0861 46.5656 17.9717 46.7762L15.0999 52.0778C14.9233 52.4012 15.0178 52.8075 15.3162 53.0208L18.6753 55.4257C18.8245 55.5336 19.006 55.5712 19.185 55.5336C19.3591 55.4984 19.5058 55.3956 19.5978 55.2477C20.1448 54.3574 20.0279 53.5548 19.2746 53.0458C19.0757 52.9104 19.0209 52.6395 19.1552 52.4364C19.2895 52.2357 19.558 52.1805 19.7594 52.316C20.9056 53.0884 21.1319 54.42 20.3387 55.7091C20.1199 56.0652 19.7718 56.3085 19.3591 56.3937C19.2571 56.4163 19.1552 56.4263 19.0558 56.4263Z" fill="#1B1B1B" fill-opacity="1.000000" fill-rule="nonzero"/>
	<path id="Vector" d="M19.3566 53.0256C19.2397 53.0256 19.1229 52.978 19.0384 52.8853C18.8742 52.7072 18.8842 52.4288 19.0607 52.2657L21.9425 49.5698C22.119 49.4043 22.395 49.4144 22.5566 49.5924C22.7208 49.7705 22.7108 50.0488 22.5343 50.2119L19.6525 52.9077C19.568 52.9855 19.461 53.0256 19.3566 53.0256Z" fill="#1B1B1B" fill-opacity="1.000000" fill-rule="nonzero"/>
	<path id="Vector" d="M63.3212 41.8809C62.901 42.7635 62.0805 43.3831 61.1332 43.6038L60.258 43.8069L50.2751 46.119C48.547 43.1022 52.7167 41.2137 52.7167 41.2137L55.6183 40.9229L57.1525 40.7699C57.5428 39.7643 58.7761 39.4056 59.3131 39.9198C60.984 38.0815 64.5321 39.3479 63.3212 41.8809Z" fill="#FFFFFF" fill-opacity="1.000000" fill-rule="nonzero"/>
	<path id="Vector" d="M50.2427 46.1917L50.2203 46.1516C49.7827 45.3867 49.6808 44.6268 49.917 43.8895C50.464 42.1842 52.5998 41.1986 52.6918 41.1584L52.7117 41.1534L57.1101 40.7122C57.3289 40.1854 57.7989 39.7842 58.3509 39.6614C58.7288 39.576 59.0744 39.6388 59.3106 39.8344C60.3126 38.7811 61.9064 38.7986 62.8264 39.4281C63.6469 39.9899 63.8533 40.9177 63.3784 41.9133C62.9557 42.7986 62.1426 43.4406 61.1481 43.6688L50.2427 46.1917ZM52.7341 41.2738C52.5824 41.3466 50.5485 42.3271 50.0363 43.9271C49.815 44.6168 49.907 45.329 50.3073 46.0487L61.1232 43.5435C62.0804 43.3228 62.8612 42.7058 63.269 41.8557C63.714 40.9227 63.5251 40.0525 62.7592 39.5284C61.8691 38.9191 60.3176 38.9115 59.3628 39.9623L59.3206 40.0099L59.2758 39.9673C59.0694 39.7692 58.7437 39.704 58.3807 39.7842C57.9704 39.877 57.4508 40.1904 57.2146 40.7949L57.1996 40.83L52.7341 41.2738Z" fill="#1B1B1B" fill-opacity="1.000000" fill-rule="nonzero"/>
	<g opacity="0.300000">
		<g opacity="0.300000">
			<g opacity="0.300000">
				<path id="Vector" d="M60.2579 43.8069L50.2751 46.1191C48.5471 43.1022 52.7167 41.2137 52.7167 41.2137L55.6183 40.9229C53.9823 43.6213 56.2275 44.1805 60.2505 43.7617L60.2579 43.8069Z" fill="#1B1B1B" fill-opacity="1.000000" fill-rule="nonzero"/>
			</g>
		</g>
		<g opacity="0.300000">
			<g opacity="0.300000">
				<path id="Vector" d="M50.2427 46.1919L50.2203 46.1517C49.7827 45.3868 49.6808 44.627 49.917 43.8896C50.464 42.1843 52.5998 41.1987 52.6918 41.1586L52.7117 41.1536L55.7376 40.8501L55.673 40.9579C55.1334 41.8483 55.0066 42.5354 55.295 42.9968C55.7774 43.7693 57.396 43.9974 60.2455 43.7015L60.3051 43.6965L60.33 43.8595L50.2427 46.1919ZM52.734 41.2739C52.5824 41.3467 50.5485 42.3273 50.0363 43.9272C49.815 44.6169 49.907 45.3292 50.3073 46.049L59.6761 43.8796C57.135 44.0903 55.6655 43.8219 55.1906 43.062C54.8873 42.5756 54.9917 41.8809 55.5039 40.998L52.734 41.2739Z" fill="#1B1B1B" fill-opacity="1.000000" fill-rule="nonzero"/>
			</g>
		</g>
	</g>
	<path id="Vector" d="M11.6562 37.1108C3.24969 34.5177 0.656372 27.2274 0.656372 27.2274C-0.0124817 24.5415 0.924896 22.9691 2.13577 22.6958C2.72009 22.5653 3.3168 22.8212 3.69473 23.2902C4.70422 24.5391 5.92505 24.5867 7.29007 23.8092C8.63272 23.0117 9.71432 23.1372 10.5298 24.2206C11.318 25.3767 12.325 25.8456 13.4688 25.8807L13.8914 27.1672L12.5737 33.0381L11.6562 37.1108Z" fill="#E07153" fill-opacity="1.000000" fill-rule="nonzero"/>
	<path id="Vector" d="M43.7333 39.1447C43.7333 39.1447 43.5269 41.1736 45.5682 42.8162C46.1028 43.2476 46.9059 43.1071 47.2565 42.5153C48.542 40.351 47.3709 38.6432 45.8965 38.0413L43.7333 39.1447Z" fill="#C95C3F" fill-opacity="1.000000" fill-rule="nonzero"/>
	<path id="Vector" d="M46.2794 43.1322C46.0084 43.1322 45.7423 43.0394 45.5285 42.8689C43.4846 41.2238 43.6686 39.1624 43.6711 39.1422L43.7954 39.1548C43.793 39.1748 43.6164 41.1711 45.6056 42.7711C45.8492 42.9667 46.165 43.047 46.4758 42.9918C46.7816 42.9366 47.0452 42.7535 47.2018 42.4877C47.7364 41.5848 47.8781 40.6846 47.6121 39.8845C47.3535 39.1096 46.7045 38.4451 45.8716 38.104L45.9188 37.9886C46.7841 38.3423 47.4629 39.0344 47.7314 39.8445C48.0099 40.682 47.8632 41.6174 47.3087 42.5529C47.1322 42.8489 46.8363 43.0544 46.4982 43.1146C46.4236 43.1248 46.3515 43.1322 46.2794 43.1322Z" fill="#1B1B1B" fill-opacity="1.000000" fill-rule="nonzero"/>
	<path id="Vector" d="M51.916 41.7052C52.2169 42.9893 51.7668 43.8293 50.4739 44.1678C51.098 45.3842 50.4167 46.2694 49.1437 47.0067C50.0064 48.5667 48.8925 49.0557 47.5822 49.4343C48.3356 50.6808 47.7935 51.4055 46.4236 51.7992C46.6996 54.6732 45.618 55.4231 43.701 54.8613C42.7462 56.1578 40.8988 55.9497 40.5059 54.282C39.2453 55.1046 38.2309 55.1296 37.6515 53.7102C36.4307 54.3322 35.4237 54.302 34.8543 52.9377C33.5365 53.5271 32.5395 53.4971 32.1665 52.2382C30.8363 53.0381 29.7249 53.1359 29.0262 51.9321C27.9571 52.4613 27.1216 52.1252 26.4478 51.1798C26.4354 51.1598 26.4229 51.1422 26.408 51.1246C26.3732 51.1447 26.3409 51.1648 26.3061 51.1848C25.4582 51.6562 24.675 51.6663 23.9539 51.225C23.6631 51.0469 23.3796 50.7961 23.1061 50.4701C21.7982 50.9491 20.7365 50.6758 19.9931 49.4343C18.8991 50.2318 18.0662 50.0839 17.6534 48.3986C16.4674 49.3942 15.5574 49.0081 14.8239 47.7466C13.2724 48.4587 12.5737 48.2657 11.9819 46.6256C10.9252 46.8763 10.0997 46.3673 11.1067 44.3083C10.3061 43.4457 10.3359 42.7434 11.1241 42.1892C10.5597 40.8049 10.4106 39.6262 11.6562 39.1296C11.1241 38.277 11.1565 37.4795 11.9994 36.7548C11.8452 35.8595 11.7955 34.9567 12.0391 34.2268C12.2157 33.7002 12.5439 33.2614 13.1008 32.9829L14.0656 27.0193C12.9367 26.099 13.6876 24.988 14.0755 24.5416C14.1849 24.4137 14.2669 24.3409 14.2669 24.3409C13.5434 23.3027 13.6155 22.5253 14.8662 22.134C13.6876 20.998 14.1227 20.2181 15.54 19.6538C13.6976 18.4451 14.4857 16.8927 16.0298 17.2538C14.1153 16.0826 15.1869 14.5504 16.5221 14.1392C14.8363 13.3491 15.5077 10.736 17.0965 10.3649C15.6544 9.73792 15.8409 8.16541 17.2432 7.44824C15.724 6.76855 16.0074 5.49707 17.4495 4.90527C15.7041 2.93408 17.5938 0.524048 19.4436 1.71777C20.6769 0.313477 22.022 -0.283447 23.7227 1.74536C24.7944 0.351074 26.0351 -0.0125732 27.5568 1.39185C29.2226 0.10022 30.7244 0.280884 32.0696 1.85828C32.7359 1.22632 33.3898 0.827515 34.0313 0.692139C35.098 0.466431 36.1199 0.973022 37.0971 2.33728C39.1458 1.30652 40.1404 1.87085 40.4189 3.51599C42.0873 2.58557 43.4523 2.62561 44.0316 5.16357C45.6751 4.27075 46.9034 4.33594 47.1894 6.58801C49.1511 5.74292 50.4267 6.29211 50.9737 8.31592C52.4008 7.62878 53.1915 8.13037 53.3929 9.73279C55.1433 9.25891 55.7923 10.2043 55.668 12.1504C57.6596 13.0256 57.3662 13.8507 55.7625 14.6482C57.4333 15.2952 57.6173 16.2006 56.312 17.3691C57.2543 17.946 57.1225 18.7059 56.4586 19.556L54.748 27.9899C55.9589 28.8727 55.7898 29.3215 54.2856 30.2896C55.1135 31.0469 55.0713 31.8569 53.8802 32.7322C54.7704 33.304 55.0489 33.9385 53.8504 34.7384L51.916 41.7052Z" fill="#FFFFFF" fill-opacity="1.000000" fill-rule="nonzero"/>
	<path id="Vector" d="M42.1519 55.7666C42.035 55.7666 41.9182 55.7542 41.8013 55.7316C41.1573 55.5986 40.6625 55.097 40.4686 54.3823C39.7202 54.8563 39.1135 55.0118 38.6162 54.8538C38.201 54.7234 37.8678 54.3673 37.6242 53.798C36.8832 54.1642 36.289 54.2544 35.8041 54.0764C35.3939 53.9233 35.0657 53.5698 34.8245 53.0231C33.9716 53.3967 33.3302 53.4719 32.8627 53.2538C32.5295 53.0983 32.2834 52.7898 32.1342 52.3334C31.2888 52.83 30.6026 53.0005 30.0382 52.8525C29.6254 52.7448 29.2798 52.4639 29.0063 52.0149C27.9944 52.4939 27.1191 52.2256 26.403 51.2174L26.3956 51.2074C26.3782 51.2174 26.3608 51.2274 26.3434 51.2375C25.4806 51.719 24.6675 51.7316 23.9241 51.2802C23.6382 51.1046 23.3572 50.8588 23.0887 50.5453C21.7411 51.0243 20.6943 50.6808 19.9757 49.5271C19.4063 49.9283 18.9389 50.0538 18.5485 49.9109C18.1283 49.7554 17.8225 49.2964 17.6186 48.5115C17.1039 48.9203 16.6191 49.0883 16.1715 49.0081C15.6668 48.9177 15.2192 48.5315 14.799 47.8268C13.9561 48.208 13.4066 48.2908 12.9765 48.1077C12.5588 47.9297 12.238 47.4958 11.9422 46.6984C11.4076 46.8137 10.9923 46.7234 10.7686 46.4401C10.4603 46.0488 10.5498 45.314 11.0321 44.3184C10.6144 43.8595 10.423 43.4307 10.4627 43.0469C10.4976 42.7234 10.694 42.4275 11.0471 42.1666C10.6269 41.1234 10.5349 40.3911 10.7586 39.8595C10.8979 39.5259 11.1689 39.2701 11.5642 39.097C11.0346 38.2042 11.1589 37.4067 11.9322 36.7272C11.7532 35.6638 11.7681 34.8387 11.9795 34.2042C12.1709 33.6324 12.5289 33.2062 13.0436 32.9403L13.9959 27.0444C13.6379 26.746 13.4415 26.3999 13.4091 26.0162C13.3544 25.3767 13.7722 24.7924 14.0258 24.5015C14.0929 24.4263 14.1476 24.3685 14.1824 24.3335C13.787 23.7516 13.6578 23.2802 13.7896 22.8915C13.9039 22.5529 14.2271 22.2871 14.7468 22.1064C14.2645 21.62 14.0606 21.171 14.1376 20.7748C14.2222 20.3359 14.6374 19.9648 15.4057 19.6412C14.431 18.9641 14.2868 18.2344 14.4808 17.7704C14.6672 17.3265 15.1595 17.0934 15.7513 17.146C15.0004 16.6018 14.8885 16.0426 14.9358 15.6538C15.0128 15.0244 15.5897 14.4125 16.3605 14.1266C15.7289 13.7679 15.4032 13.0934 15.4853 12.2983C15.5797 11.3855 16.1591 10.608 16.9174 10.3497C16.3704 10.0638 16.0522 9.60999 16.0348 9.08081C16.0149 8.45386 16.4202 7.83936 17.1014 7.45068C16.4873 7.14722 16.1566 6.72095 16.1641 6.24438C16.1715 5.70776 16.6116 5.20117 17.3451 4.88013C16.4301 3.79431 16.5992 2.60559 17.1537 1.94849C17.631 1.38428 18.5162 1.07324 19.4312 1.63501C20.1995 0.779907 20.8832 0.376099 21.5794 0.376099C21.5869 0.376099 21.5944 0.376099 21.6018 0.376099C22.3005 0.383667 22.9942 0.80249 23.7202 1.65002C24.3145 0.897705 24.9162 0.50647 25.5577 0.448853C26.1917 0.393677 26.8655 0.68457 27.5592 1.31409C29.2003 0.0651855 30.7195 0.21814 32.0745 1.77295C32.7434 1.151 33.3973 0.767334 34.0189 0.636963C35.1228 0.403687 36.1646 0.950439 37.1169 2.26196C38.1786 1.73535 38.9768 1.62244 39.5536 1.91846C40.0136 2.15417 40.3219 2.66077 40.4661 3.4231C41.4383 2.89648 42.1967 2.76855 42.7884 3.03687C43.3901 3.30774 43.8128 3.97485 44.0764 5.07581C45.051 4.5592 45.782 4.44128 46.3091 4.7146C46.804 4.97046 47.1098 5.55725 47.2415 6.50525C48.2336 6.09399 49.0566 6.04126 49.6906 6.34973C50.2998 6.64563 50.7449 7.28015 51.0159 8.2356C51.6922 7.92212 52.2417 7.87708 52.6445 8.10022C53.0647 8.33093 53.3357 8.85754 53.4476 9.6626C54.1836 9.47449 54.753 9.53967 55.1359 9.85828C55.6058 10.2469 55.8022 10.9867 55.7351 12.1178C56.6625 12.5316 57.1175 12.9453 57.13 13.3867C57.1399 13.8055 56.7421 14.2194 55.9191 14.6482C56.7023 14.9742 57.1424 15.3705 57.2245 15.8269C57.3065 16.2808 57.0355 16.7999 56.4213 17.3667C56.7769 17.5999 56.9833 17.8783 57.0404 18.1892C57.1125 18.588 56.9435 19.0469 56.5233 19.5886L54.8226 27.9673C55.387 28.3835 55.6257 28.697 55.6158 29.0081C55.6033 29.4243 55.1408 29.8156 54.39 30.3021C54.7579 30.6582 54.9345 31.0219 54.9146 31.3905C54.8922 31.8319 54.5814 32.2858 53.9921 32.7347C54.477 33.0607 54.7132 33.3792 54.7157 33.7078C54.7182 34.0613 54.4546 34.4149 53.9076 34.7836L51.9831 41.7078C52.284 43.0168 51.8091 43.8569 50.5659 44.208C51.0756 45.2764 50.638 46.1992 49.2282 47.0319C49.5166 47.5735 49.5837 48.0149 49.4346 48.3811C49.1934 48.9705 48.4127 49.2563 47.6767 49.4745C47.98 50.0037 48.0596 50.4625 47.9129 50.8413C47.7413 51.2852 47.2764 51.6136 46.4907 51.8494C46.6249 53.3215 46.4111 54.272 45.8343 54.7534C45.3693 55.1422 44.6607 55.2048 43.7258 54.9391C43.318 55.4657 42.7387 55.7666 42.1519 55.7666ZM40.5457 54.1816L40.5656 54.267C40.7346 54.9893 41.1946 55.4757 41.8262 55.6086C42.4925 55.7466 43.1912 55.4457 43.6512 54.8262L43.6761 54.7911L43.7183 54.8036C44.6308 55.072 45.3171 55.0193 45.7547 54.6532C46.2942 54.2018 46.4981 53.2438 46.3614 51.8068L46.3564 51.7542L46.4061 51.739C47.1719 51.5183 47.6394 51.1998 47.796 50.7936C47.9353 50.4375 47.8433 49.9911 47.5275 49.4669L47.4852 49.3967L47.5648 49.3741C48.2933 49.1636 49.089 48.8901 49.3177 48.3309C49.4569 47.9899 49.3824 47.566 49.089 47.0343L49.0591 46.9792L49.1113 46.9491C50.541 46.1215 50.9562 45.2438 50.4167 44.193L50.3819 44.1228L50.4565 44.1027C51.6972 43.7792 52.1547 42.9967 51.8538 41.7152L51.8488 41.7002L51.8538 41.6852L53.7932 34.6984L53.8131 34.6858C54.3278 34.3422 54.5889 34.0112 54.5864 33.7028C54.5839 33.4043 54.3402 33.1034 53.8454 32.7848L53.7683 32.7347L53.843 32.6796C54.4471 32.2356 54.7629 31.7968 54.7853 31.3779C54.8027 31.0319 54.6212 30.6808 54.2433 30.3347L54.1836 30.2795L54.2532 30.2344C54.9867 29.7629 55.479 29.3717 55.4889 28.998C55.4964 28.7272 55.2652 28.4387 54.7132 28.0375L54.6808 28.0149L54.6883 27.9749L56.4015 19.5259L56.4114 19.5134C56.8142 18.9968 56.9783 18.5679 56.9112 18.2018C56.8564 17.9033 56.6501 17.645 56.2796 17.4193L56.2075 17.3741L56.2697 17.319C56.8938 16.7623 57.1697 16.2632 57.0952 15.8394C57.0181 15.4031 56.5606 15.0219 55.7401 14.7034L55.6083 14.6532L55.7351 14.5905C56.5854 14.1692 57.0106 13.7604 57.0007 13.3817C56.9907 12.9955 56.5332 12.5992 55.6406 12.208L55.6008 12.1906L55.6033 12.1454C55.6729 11.0469 55.4865 10.3071 55.0513 9.94604C54.6883 9.64758 54.1363 9.59485 53.4053 9.79297L53.3357 9.81055L53.3258 9.74036C53.2263 8.93787 52.9727 8.42126 52.5774 8.203C52.197 7.99243 51.6649 8.05005 50.9935 8.37354L50.9264 8.40613L50.9065 8.3335C50.6479 7.37549 50.2178 6.74353 49.6285 6.45764C49.0119 6.15662 48.1963 6.21936 47.2068 6.64563L47.1321 6.67834L47.1222 6.59558C47.0029 5.65759 46.707 5.05823 46.2445 4.81995C45.7422 4.5592 45.0262 4.68958 44.0565 5.21875L43.9844 5.25891L43.967 5.17859C43.7159 4.07263 43.3105 3.40808 42.7312 3.14722C42.1643 2.89148 41.4159 3.02942 40.4438 3.57104L40.3667 3.61377L40.3517 3.52588C40.22 2.75598 39.9315 2.25195 39.4915 2.02625C38.9519 1.75037 38.1538 1.87329 37.1194 2.3949L37.0722 2.41748L37.0424 2.37488C36.1124 1.07581 35.103 0.531616 34.0413 0.754761C33.4271 0.885132 32.7782 1.27136 32.1093 1.90332L32.0621 1.94849L32.0198 1.89832C30.6747 0.323486 29.2251 0.172974 27.5916 1.43945L27.5493 1.47205L27.512 1.43689C26.8307 0.809937 26.1768 0.519043 25.5676 0.569214C24.9435 0.621826 24.3568 1.02063 23.77 1.78052L23.7227 1.8407L23.673 1.78052C22.9544 0.922852 22.2756 0.501465 21.5993 0.491455C20.9181 0.483887 20.2517 0.885132 19.4909 1.75293L19.4561 1.79297L19.4113 1.76294C18.4839 1.16357 17.6683 1.52966 17.2506 2.02124C16.7011 2.67322 16.5644 3.80176 17.4968 4.8551L17.5564 4.92029L17.4744 4.95288C16.7409 5.25378 16.2983 5.73535 16.2909 6.23694C16.2834 6.68835 16.6315 7.0946 17.268 7.37793L17.3874 7.43066L17.2705 7.49084C16.5669 7.84949 16.1417 8.45386 16.1616 9.0658C16.179 9.58984 16.5271 10.0388 17.1188 10.2946L17.2929 10.3699L17.1089 10.4125C16.2312 10.618 15.6891 11.5159 15.6096 12.2983C15.5275 13.0934 15.8781 13.7554 16.547 14.0688L16.6937 14.1366L16.5395 14.1842C15.7463 14.4301 15.1372 15.0344 15.0626 15.6538C14.993 16.2131 15.3386 16.7422 16.0621 17.1836L16.3953 17.3867L16.0149 17.299C15.3585 17.146 14.7891 17.3466 14.5976 17.8031C14.4236 18.2168 14.5753 18.9291 15.5723 19.5861L15.6742 19.6514L15.5623 19.6964C14.7791 20.0074 14.3415 20.3735 14.262 20.7823C14.1898 21.1536 14.4062 21.5874 14.9084 22.0714L14.9855 22.144L14.8836 22.1768C14.344 22.3447 14.0158 22.593 13.9089 22.9141C13.7896 23.2651 13.9288 23.7266 14.3167 24.2883L14.349 24.3335L14.3092 24.3711C14.3092 24.3711 14.2296 24.4438 14.1227 24.5667C13.8815 24.8425 13.4837 25.3967 13.5359 25.9886C13.5658 26.3473 13.7572 26.6708 14.1053 26.9541L14.1327 26.9767L13.158 33.0081L13.1306 33.0231C12.6309 33.2739 12.2853 33.6802 12.1013 34.2294C11.8949 34.8513 11.8825 35.6688 12.064 36.7272L12.069 36.7622L12.0416 36.7848C11.2683 37.4495 11.1614 38.1992 11.7109 39.0795L11.7507 39.1422L11.6811 39.1698C11.2758 39.3303 11.0147 39.5685 10.878 39.8921C10.6666 40.3961 10.7636 41.1134 11.1863 42.149L11.2062 42.1968L11.1664 42.2244C10.8158 42.4701 10.6244 42.746 10.592 43.0419C10.5547 43.3979 10.7462 43.8018 11.1589 44.2482L11.1888 44.2808L11.1689 44.3209C10.5697 45.5447 10.6766 46.0989 10.873 46.3472C11.0719 46.598 11.4623 46.6708 11.9745 46.5479L12.0292 46.5353L12.0491 46.588C12.3375 47.3829 12.6408 47.8093 13.0337 47.9773C13.439 48.1504 13.9711 48.0576 14.809 47.6738L14.8612 47.6512L14.8885 47.699C15.2913 48.3911 15.7339 48.7848 16.2038 48.8676C16.634 48.9429 17.1139 48.7648 17.6261 48.3359L17.7031 48.2708L17.728 48.3685C17.9219 49.1584 18.2153 49.6324 18.6057 49.7754C18.9612 49.9059 19.4212 49.7704 19.9707 49.3691L20.0255 49.329L20.0602 49.3867C20.7614 50.5554 21.756 50.8864 23.1011 50.3949L23.1409 50.3798L23.1682 50.4124C23.4343 50.731 23.7152 50.9791 24.0012 51.1522C24.7024 51.5811 25.4731 51.566 26.2912 51.1096C26.326 51.0895 26.3583 51.0695 26.3931 51.0494L26.4428 51.0193L26.5149 51.1246C27.2111 52.1052 28.0291 52.3435 29.0138 51.8569L29.066 51.8318L29.0958 51.882C29.3594 52.3359 29.6826 52.6068 30.0804 52.7096C30.6274 52.85 31.3037 52.672 32.1491 52.1628L32.2188 52.1228L32.2411 52.2004C32.3803 52.667 32.6041 52.9679 32.9274 53.1184C33.3724 53.324 33.999 53.2412 34.8444 52.8601L34.9016 52.835L34.9264 52.8951C35.1577 53.4495 35.4635 53.793 35.8588 53.9385C36.3213 54.109 36.9031 54.0111 37.6391 53.6375L37.6988 53.6074L37.7236 53.67C37.9573 54.2419 38.2731 54.593 38.6635 54.7158C39.1384 54.8663 39.7351 54.7008 40.4835 54.2118L40.5457 54.1816Z" fill="#1B1B1B" fill-opacity="1.000000" fill-rule="nonzero"/>
	<g opacity="0.300000">
		<g opacity="0.300000">
			<g opacity="0.300000">
				<path id="Vector" d="M26.3086 51.1848C25.4608 51.6565 24.6775 51.6665 23.9565 51.225C25.135 51.21 25.9854 51.1924 26.3086 51.1848Z" fill="#1B1B1B" fill-opacity="1.000000" fill-rule="nonzero"/>
			</g>
		</g>
		<g opacity="0.300000">
			<g opacity="0.300000">
				<path id="Vector" d="M25.0529 51.6088C24.6626 51.6088 24.2846 51.4984 23.9241 51.2802L23.7376 51.1674L23.9565 51.1648C25.0405 51.1523 25.8386 51.1348 26.2215 51.1248L26.5622 51.1172L26.3409 51.2401C25.8958 51.4858 25.4657 51.6088 25.0529 51.6088ZM24.1976 51.2852C24.772 51.5586 25.3861 51.5486 26.0351 51.2526C25.6447 51.2627 25.0107 51.2751 24.1976 51.2852Z" fill="#1B1B1B" fill-opacity="1.000000" fill-rule="nonzero"/>
			</g>
		</g>
	</g>
	<path id="Vector" d="M42.1519 56.1429C42.0103 56.1429 41.8685 56.1279 41.7268 56.1003C41.0853 55.9674 40.5681 55.5436 40.2747 54.9292C39.5984 55.2827 39.0166 55.3755 38.5044 55.2151C38.0768 55.0796 37.7237 54.7687 37.4502 54.2897C36.7614 54.5706 36.1796 54.6157 35.6749 54.4301C35.2572 54.2747 34.914 53.9636 34.648 53.4996C33.8499 53.7981 33.2108 53.8282 32.7086 53.595C32.3904 53.447 32.1392 53.2013 31.9527 52.8602C31.1795 53.2489 30.5206 53.3668 29.9437 53.2188C29.5235 53.111 29.163 52.8627 28.8671 52.479C28.1112 52.7449 27.159 52.7323 26.2887 51.6891C25.0903 52.2583 23.954 52.015 22.9743 50.9792C21.6963 51.358 20.6371 51.0344 19.8738 50.0388C19.3293 50.3499 18.8519 50.4226 18.4193 50.2645C17.9841 50.1041 17.6534 49.7229 17.4147 49.106C16.9647 49.3643 16.5271 49.4546 16.1069 49.3818C15.5648 49.2865 15.0875 48.9329 14.6548 48.3009C14.0556 48.5442 13.4042 48.7021 12.8298 48.459C12.3649 48.2633 12.0118 47.8445 11.7035 47.1198C11.1689 47.1674 10.7387 47.017 10.4752 46.6783C10.0923 46.1919 10.132 45.422 10.592 44.3837C10.2141 43.9072 10.045 43.4458 10.0923 43.0094C10.1296 42.6558 10.3011 42.3348 10.602 42.054C10.2241 41.0332 10.1694 40.3059 10.4155 39.7166C10.5473 39.4031 10.7636 39.1473 11.062 38.9467C10.6841 38.084 10.8432 37.2815 11.5294 36.5944C11.3728 35.6138 11.1614 33.4646 12.9044 32.5918C13.1207 32.484 13.3818 32.5718 13.4887 32.7899C13.5956 33.0082 13.5086 33.2715 13.2923 33.3793C12.3922 33.8307 12.1162 34.879 12.427 36.6821C12.4544 36.8351 12.3972 36.9906 12.2803 37.0909C11.6488 37.6351 11.5717 38.1743 12.0217 38.899C12.0913 39.0094 12.1063 39.1448 12.0665 39.2703C12.0267 39.3931 11.9322 39.4934 11.8129 39.541C11.507 39.6639 11.3106 39.8345 11.2161 40.0602C11.0471 40.4614 11.149 41.1034 11.5244 42.0264C11.6015 42.2169 11.5394 42.4351 11.3703 42.553C11.1142 42.7335 10.9749 42.9166 10.9551 43.1022C10.9302 43.3405 11.0918 43.6564 11.4225 44.0126C11.5468 44.1455 11.5742 44.3436 11.4946 44.5066C10.9029 45.7129 11.1092 46.0715 11.1565 46.1317C11.2559 46.2571 11.5319 46.2847 11.88 46.2019C12.0938 46.1517 12.3127 46.2695 12.3872 46.4778C12.6334 47.1549 12.8795 47.5286 13.1655 47.6489C13.4614 47.7743 13.9164 47.6815 14.6424 47.3505C14.8463 47.2577 15.085 47.3354 15.1969 47.5286C15.5425 48.1204 15.898 48.4539 16.2561 48.5166C16.5743 48.5718 16.9498 48.4213 17.375 48.0652C17.4893 47.9674 17.646 47.9398 17.7902 47.985C17.9319 48.0326 18.0413 48.1505 18.0761 48.2959C18.2328 48.938 18.4615 49.3442 18.7201 49.4395C19.0085 49.5474 19.4337 49.3041 19.7395 49.0834C19.839 49.0106 19.9608 48.9856 20.0802 49.0082C20.1995 49.0332 20.3039 49.106 20.3661 49.2113C20.9703 50.2169 21.7933 50.4878 22.9594 50.059C23.131 49.9962 23.3224 50.049 23.4393 50.1869C24.2772 51.1875 25.1524 51.3655 26.1893 50.7461C26.3857 50.6282 26.6393 50.6833 26.7686 50.874C27.3678 51.7467 28.0043 51.9498 28.8348 51.5386C29.0387 51.4382 29.2873 51.511 29.4017 51.7115C29.613 52.0752 29.8592 52.2885 30.1576 52.3661C30.5952 52.479 31.1969 52.3109 31.9428 51.8621C32.0572 51.7919 32.1989 51.7819 32.3232 51.8295C32.4475 51.8796 32.5445 51.9824 32.5818 52.1128C32.6887 52.4714 32.8454 52.6947 33.0667 52.7975C33.4048 52.953 33.9443 52.8677 34.6754 52.5392C34.7823 52.4916 34.9041 52.489 35.0135 52.5316C35.1229 52.5743 35.2099 52.6621 35.2547 52.7699C35.4436 53.2239 35.6774 53.4972 35.9708 53.6075C36.3263 53.7379 36.8236 53.6426 37.4551 53.3217C37.5645 53.2665 37.6889 53.2589 37.8033 53.3015C37.9176 53.3442 38.0071 53.432 38.0544 53.5474C38.2433 54.0088 38.4796 54.2897 38.7605 54.3774C39.1186 54.4902 39.6258 54.3348 40.2673 53.916C40.3866 53.8383 40.5358 53.8232 40.6651 53.8759C40.7969 53.9286 40.8938 54.0439 40.9262 54.1818C41.0604 54.7537 41.416 55.1398 41.8983 55.2401C42.423 55.3479 42.9774 55.1047 43.3479 54.6006C43.4573 54.4526 43.6438 54.39 43.8178 54.4402C44.606 54.6709 45.1754 54.6433 45.5136 54.3624C45.9462 54.0012 46.1103 53.1285 45.986 51.842C45.9661 51.6313 46.0979 51.4358 46.2993 51.3781C46.9383 51.1949 47.3336 50.9442 47.4455 50.6558C47.54 50.415 47.4579 50.079 47.2068 49.6627C47.1372 49.5448 47.1248 49.4019 47.172 49.2739C47.2217 49.1461 47.3262 49.0482 47.4579 49.0106C48.1169 48.8201 48.8105 48.5718 48.9697 48.1855C49.0617 47.9598 48.9921 47.6339 48.7608 47.2151C48.644 47.0044 48.7185 46.7411 48.9249 46.6207C50.4988 45.7103 50.3944 44.968 50.0861 44.3636C50.0264 44.2457 50.0214 44.1053 50.0761 43.9824C50.1308 43.8596 50.2353 43.7693 50.3645 43.7367C51.4088 43.4634 51.747 42.884 51.4934 41.8007C51.476 41.7279 51.4785 41.6527 51.4984 41.58L53.4328 34.6182C53.4601 34.5178 53.5247 34.4276 53.6118 34.3699C54.1762 33.9938 54.2185 33.7655 54.216 33.7029C54.216 33.6301 54.1588 33.427 53.6466 33.0984C53.5248 33.0208 53.4502 32.8878 53.4452 32.7423C53.4402 32.5969 53.5074 32.459 53.6242 32.3737C54.1265 32.005 54.4 31.6514 54.4149 31.3555C54.4273 31.1273 54.2856 30.8765 53.9947 30.6107C53.8952 30.5178 53.843 30.385 53.853 30.2495C53.8654 30.1141 53.9375 29.9912 54.0519 29.916C54.9694 29.3267 55.1111 29.0809 55.1161 28.988C55.1186 28.943 55.0763 28.7673 54.4945 28.3436C54.3552 28.2433 54.2881 28.0677 54.3229 27.8997L56.0335 19.4658C56.046 19.3981 56.0758 19.3354 56.1181 19.2827C56.4413 18.8665 56.5905 18.5178 56.5457 18.2721C56.5134 18.0865 56.3593 17.9084 56.0883 17.7455C55.9689 17.6727 55.8918 17.5474 55.8794 17.4094C55.867 17.2715 55.9217 17.1335 56.0236 17.0408C56.5284 16.5894 56.7795 16.1881 56.7297 15.9097C56.6775 15.6213 56.2797 15.3179 55.6084 15.0596C55.4467 14.9968 55.3374 14.8439 55.3299 14.6709C55.3224 14.4978 55.4169 14.3348 55.5711 14.2571C56.6079 13.7429 56.6303 13.4294 56.6303 13.3944C56.6303 13.3593 56.5905 13.0382 55.494 12.5568C55.3249 12.484 55.2205 12.3109 55.2329 12.1254C55.2926 11.1674 55.1509 10.5154 54.8152 10.2395C54.5517 10.0214 54.1091 9.99377 53.5024 10.1593C53.3806 10.1919 53.2513 10.1718 53.1468 10.099C53.0424 10.0264 52.9728 9.91602 52.9579 9.79065C52.9007 9.32666 52.7565 8.7323 52.4009 8.53662C52.0652 8.35107 51.5406 8.53162 51.1577 8.71729C51.0409 8.77246 50.9066 8.7749 50.7897 8.71973C50.6729 8.66455 50.5858 8.56177 50.551 8.4364C50.3223 7.58875 49.9568 7.03699 49.4695 6.79871C48.9547 6.54797 48.2437 6.61316 47.356 6.99438C47.2292 7.047 47.0875 7.03955 46.9681 6.9718C46.8488 6.90405 46.7692 6.78369 46.7518 6.64575C46.6499 5.83826 46.4211 5.33667 46.073 5.15613C45.6951 4.96045 45.076 5.09338 44.2306 5.55237C44.1112 5.61755 43.967 5.62256 43.8452 5.56494C43.7209 5.5072 43.6314 5.39685 43.6015 5.26392C43.3802 4.29346 43.0371 3.6991 42.5771 3.49097C42.1246 3.28772 41.4856 3.42065 40.6228 3.90222C40.4985 3.96985 40.3518 3.97498 40.225 3.91223C40.0982 3.84949 40.0087 3.73169 39.9838 3.59119C39.8744 2.94421 39.6506 2.53296 39.3224 2.36243C38.8997 2.14673 38.1961 2.27466 37.2861 2.73108C37.0946 2.82629 36.8634 2.76868 36.7391 2.59558C36.0727 1.66516 35.3815 1.15857 34.6803 1.09094C33.9767 1.02319 33.1984 1.38928 32.363 2.18176C32.276 2.26453 32.1591 2.30725 32.0422 2.29968C31.9229 2.29211 31.8135 2.2395 31.7364 2.14673C30.533 0.737305 29.2898 0.606934 27.8228 1.74292C27.6562 1.87341 27.42 1.86328 27.2634 1.7179C26.6617 1.1637 26.1047 0.905273 25.6024 0.947998C25.0952 0.990601 24.5781 1.35168 24.0659 2.01636C23.9863 2.12158 23.862 2.18433 23.7302 2.18689C23.6009 2.18689 23.4741 2.13171 23.3896 2.03137C22.7531 1.27148 22.1488 0.882812 21.5969 0.875244C21.5919 0.875244 21.5869 0.875244 21.5819 0.875244C21.0275 0.875244 20.4506 1.23633 19.7719 2.01123C19.6301 2.17175 19.3914 2.20691 19.2124 2.08899C18.4889 1.62012 17.8722 1.87842 17.5366 2.2771C17.0915 2.80371 16.9945 3.73169 17.7777 4.61438C17.8722 4.71973 17.9095 4.86768 17.8772 5.00562C17.8449 5.14355 17.7479 5.25891 17.6186 5.31409C17.0468 5.5498 16.6738 5.91846 16.6688 6.25708C16.6638 6.54297 16.9398 6.83386 17.4247 7.04956C17.5788 7.11719 17.6783 7.27026 17.6833 7.43823C17.6882 7.60876 17.5938 7.76428 17.4446 7.84204C16.8727 8.13538 16.5246 8.60437 16.5395 9.06836C16.552 9.44702 16.8105 9.76306 17.273 9.96362C17.4446 10.0388 17.5515 10.2169 17.5341 10.405C17.5167 10.5931 17.3824 10.7511 17.1984 10.7937C16.4898 10.9592 16.0522 11.7015 15.985 12.3511C15.9527 12.652 15.9627 13.3918 16.7086 13.7429C16.8727 13.8207 16.9722 13.9888 16.9597 14.1718C16.9473 14.3523 16.8255 14.5078 16.6539 14.5605C16.0074 14.7611 15.4952 15.2477 15.4355 15.7191C15.3734 16.2257 15.8483 16.6295 16.2586 16.8802C16.4426 16.9932 16.5172 17.2213 16.4351 17.422C16.3555 17.6226 16.1417 17.7329 15.9328 17.6853C15.4579 17.575 15.0601 17.6877 14.9408 17.9712C14.814 18.2721 15.0228 18.7963 15.7762 19.2903C15.913 19.3806 15.9875 19.5386 15.9726 19.7015C15.9552 19.8646 15.8508 20.005 15.6991 20.0652C15.0601 20.3185 14.6797 20.6069 14.6275 20.8727C14.5827 21.1034 14.7742 21.4395 15.167 21.8182C15.2789 21.926 15.3262 22.084 15.2888 22.2369C15.2541 22.3875 15.1422 22.5104 14.9955 22.5555C14.707 22.6458 14.3465 22.8063 14.262 23.0546C14.1849 23.2803 14.3142 23.6464 14.6225 24.0903C14.7493 24.2709 14.722 24.5216 14.5579 24.6696C14.3714 24.8401 13.889 25.4019 13.9039 25.9285C13.9114 26.2019 14.0531 26.4476 14.3391 26.6809C14.5255 26.8339 14.5554 27.1097 14.4037 27.2979C14.252 27.4858 13.9785 27.516 13.7921 27.363C13.1829 26.8665 13.0436 26.3197 13.0337 25.9486C13.0163 25.2463 13.4315 24.6295 13.715 24.2909C13.3793 23.7141 13.2873 23.2151 13.4365 22.7711C13.5459 22.4476 13.7796 22.1793 14.1377 21.9736C13.812 21.5348 13.6926 21.116 13.7747 20.7047C13.8617 20.2633 14.1725 19.8872 14.722 19.5636C14.0009 18.8639 13.9288 18.1317 14.1426 17.6251C14.2918 17.2715 14.5753 17.0156 14.9408 16.8777C14.5628 16.3762 14.5355 15.9022 14.5728 15.6113C14.6548 14.9417 15.1173 14.405 15.6718 14.0564C15.2466 13.6025 15.0477 12.973 15.1198 12.2609C15.2043 11.4508 15.622 10.7335 16.2138 10.3047C15.8756 9.9762 15.6842 9.55981 15.6693 9.09595C15.6519 8.49902 15.9353 7.91724 16.4401 7.47083C16.0199 7.12976 15.7911 6.70349 15.7986 6.24207C15.8085 5.67017 16.169 5.13611 16.7906 4.75232C16.0572 3.60632 16.2834 2.40503 16.8752 1.70789C17.4073 1.07581 18.3546 0.704712 19.3591 1.17114C20.1224 0.373657 20.836 0 21.5795 0C21.5894 0 21.5969 0 21.6068 0C22.3204 0.00756836 23.0116 0.363647 23.7128 1.08594C24.2847 0.468994 24.8938 0.130371 25.5279 0.0751953C26.1942 0.0175781 26.883 0.273315 27.5792 0.837646C29.1903 -0.268311 30.7419 -0.125366 32.0994 1.2489C33.0119 0.481445 33.907 0.135376 34.7673 0.21814C35.6425 0.303467 36.468 0.832642 37.2289 1.79309C38.2707 1.32666 39.0862 1.25891 39.7202 1.5824C40.1802 1.81824 40.5134 2.25452 40.7123 2.87903C41.5975 2.47778 42.331 2.4176 42.9377 2.69092C43.5617 2.9718 44.0143 3.57874 44.3127 4.53662C45.2053 4.13794 45.9164 4.08521 46.4758 4.37622C46.9955 4.64453 47.3411 5.17615 47.5251 5.99377C48.4326 5.69275 49.2133 5.69775 49.8499 6.00879C50.4665 6.30969 50.9339 6.88904 51.2422 7.73413C51.8639 7.521 52.3935 7.53101 52.8186 7.76672C53.2687 8.01501 53.5795 8.50159 53.7411 9.21375C54.4174 9.11096 54.9619 9.22632 55.3672 9.56238C55.8968 9.99878 56.1405 10.7587 56.1156 11.8771C56.7646 12.1906 57.4831 12.6646 57.5005 13.3718C57.513 13.8909 57.14 14.2997 56.6949 14.6132C57.2146 14.9342 57.508 15.3103 57.5876 15.7517C57.6795 16.2583 57.4781 16.7775 56.9759 17.3291C57.2071 17.5598 57.3513 17.8232 57.4036 18.1141C57.4931 18.6056 57.3165 19.1398 56.869 19.7417L55.2329 27.8044C55.6432 28.1329 56.0012 28.5266 55.9863 29.0132C55.9714 29.5098 55.6009 29.911 54.9495 30.3699C55.1906 30.7009 55.3026 31.0496 55.2851 31.4031C55.2603 31.8571 55.0315 32.2909 54.584 32.7147C54.9196 33.0232 55.0837 33.3492 55.0887 33.6953C55.0937 34.1567 54.8127 34.5881 54.2309 35.0068L52.3686 41.7103C52.6371 43.0144 52.1771 43.9624 51.0558 44.4288C51.3666 45.4496 50.914 46.3674 49.7106 47.1649C49.9195 47.6765 49.9419 48.1204 49.7802 48.5166C49.5291 49.131 48.8851 49.462 48.2039 49.6927C48.3904 50.1617 48.4102 50.5881 48.261 50.9692C48.0696 51.4658 47.6171 51.8395 46.8836 52.1053C46.9706 53.5424 46.7046 54.5028 46.0705 55.032C45.5484 55.4684 44.805 55.5762 43.8551 55.3505C43.3927 55.8621 42.7785 56.1429 42.1519 56.1429Z" fill="#1B1B1B" fill-opacity="1.000000" fill-rule="nonzero"/>
	<g opacity="0.300000">
		<g opacity="0.300000">
			<path id="Vector" d="M50.9537 42.8213L46.5155 40.5341L46.513 40.5316C46.3091 40.1604 46.0232 39.8445 45.69 39.5912L46.513 40.5316C46.9605 41.3441 47.0152 42.4175 46.2917 43.6338C45.9411 44.2281 45.138 44.3661 44.6034 43.9347C42.5621 42.2921 42.771 40.2633 42.771 40.2633L42.7735 40.2607C42.1668 40.2407 41.5501 39.9698 40.9982 39.4181C40.9484 39.3679 40.8987 39.3153 40.849 39.2601C39.3994 41.0156 37.6664 41.457 35.7394 41.0181C35.7146 41.0131 35.6897 41.0081 35.6673 41.0031C35.7842 39.556 36.2392 38.5153 36.9428 37.7679C34.6678 36.0776 32.353 34.9843 30.0083 34.3021C29.884 34.5806 29.6428 34.8815 29.2126 35.1849C29.2126 35.1849 31.2266 35.6112 29.782 37.61C29.782 37.61 31.1371 38.267 29.7249 39.6162C29.7249 39.6162 31.4703 40.4313 29.3593 41.7103C29.3593 41.7103 30.8189 42.9165 28.785 43.8269C29.787 44.3837 29.8268 45.0106 28.4319 45.7454C29.782 46.6482 29.506 47.4583 27.8551 48.1855C28.0515 48.5366 28.1932 48.8577 28.2802 49.1486L28.2977 49.1385C28.3101 49.1586 28.3225 49.1761 28.3374 49.1937C29.0113 50.1392 29.8442 50.4752 30.9158 49.946C31.6145 51.1498 32.7234 51.052 34.0562 50.252C34.4291 51.5134 35.4286 51.5435 36.744 50.9517C37.3133 52.3159 38.3203 52.3461 39.5411 51.7241C40.118 53.141 41.1349 53.1184 42.3955 52.2959C42.7884 53.9636 44.6358 54.1718 45.5905 52.8751C45.9013 52.9655 46.1922 53.0232 46.4558 53.0406C46.3265 54.8815 45.3071 55.3279 43.7058 54.8589C42.7511 56.1554 40.9037 55.9473 40.5108 54.2795C39.2502 55.1022 38.2358 55.1272 37.6565 53.7078C36.4356 54.3297 35.4286 54.2997 34.8593 52.9354C33.5415 53.5247 32.5444 53.4946 32.1715 52.2357C30.8412 53.0356 29.7298 53.1335 29.0312 51.9297C27.962 52.4589 27.1266 52.1228 26.4528 51.1774C26.4403 51.1573 26.4279 51.1398 26.413 51.1222C26.3782 51.1422 26.3459 51.1624 26.311 51.1824C25.9878 51.1899 25.1375 51.21 23.9589 51.2225C23.668 51.0444 23.3846 50.7937 23.1111 50.4677C21.8032 50.9467 20.7415 50.6733 19.9981 49.4319C18.9041 50.2294 18.0711 50.0814 17.6584 48.3962C16.4724 49.3918 15.5623 49.0056 14.8289 47.7441C13.2773 48.4564 12.5787 48.2633 11.9869 46.6232C10.9302 46.8739 10.1047 46.3649 11.1117 44.3059C10.3111 43.4432 10.3409 42.741 11.1291 42.1868C10.5647 40.8025 10.4155 39.6238 11.6612 39.1272C11.1291 38.2745 11.1614 37.4771 12.0043 36.7523C11.8502 35.8569 11.8004 34.9542 12.0441 34.2244C12.524 33.6626 12.8348 33.304 12.8348 33.304C12.8348 33.304 13.1754 33.2313 13.7697 33.1184C16.6116 32.5818 25.2369 31.1774 29.7373 32.8627C30.6747 30.8789 31.2018 28.2607 31.4604 26.6658C35.9483 28.3309 39.842 31.1072 41.7615 34.2495C43.2732 33.1786 45.4165 34.119 45.8416 35.9523C48.7781 34.8213 51.088 34.8639 52.8956 35.8545C54.084 38.0664 53.5843 41.5974 50.9537 42.8213Z" fill="#1B1B1B" fill-opacity="1.000000" fill-rule="nonzero"/>
		</g>
	</g>
	<path id="Vector" d="M42.7164 33.136L41.4658 36.0828L37.9028 36.647C35.2125 34.6482 32.465 33.4821 29.6827 32.8501C24.0684 31.5736 18.3074 32.4689 12.5687 33.0356C11.8775 33.1034 11.1888 33.1686 10.4976 33.2213L7.88931 28.8225C11.0694 29.2915 13.7125 27.3153 13.7125 27.3153C13.7697 27.2651 13.8268 27.215 13.8865 27.1674C17.9891 23.6965 23.9615 23.2802 29.5062 24.6545L29.7573 24.7197L29.7548 24.7197C35.3268 26.1567 40.4265 29.3893 42.7164 33.136Z" fill="#E07153" fill-opacity="1.000000" fill-rule="nonzero"/>
	<g opacity="0.550000">
		<g opacity="0.550000">
			<g opacity="0.550000">
				<path id="Vector" d="M42.7163 33.1359L42.2986 34.1215C39.9688 30.4349 34.9264 27.2626 29.4265 25.8431C29.4265 25.8431 29.4265 25.8431 29.429 25.8431L29.1779 25.778C27.2708 25.3065 25.3165 25.0457 23.402 25.0482C23.402 25.0482 23.397 25.0482 23.3945 25.0482C21.9748 24.9855 17.9841 25.0682 13.4415 27.5033C13.6205 27.3879 13.7175 27.3177 13.7175 27.3177C13.7747 27.2676 13.8318 27.2174 13.8915 27.1698C17.994 23.699 23.9664 23.2826 29.511 24.657L29.7622 24.7222C29.7622 24.7222 29.7622 24.7222 29.7597 24.7222C35.3267 26.1566 40.4263 29.3892 42.7163 33.1359Z" fill="#FFFFFF" fill-opacity="1.000000" fill-rule="nonzero"/>
			</g>
		</g>
		<g opacity="0.550000">
			<g opacity="0.550000">
				<path id="Vector" d="M13.439 27.5034C13.2525 27.6213 12.979 27.7869 12.6284 27.9574C12.9019 27.7969 13.1704 27.6464 13.439 27.5034Z" fill="#FFFFFF" fill-opacity="1.000000" fill-rule="nonzero"/>
			</g>
		</g>
	</g>
	<g opacity="0.550000">
		<g opacity="0.550000">
			<g opacity="0.550000">
				<g opacity="0.550000">
					<path id="Vector" d="M13.439 27.5034C13.2525 27.6213 12.979 27.7869 12.6284 27.9574C12.9019 27.7969 13.1704 27.6464 13.439 27.5034Z" fill="#FFFFFF" fill-opacity="1.000000" fill-rule="nonzero"/>
				</g>
			</g>
			<g opacity="0.550000">
				<g opacity="0.550000">
					<path id="Vector" d="M12.6582 28.015L12.5986 27.9047C12.8745 27.7417 13.148 27.5886 13.4091 27.4482L13.4713 27.556C13.2177 27.7191 12.9442 27.8721 12.6582 28.015Z" fill="#1B1B1B" fill-opacity="1.000000" fill-rule="nonzero"/>
				</g>
			</g>
		</g>
	</g>
	<path id="Vector" d="M43.7333 39.1447C43.7333 39.1447 43.5269 41.1736 45.5682 42.8162C46.1028 43.2476 46.9059 43.1071 47.2565 42.5153C48.542 40.351 47.3709 38.6432 45.8965 38.0413L43.7333 39.1447Z" fill="#E07153" fill-opacity="1.000000" fill-rule="nonzero"/>
	<g opacity="0.550000">
		<g opacity="0.550000">
			<path id="Vector" d="M47.254 42.5178C47.065 42.8363 46.7493 43.0219 46.4111 43.062C46.4534 43.0144 46.4907 42.9617 46.5255 42.9015C47.8109 40.7347 46.6399 39.0294 45.1654 38.4275L43.7283 39.1598C43.7283 39.1523 43.7283 39.1472 43.7283 39.1472L45.8914 38.0438C47.3684 38.6432 48.5395 40.3511 47.254 42.5178Z" fill="#FFFFFF" fill-opacity="1.000000" fill-rule="nonzero"/>
		</g>
	</g>
	<path id="Vector" d="M47.4778 39.4181L51.916 41.7028C54.5466 40.4789 55.0439 36.9479 53.8504 34.741C52.0354 33.7454 49.7155 33.7052 46.7642 34.8513L46.0705 37.8081L47.4778 39.4181Z" fill="#E07153" fill-opacity="1.000000" fill-rule="nonzero"/>
	<g opacity="0.550000">
		<g opacity="0.550000">
			<path id="Vector" d="M53.4825 40.4263C54.1564 39.0044 54.1489 37.2413 53.5497 35.8695C53.4502 35.6414 53.2662 35.4557 53.0424 35.3503C51.3467 34.5604 49.2333 34.5554 46.6077 35.5159L46.7643 34.8513C49.7157 33.7052 52.038 33.7454 53.853 34.741C54.7481 36.4037 54.6884 38.8137 53.4825 40.4263Z" fill="#FFFFFF" fill-opacity="1.000000" fill-rule="nonzero"/>
		</g>
	</g>
	<path id="Vector" d="M41.9605 38.3021C41.9108 38.252 41.8611 38.1992 41.8113 38.144C40.3617 39.8995 38.6287 40.3409 36.7018 39.9021C36.6769 39.8971 36.652 39.8921 36.6296 39.8871C36.7465 38.4401 37.2015 37.3993 37.9052 36.652C38.7779 35.719 40.0286 35.24 41.4756 34.9918C41.7516 34.1064 42.1967 33.5046 42.7164 33.1384C44.4742 31.8947 47.0875 33.3667 46.8587 35.8068C46.3067 38.8639 43.7781 40.1252 41.9605 38.3021Z" fill="#E07153" fill-opacity="1.000000" fill-rule="nonzero"/>
	<g opacity="0.550000">
		<g opacity="0.550000">
			<path id="Vector" d="M41.9953 38.1943L41.9605 38.3021C41.9108 38.252 41.8611 38.1993 41.8113 38.1442C40.3618 39.8997 38.6287 40.3411 36.7018 39.9021C40.6029 38.6758 42.0923 37.0958 41.4185 35.2024L41.7542 34.5854C43.2386 36.0776 41.9953 38.1943 41.9953 38.1943Z" fill="#FFFFFF" fill-opacity="1.000000" fill-rule="nonzero"/>
		</g>
	</g>
	<g opacity="0.550000">
		<g opacity="0.550000">
			<path id="Vector" d="M43.4026 39.1095C44.5389 38.806 45.5335 37.6324 45.8567 35.8444C46.0109 34.1816 44.8472 32.9679 43.5319 32.7598C45.1779 32.3434 47.0526 33.7228 46.8587 35.8042C46.4435 38.1039 44.9119 39.3904 43.4026 39.1095Z" fill="#FFFFFF" fill-opacity="1.000000" fill-rule="nonzero"/>
		</g>
	</g>
	<path id="Vector" d="M38.022 40.4965C37.5446 40.4965 37.0474 40.4337 36.5302 40.3108C36.3213 40.2607 36.1796 40.0651 36.197 39.8494C36.3139 38.3848 36.7813 37.2062 37.5894 36.3459C38.3975 35.4807 39.5636 34.9089 41.1475 34.6005C41.4409 33.798 41.8834 33.1836 42.4677 32.7748C43.4175 32.1027 44.6583 32.0651 45.705 32.6794C46.8065 33.3265 47.4157 34.5378 47.2939 35.8444C47.2939 35.8569 47.2914 35.8695 47.2889 35.882C46.9582 37.7178 45.9139 39.097 44.5638 39.4807C43.6165 39.7516 42.6443 39.4958 41.8362 38.781C40.7571 39.9221 39.4791 40.4965 38.022 40.4965ZM37.1046 39.5359C38.86 39.8469 40.2946 39.2977 41.4781 37.8632C41.5602 37.7654 41.6771 37.7078 41.8039 37.7052C41.8063 37.7052 41.8088 37.7052 41.8113 37.7052C41.9356 37.7052 42.0525 37.7578 42.1346 37.8507C42.781 38.5754 43.5593 38.8563 44.3226 38.6381C45.347 38.3447 46.1526 37.2388 46.4261 35.744C46.5107 34.776 46.078 33.9159 45.265 33.4393C44.514 33.0005 43.6339 33.0205 42.965 33.4945C42.4827 33.8356 42.1196 34.3823 41.8884 35.1196C41.8387 35.2776 41.7069 35.3929 41.5453 35.4205C40.0261 35.6814 38.937 36.1804 38.2184 36.9503C37.6143 37.5974 37.2463 38.4451 37.1046 39.5359Z" fill="#1B1B1B" fill-opacity="1.000000" fill-rule="nonzero"/>
	<path id="Vector" d="M52.4829 33.823C52.5376 33.8582 52.5674 33.8832 52.6072 33.9158C52.6445 33.9459 52.6818 33.976 52.7166 34.0061C52.7887 34.0687 52.8558 34.1315 52.9205 34.2017C53.0498 34.3372 53.1691 34.4875 53.2686 34.6531C53.47 34.9791 53.5943 35.3904 53.5496 35.7916C53.5297 35.9897 53.4749 36.1804 53.3979 36.356C53.3208 36.5315 53.2189 36.6844 53.1119 36.83C52.8932 37.1158 52.6172 37.344 52.3909 37.5597C52.2691 37.665 52.1646 37.7904 52.0503 37.9058C51.9384 38.0237 51.8389 38.1516 51.732 38.2744C51.5356 38.5328 51.3391 38.7961 51.1775 39.0795C51.011 39.3604 50.8618 39.6538 50.7399 39.9623C50.6181 40.2682 50.5137 40.5842 50.4565 40.9127C50.4838 40.5817 50.5584 40.2532 50.6529 39.9321C50.7474 39.6112 50.8717 39.2977 51.0159 38.9943C51.1552 38.6882 51.3292 38.3973 51.5082 38.1115C51.6052 37.9735 51.6997 37.8306 51.8016 37.6976C51.9085 37.5673 52.0055 37.4268 52.1224 37.304C52.3536 37.0406 52.5724 36.8224 52.734 36.5641C52.8111 36.4337 52.8807 36.3032 52.9255 36.1678C52.9702 36.0325 52.9951 35.897 52.9951 35.764C52.9976 35.4983 52.8956 35.2474 52.729 35.0243C52.647 34.9139 52.5475 34.8112 52.4381 34.7158C52.3834 34.6682 52.3287 34.623 52.269 34.5829C52.2392 34.5629 52.2094 34.5427 52.182 34.5227C52.1547 34.5051 52.1174 34.4825 52.1025 34.4751L52.4829 33.823Z" fill="#FFFFFF" fill-opacity="1.000000" fill-rule="nonzero"/>
	<path id="Vector" d="M49.0392 33.9436C49.3227 34.41 49.5539 34.9216 49.6608 35.4758C49.7702 36.0276 49.7255 36.6219 49.5315 37.1686C49.3401 37.7179 49.0094 38.2069 48.624 38.6307C48.2386 39.0544 47.7961 39.4181 47.3361 39.7491L46.9432 39.1096C47.4007 38.8563 47.8408 38.568 48.2311 38.2294C48.6215 37.8884 48.9597 37.4896 49.1859 37.0256C49.4122 36.5642 49.5191 36.0352 49.4743 35.501C49.4346 34.9668 49.268 34.4402 49.0392 33.9436Z" fill="#FFFFFF" fill-opacity="1.000000" fill-rule="nonzero"/>
	<path id="Vector" d="M37.8779 28.3411C37.5298 28.7975 37.3508 29.4319 37.2339 30.069C37.117 30.7134 37.0698 31.3831 37.0101 32.0552C36.9803 32.3911 36.9504 32.7297 36.9032 33.0682C36.856 33.4069 36.7963 33.7479 36.6794 34.0764C36.6545 34.1592 36.6123 34.2395 36.5775 34.3197C36.5576 34.3599 36.5327 34.3975 36.5128 34.4351C36.4904 34.4727 36.468 34.5128 36.4382 34.5454C36.3387 34.6934 36.1871 34.8063 36.0279 34.8765L35.9036 34.9191L35.7743 34.9391C35.7519 34.9417 35.732 34.9467 35.7097 34.9467L35.645 34.9441L35.5182 34.9391C35.4337 34.9266 35.3516 34.9115 35.2695 34.894L35.0284 34.8187L35.2745 34.8689C35.3566 34.8789 35.4386 34.8865 35.5207 34.889L35.6425 34.8815L35.7047 34.8789C35.7246 34.8765 35.7445 34.8689 35.7644 34.8665L35.8812 34.8389L35.9906 34.7887C36.1274 34.7109 36.2468 34.6056 36.3238 34.4626C36.3462 34.4301 36.3636 34.3949 36.381 34.3573C36.3984 34.3197 36.4158 34.2845 36.4308 34.2495C36.4531 34.1718 36.4879 34.099 36.5029 34.0188C36.5824 33.7028 36.6098 33.3717 36.6272 33.0406C36.6421 32.7097 36.6421 32.3737 36.6396 32.0376C36.6371 31.3629 36.6222 30.6858 36.6819 29.9912C36.7117 29.6451 36.759 29.2965 36.846 28.9454C36.933 28.5968 37.0598 28.2407 37.2662 27.9097L37.8779 28.3411Z" fill="#FFFFFF" fill-opacity="1.000000" fill-rule="nonzero"/>
	<path id="Vector" d="M32.4127 25.5498C32.3307 26.2645 32.3754 26.9792 32.4798 27.684C32.5843 28.3887 32.7459 29.0834 32.8777 29.7955C32.9423 30.1517 32.9995 30.5154 33.0169 30.8915C33.0318 31.2651 33.0169 31.6614 32.8826 32.0526C32.7484 32.4413 32.4823 32.8075 32.1466 33.0458C31.8135 33.2889 31.443 33.442 31.075 33.5524L30.896 32.8225C31.2142 32.7573 31.5226 32.657 31.7811 32.5016C32.0422 32.3485 32.2361 32.1254 32.363 31.8469C32.4873 31.5686 32.537 31.2351 32.5519 30.8965C32.5644 30.5554 32.542 30.2043 32.5097 29.8507C32.4425 29.1436 32.3381 28.4263 32.2958 27.7065C32.2486 26.9843 32.2685 26.2545 32.4127 25.5498Z" fill="#FFFFFF" fill-opacity="1.000000" fill-rule="nonzero"/>
	<path id="Vector" d="M28.3201 24.4188C28.2182 24.7448 28.1312 25.0784 28.064 25.4169C27.9969 25.7555 27.9496 26.099 27.9173 26.4476C27.8502 27.1423 27.8502 27.8521 27.8427 28.5692C27.8402 28.9279 27.8328 29.2889 27.8055 29.6526C27.7781 30.0138 27.7209 30.3799 27.609 30.731C27.4996 31.082 27.3156 31.4106 27.072 31.6815C26.8283 31.9523 26.5299 32.1604 26.2141 32.3209C26.515 32.1328 26.791 31.9021 26.9998 31.6212C27.2112 31.3429 27.3554 31.0194 27.43 30.6808C27.5817 30.0012 27.522 29.2915 27.4723 28.5818C27.4151 27.8721 27.3529 27.1498 27.3604 26.4175C27.3629 26.0514 27.3802 25.6827 27.42 25.3165C27.4598 24.9479 27.522 24.5818 27.6016 24.2181L28.3201 24.4188Z" fill="#FFFFFF" fill-opacity="1.000000" fill-rule="nonzero"/>
	<path id="Vector" d="M22.6014 23.8269C22.4049 24.5868 22.3353 25.3693 22.3378 26.1492C22.3378 26.9291 22.4099 27.709 22.395 28.509C22.3875 28.9078 22.3527 29.3165 22.2558 29.7203C22.1613 30.124 22.0021 30.5203 21.7809 30.8815C21.5596 31.2426 21.2761 31.561 20.9678 31.8369C20.657 32.1128 20.3213 32.3511 19.9732 32.5668L19.6127 31.9071C20.2716 31.5686 20.8932 31.1473 21.3184 30.563C21.5322 30.2721 21.6938 29.946 21.8082 29.5924C21.9226 29.2413 21.9847 28.8651 22.0245 28.484C22.0991 27.7191 22.0892 26.9266 22.1538 26.1392C22.211 25.3541 22.3453 24.5692 22.6014 23.8269Z" fill="#FFFFFF" fill-opacity="1.000000" fill-rule="nonzero"/>
	<path id="Vector" d="M17.7479 25.126C17.5888 25.7679 17.4645 26.425 17.3401 27.087C17.2159 27.7491 17.0915 28.4213 16.9075 29.0808C16.726 29.7404 16.4799 30.3949 16.1069 30.9717C16.0149 31.1172 15.9055 31.2501 15.8061 31.3881C15.6942 31.5159 15.5748 31.6388 15.4604 31.7642C15.3311 31.8745 15.2043 31.9874 15.075 32.0952L14.6598 32.3811L15.0452 32.0601C15.1646 31.9423 15.2765 31.8193 15.3933 31.7015C15.4952 31.5686 15.5972 31.4381 15.6942 31.3053C15.7787 31.1624 15.8707 31.0269 15.9478 30.8789C16.2536 30.2921 16.4301 29.65 16.5445 28.998C16.6614 28.3459 16.721 27.679 16.7857 27.0068C16.8478 26.3347 16.9125 25.6576 17.0169 24.9755L17.7479 25.126Z" fill="#FFFFFF" fill-opacity="1.000000" fill-rule="nonzero"/>
	<path id="Vector" d="M10.8283 28.1404C10.5026 28.2983 10.2191 28.5341 9.98785 28.8049C9.75662 29.0784 9.57263 29.3893 9.45825 29.7253C9.3414 30.0588 9.26682 30.4075 9.25436 30.7611L9.24194 31.0244L9.25687 31.2903C9.26431 31.3781 9.26184 31.4658 9.27426 31.5536L9.31406 31.8169L9.39609 32.3585L9.43835 32.637L9.45825 32.9203C9.49057 33.299 9.46323 33.6902 9.39362 34.079C9.23944 34.8513 8.74963 35.674 7.80481 35.9297L7.68793 35.1874C7.68295 35.1899 7.70535 35.1849 7.71777 35.1824C7.73019 35.1799 7.74762 35.1749 7.76501 35.1698C7.79733 35.1624 7.82965 35.1498 7.86197 35.1372C7.92664 35.1122 7.99377 35.0846 8.05591 35.0444C8.12057 35.0118 8.17776 34.9642 8.23743 34.9216C8.29214 34.8715 8.34933 34.8237 8.40152 34.7686C8.60541 34.5454 8.75958 34.2595 8.85156 33.9385C8.93613 33.6176 8.99329 33.2765 8.99329 32.9253L8.99826 32.662L8.98087 32.3962L8.94604 31.8495L8.92865 31.5686C8.92368 31.4758 8.93362 31.3805 8.93362 31.2852L8.94357 31.0043L8.98087 30.7235C9.02563 30.3497 9.13751 29.9836 9.29166 29.6426C9.44333 29.299 9.66464 28.9905 9.92572 28.7297C10.1793 28.4814 10.4876 28.2683 10.8283 28.1404Z" fill="#FFFFFF" fill-opacity="1.000000" fill-rule="nonzero"/>
	<path id="Vector" d="M10.336 24.3811C10.2987 24.3787 10.2365 24.3761 10.1843 24.3761C10.1296 24.3761 10.0749 24.3761 10.0202 24.3787C9.9108 24.3811 9.79892 24.3911 9.68701 24.4037C9.46573 24.4287 9.24445 24.4689 9.02811 24.524C8.59549 24.6344 8.18027 24.8125 7.81226 25.0608C7.62579 25.1836 7.45673 25.3265 7.30008 25.4871C7.14093 25.645 7.00171 25.8206 6.87738 26.0087C6.63123 26.3873 6.44724 26.8137 6.33783 27.2651L6.25827 27.6112C6.22842 27.7316 6.20605 27.8545 6.16876 27.9749C6.13394 28.0952 6.09915 28.213 6.05188 28.3309C6.01212 28.4487 5.9574 28.5616 5.90271 28.677C5.6839 29.1259 5.35074 29.5321 4.92804 29.798C4.50534 30.0663 4.01056 30.1842 3.5257 30.1942C3.04086 30.2018 2.5585 30.1215 2.10846 29.9609C2.56845 30.0914 3.05081 30.139 3.52072 30.0989C3.99066 30.0588 4.45065 29.9133 4.82361 29.64C5.19656 29.3691 5.47256 28.9829 5.64911 28.5566C5.69138 28.4487 5.73364 28.3409 5.76596 28.2306C5.80325 28.1202 5.82812 28.0074 5.853 27.8945C5.88281 27.7817 5.89526 27.6638 5.91513 27.551L5.97482 27.1874C6.06433 26.6958 6.23093 26.2118 6.48206 25.7654C6.60886 25.5448 6.75555 25.3291 6.92462 25.1384C7.09369 24.9429 7.28018 24.7648 7.48654 24.6068C7.89432 24.2883 8.35928 24.0551 8.84412 23.8971C9.0878 23.8169 9.33395 23.7542 9.58755 23.709C9.71436 23.689 9.84119 23.6689 9.96799 23.6564C10.0326 23.6488 10.0973 23.6438 10.1619 23.6414C10.2291 23.6364 10.2887 23.6338 10.3683 23.6338L10.336 24.3811Z" fill="#FFFFFF" fill-opacity="1.000000" fill-rule="nonzero"/>
	<path id="Vector" d="M46.2794 43.5084C45.9239 43.5084 45.5757 43.3881 45.2948 43.1624C43.0943 41.3893 43.2907 39.1949 43.3007 39.1021C43.3255 38.8613 43.5394 38.6858 43.778 38.7109C44.0168 38.736 44.1908 38.9491 44.166 39.1899C44.1585 39.2676 44.0242 41.0156 45.8393 42.4751C45.9984 42.603 46.2048 42.6558 46.4087 42.618C46.6101 42.5804 46.7792 42.4651 46.8811 42.2921C47.3585 41.4871 47.4903 40.6946 47.2591 39.9999C47.0353 39.3278 46.4659 38.7485 45.7324 38.4501C45.5086 38.3597 45.4017 38.104 45.4912 37.8783C45.5807 37.6526 45.8344 37.5448 46.0581 37.635C47.0378 38.0338 47.7762 38.7937 48.0846 39.719C48.3034 40.3787 48.4028 41.4369 47.6295 42.741C47.3983 43.1298 47.0104 43.4005 46.5653 43.4808C46.4684 43.4984 46.3739 43.5084 46.2794 43.5084Z" fill="#1B1B1B" fill-opacity="1.000000" fill-rule="nonzero"/>
	<path id="Vector" d="M51.9161 42.144C51.849 42.144 51.7794 42.129 51.7172 42.0964L47.279 39.8092C47.0652 39.6989 46.9806 39.4355 47.09 39.2198C47.1994 39.0043 47.4605 38.9189 47.6743 39.0293L51.9186 41.2162C53.0176 40.6318 53.5323 39.6538 53.7734 38.9189C54.1887 37.6575 54.0917 36.1954 53.5248 35.0669C51.7744 34.1591 49.6212 34.2192 46.9508 35.25C46.727 35.3352 46.4759 35.2224 46.3889 34.9967C46.3018 34.771 46.4162 34.5177 46.64 34.4299C49.5814 33.2938 52.0753 33.2687 54.0569 34.3546C54.1315 34.3948 54.1912 34.455 54.231 34.5302C54.9595 35.877 55.1012 37.665 54.5989 39.1923C54.1638 40.5215 53.2737 41.5547 52.0951 42.1014C52.0404 42.129 51.9783 42.144 51.9161 42.144Z" fill="#1B1B1B" fill-opacity="1.000000" fill-rule="nonzero"/>
	<path id="Vector" d="M41.8113 38.583C41.7144 38.583 41.6149 38.5504 41.5328 38.4827C41.3488 38.3273 41.3215 38.0514 41.4756 37.8657C41.6149 37.6978 41.7541 37.5096 41.8934 37.3091C41.9406 37.2263 42.2663 36.6194 42.2464 36.0176C42.239 35.7743 42.4255 35.5712 42.6667 35.5636C42.9103 35.5536 43.1092 35.7441 43.1167 35.9874C43.149 36.8953 42.6567 37.7354 42.6368 37.7705C42.6318 37.778 42.6269 37.7855 42.6219 37.7955C42.4652 38.0238 42.3061 38.2369 42.1495 38.4275C42.06 38.5278 41.9356 38.583 41.8113 38.583Z" fill="#1B1B1B" fill-opacity="1.000000" fill-rule="nonzero"/>
	<path id="Vector" d="M41.4756 35.4282C41.4334 35.4282 41.3911 35.4231 41.3513 35.4106C41.1201 35.3403 40.9908 35.0972 41.0604 34.8639C41.13 34.6307 41.3712 34.5002 41.6025 34.5706C41.8337 34.6407 41.963 34.884 41.8959 35.1172C41.8362 35.3053 41.6621 35.4282 41.4756 35.4282Z" fill="#1B1B1B" fill-opacity="1.000000" fill-rule="nonzero"/>
	<path id="Vector" d="M42.7162 33.5748C42.5695 33.5748 42.4278 33.4996 42.3458 33.3667C39.8022 29.2037 33.5564 25.6124 27.1564 24.6294C21.8206 23.8119 17.1487 24.8827 14.0034 27.6488C13.9959 27.6564 13.986 27.6638 13.976 27.6714C13.8616 27.7567 11.149 29.7529 7.82965 29.2614C7.59094 29.2262 7.42685 29.0031 7.46167 28.7623C7.49646 28.5216 7.71527 28.3561 7.95395 28.3911C10.8058 28.8125 13.2525 27.1096 13.4439 26.9717C16.7881 24.045 21.7012 22.9041 27.2857 23.7592C33.9219 24.7773 40.4188 28.5366 43.0842 32.9027C43.211 33.1084 43.1464 33.3793 42.9425 33.5071C42.8729 33.5522 42.7933 33.5748 42.7162 33.5748Z" fill="#1B1B1B" fill-opacity="1.000000" fill-rule="nonzero"/>
	<path id="Vector" d="M11.6562 37.5498C11.6139 37.5498 11.5717 37.5448 11.5294 37.5297C7.08124 36.158 4.25418 33.4771 2.66537 31.4708C0.939819 29.2915 0.273468 27.4532 0.246124 27.3755C0.24115 27.3629 0.236176 27.3479 0.233704 27.3329C-0.159149 25.7529 -0.054718 24.3535 0.532074 23.3955C0.892578 22.8037 1.42966 22.4025 2.03882 22.267C2.76483 22.104 3.52567 22.3899 4.03043 23.0118C4.84348 24.015 5.81067 24.1454 7.07376 23.4257C9.01562 22.272 10.2141 23.0746 10.873 23.9548C10.878 23.9598 10.8804 23.9648 10.8854 23.9723C11.5368 24.9279 12.3847 25.4093 13.4787 25.4445C13.7199 25.452 13.9064 25.6552 13.8989 25.8959C13.8914 26.1392 13.6876 26.3297 13.4514 26.3197C12.0839 26.2771 10.9799 25.6552 10.1743 24.4764C9.75162 23.9171 9.01813 23.2877 7.50888 24.1855C5.44269 25.3617 4.10999 24.4965 3.3566 23.566C3.0632 23.2024 2.63058 23.0344 2.22778 23.1248C1.84238 23.2125 1.51169 23.4658 1.27051 23.8595C0.810547 24.6094 0.740906 25.7604 1.06912 27.0996C1.22079 27.4984 3.89368 34.2595 11.7805 36.6921C12.0092 36.7623 12.1385 37.0081 12.0689 37.2413C12.0142 37.4294 11.8427 37.5498 11.6562 37.5498Z" fill="#1B1B1B" fill-opacity="1.000000" fill-rule="nonzero"/>
	<path id="Vector" d="M37.9027 37.0883C37.8132 37.0883 37.7237 37.0607 37.6442 37.0031C30.3689 31.5963 22.8401 32.3962 14.8687 33.2413C13.4464 33.3918 11.977 33.5474 10.5324 33.6627C10.2937 33.6827 10.0823 33.5022 10.0649 33.2589C10.045 33.0182 10.2241 32.8051 10.4652 32.7875C11.8999 32.6746 13.3644 32.5192 14.7791 32.3687C22.5641 31.5436 30.6151 30.6885 38.1613 36.2959C38.3553 36.4388 38.3951 36.7146 38.2533 36.9103C38.1688 37.0256 38.037 37.0883 37.9027 37.0883Z" fill="#1B1B1B" fill-opacity="1.000000" fill-rule="nonzero"/>
	<g opacity="0.300000">
		<g opacity="0.300000">
			<g opacity="0.300000">
				<path id="Vector" d="M26.4503 51.1798C26.4453 51.1798 26.3956 51.1798 26.3087 51.1848C26.3434 51.1648 26.3782 51.1448 26.4105 51.1248C26.4254 51.1423 26.4379 51.1624 26.4503 51.1798Z" fill="#1B1B1B" fill-opacity="1.000000" fill-rule="nonzero"/>
			</g>
		</g>
		<g opacity="0.300000">
			<g opacity="0.300000">
				<path id="Vector" d="M26.0575 51.2576L26.2763 51.1322C26.3111 51.1122 26.3459 51.0922 26.3782 51.072L26.4279 51.042L26.5672 51.2476L26.4478 51.245C26.4379 51.245 26.3931 51.245 26.3086 51.2476L26.0575 51.2576Z" fill="#1B1B1B" fill-opacity="1.000000" fill-rule="nonzero"/>
			</g>
		</g>
	</g>
	<path id="Vector" d="M23.6083 42.8312C20.463 42.6255 17.7305 39.27 20.7763 34.6582C20.7763 34.6582 22.5367 32.3158 25.0828 34.6782C25.5204 35.0845 25.6248 35.744 25.3289 36.2656C24.0708 38.4851 23.7575 40.3184 25.6994 41.2336C26.0997 41.4218 26.4553 41.7076 26.7064 42.0763C28.2753 44.3735 23.7849 45.8104 23.6083 42.8312Z" fill="#FFFFFF" fill-opacity="1.000000" fill-rule="nonzero"/>
	<path id="Vector" d="M25.237 44.5767C25.0605 44.5767 24.8864 44.5542 24.7223 44.504C24.3195 44.3861 23.6382 44.02 23.5512 42.8889C21.9301 42.766 20.5078 41.8331 19.8265 40.4487C19.016 38.7961 19.3367 36.7272 20.7266 34.623C20.7589 34.5804 21.4527 33.6726 22.6113 33.5697C23.4393 33.4945 24.2847 33.8531 25.1251 34.6331C25.5876 35.0645 25.6945 35.7466 25.3837 36.2983C24.501 37.8531 24.2051 39.0269 24.4737 39.882C24.6502 40.4413 25.058 40.8651 25.7268 41.1786C26.157 41.3817 26.5125 41.6802 26.7587 42.0413C27.1838 42.6658 27.2162 43.2927 26.8482 43.8093C26.5026 44.2858 25.8611 44.5767 25.237 44.5767ZM22.8252 33.6851C22.758 33.6851 22.6909 33.6876 22.6237 33.6951C21.5198 33.793 20.8335 34.6882 20.8261 34.6958C19.4635 36.7572 19.1477 38.781 19.9359 40.3911C20.6023 41.7529 22.0121 42.6632 23.6109 42.766L23.6656 42.7686L23.6681 42.8237C23.7153 43.6362 24.1032 44.1906 24.7521 44.3811C25.4583 44.5892 26.331 44.3033 26.7413 43.7316C27.0769 43.2626 27.0446 42.6858 26.6518 42.1064C26.418 41.7629 26.0774 41.4795 25.6696 41.2864C24.9784 40.9604 24.5358 40.4989 24.3518 39.9146C24.0709 39.0243 24.3742 37.8206 25.2718 36.2306C25.5552 35.7314 25.4583 35.1121 25.0381 34.7208C24.2971 34.0337 23.5537 33.6851 22.8252 33.6851Z" fill="#1B1B1B" fill-opacity="1.000000" fill-rule="nonzero"/>
	<g opacity="0.300000">
		<g opacity="0.300000">
			<g opacity="0.300000">
				<g opacity="0.300000">
					<path id="Vector" d="M26.2837 44.2281C25.3066 44.8075 23.7103 44.5844 23.6084 42.8313C20.463 42.6257 17.7305 39.2701 20.7763 34.6582C20.7763 34.6582 21.6739 33.462 23.1161 33.6426C22.5118 33.9485 22.1662 34.405 22.1662 34.405C19.1204 39.0168 21.8505 42.3724 24.9983 42.578C25.0579 43.6012 25.6273 44.1028 26.2837 44.2281Z" fill="#1B1B1B" fill-opacity="1.000000" fill-rule="nonzero"/>
				</g>
			</g>
			<g opacity="0.300000">
				<g opacity="0.300000">
					<path id="Vector" d="M25.2469 44.5792C24.9485 44.5792 24.6601 44.5116 24.409 44.3787C24.0534 44.188 23.6183 43.7743 23.5487 42.8915C21.9276 42.7686 20.5053 41.8357 19.8241 40.4513C19.0135 38.7987 19.3342 36.7296 20.7242 34.6256C20.7366 34.6105 21.6615 33.3993 23.121 33.5823L23.3249 33.6074L23.1409 33.7002C22.5591 33.9937 22.2185 34.4399 22.2135 34.4451C20.851 36.5065 20.5352 38.5303 21.3234 40.1404C21.9897 41.5021 23.3995 42.4125 24.9983 42.5153L25.053 42.5178L25.0555 42.573C25.1077 43.4457 25.5577 44.025 26.2912 44.1654L26.4529 44.1956L26.3111 44.2808C25.9854 44.479 25.61 44.5792 25.2469 44.5792ZM22.8252 33.6852C21.6018 33.6852 20.836 34.6832 20.8261 34.6958C19.4635 36.7572 19.1478 38.7836 19.9359 40.3937C20.6023 41.7554 22.0121 42.6658 23.6109 42.7686L23.6656 42.7711L23.6681 42.8263C23.7203 43.689 24.1305 44.0852 24.4662 44.2657C24.9361 44.5166 25.5776 44.5066 26.1097 44.2507C25.4259 44.0526 25.0057 43.4758 24.9386 42.6356C23.3175 42.5128 21.8952 41.5798 21.214 40.1956C20.4034 38.5428 20.7242 36.4739 22.114 34.3698C22.129 34.3497 22.4074 33.9835 22.9023 33.6876C22.8774 33.6876 22.85 33.6852 22.8252 33.6852Z" fill="#1B1B1B" fill-opacity="1.000000" fill-rule="nonzero"/>
				</g>
			</g>
		</g>
	</g>
	<path id="Vector" d="M25.2419 44.953C25.0306 44.953 24.8192 44.9254 24.6178 44.8652C23.7625 44.6145 23.2354 43.8822 23.1757 42.8564C23.1608 42.6157 23.3448 42.4076 23.5835 42.3925C23.8222 42.3774 24.0285 42.563 24.0435 42.8038C24.0833 43.4558 24.3642 43.8772 24.8615 44.0226C25.4185 44.1857 26.1271 43.9574 26.4428 43.5135C26.6865 43.1725 26.6542 42.7712 26.3484 42.3223C26.1519 42.0338 25.8635 41.7931 25.5154 41.6301C24.7048 41.2489 24.1877 40.6897 23.9813 39.9724C23.6531 38.8263 24.1181 37.3191 25.4458 35.2275C25.5751 35.0244 25.8436 34.9642 26.0475 35.0946C26.2489 35.225 26.3086 35.4958 26.1793 35.7015C25.0132 37.5372 24.5681 38.8564 24.8192 39.7291C24.9535 40.2006 25.3041 40.5618 25.8859 40.8376C26.3757 41.0684 26.7835 41.4094 27.0669 41.8282C27.5816 42.5806 27.6115 43.3856 27.1515 44.0302C26.7338 44.6069 25.9828 44.953 25.2419 44.953Z" fill="#1B1B1B" fill-opacity="1.000000" fill-rule="nonzero"/>
	<path id="Vector" d="M23.9117 43.2803C22.2682 43.2803 20.6968 42.4878 19.7942 41.1411C18.5709 39.3153 18.7972 36.8627 20.4133 34.415C20.5476 34.2145 20.8161 34.1593 21.0175 34.2921C21.2165 34.4276 21.2711 34.6985 21.1394 34.9016C19.7296 37.0382 19.5008 39.1323 20.5153 40.6495C21.4129 41.9888 23.1235 42.6583 24.7745 42.3147C25.0107 42.2645 25.2395 42.4176 25.2892 42.6558C25.3389 42.894 25.1873 43.1248 24.951 43.1749C24.6054 43.2451 24.2573 43.2803 23.9117 43.2803Z" fill="#1B1B1B" fill-opacity="1.000000" fill-rule="nonzero"/>
	<path id="Vector" d="M59.0397 42.563C58.9651 42.563 58.888 42.5428 58.8184 42.5002C58.612 42.3773 58.5449 42.1066 58.6667 41.8983C59.169 41.0457 59.2013 40.5115 59.0646 40.2933C58.9502 40.1102 58.6891 40.1152 58.5847 40.1254C58.2266 40.1604 57.7542 40.4263 57.5603 40.9253C57.5006 41.0782 57.3614 41.1862 57.1972 41.2012L52.7614 41.645C52.5227 41.6676 52.3089 41.4921 52.2865 41.2513C52.2617 41.0106 52.4382 40.7949 52.6769 40.7723L56.869 40.3511C57.2445 39.6664 57.9357 39.3053 58.5026 39.2501C59.0571 39.1949 59.542 39.4106 59.803 39.8219C60.0616 40.2357 60.2083 41.0081 59.4201 42.3447C59.3331 42.4877 59.1889 42.563 59.0397 42.563Z" fill="#1B1B1B" fill-opacity="1.000000" fill-rule="nonzero"/>
	<path id="Vector" d="M50.2726 46.5579C50.0736 46.5579 49.8946 46.4199 49.8499 46.2168C49.7952 45.9811 49.9419 45.7454 50.1756 45.6902L61.0361 43.1748C61.8691 42.9817 62.5777 42.4275 62.9283 41.6902C63.428 40.647 62.9009 40.0802 62.5454 39.8369C61.782 39.3153 60.4543 39.3127 59.6363 40.2131C59.4747 40.3911 59.1987 40.4037 59.0222 40.2406C58.8456 40.0776 58.8332 39.7993 58.9948 39.6212C60.1261 38.3749 61.9735 38.3849 63.0352 39.1096C64.0099 39.7742 64.2709 40.9103 63.7165 42.0714C63.244 43.0594 62.339 43.7742 61.235 44.03L50.3745 46.5454C50.3372 46.5554 50.3049 46.5579 50.2726 46.5579Z" fill="#1B1B1B" fill-opacity="1.000000" fill-rule="nonzero"/>
	<g opacity="0.600000">
		<g opacity="0.600000">
			<g opacity="0.600000">
				<path id="Vector" d="M41.7616 8.58179C41.7914 8.198 41.8088 7.8595 41.7442 7.57104C41.6845 7.28015 41.5503 7.05945 41.3712 6.90906C41.1897 6.76099 40.9485 6.67578 40.6576 6.67322C40.3642 6.67078 40.0435 6.75854 39.678 6.8739C39.8446 6.53027 40.1504 6.23938 40.5532 6.10901C40.7546 6.04382 40.9784 6.02368 41.2047 6.05884C41.4284 6.09644 41.6497 6.19177 41.8312 6.34229C42.0103 6.49268 42.1495 6.6908 42.2315 6.90393C42.3136 7.11719 42.336 7.3429 42.3136 7.55347C42.2688 7.97986 42.0575 8.34094 41.7616 8.58179Z" fill="#1B1B1B" fill-opacity="1.000000" fill-rule="nonzero"/>
			</g>
		</g>
		<g opacity="0.600000">
			<g opacity="0.600000">
				<path id="Vector" d="M35.5107 5.87817C35.1801 5.7804 34.827 5.75281 34.5386 5.86572C34.2502 5.97607 34.0439 6.21423 33.9742 6.48767C33.9046 6.76355 33.9692 7.05188 34.1284 7.27258C34.2875 7.49573 34.5411 7.65125 34.8221 7.74902C35.0433 7.82678 35.1602 8.07263 35.0831 8.29578C35.0284 8.45129 34.8966 8.55408 34.7475 8.57666L34.6604 8.58923C34.5187 8.59668 34.382 8.60925 34.2527 8.64185C34.1259 8.67444 34.0115 8.72217 33.9121 8.78479C33.7156 8.90771 33.5963 9.09326 33.5739 9.29138C33.554 9.4895 33.6311 9.68762 33.7878 9.81555C33.9419 9.94592 34.1806 10.0061 34.4441 9.99609C34.6853 9.98608 34.8867 10.1742 34.8991 10.4174C34.9066 10.5879 34.8146 10.741 34.6779 10.8187L34.6754 10.8187C34.4243 10.929 34.1855 11.0569 33.9692 11.2098C33.7579 11.3604 33.564 11.5485 33.477 11.734C33.4372 11.8268 33.4272 11.8945 33.4496 11.9573C33.472 12.0225 33.5515 12.1002 33.6635 12.1528C33.8872 12.2606 34.1806 12.2983 34.464 12.3108L34.4665 12.3108C34.5361 12.3134 34.5883 12.371 34.5858 12.4413C34.5834 12.5039 34.5361 12.5541 34.4765 12.5616C34.1731 12.5992 33.8599 12.6268 33.5217 12.5365C33.3576 12.4889 33.1687 12.4011 33.0344 12.208C32.9698 12.1127 32.93 11.9973 32.9175 11.8845C32.9051 11.7716 32.9175 11.6638 32.9399 11.566C32.9897 11.3704 33.0742 11.2074 33.1711 11.0619C33.2681 10.9165 33.3775 10.786 33.4944 10.6682C33.7256 10.4299 33.9842 10.2294 34.2527 10.0487L34.4839 10.8713C34.2776 10.8789 34.0612 10.8638 33.8449 10.8062C33.6311 10.7484 33.4148 10.6456 33.2308 10.4927C33.0468 10.3397 32.8952 10.139 32.8032 9.91333C32.7112 9.68762 32.6789 9.43689 32.7037 9.19604C32.7286 8.95532 32.8181 8.72217 32.9474 8.52405C33.0767 8.32593 33.2507 8.16284 33.4397 8.04248C33.6286 7.92212 33.83 7.84192 34.0339 7.78918C34.2353 7.73657 34.4367 7.71899 34.6331 7.70898L34.469 8.54907C34.0886 8.34839 33.7206 8.05249 33.5068 7.63367C33.2905 7.22241 33.2632 6.71082 33.4422 6.29199C33.6162 5.86816 34.0066 5.55725 34.4218 5.46948C34.8419 5.37671 35.2497 5.47949 35.5953 5.64001C35.6574 5.6676 35.6848 5.7428 35.6574 5.80554C35.6326 5.86316 35.5679 5.89075 35.5083 5.87317L35.5107 5.87817Z" fill="#1B1B1B" fill-opacity="1.000000" fill-rule="nonzero"/>
			</g>
		</g>
		<g opacity="0.600000">
			<g opacity="0.600000">
				<path id="Vector" d="M32.8106 19.0671C32.654 19.0972 32.5222 19.1348 32.4153 19.1899C32.3083 19.2477 32.2288 19.3153 32.1641 19.3906C32.0373 19.541 31.9652 19.7291 31.9428 19.9348C31.9229 20.1405 31.9602 20.3586 32.0646 20.5818C32.1169 20.6947 32.184 20.8075 32.2686 20.9229C32.3506 21.0382 32.4525 21.1486 32.557 21.2765L32.562 21.2841C32.6092 21.3392 32.6017 21.4244 32.5446 21.4722C32.5172 21.4972 32.4799 21.5072 32.4476 21.5022C32.097 21.467 31.7489 21.3041 31.4778 21.0132C31.2093 20.7247 31.0427 20.3009 31.075 19.8696C31.1024 19.4432 31.3286 19.007 31.7165 18.7837C31.9055 18.6709 32.1268 18.6157 32.3332 18.6282C32.5396 18.6407 32.7285 18.7135 32.8728 18.8289C32.93 18.874 32.9424 18.9592 32.8952 19.0194C32.8753 19.047 32.8454 19.062 32.8156 19.0696L32.8106 19.0671Z" fill="#1B1B1B" fill-opacity="1.000000" fill-rule="nonzero"/>
			</g>
		</g>
		<g opacity="0.600000">
			<g opacity="0.600000">
				<path id="Vector" d="M29.5359 37.4269C29.8144 37.4395 30.1028 37.5172 30.3589 37.6877C30.6075 37.8557 30.8313 38.1366 30.8786 38.4977C30.8885 38.5428 30.8885 38.5854 30.886 38.6306L30.8811 38.766C30.8636 38.8513 30.8463 38.9415 30.8164 39.0269C30.7816 39.1046 30.7493 39.1898 30.7045 39.2601C30.6573 39.3278 30.6125 39.4005 30.5603 39.4657C30.349 39.719 30.0953 39.8895 29.8368 40.0475L29.7721 39.225L29.7746 39.225C30.0904 39.3403 30.4012 39.5359 30.6125 39.8319C30.8239 40.1228 30.9184 40.5039 30.8438 40.8575C30.7717 41.2112 30.5081 41.5145 30.1998 41.6299C29.889 41.7528 29.5757 41.7228 29.3022 41.65C29.235 41.6324 29.1953 41.5647 29.2127 41.4971C29.2276 41.4369 29.2823 41.3992 29.342 41.4017L29.347 41.4017C29.5981 41.4167 29.8467 41.3817 30.0257 41.2614C30.2047 41.146 30.2943 40.9603 30.2943 40.7773C30.2918 40.5917 30.2072 40.4161 30.0705 40.2933C29.9337 40.1704 29.7522 40.1002 29.5533 40.0701L29.4489 40.0199C29.2425 39.9197 29.1555 39.6688 29.2549 39.4607C29.3047 39.3579 29.3892 39.2852 29.4887 39.2476C29.695 39.1722 29.9039 39.087 30.058 38.9641C30.2097 38.8413 30.3191 38.6958 30.3291 38.5303C30.3465 38.3647 30.2694 38.1642 30.1152 38.0062C29.9611 37.8481 29.7473 37.7354 29.5135 37.6752L29.511 37.6752C29.4439 37.6576 29.4041 37.5898 29.4215 37.5222C29.424 37.462 29.4762 37.4243 29.5359 37.4269Z" fill="#1B1B1B" fill-opacity="1.000000" fill-rule="nonzero"/>
			</g>
		</g>
		<g opacity="0.600000">
			<g opacity="0.600000">
				<path id="Vector" d="M28.4892 45.5245C28.8721 45.5496 29.25 45.813 29.4564 46.1791C29.6677 46.5453 29.7274 46.9991 29.6081 47.423C29.5484 47.6337 29.4439 47.8394 29.2923 48.0099C29.1431 48.1829 28.9467 48.3134 28.7378 48.386C28.5289 48.4587 28.3126 48.4738 28.1187 48.4437C27.9222 48.4111 27.7432 48.3434 27.5866 48.243C27.5244 48.203 27.507 48.1202 27.5468 48.0575C27.5667 48.0249 27.599 48.0049 27.6338 47.9973L27.6413 47.9973C27.972 47.9396 28.248 47.8619 28.427 47.719C28.606 47.5835 28.7079 47.4054 28.7701 47.1873C28.8273 46.9716 28.8348 46.7233 28.7776 46.4825C28.7204 46.2393 28.6035 46.0011 28.3847 45.7528L28.3798 45.7477C28.33 45.6926 28.335 45.6073 28.3897 45.5597C28.4195 45.5321 28.4568 45.522 28.4892 45.5245Z" fill="#1B1B1B" fill-opacity="1.000000" fill-rule="nonzero"/>
			</g>
		</g>
	</g>
	<path id="Vector" d="M47.1173 26.6432C45.991 26.2394 44.8721 25.5974 43.7606 24.7874C43.241 24.4087 42.5398 24.3409 41.9878 24.672C41.2568 25.1108 40.8043 26.109 41.038 27.6488C42.2837 32.8401 48.3382 30.3071 47.9229 27.5861C47.8583 27.1472 47.5326 26.7936 47.1173 26.6432Z" fill="#1B1B1B" fill-opacity="1.000000" fill-rule="nonzero"/>
	<path id="Vector" d="M45.8964 30.3396C45.6702 28.2808 43.3006 27.6588 41.8709 29.4695C41.8709 29.4719 43.8153 31.2726 45.8964 30.3396Z" fill="#C95C3F" fill-opacity="1.000000" fill-rule="nonzero"/>
	<path id="Vector" d="M44.3499 31.0846C42.8208 31.0846 41.2245 30.2219 40.6302 27.7491C40.6277 27.7367 40.6253 27.7266 40.6228 27.7141C40.3816 26.1342 40.8018 24.8927 41.7715 24.3109C42.4528 23.9022 43.3305 23.9548 44.0043 24.4464C45.1555 25.2865 46.2197 25.8733 47.2565 26.2469C47.8358 26.4551 48.2486 26.9442 48.3381 27.5234C48.5992 29.2313 46.901 30.6582 45.1804 31.0018C44.9093 31.0544 44.6309 31.0846 44.3499 31.0846ZM41.4507 27.566C42.1643 30.5002 44.3623 30.2997 45.0187 30.1692C46.5056 29.8733 47.6693 28.6946 47.5101 27.6488C47.4679 27.3755 47.264 27.1423 46.9756 27.0394C45.8616 26.6407 44.7278 26.0138 43.512 25.1285C43.1092 24.8351 42.5945 24.7975 42.1992 25.0356C41.5428 25.4319 41.2693 26.3523 41.4507 27.566Z" fill="#1B1B1B" fill-opacity="1.000000" fill-rule="nonzero"/>
	<g opacity="0.300000">
		<g opacity="0.300000">
			<path id="Vector" d="M29.6852 32.8525C28.9965 32.6544 28.4967 31.8921 28.1983 30.9039C27.8353 29.7078 27.7707 28.1854 28.0243 26.9491C28.1262 26.4425 28.2828 25.9861 28.4967 25.6174C28.3674 25.5898 28.2356 25.5598 28.1038 25.5322C27.972 25.5071 27.8403 25.4795 27.706 25.4545C27.5991 25.4343 27.4897 25.4143 27.3828 25.3943C26.0575 25.1636 24.7223 25.0432 23.407 25.0432C23.407 25.0432 23.402 25.0432 23.3995 25.0432C22.0072 24.9805 18.1408 25.0607 13.7076 27.3604C13.6205 27.4055 13.531 27.4507 13.444 27.4983C13.4539 27.4908 13.4639 27.4858 13.4713 27.4807C13.5285 27.4407 13.5882 27.3979 13.6479 27.3579C12.5489 27.2952 11.5792 26.8212 10.8159 25.7028C10.0003 24.6168 8.91873 24.4939 7.57605 25.2914C6.2135 26.0688 4.99268 26.0212 3.98071 24.7723C3.60031 24.3033 3.00604 24.0475 2.42175 24.178C1.41971 24.4037 0.606659 25.5171 0.733459 27.4155C1.2059 28.5767 4.0553 34.7635 11.6587 37.1083L12.5737 33.0356C17.9294 32.5065 23.3026 31.694 28.5588 32.6243C28.9318 32.692 29.3097 32.7672 29.6852 32.8525ZM13.531 28.2833L13.5559 28.2933C13.5509 28.2958 13.5434 28.2933 13.531 28.2833Z" fill="#1B1B1B" fill-opacity="1.000000" fill-rule="nonzero"/>
		</g>
	</g>
	<g opacity="0.300000">
		<g opacity="0.300000">
			<g opacity="0.300000">
				<path id="Vector" d="M13.7348 27.3003C13.7274 27.3053 13.7224 27.3103 13.7174 27.3153C13.7174 27.3153 13.6304 27.3805 13.4688 27.4834C13.5533 27.4207 13.6428 27.3605 13.7348 27.3003Z" fill="#1B1B1B" fill-opacity="1.000000" fill-rule="nonzero"/>
			</g>
		</g>
		<g opacity="0.300000">
			<g opacity="0.300000">
				<path id="Vector" d="M13.5012 27.5386L13.4315 27.4357C13.5186 27.373 13.6081 27.3103 13.7 27.2501L13.7697 27.3529L13.7423 27.3179L13.7672 27.3555C13.7672 27.3555 13.7672 27.3555 13.7647 27.3555L13.7498 27.368C13.7498 27.3705 13.6628 27.4332 13.5012 27.5386Z" fill="#1B1B1B" fill-opacity="1.000000" fill-rule="nonzero"/>
			</g>
		</g>
	</g>
	<g opacity="0.300000">
		<g opacity="0.300000">
			<path id="Vector" d="M32 23.3605C33.186 22.3223 32.3506 21.3442 32.3506 21.3442C30.7841 19.5134 32.7459 18.7887 32.7459 18.7887C33.9742 17.7479 33.2606 16.8953 33.2606 16.8953C34.7524 15.9874 33.5018 15.0972 33.5018 15.0972C35.2497 13.7605 33.9966 12.4464 33.9966 12.4464C32.1268 11.3856 34.2551 10.4125 34.2551 10.4125C32.3008 9.17371 34.4565 8.06018 34.4565 8.06018C32.9896 6.13916 34.8892 5.36169 34.8892 5.36169C38.1041 2.57556 34.1408 0.747314 34.0314 0.697144C33.3924 0.83252 32.7359 1.22876 32.0696 1.86328C30.722 0.285889 29.2227 0.105347 27.5568 1.39685C26.0351 -0.00756836 24.7944 0.356079 23.7227 1.75049C22.022 -0.280884 20.6769 0.318481 19.4436 1.7229C19.4884 1.67017 19.5356 1.62 19.5829 1.56982C19.5779 1.77307 19.5655 1.9812 19.548 2.18433C18.2576 2.37744 17.4445 4.15295 18.7897 5.67017C17.3476 6.26208 17.0641 7.53357 18.5833 8.21313C17.181 8.93042 16.9945 10.5054 18.4366 11.1298C16.8478 11.501 16.1765 14.1141 17.8623 14.9041C16.5295 15.3153 15.4554 16.8477 17.37 18.0188C15.8259 17.6577 15.0377 19.2101 16.8801 20.4188C15.4629 20.9806 15.0277 21.7605 16.2063 22.899C14.9557 23.2903 14.8835 24.0677 15.6071 25.106C15.6071 25.106 15.5275 25.1787 15.4156 25.3066C15.1421 25.7355 15.0178 26.1091 14.9805 26.425L14.978 26.4276C19.6997 23.5562 25.2295 23.0796 31.6519 25.2389C32.8354 24.6747 32 23.3605 32 23.3605Z" fill="#1B1B1B" fill-opacity="1.000000" fill-rule="nonzero"/>
		</g>
	</g>
	<path id="Vector" d="M54.748 27.9899C50.73 24.9529 33.3973 19.1849 33.3973 19.1849C32.8926 19.052 32.3804 18.9366 31.8558 18.8413C24.4737 17.4846 15.5375 19.6564 15.5375 19.6564C12.4544 18.8037 14.3714 12.1304 16.5371 10.9918C22.9072 9.81812 31.0079 10.2018 33.4943 10.3597C33.9792 10.3899 34.2502 10.4125 34.2502 10.4125C48.4699 12.0275 56.4537 19.556 56.4537 19.556C57.7367 21.4996 56.859 25.6676 54.748 27.9899Z" fill="#DC2E00" fill-opacity="1.000000" fill-rule="nonzero"/>
	<g opacity="0.550000">
		<g opacity="0.550000">
			<path id="Vector" d="M56.3269 25.4193C56.8938 23.551 56.8938 21.6174 56.1379 20.4664C56.1379 20.4664 48.1541 12.9379 33.9344 11.3228C33.9344 11.3228 33.6634 11.3003 33.1785 11.2701C33.176 11.2701 33.1735 11.2701 33.1711 11.2701C32.8254 11.2476 32.7111 10.7961 33.002 10.6056C33.1586 10.5027 33.3252 10.42 33.5017 10.3623L33.5042 10.3623C33.9891 10.3925 34.2601 10.4149 34.2601 10.4149C48.4798 12.03 56.4636 19.5586 56.4636 19.5586C57.3388 20.8977 57.1946 23.2977 56.3269 25.4193Z" fill="#FFFFFF" fill-opacity="1.000000" fill-rule="nonzero"/>
		</g>
	</g>
	<path id="Vector" d="M54.7482 28.4287C54.6562 28.4287 54.5642 28.4012 54.4871 28.3409C50.6158 25.4143 33.8275 19.7893 33.2731 19.6036C25.8586 17.645 15.7414 20.0576 15.6394 20.0826C15.5673 20.1002 15.4927 20.0977 15.4231 20.0802C14.3465 19.7817 13.6727 18.8513 13.526 17.4595C13.2649 14.9843 14.7095 11.4607 16.3381 10.6055C16.3754 10.5854 16.4177 10.5704 16.46 10.5629C24.051 9.16357 34.188 9.97107 34.29 9.97852C34.295 9.97852 34.3 9.97852 34.3024 9.98108C41.7194 10.8237 47.4207 13.2889 50.8967 15.21C54.6761 17.2965 56.6727 19.1622 56.7547 19.24C56.7796 19.2626 56.802 19.2902 56.8194 19.3177C58.1993 21.4169 57.3465 25.778 55.0664 28.2909C54.9844 28.3811 54.8675 28.4287 54.7482 28.4287ZM26.428 17.9485C28.7901 17.9485 31.2541 18.1616 33.5093 18.7585C33.5192 18.761 33.5267 18.7635 33.5341 18.766C34.2254 18.9968 50.1384 24.3109 54.6786 27.4005C56.4539 25.2012 57.1799 21.5272 56.1257 19.8419C55.8347 19.5786 53.868 17.8407 50.4517 15.9597C47.0478 14.0839 41.4708 11.6764 34.2129 10.8488C33.9096 10.8237 24.0758 10.0638 16.6862 11.4105C15.4927 12.1052 14.1551 15.1222 14.3913 17.3641C14.4957 18.3547 14.886 18.9717 15.5524 19.2024C16.3928 19.0068 21.1593 17.9485 26.428 17.9485Z" fill="#1B1B1B" fill-opacity="1.000000" fill-rule="nonzero"/>
	<g opacity="0.300000">
		<g opacity="0.300000">
			<path id="Vector" d="M17.9866 11.6188C18.2353 11.5836 18.4839 11.5536 18.7325 11.5234C17.3054 11.8695 16.1044 12.8701 15.5301 14.252C15.5251 14.2645 15.5201 14.2745 15.5151 14.2871C14.8687 16.4338 14.9433 18.8413 16.6042 19.4282C16.6017 19.4282 16.5992 19.4282 16.5967 19.4307C17.3178 19.2853 18.372 19.0922 19.6426 18.9115C19.6401 18.9115 19.6351 18.9115 19.6326 18.9141C22.5541 18.4325 27.2534 17.9009 31.6494 18.4451C30.8737 17.4746 30.8214 14.4225 31.7016 12.3335C31.9304 11.7917 31.5599 11.1849 30.9756 11.1624C27.8203 11.0344 22.6412 10.9818 17.9866 11.6188Z" fill="#1B1B1B" fill-opacity="1.000000" fill-rule="nonzero"/>
		</g>
	</g>
	<path id="Vector" d="M42.8997 11.8245C44.4823 12.262 45.2547 14.4952 44.625 16.8127C43.9953 19.1302 42.202 20.6543 40.6194 20.2169C39.0368 19.7794 38.2644 17.5461 38.8941 15.2286C39.5238 12.9111 41.3172 11.3871 42.8997 11.8245Z" fill="#FFFFFF" fill-opacity="1.000000" fill-rule="evenodd"/>
	<path id="Vector" d="M41.1674 20.3661C40.976 20.3661 40.7845 20.3411 40.598 20.2883C39.8073 20.0702 39.1882 19.4181 38.855 18.4526C38.5243 17.4972 38.5119 16.3435 38.8202 15.21C39.1285 14.074 39.7203 13.0908 40.4886 12.4363C41.2644 11.7767 42.1272 11.5334 42.9154 11.7517C44.5341 12.1981 45.3322 14.4777 44.6932 16.8325C44.1288 18.9115 42.6294 20.3661 41.1674 20.3661ZM42.341 11.8245C41.7567 11.8245 41.1475 12.0726 40.5856 12.5516C39.8396 13.1837 39.2653 14.1416 38.9644 15.2501C38.6635 16.3585 38.676 17.4771 38.9967 18.405C39.315 19.3229 39.8968 19.9423 40.6378 20.1454C42.1769 20.5718 43.9323 19.067 44.5515 16.7949C45.1681 14.5204 44.4197 12.3259 42.8781 11.8997C42.7015 11.8469 42.5225 11.8245 42.341 11.8245Z" fill="#1B1B1B" fill-opacity="1.000000" fill-rule="nonzero"/>
	<path id="Vector" d="M43.2021 12.8192C44.4907 13.1754 45.1198 14.993 44.6073 16.8792C44.0949 18.7651 42.6349 20.0054 41.3463 19.6492C40.0578 19.293 39.4287 17.4753 39.9411 15.5892C40.4536 13.7032 41.9136 12.463 43.2021 12.8192Z" fill="#1B1B1B" fill-opacity="1.000000" fill-rule="evenodd"/>
	<path id="Vector" d="M42.3434 11.7491C42.5299 11.7491 42.7139 11.7743 42.8979 11.8245C44.4792 12.2607 45.2525 14.4952 44.6234 16.8125C44.0665 18.8615 42.5995 20.2909 41.1723 20.2909C40.9858 20.2909 40.8018 20.2659 40.6178 20.2157C39.0365 19.7793 38.2632 17.5448 38.8922 15.2275C39.4492 13.1786 40.9162 11.7491 42.3434 11.7491ZM42.3434 10.9968C41.4508 10.9968 40.5358 11.4181 39.7675 12.1855C39.0414 12.9103 38.4745 13.921 38.1737 15.0294C37.8306 16.2959 37.848 17.59 38.2209 18.6758C38.6312 19.8595 39.4119 20.6646 40.4189 20.9429C40.6626 21.0106 40.9162 21.0458 41.1698 21.0458C42.0624 21.0458 42.9774 20.6244 43.7457 19.8571C44.4718 19.1323 45.0387 18.1216 45.3395 17.0132C45.6826 15.7467 45.6652 14.4526 45.2923 13.3667C44.882 12.183 44.1013 11.3781 43.0943 11.0996C42.8506 11.0294 42.5995 10.9968 42.3434 10.9968Z" fill="#1B1B1B" fill-opacity="1.000000" fill-rule="nonzero"/>
	<path id="Vector" d="M41.8126 13.8394C42.2909 14.2072 42.383 14.8964 42.0183 15.3788C41.6537 15.8612 40.9703 15.9541 40.492 15.5863C40.0137 15.2185 39.9216 14.5292 40.2863 14.0469C40.651 13.5645 41.3343 13.4716 41.8126 13.8394Z" fill="#FFFFFF" fill-opacity="1.000000" fill-rule="evenodd"/>
	<path id="Vector" d="M55.006 16.6033C56.5885 17.0406 57.361 19.274 56.7313 21.5916C56.1016 23.9091 54.3082 25.4331 52.7256 24.9957C51.1431 24.5582 50.3707 22.325 51.0004 20.0074C51.63 17.6899 53.4234 16.1658 55.006 16.6033Z" fill="#FFFFFF" fill-opacity="1.000000" fill-rule="evenodd"/>
	<path id="Vector" d="M53.2761 25.1409C53.0846 25.1409 52.8932 25.1158 52.7067 25.0632C51.0881 24.6143 50.2899 22.3372 50.9289 19.9823C51.2372 18.8463 51.829 17.8632 52.5973 17.2086C53.373 16.5491 54.2358 16.3058 55.024 16.524C56.6426 16.9705 57.4408 19.25 56.8018 21.6049C56.2374 23.6888 54.7356 25.1409 53.2761 25.1409ZM54.4496 16.5992C53.8654 16.5992 53.2562 16.8475 52.6943 17.3265C51.9483 17.9585 51.374 18.9165 51.0732 20.0249C50.4565 22.2996 51.2049 24.4939 52.7465 24.9203C54.2856 25.3466 56.0409 23.8419 56.66 21.5698C57.2767 19.2952 56.5283 17.1008 54.9867 16.6744C54.8102 16.6244 54.6311 16.5992 54.4496 16.5992Z" fill="#1B1B1B" fill-opacity="1.000000" fill-rule="nonzero"/>
	<path id="Vector" d="M55.3084 17.598C56.597 17.9541 57.2261 19.7719 56.7137 21.658C56.2012 23.5439 54.7412 24.7842 53.4526 24.428C52.1641 24.0718 51.5349 22.2542 52.0474 20.368C52.5598 18.4821 54.0199 17.2418 55.3084 17.598Z" fill="#1B1B1B" fill-opacity="1.000000" fill-rule="evenodd"/>
	<path id="Vector" d="M54.4521 16.524C54.6386 16.524 54.8226 16.5492 55.0066 16.5994C56.588 17.0356 57.3612 19.2701 56.7322 21.5874C56.1752 23.6364 54.7083 25.0658 53.2811 25.0658C53.0946 25.0658 52.9106 25.0406 52.7266 24.9905C51.1453 24.5542 50.372 22.3197 51.001 20.0024C51.558 17.9535 53.025 16.524 54.4521 16.524ZM54.4521 15.7717L54.4521 16.524L54.4521 15.7717C53.5595 15.7717 52.6445 16.193 51.8763 16.9604C51.1502 17.6852 50.5833 18.6959 50.2825 19.8043C49.9394 21.0708 49.9568 22.3649 50.3297 23.4507C50.74 24.6344 51.5207 25.4395 52.5277 25.7178C52.7714 25.7855 53.025 25.8207 53.2786 25.8207C54.1712 25.8207 55.0862 25.3993 55.8545 24.632C56.5805 23.9071 57.1474 22.8965 57.4483 21.7881C57.7914 20.5216 57.774 19.2275 57.401 18.1416C56.9908 16.9579 56.21 16.153 55.203 15.8745C54.9594 15.8069 54.7058 15.7717 54.4521 15.7717Z" fill="#1B1B1B" fill-opacity="1.000000" fill-rule="nonzero"/>
	<path id="Vector" d="M53.6628 18.4709C54.2222 18.6937 54.4966 19.3318 54.2758 19.896C54.0549 20.4602 53.4224 20.7371 52.863 20.5143C52.3036 20.2915 52.0291 19.6536 52.25 19.0892C52.4708 18.525 53.1033 18.2482 53.6628 18.4709Z" fill="#FFFFFF" fill-opacity="1.000000" fill-rule="evenodd"/>
</svg>
