<svg width="50.005859" height="63.998413" viewBox="0 0 50.0059 63.9984" fill="none" xmlns="http://www.w3.org/2000/svg" xmlns:xlink="http://www.w3.org/1999/xlink">
	<desc>
			Created with Pixso.
	</desc>
	<defs/>
	<g opacity="0.300000">
		<g opacity="0.300000">
			<path id="Vector" d="M47.8182 61.7902C47.8182 63.0098 38.0428 63.9984 25.9841 63.9984C13.9255 63.9984 4.15002 63.0098 4.15002 61.7902C4.15002 60.5707 13.9255 59.582 25.9841 59.582C38.0428 59.582 47.8182 60.5707 47.8182 61.7902Z" fill="#1B1B1B" fill-opacity="1.000000" fill-rule="evenodd"/>
		</g>
	</g>
	<path id="Vector" d="M32.6127 58.3447L32.2503 60.8485L28.0493 60.8485C27.4704 60.8485 27.0739 60.3137 27.1736 59.7789C27.1882 59.6952 27.215 59.6113 27.2563 59.5325C27.5823 58.8868 28.1661 58.3792 29.0053 58.3201L28.9786 58.3126L28.2828 54.7146C28.2828 54.7146 29.5794 54.1305 30.9075 54.5371C31.4257 54.6948 31.9462 55.0029 32.3987 55.5549L32.6127 58.3447Z" fill="#FFFFFF" fill-opacity="1.000000" fill-rule="nonzero"/>
	<path id="Vector" d="M32.3062 60.9152L28.0494 60.9152C27.7648 60.9152 27.4972 60.7896 27.3172 60.5677C27.1348 60.3435 27.0593 60.0526 27.1129 59.7667C27.1299 59.6731 27.1591 59.5844 27.2029 59.5031C27.5653 58.7834 28.1686 58.3473 28.908 58.2659L28.2148 54.6801L28.261 54.658C28.3145 54.6333 29.5964 54.069 30.9319 54.478C31.5254 54.658 32.0362 55.0079 32.4521 55.5155L32.4644 55.5304L32.6808 58.3447L32.6808 58.3522L32.3062 60.9152ZM29.037 58.261L29.4164 58.3571L29.0126 58.3842C28.2756 58.4335 27.6724 58.8524 27.3172 59.5598C27.2807 59.6312 27.254 59.7076 27.2394 59.7889C27.1931 60.0354 27.2588 60.2867 27.4169 60.4814C27.575 60.6761 27.8013 60.7821 28.0494 60.7821L32.1943 60.7821L32.5495 58.3398L32.3378 55.5796C31.9413 55.0991 31.4548 54.7688 30.8929 54.5988C29.7448 54.2463 28.6016 54.6555 28.3583 54.754L29.037 58.261Z" fill="#1B1B1B" fill-opacity="1.000000" fill-rule="nonzero"/>
	<path id="Vector" d="M39.5453 54.0072L39.1147 59.9762C39.0734 60.5553 38.5966 61.0038 38.025 61.0038L32.7951 61.0038C32.1359 61.0038 31.6324 60.3976 31.7515 59.7421C31.7905 59.5375 31.8537 59.3428 31.9413 59.158C32.4229 58.1549 33.627 57.5413 35.2032 58.0564L34.9114 55.3184C34.9114 55.3184 34.8092 51.8829 38.0615 53.2087C38.4969 53.3862 38.9882 53.645 39.5453 54.0072Z" fill="#FFFFFF" fill-opacity="1.000000" fill-rule="nonzero"/>
	<path id="Vector" d="M38.025 61.0706L32.7951 61.0706C32.4595 61.0706 32.1432 60.9202 31.9291 60.6589C31.7175 60.4001 31.6299 60.0625 31.6908 59.7347C31.7297 59.5228 31.7953 59.3207 31.8854 59.1359C32.3378 58.1969 33.5103 57.4822 35.1303 57.9727L34.8481 55.3331C34.8457 55.2666 34.8116 53.7928 35.7336 53.1422C36.2955 52.7454 37.0884 52.7479 38.0882 53.1545C38.5382 53.3369 39.0393 53.6055 39.5793 53.9554L39.611 53.9752L39.6085 54.0146L39.178 59.9836C39.1366 60.5924 38.6307 61.0706 38.025 61.0706ZM34.0941 57.9332C33.0165 57.9332 32.311 58.5444 32.0021 59.1876C31.917 59.3627 31.8562 59.5548 31.8173 59.7545C31.7637 60.0453 31.8416 60.3435 32.0289 60.5728C32.2186 60.8043 32.4984 60.9375 32.7975 60.9375L38.0274 60.9375C38.565 60.9375 39.015 60.5135 39.0539 59.9689L39.4821 54.0393C38.9615 53.7041 38.4774 53.4453 38.0444 53.2704C37.0884 52.881 36.3369 52.8711 35.8114 53.2433C34.9479 53.8519 34.9819 55.3036 34.9819 55.3184L35.2836 58.1501L35.1887 58.118C34.7874 57.9899 34.4225 57.9332 34.0941 57.9332Z" fill="#1B1B1B" fill-opacity="1.000000" fill-rule="nonzero"/>
	<path id="Vector" d="M35.3809 57.7064C35.5292 57.7139 35.6728 57.7656 35.809 57.837C35.9453 57.9086 36.0693 58.0046 36.1812 58.1106C36.4074 58.3251 36.5875 58.5837 36.6848 58.882C36.6945 58.9141 36.6774 58.9509 36.6458 58.9608C36.6337 58.9658 36.6215 58.9658 36.6093 58.9608L36.6069 58.9608C36.4585 58.9189 36.3271 58.8696 36.1982 58.8302C36.0693 58.7883 35.9453 58.7489 35.8236 58.7169C35.702 58.6824 35.5828 58.6528 35.4709 58.6134C35.3566 58.5714 35.2446 58.5271 35.1352 58.4482L35.1254 58.4408C34.9479 58.3102 34.9066 58.0564 35.0379 57.874C35.1182 57.7582 35.252 57.7015 35.3809 57.7064Z" fill="#1B1B1B" fill-opacity="1.000000" fill-rule="nonzero"/>
	<path id="Vector" d="M38.025 61.4598L32.7975 61.4598C32.3451 61.4598 31.9218 61.2577 31.6324 60.9053C31.3478 60.5577 31.231 60.1019 31.3113 59.6582C31.4524 58.8967 31.9048 58.2313 32.5543 57.8346C33.3059 57.3737 34.274 57.2899 35.2738 57.6029C35.5122 57.6768 35.6436 57.9307 35.5706 58.1721C35.4976 58.4137 35.2471 58.5468 35.0087 58.4729C34.043 58.1721 33.3935 58.3842 33.0165 58.6133C32.5811 58.8795 32.2867 59.3108 32.1918 59.8258C32.1578 60.0057 32.204 60.1808 32.3207 60.3237C32.4375 60.4666 32.6102 60.548 32.7927 60.548L38.0201 60.548C38.3558 60.548 38.638 60.2817 38.6623 59.9417L39.0928 53.9727C39.1099 53.7213 39.3288 53.5341 39.5745 53.5513C39.8226 53.5685 40.0075 53.7878 39.9905 54.0392L39.5599 60.0082C39.5064 60.824 38.8301 61.4598 38.025 61.4598Z" fill="#1B1B1B" fill-opacity="1.000000" fill-rule="nonzero"/>
	<path id="Vector" d="M35.2057 58.5149C34.9795 58.5149 34.7849 58.3424 34.7606 58.1083L34.4687 55.3702C34.4419 55.1213 34.6195 54.8945 34.8676 54.8674C35.1133 54.8403 35.3371 55.0203 35.3638 55.2716L35.6558 58.0096C35.6825 58.2585 35.5049 58.4854 35.2568 58.5125C35.2374 58.5149 35.2228 58.5149 35.2057 58.5149Z" fill="#1B1B1B" fill-opacity="1.000000" fill-rule="nonzero"/>
	<path id="Vector" d="M32.6127 58.8007C32.3792 58.8007 32.1822 58.6183 32.1652 58.3792L31.9536 55.5918C31.9341 55.3405 32.119 55.1211 32.3671 55.1039C32.6152 55.0841 32.8317 55.2715 32.8511 55.5228L33.0627 58.3102C33.0822 58.5616 32.8973 58.7809 32.6492 58.7982C32.6371 58.8007 32.6249 58.8007 32.6127 58.8007Z" fill="#1B1B1B" fill-opacity="1.000000" fill-rule="nonzero"/>
	<path id="Vector" d="M29.1659 57.9258C29.3167 57.8839 29.4699 57.8962 29.6158 57.9258C29.7618 57.9553 29.9005 58.017 30.0294 58.0859C30.1583 58.1575 30.2799 58.2388 30.3918 58.3324C30.5037 58.4285 30.6059 58.532 30.6935 58.6553C30.7129 58.6848 30.7081 58.7242 30.6788 58.7439C30.6691 58.7513 30.6594 58.7538 30.6472 58.7562C30.4988 58.7661 30.3626 58.7661 30.2289 58.7661L29.847 58.7661C29.7253 58.7661 29.6061 58.771 29.4943 58.7637C29.3824 58.7562 29.2753 58.7463 29.1659 58.7045L29.1294 58.6897C28.9226 58.6133 28.8181 58.3817 28.8959 58.1722C28.9421 58.0465 29.0467 57.9579 29.1659 57.9258Z" fill="#1B1B1B" fill-opacity="1.000000" fill-rule="nonzero"/>
	<path id="Vector" d="M32.2502 61.3046L28.0493 61.3046C27.5798 61.3046 27.1517 61.063 26.9085 60.6564C26.6628 60.2498 26.6434 59.7495 26.8574 59.3231C27.3026 58.4409 28.0931 57.9086 29.0296 57.8618C29.2777 57.8495 29.4893 58.0441 29.5015 58.2955C29.5137 58.5469 29.3215 58.7612 29.0734 58.7736C28.2853 58.813 27.8693 59.3207 27.6577 59.7396C27.5555 59.9442 27.6358 60.1167 27.6747 60.1832C27.7136 60.2473 27.8279 60.3951 28.0493 60.3951L32.2502 60.3951C32.4983 60.3951 32.7002 60.5997 32.7002 60.8511C32.6978 61.1024 32.4983 61.3046 32.2502 61.3046Z" fill="#1B1B1B" fill-opacity="1.000000" fill-rule="nonzero"/>
	<path id="Vector" d="M28.981 58.7711C28.7694 58.7711 28.5821 58.6208 28.5407 58.4039L27.845 54.8058C27.7963 54.5593 27.9569 54.3203 28.2001 54.271C28.4434 54.2217 28.6794 54.3844 28.728 54.6309L29.4238 58.229C29.4724 58.4755 29.3118 58.7145 29.0686 58.7638C29.0394 58.7687 29.0102 58.7711 28.981 58.7711Z" fill="#1B1B1B" fill-opacity="1.000000" fill-rule="nonzero"/>
	<g opacity="0.300000">
		<g opacity="0.300000">
			<path id="Vector" d="M32.6127 58.3423C32.1578 58.6824 31.8586 59.1826 31.754 59.7421C31.6713 60.198 31.8878 60.6293 32.2479 60.8486L28.0469 60.8486C27.468 60.8486 27.0715 60.3138 27.1712 59.7791C27.3536 59.6632 27.5069 59.5819 27.5069 59.5819C28.8423 60.0747 29.8932 59.6829 30.7494 58.6775L30.9124 56.839C29.8688 56.6271 29.465 55.3209 29.465 55.3209L29.6694 55.21L29.9491 55.0597L30.5427 54.7368C31.1046 56.0183 31.8683 56.0626 32.3962 55.5575L32.6127 58.3423Z" fill="#1B1B1B" fill-opacity="1.000000" fill-rule="nonzero"/>
		</g>
	</g>
	<path id="Vector" d="M24.4785 60.3976L20.2216 60.3976C19.6523 60.3976 19.1805 59.9467 19.1489 59.37L18.9786 56.3313L18.8618 54.271L22.7562 54.2661L22.7197 55.4589L22.6589 57.4921C24.0868 57.0558 25.23 58.0244 25.4052 59.3403C25.483 59.9022 25.0379 60.3976 24.4785 60.3976Z" fill="#E07153" fill-opacity="1.000000" fill-rule="nonzero"/>
	<g opacity="0.550000">
		<g opacity="0.550000">
			<g opacity="0.550000">
				<path id="Vector" d="M18.9713 54.2734L22.8657 54.2686L22.8657 54.271L19.757 54.2734L19.8713 56.3337L20.0416 59.3723C20.0732 59.9465 20.545 60.4 21.1143 60.4L20.3262 60.4C19.757 60.4 19.285 59.9491 19.2534 59.3723L19.0831 56.3337L18.9713 54.2734Z" fill="#FFFFFF" fill-opacity="1.000000" fill-rule="nonzero"/>
			</g>
		</g>
	</g>
	<path id="Vector" d="M16.1836 61.0063L11.9291 61.0063C11.36 61.0063 10.8881 60.5554 10.8564 59.9786L10.6667 56.6096L10.5694 54.8795L14.4638 54.8746L14.4103 56.6589L14.3665 58.1007C15.7944 57.6644 16.9377 58.6331 17.1129 59.9491C17.1907 60.511 16.7431 61.0063 16.1836 61.0063Z" fill="#E07153" fill-opacity="1.000000" fill-rule="nonzero"/>
	<g opacity="0.550000">
		<g opacity="0.550000">
			<g opacity="0.550000">
				<path id="Vector" d="M16.6871 60.8586C16.5412 60.9498 16.3709 61.0065 16.186 61.0065L11.9291 61.0065C11.36 61.0065 10.8881 60.5554 10.8564 59.9788L10.6667 56.6099L10.5694 54.8798L11.5084 54.8773L11.5959 56.462L11.7856 59.8309C11.8173 60.4052 12.2867 60.8586 12.8584 60.8586L16.6871 60.8586Z" fill="#FFFFFF" fill-opacity="1.000000" fill-rule="nonzero"/>
			</g>
		</g>
	</g>
	<path id="Vector" d="M22.7319 57.879C22.5543 57.9752 22.4278 57.9998 22.3086 58.0294C22.1895 58.0565 22.0727 58.0762 21.9486 58.1107C21.8245 58.1427 21.6981 58.192 21.5667 58.2487C21.4305 58.303 21.2991 58.3719 21.1459 58.4385L21.1434 58.4385C21.1118 58.4508 21.0778 58.436 21.0632 58.4064C21.0583 58.3942 21.0583 58.3793 21.0607 58.3669C21.1459 58.0417 21.3283 57.7435 21.5959 57.502C21.7297 57.3837 21.8878 57.2802 22.0532 57.2211C22.2162 57.1594 22.384 57.1274 22.4935 57.1372L22.5762 57.1447C22.7903 57.1619 22.9484 57.3517 22.9313 57.566C22.9241 57.7017 22.8414 57.8174 22.7319 57.879Z" fill="#1B1B1B" fill-opacity="1.000000" fill-rule="nonzero"/>
	<path id="Vector" d="M24.4784 60.8536L20.2216 60.8536C19.4139 60.8536 18.745 60.2129 18.6988 59.3971L18.4142 54.2981C18.3996 54.0468 18.5893 53.8324 18.8375 53.8176C19.0831 53.8027 19.2972 53.995 19.3118 54.2463L19.5964 59.3453C19.6158 59.6805 19.8883 59.9418 20.2216 59.9418L24.476 59.9418C24.6195 59.9418 24.7557 59.8801 24.8506 59.7693C24.9406 59.6658 24.9795 59.5327 24.9625 59.3995C24.8895 58.8524 24.6146 58.3793 24.206 58.1008C23.8241 57.842 23.3643 57.7731 22.873 57.9012C22.6321 57.9652 22.3865 57.8174 22.3256 57.5759C22.2624 57.3319 22.4083 57.083 22.6467 57.0214C23.3838 56.8267 24.116 56.9425 24.7071 57.3467C25.3273 57.7706 25.7457 58.4729 25.8528 59.2788C25.9039 59.6707 25.7871 60.0675 25.5268 60.3682C25.2617 60.6761 24.8798 60.8536 24.4784 60.8536Z" fill="#1B1B1B" fill-opacity="1.000000" fill-rule="nonzero"/>
	<path id="Vector" d="M22.6613 57.948C22.6565 57.948 22.6516 57.948 22.6467 57.948C22.3986 57.9407 22.204 57.7311 22.2113 57.4797L22.3086 54.2561C22.3159 54.0048 22.5275 53.8051 22.7708 53.8149C23.0189 53.8223 23.2135 54.0319 23.2062 54.2832L23.1089 57.5068C23.1041 57.7533 22.9046 57.948 22.6613 57.948Z" fill="#1B1B1B" fill-opacity="1.000000" fill-rule="nonzero"/>
	<path id="Vector" d="M47.7234 15.3618C49.2656 15.7858 49.2656 17.2816 47.4655 17.7375C49.5526 18.6494 49.3556 20.1454 47.1128 20.8601C48.9372 21.666 49.1683 23.6572 47.0496 24.1132C48.582 25.2148 48.6866 26.9769 46.7917 27.3983C46.7917 27.3983 49.7131 28.8943 46.2468 30.5874C47.502 31.4376 47.6918 32.4825 46.3441 33.8085C47.6699 34.8682 47.7477 35.8835 46.152 36.8348C47.845 37.4139 47.8207 39.2106 46.0887 39.8267C47.3755 40.8914 47.1493 41.9314 45.6703 42.9492C46.8306 44.2061 46.5436 45.1254 45.3809 45.845C46.405 47.4395 45.9866 48.4253 44.4492 48.9354C45.8723 50.9636 44.1671 52.7578 42.8754 51.8312C43.1965 53.7411 41.6786 54.4386 40.0488 53.1102C39.5769 54.8798 37.1931 55.136 36.2809 54.1083C35.3079 55.5575 34.1913 55.8433 32.8973 54.7097C32.5178 55.9344 31.2456 56.5901 30.4575 54.5199C29.6937 55.7349 28.1636 55.4761 28.2098 54.2365C27.5044 54.9019 26.1033 54.8822 25.899 54.0197C25.8284 53.7312 25.8941 53.3517 26.1617 52.8711C25.8746 44.7408 26.3855 36.1743 27.5409 27.2554C28.5066 19.7905 29.9247 12.0791 31.7005 4.17065C31.7297 4.12378 31.7589 4.07703 31.7905 4.03259C32.2332 3.40173 32.9216 2.99011 33.6684 3.11829C34.0722 3.18726 34.4905 3.41406 34.8992 3.84778C35.5195 2.66736 37.7039 2.46033 38.1953 4.10901C39.3045 3.07886 41.8781 2.91626 42.1335 5.56311C43.1259 3.77881 45.3541 5.78491 44.3909 7.38428C45.7311 6.65234 46.8112 7.51001 46.0085 8.80383C48.1734 8.22961 49.4018 10.5388 48.3096 12.1013C50.0659 13.1487 50.0342 14.6447 47.7234 15.3618Z" fill="#FFFFFF" fill-opacity="1.000000" fill-rule="nonzero"/>
	<path id="Vector" d="M46.2784 8.09412C46.1373 7.98071 45.9817 7.86975 45.8065 7.76379C45.8989 7.63074 45.9744 7.49524 46.0328 7.35474C46.22 7.52722 46.3149 7.78357 46.2784 8.09412Z" fill="#FFFFFF" fill-opacity="1.000000" fill-rule="nonzero"/>
	<path id="Vector" d="M46.3271 8.21716L46.2371 8.14331C46.1009 8.03235 45.9428 7.92151 45.7725 7.82043L45.7117 7.78345L45.7531 7.72681C45.8431 7.59863 45.916 7.46313 45.9744 7.32996L46.0109 7.24622L46.0766 7.30786C46.2858 7.5 46.3806 7.78345 46.3417 8.10388L46.3271 8.21716ZM45.8966 7.74402C46.0134 7.81555 46.1204 7.8894 46.2201 7.96582C46.2201 7.77112 46.1617 7.60107 46.0522 7.46802C46.0085 7.56165 45.955 7.65283 45.8966 7.74402Z" fill="#1B1B1B" fill-opacity="1.000000" fill-rule="nonzero"/>
	<g opacity="0.300000">
		<g opacity="0.300000">
			<path id="Vector" d="M47.7234 15.3617C49.2656 15.7856 49.2656 17.2816 47.4656 17.7375C49.5527 18.6493 49.3557 20.1453 47.1129 20.86C48.9373 21.6659 49.1683 23.6571 47.0496 24.113C48.5821 25.2147 48.6867 26.9768 46.7917 27.3982C46.7917 27.3982 49.7132 28.8942 46.2469 30.5873C47.5021 31.4375 47.6918 32.4824 46.3442 33.8083C47.6699 34.868 47.7477 35.8834 46.152 36.8347C47.845 37.4138 47.8207 39.2104 46.0887 39.8265C47.3755 40.8912 47.1494 41.9313 45.6704 42.9491C46.8307 44.2059 46.5436 45.1252 45.3809 45.8448C46.405 47.4393 45.9866 48.4252 44.4493 48.9353C45.8723 50.9635 44.1671 52.7577 42.8754 51.8311C43.1965 53.741 41.6786 54.4385 40.0489 53.1101C39.577 54.8795 37.1931 55.1359 36.2809 54.1082C35.3079 55.5574 34.1914 55.8431 32.8973 54.7095C32.7903 55.0521 32.6151 55.3503 32.3986 55.5573C31.8732 56.0601 31.107 56.0157 30.5451 54.7367C30.5134 54.6676 30.4843 54.5962 30.4575 54.5198C30.3116 54.7539 30.1364 54.9313 29.9515 55.0594L29.6718 55.2098C28.9493 55.5081 28.1758 55.1235 28.2099 54.2388C27.5045 54.9042 26.1033 54.8845 25.899 54.022C25.8941 54.0046 25.8917 53.9874 25.8868 53.9678C25.8552 53.7854 25.8747 53.5685 25.9598 53.3146C25.972 53.2751 25.989 53.2357 26.0036 53.1963C26.0449 53.0928 26.0984 52.9844 26.1593 52.871C28.6866 51.4417 30.1243 49.0782 29.5793 45.2583C27.5726 33.5865 28.4896 22.3115 32.1797 11.4111C32.8535 9.4248 32.8827 7.25366 32.1821 5.2771C32.0435 4.8877 31.8854 4.51807 31.7005 4.17053C31.7297 4.12378 31.7589 4.0769 31.7905 4.03259C32.2332 3.40161 32.9216 2.99011 33.6684 3.11829C34.1549 3.7417 34.5392 4.46631 34.8263 5.27954C35.5293 7.25854 35.4977 9.42725 34.8239 11.4137C33.7365 14.6273 32.89 17.8706 32.2892 21.1483C32.2892 21.1483 32.2892 21.1508 32.2867 21.1582C32.26 21.4144 31.2286 28.6921 34.0333 29.4807L30.64 29.0076C30.5767 29.212 30.5281 29.3378 30.4843 29.4067L31.3016 29.2786C30.9902 34.5231 31.2919 39.8512 32.2235 45.2632C32.5689 47.671 32.1238 49.4996 31.1167 50.8798C32.1068 51.3604 32.9873 50.9512 33.773 49.7781C34.6852 50.8058 37.069 50.5494 37.541 48.78C39.1707 50.1084 40.6886 49.4109 40.3676 47.501C41.6592 48.4276 43.3644 46.6334 41.9413 44.6052C43.4787 44.0925 43.8971 43.1093 42.873 41.5148C44.0358 40.7952 44.3228 39.8759 43.1625 38.619C44.639 37.6012 44.8677 36.5612 43.5809 35.4965C45.3152 34.8779 45.3395 33.0837 43.6441 32.5046C45.2398 31.5533 45.1644 30.5404 43.8363 29.4783C45.1839 28.1523 44.9941 27.1074 43.739 26.2572C47.2077 24.5665 44.2839 23.0681 44.2839 23.0681C46.1788 22.6443 46.0742 20.8846 44.5417 19.783C46.6604 19.327 46.4318 17.3358 44.605 16.5299C46.8477 15.8152 47.0447 14.3168 44.9576 13.4075C46.7553 12.9515 46.7553 11.4556 45.2155 11.0316C46.8842 10.5142 47.3658 9.58997 46.8428 8.72241C48.4653 8.84814 49.251 10.7556 48.3096 12.1012C50.0659 13.1487 50.0343 14.6445 47.7234 15.3617Z" fill="#1B1B1B" fill-opacity="1.000000" fill-rule="nonzero"/>
		</g>
	</g>
	<g opacity="0.300000">
		<g opacity="0.300000">
			<path id="Vector" d="M29.9516 55.0596C29.8616 55.1212 29.7667 55.173 29.6719 55.21L29.9516 55.0596Z" fill="#000000" fill-opacity="1.000000" fill-rule="nonzero"/>
		</g>
		<g opacity="0.300000">
			<path id="Vector" d="M29.6961 55.2692L29.6426 55.1509L29.9223 55.0005L29.988 55.1115C29.8907 55.178 29.7934 55.2322 29.6961 55.2692Z" fill="#1B1B1B" fill-opacity="1.000000" fill-rule="nonzero"/>
		</g>
	</g>
	<g opacity="0.300000">
		<g opacity="0.300000">
			<path id="Vector" d="M32.1069 22.1982C32.102 22.2229 32.0995 22.2427 32.0945 22.2648C32.097 22.2352 32.1045 22.213 32.1069 22.1982Z" fill="#000000" fill-opacity="1.000000" fill-rule="nonzero"/>
		</g>
		<g opacity="0.300000">
			<path id="Vector" d="M32.1586 22.2771L32.0313 22.2573C32.0338 22.2327 32.0386 22.2106 32.0411 22.1958L32.0435 22.1859L32.1708 22.2081L32.1586 22.2771Z" fill="#1B1B1B" fill-opacity="1.000000" fill-rule="nonzero"/>
		</g>
	</g>
	<path id="Vector" d="M46.8453 8.71753C46.5874 8.69531 46.3077 8.71997 46.0109 8.79883C46.169 8.54504 46.2542 8.30347 46.2784 8.09155C46.5266 8.2937 46.7163 8.50317 46.8453 8.71753Z" fill="#FFFFFF" fill-opacity="1.000000" fill-rule="nonzero"/>
	<path id="Vector" d="M45.8698 8.90491L45.9574 8.7644C46.1058 8.52783 46.1909 8.29858 46.2152 8.08667L46.2274 7.97083L46.3174 8.0448C46.5704 8.24683 46.765 8.46375 46.8987 8.68555L46.9644 8.79395L46.838 8.78406C46.5801 8.76196 46.3077 8.78906 46.0255 8.86292L45.8698 8.90491ZM46.3247 8.21484C46.2931 8.37256 46.2322 8.53516 46.1423 8.70032C46.3393 8.65845 46.5339 8.64111 46.7212 8.64368C46.6166 8.49817 46.4852 8.35522 46.3247 8.21484Z" fill="#1B1B1B" fill-opacity="1.000000" fill-rule="nonzero"/>
	<path id="Vector" d="M32.1797 11.4113C28.4896 22.3116 27.5726 33.5865 29.5793 45.2583C30.9562 54.8944 19.7108 55.269 10.1996 54.717C10.0659 54.7096 9.93207 54.7023 9.79828 54.6924C6.37335 54.4089 4.04303 53.433 3.24762 49.9434C0.912415 37.3129 0.357788 24.1772 4.08191 11.7513C6.01575 5.29932 11.5205 3.45593 17.8401 1.74805C17.8426 1.74805 17.845 1.74561 17.8474 1.74561C18.6624 1.5238 19.4943 1.30688 20.331 1.0802C26.9207 -0.612915 30.7469 1.24036 32.1797 5.2771C32.8851 7.25366 32.8535 9.42236 32.1797 11.4113Z" fill="#E07153" fill-opacity="1.000000" fill-rule="nonzero"/>
	<g opacity="0.300000">
		<g opacity="0.300000">
			<path id="Vector" d="M10.5718 54.8795L14.4663 54.8746L14.4128 56.6591C13.1722 56.6812 11.9146 56.6591 10.6667 56.6097L10.5718 54.8795Z" fill="#1B1B1B" fill-opacity="1.000000" fill-rule="nonzero"/>
		</g>
	</g>
	<g opacity="0.300000">
		<g opacity="0.300000">
			<path id="Vector" d="M22.761 54.2686L22.7245 55.4613C21.591 55.8629 20.3261 56.1439 18.981 56.3336L18.8642 54.2734L22.761 54.2686Z" fill="#1B1B1B" fill-opacity="1.000000" fill-rule="nonzero"/>
		</g>
	</g>
	<g opacity="0.550000">
		<g opacity="0.550000">
			<path id="Vector" d="M29.375 1.61987C27.4071 0.838623 24.78 0.786865 21.4475 1.64453C20.6107 1.86877 19.7788 2.08813 18.9639 2.30994C18.9615 2.30994 18.959 2.31238 18.9566 2.31238C12.6394 4.02026 7.13226 5.86621 5.19843 12.3158C1.47424 24.7416 2.02643 37.8773 4.36407 50.5078C4.75568 52.2305 5.52191 53.3419 6.61169 54.0566C4.92596 53.4133 3.76569 52.2058 3.25244 49.9434C0.917236 37.313 0.36261 24.1772 4.08679 11.7513C6.02057 5.29932 11.5253 3.45593 17.845 1.74805C17.8474 1.74805 17.8499 1.74561 17.8523 1.74561C18.6672 1.5238 19.4991 1.30688 20.3359 1.0802C24.3422 0.0500488 27.3268 0.330933 29.375 1.61987Z" fill="#FFFFFF" fill-opacity="1.000000" fill-rule="nonzero"/>
		</g>
	</g>
	<g opacity="0.750000">
		<g opacity="0.750000">
			<g opacity="0.750000">
				<path id="Vector" d="M32.6954 7.229C29.6645 10.4032 25.7287 10.4058 23.4276 9.61462C23.121 9.50867 22.8413 9.33618 22.5859 9.13403C18.295 5.73547 7.48499 9.35339 3.56866 13.58L2.98486 15.9779C8.42877 9.26953 18.959 7.02197 22.0726 9.64917C23.0335 10.46 24.2278 10.9406 25.4684 11.0884C28.3339 11.4309 31.8099 10.943 32.6978 9.08472L32.6954 7.229Z" fill="#FFFFFF" fill-opacity="1.000000" fill-rule="nonzero"/>
			</g>
		</g>
		<g opacity="0.750000">
			<g opacity="0.750000">
				<path id="Vector" d="M30.0173 19.2679C27.1202 22.0529 20.8054 21.9222 19.3483 20.9684C13.5541 16.8651 5.56335 22.9647 1.58136 25.7792L1.44025 28.4703C3.78033 24.1205 14.0844 18.3215 18.1151 21.2223C19.3532 22.1144 20.7567 22.7429 22.2625 22.9474C25.1377 23.3392 28.4727 22.9401 29.5794 21.4983L30.0173 19.2679Z" fill="#FFFFFF" fill-opacity="1.000000" fill-rule="nonzero"/>
			</g>
		</g>
		<g opacity="0.750000">
			<g opacity="0.750000">
				<path id="Vector" d="M28.6282 36.7288C24.5927 37.3745 22.5372 35.9081 20.494 34.0991C18.9688 32.7487 17.0447 33.2859 17.0447 33.2859L5.94763 36.7338C2.79999 37.6456 1.53021 36.0239 1.53021 36.0239L1.81726 39.8267C1.81726 39.8267 2.31104 38.5353 5.52191 37.8402L15.9549 34.3678C18.0712 33.663 20.421 34.3112 21.8343 36.0535C21.8756 36.1052 21.9194 36.1595 21.9608 36.2137C23.9846 38.8483 28.6307 38.3184 28.6307 38.3184L28.6282 36.7288Z" fill="#FFFFFF" fill-opacity="1.000000" fill-rule="nonzero"/>
			</g>
		</g>
		<g opacity="0.750000">
			<g opacity="0.750000">
				<path id="Vector" d="M29.4286 44.3466C28.2172 46.4586 24.6657 46.3575 21.3162 44.9972C20.7299 44.7581 20.1754 44.4476 19.6353 44.1173C16.4025 42.1359 12.204 45.108 8.22443 46.9515C5.75061 48.3414 3.85809 47.9496 2.547 45.7734C2.81702 48.0161 3.21594 49.9656 3.78998 51.5231C3.89948 49.3888 5.94519 49.0537 9.12445 47.363C13.1892 45.3545 17.3707 42.8162 20.438 45.2017C21.09 45.7094 21.7905 46.1555 22.547 46.4758C25.0598 47.543 27.468 47.7894 29.6888 46.5917L29.4286 44.3466Z" fill="#FFFFFF" fill-opacity="1.000000" fill-rule="nonzero"/>
			</g>
		</g>
	</g>
	<path id="Vector" d="M15.1376 55.3333C13.3619 55.3333 11.5497 55.2544 9.77399 55.146C6.69934 54.8921 3.73651 54.101 2.81219 50.0444C2.80975 50.0396 2.80975 50.0321 2.80731 50.0272C0.0682983 35.2206 0.345642 22.6567 3.65381 11.6183C5.79199 4.48608 12.2186 2.77332 19.0248 0.959473C19.4213 0.853516 19.8177 0.747437 20.2167 0.641479C23.4957 -0.201294 26.2299 -0.213623 28.351 0.604492C30.3894 1.39075 31.8197 2.91125 32.6054 5.12439C33.3254 7.15015 33.3254 9.43726 32.6054 11.5616C28.925 22.4349 28.0566 33.7468 30.0245 45.182C30.0245 45.187 30.027 45.1895 30.027 45.1943C30.4113 47.8881 29.8591 50.0765 28.385 51.7006C25.7604 54.5914 20.6205 55.3333 15.1376 55.3333ZM3.69031 49.8497C4.4444 53.1448 6.60199 53.9729 9.83722 54.239C16.4585 54.6432 24.4833 54.6506 27.7234 51.082C29.0223 49.6501 29.4845 47.7698 29.1391 45.33C27.1469 33.7419 28.0275 22.2821 31.7565 11.2634C32.4084 9.33374 32.4108 7.26355 31.7614 5.43005C30.3091 1.34387 26.3953 -0.00915527 20.4429 1.52136C20.0464 1.62732 19.65 1.73328 19.2534 1.83923C12.4133 3.66296 6.50714 5.23779 4.51495 11.882C1.25055 22.7775 0.98053 35.1959 3.69031 49.8497Z" fill="#1B1B1B" fill-opacity="1.000000" fill-rule="nonzero"/>
	<path id="Vector" d="M17.8429 1.74597C17.8458 1.74597 17.8486 1.74316 17.8515 1.74316C17.8458 1.74597 17.8429 1.74866 17.8429 1.74597Z" fill="#000000" fill-opacity="1.000000" fill-rule="nonzero"/>
	<path id="Vector" d="M17.8401 1.81213L17.6918 1.81213L17.8134 1.68152L17.8499 1.67908L18.1102 1.67908L17.8645 1.80969L17.8401 1.81213Z" fill="#1B1B1B" fill-opacity="1.000000" fill-rule="nonzero"/>
	<g opacity="0.300000">
		<g opacity="0.300000">
			<path id="Vector" d="M28.295 45.2584C26.2882 33.5867 27.2053 22.3116 30.8954 11.4113C31.5692 9.42493 31.5984 7.25366 30.8978 5.27722C29.8834 2.41833 27.6674 0.65625 24.1208 0.471436C22.9776 0.528076 21.7175 0.72522 20.3334 1.0802C19.9515 1.18372 19.5721 1.28467 19.1951 1.3833C19.4139 1.3833 19.6232 1.39062 19.8202 1.4104C19.8177 1.4104 19.8153 1.4104 19.8129 1.4104C24.0552 1.05554 24.8579 3.90942 22.89 9.34851C19.0661 21.7202 17.9374 34.4517 19.1124 47.4912C19.7205 53.3123 15.5876 54.6111 10.2021 54.717C11.6008 54.7983 13.0359 54.86 14.4638 54.8748C22.2648 54.786 29.4091 53.051 28.295 45.2584Z" fill="#1B1B1B" fill-opacity="1.000000" fill-rule="nonzero"/>
		</g>
	</g>
	<path id="Vector" d="M31.7369 56.3115C31.394 56.3115 30.8321 56.1613 30.3456 55.3331C29.8201 55.7668 29.2023 55.8457 28.7304 55.6954C28.3485 55.5747 28.0615 55.3159 27.9033 54.9708C27.2271 55.2642 26.4147 55.2272 25.9062 54.823C25.6265 54.6012 25.0549 53.9432 25.7725 52.6469C25.8941 52.4275 26.1689 52.3486 26.3854 52.4719C26.6019 52.5951 26.6798 52.8735 26.5582 53.0929C26.4025 53.3739 26.1812 53.8816 26.4633 54.1058C26.7625 54.3448 27.4898 54.2981 27.9082 53.9038C28.042 53.7781 28.2366 53.746 28.402 53.8224C28.5674 53.8988 28.672 54.0688 28.6647 54.2537C28.6525 54.5494 28.7742 54.7516 29.0028 54.8254C29.2972 54.9191 29.7618 54.786 30.0829 54.2734C30.1753 54.1281 30.3383 54.0492 30.5061 54.0664C30.674 54.0836 30.8199 54.1946 30.8807 54.3547C31.1337 55.0177 31.4572 55.4095 31.7491 55.3997C32.0215 55.3899 32.3281 55.0424 32.474 54.5717C32.5202 54.4263 32.6346 54.3129 32.7805 54.271C32.9265 54.229 33.0822 54.2635 33.1965 54.3646C33.6951 54.8008 34.1525 54.993 34.5611 54.9413C35.0135 54.8822 35.4684 54.5149 35.9136 53.8521C35.9914 53.7362 36.1179 53.6622 36.2542 53.6548C36.3928 53.645 36.5266 53.7017 36.619 53.8052C36.9644 54.1946 37.665 54.3547 38.3218 54.1946C38.6356 54.1182 39.3896 53.8495 39.6183 52.9919C39.6572 52.844 39.7691 52.7257 39.9126 52.6764C40.0562 52.6296 40.2142 52.6592 40.3334 52.7552C40.9975 53.295 41.664 53.4799 42.0775 53.2334C42.4132 53.0338 42.5421 52.5508 42.4351 51.9075C42.4035 51.7251 42.4838 51.5427 42.6395 51.4467C42.7927 51.3481 42.9897 51.353 43.1381 51.4614C43.5589 51.7621 43.9627 51.6094 44.2036 51.3678C44.6097 50.9537 44.7314 50.1233 44.0868 49.204C44.0041 49.0857 43.9822 48.9354 44.0259 48.7974C44.0698 48.6593 44.1768 48.5509 44.313 48.5066C44.9454 48.2971 45.3273 48.0137 45.449 47.6661C45.5803 47.2866 45.4319 46.7593 45.0087 46.0963C44.943 45.9928 44.9211 45.8671 44.9479 45.7463C44.9746 45.6256 45.0476 45.5221 45.1522 45.458C45.646 45.1523 45.916 44.8369 45.9598 44.519C46.006 44.174 45.7993 43.7526 45.3468 43.2621C45.2568 43.166 45.213 43.033 45.2276 42.8999C45.2422 42.7668 45.3127 42.6484 45.4222 42.5746C46.1009 42.1063 46.4682 41.6504 46.4852 41.2561C46.4998 40.9258 46.2712 40.5636 45.809 40.1815C45.6825 40.078 45.6217 39.913 45.6509 39.7502C45.6801 39.5876 45.792 39.4546 45.9452 39.3978C46.5753 39.1736 46.9669 38.7472 46.962 38.2888C46.9595 37.8501 46.6044 37.4681 46.0133 37.2661C45.8455 37.2094 45.7287 37.0591 45.7092 36.8816C45.6898 36.7042 45.7773 36.5316 45.9282 36.443C46.3539 36.1891 46.8696 35.7972 46.8987 35.3734C46.9279 34.947 46.4633 34.4836 46.0717 34.1682C45.9695 34.0869 45.9087 33.9662 45.9014 33.833C45.8941 33.7024 45.9452 33.5743 46.0377 33.4832C46.5995 32.931 46.8647 32.4431 46.8282 32.0315C46.7966 31.6742 46.5193 31.3143 46.0036 30.9669C45.8698 30.8757 45.7944 30.7205 45.8041 30.5553C45.8163 30.3927 45.9111 30.2472 46.0571 30.1758C46.9814 29.7247 47.4947 29.254 47.4996 28.8499C47.5045 28.3816 46.8306 27.9257 46.5947 27.8025C46.4268 27.7137 46.3295 27.5289 46.3539 27.3391C46.3782 27.1494 46.5168 26.9941 46.7017 26.9523C47.2977 26.8192 47.6674 26.5308 47.7452 26.1389C47.8499 25.6239 47.4752 24.9733 46.7941 24.4828C46.6482 24.3793 46.5776 24.197 46.6141 24.0195C46.6506 23.842 46.7869 23.7041 46.962 23.6671C47.6504 23.5193 48.0688 23.1816 48.115 22.738C48.1588 22.287 47.8134 21.661 46.9401 21.2766C46.7674 21.2002 46.6603 21.0251 46.6701 20.8354C46.6798 20.6456 46.8063 20.483 46.9839 20.4238C48.0591 20.0813 48.458 19.6106 48.475 19.2853C48.4944 18.9082 48.0518 18.4868 47.2928 18.1541C47.1152 18.0776 47.0082 17.8928 47.0228 17.6981C47.0374 17.5034 47.1736 17.3408 47.3609 17.2939C48.076 17.1116 48.3996 16.7567 48.402 16.4832C48.4045 16.2021 48.0931 15.9336 47.609 15.8005C47.4144 15.7462 47.2806 15.5713 47.2782 15.3693C47.2758 15.1671 47.4047 14.9847 47.5969 14.9257C48.5018 14.6447 49.0515 14.2306 49.1026 13.787C49.1512 13.3828 48.7718 12.8973 48.0883 12.4883C47.9812 12.4242 47.9034 12.3157 47.8766 12.1901C47.8499 12.0643 47.8766 11.9362 47.9496 11.8326C48.368 11.2338 48.3777 10.4304 47.9739 9.83887C47.5726 9.25244 46.9012 9.03552 46.1301 9.24011C45.9525 9.28687 45.7628 9.22034 45.6533 9.07007C45.5438 8.91968 45.5366 8.71753 45.6339 8.55737C45.8577 8.19763 45.9014 7.86975 45.7506 7.70715C45.5876 7.53223 45.1619 7.47791 44.6097 7.78113C44.4297 7.8772 44.2108 7.84265 44.0698 7.69238C43.9311 7.54199 43.9068 7.31775 44.0114 7.14282C44.33 6.61292 44.1208 6.11511 44.0162 5.92529C43.8143 5.56055 43.4689 5.31409 43.1575 5.31409C42.9119 5.31409 42.7003 5.47192 42.5275 5.78235C42.4302 5.95496 42.2357 6.04614 42.0435 6.00415C41.8513 5.96228 41.7078 5.80212 41.6884 5.60254C41.608 4.76709 41.2554 4.20508 40.6716 3.97839C39.9321 3.6925 38.9883 3.98828 38.5018 4.43921C38.3875 4.54529 38.2293 4.58472 38.0785 4.54272C37.9301 4.50085 37.8109 4.38501 37.7672 4.23474C37.5652 3.55457 37.0276 3.40417 36.726 3.37463C36.1374 3.31543 35.5341 3.60376 35.2957 4.05725C35.2276 4.18542 35.1036 4.27417 34.96 4.29382C34.8165 4.3136 34.673 4.26184 34.5732 4.15588C34.1525 3.70972 33.717 3.50769 33.2767 3.552C32.8292 3.59888 32.3816 3.91931 32.08 4.40723C31.9486 4.62158 31.6713 4.68567 31.4597 4.55261C31.248 4.41956 31.1848 4.13855 31.3162 3.92419C31.7686 3.18726 32.4497 2.72156 33.1843 2.64514C33.6027 2.60071 34.2011 2.6698 34.836 3.17004C35.3201 2.6698 36.0644 2.3938 36.8136 2.46765C37.4825 2.53418 38.0372 2.87683 38.3752 3.41162C39.0977 2.98523 40.0999 2.78064 40.9926 3.12573C41.6543 3.38196 42.1359 3.90198 42.3913 4.62158C42.6224 4.4762 42.8802 4.40234 43.1575 4.40234C43.1575 4.40234 43.1576 4.40234 43.16 4.40234C43.7949 4.40234 44.4395 4.82617 44.8019 5.47925C45.0111 5.85632 45.1011 6.27039 45.0768 6.67212C45.6071 6.60059 46.0887 6.73865 46.4074 7.08362C46.6944 7.39417 46.7966 7.80322 46.7139 8.25183C47.5287 8.26172 48.2439 8.63379 48.7109 9.31897C49.2413 10.0952 49.3093 11.1031 48.9177 11.9485C49.6961 12.5203 50.0756 13.198 49.9953 13.8929C49.9515 14.27 49.7253 14.896 48.7936 15.4061C49.1221 15.697 49.3069 16.0741 49.3021 16.488C49.2972 16.9144 49.071 17.4172 48.4969 17.7893C49.2777 18.3611 49.3896 18.9698 49.3726 19.3271C49.341 19.9556 48.8934 20.515 48.1125 20.9315C48.7377 21.4467 49.0758 22.1317 49.0078 22.8242C48.9469 23.4453 48.5577 23.9579 47.9301 24.2808C48.4993 24.9067 48.762 25.6436 48.6259 26.3164C48.5261 26.8167 48.2147 27.2307 47.738 27.5117C48.0785 27.832 48.402 28.2855 48.3972 28.8523C48.3899 29.5055 47.9423 30.1117 47.0593 30.6539C47.4583 31.0482 47.6796 31.4795 47.7209 31.9403C47.7745 32.5269 47.5312 33.1381 46.996 33.7665C47.5701 34.3186 47.8304 34.8657 47.7939 35.425C47.7623 35.9106 47.5093 36.3518 47.0252 36.7657C47.5482 37.1428 47.8547 37.6801 47.8572 38.274C47.862 38.937 47.4923 39.5408 46.8622 39.9449C47.2247 40.3762 47.3998 40.8273 47.3779 41.2856C47.3512 41.8918 47.0058 42.4612 46.3223 43.0182C46.7382 43.5776 46.9133 44.1173 46.8452 44.6299C46.7795 45.1228 46.4901 45.5739 45.9841 45.9706C46.3879 46.7247 46.4925 47.3901 46.2955 47.957C46.1228 48.4548 45.7263 48.8564 45.1108 49.1522C45.6995 50.3229 45.4319 51.3973 44.8384 52.0012C44.4249 52.4202 43.8873 52.5951 43.3643 52.5114C43.3206 53.1865 43.0311 53.7164 42.5324 54.0146C41.9024 54.3893 41.0778 54.3054 40.2532 53.8027C39.9029 54.4312 39.2923 54.8895 38.5309 55.0743C37.7428 55.2642 36.9449 55.1409 36.3611 54.7589C35.843 55.3972 35.2787 55.7595 34.6779 55.8384C34.1573 55.9073 33.6221 55.7644 33.0822 55.412C32.7659 55.9542 32.2891 56.2893 31.7783 56.3066C31.7613 56.3115 31.7491 56.3115 31.7369 56.3115Z" fill="#1B1B1B" fill-opacity="1.000000" fill-rule="nonzero"/>
	<path id="Vector" d="M34.7047 29.567L33.5176 32.6476L25.5122 30.9126L22.637 30.2891C21.4645 31.3956 19.937 31.0358 18.9493 30.4369C18.6988 30.2891 18.4799 30.1387 18.2926 29.9908C16.0717 28.2288 18.1272 26.5135 20.1754 27.5757C20.3553 27.6693 20.5353 27.7852 20.7153 27.9232C19.7424 25.5597 22.9095 25.4612 23.0967 27.9552L25.6898 28.3151L34.7047 29.567Z" fill="#FFFFFF" fill-opacity="1.000000" fill-rule="nonzero"/>
	<path id="Vector" d="M34.6827 29.7173C33.6781 29.8677 32.7075 29.7567 31.7369 29.6459C30.7664 29.53 29.8055 29.3501 28.8398 29.2146L23.0384 28.4087C22.8292 28.3792 22.6735 28.2091 22.6516 28.0021L22.6516 27.9897C22.6346 27.8123 22.6054 27.6373 22.5519 27.4772C22.4959 27.3169 22.423 27.1691 22.3281 27.0433C22.1408 26.7871 21.861 26.6145 21.5837 26.5801C21.4451 26.5603 21.3186 26.585 21.2238 26.6318C21.1264 26.6786 21.0705 26.7501 21.0267 26.8512C20.9829 26.9521 20.9732 27.0951 20.9951 27.2528C21.017 27.4106 21.0705 27.5807 21.1362 27.7482L21.1386 27.7507C21.2286 27.9849 21.1167 28.251 20.8832 28.3422C20.7324 28.4014 20.5694 28.3741 20.4478 28.283C20.134 28.0439 19.7837 27.8542 19.4164 27.7679C19.0515 27.6743 18.6696 27.6816 18.351 27.7975C18.1929 27.8542 18.0542 27.9429 17.9594 28.0464C17.8644 28.1499 17.8109 28.2657 17.7963 28.3915C17.7647 28.6428 17.9155 28.9756 18.1782 29.2565C18.4361 29.5424 18.7669 29.7913 19.1318 30.0106C19.3118 30.119 19.4845 30.2152 19.6718 30.2916C19.8567 30.3679 20.0464 30.4344 20.2386 30.4764C20.6205 30.5676 21.0096 30.5701 21.3721 30.4912C21.7297 30.4 22.0605 30.2201 22.3403 29.9564L22.3427 29.954C22.4546 29.8505 22.6054 29.8135 22.7416 29.843L28.1807 31.0236L29.5404 31.3192C29.9929 31.4203 30.4478 31.5139 30.905 31.5953C31.3624 31.6742 31.8173 31.7703 32.2624 31.9058C32.4861 31.9723 32.7051 32.0513 32.9216 32.1473C33.1381 32.2434 33.3521 32.3519 33.5589 32.5022C33.6319 32.5564 33.6489 32.6599 33.5978 32.7339C33.5735 32.7684 33.537 32.7905 33.4981 32.8004C33.25 32.8522 33.0116 32.8621 32.7732 32.8596C32.5372 32.8571 32.3037 32.8374 32.0726 32.8053C31.6105 32.7438 31.158 32.6427 30.7104 32.5269C30.2604 32.411 29.808 32.3099 29.3555 32.2114L27.9958 31.9156L22.5568 30.7352L22.9581 30.6218C22.5786 30.9791 22.0994 31.2502 21.5837 31.376C21.0681 31.4943 20.5378 31.4819 20.0464 31.3636C19.5551 31.2527 19.088 31.0457 18.6745 30.7894C18.2682 30.5454 17.8644 30.2522 17.5166 29.8652C17.3415 29.673 17.1809 29.4512 17.0641 29.1851C16.9449 28.9238 16.872 28.6083 16.9109 28.283C16.9449 27.9576 17.1006 27.6422 17.3147 27.418C17.5287 27.1887 17.7866 27.036 18.0493 26.9398C18.3145 26.8438 18.5845 26.7994 18.8521 26.792C19.1196 26.7871 19.3848 26.8142 19.6353 26.8807C20.1437 27.0039 20.6035 27.2528 21.0048 27.5585L20.3164 28.0957C20.2288 27.869 20.151 27.6299 20.1145 27.3662C20.0829 27.1025 20.0853 26.8068 20.2021 26.5111C20.314 26.2178 20.5499 25.9467 20.837 25.8112C21.1191 25.6707 21.4256 25.6337 21.7029 25.6707C22.2648 25.7396 22.744 26.0649 23.0578 26.4889C23.2159 26.7008 23.3327 26.9374 23.4154 27.179C23.4957 27.4229 23.537 27.6693 23.5613 27.9158L23.1746 27.4993L28.9761 28.3027C29.9442 28.4358 30.9172 28.5221 31.8805 28.6748C32.8438 28.8326 33.807 28.9928 34.7362 29.4093C34.8141 29.4437 34.8506 29.5375 34.8165 29.6188C34.78 29.6754 34.7338 29.71 34.6827 29.7173Z" fill="#1B1B1B" fill-opacity="1.000000" fill-rule="nonzero"/>
	<path id="Vector" d="M21.4938 14.5363C21.2335 14.5363 20.9756 14.4944 20.7251 14.4056C19.7545 14.0581 19.1756 13.1266 19.1756 11.9141C19.1756 11.6257 19.4067 11.394 19.6888 11.394C19.9734 11.394 20.2021 11.6282 20.2021 11.9141C20.2021 12.678 20.5159 13.2301 21.0657 13.4248C21.647 13.6318 22.3378 13.3903 22.7878 12.8235C22.9655 12.5991 23.2889 12.5647 23.5103 12.7446C23.7317 12.9244 23.7657 13.2522 23.5881 13.4766C23.0506 14.1567 22.2697 14.5363 21.4938 14.5363Z" fill="#1B1B1B" fill-opacity="1.000000" fill-rule="nonzero"/>
	<path id="Vector" d="M28.5115 15.4703C28.2731 15.4703 28.0421 15.4309 27.828 15.3569C27.0399 15.0809 26.3563 14.2701 26.6044 13.0748C26.6628 12.7938 26.9352 12.614 27.2126 12.6731C27.4899 12.7323 27.6674 13.0083 27.6091 13.2892C27.4485 14.0607 27.991 14.3145 28.1613 14.3737C28.6259 14.5363 29.285 14.3834 29.6304 13.6687C29.7545 13.41 30.0634 13.3041 30.3188 13.4297C30.5743 13.5554 30.6788 13.8684 30.5548 14.1272C30.1024 15.0636 29.2778 15.4703 28.5115 15.4703Z" fill="#1B1B1B" fill-opacity="1.000000" fill-rule="nonzero"/>
	<path id="Vector" d="M25.1669 18.9377C25.0112 18.9377 24.853 18.923 24.6949 18.8934C23.7511 18.7135 23.0749 18.0406 22.929 17.1387C22.8876 16.8898 23.0554 16.6556 23.2987 16.6162C23.5444 16.5743 23.7755 16.7444 23.8144 16.9908C23.9409 17.7646 24.6463 17.9569 24.8604 17.9988C25.3007 18.0826 25.9258 17.9939 26.2396 17.4615C26.3661 17.2446 26.6434 17.1757 26.855 17.3038C27.0691 17.432 27.1371 17.7129 27.0107 17.9274C26.6361 18.5681 25.9404 18.9377 25.1669 18.9377Z" fill="#1B1B1B" fill-opacity="1.000000" fill-rule="nonzero"/>
	<path id="Vector" d="M42.2964 21.4639C41.7297 21.4639 41.1678 21.2518 40.7615 20.86C40.2118 20.3351 40.0123 19.5588 40.2094 18.7357C40.2775 18.4573 40.5547 18.2847 40.8297 18.3538C41.1045 18.4227 41.2748 18.7036 41.2067 18.9822C41.0948 19.4479 41.1848 19.8348 41.467 20.106C41.7637 20.3918 42.2405 20.4978 42.6516 20.3721C42.9484 20.2809 43.3351 20.0344 43.4835 19.3789C43.5468 19.098 43.8241 18.923 44.0989 18.9871C44.3763 19.0511 44.549 19.3296 44.4857 19.6106C44.2863 20.4904 43.7268 21.1311 42.9508 21.3677C42.7343 21.4318 42.5154 21.4639 42.2964 21.4639Z" fill="#1B1B1B" fill-opacity="1.000000" fill-rule="nonzero"/>
	<path id="Vector" d="M34.347 19.6697C33.7803 19.6697 33.2184 19.4578 32.8121 19.0659C32.2624 18.541 32.0629 17.7646 32.2599 16.9415C32.3281 16.6631 32.6053 16.4905 32.8802 16.5596C33.1551 16.6285 33.3254 16.9094 33.2573 17.188C33.1454 17.6538 33.2354 18.0406 33.5176 18.3118C33.8143 18.5977 34.2911 18.7036 34.7022 18.5779C34.999 18.4867 35.3857 18.2404 35.5341 17.5847C35.5974 17.3038 35.8723 17.1288 36.1495 17.1929C36.4268 17.257 36.5995 17.5354 36.5363 17.8164C36.3369 18.6963 35.7773 19.337 35.0014 19.5736C34.7849 19.6377 34.566 19.6697 34.347 19.6697Z" fill="#1B1B1B" fill-opacity="1.000000" fill-rule="nonzero"/>
	<path id="Vector" d="M37.6285 23.6005C37.4777 23.6005 37.3245 23.5857 37.1712 23.5586C36.4609 23.428 35.8625 22.9967 35.5755 22.4077C35.4515 22.1564 35.5536 21.8507 35.8042 21.7251C36.0523 21.5994 36.3539 21.7029 36.478 21.9568C36.6263 22.2599 36.9523 22.4841 37.3536 22.5581C37.811 22.6418 38.2634 22.5137 38.5942 22.2007C38.7961 22.0085 39.1147 22.0208 39.3045 22.2253C39.4943 22.4299 39.4821 22.7528 39.2802 22.9449C38.8253 23.3738 38.2415 23.6005 37.6285 23.6005Z" fill="#1B1B1B" fill-opacity="1.000000" fill-rule="nonzero"/>
	<path id="Vector" d="M14.476 58.4705C14.4079 58.5248 14.3057 58.5592 14.1987 58.5938C14.0892 58.6283 13.9676 58.6528 13.846 58.6825C13.5955 58.7367 13.34 58.7982 13.0481 58.8378C13.014 58.8427 12.9824 58.818 12.9776 58.7834C12.9752 58.7711 12.9776 58.7588 12.9824 58.749C13.0457 58.6085 13.1308 58.4854 13.2208 58.3719C13.3133 58.2585 13.4154 58.155 13.5249 58.059C13.6343 57.9653 13.7511 57.8741 13.8873 57.8076C14.0236 57.7435 14.1719 57.6893 14.3641 57.6992C14.5757 57.709 14.7387 57.8914 14.729 58.1058C14.7241 58.2241 14.6658 58.3276 14.5806 58.3942L14.476 58.4705Z" fill="#1B1B1B" fill-opacity="1.000000" fill-rule="nonzero"/>
	<path id="Vector" d="M16.1836 61.4598L11.9291 61.4598C11.1216 61.4598 10.4526 60.8191 10.4064 60.0033L10.1218 54.9043C10.1072 54.653 10.2969 54.4386 10.5451 54.4238C10.7932 54.4089 11.0048 54.6012 11.0194 54.8525L11.304 59.9515C11.3235 60.2867 11.5959 60.548 11.9291 60.548L16.1836 60.548C16.3271 60.548 16.4633 60.4863 16.5582 60.3755C16.6482 60.272 16.6871 60.1389 16.6701 60.0059C16.5995 59.4685 16.3295 59.0002 15.933 58.7218C15.5657 58.463 15.1182 58.3842 14.6414 58.4951C14.4006 58.5518 14.1573 58.3989 14.1038 58.1525C14.0479 57.9061 14.2011 57.6621 14.442 57.6079C15.1619 57.4403 15.8747 57.5709 16.4463 57.9727C17.052 58.3965 17.4583 59.094 17.5628 59.885C17.6139 60.2769 17.4971 60.6737 17.2369 60.9768C16.9693 61.2823 16.5874 61.4598 16.1836 61.4598Z" fill="#1B1B1B" fill-opacity="1.000000" fill-rule="nonzero"/>
	<path id="Vector" d="M14.369 58.5542C14.3641 58.5542 14.3593 58.5542 14.3544 58.5542C14.1063 58.5468 13.9117 58.3373 13.9189 58.0859L14.0162 54.8624C14.0236 54.611 14.2327 54.4138 14.4785 54.4213C14.7266 54.4286 14.9211 54.6381 14.9138 54.8895L14.8165 58.113C14.8117 58.3595 14.6122 58.5542 14.369 58.5542Z" fill="#1B1B1B" fill-opacity="1.000000" fill-rule="nonzero"/>
	<g opacity="0.250000">
		<g opacity="0.250000">
			<path id="Vector" d="M12.0095 6.8988C8.73291 8.77917 7.40228 11.8868 7.27338 15.7537C7.2345 16.9045 8.61853 17.4886 9.40912 16.663C11.4743 14.4991 12.9727 11.7366 13.7365 8.19263C13.9506 7.18713 12.8925 6.39111 12.0095 6.8988Z" fill="#FFFFFF" fill-opacity="1.000000" fill-rule="nonzero"/>
		</g>
	</g>
	<g opacity="0.250000">
		<g opacity="0.250000">
			<path id="Vector" d="M8.91528 21.6782C8.72552 23.2407 8.47253 24.4951 7.46552 24.3695C6.45844 24.2438 5.79681 22.876 5.98657 21.3136C6.17627 19.7511 7.14685 18.5853 8.15393 18.7111C9.16095 18.8368 9.10498 20.1158 8.91528 21.6782Z" fill="#FFFFFF" fill-opacity="1.000000" fill-rule="nonzero"/>
		</g>
	</g>
	<g opacity="0.300000">
		<g opacity="0.300000">
			<path id="Vector" d="M25.5123 30.9102L22.637 30.2866C21.4646 31.3932 19.937 31.0333 18.9494 30.4344C18.6989 30.2866 18.4799 30.1364 18.2926 29.9884C19.9832 30.3113 20.7737 29.7445 20.1292 27.7581L20.1754 27.5732C20.3553 27.6669 20.5353 27.7827 20.7154 27.9208C19.7424 25.5573 22.9095 25.4587 23.0968 27.9528L25.6898 28.3126C24.2303 29.2318 24.2863 30.0919 25.5123 30.9102Z" fill="#000000" fill-opacity="1.000000" fill-rule="nonzero"/>
		</g>
		<g opacity="0.300000">
			<path id="Vector" d="M20.8394 31.0679C20.1486 31.0679 19.4675 30.8264 18.9153 30.4912C18.6696 30.3458 18.4458 30.1954 18.2536 30.0426L18.0444 29.8776L18.3047 29.9269C19.1804 30.0944 19.7715 30.0082 20.061 29.673C20.3602 29.3254 20.3626 28.6897 20.0682 27.7803L20.0634 27.7631L20.1364 27.4821L20.2069 27.519C20.3334 27.5856 20.4599 27.6595 20.5815 27.7433C20.3237 26.9645 20.5596 26.5455 20.7324 26.3583C21.0169 26.0526 21.4864 25.9689 21.9559 26.1389C22.6297 26.3829 23.0773 27.0385 23.1575 27.901L25.8771 28.2781L25.7263 28.3743C25.0233 28.8129 24.6656 29.2516 24.6584 29.6705C24.6535 30.0599 24.9527 30.4617 25.5486 30.8584L25.8333 31.0482L22.6564 30.3606C22.1042 30.8683 21.4669 31.0679 20.8394 31.0679ZM18.548 30.0994C18.6818 30.1954 18.8277 30.2891 18.9834 30.3802C20.0026 30.9989 21.4864 31.2872 22.5956 30.2399L22.6199 30.2177L25.2252 30.782C24.7606 30.4148 24.527 30.0426 24.5319 29.6681C24.5392 29.2318 24.8676 28.7932 25.5121 28.3569L23.0408 28.0144L23.0359 27.9626C22.9727 27.1272 22.5543 26.4913 21.9146 26.2622C21.4986 26.1118 21.0729 26.1858 20.8272 26.4495C20.5377 26.76 20.5182 27.275 20.7761 27.901L20.8685 28.1278L20.6764 27.9774C20.5305 27.864 20.3748 27.7605 20.2191 27.6743L20.1972 27.7605C20.5061 28.7217 20.494 29.3748 20.1583 29.7617C19.864 30.0994 19.3337 30.2126 18.548 30.0994Z" fill="#1B1B1B" fill-opacity="1.000000" fill-rule="nonzero"/>
		</g>
	</g>
	<g opacity="0.300000">
		<g opacity="0.300000">
			<path id="Vector" d="M35.1766 32.2854C34.8068 32.5687 34.33 32.6698 33.8776 32.5663L30.837 31.8812L29.5648 31.5953C30.9197 31.1196 31.3746 30.2891 30.9294 29.1012L31.6494 29.1752L31.5618 29.3156L31.9462 29.3575L31.9875 29.4857C31.9997 29.4635 31.9875 29.4166 31.9608 29.36L34.5027 29.6409L34.3738 29.4536L34.8239 29.5005C36.3977 30.3679 36.0571 31.6101 35.1766 32.2854Z" fill="#1B1B1B" fill-opacity="1.000000" fill-rule="nonzero"/>
		</g>
	</g>
	<g opacity="0.300000">
		<g opacity="0.300000">
			<path id="Vector" d="M39.5453 54.0073L39.1147 59.9762C39.0734 60.5553 38.5966 61.0039 38.025 61.0039L32.7951 61.0039C32.1359 61.0039 31.6324 60.3976 31.7515 59.7421C31.7905 59.5375 31.8537 59.3428 31.9413 59.158C32.2064 59.0176 32.3962 58.9189 32.3962 58.9189C36.1033 60.0156 37.6601 58.5591 37.1225 54.6135C37.918 54.8452 38.9225 54.6555 39.5453 54.0073Z" fill="#1B1B1B" fill-opacity="1.000000" fill-rule="nonzero"/>
		</g>
	</g>
	<path id="Vector" d="M36.9036 39.4397C37.1469 39.7429 37.2904 40.1495 37.2515 40.5956C37.232 40.8174 37.1639 41.0416 37.0471 41.2462C36.9304 41.4484 36.7674 41.6257 36.5753 41.7539C36.1934 42.0176 35.7263 42.1014 35.3079 42.0226C34.8895 41.9462 34.5101 41.707 34.2985 41.3695C34.2595 41.3054 34.2766 41.2216 34.3398 41.1797C34.3738 41.1575 34.4152 41.1526 34.4517 41.1649L34.459 41.1674C34.7874 41.2709 35.0841 41.3029 35.3566 41.2709C35.629 41.2413 35.8723 41.1476 36.062 41.0096C36.2517 40.8691 36.3879 40.6892 36.4877 40.4427C36.5363 40.3196 36.5728 40.1791 36.5995 40.0262C36.6263 39.871 36.6385 39.7059 36.658 39.5236L36.658 39.5137C36.6677 39.4373 36.7358 39.3831 36.8112 39.3905C36.8501 39.3929 36.8817 39.4126 36.9036 39.4397Z" fill="#1B1B1B" fill-opacity="1.000000" fill-rule="nonzero"/>
	<g opacity="0.600000">
		<g opacity="0.600000">
			<g opacity="0.600000">
				<path id="Vector" d="M38.5139 47.304C38.565 47.6908 38.4799 48.1147 38.2172 48.4746C38.0883 48.6544 37.9131 48.8121 37.7087 48.9231C37.5045 49.0339 37.2734 49.1006 37.0447 49.1104C36.585 49.135 36.1422 48.9601 35.8235 48.6742C35.5049 48.3883 35.303 47.9841 35.2957 47.5848C35.2933 47.5084 35.3541 47.4469 35.4295 47.4445C35.4709 47.4445 35.5073 47.4617 35.5341 47.4888L35.539 47.4937C35.7676 47.7549 36.0036 47.9373 36.2542 48.0531C36.5023 48.1689 36.7576 48.2183 36.9911 48.201C37.2247 48.1813 37.4339 48.0975 37.6455 47.9398C37.7501 47.8584 37.8523 47.7599 37.9545 47.6416C38.0566 47.5233 38.1515 47.3877 38.2634 47.2423L38.2682 47.2349C38.3145 47.1733 38.402 47.1635 38.4604 47.2103C38.4896 47.2374 38.509 47.2694 38.5139 47.304Z" fill="#1B1B1B" fill-opacity="1.000000" fill-rule="nonzero"/>
			</g>
		</g>
	</g>
	<g opacity="0.600000">
		<g opacity="0.600000">
			<g opacity="0.600000">
				<path id="Vector" d="M41.3332 9.70337C41.6738 9.88818 41.9608 10.2061 42.0945 10.6324C42.1627 10.8444 42.1846 11.0785 42.1554 11.3126C42.1238 11.5443 42.0435 11.7736 41.9146 11.9657C41.664 12.3575 41.2651 12.6188 40.8491 12.7124C40.4332 12.8062 39.9929 12.7346 39.6694 12.5055C39.6086 12.4611 39.594 12.3773 39.6353 12.3132C39.6597 12.2787 39.6937 12.259 39.7326 12.254L39.7399 12.254C40.0829 12.2196 40.3675 12.1333 40.6083 11.9954C40.8467 11.8597 41.0364 11.6798 41.1605 11.4778C41.2821 11.2732 41.3381 11.0538 41.3356 10.7877C41.3332 10.6547 41.3137 10.5117 41.2797 10.3589C41.2432 10.2061 41.1921 10.0483 41.1411 9.87097L41.1386 9.86108C41.1167 9.78711 41.1605 9.71069 41.2335 9.6886C41.2675 9.68115 41.304 9.6886 41.3332 9.70337Z" fill="#1B1B1B" fill-opacity="1.000000" fill-rule="nonzero"/>
			</g>
		</g>
	</g>
	<path id="Vector" d="M46.8453 41.6627C45.5026 42.1581 44.1428 42.6041 42.7684 42.9984C30.3091 46.5842 16.6263 46.1234 2.18701 43.1561C-1.18927 39.2328 1.39404 35.0333 1.39404 35.0333C10.1097 36.2285 18.6356 36.9482 26.8453 36.8718C31.0608 36.1719 39.5405 34.6144 43.9822 33.7937C45.7239 33.4708 46.8453 33.2614 46.8453 33.2614C48.6721 36.7018 48.5286 39.4546 46.8453 41.6627Z" fill="#CA2C02" fill-opacity="1.000000" fill-rule="nonzero"/>
	<g opacity="0.550000">
		<g opacity="0.550000">
			<path id="Vector" d="M1.39404 35.812C10.1097 37.0073 18.6356 37.7269 26.8453 37.6505C31.0632 36.9507 39.5405 35.3931 43.9822 34.5724C45.7239 34.2496 46.8453 34.0402 46.8453 34.0402C47.6407 35.5385 48.0615 36.9062 48.1467 38.1558C48.2488 36.6697 47.8378 35.0012 46.8453 33.1307C46.8453 33.1307 45.7239 33.3402 43.9822 33.6631C39.5405 34.4838 31.0632 36.0437 26.8453 36.7412C18.6332 36.8175 10.1072 36.0979 1.39404 34.9027C1.39404 34.9027 0.311584 36.6648 0.464783 38.9714C0.583984 37.1256 1.39404 35.812 1.39404 35.812Z" fill="#FFFFFF" fill-opacity="1.000000" fill-rule="nonzero"/>
		</g>
	</g>
	<g opacity="0.550000">
		<g opacity="0.550000">
			<path id="Vector" d="M47.0593 33.6827C43.6125 34.3235 33.0457 36.2778 28.171 37.0862C19.9589 37.1626 11.4329 36.443 2.71973 35.2501C2.71973 35.2501 0.136414 39.4496 3.51276 43.373C5.06708 43.6909 6.61176 43.9818 8.14667 44.2406C6.17389 43.9301 4.18652 43.5653 2.18457 43.1561C-1.19171 39.2328 1.3916 35.0333 1.3916 35.0333C10.1072 36.2285 18.6331 36.9482 26.8428 36.8718C32.7125 35.8983 46.8428 33.2614 46.8428 33.2614C46.9207 33.4019 46.9912 33.5424 47.0593 33.6827Z" fill="#FFFFFF" fill-opacity="1.000000" fill-rule="nonzero"/>
		</g>
	</g>
	<path id="Vector" d="M23.7073 45.9928C17.0253 45.9928 9.84692 45.1968 2.09698 43.6022C1.99969 43.5825 1.91211 43.5308 1.84644 43.4543C-0.00952148 41.298 -0.138489 39.0553 0.0780029 37.5569C0.311523 35.9402 0.98291 34.8386 1.00964 34.7917C1.10211 34.6389 1.27722 34.5576 1.45239 34.5823C10.9562 35.8835 19.2485 36.4824 26.8063 36.4159C32.6249 35.4497 46.6215 32.8398 46.7626 32.8127C46.9547 32.7759 47.1469 32.8719 47.2393 33.0444C49.0759 36.5071 49.0637 39.5013 47.198 41.9436C47.1469 42.0127 47.0764 42.0643 46.9961 42.094C39.9492 44.694 32.2333 45.9928 23.7073 45.9928ZM2.4278 42.7396C19.7764 46.2836 34.2181 45.8054 46.568 41.2782C48.0907 39.2056 48.1005 36.7437 46.6021 33.764C44.4493 34.1658 32.2308 36.4355 26.9182 37.3153C26.8964 37.3203 26.872 37.3203 26.8501 37.3203C19.3215 37.3917 11.0729 36.8027 1.63727 35.5212C1.17267 36.4404 -0.133606 39.6467 2.4278 42.7396Z" fill="#1B1B1B" fill-opacity="1.000000" fill-rule="nonzero"/>
	<g opacity="0.300000">
		<g opacity="0.300000">
			<path id="Vector" d="M18.8642 45.4012C21.9729 44.6718 21.6032 36.9851 18.9713 36.8618L26.5411 36.8618L28.9858 36.5045L36.1738 37.4336C36.1738 37.4336 38.8082 40.2209 40.7639 38.2494C40.7639 38.2494 38.7255 41.744 35.4149 40.0952L32.7999 39.8267C32.7999 39.8267 32.9313 44.4056 30.9537 45.2017L24.3008 45.4012L18.8642 45.4012Z" fill="#1B1B1B" fill-opacity="1.000000" fill-rule="nonzero"/>
		</g>
	</g>
	<g opacity="0.300000">
		<g opacity="0.300000">
			<path id="Vector" d="M46.8452 41.6627C45.5024 42.1581 44.1427 42.6041 42.7683 42.9984C45.9719 41.0171 43.9821 33.7913 43.9821 33.7913C45.7238 33.4684 46.8452 33.2589 46.8452 33.2589C48.6721 36.7018 48.5285 39.4546 46.8452 41.6627Z" fill="#1B1B1B" fill-opacity="1.000000" fill-rule="nonzero"/>
		</g>
	</g>
	<path id="Vector" d="M36.3004 38.7004L31.4573 37.87C31.4573 37.87 31.4573 37.87 31.4549 37.87L25.2666 36.8077L25.3955 32.9631L28.0591 33.5398L37.1664 35.5115C38.7475 33.2885 42.3063 33.9957 39.3264 36.963C42.9411 39.1737 38.4872 42.4785 36.3004 38.7004Z" fill="#E07153" fill-opacity="1.000000" fill-rule="nonzero"/>
	<g opacity="0.550000">
		<g opacity="0.550000">
			<path id="Vector" d="M40.4818 35.2822C39.8834 34.8608 38.5601 35.127 37.6771 36.1646C37.5482 36.3148 37.356 36.3888 37.1663 36.3494L28.3607 34.5208L27.845 34.4122C27.8669 34.1805 27.918 33.9366 28.0079 33.6803L28.0688 33.6926L37.1931 35.5879C38.3826 33.8873 40.7324 33.8726 40.4818 35.2822Z" fill="#FFFFFF" fill-opacity="1.000000" fill-rule="nonzero"/>
		</g>
	</g>
	<path id="Vector" d="M25.4028 32.8768C26.4439 32.7881 27.4291 32.9778 28.4166 33.1577C29.4018 33.35 30.3748 33.6013 31.3575 33.8035L37.2539 35.0283L36.7966 35.2107C37.1517 34.7054 37.6285 34.2865 38.1855 34.0105C38.4653 33.8749 38.7645 33.7714 39.0831 33.722C39.4018 33.6753 39.7448 33.6729 40.1048 33.801C40.2823 33.8676 40.4672 33.976 40.618 34.1411C40.7689 34.3062 40.871 34.5255 40.9051 34.735C40.9416 34.9445 40.9246 35.1442 40.8856 35.3191C40.8467 35.494 40.7883 35.6519 40.7202 35.7997C40.584 36.0929 40.4138 36.3444 40.2337 36.5785C40.0537 36.8126 39.8591 37.027 39.6597 37.2291L39.5721 36.5144C39.8932 36.7091 40.207 36.9382 40.4843 37.2291C40.7592 37.5199 41.0073 37.8846 41.1167 38.3307C41.1702 38.5525 41.1873 38.7891 41.1581 39.0208C41.1265 39.2524 41.0535 39.4791 40.9416 39.6787C40.7202 40.0804 40.3748 40.3762 39.9954 40.5635C39.2316 40.9456 38.3218 40.8888 37.5993 40.5291C37.2369 40.3516 36.9134 40.1051 36.6409 39.8267C36.366 39.5481 36.1398 39.2327 35.9453 38.9073L36.2542 39.1218L30.4186 38.0941L28.9591 37.8378C28.4726 37.7516 27.9861 37.6653 27.4971 37.5988C27.0082 37.5322 26.5193 37.4534 26.0401 37.3301C25.7993 37.271 25.5609 37.1995 25.3274 37.1083C25.0914 37.0171 24.8604 36.9136 24.6341 36.7682C24.5587 36.7189 24.5368 36.6179 24.583 36.5415C24.6074 36.5045 24.6439 36.4799 24.6852 36.47C24.9455 36.4109 25.1984 36.3911 25.4514 36.3862C25.702 36.3813 25.9501 36.3961 26.1958 36.4232C26.6896 36.4725 27.1736 36.5637 27.6577 36.6671C28.1418 36.7706 28.6283 36.8569 29.1124 36.9407L30.5718 37.197L36.4074 38.2247C36.5412 38.2494 36.6506 38.3307 36.7163 38.4391C37.0399 38.9838 37.468 39.4545 37.991 39.7084C38.5042 39.9646 39.1148 39.9893 39.5989 39.7454C39.8397 39.6271 40.0416 39.4447 40.1559 39.2327C40.2751 39.0208 40.3043 38.7866 40.2459 38.55C40.1899 38.311 40.0391 38.0743 39.8372 37.86C39.6353 37.6481 39.3848 37.4607 39.1124 37.2981C38.8983 37.1699 38.8302 36.8889 38.9567 36.6721C38.9761 36.64 39.0004 36.6105 39.0248 36.5834C39.3824 36.2186 39.7156 35.8193 39.9078 35.4127C40.0026 35.2131 40.0464 35.0085 40.0221 34.8927C40.0124 34.8336 39.9929 34.7966 39.9613 34.7596C39.9272 34.7227 39.8737 34.6857 39.8007 34.6586C39.6499 34.6019 39.4359 34.592 39.2242 34.6241C39.0102 34.6561 38.7913 34.7301 38.5845 34.8312C38.171 35.0332 37.8061 35.3511 37.5385 35.738C37.4315 35.8909 37.2515 35.955 37.0812 35.9204L31.1848 34.6956C30.2021 34.4885 29.2097 34.3308 28.2294 34.1165C27.2515 33.8896 26.2712 33.6704 25.3492 33.1725C25.2739 33.1306 25.2447 33.0345 25.2836 32.9581C25.303 32.9113 25.3517 32.8817 25.4028 32.8768Z" fill="#1B1B1B" fill-opacity="1.000000" fill-rule="nonzero"/>
	<g opacity="0.300000">
		<g opacity="0.300000">
			<path id="Vector" d="M31.4719 37.8821L25.2739 36.8717L25.3736 33.0271L28.0421 33.5817C27.2442 35.7528 28.801 37.0294 31.4719 37.8821Z" fill="#1B1B1B" fill-opacity="1.000000" fill-rule="nonzero"/>
		</g>
	</g>
</svg>
