<svg width="397.000000" height="115.000000" viewBox="0 0 397 115" fill="none" xmlns="http://www.w3.org/2000/svg" xmlns:xlink="http://www.w3.org/1999/xlink">
	<desc>
			Created with Pixso.
	</desc>
	<defs/>
	<rect id="wave" width="392.000000" height="115.000000" transform="translate(5.000000 0.000000)" fill="#FFFFFF" fill-opacity="0"/>
	<g opacity="0.300000">
		<path id="Vector" d="M397 0.880859L397 115L0 115L0 1.18384C16.8036 6.19385 24.6609 25.3398 44.6212 25.3398C67.6003 25.3398 106.652 0 129.576 0C152.5 0 159.489 25.3398 182.455 25.3398C205.42 25.3398 244.486 0 267.424 0C290.361 0 297.323 25.3398 320.302 25.3398C340.703 25.3398 373.759 5.34058 397 0.880859Z" fill="#3FA693" fill-opacity="1.000000" fill-rule="evenodd"/>
	</g>
	<g opacity="0.400000">
		<path id="Vector" d="M397 32.8293L397 113L0 113L0 33.2026C16.8036 38.2202 24.6609 57.4473 44.6212 57.4473C67.6003 57.4473 106.652 32 129.576 32C152.5 32 159.489 57.4473 182.455 57.4473C205.42 57.4473 244.486 32 267.424 32C290.361 32 297.323 57.4473 320.302 57.4473C340.703 57.4473 373.759 37.377 397 32.8293Z" fill="#3FA693" fill-opacity="1.000000" fill-rule="evenodd"/>
	</g>
	<g opacity="0.400000">
		<path id="Vector" d="M397 68.2205L397 115L0 115L0 67.905C23.241 72.3623 56.2968 92.2754 76.6982 92.2754C99.6773 92.2754 106.611 67 129.576 67C152.542 67 191.608 92.248 214.545 92.248C237.483 92.248 244.444 67 267.424 67C290.403 67 329.455 92.248 352.379 92.248C372.353 92.2754 380.196 73.199 397 68.2205Z" fill="#3FA693" fill-opacity="1.000000" fill-rule="evenodd"/>
	</g>
</svg>
