<svg width="64.000000" height="64.000000" viewBox="0 0 64 64" fill="none" xmlns="http://www.w3.org/2000/svg" xmlns:xlink="http://www.w3.org/1999/xlink">
	<desc>
			Created with Pixso.
	</desc>
	<defs/>
	<rect id="ill roll 5" width="64.000000" height="64.000000" fill="#FFFFFF" fill-opacity="0"/>
	<path id="Vector" d="M59.3389 34.0906L50.6592 36.3826C50.0952 36.531 49.5703 36.8003 49.1211 37.1719C48.6719 37.5435 48.3091 38.0083 48.0581 38.5342L45.2271 44.4392L44.0635 46.8691C43.8472 47.3264 43.5083 47.7146 43.0845 47.991C42.0601 48.6582 40.6411 48.6069 39.665 47.6831L33.8701 42.199C33.5205 41.8684 33.0923 41.6323 32.626 41.5132C32.1597 41.394 31.6709 41.3958 31.2051 41.5178L22.4946 43.8191C21.9888 43.9526 21.4604 43.978 20.9443 43.8938C20.4277 43.8096 19.9351 43.6177 19.498 43.3303C19.061 43.043 18.6895 42.6667 18.4082 42.2266C18.1265 41.7861 17.9409 41.2913 17.8633 40.7744L14.5942 18.9133C14.46 18.0132 14.6626 17.095 15.1631 16.3347C15.6641 15.5745 16.4282 15.0256 17.3091 14.793L55.145 4.80249C55.5088 4.70679 55.8892 4.68872 56.2607 4.74976C56.6323 4.81055 56.9868 4.94897 57.3013 5.15601C57.6157 5.36279 57.8828 5.63354 58.0854 5.95068C58.2881 6.26758 58.4219 6.62378 58.4775 6.99585L61.9404 30.1438C62.0688 31.0061 61.874 31.8855 61.394 32.6135C60.9146 33.3418 60.1826 33.8677 59.3389 34.0906Z" fill="#FFFFFF" fill-opacity="1.000000" fill-rule="nonzero"/>
	<path id="Vector" d="M41.5679 48.521C40.8394 48.5208 40.1392 48.2407 39.6113 47.739L33.8169 42.2551C33.4761 41.9351 33.0596 41.7065 32.6064 41.5908C32.1533 41.4751 31.6782 41.4761 31.2256 41.5935L22.5151 43.8948C21.9985 44.031 21.459 44.0571 20.9316 43.9709C20.4043 43.8848 19.9009 43.6885 19.4546 43.3948C19.0083 43.1011 18.6294 42.7168 18.3418 42.2668C18.0547 41.8167 17.8652 41.3113 17.7866 40.7832L14.5176 18.9221C14.3794 18.0032 14.5854 17.0652 15.0972 16.2888C15.6084 15.5125 16.3892 14.9521 17.2891 14.7156L55.125 4.72754C55.5449 4.61572 55.9854 4.60596 56.4102 4.69873C56.9487 4.81519 57.4399 5.08984 57.8208 5.48779C58.2153 5.89746 58.4717 6.42065 58.5532 6.9834L62.0161 30.1311C62.1479 31.0125 61.9497 31.9114 61.4595 32.6555C60.9688 33.3999 60.2207 33.937 59.3579 34.1643L50.6787 36.4578C50.1255 36.603 49.6108 36.8669 49.1704 37.2314C48.7295 37.5957 48.374 38.0518 48.1279 38.5676L45.2969 44.4727L44.1333 46.9026C43.9023 47.3867 43.5386 47.7954 43.0845 48.0818C42.6304 48.3679 42.1045 48.5198 41.5679 48.5198L41.5679 48.521ZM31.917 41.3477C32.6626 41.3472 33.3804 41.6313 33.9233 42.1418L39.7183 47.6257C40.0254 47.9177 40.3979 48.1328 40.8042 48.2534C41.2109 48.374 41.6401 48.3967 42.0576 48.3198C42.4746 48.2427 42.8672 48.0681 43.2041 47.8101C43.5405 47.5522 43.811 47.2183 43.9937 46.8359L45.1572 44.4058L47.9878 38.5007C48.2437 37.9646 48.6133 37.4907 49.0713 37.1118C49.5293 36.7332 50.0645 36.4587 50.6396 36.3079L59.3188 34.0156C60.1445 33.7981 60.8608 33.2839 61.3306 32.5715C61.8003 31.8589 61.9902 30.9985 61.8638 30.1548L58.4009 7.00708C58.3213 6.48535 58.0854 5.99976 57.7241 5.61475C57.3628 5.22949 56.8931 4.96289 56.377 4.84961C55.9761 4.76294 55.5605 4.77271 55.1646 4.87842L17.3286 14.8665C16.4658 15.0933 15.7173 15.6306 15.2266 16.3752C14.7363 17.1199 14.5381 18.0193 14.6709 18.9006L17.9404 40.7617C18.0161 41.2678 18.1978 41.7522 18.4736 42.1836C18.749 42.6147 19.1128 42.9832 19.541 43.2644C19.9688 43.5457 20.4512 43.7336 20.957 43.8162C21.4624 43.8987 21.9795 43.8735 22.4751 43.7429L31.1855 41.4417C31.4243 41.3792 31.6704 41.3474 31.917 41.3477Z" fill="#1B1B1B" fill-opacity="1.000000" fill-rule="nonzero"/>
	<g opacity="0.350000">
		<g opacity="0.350000">
			<path id="Vector" d="M45.2271 44.439L44.0635 46.8689C43.8472 47.3259 43.5083 47.7144 43.0845 47.9907C42.7202 48.0029 42.3569 47.9421 42.0161 47.8123C41.6758 47.6821 41.3647 47.4856 41.1011 47.2336L35.3066 41.75C34.957 41.4192 34.5288 41.1831 34.0625 41.064C33.5962 40.9448 33.1069 40.9465 32.6416 41.0688L23.9307 43.3699C23.4248 43.5034 22.8965 43.5288 22.3799 43.4446C21.8633 43.3601 21.3706 43.168 20.9336 42.8804C20.4966 42.5928 20.125 42.2163 19.8438 41.7756C19.562 41.3347 19.377 40.8398 19.2998 40.3228L16.1733 19.4128C16.1445 18.0242 16.4409 17.0369 17.1753 16.3491C17.479 16.0647 17.9766 16.2341 18.0391 16.6448L21.0537 36.8135C21.1313 37.3303 21.3169 37.8252 21.5986 38.2656C21.8804 38.7061 22.252 39.0823 22.689 39.3696C23.1265 39.6567 23.6191 39.8486 24.1357 39.9326C24.6523 40.0168 25.1807 39.991 25.6865 39.8572L34.397 37.5562C34.8623 37.4336 35.3516 37.4319 35.8179 37.551C36.2842 37.6702 36.7124 37.9062 37.0615 38.2368L42.8564 43.7209C43.1675 44.0181 43.5439 44.238 43.9561 44.3628C44.3677 44.4875 44.8032 44.5134 45.2271 44.439Z" fill="#1B1B1B" fill-opacity="1.000000" fill-rule="nonzero"/>
		</g>
	</g>
	<g opacity="0.350000">
		<g opacity="0.350000">
			<path id="Vector" d="M59.1021 34.104L59.1001 34.104L50.4199 36.3962C49.519 36.6345 48.7285 37.1777 48.1841 37.9331L48.5405 37.1902L49.5723 35.0371C49.8232 34.5115 50.1865 34.0466 50.6357 33.675C51.085 33.3037 51.6099 33.0342 52.1738 32.886L60.1807 30.7708C60.2368 30.7559 60.2954 30.7537 60.3521 30.7646C60.4087 30.7756 60.4624 30.7993 60.5088 30.8342C60.5552 30.8689 60.5928 30.9136 60.6191 30.9651C60.6455 31.0164 60.6602 31.0732 60.6616 31.1309C60.667 31.7166 60.5278 32.2944 60.2554 32.8132C59.9834 33.332 59.5874 33.7754 59.1021 34.104Z" fill="#1B1B1B" fill-opacity="1.000000" fill-rule="nonzero"/>
		</g>
	</g>
	<path id="Vector" d="M56.3936 4.77441C55.981 4.68506 55.5532 4.69482 55.145 4.80322L17.3105 14.7915C16.5981 14.979 15.958 15.375 15.4727 15.9285C14.9868 16.4819 14.6777 17.1677 14.5854 17.8979C14.5415 18.2346 14.5454 18.5759 14.5957 18.9116L17.8652 40.7727C17.9556 41.3843 18.1978 41.9636 18.5693 42.4578C18.9414 42.9519 19.4312 43.3455 19.9941 43.6023L8.48535 39.6189L8.45898 39.6111C7.78369 39.4077 7.18018 39.0164 6.71875 38.4832C6.25732 37.9497 5.95703 37.2964 5.85303 36.5991L2.58398 14.7383C2.53809 14.4348 2.53076 14.127 2.56201 13.8218C2.6377 13.0732 2.94043 12.3655 3.4292 11.7932C3.91748 11.2207 4.56934 10.8105 5.29736 10.6177L43.1353 0.630859C43.585 0.51123 44.0586 0.511719 44.5083 0.632324L44.5239 0.636963L44.8877 0.763672L44.8955 0.768311L56.3936 4.77441Z" fill="#1B1B1B" fill-opacity="1.000000" fill-rule="nonzero"/>
	<g opacity="0.550000">
		<g opacity="0.550000">
			<path id="Vector" d="M56.3745 4.83228C55.9614 4.74316 55.5337 4.75293 55.1255 4.86108L53.7324 5.22803L44.8765 2.14307L44.8687 2.13843L44.5044 2.01172L44.4893 2.00708C44.0396 1.88647 43.5659 1.88574 43.1162 2.00537L5.27881 11.9927C4.59766 12.1733 3.98193 12.5439 3.50439 13.0615C3.02686 13.5791 2.70654 14.2219 2.58154 14.9148L2.56396 14.7971C2.51855 14.4939 2.51123 14.186 2.54248 13.8811C2.61816 13.1326 2.9209 12.4248 3.40967 11.8523C3.89844 11.2798 4.5498 10.8699 5.27783 10.677L43.1152 0.688721C43.5654 0.569336 44.0386 0.569824 44.4883 0.69043L44.5034 0.695068L44.8677 0.822021L44.8755 0.82666L56.3745 4.83228Z" fill="#FFFFFF" fill-opacity="1.000000" fill-rule="nonzero"/>
		</g>
	</g>
	<path id="Vector" d="M40.9468 48.3699L33.2935 47.2219C32.1948 47.0574 31.1841 46.5286 30.4229 45.7207L27.4067 42.5198L31.3872 41.6011C31.8418 41.4963 32.3145 41.501 32.7671 41.615C33.2192 41.729 33.6377 41.949 33.9878 42.2566L40.9468 48.3699Z" fill="#1B1B1B" fill-opacity="1.000000" fill-rule="nonzero"/>
	<g opacity="0.350000">
		<g opacity="0.350000">
			<path id="Vector" d="M39.186 46.8235L34.106 46.0618C33.0073 45.8972 31.9961 45.3684 31.2349 44.5603L28.9727 42.1594L31.3867 41.6023C31.8413 41.4973 32.314 41.502 32.7666 41.6157C33.2188 41.7297 33.6377 41.9495 33.9883 42.2571L39.186 46.8235Z" fill="#1B1B1B" fill-opacity="1.000000" fill-rule="nonzero"/>
		</g>
	</g>
	<path id="Vector" d="M41.5552 48.9832C40.7114 48.9832 39.9004 48.6575 39.291 48.0742L33.4966 42.5901C33.2134 42.324 32.8677 42.134 32.4912 42.0378C32.1147 41.9417 31.7197 41.9426 31.3438 42.0405L22.6323 44.3398C21.6865 44.5894 20.6831 44.5063 19.791 44.1045L8.31641 40.1333L8.2998 40.1282C7.52637 39.895 6.83545 39.447 6.30713 38.8364C5.77881 38.2258 5.43555 37.4775 5.31689 36.6794L2.04688 14.8184C1.89209 13.7861 2.12354 12.7332 2.69824 11.8613C3.27246 10.9897 4.14893 10.3606 5.15918 10.0947L42.9961 0.107178C43.5371 -0.036377 44.1069 -0.0356445 44.6475 0.108887L44.6699 0.115234L44.686 0.120361L44.7017 0.125732L45.0654 0.251953C45.0776 0.256104 45.0898 0.26123 45.1016 0.266357L56.543 4.25195C57.1587 4.39209 57.7202 4.70972 58.1567 5.16577C58.6182 5.64526 58.918 6.25659 59.0137 6.91455L62.4766 30.063C62.626 31.0571 62.4023 32.0715 61.8491 32.9114C61.2954 33.7512 60.4512 34.3574 59.478 34.6135L50.7979 36.9058C50.3096 37.0339 49.8555 37.2668 49.4668 37.5881C49.0781 37.9097 48.7642 38.3118 48.5474 38.7668L44.5537 47.1025C44.3306 47.5742 43.9976 47.9858 43.583 48.3032C43.168 48.6204 42.6831 48.8337 42.1689 48.9258C41.9668 48.9636 41.7612 48.9827 41.5552 48.9832ZM31.9263 40.8816C32.7881 40.8813 33.6172 41.2114 34.2427 41.8037L40.0376 47.2876C40.292 47.5288 40.6001 47.7065 40.9365 47.8062C41.2725 47.9058 41.6279 47.9246 41.9727 47.8608C42.3174 47.7974 42.6426 47.6531 42.9214 47.4402C43.1997 47.2271 43.4238 46.9514 43.5752 46.6353L47.5693 38.2998C47.8545 37.7031 48.2661 37.1755 48.7759 36.7539C49.2856 36.3323 49.8813 36.0269 50.5215 35.8586L59.2017 33.5664C59.917 33.3784 60.5371 32.9331 60.9438 32.3162C61.3501 31.6992 61.5142 30.9539 61.4043 30.2234L57.9424 7.07495C57.8765 6.64648 57.6826 6.24805 57.3857 5.93188C57.0894 5.61572 56.7036 5.39673 56.2798 5.30371C56.2583 5.29932 56.2373 5.29321 56.2163 5.28589L44.7173 1.27905C44.7051 1.27515 44.6934 1.27026 44.6812 1.26538L44.356 1.15234C44.0015 1.05957 43.6289 1.06055 43.2749 1.15454L5.4375 11.1423C4.68555 11.3401 4.0332 11.8083 3.60596 12.4573C3.17822 13.1062 3.00586 13.8901 3.12109 14.6584L6.39014 36.5193C6.48096 37.1143 6.73828 37.6714 7.13232 38.1265C7.52637 38.5815 8.04102 38.9163 8.61719 39.0918L8.646 39.1003L8.66357 39.1062L20.1719 43.0891C20.1885 43.095 20.2051 43.1016 20.2212 43.1091C20.8906 43.4155 21.6455 43.4802 22.3569 43.2922L31.0679 40.9932C31.3481 40.9192 31.6362 40.8816 31.9263 40.8816Z" fill="#1B1B1B" fill-opacity="1.000000" fill-rule="nonzero"/>
	<path id="Vector" d="M40.9468 48.9121C40.9194 48.9121 40.8926 48.9099 40.8657 48.906L33.2119 47.7581C31.9941 47.5735 30.873 46.9871 30.0273 46.0923L27.0107 42.8914C26.96 42.8398 26.9204 42.7788 26.8936 42.7117C26.8667 42.6448 26.8535 42.573 26.855 42.5007C26.8564 42.4287 26.8721 42.3574 26.9014 42.2915C26.9307 42.2256 26.9731 42.166 27.0254 42.1165C27.0781 42.0671 27.1401 42.0286 27.208 42.0034C27.2754 41.9783 27.3477 41.9668 27.4199 41.9697C27.4922 41.9727 27.563 41.99 27.6284 42.0208C27.6938 42.0515 27.7524 42.095 27.8008 42.1487L30.8169 45.3496C31.4956 46.0676 32.3955 46.5383 33.373 46.6865L41.0264 47.8345C41.1621 47.8545 41.2852 47.9248 41.3711 48.0317C41.4565 48.1384 41.4985 48.2737 41.4883 48.4104C41.4785 48.5469 41.417 48.6746 41.3164 48.7676C41.2158 48.8606 41.084 48.9124 40.9468 48.9121Z" fill="#1B1B1B" fill-opacity="1.000000" fill-rule="nonzero"/>
	<path id="Vector" d="M19.9927 44.1436C19.9146 44.1433 19.8374 44.1265 19.7666 44.0938C19.1216 43.7996 18.5605 43.3486 18.1343 42.7825C17.708 42.2163 17.4307 41.5525 17.3271 40.8516L14.0581 18.9907C13.9023 17.9585 14.1338 16.905 14.7085 16.033C15.2827 15.1611 16.1597 14.532 17.1704 14.2668L55.0049 4.2793C55.4961 4.14795 56.0122 4.13623 56.5088 4.24561C56.5796 4.25928 56.6475 4.28711 56.7075 4.32715C56.7676 4.36719 56.8188 4.41895 56.8589 4.47925C56.8984 4.53955 56.9258 4.60718 56.939 4.67822C56.9521 4.74902 56.9512 4.82202 56.936 4.89258C56.9204 4.96313 56.8911 5.02979 56.8496 5.08887C56.8081 5.14795 56.7549 5.198 56.6938 5.23633C56.6328 5.27466 56.5645 5.30054 56.4932 5.31201C56.4219 5.32373 56.3486 5.3208 56.2783 5.30396C55.9497 5.23169 55.6084 5.23975 55.2837 5.3269L17.4492 15.3145C16.6968 15.5117 16.0439 15.9797 15.6167 16.6289C15.189 17.2778 15.0166 18.0618 15.1323 18.8301L18.4019 40.6912C18.479 41.2136 18.686 41.7083 19.0039 42.1304C19.3218 42.5522 19.7397 42.8882 20.2207 43.1074C20.334 43.1587 20.4263 43.2471 20.4819 43.3579C20.5376 43.4688 20.5532 43.5955 20.5269 43.7168C20.5005 43.8379 20.4331 43.9463 20.3359 44.0239C20.2393 44.1016 20.1187 44.1436 19.9941 44.1428L19.9927 44.1436Z" fill="#1B1B1B" fill-opacity="1.000000" fill-rule="nonzero"/>
	<path id="Vector" d="M43.7109 33.5522C43.3765 34.0134 42.8896 34.3418 42.3369 34.4795C41.7837 34.6169 41.1997 34.5549 40.6875 34.3044L34.3901 31.2266C21.8872 25.0637 33.4839 13.2705 39.4385 21.4668C40.9316 14.8115 47.6914 15.1472 49.689 19.9617C50.5796 22.1077 50.2285 24.5698 48.8638 26.4507L43.7109 33.5522Z" fill="#E07153" fill-opacity="1.000000" fill-rule="nonzero"/>
	<g opacity="0.300000">
		<g opacity="0.300000">
			<path id="Vector" d="M43.3247 33.9695L41.9023 35.9292C41.5674 36.3896 41.0806 36.7178 40.5278 36.8552C39.9746 36.9929 39.3906 36.9312 38.8789 36.6814L32.582 33.6013C25.4238 30.0735 26.1646 24.7012 29.2231 22.2896C28.1167 24.9751 29.0806 28.6079 34.3901 31.2253L40.6865 34.303C41.1108 34.511 41.5869 34.5901 42.0557 34.5308C42.5244 34.4714 42.9653 34.2764 43.3247 33.9695Z" fill="#1B1B1B" fill-opacity="1.000000" fill-rule="nonzero"/>
		</g>
	</g>
	<g opacity="0.300000">
		<g opacity="0.300000">
			<path id="Vector" d="M48.8652 26.4497L43.7109 33.5515C43.377 34.0127 42.8901 34.3411 42.3369 34.4785C41.7837 34.6162 41.1997 34.5542 40.688 34.3037L34.3911 31.2258C29.5601 28.8455 28.3267 25.624 28.9761 23.04C29.458 24.9871 31.0776 27.0146 34.3911 28.6492L40.6875 31.7268C41.1997 31.9775 41.7837 32.0396 42.3369 31.9019C42.8901 31.7639 43.377 31.4355 43.7109 30.9741L48.8652 23.8713C49.4536 23.0618 49.8589 22.1345 50.0537 21.1533C50.4199 22.9812 49.9824 24.9097 48.8652 26.4497Z" fill="#1B1B1B" fill-opacity="1.000000" fill-rule="nonzero"/>
		</g>
	</g>
	<g opacity="0.550000">
		<g opacity="0.550000">
			<path id="Vector" d="M50.1318 23.2307C50.0615 22.6519 49.9126 22.0852 49.689 21.5466C47.8203 17.0457 41.79 16.4595 39.793 21.8433C39.752 21.9551 39.6831 22.0544 39.5928 22.1321C39.5024 22.21 39.394 22.2637 39.2773 22.2881C39.1606 22.3127 39.04 22.3071 38.9258 22.2722C38.812 22.2375 38.709 22.1743 38.626 22.0886C34.8276 18.229 29.4966 21.0339 28.876 25.1238C28.0889 19.9353 35.1963 15.6262 39.438 21.4663C40.9316 14.8105 47.6904 15.1465 49.6885 19.9602C50.1152 20.9941 50.2681 22.1206 50.1318 23.2307Z" fill="#FFFFFF" fill-opacity="1.000000" fill-rule="nonzero"/>
		</g>
	</g>
	<g opacity="0.350000">
		<g opacity="0.350000">
			<path id="Vector" d="M17.5181 42.7456L8.48535 39.6189L8.45898 39.6113C7.78369 39.4077 7.18018 39.0164 6.71875 38.4832C6.25732 37.95 5.95703 37.2964 5.85303 36.5994L2.58398 14.7383C2.53809 14.4348 2.53076 14.127 2.56201 13.8218L5.77686 14.9114L11.2646 16.7715C11.4434 16.8323 11.6235 16.8894 11.8008 16.9534C12.0718 17.0505 12.2539 17.241 12.438 17.4629C13.2969 18.4983 13.3066 20.1091 13.5 21.4036C13.7207 22.8779 13.9414 24.3525 14.1621 25.8269L14.9458 31.0659C15.1919 32.7117 15.438 34.3577 15.6841 36.0032L16.2104 39.5222C16.2627 39.8704 16.3145 40.2183 16.3662 40.5659C16.4888 41.4028 16.8955 42.1726 17.5181 42.7456Z" fill="#1B1B1B" fill-opacity="1.000000" fill-rule="nonzero"/>
		</g>
	</g>
	<path id="Vector" d="M32.0591 19.0483C32.2876 19.2424 32.4995 19.4553 32.6929 19.6846L32.7642 19.771C32.7881 19.7996 32.8115 19.8284 32.8335 19.8572L32.9668 20.0334L33.0923 20.2148C33.1343 20.2749 33.1714 20.3379 33.2109 20.3994C33.3643 20.6462 33.5024 20.9023 33.624 21.1663C33.7432 21.429 33.8486 21.6978 33.9385 21.9717C34.0278 22.2437 34.1016 22.5203 34.1592 22.8003C34.188 22.939 34.2168 23.0771 34.2383 23.2161L34.2734 23.4243L34.3022 23.6326C34.3774 24.188 34.417 24.7422 34.4458 25.2932C34.4995 26.3943 34.5059 27.4856 34.6377 28.5657C34.7715 29.6504 35.0381 30.7146 35.4307 31.7346C34.9634 30.7361 34.6201 29.6841 34.4082 28.6023C34.1973 27.5161 34.1128 26.4136 33.9829 25.332C33.9175 24.7913 33.8389 24.2551 33.731 23.7307L33.6895 23.5339L33.6426 23.3394C33.6138 23.2092 33.5757 23.0806 33.54 22.9536L33.5132 22.8579L33.4844 22.7642C33.4644 22.7019 33.4468 22.6387 33.4233 22.5774L33.3579 22.3928L33.2861 22.2104C33.187 21.9695 33.0752 21.7344 32.9507 21.5056C32.8267 21.2798 32.6885 21.0615 32.5371 20.8528C32.4985 20.8015 32.4629 20.7485 32.4219 20.6992L32.3027 20.55L32.1772 20.4062C32.1567 20.3821 32.1353 20.3591 32.1133 20.3367L32.0479 20.2686C31.8745 20.0906 31.6865 19.927 31.4863 19.7795L32.0591 19.0483Z" fill="#FFFFFF" fill-opacity="1.000000" fill-rule="nonzero"/>
	<path id="Vector" d="M38.0054 19.7681C38.2173 19.9822 38.4053 20.2188 38.5664 20.4736C38.647 20.6016 38.7202 20.7344 38.7852 20.8711C38.8521 21.0076 38.9019 21.1511 38.958 21.2925C39.0542 21.5813 39.126 21.8777 39.1724 22.1785L39.2031 22.405C39.2119 22.4805 39.2173 22.5562 39.2246 22.6321C39.2314 22.708 39.2358 22.7837 39.2393 22.8594C39.2432 22.9351 39.2485 23.0115 39.2485 23.0872C39.2632 23.6948 39.2197 24.2996 39.1763 24.8977C39.1333 25.4956 39.0952 26.0874 39.0898 26.6812C39.0747 29.0461 39.4692 31.3958 40.2554 33.6265L40.2744 33.6799L40.2773 33.7664L40.2773 33.7678L39.3486 33.7678L39.3486 33.7664L39.3701 33.906C39.04 32.7278 38.8105 31.5237 38.6836 30.3066C38.561 29.0957 38.5415 27.8765 38.626 26.6624C38.6689 26.0583 38.7446 25.4543 38.8276 24.8611C38.9111 24.2681 38.9902 23.6775 39.0142 23.0854C39.019 23.0112 39.0181 22.9377 39.0195 22.8638C39.021 22.7898 39.0225 22.7156 39.0195 22.6418C39.0166 22.5684 39.0171 22.4941 39.0127 22.4202L38.9971 22.1992C38.9712 21.9048 38.9199 21.6128 38.8452 21.3269C38.7998 21.186 38.7607 21.0427 38.7041 20.9058C38.6489 20.7678 38.5854 20.6333 38.5146 20.5029C38.3721 20.2402 38.2012 19.9939 38.0054 19.7681Z" fill="#FFFFFF" fill-opacity="1.000000" fill-rule="nonzero"/>
	<path id="Vector" d="M41.3545 17.5103C41.6807 17.6423 41.9961 17.7986 42.2988 17.9778C42.6055 18.1589 42.894 18.3691 43.1606 18.6052C43.4312 18.8445 43.6714 19.1167 43.8745 19.4153C44.0771 19.7161 44.2378 20.0432 44.3521 20.3875C44.3672 20.4299 44.3789 20.4739 44.3916 20.5159C44.4038 20.5579 44.417 20.6021 44.4277 20.645C44.4478 20.7312 44.4717 20.8176 44.4854 20.9038L44.5103 21.0342L44.5298 21.1646L44.5391 21.2295L44.5464 21.2949L44.5605 21.4248C44.5889 21.7673 44.5933 22.1113 44.5732 22.4543C44.5532 22.7925 44.5186 23.1277 44.4722 23.4561C44.4609 23.5388 44.4512 23.6216 44.439 23.7034L44.4019 23.9492C44.3779 24.1135 44.3501 24.2759 44.3232 24.4382C44.2158 25.0894 44.0967 25.7344 44.0024 26.3804C43.9082 27.0264 43.8379 27.6748 43.8296 28.3242C43.8262 28.4058 43.8296 28.4868 43.8296 28.5679L43.835 28.8115C43.8379 28.8926 43.8457 28.9734 43.8506 29.0547L43.8589 29.1763C43.8623 29.2166 43.8633 29.2573 43.8691 29.2976L43.8999 29.5393L43.9155 29.6604C43.9194 29.7009 43.9297 29.7405 43.936 29.7803L43.9814 30.0203C43.9956 30.1008 44.0142 30.1799 44.0337 30.259C44.1919 30.8953 44.4458 31.5037 44.7871 32.064C44.4106 31.5198 44.1187 30.9216 43.9214 30.29C43.8975 30.2109 43.8735 30.1313 43.8545 30.0508L43.7939 29.8091C43.7847 29.7688 43.772 29.7288 43.7651 29.688L43.7422 29.5654L43.6963 29.3203C43.6875 29.2795 43.6841 29.2385 43.6787 29.1973L43.6626 29.0735C43.6523 28.991 43.6392 28.9087 43.6313 28.8259L43.6118 28.5774C43.6055 28.4946 43.5977 28.4116 43.5962 28.3286C43.5654 27.6643 43.5986 26.9995 43.6538 26.3403C43.709 25.6814 43.792 25.0266 43.8608 24.3757C43.877 24.2131 43.8955 24.0505 43.9092 23.8867L43.9316 23.6433C43.939 23.5623 43.9438 23.4814 43.9502 23.4004C43.9766 23.0762 43.9897 22.7551 43.9902 22.4368C43.9902 22.1228 43.9678 21.8093 43.9233 21.4985L43.9043 21.3833L43.8945 21.3259L43.8828 21.2683L43.8594 21.1562L43.8306 21.0457C43.8135 20.9712 43.7886 20.9001 43.7681 20.8276C43.7563 20.792 43.7432 20.7568 43.731 20.7214C43.7183 20.686 43.7065 20.6509 43.6919 20.6169C43.5825 20.342 43.436 20.0835 43.2563 19.8486C43.0747 19.6133 42.8643 19.4019 42.6299 19.2188C42.1606 18.8474 41.6064 18.5725 41.0234 18.3735L41.3545 17.5103Z" fill="#FFFFFF" fill-opacity="1.000000" fill-rule="nonzero"/>
	<path id="Vector" d="M48.1138 17.7295C47.8428 18.4231 47.6636 19.1492 47.5806 19.8892C47.5713 19.9812 47.561 20.0728 47.5537 20.1648L47.5366 20.4402L47.5293 20.7161C47.5293 20.8079 47.5293 20.8997 47.5308 20.9912C47.5391 21.3564 47.5718 21.7207 47.6284 22.0815C47.7417 22.7961 47.9526 23.4919 48.2544 24.1497C48.5532 24.7986 48.9355 25.406 49.3906 25.9568L48.6436 26.5095C48.2085 25.856 47.8599 25.1487 47.6069 24.4055C47.2329 23.3047 47.0889 22.1389 47.1836 20.9805C47.1929 20.8853 47.2002 20.79 47.2124 20.6953L47.2495 20.4121L47.2969 20.1309C47.314 20.0374 47.3345 19.9443 47.3545 19.8516C47.5142 19.1143 47.7695 18.4009 48.1138 17.7295Z" fill="#FFFFFF" fill-opacity="1.000000" fill-rule="nonzero"/>
	<path id="Vector" d="M29.5664 21.5024C30.1274 21.7805 30.5986 22.2102 30.9263 22.7427L30.9839 22.8416L31.0376 22.9426L31.064 22.9937L31.0879 23.0457C31.104 23.0806 31.1206 23.1147 31.1353 23.1499C31.1948 23.2896 31.2432 23.4338 31.2793 23.5813C31.3506 23.8708 31.3799 24.1692 31.3657 24.4668C31.3384 25.0454 31.1597 25.6067 30.8472 26.0945C30.6958 26.3313 30.5122 26.5464 30.3018 26.7329C30.0942 26.9146 29.8633 27.0674 29.6147 27.1875C29.8394 27.0366 30.0425 26.8562 30.2192 26.6514C30.3906 26.449 30.5337 26.2239 30.6436 25.9824C30.8589 25.5115 30.9473 24.9924 30.8989 24.4768C30.8755 24.2297 30.8164 23.9875 30.7231 23.7576C30.6992 23.7 30.6772 23.6448 30.6484 23.5918C30.6191 23.5391 30.5908 23.4858 30.562 23.4333C30.5469 23.4077 30.5293 23.3828 30.5132 23.3574L30.4888 23.3198L30.4624 23.2832L30.4097 23.2107L30.3521 23.1409C30.0498 22.7773 29.6514 22.5059 29.2026 22.3569L29.5664 21.5024Z" fill="#FFFFFF" fill-opacity="1.000000" fill-rule="nonzero"/>
	<path id="Vector" d="M41.7529 35.0164C41.3125 35.0164 40.8784 34.9153 40.4834 34.7214L34.186 31.6438C32.0698 30.6008 30.4971 29.3386 29.5103 27.8923C28.6333 26.6064 28.2412 25.1838 28.3774 23.7788C28.4976 22.5342 29.0161 21.3569 29.8765 20.374C30.7041 19.429 31.8115 18.731 32.9941 18.4094C34.1533 18.0898 35.3833 18.1418 36.5112 18.5581C37.5156 18.9287 38.4268 19.5693 39.229 20.4673C39.626 19.2336 40.2305 18.2205 41.0327 17.447C41.9341 16.5771 43.0479 16.0625 44.252 15.9585C45.4214 15.8574 46.6343 16.1619 47.6675 16.8157C48.7495 17.5007 49.5967 18.5276 50.1196 19.7852C50.5859 20.918 50.7466 22.1533 50.5845 23.3677C50.4224 24.5806 49.9604 25.7344 49.2412 26.7246L44.0874 33.8271C43.8198 34.1958 43.4692 34.4958 43.0635 34.7024C42.6577 34.9092 42.2085 35.0168 41.7529 35.0164ZM34.5327 19.127C34.0947 19.1274 33.6592 19.1868 33.2368 19.303C31.124 19.8782 29.5054 21.7537 29.3013 23.8657C29.1519 25.4106 29.6411 28.3674 34.5947 30.8091L40.8906 33.8867C41.3042 34.0898 41.7759 34.1401 42.2227 34.0288C42.6699 33.9177 43.063 33.6521 43.3325 33.2791L48.4863 26.1765C49.7729 24.4038 50.0703 22.0896 49.2588 20.1379C48.376 18.011 46.395 16.7019 44.3301 16.8804C42.1665 17.0674 40.5068 18.8193 39.8901 21.5667C39.8706 21.6538 39.8262 21.7336 39.7627 21.7964C39.6987 21.8594 39.6187 21.9023 39.5308 21.9207C39.4434 21.9387 39.3521 21.9314 39.2686 21.8992C39.1851 21.8669 39.1128 21.8115 39.0601 21.7393C37.8252 20.0361 36.2227 19.127 34.5322 19.127L34.5327 19.127Z" fill="#1B1B1B" fill-opacity="1.000000" fill-rule="nonzero"/>
	<g opacity="0.250000">
		<g opacity="0.250000">
			<path id="Vector" d="M33.1221 22.5569C33.3379 22.2725 33.6929 22.116 34.0483 22.0803C34.4038 22.0447 34.7617 22.1187 35.1025 22.2241C35.9536 22.4902 36.729 22.9548 37.3647 23.5798C37.5635 23.7754 37.751 23.9924 37.8467 24.2542C37.9424 24.5159 37.9297 24.8293 37.7549 25.0476C37.603 25.2361 37.3516 25.3228 37.1094 25.3296C36.8667 25.3364 36.6289 25.272 36.395 25.2095C35.5439 24.9783 32.0098 24.0256 33.1221 22.5569Z" fill="#FFFFFF" fill-opacity="1.000000" fill-rule="nonzero"/>
		</g>
	</g>
	<g opacity="0.250000">
		<g opacity="0.250000">
			<path id="Vector" d="M40.0322 24.9094C40.2593 24.9502 40.4976 25.0181 40.646 25.1943C40.8154 25.3958 40.8218 25.6833 40.8184 25.9482C40.8154 26.2131 40.8008 26.5073 40.606 26.6848C40.4839 26.7961 40.311 26.8376 40.1455 26.832C39.98 26.8267 39.8198 26.7793 39.6616 26.7319C39.3418 26.6362 38.9995 26.5266 38.7979 26.2627C38.5854 25.9875 38.4761 25.3748 38.6865 25.0632C38.9463 24.6797 39.6606 24.8425 40.0322 24.9094Z" fill="#FFFFFF" fill-opacity="1.000000" fill-rule="nonzero"/>
		</g>
	</g>
	<path id="Vector" d="M44.1025 14.3364C44.7612 14.7366 45.377 15.3184 45.5176 16.0754C45.6582 16.8325 45.1128 17.731 44.3423 17.7168C43.9106 17.709 43.5234 17.4292 43.2749 17.0776C43.0264 16.7261 42.8945 16.3079 42.7666 15.8984L44.1025 14.3364Z" fill="#FFFFFF" fill-opacity="1.000000" fill-rule="nonzero"/>
	<path id="Vector" d="M44.3604 17.7942L44.3413 17.7942C43.9258 17.7869 43.5039 17.5354 43.2114 17.1223C42.9541 16.7576 42.8213 16.3318 42.6934 15.9202L42.8413 15.8743C42.9658 16.2744 43.0952 16.6882 43.3389 17.0332C43.6025 17.407 43.9785 17.6328 44.3447 17.6394L44.3608 17.6394C44.6421 17.6394 44.9111 17.5046 45.1196 17.259C45.3882 16.9426 45.5151 16.4824 45.4419 16.0894C45.2949 15.2981 44.6113 14.7351 44.0635 14.4023L44.1436 14.27C44.7197 14.6191 45.437 15.2134 45.5947 16.0613C45.6768 16.5051 45.54 17.0022 45.2373 17.3591C44.9985 17.6401 44.688 17.7942 44.3604 17.7942Z" fill="#1B1B1B" fill-opacity="1.000000" fill-rule="nonzero"/>
	<path id="Vector" d="M44.1836 14.2046C44.4858 14.3123 44.77 14.4651 45.0264 14.6584C45.3013 14.863 45.5327 15.1204 45.7065 15.4153C45.728 15.4546 45.752 15.4924 45.7705 15.5334C45.7896 15.5747 45.8091 15.6155 45.8281 15.6565C45.8633 15.741 45.8931 15.8274 45.917 15.9155L45.9355 15.9824C45.9414 16.0044 45.9458 16.0305 45.9507 16.0544C45.9561 16.0784 45.96 16.1033 45.9634 16.1277C45.9663 16.1521 45.9702 16.177 45.9727 16.2014C45.9819 16.2986 45.9839 16.3965 45.9775 16.4941C45.9653 16.6868 45.9243 16.8762 45.8555 17.0566C45.8213 17.147 45.7808 17.2346 45.7329 17.3186C45.71 17.3611 45.6831 17.4023 45.6567 17.4434C45.6309 17.4846 45.6011 17.5239 45.5703 17.5627C45.4438 17.7241 45.2886 17.8606 45.1123 17.9656C44.9243 18.0769 44.7129 18.1433 44.4946 18.1597C44.4404 18.1633 44.3857 18.1643 44.3311 18.1619C44.2773 18.1589 44.2241 18.1533 44.1714 18.1448C44.0684 18.1279 43.9673 18.1003 43.8701 18.0623C43.7769 18.0256 43.6875 17.9807 43.6025 17.9277C43.3662 17.7761 43.167 17.5742 43.0181 17.3362C42.9722 17.262 42.9302 17.1851 42.8931 17.106C42.8574 17.0281 42.8257 16.9495 42.7979 16.8713C42.7461 16.7183 42.7056 16.5618 42.6777 16.4028C42.6499 16.2505 42.6309 16.0969 42.6201 15.9424C42.6177 15.9067 42.627 15.8711 42.6475 15.8416C42.6675 15.812 42.6968 15.79 42.7314 15.7793C42.7656 15.7686 42.8022 15.7698 42.8359 15.7825C42.8691 15.7954 42.8975 15.8191 42.9155 15.8499C42.9941 15.9817 43.0649 16.114 43.1367 16.2405C43.1733 16.3037 43.2075 16.3662 43.2451 16.426C43.2827 16.4858 43.3188 16.5442 43.3569 16.6003C43.395 16.6565 43.4336 16.7097 43.4741 16.76C43.5127 16.8093 43.5542 16.8564 43.5981 16.9011C43.6792 16.9851 43.77 17.0591 43.8682 17.1216C43.9146 17.1499 43.9624 17.1755 44.0122 17.1978C44.0239 17.2029 44.0361 17.2073 44.0479 17.2122C44.0596 17.2173 44.0713 17.2217 44.0835 17.2253L44.1187 17.2371L44.1533 17.2463C44.1973 17.2581 44.2417 17.2649 44.2871 17.2671C44.3091 17.2693 44.3301 17.2671 44.3511 17.2671C44.3711 17.2659 44.3911 17.2637 44.4111 17.2605C44.4917 17.2476 44.5684 17.2183 44.6372 17.1741C44.7158 17.1226 44.7856 17.0583 44.8442 16.9846C44.9756 16.8184 45.0605 16.6208 45.0918 16.4116C45.0996 16.3606 45.1035 16.3088 45.1035 16.2571C45.1035 16.2441 45.1035 16.2319 45.1035 16.2192C45.1035 16.2065 45.1035 16.1938 45.1016 16.1816C45.1011 16.1687 45.1001 16.1558 45.0981 16.1431L45.0913 16.1006C45.083 16.0435 45.0718 15.9866 45.0576 15.9304C45.0488 15.9016 45.0405 15.8728 45.0322 15.844C45.0244 15.8154 45.0117 15.7866 45.002 15.7578C44.9185 15.53 44.7783 15.3062 44.6094 15.0908C44.5229 14.9834 44.4316 14.8779 44.334 14.7744C44.2358 14.6709 44.1323 14.5693 44.0254 14.4651L44.0225 14.4626C43.9966 14.4373 43.98 14.4041 43.9761 14.3684C43.9717 14.3325 43.98 14.2964 43.999 14.2659C44.0181 14.2354 44.0469 14.2122 44.0811 14.2002C44.1152 14.1885 44.1523 14.1885 44.186 14.2004L44.1836 14.2046Z" fill="#1B1B1B" fill-opacity="1.000000" fill-rule="nonzero"/>
	<path id="Vector" d="M57.9292 34.6704C57.895 35.4399 57.1611 36.1919 56.4141 36.0046C55.9956 35.8994 55.6797 35.5403 55.5166 35.1418C55.5107 35.1262 55.5044 35.113 55.5 35.0969C55.3511 34.7114 55.3203 34.2915 55.2891 33.8774L56.9438 32.6577C57.1992 32.9016 57.4204 33.179 57.6011 33.4827C57.8164 33.8472 57.9478 34.2495 57.9292 34.6704Z" fill="#FFFFFF" fill-opacity="1.000000" fill-rule="nonzero"/>
	<path id="Vector" d="M57.0513 32.5464C57.3223 32.7195 57.5649 32.9329 57.771 33.1792C57.9927 33.4409 58.1602 33.7439 58.2632 34.071C58.2749 34.114 58.2896 34.1572 58.2983 34.2007C58.3076 34.2441 58.3174 34.2891 58.3271 34.3335C58.3428 34.4241 58.3525 34.5154 58.356 34.6072L58.3589 34.6765C58.3589 34.6992 58.3589 34.7253 58.3589 34.7498C58.3589 34.7742 58.3569 34.7996 58.3545 34.8242C58.3521 34.8491 58.3506 34.8738 58.3472 34.8979C58.3345 34.9954 58.314 35.0916 58.2856 35.1855C58.23 35.3701 58.1475 35.5454 58.0396 35.7056C57.9863 35.7861 57.9268 35.8623 57.8613 35.9333C57.8291 35.9697 57.7939 36.0039 57.7588 36.0381C57.7241 36.0725 57.686 36.104 57.647 36.1345C57.4873 36.2637 57.3052 36.3621 57.1099 36.4248C56.8481 36.5085 56.5679 36.5139 56.3032 36.4399C56.252 36.425 56.2017 36.4075 56.1519 36.387C56.0552 36.3479 55.9629 36.2983 55.877 36.239C55.7944 36.1824 55.7173 36.1184 55.6465 36.0476C55.5791 35.9795 55.5176 35.906 55.4614 35.8281C55.4077 35.7524 55.3599 35.6731 55.3174 35.5903C55.2759 35.5095 55.2402 35.4258 55.2109 35.3398C55.1831 35.2568 55.1597 35.1721 55.1411 35.0867C55.124 35.0027 55.1123 34.9192 55.1016 34.8367C55.0854 34.676 55.082 34.5142 55.0903 34.3528C55.0977 34.198 55.1138 34.0439 55.1387 33.8909C55.144 33.8555 55.1616 33.823 55.188 33.7988C55.2144 33.7744 55.248 33.7598 55.2837 33.7571C55.3193 33.7544 55.355 33.7637 55.3848 33.7837C55.4146 33.8037 55.4365 33.8333 55.4473 33.8674C55.4941 34.0132 55.5337 34.1582 55.5742 34.2988C55.5957 34.3684 55.6152 34.4373 55.6382 34.5039C55.6611 34.5706 55.6831 34.6355 55.7075 34.699C55.7324 34.7622 55.7578 34.8225 55.7861 34.8809C55.8125 34.9377 55.8423 34.9932 55.8745 35.0466C55.9351 35.1465 56.0068 35.2388 56.0884 35.322C56.1265 35.3601 56.1675 35.3955 56.21 35.4285C56.2207 35.436 56.231 35.4431 56.2417 35.4504C56.2515 35.4583 56.2622 35.4651 56.2734 35.4712L56.3047 35.4907L56.3364 35.5078C56.3765 35.5286 56.4189 35.5454 56.4624 35.5579C56.4829 35.5652 56.5039 35.5679 56.5244 35.5732C56.5444 35.5789 56.5645 35.5796 56.584 35.5803C56.6655 35.5854 56.7471 35.5742 56.8237 35.5466C56.9121 35.5142 56.9951 35.4675 57.0688 35.4087C57.2339 35.2764 57.3618 35.1033 57.4395 34.9062C57.4585 34.8582 57.4741 34.8088 57.4858 34.7585C57.4897 34.7461 57.4912 34.7336 57.4941 34.7214C57.4971 34.709 57.499 34.6968 57.5005 34.6843C57.502 34.6714 57.5054 34.6606 57.5059 34.646L57.5093 34.603C57.5137 34.5457 57.5156 34.488 57.5146 34.4304C57.5127 34.4019 57.5103 34.373 57.5093 34.342C57.5078 34.3108 57.502 34.2827 57.4985 34.2524C57.4697 34.0117 57.3833 33.7617 57.2686 33.5139C57.209 33.3901 57.1436 33.2666 57.0713 33.1431C56.9985 33.02 56.9204 32.8977 56.8408 32.7722L56.8389 32.7688C56.8198 32.7385 56.8115 32.7024 56.8159 32.6667C56.8198 32.6311 56.8359 32.5979 56.8613 32.5725C56.8867 32.5474 56.9199 32.5312 56.9556 32.5273C56.9912 32.5234 57.0273 32.5317 57.0576 32.5508L57.0513 32.5464Z" fill="#1B1B1B" fill-opacity="1.000000" fill-rule="nonzero"/>
	<path id="Vector" d="M60.2715 14.4346C61.002 14.6809 61.521 15.5947 61.1333 16.2595C60.916 16.6316 60.4829 16.8347 60.0537 16.8801C60.0371 16.8818 60.022 16.8838 60.0059 16.8843C59.5938 16.9199 59.1807 16.8325 58.7744 16.7473L58.0615 14.8201C58.3672 14.6428 58.6953 14.5078 59.0371 14.4189C59.4487 14.3135 59.8721 14.2991 60.2715 14.4346Z" fill="#FFFFFF" fill-opacity="1.000000" fill-rule="nonzero"/>
	<path id="Vector" d="M57.9858 14.6863C58.2271 14.4751 58.4985 14.3018 58.792 14.1721C59.105 14.0322 59.4429 13.9561 59.7852 13.9478C59.8301 13.9478 59.8745 13.9458 59.9199 13.9495C59.9648 13.9534 60.0103 13.9561 60.0557 13.96C60.1465 13.9707 60.2368 13.9871 60.3262 14.009L60.3936 14.0259C60.4155 14.0312 60.4409 14.0405 60.4639 14.0476C60.4873 14.0549 60.5112 14.0635 60.5342 14.0728C60.5566 14.0818 60.5806 14.0901 60.603 14.1013C60.6929 14.1406 60.7793 14.1868 60.8618 14.2397C61.0244 14.3442 61.1699 14.4727 61.2939 14.6206C61.3564 14.6943 61.4131 14.7727 61.4634 14.855C61.4893 14.8962 61.5122 14.9392 61.5356 14.9822C61.5586 15.0251 61.5781 15.0706 61.5967 15.1165C61.6768 15.3054 61.7207 15.5078 61.7266 15.7129C61.7319 15.9309 61.687 16.1475 61.5952 16.3457C61.5723 16.395 61.5459 16.4431 61.5171 16.4895C61.4888 16.5347 61.458 16.5781 61.4248 16.6201C61.3599 16.7019 61.2866 16.7766 61.2056 16.8428C61.1284 16.9062 61.0454 16.9624 60.9575 17.0107C60.7915 17.1008 60.6123 17.1643 60.4263 17.199C60.3369 17.2168 60.2466 17.2275 60.1558 17.2317C60.0684 17.2356 59.9805 17.2346 59.8931 17.2288C59.8066 17.2214 59.7236 17.2107 59.6416 17.197C59.4829 17.1677 59.3262 17.1262 59.1733 17.0732C59.0264 17.0234 58.8823 16.9651 58.7417 16.8987C58.7095 16.8835 58.6831 16.8579 58.667 16.8259C58.6509 16.7939 58.6465 16.7576 58.6538 16.7224C58.6606 16.6875 58.6797 16.656 58.707 16.6331C58.7344 16.6101 58.769 16.5969 58.8047 16.5959C58.958 16.5916 59.1084 16.5945 59.2539 16.5935C59.3267 16.5935 59.3979 16.5935 59.4688 16.5894C59.5396 16.585 59.6079 16.5825 59.6758 16.5769C59.7432 16.571 59.8086 16.563 59.8726 16.5522C59.9346 16.5427 59.9956 16.5298 60.0562 16.5134C60.1689 16.4834 60.2778 16.4402 60.3804 16.3848C60.4277 16.3591 60.4731 16.3303 60.5166 16.2983C60.5269 16.2908 60.5366 16.2822 60.5454 16.2742C60.5557 16.2668 60.5654 16.2585 60.5742 16.2498L60.603 16.2251L60.6279 16.1992C60.6592 16.1665 60.6875 16.1306 60.7114 16.0923C60.7241 16.0747 60.7324 16.0552 60.7432 16.0369C60.7544 16.0188 60.7607 16.0005 60.7666 15.9817C60.7944 15.905 60.8062 15.8235 60.8008 15.7422C60.7944 15.6482 60.7725 15.5559 60.7363 15.469C60.6553 15.2734 60.5239 15.1028 60.3564 14.9736C60.3154 14.9417 60.2725 14.9128 60.2271 14.8872C60.2163 14.8804 60.2046 14.8755 60.1938 14.8691C60.1826 14.863 60.1714 14.8574 60.1597 14.8525C60.1479 14.8477 60.1382 14.8416 60.1245 14.8369L60.0845 14.822C60.0317 14.7996 59.9746 14.7859 59.9189 14.7686C59.8901 14.7625 59.8613 14.7563 59.8325 14.7493C59.8037 14.7419 59.7734 14.7397 59.7437 14.7341C59.5034 14.6963 59.2397 14.709 58.9688 14.7512C58.8335 14.7737 58.6963 14.8027 58.5576 14.8374C58.4189 14.8723 58.2798 14.9146 58.1367 14.9561L58.1333 14.9561C58.0986 14.9661 58.0615 14.9641 58.0283 14.9502C57.9951 14.9365 57.9678 14.9119 57.9502 14.8804C57.9331 14.8489 57.9268 14.8125 57.9331 14.7771C57.939 14.7417 57.957 14.7095 57.9839 14.6855L57.9858 14.6863Z" fill="#1B1B1B" fill-opacity="1.000000" fill-rule="nonzero"/>
	<path id="Vector" d="M32.3442 29.1726C32.3213 29.2488 32.29 29.3225 32.2515 29.3921C32.0825 29.6938 31.7759 29.9153 31.4473 30.0344C31.0439 30.1814 30.6025 30.1982 30.1738 30.2139L29.0161 28.5168C29.1338 28.4048 29.2573 28.2991 29.3862 28.2004C29.8789 27.824 30.4585 27.5581 31.0679 27.6074C31.667 27.657 32.2417 28.1335 32.3594 28.6912C32.395 28.8503 32.3896 29.0159 32.3442 29.1726Z" fill="#FFFFFF" fill-opacity="1.000000" fill-rule="nonzero"/>
	<path id="Vector" d="M28.9092 28.4053C29.0928 28.1418 29.3149 27.908 29.5688 27.7117C29.8384 27.5005 30.1479 27.345 30.4785 27.2544C30.522 27.2439 30.5649 27.231 30.6094 27.2236C30.6538 27.2161 30.6987 27.2083 30.7437 27.2009C30.8345 27.1892 30.9263 27.1836 31.0181 27.1836L31.0874 27.1836C31.1104 27.1836 31.1367 27.1865 31.1611 27.188C31.1855 27.1895 31.2109 27.1919 31.2354 27.1951C31.2598 27.1982 31.2847 27.2009 31.3086 27.2056C31.4053 27.2219 31.5005 27.2458 31.5928 27.2773C31.7759 27.3396 31.9482 27.4292 32.104 27.543C32.1826 27.5994 32.2563 27.6616 32.3252 27.7295C32.3599 27.7632 32.3926 27.7996 32.4258 27.8354C32.4585 27.8713 32.4888 27.9106 32.5181 27.9504C32.6411 28.1145 32.7324 28.2998 32.7881 28.4971C32.8452 28.7051 32.854 28.9236 32.814 29.1355C32.7734 29.3474 32.6851 29.5474 32.5557 29.72C32.4956 29.8005 32.4282 29.875 32.354 29.9426C32.2832 30.0076 32.2075 30.0664 32.1274 30.1194C31.9731 30.219 31.8057 30.2966 31.6294 30.3494C31.5454 30.3743 31.46 30.3943 31.374 30.4099C31.2876 30.4236 31.2051 30.4331 31.1221 30.4385C30.9609 30.4485 30.7988 30.4463 30.6377 30.4316C30.4834 30.4187 30.3296 30.3967 30.1772 30.3662C30.1421 30.3591 30.1104 30.3406 30.0869 30.3132C30.064 30.2861 30.0503 30.252 30.0493 30.2161C30.0479 30.1804 30.0586 30.1453 30.0796 30.1165C30.1006 30.0874 30.1309 30.0664 30.1655 30.0569C30.3135 30.0159 30.4595 29.9824 30.6006 29.9465C30.6714 29.928 30.7407 29.9106 30.8081 29.8904C30.876 29.8699 30.9419 29.8506 31.0059 29.8286C31.0698 29.8064 31.1318 29.783 31.1909 29.7571C31.249 29.7329 31.3052 29.7056 31.3599 29.6748C31.4619 29.6191 31.5571 29.5515 31.6436 29.4736C31.6831 29.4368 31.7202 29.3977 31.7549 29.3562C31.7632 29.3462 31.7705 29.3354 31.7778 29.3254C31.7861 29.3157 31.7935 29.3054 31.7998 29.2947L31.8208 29.2642L31.8389 29.2332C31.8613 29.1938 31.8799 29.1521 31.894 29.1091C31.9019 29.0886 31.9053 29.0679 31.9116 29.0479C31.918 29.0276 31.9194 29.0081 31.9209 28.9883C31.9292 28.9072 31.9209 28.8254 31.896 28.7478C31.8672 28.6582 31.8237 28.5737 31.7676 28.498C31.6411 28.3281 31.4722 28.1938 31.2778 28.1089C31.2305 28.0884 31.1816 28.0708 31.1318 28.0569C31.1191 28.053 31.1074 28.0508 31.0947 28.0476C31.0825 28.0442 31.0703 28.0415 31.0581 28.0396C31.0454 28.0376 31.0347 28.0342 31.02 28.033L30.9775 28.0281C30.9199 28.0193 30.8623 28.0195 30.8047 28.0161C30.7759 28.0161 30.7471 28.0181 30.7158 28.0183C30.6846 28.0186 30.6558 28.0232 30.626 28.0251C30.3838 28.0461 30.1304 28.1221 29.877 28.2285C29.751 28.2827 29.625 28.3438 29.4985 28.4114C29.3721 28.4788 29.2476 28.5527 29.1191 28.6277L29.1157 28.6296C29.0845 28.6475 29.0483 28.6543 29.0127 28.6492C28.9771 28.6438 28.9443 28.6265 28.9199 28.6001C28.8955 28.5737 28.8809 28.54 28.8784 28.5042C28.8755 28.4685 28.8853 28.4329 28.9058 28.4033L28.9092 28.4053Z" fill="#1B1B1B" fill-opacity="1.000000" fill-rule="nonzero"/>
	<path id="Vector" d="M45.0742 29.7795C45.1362 29.7537 45.2007 29.7344 45.2666 29.7222C45.5527 29.6682 45.8613 29.7468 46.1152 29.8945C46.4287 30.0762 46.6768 30.3508 46.918 30.6191L46.4468 32.2793C46.311 32.2634 46.1768 32.2405 46.0435 32.2104C45.5352 32.0955 45.0503 31.8652 44.7539 31.4456C44.4629 31.0322 44.4614 30.4043 44.7578 30.0281C44.8408 29.9202 44.9497 29.8347 45.0742 29.7795Z" fill="#FFFFFF" fill-opacity="1.000000" fill-rule="nonzero"/>
	<path id="Vector" d="M46.4297 32.4092C46.1606 32.4329 45.8896 32.4155 45.626 32.3577C45.3438 32.2976 45.0767 32.1819 44.8398 32.0173C44.811 31.9946 44.7783 31.9739 44.7495 31.9492L44.6631 31.875C44.6064 31.8228 44.5532 31.7666 44.5039 31.707L44.4668 31.6624C44.4541 31.6477 44.4419 31.6294 44.4297 31.6128C44.4175 31.5959 44.4053 31.5789 44.3945 31.5613C44.3833 31.5437 44.3716 31.5261 44.3613 31.5083C44.3198 31.437 44.2847 31.3628 44.2549 31.2859C44.1963 31.1345 44.1611 30.9753 44.1504 30.8132C44.1445 30.7324 44.145 30.6511 44.1523 30.5703C44.1548 30.5295 44.1606 30.4888 44.1665 30.448C44.1719 30.4072 44.1807 30.3669 44.1909 30.3264C44.231 30.1584 44.3018 29.9993 44.3994 29.8569C44.5308 29.667 44.7144 29.5195 44.9282 29.4329C45.0518 29.3838 45.1826 29.3547 45.3154 29.3467C45.3994 29.3423 45.4839 29.3452 45.5674 29.3555C45.647 29.3665 45.7261 29.3838 45.8032 29.407C45.8779 29.4292 45.9512 29.4575 46.0215 29.4912C46.0908 29.5237 46.1577 29.561 46.2217 29.603C46.2832 29.6438 46.3418 29.688 46.3984 29.7356C46.4531 29.7827 46.5044 29.8315 46.5532 29.8816C46.647 29.9805 46.7324 30.0862 46.8101 30.198C46.8848 30.3049 46.9531 30.4158 47.0156 30.5303C47.0303 30.5566 47.0352 30.5872 47.0298 30.6167C47.0249 30.6465 47.0098 30.6733 46.9878 30.6936C46.9653 30.7136 46.937 30.7258 46.9067 30.7278C46.877 30.7297 46.8472 30.7217 46.8223 30.7048C46.7158 30.6316 46.6157 30.5549 46.5161 30.4834C46.4663 30.448 46.4175 30.4124 46.3682 30.3799C46.3188 30.3474 46.2705 30.3152 46.2217 30.2859C46.1729 30.2563 46.1245 30.2283 46.0757 30.2046C46.0288 30.1804 45.981 30.1587 45.9316 30.1399C45.8403 30.1042 45.7451 30.0796 45.6479 30.0659C45.561 30.054 45.4731 30.0552 45.3867 30.0701C45.3496 30.0769 45.3125 30.0874 45.2773 30.1013C45.2598 30.1072 45.2441 30.1165 45.228 30.123C45.2114 30.1296 45.1992 30.1394 45.1846 30.1492C45.1274 30.1873 45.0781 30.2368 45.041 30.2947C44.9985 30.3625 44.9678 30.4365 44.9487 30.5142C44.9072 30.6873 44.9111 30.8682 44.9604 31.0391C44.9722 31.0811 44.9878 31.1218 45.0059 31.1614C45.0098 31.1714 45.0151 31.1804 45.0195 31.1902C45.0239 31.2 45.0288 31.2097 45.0342 31.219C45.0396 31.2285 45.043 31.2371 45.0503 31.2476L45.0703 31.2764C45.0952 31.3176 45.1279 31.3547 45.1567 31.3948L45.2056 31.4521C45.2217 31.4717 45.2417 31.488 45.2593 31.5063C45.4028 31.6501 45.5889 31.7734 45.7935 31.8801C45.8965 31.9319 46.0039 31.9805 46.1157 32.0259C46.2275 32.0701 46.3423 32.1121 46.4609 32.1541L46.4644 32.1541C46.4937 32.1641 46.5181 32.1836 46.5347 32.2097C46.5508 32.2358 46.5576 32.2666 46.5537 32.2971C46.5498 32.3276 46.5352 32.3557 46.5127 32.377C46.4907 32.3979 46.4614 32.4106 46.4312 32.4128L46.4297 32.4092Z" fill="#1B1B1B" fill-opacity="1.000000" fill-rule="nonzero"/>
	<g opacity="0.600000">
		<g opacity="0.600000">
			<path id="Vector" d="M49.772 14.927C49.8481 14.6155 49.9717 14.3176 50.1382 14.0432C50.314 13.7493 50.5469 13.4934 50.8232 13.2903C50.8604 13.2651 50.8955 13.2375 50.9346 13.2148C50.9736 13.1921 51.0122 13.1687 51.0513 13.1455C51.1323 13.1021 51.2158 13.0635 51.3018 13.0305L51.3662 13.0059C51.3872 12.9973 51.4131 12.9905 51.4365 12.9832C51.4595 12.9756 51.4844 12.969 51.5083 12.9634C51.5327 12.958 51.5566 12.9512 51.5806 12.9468C51.6768 12.9275 51.7739 12.9158 51.8716 12.9121C52.0645 12.9048 52.2578 12.9265 52.4443 12.9768C52.5376 13.0012 52.6289 13.033 52.7173 13.0715C52.7622 13.0903 52.8057 13.1125 52.8496 13.1343C52.8931 13.1562 52.936 13.1821 52.9771 13.2092C53.1509 13.3184 53.3032 13.4587 53.4258 13.6233C53.5557 13.7991 53.6431 14.0024 53.6816 14.2175C53.6909 14.2715 53.6973 14.3259 53.7002 14.3804C53.7031 14.4338 53.7031 14.4873 53.7002 14.5408C53.6943 14.6448 53.6772 14.748 53.6489 14.8484C53.6221 14.9448 53.5864 15.0383 53.542 15.1279C53.415 15.3779 53.2339 15.5967 53.0122 15.7686C52.9429 15.822 52.8701 15.8713 52.7949 15.9165C52.7207 15.96 52.646 15.9988 52.5708 16.0347C52.4238 16.1018 52.272 16.1577 52.1162 16.2019C51.9673 16.2449 51.8159 16.2793 51.6631 16.3054C51.6279 16.3115 51.5918 16.3054 51.5601 16.2883C51.5288 16.2715 51.5039 16.2444 51.4897 16.2114C51.4756 16.1787 51.4731 16.1421 51.4824 16.1074C51.4917 16.073 51.5122 16.0425 51.541 16.0212C51.6641 15.9297 51.7886 15.8459 51.9072 15.7622C51.9668 15.7197 52.0254 15.679 52.0801 15.6357C52.1348 15.5925 52.1904 15.5493 52.2427 15.5068C52.2944 15.4644 52.3438 15.4207 52.3896 15.374C52.4351 15.3308 52.478 15.2849 52.5176 15.2368C52.5933 15.1477 52.6577 15.05 52.71 14.946C52.7334 14.8975 52.7539 14.8474 52.771 14.7964C52.7754 14.7839 52.7783 14.7717 52.7822 14.7593C52.7861 14.7473 52.7896 14.7351 52.7915 14.7227L52.7998 14.6868L52.8057 14.6514C52.8125 14.6067 52.8149 14.5613 52.8125 14.5159C52.8125 14.4941 52.8081 14.4734 52.8071 14.4524C52.8057 14.4314 52.8003 14.4124 52.7944 14.3948C52.7729 14.3162 52.7358 14.2424 52.6846 14.1787C52.6255 14.1057 52.5547 14.0427 52.4751 13.9919C52.2964 13.8787 52.0908 13.814 51.8794 13.804C51.8276 13.8015 51.7759 13.8027 51.7241 13.8076C51.7114 13.8076 51.6992 13.8108 51.6865 13.812C51.6738 13.8132 51.6611 13.8152 51.6489 13.8179C51.6372 13.8203 51.625 13.8213 51.6113 13.8252L51.5698 13.8362C51.5137 13.8503 51.4585 13.8674 51.4038 13.8872C51.3765 13.8984 51.3496 13.9102 51.3218 13.9209C51.2939 13.9314 51.2676 13.947 51.2397 13.9597C51.0215 14.0657 50.8125 14.2278 50.6152 14.4172C50.5171 14.5132 50.4214 14.6152 50.3271 14.7236C50.2344 14.832 50.1436 14.9456 50.0508 15.0615L50.0483 15.0645C50.0259 15.0923 49.9941 15.1118 49.959 15.1196C49.9243 15.1274 49.8872 15.1228 49.855 15.1072C49.8228 15.0913 49.7969 15.0649 49.7817 15.0325C49.7666 15 49.7627 14.9634 49.771 14.9285L49.772 14.927Z" fill="#1B1B1B" fill-opacity="1.000000" fill-rule="nonzero"/>
		</g>
		<g opacity="0.600000">
			<path id="Vector" d="M24.8149 32.9746C24.7627 33.0842 24.7119 33.1926 24.6665 33.3008C24.6216 33.4089 24.5801 33.5173 24.5474 33.6245C24.5312 33.6782 24.5161 33.7314 24.5044 33.7849C24.4927 33.8384 24.4805 33.8904 24.4722 33.9429C24.4561 34.0437 24.4487 34.146 24.4502 34.2483C24.4502 34.4304 24.4922 34.6101 24.5732 34.7732C24.6104 34.8384 24.6523 34.9004 24.6992 34.9587C24.7422 35.0164 24.7837 35.0737 24.8311 35.1252C24.877 35.175 24.9297 35.2178 24.9878 35.252C25.0024 35.2585 25.0166 35.2686 25.0312 35.2739C25.0454 35.2795 25.0601 35.2852 25.0757 35.2922C25.0918 35.2991 25.1064 35.2993 25.1221 35.304C25.1294 35.3064 25.1377 35.3079 25.146 35.3083L25.1699 35.3115C25.1782 35.313 25.1865 35.3142 25.1948 35.3147L25.2197 35.3147C25.2373 35.3162 25.2549 35.3157 25.272 35.3132C25.2896 35.3105 25.3081 35.3103 25.3267 35.3069C25.3452 35.3035 25.3638 35.2971 25.3843 35.2927C25.4033 35.2881 25.4219 35.2825 25.4399 35.2754C25.4575 35.2671 25.4766 35.261 25.4941 35.2512C25.5308 35.2332 25.5664 35.2124 25.6001 35.189C25.6724 35.1362 25.7358 35.0725 25.7886 35.0005C25.8472 34.9226 25.895 34.8372 25.9302 34.7466C26.0103 34.5466 26.0508 34.333 26.0498 34.1177L26.0498 34.1133C26.0498 34.0759 26.063 34.0396 26.0879 34.011C26.1123 33.9827 26.146 33.9639 26.1831 33.9585C26.2202 33.9529 26.2583 33.9609 26.29 33.981C26.3218 34.0012 26.3452 34.032 26.356 34.0679C26.3745 34.1304 26.3906 34.1941 26.4038 34.2595C26.416 34.3254 26.4248 34.3921 26.4302 34.4587C26.4355 34.5259 26.437 34.593 26.4346 34.6602C26.4346 34.6938 26.4321 34.7278 26.4292 34.7612C26.4268 34.7944 26.4243 34.8274 26.4189 34.863C26.4004 35.0056 26.3623 35.1453 26.3071 35.2781C26.248 35.418 26.1675 35.5481 26.0693 35.6638C25.9644 35.7861 25.8384 35.8884 25.6973 35.9661C25.6616 35.9851 25.625 36.0039 25.5879 36.022C25.5513 36.04 25.5098 36.0525 25.4707 36.0671C25.4307 36.082 25.3892 36.0938 25.3472 36.1021L25.2842 36.1165C25.2627 36.1206 25.2407 36.1235 25.2192 36.1252L25.1533 36.1318C25.1318 36.1343 25.1099 36.1355 25.0874 36.1353C25.0435 36.1353 24.999 36.1353 24.9551 36.1321C24.9106 36.1289 24.8687 36.1208 24.8237 36.1143C24.7788 36.1077 24.7373 36.0947 24.6953 36.084C24.5283 36.0359 24.3716 35.9592 24.231 35.8574C24.0923 35.7598 23.9746 35.6353 23.8853 35.4912C23.8745 35.4734 23.8628 35.4558 23.853 35.437C23.8433 35.4185 23.8345 35.3994 23.8242 35.3796C23.8145 35.3599 23.8066 35.3416 23.7979 35.322C23.7886 35.3025 23.7832 35.2827 23.7754 35.2632C23.7466 35.186 23.7251 35.1067 23.7104 35.0259C23.6812 34.8728 23.6724 34.7163 23.6846 34.561C23.6958 34.4146 23.7236 34.2698 23.7671 34.1294C23.8086 33.9954 23.8633 33.8657 23.9312 33.7427C23.9639 33.6829 23.9985 33.6248 24.0352 33.5701C24.0718 33.5154 24.1123 33.4612 24.1523 33.4092C24.3105 33.21 24.4927 33.0308 24.6948 32.8757C24.7085 32.8647 24.7261 32.8586 24.7441 32.8589C24.7617 32.8591 24.7793 32.8652 24.793 32.8762C24.8071 32.8875 24.8169 32.9031 24.8208 32.9204C24.8247 32.938 24.8228 32.9561 24.8154 32.9724L24.8149 32.9746Z" fill="#1B1B1B" fill-opacity="1.000000" fill-rule="nonzero"/>
		</g>
		<g opacity="0.600000">
			<path id="Vector" d="M51.7275 27.5833C51.8125 27.6877 51.8965 27.7898 51.9839 27.887C52.0708 27.9844 52.1606 28.0762 52.252 28.1611C52.2988 28.2031 52.3452 28.2441 52.3936 28.2817C52.4414 28.3193 52.4893 28.3567 52.5376 28.3904C52.5859 28.4241 52.6357 28.4551 52.686 28.4834C52.7114 28.4978 52.7368 28.5105 52.7617 28.5242C52.7866 28.5381 52.8125 28.5496 52.8384 28.5608C53.0264 28.6504 53.2324 28.6958 53.4409 28.6934C53.4526 28.6934 53.4644 28.6934 53.4761 28.6917L53.5103 28.6885C53.522 28.6885 53.5332 28.686 53.5435 28.6843C53.5537 28.6826 53.5649 28.6821 53.5752 28.6799C53.6182 28.6724 53.6602 28.6646 53.7017 28.655C53.7842 28.6384 53.8652 28.6172 53.9453 28.5913C54.022 28.5647 54.0938 28.5256 54.1577 28.4761C54.2192 28.429 54.2705 28.3696 54.3081 28.3018C54.3281 28.2666 54.3447 28.229 54.3569 28.1902C54.3711 28.1484 54.3804 28.1052 54.3857 28.0613C54.3965 27.9685 54.3921 27.8743 54.3716 27.783C54.3486 27.6831 54.3101 27.5876 54.2583 27.4993C54.2031 27.4036 54.1353 27.3157 54.0566 27.238C53.8862 27.0669 53.6841 26.9299 53.4614 26.8354L53.458 26.8354C53.4233 26.8206 53.395 26.7937 53.3789 26.7595C53.3623 26.7253 53.3589 26.6865 53.3691 26.6499C53.3794 26.6135 53.4023 26.582 53.4341 26.5613C53.4658 26.5408 53.5044 26.5322 53.5415 26.5378C53.6865 26.5576 53.8291 26.5933 53.9663 26.6445C54.0356 26.6704 54.1035 26.7002 54.1699 26.7334C54.2031 26.7498 54.2358 26.7671 54.2681 26.7852C54.2998 26.8032 54.3315 26.8208 54.3647 26.8425C54.4976 26.9265 54.6191 27.0278 54.7256 27.1436C54.8364 27.2649 54.9282 27.4023 54.9976 27.551C55.0708 27.7092 55.1152 27.8789 55.1289 28.0525C55.1367 28.1416 55.1357 28.2312 55.127 28.3203C55.1182 28.4128 55.0991 28.5042 55.0713 28.5928C55.0425 28.6831 55.0054 28.7703 54.959 28.8533C54.9126 28.936 54.8579 29.0139 54.7964 29.0862C54.6758 29.2285 54.5303 29.3479 54.3672 29.439C54.2095 29.5305 54.0347 29.5903 53.854 29.615C53.6753 29.637 53.4941 29.626 53.3193 29.5828C53.1548 29.5447 52.9956 29.4851 52.8462 29.4053C52.7051 29.3301 52.5723 29.239 52.4512 29.1343C52.335 29.0342 52.2285 28.9224 52.1348 28.801C52.0884 28.7417 52.0449 28.6816 52.0049 28.6204C51.9648 28.5591 51.9287 28.4954 51.8936 28.4324C51.7607 28.1853 51.6582 27.9231 51.5879 27.6516C51.5835 27.634 51.585 27.6155 51.5923 27.5989C51.5996 27.5825 51.6128 27.5691 51.6289 27.5608C51.645 27.5527 51.6631 27.5503 51.6812 27.554C51.6987 27.5576 51.7144 27.5674 51.7261 27.5813L51.7275 27.5833Z" fill="#1B1B1B" fill-opacity="1.000000" fill-rule="nonzero"/>
		</g>
		<g opacity="0.600000">
			<path id="Vector" d="M22.3062 21.5625C22.3042 21.739 22.3262 21.915 22.3721 22.0854C22.3833 22.1257 22.3965 22.1646 22.4111 22.2021C22.4248 22.2395 22.4404 22.2759 22.458 22.3113C22.4912 22.3784 22.5312 22.4417 22.5776 22.5002L22.6113 22.5398C22.6226 22.553 22.6362 22.5645 22.6479 22.5764C22.6709 22.6016 22.7002 22.6211 22.7241 22.6433C22.7373 22.6533 22.7529 22.6621 22.7646 22.6719L22.7847 22.686C22.7915 22.6904 22.7988 22.6941 22.8057 22.6982C22.8198 22.7061 22.8345 22.7139 22.8472 22.7219L22.8892 22.741C22.896 22.7441 22.9028 22.748 22.9097 22.7505L22.9312 22.7571C22.9453 22.7615 22.958 22.7681 22.9717 22.7717C22.9854 22.7749 22.999 22.7786 23.0117 22.7832C23.0244 22.7886 23.0376 22.7896 23.0498 22.7937C23.0742 22.8025 23.0981 22.8071 23.1216 22.8162C23.1333 22.821 23.145 22.822 23.1567 22.8259C23.168 22.8306 23.1797 22.8337 23.1919 22.8359C23.2041 22.8379 23.2158 22.8406 23.228 22.8438C23.2407 22.8469 23.2524 22.8455 23.2651 22.8472L23.2842 22.8494C23.2905 22.8499 23.2974 22.8499 23.3037 22.8494C23.3164 22.8494 23.3296 22.8494 23.3433 22.8494C23.3564 22.8494 23.3696 22.8445 23.3838 22.8428C23.3979 22.8418 23.4116 22.8389 23.4253 22.8347C23.4546 22.8269 23.4834 22.8171 23.5117 22.8062C23.6333 22.7549 23.7383 22.6719 23.8164 22.5659C23.8618 22.5071 23.9004 22.4436 23.9316 22.3762C23.9399 22.3591 23.9478 22.3418 23.9551 22.3237C23.9629 22.3059 23.9697 22.2878 23.9756 22.2693C23.9824 22.2515 23.9888 22.2319 23.9946 22.2117C24.0005 22.1917 24.0063 22.1719 24.0112 22.1519C24.0547 21.989 24.0732 21.8203 24.0654 21.6516L24.0654 21.6492C24.064 21.6169 24.0742 21.5854 24.0942 21.5603C24.1138 21.5349 24.1416 21.5173 24.1733 21.5107C24.2046 21.5039 24.2373 21.5085 24.2656 21.5237C24.2939 21.5388 24.3159 21.5635 24.3281 21.5933C24.4028 21.7861 24.4429 21.9907 24.4453 22.1973C24.4453 22.2236 24.4453 22.2495 24.4453 22.2754C24.4453 22.3013 24.4453 22.3271 24.4419 22.3545C24.438 22.3818 24.438 22.4092 24.4341 22.436C24.4307 22.4631 24.4272 22.4905 24.4229 22.5178C24.4033 22.6289 24.3716 22.7375 24.3281 22.8418C24.2354 23.0669 24.0835 23.2627 23.8877 23.408C23.8364 23.4448 23.7827 23.4785 23.7271 23.509C23.6992 23.5249 23.6704 23.5388 23.6406 23.551C23.6118 23.5637 23.5811 23.5779 23.5498 23.5884C23.5186 23.5991 23.4863 23.6084 23.4536 23.6172C23.4375 23.6216 23.4219 23.6272 23.4048 23.6301L23.355 23.6392C23.3213 23.6445 23.2876 23.6511 23.2534 23.6541C23.2197 23.657 23.1851 23.6572 23.1509 23.6584C23.1162 23.6597 23.082 23.6582 23.0479 23.6543L22.9966 23.6492C22.9795 23.6479 22.9629 23.6455 22.9463 23.6414C22.9131 23.6338 22.8799 23.627 22.8472 23.6177L22.8223 23.6108L22.7993 23.6021C22.7832 23.5962 22.7676 23.5896 22.7524 23.5835C22.6914 23.5579 22.6328 23.5266 22.5781 23.4897C22.5513 23.4714 22.5259 23.4514 22.5005 23.4321L22.4629 23.4036C22.4512 23.3931 22.4399 23.3818 22.4282 23.3711L22.3608 23.3054C22.3398 23.282 22.3193 23.2588 22.2998 23.2351C22.2896 23.2234 22.2793 23.2119 22.271 23.1997L22.2437 23.1624C22.2261 23.1375 22.2085 23.113 22.1919 23.0874C22.1597 23.0364 22.1309 22.9834 22.1055 22.929C22.0933 22.9001 22.0801 22.875 22.0698 22.8472L22.041 22.7632C22.0059 22.655 21.9844 22.543 21.9766 22.4294C21.9727 22.3743 21.9712 22.3198 21.9727 22.2659C21.9741 22.2117 21.9805 22.1584 21.9873 22.1062C22.0146 21.9038 22.0806 21.7087 22.1816 21.531C22.189 21.5176 22.2007 21.5073 22.2148 21.5015C22.229 21.4956 22.2446 21.4944 22.2593 21.4983C22.2744 21.5022 22.2871 21.511 22.2964 21.5229C22.3062 21.5352 22.311 21.5498 22.311 21.5652L22.3062 21.5625Z" fill="#1B1B1B" fill-opacity="1.000000" fill-rule="nonzero"/>
		</g>
		<g opacity="0.600000">
			<path id="Vector" d="M25.5576 17.2671C25.6099 17.4355 25.6851 17.5964 25.7803 17.7449C25.8037 17.7793 25.8281 17.8127 25.8535 17.844C25.8794 17.8755 25.9048 17.9055 25.9316 17.9336C25.9839 17.9875 26.042 18.0356 26.1045 18.0774L26.1484 18.1062C26.1631 18.115 26.1797 18.1216 26.1943 18.1296C26.2231 18.1467 26.2578 18.1562 26.2876 18.1699C26.3032 18.1755 26.3198 18.1794 26.335 18.1846L26.3584 18.1919C26.3662 18.1938 26.374 18.1953 26.3823 18.1968C26.3979 18.2 26.4136 18.2036 26.4287 18.207L26.4746 18.2122C26.4824 18.2122 26.4897 18.2146 26.4971 18.2148L26.5195 18.2148C26.5347 18.2148 26.5483 18.2168 26.563 18.2148C26.5767 18.2141 26.5903 18.2141 26.6045 18.2148C26.6182 18.2148 26.6309 18.2131 26.644 18.2131C26.6704 18.2131 26.6943 18.2112 26.7192 18.2131C26.7314 18.2131 26.7432 18.2131 26.7554 18.2131C26.7676 18.2144 26.7798 18.2144 26.792 18.2131C26.8042 18.2114 26.8164 18.2102 26.8291 18.2095C26.8413 18.2085 26.8525 18.2036 26.8652 18.2014L26.8843 18.1975C26.8901 18.196 26.8965 18.1938 26.9023 18.1912C26.9146 18.1868 26.9268 18.1824 26.9395 18.1782C26.9521 18.1738 26.9639 18.1658 26.9761 18.1599C26.9893 18.1541 27.002 18.1472 27.0137 18.1392C27.0366 18.1213 27.0645 18.1067 27.0859 18.0862C27.186 18.0005 27.2607 17.8892 27.3022 17.7644C27.3267 17.6948 27.3438 17.6226 27.3525 17.5493C27.355 17.5303 27.3574 17.5112 27.3589 17.4917C27.3599 17.4722 27.3613 17.4531 27.3618 17.4341C27.3623 17.4153 27.3618 17.3945 27.3618 17.3735C27.3618 17.3525 27.3618 17.332 27.3594 17.3113C27.3511 17.1428 27.3164 16.9768 27.2573 16.8188L27.2573 16.8164C27.2461 16.7861 27.2461 16.7529 27.2573 16.7229C27.2681 16.6926 27.2896 16.6672 27.3174 16.6514C27.3452 16.6353 27.3779 16.6296 27.4097 16.6355C27.4414 16.6414 27.4697 16.658 27.4902 16.6829C27.6206 16.8433 27.7212 17.0259 27.7871 17.2217C27.7954 17.2461 27.8032 17.2708 27.8105 17.2954C27.8184 17.3203 27.8252 17.3452 27.8315 17.3721C27.8379 17.3987 27.8447 17.4253 27.8496 17.4519C27.8545 17.4788 27.8599 17.5061 27.8633 17.5334C27.8789 17.645 27.8823 17.7581 27.873 17.8706C27.8535 18.1133 27.7686 18.3462 27.6274 18.5444C27.5898 18.595 27.5488 18.6428 27.5054 18.6882C27.4834 18.7122 27.46 18.7344 27.4351 18.7551C27.4102 18.7764 27.3867 18.7991 27.3599 18.8186C27.333 18.8381 27.3052 18.8569 27.2773 18.8762C27.2632 18.8853 27.2485 18.8955 27.2344 18.9048L27.1895 18.9287C27.1592 18.9441 27.1294 18.9609 27.0977 18.9739C27.0659 18.9868 27.0337 18.998 27.0015 19.0095C26.9692 19.0217 26.936 19.0312 26.9023 19.0383L26.8521 19.0491C26.8354 19.053 26.8184 19.0559 26.8018 19.0574C26.7681 19.0603 26.7339 19.0637 26.6997 19.0649L26.6743 19.0649L26.6494 19.0649L26.5991 19.0613C26.5332 19.0557 26.4683 19.0435 26.4043 19.0254C26.3735 19.0161 26.3433 19.0049 26.313 18.9939L26.2681 18.9766C26.2534 18.9705 26.2393 18.9629 26.2251 18.9563L26.1406 18.9148C26.1138 18.8989 26.0869 18.8828 26.0605 18.8665C26.0479 18.8584 26.0347 18.8503 26.022 18.8416L25.9849 18.8127C25.9604 18.7944 25.9355 18.7766 25.9126 18.7576C25.8667 18.7188 25.8232 18.677 25.7822 18.6328C25.7622 18.6104 25.7417 18.5894 25.7246 18.5657L25.6704 18.4951C25.604 18.4028 25.5488 18.303 25.5068 18.1973C25.4863 18.146 25.4683 18.0942 25.4531 18.0425C25.439 17.9902 25.4272 17.9382 25.4175 17.886C25.3823 17.6848 25.3853 17.479 25.4263 17.2788C25.4297 17.2639 25.4375 17.2505 25.4492 17.2405C25.4609 17.2305 25.4751 17.2246 25.4907 17.2239C25.5059 17.2231 25.521 17.2273 25.5337 17.2358C25.5459 17.2446 25.5557 17.2571 25.5601 17.2717L25.5576 17.2671Z" fill="#1B1B1B" fill-opacity="1.000000" fill-rule="nonzero"/>
		</g>
		<g opacity="0.600000">
			<path id="Vector" d="M54.791 22.7498C54.9434 22.8386 55.1074 22.9065 55.2783 22.9512C55.3188 22.9609 55.3589 22.969 55.3989 22.9751C55.438 22.9817 55.4775 22.9861 55.5166 22.9885C55.5913 22.9932 55.6665 22.9897 55.7407 22.9788L55.7915 22.969C55.8086 22.9661 55.8252 22.96 55.8418 22.9556C55.8745 22.9482 55.9062 22.9326 55.9375 22.9229C55.9526 22.916 55.9663 22.9084 55.9824 22.9014L56.0044 22.8914C56.0117 22.8877 56.0186 22.8831 56.0254 22.8792C56.0391 22.8704 56.0527 22.863 56.0664 22.8552L56.104 22.8281C56.1104 22.8235 56.1167 22.8196 56.1226 22.8149L56.1392 22.7996C56.1494 22.7893 56.1616 22.7815 56.1719 22.7708C56.1807 22.7607 56.1904 22.751 56.2007 22.7422C56.2114 22.7334 56.2192 22.7229 56.2295 22.7134C56.2495 22.6963 56.2651 22.678 56.2847 22.6624C56.2944 22.6548 56.3013 22.6453 56.3105 22.6367C56.3203 22.6289 56.3291 22.6204 56.3369 22.6108C56.3442 22.6018 56.3525 22.5928 56.3613 22.5835C56.3701 22.5745 56.375 22.5632 56.3828 22.5532L56.394 22.5378C56.3979 22.5325 56.4009 22.5269 56.4033 22.521C56.4092 22.5095 56.4155 22.4978 56.4219 22.4861C56.4287 22.4744 56.4312 22.4604 56.4365 22.4478C56.4424 22.4348 56.4473 22.4211 56.4507 22.4072C56.458 22.3789 56.4639 22.3501 56.4683 22.321C56.4839 22.1904 56.4639 22.0579 56.4106 21.9375C56.3818 21.8694 56.3452 21.8047 56.3022 21.7446C56.2915 21.729 56.2803 21.7134 56.2681 21.6985C56.2563 21.6836 56.2446 21.668 56.2314 21.6533C56.2183 21.6387 56.2051 21.6245 56.1904 21.6082C56.1758 21.5918 56.1616 21.5793 56.147 21.5642C56.0269 21.4456 55.8896 21.3459 55.7393 21.269L55.7368 21.2676C55.7085 21.2527 55.686 21.2283 55.6743 21.1987C55.6621 21.1689 55.6606 21.1362 55.6704 21.1057C55.6802 21.0752 55.7007 21.0491 55.7275 21.0322C55.7549 21.0151 55.7871 21.0081 55.8188 21.0125C56.0234 21.0432 56.2207 21.1101 56.4014 21.2104C56.4243 21.2227 56.4468 21.2361 56.4692 21.249C56.4917 21.262 56.5132 21.2759 56.5361 21.2915C56.5586 21.3071 56.5815 21.322 56.6035 21.3384C56.6255 21.3547 56.647 21.3716 56.6685 21.3894C56.7554 21.4612 56.834 21.5425 56.9033 21.6318C57.0527 21.8242 57.147 22.0535 57.1763 22.2952C57.1826 22.3579 57.1855 22.4211 57.1841 22.4844C57.1841 22.5166 57.1816 22.5491 57.1772 22.5811C57.1733 22.6135 57.1714 22.6462 57.1646 22.6787C57.1582 22.7114 57.1504 22.7439 57.1421 22.7764C57.1377 22.7927 57.1348 22.8093 57.1294 22.8252L57.1118 22.8733C57.1001 22.905 57.0894 22.9375 57.0747 22.9685C57.0605 22.9995 57.0435 23.0295 57.0273 23.0596C57.0112 23.0898 56.9932 23.1187 56.9731 23.146L56.9443 23.1877C56.9346 23.2019 56.9238 23.2153 56.9126 23.228C56.8892 23.2527 56.8667 23.2781 56.8423 23.3018L56.8242 23.3196L56.8052 23.3357C56.792 23.3464 56.7788 23.3567 56.7656 23.3669C56.7134 23.4072 56.6572 23.4424 56.5977 23.4717C56.5688 23.4858 56.5386 23.4978 56.5088 23.5098L56.4639 23.5273C56.4487 23.533 56.4351 23.5369 56.4185 23.5415L56.3281 23.5676C56.2974 23.574 56.2671 23.5803 56.2368 23.5857C56.2212 23.5884 56.2061 23.5916 56.1909 23.5935L56.1455 23.5984C56.1147 23.6013 56.0845 23.6047 56.0542 23.6062C55.9941 23.6084 55.9341 23.6069 55.874 23.6016C55.8452 23.5984 55.8149 23.5972 55.7852 23.592L55.6987 23.5762C55.5874 23.5532 55.479 23.5161 55.377 23.4663C55.3271 23.4426 55.2788 23.4163 55.2329 23.3884C55.187 23.3606 55.1436 23.3286 55.1011 23.2966C54.9395 23.1721 54.8027 23.0181 54.6982 22.8425C54.689 22.8267 54.686 22.8079 54.6904 22.79C54.6953 22.7722 54.7065 22.7571 54.7222 22.7476C54.7329 22.7415 54.7451 22.738 54.7573 22.738C54.7695 22.738 54.7817 22.7415 54.792 22.7476L54.791 22.7498Z" fill="#1B1B1B" fill-opacity="1.000000" fill-rule="nonzero"/>
		</g>
		<g opacity="0.300000">
			<g opacity="0.300000">
				<path id="Vector" d="M25.9375 35.3081C24.8252 38.7751 21.5342 35.8918 24.083 33.7681C24.083 33.7681 23.5234 36.3755 25.9375 35.3081Z" fill="#1B1B1B" fill-opacity="1.000000" fill-rule="nonzero"/>
			</g>
		</g>
		<g opacity="0.300000">
			<g opacity="0.300000">
				<path id="Vector" d="M24.2354 22.397C24.2354 25.676 20.7979 24.7673 22.1753 22.0005C22.5986 23.1033 23.3804 23.4775 24.2354 22.397Z" fill="#1B1B1B" fill-opacity="1.000000" fill-rule="nonzero"/>
			</g>
		</g>
		<g opacity="0.300000">
			<g opacity="0.300000">
				<path id="Vector" d="M27.6079 17.2407C28.8174 20.6655 24.71 21.0137 25.4907 17.6907C25.8281 19.2778 27.9458 18.8279 27.6079 17.2407Z" fill="#1B1B1B" fill-opacity="1.000000" fill-rule="nonzero"/>
			</g>
		</g>
		<g opacity="0.350000">
			<g opacity="0.350000">
				<path id="Vector" d="M54.9229 28.1489C55.3687 31.8484 51.0107 31.5581 51.9663 28.1489C53.0015 29.4805 53.9961 29.7173 54.9229 28.1489Z" fill="#1B1B1B" fill-opacity="1.000000" fill-rule="nonzero"/>
			</g>
		</g>
		<g opacity="0.300000">
			<g opacity="0.300000">
				<path id="Vector" d="M51.8823 16.1636C52.6377 18.9045 55.2715 16.5442 53.606 14.377C53.606 14.3772 53.1802 16.0923 51.8823 16.1636Z" fill="#1B1B1B" fill-opacity="1.000000" fill-rule="nonzero"/>
			</g>
		</g>
		<g opacity="0.300000">
			<g opacity="0.300000">
				<path id="Vector" d="M56.8237 22.0718C57.9438 25.124 54.8657 25.6765 54.9551 23.0645C55.9385 23.4314 56.7251 23.4167 56.8237 22.0718Z" fill="#1B1B1B" fill-opacity="1.000000" fill-rule="nonzero"/>
			</g>
		</g>
	</g>
	<g opacity="0.300000">
		<g opacity="0.300000">
			<path id="Vector" d="M32.3584 28.7019C32.3521 28.7529 32.3115 29.0378 32.2515 29.3938C32.0825 29.6956 31.7759 29.917 31.4473 30.0361C31.0439 30.1831 30.6025 30.2002 30.1738 30.2156L29.0161 28.5186C29.1338 28.4065 29.2573 28.301 29.3862 28.2021C29.1387 29.6909 32.1025 30.1848 32.3584 28.7019Z" fill="#1B1B1B" fill-opacity="1.000000" fill-rule="nonzero"/>
		</g>
	</g>
	<g opacity="0.350000">
		<g opacity="0.350000">
			<path id="Vector" d="M57.6006 33.4817C56.4375 33.3748 55.7368 33.9128 55.499 35.0959C55.3501 34.7104 55.3193 34.2905 55.2881 33.8765L56.9429 32.6567C57.1987 32.9004 57.4199 33.178 57.6006 33.4817Z" fill="#1B1B1B" fill-opacity="1.000000" fill-rule="nonzero"/>
		</g>
	</g>
	<g opacity="0.200000">
		<g opacity="0.200000">
			<path id="Vector" d="M58.4961 60.8359C58.4961 62.5835 49.479 64 38.356 64C27.2334 64 18.2163 62.5835 18.2163 60.8359C18.2163 59.0884 27.2334 57.6719 38.356 57.6719C49.479 57.6719 58.4961 59.0884 58.4961 60.8359Z" fill="#650000" fill-opacity="1.000000" fill-rule="evenodd"/>
		</g>
	</g>
</svg>
