<svg width="256.941162" height="311.745056" viewBox="0 0 256.941 311.745" fill="none" xmlns="http://www.w3.org/2000/svg" xmlns:xlink="http://www.w3.org/1999/xlink">
	<desc>
			Created with Pixso.
	</desc>
	<defs/>
	<path id="404" d="M149.366 252.394L149.366 250.394L147.366 250.394L2 250.394L2 193.242L127.371 2L215.35 2L215.35 193.242L217.35 193.242L252.941 193.242L254.941 193.242L254.941 195.242L254.941 248.394L254.941 250.394L252.941 250.394L217.35 250.394L215.35 250.394L215.35 309.745L149.366 309.745L149.366 252.394ZM217.35 252.394L217.35 311.745L147.366 311.745L147.366 252.394L0 252.394L0 192.644L126.291 0L217.35 0L217.35 191.242L256.941 191.242L256.941 252.394L217.35 252.394ZM147.366 193.242L149.366 193.242L149.366 74.5399L147.166 74.5399L71.4812 191.242L70.1842 193.242L147.366 193.242ZM73.865 191.242L147.366 191.242L147.366 77.908L73.865 191.242Z" fill="#E07153" fill-opacity="1.000000" fill-rule="evenodd"/>
</svg>
