<svg width="24.000000" height="24.000000" viewBox="0 0 24 24" fill="none" xmlns="http://www.w3.org/2000/svg" xmlns:xlink="http://www.w3.org/1999/xlink">
	<desc>
			Created with Pixso.
	</desc>
	<defs/>
	<rect id="new" width="24.000000" height="24.000000" fill="#FFFFFF" fill-opacity="0"/>
	<circle id="Ellipse 9" cx="12.000000" cy="12.000000" r="12.000000" fill="#E07153" fill-opacity="1.000000"/>
	<path id="%" d="M12.3281 14.3623C12.3281 15.4111 13.002 16.3018 14.25 16.3018C15.4863 16.3018 16.1719 15.4111 16.1719 14.3623L16.1719 13.9023C16.1719 12.8477 15.5039 11.9658 14.25 11.9658C13.0195 11.9658 12.3281 12.8564 12.3281 13.9023L12.3281 14.3623ZM7.84863 9.37012C7.84863 10.4189 8.52246 11.3008 9.76758 11.3008C11.0068 11.3008 11.6924 10.4248 11.6924 9.37012L11.6924 8.91016C11.6924 7.85254 11.0244 6.9707 9.76758 6.9707C8.54883 6.9707 7.84863 7.85254 7.84863 8.91016L7.84863 9.37012ZM8.41699 16L9.52734 16L15.5273 7.27246L14.417 7.27246L8.41699 16ZM13.5674 13.9023C13.5674 13.4863 13.7373 13.0557 14.25 13.0557C14.7861 13.0557 14.9238 13.4863 14.9238 13.9023L14.9238 14.3623C14.9238 14.7812 14.7686 15.2031 14.25 15.2031C13.7314 15.2031 13.5674 14.7695 13.5674 14.3623L13.5674 13.9023ZM9.09668 8.91016C9.09668 8.50293 9.26074 8.06055 9.76758 8.06055C10.3037 8.06055 10.4443 8.49121 10.4443 8.91016L10.4443 9.37012C10.4443 9.78613 10.2861 10.208 9.76758 10.208C9.26367 10.208 9.09668 9.78613 9.09668 9.37012L9.09668 8.91016Z" fill="#FFFFFF" fill-opacity="1.000000" fill-rule="evenodd"/>
</svg>
