<svg width="21.600098" height="21.600006" viewBox="0 0 21.6001 21.6" fill="none" xmlns="http://www.w3.org/2000/svg" xmlns:xlink="http://www.w3.org/1999/xlink">
	<desc>
			Created with Pixso.
	</desc>
	<defs/>
	<path id="image 45 (Traced)" d="M19.0281 0.249451C18.8328 0.73877 18.3862 1.58392 18.0908 2.02325C17.4592 2.96265 16.9854 3.45493 15.3118 4.91055C13.5942 6.40424 13.0837 6.97021 12.5889 7.93002C12.0176 9.03848 11.8232 9.96964 11.7847 11.7885C11.7668 12.617 11.7729 12.7813 11.8184 12.7157C11.8489 12.6719 12.0259 12.402 12.2119 12.1159C12.9268 11.0164 13.5669 10.2982 14.9033 9.09567C16.2617 7.87357 16.7927 7.29346 17.4082 6.35977C17.8801 5.64374 18.7231 4.05981 18.9429 3.47659C19.0105 3.29669 19.0969 3.21954 19.2307 3.21954C19.5928 3.21954 19.5977 3.78333 19.2463 4.99619C18.9333 6.07584 18.501 7.02188 17.9319 7.87115C17.4915 8.52872 17.1521 8.93561 16.2786 9.85342C15.147 11.0423 14.8259 11.4045 14.3923 11.9813C13.8557 12.6954 13.3589 13.4763 13.4092 13.5266C13.4182 13.5355 13.4922 13.5249 13.5735 13.503C13.655 13.481 14.2341 13.3664 14.8604 13.2482C16.5715 12.9254 17.2354 12.7292 18.0996 12.2904C19.5205 11.5691 20.5183 10.3209 21.1116 8.52292C21.668 6.83719 21.7495 5.19534 21.3535 3.66016C21.0273 2.39688 20.3008 1.1452 19.3611 0.228027L19.1274 0L19.0281 0.249451ZM10.0471 1.74808C8.16699 1.92786 6.47046 2.60196 5.06226 3.729C4.88477 3.87088 4.73975 3.99957 4.73975 4.01498C4.73975 4.03046 4.89478 4.08765 5.08398 4.14212C5.27319 4.19662 5.60205 4.3161 5.81445 4.40771L6.20093 4.57425L6.54468 4.35117C8.51685 3.0715 10.9758 2.75146 13.2058 3.48422C13.6838 3.64127 14.519 4.03778 14.9392 4.30695L15.2544 4.50888L15.7524 4.06775C16.0264 3.82507 16.252 3.60779 16.2539 3.58487C16.26 3.50656 15.3987 2.96274 14.7959 2.66431C13.8193 2.18076 12.7517 1.87613 11.6436 1.76471C11.2307 1.72324 10.3979 1.71454 10.0471 1.74808ZM18.8911 4.40622C18.5432 5.12848 18.0847 5.94821 17.7097 6.51859C17.0771 7.4808 16.5581 8.0629 15.4197 9.08624C13.7874 10.5535 13.0276 11.4145 12.2905 12.6314C11.6404 13.705 11.0872 15.1061 10.7544 16.5229C10.7378 16.5936 10.7175 16.6321 10.7095 16.6086C10.7012 16.585 10.6069 16.2623 10.4998 15.8915C9.87134 13.7144 8.7644 11.5135 7.34814 9.62485C6.729 8.79935 5.77222 7.72638 5.2439 7.26535L4.95483 7.01282L5.1189 7.21585C6.8418 9.34546 8.37793 12.2611 9.24683 15.0508C9.8584 17.015 10.2622 19.4841 10.2622 21.2607L10.2622 21.6L10.771 21.6L11.28 21.6L11.3091 20.7625C11.4512 16.6721 12.4375 13.7419 14.5068 11.2632C14.6843 11.0504 15.2434 10.4526 15.7488 9.93475C16.2542 9.41684 16.7944 8.83636 16.9492 8.64487C17.7942 7.59915 18.4988 6.28445 18.8704 5.06042C19.0249 4.55084 19.1646 3.9892 19.1484 3.94113C19.1411 3.91876 19.0251 4.12805 18.8911 4.40622ZM1.94653 4.19186C1.26782 4.25244 -0.0244141 4.4877 0.000244141 4.54614C0.00708008 4.56198 0.169189 4.71179 0.360352 4.879C1.10376 5.52908 1.65918 6.28848 1.94434 7.0441C2.09888 7.45404 2.20068 7.87424 2.3772 8.83221C2.59863 10.0335 2.77905 10.5325 3.22485 11.1776C3.88428 12.1317 5.04297 12.8055 6.60376 13.1423C7.06738 13.2424 8.23169 13.3987 8.26514 13.3653C8.29004 13.3405 7.7251 12.0783 7.40576 11.4458C6.68774 10.023 5.76587 8.57581 4.87085 7.46597C4.51001 7.01871 4.46216 6.85736 4.64062 6.69165C4.77295 6.56854 4.93311 6.58292 5.15234 6.73761C5.48853 6.97455 6.57397 8.10669 7.14014 8.81079C7.73706 9.55292 8.625 10.8506 9.03711 11.5827C9.24902 11.9594 9.30225 12.0276 9.33789 11.968C9.36377 11.9248 9.38086 11.4895 9.38013 10.8888C9.37915 9.75671 9.32788 9.41336 9.03442 8.57245C8.49097 7.01605 7.24902 5.49554 6.0105 4.87042C5.35669 4.54041 4.45923 4.29263 3.60718 4.20691C3.19043 4.16495 2.33472 4.1572 1.94653 4.19186ZM1.86694 8.90836C1.71313 9.63516 1.68896 9.89734 1.69092 10.8245C1.69336 11.8658 1.75903 12.3663 2.00977 13.2558C2.88696 16.367 5.3667 18.7814 8.5166 19.5914C8.90112 19.6902 9.80078 19.846 9.82837 19.8185C9.84961 19.7975 9.70972 18.5812 9.67603 18.4936C9.66284 18.4596 9.58154 18.4197 9.49512 18.4048C9.40869 18.39 9.14966 18.3313 8.91943 18.2744C5.90576 17.5304 3.65137 15.0903 3.14722 12.0266C3.07739 11.6022 3.05566 11.5447 2.84448 11.2246C2.47021 10.6578 2.20312 9.89023 2.05225 8.94879C2.02271 8.7655 1.98486 8.60699 1.96777 8.5965C1.95093 8.58603 1.90527 8.72635 1.86694 8.90836ZM19.5447 11.7122C19.2864 11.9498 18.4236 12.5597 18.3457 12.5597C18.3271 12.5597 18.2683 12.7179 18.2153 12.9113C18.0942 13.3514 17.9263 13.7747 17.6707 14.2841C16.6248 16.3678 14.6509 17.8726 12.3364 18.3506C12.082 18.4032 11.8616 18.4637 11.8469 18.4851C11.8323 18.5066 11.7974 18.7679 11.7698 19.0659C11.7419 19.3639 11.7109 19.6609 11.7009 19.7259C11.6797 19.8604 11.6604 19.8602 12.4109 19.731C15.8306 19.142 18.7148 16.4796 19.5835 13.11C19.7278 12.5499 19.8579 11.7692 19.8379 11.5831L19.824 11.4554L19.5447 11.7122Z" fill="#00C070" fill-opacity="1.000000" fill-rule="evenodd"/>
</svg>
