<svg width="24.000000" height="24.000000" viewBox="0 0 24 24" fill="none" xmlns="http://www.w3.org/2000/svg" xmlns:xlink="http://www.w3.org/1999/xlink">
	<desc>
			Created with Pixso.
	</desc>
	<defs/>
	<rect id="Frame 56" width="24.000000" height="24.000000" fill="#FFFFFF" fill-opacity="0"/>
	<path id="image 36 (Traced)" d="M11.6472 1.30023C11.4805 1.43314 11.145 2.14838 11.0173 2.64426C10.885 3.15701 10.812 3.85458 10.8484 4.25867C10.9001 4.83292 10.9685 5.13794 11.2261 5.94431C11.7849 7.69238 11.9917 8.64484 12.0303 9.64795C12.0508 10.1805 12.0398 10.4169 11.9819 10.6914C11.7834 11.6307 11.2393 12.1717 10.4072 12.2566C9.27197 12.3724 8.41284 11.8408 8.01343 10.7753C7.93262 10.56 7.82324 10.3466 7.77026 10.3008C7.62598 10.1762 7.33081 10.1917 7.19312 10.331C6.87671 10.6513 6.64844 12.5933 6.79004 13.7601C6.88208 14.5175 6.83984 14.4578 7.25708 14.4204C8.17871 14.3379 9.20923 14.5775 11.1323 15.3215C13.2434 16.1383 14.7795 16.5546 16.5972 16.8026C17.6445 16.9455 20.4709 16.9073 21.0134 16.743C21.1741 16.6943 21.3794 15.5514 21.3809 14.6977C21.3826 13.7002 21.1604 12.7528 20.7031 11.8084C20.3103 10.9973 20.1023 10.8073 19.7634 10.9507C19.6047 11.0179 19.5544 11.1044 19.4128 11.5542C19.2979 11.9192 19.0515 12.3499 18.7666 12.6844C18.3179 13.2108 17.6001 13.3782 16.9958 13.0974C16.4858 12.8604 16.2639 12.5595 16.1687 11.9758C16.0955 11.5264 16.1611 10.9215 16.4299 9.56778C16.9321 7.04044 16.9695 6.53992 16.7136 5.76477C16.5681 5.3244 16.4055 5.13708 16.1682 5.13708C15.959 5.13708 15.8711 5.20395 15.7163 5.48163C15.5403 5.79761 15.2542 6.06152 14.9141 6.22202C14.6914 6.32706 14.5847 6.34647 14.2283 6.34689C13.853 6.34738 13.7722 6.33115 13.5012 6.20068C12.5178 5.72763 12.1799 4.63675 12.2976 2.31482L12.3408 1.46307L12.1931 1.32953C12.0139 1.16739 11.8269 1.15732 11.6472 1.30023ZM0.355469 14.2092C0.0385742 14.3787 -0.0913086 14.7989 0.0683594 15.1393C0.208008 15.4371 1.29102 16.3616 2.13501 16.9034C2.70459 17.2691 3.51172 17.6905 3.55127 17.6429C3.57031 17.62 3.62402 17.4731 3.67065 17.3164C3.71704 17.1597 3.82837 16.8749 3.91797 16.6833C4.00732 16.4919 4.07349 16.3297 4.0647 16.323C4.05615 16.3162 3.83813 16.1994 3.58057 16.0633C2.9248 15.7171 2.28467 15.2708 1.67651 14.7354C1.39038 14.4836 1.1001 14.2402 1.03125 14.1946C0.867188 14.086 0.574219 14.0923 0.355469 14.2092ZM7.08203 15.3491C6.20581 15.4654 5.45996 15.9273 4.99512 16.6414C4.50513 17.3939 4.33252 18.0309 4.36768 18.9546C4.4043 19.9124 4.63989 20.4702 5.29224 21.1435C6.31323 22.1975 8.01904 22.8269 10.6396 23.1167C11.5437 23.2166 13.5889 23.2296 14.2751 23.1396C17.7703 22.6816 20.7625 21.1913 23.1199 18.7344C23.9888 17.8286 24.0955 17.6479 23.9404 17.3445C23.8083 17.0857 23.6704 17.0742 22.9451 17.2619C22.1565 17.466 21.2527 17.6425 20.5608 17.7277C19.7493 17.8276 17.2544 17.8137 16.4563 17.7048C14.5432 17.4437 12.7527 16.9472 10.5286 16.0611C9.05957 15.4758 7.91187 15.2387 7.08203 15.3491ZM6.03833 17.789C6.11084 17.8269 6.19751 17.9249 6.23096 18.0067C6.28271 18.1327 6.28003 18.1934 6.21411 18.4048C5.97803 19.1633 6.29199 19.8116 7.13867 20.3141C8.0686 20.866 9.67676 21.2509 11.5029 21.3586C11.7893 21.3755 12.0811 21.4186 12.1511 21.4545C12.4082 21.5857 12.4519 21.8942 12.248 22.1392L12.1208 22.2922L11.4858 22.2624C9.79346 22.1829 8.16455 21.8224 7.05127 21.281C6.22266 20.8781 5.72021 20.4118 5.41406 19.7618C5.27661 19.4698 5.2688 19.4224 5.2688 18.8833C5.2688 18.3705 5.28052 18.2898 5.38599 18.0761C5.55103 17.742 5.76709 17.6469 6.03833 17.789Z" fill="#1B1B1B" fill-opacity="1.000000" fill-rule="evenodd"/>
	<path id="image 36 (Traced)" d="M0.355469 14.2093C0.0385742 14.3787 -0.0913086 14.7989 0.0683594 15.1393C0.208008 15.4371 1.29102 16.3616 2.13501 16.9034C2.70459 17.2691 3.51172 17.6905 3.55127 17.6429C3.57031 17.6201 3.62402 17.4731 3.67065 17.3164C3.71704 17.1598 3.82837 16.8749 3.91797 16.6834C4.00732 16.4919 4.07349 16.3297 4.0647 16.323C4.05615 16.3163 3.83813 16.1994 3.58057 16.0633C2.9248 15.7171 2.28467 15.2708 1.67651 14.7354C1.39038 14.4836 1.1001 14.2403 1.03125 14.1947C0.867188 14.0861 0.574219 14.0924 0.355469 14.2093ZM7.08203 15.3491C6.20581 15.4655 5.45996 15.9274 4.99512 16.6414C4.50513 17.3939 4.33252 18.031 4.36768 18.9546C4.4043 19.9124 4.63989 20.4703 5.29224 21.1436C6.31323 22.1975 8.01904 22.827 10.6396 23.1167C11.5437 23.2167 13.5889 23.2296 14.2751 23.1397C17.7703 22.6817 20.7625 21.1913 23.1199 18.7344C23.9888 17.8286 24.0955 17.6479 23.9404 17.3445C23.8083 17.0857 23.6704 17.0743 22.9451 17.262C22.1565 17.466 21.2527 17.6425 20.5608 17.7277C19.7493 17.8277 17.2544 17.8137 16.4563 17.7048C14.5432 17.4437 12.7527 16.9472 10.5286 16.0611C9.05957 15.4759 7.91187 15.2388 7.08203 15.3491ZM6.03833 17.789C6.11084 17.827 6.19751 17.9249 6.23096 18.0067C6.28271 18.1327 6.28003 18.1934 6.21411 18.4048C5.97803 19.1634 6.29199 19.8116 7.13867 20.3142C8.0686 20.8661 9.67676 21.2509 11.5029 21.3586C11.7893 21.3755 12.0811 21.4187 12.1511 21.4545C12.4082 21.5857 12.4519 21.8942 12.248 22.1392L12.1208 22.2922L11.4858 22.2624C9.79346 22.183 8.16455 21.8224 7.05127 21.2811C6.22266 20.8782 5.72021 20.4118 5.41406 19.7618C5.27661 19.4698 5.2688 19.4225 5.2688 18.8834C5.2688 18.3705 5.28052 18.2898 5.38599 18.0762C5.55103 17.742 5.76709 17.647 6.03833 17.789Z" fill="#E07153" fill-opacity="1.000000" fill-rule="evenodd"/>
</svg>
