<svg width="24.000000" height="24.000000" viewBox="0 0 24 24" fill="none" xmlns="http://www.w3.org/2000/svg" xmlns:xlink="http://www.w3.org/1999/xlink">
	<desc>
			Created with Pixso.
	</desc>
	<defs/>
	<rect id="top" width="24.000000" height="24.000000" fill="#FFFFFF" fill-opacity="0"/>
	<circle id="Ellipse 9" cx="12.000000" cy="12.000000" r="12.000000" fill="#A1DCDC" fill-opacity="1.000000"/>
	<path id="Top" d="M5.5695 5.99608L7.05387 5.99608L7.05387 9.99999L8.06787 9.99999L8.06787 5.99608L9.55225 5.99608L9.55225 5.15136L5.5695 5.15136L5.5695 5.99608ZM14.4499 7.57649C14.4499 5.98957 13.4652 5.08463 12.1793 5.08463C10.887 5.08463 9.91047 5.98957 9.91047 7.57649C9.91047 9.15526 10.887 10.0667 12.1793 10.0667C13.4652 10.0667 14.4499 9.16177 14.4499 7.57649ZM13.4114 7.57649C13.4114 8.60351 12.9232 9.16015 12.1793 9.16015C11.4339 9.16015 10.9489 8.60351 10.9489 7.57649C10.9489 6.54784 11.4339 5.9912 12.1793 5.9912C12.9232 5.9912 13.4114 6.54784 13.4114 7.57649ZM5.75505 18L6.78044 18L6.78044 16.4277L7.64144 16.4277C8.75635 16.4277 9.40576 15.762 9.40576 14.7952C9.40576 13.8317 8.76937 13.1514 7.66748 13.1514L5.75505 13.1514L5.75505 18ZM6.78044 15.6058L6.78044 13.9896L7.47054 13.9896C8.06299 13.9896 8.34945 14.3118 8.34945 14.7952C8.34945 15.2754 8.06299 15.6058 7.47542 15.6058L6.78044 15.6058Z" fill="#FFFFFF" fill-opacity="1.000000" fill-rule="evenodd"/>
</svg>
