<svg width="24.000000" height="24.000000" viewBox="0 0 24 24" fill="none" xmlns="http://www.w3.org/2000/svg" xmlns:xlink="http://www.w3.org/1999/xlink">
	<desc>
			Created with Pixso.
	</desc>
	<defs/>
	<rect id="new" width="24.000000" height="24.000000" fill="#FFFFFF" fill-opacity="0"/>
	<circle id="Ellipse 9" cx="12.000000" cy="12.000000" r="12.000000" fill="#6DD8B1" fill-opacity="1.000000"/>
	<path id="New" d="M12.3186 5.31803L11.2981 5.31803L11.2981 8.36816L11.2542 8.36816L9.16268 5.31803L8.26261 5.31803L8.26261 10.1667L9.288 10.1667L9.288 7.11491L9.32381 7.11491L11.4332 10.1667L12.3186 10.1667L12.3186 5.31803ZM13.1632 10.1667L16.4395 10.1667L16.4395 9.32194L14.1886 9.32194L14.1886 8.16309L16.2621 8.16309L16.2621 7.31836L14.1886 7.31836L14.1886 6.16276L16.4298 6.16276L16.4298 5.31803L13.1632 5.31803L13.1632 10.1667ZM10.3924 18.1667L11.3918 18.1667L12.313 14.9961L12.3504 14.9961L13.2749 18.1667L14.2726 18.1667L15.661 13.318L14.5412 13.318L13.7388 16.6937L13.6964 16.6937L12.8127 13.318L11.854 13.318L10.9686 16.6872L10.9279 16.6872L10.1255 13.318L9.00569 13.318L10.3924 18.1667Z" fill="#FFFFFF" fill-opacity="1.000000" fill-rule="evenodd"/>
</svg>
