<svg width="14.046387" height="22.199951" viewBox="0 0 14.0464 22.2" fill="none" xmlns="http://www.w3.org/2000/svg" xmlns:xlink="http://www.w3.org/1999/xlink">
	<desc>
			Created with Pixso.
	</desc>
	<defs/>
	<path id="image 37 (Traced)" d="M7.49463 0.0263062C7.38892 0.059906 7.03662 0.625519 6.91455 0.957581C6.84009 1.16025 6.81958 1.35712 6.83618 1.71161C6.8584 2.18515 6.86279 2.19794 7.17847 2.68323C7.44238 3.08939 7.50317 3.22849 7.52661 3.48203C7.56055 3.84299 7.44336 4.25623 7.18213 4.69983C6.92383 5.13785 6.96021 5.31888 7.30591 5.31888C7.49414 5.31888 7.59546 5.23505 7.80176 4.90936C8.08228 4.46671 8.21265 3.98746 8.18555 3.49942C8.1626 3.08194 8.14795 3.04245 7.83667 2.55399L7.51147 2.04419L7.51147 1.573C7.51147 1.11548 7.5188 1.08975 7.76465 0.685028C7.90381 0.45578 8.01782 0.249023 8.01782 0.225616C8.01782 0.202209 7.96411 0.140625 7.89868 0.0887756C7.78271 -0.00289917 7.65088 -0.0233154 7.49463 0.0263062ZM2.96753 2.00885C2.54053 2.48953 2.32129 3.21335 2.42554 3.79932C2.46753 4.03458 2.56323 4.24002 2.79346 4.58853L3.10449 5.05972L3.10254 5.50732C3.10059 5.91937 3.08228 5.98865 2.87207 6.37903C2.74658 6.61224 2.6311 6.85797 2.61572 6.92508C2.57935 7.08234 2.74048 7.21347 2.94629 7.19434C3.14746 7.17569 3.31104 6.97922 3.55737 6.46072C3.73584 6.0849 3.75293 6.00174 3.7561 5.50272L3.75952 4.95624L3.43311 4.44257C3.1377 3.97803 3.10449 3.89441 3.08447 3.56863C3.05957 3.15747 3.16406 2.81088 3.43335 2.4115C3.59766 2.16806 3.6062 2.07217 3.4751 1.93817C3.36938 1.83026 3.09204 1.86896 2.96753 2.00885ZM11.7354 2.07373C11.6499 2.18063 11.5103 2.4086 11.4246 2.58023C11.2881 2.85413 11.2688 2.96204 11.2664 3.46234L11.2637 4.03241L11.5911 4.54605L11.9187 5.05972L11.918 5.50732C11.9172 5.9198 11.8994 5.98828 11.6899 6.37903C11.3914 6.93582 11.3755 6.99884 11.5037 7.11099C11.6357 7.22653 11.8403 7.23001 11.9673 7.11896C12.1091 6.9949 12.4016 6.46375 12.5098 6.13391C12.6289 5.76968 12.6301 5.21805 12.5122 4.9039C12.4619 4.7699 12.3079 4.49573 12.1697 4.29459C11.9224 3.93411 11.9187 3.92215 11.9187 3.4577C11.9187 2.99817 11.925 2.97583 12.1804 2.55283C12.4341 2.13229 12.4392 2.11548 12.3428 1.99918C12.1804 1.80313 11.9263 1.83432 11.7354 2.07373Z" fill="#1B1B1B" fill-opacity="1.000000" fill-rule="evenodd"/>
	<path id="Vector" d="M1.00635 17.7524L5.95215 21.7621C6.32861 22.0463 6.78735 22.2 7.25879 22.2C7.73047 22.2 8.18921 22.0463 8.56543 21.7621L13.5115 17.7524C13.6831 17.6124 13.8203 17.4347 13.9121 17.2331C14.0042 17.0316 14.0486 16.8115 14.0417 16.5901L14.0417 10.4194C14.0583 10.198 14.03 9.97556 13.959 9.7652C13.8882 9.55484 13.7756 9.36084 13.6284 9.19467C13.6924 9.44998 13.6799 9.71848 13.5925 9.96677C13.5054 10.2151 13.3467 10.4322 13.137 10.5911L8.18335 14.6008C7.81738 14.9053 7.35645 15.0721 6.88062 15.0721C6.40454 15.0721 5.9436 14.9053 5.57764 14.6008L0.631836 10.5911C0.379639 10.3958 0.200928 10.1208 0.124756 9.81094L0 10.5911L0.452393 16.6446C0.456299 16.8595 0.506348 17.0711 0.599365 17.2649C0.692139 17.4587 0.825684 17.6303 0.990723 17.768L1.00635 17.7524Z" fill="#1B1B1B" fill-opacity="1.000000" fill-rule="evenodd"/>
	<path id="Vector" d="M8.24561 11.7534L8.47949 11.5663L10.2583 10.123C10.3354 10.0666 10.3984 9.99261 10.4419 9.90723C10.4854 9.82181 10.5078 9.72739 10.5078 9.63159C10.5078 9.5358 10.4854 9.44135 10.4419 9.35596C10.3984 9.27054 10.3354 9.19659 10.2583 9.14011L7.62915 7.02603C7.45435 6.89319 7.24048 6.82126 7.02075 6.82126C6.80103 6.82126 6.5874 6.89319 6.41235 7.02603L5.68677 7.61111C4.95361 8.21179 5.45288 8.97632 5.94434 9.694C6.14087 9.99121 6.35986 10.2729 6.59961 10.5365C6.88818 10.8485 7.83203 12.0967 8.24561 11.769L8.24561 11.7534Z" fill="#E07153" fill-opacity="1.000000" fill-rule="evenodd"/>
	<path id="Vector" d="M3.61206 10.2713L6.24097 12.401C6.37891 12.5041 6.54077 12.5703 6.71143 12.5935C6.88184 12.6167 7.05566 12.5961 7.21606 12.5336C7.78564 12.3152 7.13794 11.9407 6.85718 11.6833C6.57642 11.4258 6.2644 11.1372 6.07715 10.9032C5.82422 10.6269 5.59204 10.3323 5.38281 10.0217C4.73535 9.08554 5.0083 8.1806 4.28296 8.7735L3.64331 9.28836C3.56567 9.34567 3.50293 9.42035 3.45947 9.50638C3.41626 9.59241 3.39355 9.68741 3.39355 9.78375C3.39355 9.88007 3.41626 9.97507 3.45947 10.0611C3.50293 10.1471 3.56567 10.2218 3.64331 10.2791L3.61206 10.2713Z" fill="#E07153" fill-opacity="1.000000" fill-rule="evenodd"/>
</svg>
