<svg width="24.000000" height="24.000000" viewBox="0 0 24 24" fill="none" xmlns="http://www.w3.org/2000/svg" xmlns:xlink="http://www.w3.org/1999/xlink">
	<desc>
			Created with Pixso.
	</desc>
	<defs>
		<clipPath id="clip969_11677">
			<rect id="remix-icons/line/editor/attachment-2" width="24.000000" height="24.000000" fill="white" fill-opacity="0"/>
		</clipPath>
	</defs>
	<rect id="remix-icons/line/editor/attachment-2" width="24.000000" height="24.000000" fill="#FFFFFF" fill-opacity="0"/>
	<g clip-path="url(#clip969_11677)">
		<path id="Vector" d="M14.82 7.75L9.17 13.41C9.07 13.5 9 13.61 8.94 13.73C8.89 13.86 8.86 13.99 8.86 14.12C8.86 14.25 8.89 14.38 8.94 14.51C8.99 14.63 9.06 14.74 9.15 14.84C9.25 14.93 9.36 15 9.48 15.05C9.61 15.1 9.74 15.13 9.87 15.13C10 15.13 10.13 15.1 10.26 15.05C10.38 14.99 10.49 14.92 10.58 14.82L16.24 9.17C16.8 8.6 17.12 7.84 17.12 7.05C17.12 6.25 16.8 5.49 16.24 4.92C15.68 4.36 14.91 4.05 14.12 4.05C13.32 4.05 12.56 4.36 12 4.92L6.34 10.58C5.86 11.04 5.49 11.59 5.23 12.2C4.97 12.81 4.83 13.47 4.83 14.13C4.82 14.79 4.95 15.45 5.2 16.06C5.45 16.67 5.83 17.23 6.29 17.7C6.76 18.16 7.32 18.54 7.93 18.79C8.54 19.04 9.2 19.17 9.86 19.16C10.52 19.16 11.18 19.02 11.79 18.76C12.4 18.5 12.95 18.12 13.41 17.65L19.07 12L20.48 13.41L14.82 19.07C14.17 19.72 13.4 20.23 12.55 20.58C11.7 20.94 10.79 21.12 9.87 21.12C8.95 21.12 8.04 20.94 7.19 20.58C6.34 20.23 5.57 19.72 4.92 19.07C4.27 18.42 3.76 17.64 3.41 16.79C3.05 15.95 2.87 15.04 2.87 14.12C2.87 13.2 3.05 12.29 3.41 11.44C3.76 10.59 4.27 9.82 4.92 9.17L10.58 3.51C11.52 2.6 12.79 2.1 14.1 2.11C15.41 2.12 16.66 2.64 17.59 3.57C18.52 4.5 19.04 5.75 19.05 7.06C19.07 8.37 18.56 9.64 17.65 10.58L12 16.24C11.72 16.52 11.39 16.74 11.02 16.89C10.66 17.04 10.27 17.12 9.87 17.12C9.48 17.12 9.09 17.04 8.72 16.89C8.36 16.74 8.03 16.52 7.75 16.24C7.47 15.96 7.25 15.63 7.1 15.27C6.95 14.9 6.87 14.51 6.87 14.12C6.87 13.72 6.95 13.33 7.1 12.97C7.25 12.6 7.47 12.27 7.75 12L13.41 6.34L14.82 7.75Z" fill="#E07153" fill-opacity="1.000000" fill-rule="nonzero"/>
	</g>
</svg>
