<svg width="180.000000" height="108.558411" viewBox="0 0 180 108.558" fill="none" xmlns="http://www.w3.org/2000/svg" xmlns:xlink="http://www.w3.org/1999/xlink">
	<desc>
			Created with Pixso.
	</desc>
	<defs/>
	<path id="[Copy] Доставим" d="M38.7043 31.018C37.1651 32.0611 36.3788 33.4307 36.3454 35.1269C36.312 36.8231 36.9717 38.6693 38.3245 40.6655C39.689 42.679 41.1204 43.9835 42.6186 44.5789C44.1168 45.1742 45.6958 44.9095 47.3558 43.7846C48.1319 43.2586 48.8438 42.6472 49.4914 41.9504C50.1391 41.2535 50.8054 40.4402 51.4903 39.5105L53.7693 42.8736C53.1694 43.7709 52.516 44.5754 51.8092 45.2871C51.1068 45.996 50.2511 46.6922 49.2422 47.3759C47.302 48.6907 45.4285 49.3752 43.6217 49.4294C41.8121 49.4792 40.1138 48.9785 38.5269 47.9273C36.94 46.8761 35.4892 45.3804 34.1744 43.4402C32.88 41.5302 32.0803 39.6121 31.7754 37.6859C31.4718 35.7525 31.6971 33.9263 32.4511 32.2073C33.2022 30.484 34.5328 28.9752 36.4428 27.6808C37.3785 27.0468 38.3987 26.5284 39.5037 26.1256C40.6086 25.7229 41.7317 25.4305 42.873 25.2485L43.7819 29.389C42.8469 29.5319 41.9383 29.723 41.056 29.9622C40.1738 30.2015 39.3899 30.5534 38.7043 31.018Z" fill="#1B1B1B" fill-opacity="1.000000" fill-rule="evenodd"/>
	<path id="[Copy] Доставим" d="M67.7903 24.2532C68.1217 25.1357 68.1282 25.9901 67.8098 26.8162C67.4944 27.6357 66.8294 28.3388 65.8147 28.9258L65.8614 29.0501C67.0536 28.7581 68.1144 28.8048 69.0436 29.1903C69.9758 29.569 70.6287 30.2557 71.0023 31.2503C71.3557 32.1914 71.4253 33.1249 71.2112 34.051C71.0001 34.9703 70.4443 35.8384 69.5437 36.6551C68.6431 37.4717 67.3323 38.2033 65.6111 38.8497L57.822 41.7749L51.6803 25.4214L59.4694 22.4962C60.7518 22.0146 61.9455 21.7192 63.0506 21.6102C64.1606 21.4993 65.1269 21.6427 65.9494 22.0404C66.772 22.438 67.3856 23.1756 67.7903 24.2532ZM63.3977 26.3118C63.0241 25.3171 62.0499 25.1155 60.475 25.707L57.3301 26.8881L58.5441 30.1208L61.1771 29.1319C62.1181 28.7785 62.7821 28.3762 63.1689 27.9249C63.554 27.4687 63.6302 26.931 63.3977 26.3118ZM66.2994 32.7495C66.0595 32.1107 65.6345 31.7418 65.0242 31.6428C64.417 31.537 63.6136 31.6718 62.6141 32.0472L59.6813 33.1486L61.1316 37.0103L64.1521 35.8759C64.9956 35.5591 65.6328 35.1446 66.0635 34.6323C66.4973 34.1133 66.5759 33.4857 66.2994 32.7495Z" fill="#1B1B1B" fill-opacity="1.000000" fill-rule="evenodd"/>
	<path id="[Copy] Доставим" d="M76.8193 17.889C79.2055 17.5407 81.1936 17.9454 82.7837 19.1029C84.379 20.2596 85.3597 22.0929 85.726 24.6028L86.0589 26.8833L74.9113 28.5103C75.1466 29.8339 75.6936 30.8226 76.5522 31.4763C77.4152 32.124 78.5116 32.3509 79.8412 32.1568C80.9596 31.9936 81.9561 31.735 82.8308 31.381C83.7056 31.027 84.5961 30.547 85.5024 29.941L86.0339 33.5821C85.2503 34.1281 84.4017 34.5704 83.4879 34.9091C82.5792 35.2469 81.4601 35.5129 80.1304 35.707C78.3987 35.9597 76.8211 35.861 75.3974 35.4108C73.9737 34.9607 72.785 34.1367 71.8311 32.939C70.8825 31.7405 70.2634 30.1492 69.9738 28.165C69.6782 26.1396 69.7753 24.4069 70.2652 22.9669C70.7602 21.5261 71.5692 20.379 72.6921 19.5256C73.8202 18.6715 75.1959 18.1259 76.8193 17.889ZM77.3399 21.2396C76.4329 21.3719 75.7211 21.7785 75.2046 22.4592C74.6925 23.1339 74.4734 24.1028 74.5472 25.3658L81.1646 24.4C80.9898 23.3465 80.5869 22.5158 79.956 21.9078C79.3303 21.2991 78.4583 21.0763 77.3399 21.2396Z" fill="#1B1B1B" fill-opacity="1.000000" fill-rule="evenodd"/>
	<path id="[Copy] Доставим" d="M115.003 19.5086L107.669 27.1126L113.638 36.9346L108.584 36.3608L102.971 26.7994L101.971 35.6099L97.546 35.1076L98.5463 26.297L90.9322 34.3567L85.8787 33.783L93.8978 25.5491L88.4548 16.4945L93.3531 17.0506L98.5604 26.1728L99.5166 17.7503L103.941 18.2527L102.985 26.6752L110.105 18.9525L115.003 19.5086Z" fill="#1B1B1B" fill-opacity="1.000000" fill-rule="evenodd"/>
	<path id="[Copy] Доставим" d="M117.86 28.8358C117.727 29.1754 117.549 29.5894 117.325 30.0777C117.103 30.5612 116.875 31.0568 116.644 31.5646C116.414 32.0675 116.199 32.5093 116 32.8901C115.806 33.2728 115.669 33.538 115.589 33.6857L127.555 25.2072L132.896 27.293L126.543 43.5652L122.249 41.8887L124.787 35.39C124.997 34.8514 125.247 34.2671 125.538 33.637C125.829 33.0069 126.108 32.4199 126.377 31.8761C126.652 31.3293 126.858 30.9093 126.994 30.6161L115.066 39.084L109.725 36.9983L116.078 20.726L120.372 22.4026L117.86 28.8358Z" fill="#1B1B1B" fill-opacity="1.000000" fill-rule="evenodd"/>
	<path id="[Copy] Доставим" d="M141.807 32.9895C143.799 34.3497 144.987 35.9941 145.373 37.9227C145.762 39.8543 145.242 41.8672 143.811 43.9617L142.511 45.8647L133.209 39.51C132.485 40.6431 132.218 41.7409 132.407 42.8033C132.603 43.8645 133.256 44.774 134.365 45.532C135.298 46.1695 136.207 46.6544 137.09 46.9865C137.973 47.3186 138.953 47.5688 140.031 47.737L137.955 50.7754C137.009 50.6463 136.085 50.3967 135.183 50.0268C134.286 49.6598 133.283 49.0974 132.173 48.3394C130.728 47.3522 129.634 46.2109 128.892 44.9153C128.15 43.6198 127.833 42.2084 127.943 40.6813C128.057 39.157 128.68 37.567 129.811 35.9113C130.965 34.2211 132.211 33.0123 133.546 32.2849C134.887 31.5604 136.259 31.2646 137.663 31.3975C139.071 31.5334 140.453 32.064 141.807 32.9895ZM139.921 35.8068C139.164 35.2897 138.365 35.1066 137.524 35.2575C136.69 35.4069 135.872 35.9712 135.071 36.9503L140.593 40.7225C141.178 39.8291 141.445 38.9452 141.392 38.0706C141.344 37.1989 140.854 36.4443 139.921 35.8068Z" fill="#1B1B1B" fill-opacity="1.000000" fill-rule="evenodd"/>
</svg>
