<svg width="188.656586" height="108.413086" viewBox="0 0 188.657 108.413" fill="none" xmlns="http://www.w3.org/2000/svg" xmlns:xlink="http://www.w3.org/1999/xlink">
	<desc>
			Created with Pixso.
	</desc>
	<defs/>
	<path id="[Copy] Доставим" d="M29.8563 73.732L10.8677 61.0187L18.8955 49.0283L22.2193 51.2537L16.8776 59.2322L20.8441 61.8878L21.9133 60.2908C23.1129 58.4991 24.344 57.1985 25.6067 56.3892C26.8651 55.577 28.1132 55.1872 29.3511 55.22C30.589 55.2528 31.7662 55.643 32.8828 56.3905C34.7611 57.6481 35.8009 59.25 36.0022 61.1962C36.1992 63.1395 35.3849 65.4744 33.5594 68.201L29.8563 73.732ZM30.1529 66.1553C30.9729 64.9305 31.4214 63.8393 31.4984 62.8817C31.5784 61.9198 31.1314 61.1129 30.1576 60.4609C29.1449 59.7829 28.2256 59.719 27.3997 60.2691C26.5694 60.8164 25.7153 61.7457 24.8374 63.0571L24.1419 64.0958L29.2445 67.5121L30.1529 66.1553Z" fill="#1B1B1B" fill-opacity="1.000000" fill-rule="evenodd"/>
	<path id="[Copy] Доставим" d="M33.4645 40.9784C35.236 39.3422 37.1047 38.552 39.0706 38.6079C41.0404 38.6603 42.8858 39.6182 44.6068 41.4814L46.1706 43.1744L37.8949 50.8182C38.8373 51.7771 39.8474 52.2834 40.9251 52.3372C42.0032 52.3837 43.0358 51.9511 44.0229 51.0393C44.8532 50.2725 45.529 49.4958 46.0504 48.7093C46.5718 47.9229 47.0351 47.0235 47.4402 46.0112L49.9369 48.7143C49.5992 49.6076 49.1492 50.4522 48.5868 51.2481C48.0283 52.0405 47.2555 52.8926 46.2684 53.8043C44.9828 54.9917 43.6256 55.8021 42.1968 56.2356C40.768 56.6691 39.3216 56.6615 37.8577 56.2127C36.3977 55.7604 34.9874 54.7977 33.6269 53.3247C32.2381 51.8211 31.3387 50.3369 30.9287 48.8721C30.5226 47.4038 30.5414 46.0003 30.9853 44.6615C31.4329 43.3193 32.2593 42.0915 33.4645 40.9784ZM35.788 43.4479C35.1147 44.0699 34.7574 44.8076 34.7161 45.661C34.6752 46.5071 35.0421 47.4302 35.817 48.4303L40.7296 43.8928C39.9898 43.1226 39.1879 42.6651 38.3238 42.5202C37.4635 42.3718 36.6183 42.681 35.788 43.4479Z" fill="#1B1B1B" fill-opacity="1.000000" fill-rule="evenodd"/>
	<path id="[Copy] Доставим" d="M58.5604 44.8495C56.309 46.1583 54.2074 46.5486 52.2557 46.0204C50.3059 45.4851 48.5536 43.8801 46.9988 41.2054C45.9256 39.3593 45.3643 37.6734 45.3148 36.1479C45.2699 34.6197 45.6439 33.2577 46.4367 32.0618C47.2314 30.8588 48.3583 29.8333 49.8172 28.9852C50.8483 28.3858 51.8055 27.9649 52.6888 27.7225C53.5721 27.4802 54.3794 27.3301 55.111 27.2723L55.7445 31.1603C54.9514 31.278 54.225 31.4171 53.5653 31.5777C52.9056 31.7383 52.2988 31.9795 51.745 32.3015C49.6062 33.5448 49.4215 35.6884 51.1909 38.7323C52.0704 40.2453 53.001 41.1984 53.9827 41.5916C54.9617 41.9804 55.9578 41.8803 56.9709 41.2913C57.84 40.7861 58.5387 40.2263 59.0671 39.6119C59.5955 38.9975 60.0571 38.3044 60.4519 37.5327L62.4936 41.0449C62.0988 41.8166 61.6057 42.4918 61.0144 43.0705C60.4275 43.6466 59.6095 44.2396 58.5604 44.8495Z" fill="#1B1B1B" fill-opacity="1.000000" fill-rule="evenodd"/>
	<path id="[Copy] Доставим" d="M76.1958 18.7478L81.4785 35.3986L76.936 36.8398L72.7354 23.5996L66.6961 25.5156L70.8967 38.7558L66.3467 40.1994L61.0641 23.5485L76.1958 18.7478Z" fill="#1B1B1B" fill-opacity="1.000000" fill-rule="evenodd"/>
	<path id="[Copy] Доставим" d="M97.575 34.1199L92.8273 34.5328L91.6238 20.6944L87.2575 21.0742C87.2785 24.5019 87.1507 27.2708 86.8742 29.3808C86.5976 31.4908 86.0959 33.0558 85.369 34.0758C84.6417 35.0905 83.5983 35.657 82.2389 35.7752C81.1337 35.8713 80.2159 35.7786 79.4857 35.4971L79.156 31.7067C79.6623 31.877 80.1826 31.9389 80.7171 31.8925C81.0958 31.8595 81.427 31.6399 81.7106 31.2336C81.9989 30.8217 82.2422 30.1026 82.4405 29.0763C82.644 28.0496 82.7844 26.6285 82.8617 24.8128C82.9391 22.9972 82.9519 20.6801 82.9002 17.8615L96.0615 16.7169L97.575 34.1199Z" fill="#1B1B1B" fill-opacity="1.000000" fill-rule="evenodd"/>
	<path id="[Copy] Доставим" d="M107.951 17.6086C110.28 17.9129 111.996 18.6493 113.099 19.8176C114.207 20.9815 114.626 22.5989 114.356 24.6698L112.846 36.22L109.546 35.7888L108.931 33.3211L108.807 33.3049C107.942 34.1374 107.069 34.7113 106.187 35.0268C105.31 35.343 104.152 35.407 102.711 35.2187C101.167 35.0169 99.9447 34.4003 99.0447 33.3687C98.1499 32.3378 97.8243 30.8902 98.0679 29.0259C98.3081 27.1873 99.1312 25.9134 100.537 25.2042C101.943 24.4949 103.94 24.2674 106.528 24.5215L109.562 24.8155L109.661 24.0564C109.78 23.1474 109.627 22.4498 109.202 21.9636C108.782 21.478 108.149 21.1799 107.302 21.0692C106.46 20.9592 105.62 20.973 104.783 21.1104C103.946 21.2479 103.103 21.4451 102.255 21.702L101.117 18.2914C102.11 17.9274 103.19 17.6825 104.357 17.5565C105.524 17.4306 106.722 17.4479 107.951 17.6086ZM107.349 27.4022C105.82 27.2444 104.725 27.3824 104.064 27.816C103.409 28.2452 103.028 28.8704 102.921 29.6915C102.827 30.4145 102.971 30.9561 103.355 31.3161C103.738 31.6761 104.269 31.9004 104.945 31.9888C105.957 32.121 106.851 31.9332 107.627 31.4252C108.408 30.9127 108.87 30.1065 109.014 29.0065L109.2 27.5811L107.349 27.4022Z" fill="#1B1B1B" fill-opacity="1.000000" fill-rule="evenodd"/>
	<path id="[Copy] Доставим" d="M131.947 28.0816L126.511 26.279L122.139 39.4634L117.608 37.9608L121.981 24.7763L116.545 22.9737L117.672 19.5775L133.073 24.6854L131.947 28.0816Z" fill="#1B1B1B" fill-opacity="1.000000" fill-rule="evenodd"/>
	<path id="[Copy] Доставим" d="M138.596 27.8931L135.273 33.7329L141.059 37.0244L144.381 31.1846L148.523 33.5412L139.885 48.7247L135.743 46.3681L139.305 40.1073L133.52 36.8158L129.958 43.0766L125.809 40.7161L134.447 25.5326L138.596 27.8931Z" fill="#1B1B1B" fill-opacity="1.000000" fill-rule="evenodd"/>
	<path id="[Copy] Доставим" d="M157.244 40.6839C158.99 42.2547 159.986 43.834 160.233 45.4215C160.486 47.0087 159.915 48.5787 158.518 50.1315L150.728 58.7919L148.254 56.5662L149.145 54.1845L149.053 54.1009C147.868 54.2964 146.823 54.2742 145.918 54.0344C145.017 53.7982 144.026 53.1941 142.945 52.2224C141.788 51.1809 141.13 49.9802 140.973 48.6203C140.821 47.2638 141.373 45.8866 142.63 44.4887C143.87 43.1102 145.27 42.5271 146.83 42.7396C148.391 42.9521 150.165 43.8964 152.153 45.5725L154.486 47.5346L154.998 46.9653C155.611 46.2838 155.88 45.6223 155.806 44.9809C155.735 44.3429 155.382 43.7383 154.747 43.1671C154.116 42.5993 153.417 42.1348 152.649 41.7734C151.881 41.412 151.075 41.097 150.231 40.8281L151.227 37.3733C152.251 37.6362 153.28 38.0465 154.312 38.6041C155.345 39.1616 156.322 39.8549 157.244 40.6839ZM151.197 48.4112C150.026 47.4147 149.046 46.9078 148.256 46.8906C147.473 46.873 146.805 47.1721 146.251 47.7878C145.764 48.3299 145.576 48.858 145.688 49.3721C145.8 49.8862 146.109 50.3713 146.617 50.8276C147.376 51.5103 148.219 51.8622 149.145 51.8832C150.08 51.9038 150.918 51.5018 151.659 50.677L152.621 49.6082L151.197 48.4112Z" fill="#1B1B1B" fill-opacity="1.000000" fill-rule="evenodd"/>
	<path id="[Copy] Доставим" d="M153 61.9496L149.978 57.7816L158.336 57.5305C158.101 56.5943 158.113 55.6042 158.373 54.5604C158.633 53.5165 159.34 52.5757 160.495 51.738C161.912 50.7107 163.384 50.4605 164.911 50.9873C166.438 51.514 167.809 52.6144 169.023 54.2884L173.792 60.8662L159.65 71.1206L156.852 67.2625L162.108 63.4515L160.567 61.3263L153 61.9496ZM163.213 55.5386C162.626 55.9635 162.333 56.5302 162.332 57.2386C162.334 57.9513 162.604 58.6786 163.142 59.4207L164.701 61.5712L168.275 58.9801L166.358 56.3363C165.86 55.649 165.322 55.2632 164.747 55.1789C164.175 55.0915 163.664 55.2114 163.213 55.5386Z" fill="#1B1B1B" fill-opacity="1.000000" fill-rule="evenodd"/>
</svg>
