<svg width="180.000000" height="108.142212" viewBox="0 0 180 108.142" fill="none" xmlns="http://www.w3.org/2000/svg" xmlns:xlink="http://www.w3.org/1999/xlink">
	<desc>
			Created with Pixso.
	</desc>
	<defs/>
	<path id="[Copy] Доставим" d="M34.6533 58.5137L19.5319 41.3807L33.086 29.4181L48.2074 46.5511L44.5816 49.7511L32.133 35.6464L25.8246 41.2142L38.2732 55.3189L34.6533 58.5137Z" fill="#1B1B1B" fill-opacity="1.000000" fill-rule="evenodd"/>
	<path id="[Copy] Доставим" d="M59.6568 30.8168C60.9965 33.39 61.354 35.7288 60.7293 37.8333C60.1045 39.9378 58.6303 41.595 56.3066 42.8049C54.8653 43.5553 53.4186 43.9122 51.9667 43.8754C50.5194 43.8362 49.1597 43.3845 47.8876 42.5201C46.6177 41.6487 45.5353 40.3537 44.6406 38.6352C43.3008 36.0621 42.9435 33.7349 43.5687 31.6537C44.1938 29.5725 45.6798 27.9209 48.0266 26.699C49.4818 25.9413 50.9307 25.5833 52.3734 25.6249C53.816 25.6664 55.1663 26.1114 56.4242 26.9597C57.6821 27.808 58.7596 29.0937 59.6568 30.8168ZM48.9576 36.3875C49.7538 37.9166 50.6058 38.9439 51.5136 39.4695C52.4261 39.9927 53.4505 39.9584 54.5869 39.3667C55.7003 38.787 56.3043 37.9734 56.3989 36.9259C56.4936 35.8784 56.1428 34.5901 55.3466 33.061C54.5481 31.5272 53.6974 30.508 52.7946 30.0033C51.8918 29.4987 50.8744 29.541 49.7426 30.1303C48.6247 30.7123 48.0135 31.5179 47.9093 32.5469C47.8096 33.5736 48.1591 34.8538 48.9576 36.3875Z" fill="#1B1B1B" fill-opacity="1.000000" fill-rule="evenodd"/>
	<path id="[Copy] Доставим" d="M74.7642 17.7599L78.2931 31.2917L80.7651 30.647L83.2275 40.089L79.0772 41.1713L77.4941 35.1009L66.132 38.0641L67.7151 44.1345L63.5648 45.2168L61.1024 35.7748L62.5312 35.4022C62.975 34.07 63.2647 32.6111 63.4002 31.0256C63.5395 29.4337 63.5473 27.7712 63.4236 26.038C63.305 24.3035 63.1012 22.583 62.8123 20.8768L74.7642 17.7599ZM67.5858 23.3297C67.8241 25.2752 67.946 27.1462 67.9515 28.9425C67.9571 30.7388 67.7605 32.4721 67.3618 34.1424L73.6741 32.4962L71.0481 22.4268L67.5858 23.3297Z" fill="#1B1B1B" fill-opacity="1.000000" fill-rule="evenodd"/>
	<path id="[Copy] Доставим" d="M87.4741 16.5218C89.8217 16.4419 91.6348 16.8883 92.9134 17.861C94.1971 18.8284 94.8744 20.3557 94.9454 22.443L95.3415 34.0847L92.0153 34.1979L91.0056 31.8637L90.8807 31.868C90.163 32.8304 89.395 33.5392 88.5767 33.9944C87.7636 34.4494 86.6309 34.7016 85.1786 34.751C83.6222 34.804 82.3158 34.395 81.2596 33.5242C80.2085 32.6532 79.651 31.2781 79.5871 29.399C79.5241 27.5459 80.1281 26.1547 81.3994 25.2256C82.6706 24.2964 84.6035 23.746 87.1981 23.5743L90.2398 23.3692L90.2138 22.604C90.1826 21.6879 89.9177 21.0246 89.4191 20.6143C88.9257 20.2037 88.2521 20.013 87.3985 20.042C86.55 20.0709 85.7239 20.2215 84.9202 20.4937C84.1165 20.766 83.3174 21.0981 82.523 21.4899L80.8436 18.3108C81.7639 17.7896 82.7894 17.3717 83.92 17.057C85.0505 16.7423 86.2353 16.5639 87.4741 16.5218ZM88.4785 26.2823C86.9443 26.3762 85.8867 26.691 85.3056 27.2267C84.7296 27.757 84.4556 28.436 84.4838 29.2636C84.5086 29.9924 84.7396 30.5031 85.1769 30.7957C85.6142 31.0882 86.1738 31.2229 86.8557 31.1997C87.8759 31.165 88.7271 30.8338 89.4093 30.2061C90.0965 29.573 90.4212 28.7021 90.3835 27.5933L90.3346 26.1567L88.4785 26.2823Z" fill="#1B1B1B" fill-opacity="1.000000" fill-rule="evenodd"/>
	<path id="[Copy] Доставим" d="M109.239 18.5365C111.168 18.9034 112.586 19.9498 113.493 21.6757C114.401 23.3965 114.577 25.7152 114.023 28.6316C113.469 31.543 112.428 33.6407 110.901 34.9248C109.379 36.2099 107.654 36.6691 105.725 36.3022C104.492 36.0676 103.549 35.6552 102.898 35.0648C102.252 34.4754 101.753 33.8529 101.4 33.1974L101.147 33.1492C101.149 34.0614 101.073 34.9165 100.922 35.7147L99.6064 42.6298L94.9171 41.7379L99.616 17.0324L103.423 17.7564L103.659 20.1077L103.882 20.15C104.474 19.5468 105.204 19.068 106.072 18.7135C106.945 18.36 108.001 18.301 109.239 18.5365ZM107.016 21.9867C105.798 21.755 104.872 21.9712 104.236 22.635C103.602 23.2937 103.117 24.3943 102.781 25.9369L102.685 26.4434C102.371 28.0961 102.374 29.4143 102.696 30.398C103.018 31.3817 103.829 31.9972 105.129 32.2443C106.198 32.4477 107.073 32.1529 107.754 31.36C108.44 30.568 108.942 29.3354 109.261 27.6623C109.903 24.2853 109.155 22.3934 107.016 21.9867Z" fill="#1B1B1B" fill-opacity="1.000000" fill-rule="evenodd"/>
	<path id="[Copy] Доставим" d="M121.544 29.8048C121.396 30.1379 121.199 30.5432 120.952 31.0206C120.707 31.4933 120.458 31.9778 120.202 32.4742C119.949 32.9659 119.715 33.3973 119.498 33.7685C119.287 34.1417 119.137 34.4002 119.05 34.544L131.397 26.6303L136.636 28.9618L129.534 44.9215L125.322 43.0474L128.159 36.6735C128.394 36.1453 128.671 35.5733 128.991 34.9574C129.311 34.3414 129.617 33.7681 129.911 33.2373C130.211 32.7038 130.436 32.2938 130.586 32.0073L118.278 39.9123L113.039 37.5808L120.141 21.6211L124.352 23.4952L121.544 29.8048Z" fill="#1B1B1B" fill-opacity="1.000000" fill-rule="evenodd"/>
	<path id="[Copy] Доставим" d="M156.72 44.5863L145.814 58.2327L142.335 55.4527L147.691 48.7515C148.224 48.0842 148.755 47.445 149.283 46.8339C149.815 46.2187 150.32 45.6657 150.799 45.175L150.719 45.1116L138.637 52.497L135.836 50.2584L140.346 36.7812L140.242 36.6982C139.872 37.3028 139.449 37.9281 138.973 38.5742C138.5 39.2162 137.962 39.9136 137.361 40.6663L132.088 47.2637L128.61 44.4837L139.515 30.8372L144.794 35.0561L140.805 47.0188L151.642 40.5284L156.72 44.5863Z" fill="#1B1B1B" fill-opacity="1.000000" fill-rule="evenodd"/>
</svg>
