<svg width="180.000000" height="108.326416" viewBox="0 0 180 108.326" fill="none" xmlns="http://www.w3.org/2000/svg" xmlns:xlink="http://www.w3.org/1999/xlink">
	<desc>
			Created with Pixso.
	</desc>
	<defs/>
	<path id="[Copy] Доставим" d="M30.1748 31.8825L43.0485 45.611L45.2653 43.5322L52.5759 51.3282L49.168 54.5239L44.6149 49.6685L34.1804 59.4534L38.7334 64.3088L35.3255 67.5045L28.0149 59.7085L29.3029 58.5007C28.798 56.7821 28.1786 55.0175 27.4445 53.2068C26.7107 51.3888 25.783 49.4705 24.6614 47.4521C23.5436 45.4301 22.1444 43.2756 20.464 40.9887L30.1748 31.8825ZM26.0306 41.3057C26.8947 42.5089 27.7627 43.8799 28.6344 45.4186C29.5061 46.9574 30.319 48.5514 31.073 50.2006C31.8272 51.8424 32.4738 53.4495 33.0128 55.0218L39.5266 48.9136L29.4157 38.1314L26.0306 41.3057Z" fill="#1B1B1B" fill-opacity="1.000000" fill-rule="evenodd"/>
	<path id="[Copy] Доставим" d="M57.9947 31.6668C59.3915 34.2094 59.8011 36.5396 59.2235 38.6576C58.6459 40.7755 57.209 42.4652 54.9129 43.7266C53.4887 44.5091 52.0504 44.8981 50.598 44.8938C49.1502 44.8869 47.7807 44.4656 46.4896 43.6298C45.2006 42.787 44.0896 41.5165 43.1567 39.8184C41.7598 37.2758 41.3507 34.9572 41.9292 32.8625C42.5077 30.7679 43.9565 29.0835 46.2754 27.8096C47.7133 27.0196 49.1539 26.6293 50.5971 26.6387C52.0404 26.648 53.4003 27.0627 54.6768 27.8827C55.9533 28.7027 57.0592 29.9641 57.9947 31.6668ZM47.4225 37.4749C48.2526 38.9858 49.1273 39.9939 50.0466 40.4991C50.9705 41.0017 51.9939 40.9446 53.1169 40.3277C54.217 39.7233 54.8027 38.8964 54.8739 37.8471C54.9452 36.7977 54.5658 35.5175 53.7357 34.0066C52.9031 32.491 52.0298 31.4911 51.116 31.0067C50.2021 30.5223 49.186 30.5873 48.0676 31.2017C46.9629 31.8086 46.37 32.6276 46.2887 33.6587C46.212 34.6873 46.5899 35.9593 47.4225 37.4749Z" fill="#1B1B1B" fill-opacity="1.000000" fill-rule="evenodd"/>
	<path id="[Copy] Доставим" d="M69.5108 37.7267C67.0103 38.454 64.8766 38.326 63.1099 37.3428C61.3467 36.3531 60.0331 34.373 59.1691 31.4023C58.5727 29.3519 58.4345 27.5804 58.7544 26.0879C59.0793 24.594 59.7706 23.3624 60.8284 22.3929C61.8898 21.4171 63.2307 20.6935 64.851 20.2223C65.9963 19.8892 67.0267 19.7115 67.9424 19.6893C68.858 19.6671 69.6778 19.7161 70.4016 19.8365L70.0789 23.7625C69.2809 23.6854 68.5424 23.6453 67.8634 23.642C67.1845 23.6388 66.5374 23.7267 65.9223 23.9056C63.5468 24.5965 62.8506 26.6323 63.8339 30.013C64.3226 31.6934 64.9959 32.8428 65.8538 33.4612C66.7102 34.0745 67.701 34.2176 68.8262 33.8903C69.7915 33.6096 70.6046 33.2348 71.2655 32.7659C71.9265 32.297 72.5416 31.7357 73.1109 31.082L74.2454 34.9828C73.6762 35.6366 73.0348 36.173 72.3214 36.592C71.6129 37.0096 70.6761 37.3878 69.5108 37.7267Z" fill="#1B1B1B" fill-opacity="1.000000" fill-rule="evenodd"/>
	<path id="[Copy] Доставим" d="M91.6985 20.1238L85.9935 20.62L87.197 34.4584L82.4415 34.8719L81.238 21.0335L75.533 21.5297L75.223 17.965L91.3885 16.5591L91.6985 20.1238Z" fill="#1B1B1B" fill-opacity="1.000000" fill-rule="evenodd"/>
	<path id="[Copy] Доставим" d="M100.47 17.2707C102.806 17.5226 104.538 18.2201 105.667 19.3633C106.801 20.5019 107.256 22.1095 107.033 24.186L105.784 35.7673L102.475 35.4105L101.804 32.9573L101.68 32.9438C100.834 33.7955 99.9735 34.389 99.0991 34.7243C98.23 35.0601 97.0731 35.1502 95.6283 34.9944C94.08 34.8274 92.8444 34.2384 91.9214 33.2274C91.0036 32.2169 90.6455 30.777 90.8471 28.9076C91.0459 27.0641 91.84 25.772 93.2295 25.0313C94.619 24.2906 96.6102 24.0181 99.2031 24.2139L102.243 24.4396L102.325 23.6784C102.424 22.767 102.255 22.0731 101.819 21.5965C101.389 21.1205 100.749 20.8367 99.8994 20.7451C99.0553 20.6541 98.2162 20.6868 97.3822 20.843C96.5481 20.9993 95.7102 21.2154 94.8685 21.4913L93.654 18.1072C94.6386 17.721 95.7127 17.4518 96.8763 17.2996C98.04 17.1475 99.238 17.1378 100.47 17.2707ZM100.089 27.0754C98.5569 26.9521 97.4655 27.1147 96.8147 27.5631C96.1696 28.0069 95.8027 28.6405 95.7139 29.4639C95.6357 30.1888 95.7925 30.727 96.1842 31.0783C96.5759 31.4296 97.1109 31.6418 97.7892 31.715C98.8042 31.8244 99.6936 31.6165 100.457 31.0912C101.227 30.5612 101.671 29.7448 101.79 28.6418L101.944 27.2126L100.089 27.0754Z" fill="#1B1B1B" fill-opacity="1.000000" fill-rule="evenodd"/>
	<path id="[Copy] Доставим" d="M125.264 28.5942C124.972 29.4906 124.444 30.1623 123.68 30.6091C122.922 31.0526 121.964 31.187 120.805 31.0124L120.763 31.1387C121.877 31.6546 122.677 32.353 123.162 33.2341C123.655 34.1117 123.736 35.0558 123.407 36.0661C123.096 37.0219 122.568 37.7949 121.823 38.3849C121.084 38.9715 120.108 39.3029 118.895 39.3791C117.682 39.4552 116.201 39.2088 114.452 38.6398L106.541 36.0647L111.947 19.4536L119.859 22.0287C121.161 22.4526 122.278 22.9668 123.21 23.5712C124.147 24.1773 124.812 24.8923 125.207 25.7164C125.601 26.5404 125.62 27.4997 125.264 28.5942ZM120.547 27.4616C120.876 26.4512 120.241 25.6857 118.641 25.1651L115.446 24.1254L114.378 27.409L117.052 28.2794C118.008 28.5905 118.778 28.6905 119.362 28.5793C119.947 28.4631 120.342 28.0905 120.547 27.4616ZM118.797 34.3027C119.008 33.6539 118.906 33.1004 118.491 32.6422C118.083 32.1806 117.371 31.7846 116.356 31.4541L113.377 30.4846L112.1 34.407L115.168 35.4056C116.025 35.6845 116.782 35.7582 117.438 35.6267C118.101 35.4919 118.554 35.0505 118.797 34.3027Z" fill="#1B1B1B" fill-opacity="1.000000" fill-rule="evenodd"/>
	<path id="[Copy] Доставим" d="M130.581 34.2702C130.395 34.5837 130.151 34.9631 129.851 35.4084C129.553 35.8492 129.248 36.3012 128.936 36.7644C128.628 37.2232 128.344 37.6242 128.086 37.9674C127.832 38.3134 127.653 38.5527 127.55 38.6853L140.737 32.2692L145.668 35.1972L136.748 50.2172L132.785 47.8636L136.347 41.8651C136.643 41.368 136.985 40.8323 137.374 40.2579C137.764 39.6836 138.135 39.15 138.489 38.6571C138.849 38.1624 139.121 37.7816 139.303 37.5146L126.155 43.9265L121.225 40.9985L130.144 25.9785L134.107 28.3321L130.581 34.2702Z" fill="#1B1B1B" fill-opacity="1.000000" fill-rule="evenodd"/>
	<path id="[Copy] Доставим" d="M163.645 52.9531L151.223 65.235L148.092 62.0684L154.192 56.0373C154.799 55.4367 155.401 54.8638 155.997 54.3184C156.597 53.7693 157.163 53.2791 157.696 52.8475L157.625 52.7753L144.763 58.7018L142.242 56.1518L148.292 43.2922L148.199 43.1978C147.761 43.7551 147.268 44.3269 146.72 44.913C146.175 45.4955 145.56 46.1255 144.875 46.8029L138.87 52.7407L135.739 49.574L148.161 37.292L152.912 42.0976L147.555 53.5136L159.075 48.3309L163.645 52.9531Z" fill="#1B1B1B" fill-opacity="1.000000" fill-rule="evenodd"/>
</svg>
