<svg width="48.000000" height="48.000000" viewBox="0 0 48 48" fill="none" xmlns="http://www.w3.org/2000/svg" xmlns:xlink="http://www.w3.org/1999/xlink">
	<desc>
			Created with Pixso.
	</desc>
	<defs/>
	<path id="image 35 (Traced)" d="M5.625 23.9831L5.625 25.3893L8.4375 25.3893L11.25 25.3893L11.25 23.9831L11.25 22.5768L8.4375 22.5768L5.625 22.5768L5.625 23.9831ZM31.0312 24.0768L31.0312 25.5768L31.2551 25.5768C31.5954 25.5768 33.023 26.0117 33.7194 26.3274C34.6473 26.7482 35.7756 27.5377 36.5497 28.3079C38.5138 30.2623 39.4673 32.6396 39.4684 35.5847L39.4688 36.6393L40.875 36.6393L42.2812 36.6393L42.2812 38.0456L42.2812 39.4518L29.625 39.4518L16.9688 39.4518L16.9688 38.0456L16.9688 36.6393L18.3617 36.6393L19.7546 36.6393L19.807 35.1628C19.8794 33.124 20.2385 31.8242 21.1633 30.253C22.5159 27.9551 25.0646 26.1324 27.597 25.652L28.2188 25.5341L28.2188 24.0554L28.2188 22.5768L29.625 22.5768L31.0312 22.5768L31.0312 24.0768ZM2.8125 29.6081L2.8125 31.0143L5.625 31.0143L8.4375 31.0143L8.4375 29.6081L8.4375 28.2018L5.625 28.2018L2.8125 28.2018L2.8125 29.6081ZM28.1727 28.3575C26.7755 28.6569 25.5944 29.3302 24.5592 30.4176C23.1671 31.88 22.5938 33.3929 22.5938 35.6041L22.5938 36.6393L29.625 36.6393L36.6562 36.6393L36.6562 35.6041C36.6562 33.8949 36.3098 32.6476 35.4852 31.3893C34.7375 30.2482 33.493 29.2151 32.2643 28.7159C31.0416 28.2191 29.4639 28.0809 28.1727 28.3575ZM0 35.2331L0 36.6393L2.8125 36.6393L5.625 36.6393L5.625 35.2331L5.625 33.8268L2.8125 33.8268L0 33.8268L0 35.2331Z" fill="#FFFFFF" fill-opacity="1.000000" fill-rule="evenodd"/>
	<rect id="Rectangle 2" x="19.000000" y="11.330017" width="4.000000" height="7.000000" fill="#FFFFFF" fill-opacity="1.000000"/>
	<path id="image 35 (Traced)" d="M28.2188 0.0482178C24.9938 0.393616 22.349 1.84601 20.4244 4.32819L19.7812 5.15771L19.7812 8.24225L19.7812 11.3268L16.9365 11.3268L14.0919 11.3268L14.0318 13.8815C13.9394 17.8129 13.6749 20.0262 12.7015 25.0143C11.3837 31.7679 11.2523 33.3157 11.2509 42.1003L11.25 47.9831L29.625 47.9831L48 47.9831L47.9995 42.1003C47.999 33.4566 47.846 31.6229 46.5946 25.2532C45.5287 19.8274 45.1907 16.8575 45.1884 12.8972L45.1875 11.3268L42.3281 11.3268L39.4688 11.3268L39.4688 8.24225L39.4688 5.15771L38.8273 4.32819C36.9532 1.90448 34.3918 0.467651 31.2656 0.0864868C30.4701 -0.0105591 28.946 -0.0296631 28.2188 0.0482178ZM31.9219 3.06714C33.5597 3.47253 34.9106 4.22229 36.0073 5.33423L36.6562 5.99225L36.6562 8.65955L36.6562 11.3268L38.0625 11.3268L39.4688 11.3268L39.4688 14.1393L39.4688 16.9518L38.0625 16.9518L36.6562 16.9518L36.6562 14.1393L36.6562 11.3268L29.625 11.3268L22.5938 11.3268L22.5938 14.1393L22.5938 16.9518L21.1875 16.9518L19.7812 16.9518L19.7812 14.1393L19.7812 11.3268L21.1875 11.3268L22.5938 11.3268L22.5943 8.67841L22.595 6.02997L22.9659 5.59723C23.38 5.11414 24.4807 4.25012 25.125 3.90259C25.9743 3.4444 27.1537 3.05414 28.1755 2.89325C29.0349 2.758 31.0508 2.85156 31.9219 3.06714ZM5.625 23.9831L5.625 25.3893L8.4375 25.3893L11.25 25.3893L11.25 23.9831L11.25 22.5768L8.4375 22.5768L5.625 22.5768L5.625 23.9831ZM31.0312 24.0768L31.0312 25.5768L31.2551 25.5768C31.5954 25.5768 33.023 26.0117 33.7194 26.3274C34.6473 26.7482 35.7756 27.5377 36.5497 28.3079C38.5138 30.2623 39.4673 32.6396 39.4684 35.5847L39.4688 36.6393L40.875 36.6393L42.2812 36.6393L42.2812 38.0456L42.2812 39.4518L29.625 39.4518L16.9688 39.4518L16.9688 38.0456L16.9688 36.6393L18.3617 36.6393L19.7546 36.6393L19.807 35.1628C19.8794 33.124 20.2385 31.8242 21.1633 30.253C22.5159 27.9551 25.0646 26.1324 27.597 25.652L28.2188 25.5341L28.2188 24.0554L28.2188 22.5768L29.625 22.5768L31.0312 22.5768L31.0312 24.0768ZM2.8125 29.6081L2.8125 31.0143L5.625 31.0143L8.4375 31.0143L8.4375 29.6081L8.4375 28.2018L5.625 28.2018L2.8125 28.2018L2.8125 29.6081ZM28.1727 28.3575C26.7755 28.6569 25.5944 29.3302 24.5592 30.4176C23.1671 31.88 22.5938 33.3929 22.5938 35.6041L22.5938 36.6393L29.625 36.6393L36.6562 36.6393L36.6562 35.6041C36.6562 33.8949 36.3098 32.6476 35.4852 31.3893C34.7375 30.2482 33.493 29.2151 32.2643 28.7159C31.0416 28.2191 29.4639 28.0809 28.1727 28.3575ZM0 35.2331L0 36.6393L2.8125 36.6393L5.625 36.6393L5.625 35.2331L5.625 33.8268L2.8125 33.8268L0 33.8268L0 35.2331Z" fill="#1B1B1B" fill-opacity="1.000000" fill-rule="evenodd"/>
</svg>
