<svg width="48.000000" height="48.000000" viewBox="0 0 48 48" fill="none" xmlns="http://www.w3.org/2000/svg" xmlns:xlink="http://www.w3.org/1999/xlink">
	<desc>
			Created with Pixso.
	</desc>
	<defs/>
	<path id="image 33 (Traced)" d="M21.8848 0.82312C21.7073 0.843933 21.168 0.903687 20.6863 0.955933C17.6448 1.28601 14.2766 2.42725 11.5588 4.04895C8.09973 6.11273 5.28827 8.92419 3.22449 12.3832C1.61609 15.0789 0.547791 18.2115 0.111938 21.5108C-0.0372925 22.6404 -0.0372925 26.0969 0.111938 27.2264C0.547791 30.5258 1.61609 33.6584 3.22449 36.354C5.28827 39.8131 8.09973 42.6245 11.5588 44.6884C14.2544 46.2968 17.387 47.365 20.6863 47.8008C21.8159 47.9501 25.2724 47.9501 26.402 47.8008C32.1423 47.0424 37.0081 44.5212 40.9791 40.2477C43.176 37.8835 44.8948 34.9428 45.9496 31.7437C46.781 29.2219 47.0922 27.2138 47.0922 24.3687C47.0922 22.2638 47.0033 21.3339 46.6255 19.4827C45.3301 13.1355 41.2521 7.46326 35.5295 4.04895C32.8614 2.45697 29.6796 1.36609 26.4941 0.95105C25.6857 0.845764 22.4564 0.756104 21.8848 0.82312ZM24.7426 9.12073C24.7426 10.1315 24.6111 10.5166 24.1551 10.842C23.7615 11.1227 22.933 11.1303 22.5599 10.8566C22.1132 10.5289 21.9772 10.1354 21.9772 9.16882L21.977 8.3042L21.3406 8.36688C19.842 8.51459 18.1545 9.04004 16.3997 9.90552C14.8065 10.6912 13.6653 11.4949 12.357 12.753C9.71362 15.2947 8.05511 18.5055 7.55939 22.0409L7.43982 22.8936L8.30438 22.8936C9.28857 22.8936 9.65656 23.0095 10.0113 23.431C10.3568 23.8417 10.42 24.3479 10.1903 24.867C9.9032 25.5162 9.591 25.6585 8.45392 25.6589C7.93719 25.6591 7.49591 25.6903 7.47308 25.7284C7.45044 25.7665 7.48456 26.1709 7.54889 26.6272C8.28937 31.8741 11.5989 36.47 16.3074 38.7902C18.08 39.6636 19.7618 40.195 21.2856 40.3633C21.5898 40.3969 21.9113 40.4445 22 40.4691C22.147 40.5099 22.1614 40.4185 22.1614 39.4429C22.1614 38.3072 22.231 38.0481 22.6366 37.6755C23.2858 37.0791 24.3713 37.3038 24.7974 38.123C24.887 38.2951 24.927 38.7028 24.927 39.4429C24.927 40.4188 24.9413 40.5098 25.0883 40.4681C25.1771 40.4431 25.5153 40.394 25.84 40.3591C26.7535 40.2609 28.3798 39.8289 29.4696 39.3948C31.4655 38.5999 33.1057 37.5414 34.6832 36.0303C37.512 33.3208 39.1622 29.9752 39.6281 26.0049L39.6902 25.4749L38.591 25.4749C37.6003 25.4749 37.4611 25.4542 37.1806 25.2653C36.7776 24.9937 36.4935 24.3365 36.58 23.8756C36.6572 23.4639 37.0373 23.0009 37.4341 22.835C37.6214 22.7568 38.0892 22.7092 38.6719 22.7092L39.6086 22.7092L39.546 22.1331C39.2644 19.5442 37.8851 16.3813 36.0786 14.1819C33.4688 11.0045 29.834 8.94916 25.8027 8.37134C25.2957 8.29871 24.8498 8.2384 24.8118 8.23749C24.7737 8.23657 24.7426 8.63397 24.7426 9.12073ZM15.9557 14.9697C16.0984 15.0228 17.8642 16.713 19.8795 18.7258L23.5438 22.3853L25.4568 20.4765C27.5114 18.4265 27.7956 18.2231 28.4516 18.3339C28.9532 18.4188 29.4945 18.9622 29.5798 19.4667C29.6966 20.1584 29.4863 20.4321 26.7587 23.1391C24.5933 25.2883 24.1865 25.6525 23.8899 25.7076C23.0433 25.8652 23.2087 25.9997 18.5792 21.3885C16.1426 18.9615 14.2505 17.0044 14.1772 16.8353C13.671 15.6656 14.7586 14.5248 15.9557 14.9697Z" fill="#FFFFFF" fill-opacity="1.000000" fill-rule="evenodd"/>
	<path id="image 33 (Traced)" d="M21.8848 0.82312C21.7073 0.843933 21.168 0.903687 20.6863 0.955933C17.6448 1.28601 14.2767 2.42725 11.5588 4.04895C8.09973 6.11273 5.28827 8.92419 3.22449 12.3832C1.61609 15.0789 0.547791 18.2115 0.111938 21.5108C-0.0372925 22.6404 -0.0372925 26.0969 0.111938 27.2264C0.547791 30.5258 1.61609 33.6584 3.22449 36.354C5.28827 39.8131 8.09973 42.6245 11.5588 44.6884C14.2544 46.2968 17.387 47.365 20.6863 47.8008C21.8159 47.9501 25.2724 47.9501 26.402 47.8008C32.1423 47.0424 37.0081 44.5212 40.9791 40.2477C43.176 37.8835 44.8948 34.9428 45.9496 31.7437C46.7811 29.2219 47.0922 27.2138 47.0922 24.3687C47.0922 22.2638 47.0033 21.3339 46.6255 19.4827C45.3301 13.1355 41.2521 7.46326 35.5295 4.04895C32.8614 2.45697 29.6796 1.36609 26.4941 0.95105C25.6857 0.845764 22.4564 0.756104 21.8848 0.82312ZM26.3098 5.61688C29.4523 6.07587 32.4276 7.34351 35.0991 9.36163C36.0647 10.0911 37.8217 11.8481 38.5512 12.8138C41.1851 16.3005 42.4782 20.1054 42.4782 24.3687C42.4782 26.769 42.1221 28.8004 41.3415 30.8541C40.2781 33.6519 38.9691 35.6895 36.9171 37.7415C33.9706 40.6879 30.4045 42.4939 26.2637 43.1364C24.8881 43.3498 22.2003 43.3498 20.8246 43.1364C17.5598 42.6298 14.6672 41.3985 11.9893 39.3757C11.0236 38.6462 9.2666 36.8892 8.53711 35.9235C6.51428 33.2457 5.28302 30.353 4.77643 27.0881C4.56287 25.7112 4.56293 23.0242 4.77679 21.6491C5.28137 18.4041 6.5296 15.4714 8.53711 12.8138C9.2666 11.8481 11.0236 10.0911 11.9893 9.36163C16.1904 6.18805 21.2186 4.87317 26.3098 5.61688ZM24.7426 9.12073C24.7426 10.1315 24.6111 10.5166 24.1551 10.842C23.7615 11.1227 22.933 11.1303 22.5599 10.8566C22.1132 10.5289 21.9772 10.1354 21.9772 9.16882L21.977 8.3042L21.3406 8.36688C19.842 8.51459 18.1545 9.04004 16.3997 9.90552C14.8065 10.6912 13.6653 11.4949 12.357 12.753C9.71362 15.2947 8.05511 18.5055 7.55939 22.0409L7.43982 22.8936L8.30438 22.8936C9.28857 22.8936 9.65656 23.0095 10.0113 23.431C10.3568 23.8417 10.42 24.3479 10.1903 24.867C9.9032 25.5162 9.591 25.6585 8.45392 25.6589C7.93719 25.6591 7.49591 25.6903 7.47308 25.7284C7.45044 25.7665 7.48456 26.1709 7.54889 26.6272C8.28937 31.8741 11.5989 36.47 16.3074 38.7902C18.08 39.6636 19.7618 40.195 21.2856 40.3633C21.5898 40.3969 21.9113 40.4445 22 40.4691C22.147 40.5099 22.1614 40.4185 22.1614 39.4429C22.1614 38.3072 22.231 38.048 22.6366 37.6755C23.2858 37.0791 24.3713 37.3038 24.7974 38.123C24.887 38.2951 24.927 38.7028 24.927 39.4429C24.927 40.4188 24.9413 40.5098 25.0883 40.4681C25.1771 40.4431 25.5153 40.394 25.84 40.3591C26.7535 40.2609 28.3798 39.8289 29.4696 39.3948C31.4655 38.5999 33.1057 37.5414 34.6832 36.0303C37.512 33.3208 39.1622 29.9752 39.6281 26.0049L39.6902 25.4749L38.591 25.4749C37.6003 25.4749 37.4611 25.4542 37.1806 25.2653C36.7776 24.9937 36.4935 24.3365 36.58 23.8756C36.6572 23.4639 37.0373 23.0009 37.4341 22.835C37.6214 22.7568 38.0892 22.7092 38.6719 22.7092L39.6086 22.7092L39.546 22.1331C39.2645 19.5442 37.8851 16.3813 36.0786 14.1819C33.4688 11.0045 29.834 8.94916 25.8027 8.37134C25.2957 8.29871 24.8498 8.2384 24.8118 8.23749C24.7737 8.23657 24.7426 8.63397 24.7426 9.12073ZM15.9557 14.9697C16.0984 15.0228 17.8642 16.713 19.8795 18.7258L23.5438 22.3853L25.4568 20.4765C27.5114 18.4265 27.7956 18.2231 28.4516 18.3339C28.9532 18.4188 29.4945 18.9622 29.5798 19.4667C29.6966 20.1584 29.4863 20.4321 26.7587 23.1391C24.5933 25.2883 24.1865 25.6525 23.8899 25.7076C23.0433 25.8652 23.2087 25.9997 18.5792 21.3885C16.1426 18.9615 14.2505 17.0044 14.1772 16.8353C13.671 15.6656 14.7586 14.5248 15.9557 14.9697Z" fill="#1B1B1B" fill-opacity="1.000000" fill-rule="evenodd"/>
</svg>
