<svg width="48.000000" height="48.000000" viewBox="0 0 48 48" fill="none" xmlns="http://www.w3.org/2000/svg" xmlns:xlink="http://www.w3.org/1999/xlink">
	<desc>
			Created with Pixso.
	</desc>
	<defs/>
	<path id="Vector" d="M31.6196 7.05524C32.2189 11.2311 32.1094 15.4816 31.2959 19.6193L1.45618 21L0.93042 20.1163L0 18.5562C12.041 11.1972 17.9065 9.85797 31.6196 7L31.6196 7.05524ZM10.9893 15.9468C11.1641 15.9385 11.3374 15.984 11.4868 16.0775C11.6361 16.1709 11.7548 16.308 11.8273 16.4711C11.8999 16.6342 11.9231 16.8157 11.8939 16.9925C11.8649 17.1692 11.7848 17.3329 11.6639 17.4626C11.5431 17.5923 11.3872 17.682 11.2162 17.7201C11.0452 17.7582 10.8668 17.743 10.7043 17.6765C10.5419 17.61 10.4025 17.4951 10.3043 17.3468C10.2061 17.1984 10.1534 17.0234 10.1533 16.8442C10.1497 16.6121 10.2352 16.3879 10.3917 16.22C10.5481 16.0521 10.7627 15.954 10.9893 15.9468ZM11.1781 15.0769C11.4846 15.0631 11.7882 15.1436 12.0497 15.308C12.3112 15.4724 12.5186 15.7131 12.6454 15.9991C12.7721 16.2853 12.8123 16.6037 12.7609 16.9135C12.7094 17.2231 12.5685 17.51 12.3564 17.7371C12.1444 17.9642 11.8708 18.1211 11.571 18.1876C11.2711 18.2542 10.9587 18.2273 10.674 18.1105C10.389 17.9936 10.1449 17.7922 9.97278 17.532C9.80066 17.272 9.70862 16.965 9.70837 16.6509C9.70117 16.243 9.85144 15.8489 10.1268 15.5541C10.4021 15.2593 10.7799 15.0878 11.1781 15.0769Z" fill="#1B1B1B" fill-opacity="1.000000" fill-rule="evenodd"/>
	<path id="Vector" d="M11.1781 15.0769C11.4846 15.0631 11.7882 15.1436 12.0497 15.308C12.3112 15.4724 12.5186 15.7131 12.6454 15.9991C12.7721 16.2853 12.8123 16.6037 12.7609 16.9135C12.7094 17.2231 12.5685 17.51 12.3564 17.7371C12.1444 17.9642 11.8708 18.1211 11.571 18.1876C11.2711 18.2542 10.9587 18.2273 10.674 18.1105C10.389 17.9936 10.1449 17.7922 9.97278 17.532C9.80066 17.272 9.70862 16.965 9.70837 16.6509C9.70117 16.243 9.85144 15.8489 10.1268 15.5541C10.4021 15.2593 10.7799 15.0878 11.1781 15.0769ZM11.4868 16.0775C11.3374 15.984 11.1641 15.9385 10.9893 15.9468C10.7627 15.954 10.5481 16.0521 10.3917 16.22C10.2352 16.3879 10.1497 16.6121 10.1533 16.8442C10.1534 17.0234 10.2061 17.1984 10.3043 17.3468C10.4025 17.4951 10.5419 17.61 10.7043 17.6765C10.8668 17.743 11.0452 17.7582 11.2162 17.7201C11.3872 17.682 11.5431 17.5923 11.6639 17.4626C11.7848 17.3329 11.8649 17.1692 11.8939 16.9925C11.9231 16.8157 11.8999 16.6342 11.8273 16.4711C11.7548 16.308 11.6361 16.1709 11.4868 16.0775Z" fill="#FFFFFF" fill-opacity="1.000000" fill-rule="evenodd"/>
	<path id="Vector" d="M41 12.0753C38.869 9.95166 36.2069 8.53577 33.3373 8C33.4858 12.6387 33.0359 17.2772 32 21.7845L33.6449 23C36.1991 21.5701 40.1307 15.45 40.9733 12.0753L41 12.0753Z" fill="#1B1B1B" fill-opacity="1.000000" fill-rule="evenodd"/>
	<path id="Vector" d="M46.9613 21.5941C46.2972 18.6846 44.8473 16.0449 42.7897 14C41 18.6659 38.7983 21.0742 35 24.0981L35.7339 26C40.3691 25.5758 43.4592 24.8917 47 21.5394L46.9613 21.5941Z" fill="#1B1B1B" fill-opacity="1.000000" fill-rule="evenodd"/>
	<path id="Vector" d="M45.9846 34C47.7208 30.9116 48.3572 27.4217 47.8082 24C43.5671 26.4273 40.3862 26.933 35.4666 26.9836L35 28.8167C37.474 31.0038 39.5239 32.6094 45.9846 34Z" fill="#1B1B1B" fill-opacity="1.000000" fill-rule="evenodd"/>
	<path id="Vector" d="M44 36.0264C40.5077 35.2549 37.3251 33.5075 34.8456 31C33.8792 33.2397 31.5704 35.4144 26.8724 35.1149C27.1239 36.8967 26.8201 38.7108 26 40.3236C34.2147 44.2302 39.4229 40.7012 44 35.9613L44 36.0264Z" fill="#1B1B1B" fill-opacity="1.000000" fill-rule="evenodd"/>
	<path id="Vector" d="M24.6809 40C25.17 39.5565 26.6512 38.2812 25.6729 34.8158L10.5358 26L10.957 30.5881L4 33.4297L24.6945 40L24.6809 40Z" fill="#1B1B1B" fill-opacity="1.000000" fill-rule="evenodd"/>
	<path id="Vector" d="M33.4873 25.1633C30.2227 26.619 28.7117 27.4218 27.7943 31C29.5635 29.2707 31.6796 27.9438 34 27.1088C33.9332 26.4369 33.7601 25.78 33.4873 25.1633ZM28.0912 21C28.8676 21.1585 29.6171 21.4288 30.317 21.8027C26.877 24.9319 26.27 25.2993 24.1116 29.4762C23.5719 25.3946 25.0018 24.2381 28.1587 21L28.0912 21ZM31.855 22.9456C32.2727 23.3491 32.6355 23.8066 32.9342 24.3061C30.1199 25.7008 27.6914 27.7761 25.8652 30.3469C26.1216 26.2653 27.7269 25.381 31.3828 22.7959L31.855 23L31.855 22.9456Z" fill="#1B1B1B" fill-opacity="1.000000" fill-rule="evenodd"/>
</svg>
