<svg width="48.000000" height="48.000000" viewBox="0 0 48 48" fill="none" xmlns="http://www.w3.org/2000/svg" xmlns:xlink="http://www.w3.org/1999/xlink">
	<desc>
			Created with Pixso.
	</desc>
	<defs/>
	<rect id="Rectangle 4" x="10.000000" y="24.000000" width="29.000000" height="21.000000" fill="#FFFFFF" fill-opacity="1.000000"/>
	<path id="Rectangle 5" d="M2.33008 18L45 18L45 21L2.33008 21L2.33008 18Z" fill="#FFFFFF" fill-opacity="1.000000" fill-rule="nonzero"/>
	<path id="image 31 (Traced)" d="M16.1672 0.132996C14.8909 0.412598 13.9392 0.950684 13.053 1.89362C11.3998 3.65283 11.0179 6.27014 12.0941 8.46808L12.3798 9.05164L15.1178 9.04425L17.8557 9.03687L17.005 8.82141C15.9144 8.5451 15.4833 8.32159 15.0111 7.7876C14.049 6.69965 14.0756 4.93878 15.0712 3.81006C15.4916 3.33356 16.3605 2.90045 17.0372 2.83002C18.0829 2.72125 19.1138 3.1463 19.675 3.9176C20.1783 4.60913 20.7111 6.26959 20.9928 8.0246L21.1501 9.00494L22.5421 9.03088L23.9342 9.05676L23.8755 8.36584C23.7494 6.88116 23.0486 4.25073 22.4794 3.12592C21.3057 0.806824 18.7096 -0.424194 16.1672 0.132996ZM29.3469 0.139954C28.3884 0.34491 27.2583 0.949646 26.5886 1.61633C25.4371 2.76251 24.5564 5.03955 24.1418 7.94214C24.0658 8.47534 24.0027 8.94312 24.0017 8.98163C24.0007 9.02008 24.6323 9.05164 25.4053 9.05164C26.7883 9.05164 26.8113 9.04828 26.8507 8.84155C26.8727 8.72607 26.9562 8.2323 27.0363 7.74445C27.3286 5.96173 27.9875 4.16833 28.5592 3.59894C29.3357 2.82574 30.834 2.59552 31.8877 3.08728C33.7131 3.93896 34.245 6.31647 32.9476 7.82513C32.524 8.31775 32.0728 8.5481 30.995 8.82214L30.1443 9.03839L32.8646 9.02167L35.585 9.00494L35.8884 8.39807C36.3619 7.45081 36.5056 6.74127 36.455 5.59808C36.4222 4.85895 36.3505 4.44421 36.1643 3.91846C35.1875 1.15845 32.2357 -0.4776 29.3469 0.139954ZM0.632812 12.0647C0.0184326 12.4731 -0.0224609 12.6675 0.00671387 15.044C0.0351562 17.3701 0.0412598 17.3958 0.678467 17.8693L0.937622 18.0618L24 18.0618L47.0624 18.0618L47.3215 17.8693C47.9587 17.3958 47.9648 17.3701 47.9933 15.044C48.0225 12.6675 47.9816 12.4731 47.3672 12.0647L47.0485 11.8527L24 11.8527L0.951538 11.8527L0.632812 12.0647ZM2.33093 32.4362C2.33093 40.5523 2.36182 44.109 2.43542 44.4575C2.77332 46.0568 4.07336 47.35 5.68909 47.6942C8.53015 48.2993 41.5985 47.8451 42.3109 47.6958C43.9028 47.3621 45.2323 46.0392 45.5649 44.4575C45.6381 44.1104 45.6691 40.5201 45.6691 32.4362L45.6691 20.9095L24 20.9095L2.33093 20.9095L2.33093 32.4362ZM17.6107 26.0506C19.1282 26.3988 20.4551 27.7195 20.8049 29.2299C21.3398 31.5393 19.7463 33.8699 17.3534 34.2784C15.5891 34.5795 13.7574 33.655 12.9501 32.0557C12.0962 30.3644 12.3883 28.545 13.7279 27.2117C14.7847 26.1599 16.2184 25.7311 17.6107 26.0506ZM28.4055 26.6285C29.0514 26.9581 29.363 27.8154 29.0526 28.4086C28.713 29.0576 21.4099 41.6215 21.2872 41.7679C21.2056 41.8653 20.9574 42.0257 20.7356 42.1245C19.5687 42.644 18.4008 41.3588 18.9952 40.2091C19.5531 39.13 26.6045 27.0685 26.7997 26.8594C27.2271 26.4016 27.7996 26.3192 28.4055 26.6285ZM16.025 28.9229C15.656 29.1152 15.2761 29.7548 15.2761 30.1836C15.2761 30.8406 16.0256 31.5537 16.7166 31.5537C17.1614 31.5537 17.6947 31.2125 17.9117 30.789C18.5374 29.5685 17.243 28.2883 16.025 28.9229ZM32.3247 34.4874C33.9913 34.929 35.1752 36.2258 35.4688 37.9315C35.7657 39.6579 34.7606 41.5529 33.1497 42.3032C31.45 43.095 29.6523 42.7954 28.3552 41.5043C26.6265 39.7835 26.6814 37.1148 28.4794 35.472C29.5322 34.5099 30.9957 34.1352 32.3247 34.4874ZM30.6807 37.3112C30.0123 37.639 29.7203 38.5547 30.0751 39.21C30.2668 39.5643 30.9146 39.957 31.3071 39.957C31.7633 39.957 32.3248 39.5981 32.5306 39.1749C32.7686 38.6857 32.7708 38.4348 32.5413 37.9317C32.2345 37.259 31.3728 36.9716 30.6807 37.3112Z" fill="#1B1B1B" fill-opacity="1.000000" fill-rule="evenodd"/>
</svg>
