<svg width="40.000000" height="20.000000" viewBox="0 0 40 20" fill="none" xmlns="http://www.w3.org/2000/svg" xmlns:xlink="http://www.w3.org/1999/xlink">
	<desc>
			Created with Pixso.
	</desc>
	<defs/>
	<rect id="03" width="40.000000" height="20.000000" fill="#FFFFFF" fill-opacity="0"/>
	<path id="Vector" d="M0 10.8657L15.3481 9.99103L38.2207 1L40 3.54669L21.7793 9.70312L39.1104 8.9502L38.7246 12.0394L15.5308 11.8069L1.64014 17L1.08252 15.8928L12.0898 11.663L0.171387 11.8069L0 10.8325L0 10.8657Z" fill="#E07153" fill-opacity="1.000000" fill-rule="evenodd"/>
	<circle id="Ellipse 15" cx="20.000000" cy="10.000000" r="10.000000" fill="#1B1B1B" fill-opacity="1.000000"/>
	<path id="3" d="M20.0162 15.6401C22.0943 15.6401 23.6187 14.396 23.6153 12.7075C23.6187 11.4189 22.8394 10.4927 21.4859 10.2842L21.4859 10.2056C22.5489 9.93213 23.2427 9.09814 23.2359 7.95312C23.2427 6.45605 22.0123 5.17773 20.0538 5.17773C18.1841 5.17773 16.6836 6.30908 16.6358 7.96338L18.1192 7.96338C18.1568 7.02686 19.0352 6.46289 20.0332 6.46289C21.0723 6.46289 21.7559 7.0918 21.7491 8.03174C21.7559 9.01611 20.9629 9.66211 19.835 9.66211L18.9771 9.66211L18.9771 10.9165L19.835 10.9165C21.2466 10.9165 22.0635 11.6309 22.0635 12.6562C22.0635 13.644 21.2022 14.3174 20.0059 14.3174C18.9019 14.3174 18.0406 13.75 17.9825 12.8442L16.4205 12.8442C16.4854 14.5054 17.9551 15.6401 20.0162 15.6401Z" fill="#FFFFFF" fill-opacity="1.000000" fill-rule="evenodd"/>
</svg>
