<svg width="40.000000" height="20.000000" viewBox="0 0 40 20" fill="none" xmlns="http://www.w3.org/2000/svg" xmlns:xlink="http://www.w3.org/1999/xlink">
	<desc>
			Created with Pixso.
	</desc>
	<defs/>
	<rect id="02" width="40.000000" height="20.000000" fill="#FFFFFF" fill-opacity="0"/>
	<path id="Vector" d="M0 10.8657L15.3481 9.99103L38.2207 1L40 3.54669L21.7793 9.70312L39.1104 8.9502L38.7246 12.0394L15.5308 11.8069L1.64014 17L1.08252 15.8928L12.0898 11.663L0.171387 11.8069L0 10.8325L0 10.8657Z" fill="#E07153" fill-opacity="1.000000" fill-rule="evenodd"/>
	<circle id="Ellipse 15" cx="20.000000" cy="10.000000" r="10.000000" fill="#1B1B1B" fill-opacity="1.000000"/>
	<path id="2" d="M16.688 15.5L23.3872 15.5L23.3872 14.1841L18.8037 14.1841L18.8037 14.1089L20.8271 11.9897C22.6934 10.1064 23.2231 9.20752 23.2231 8.06592C23.2231 6.43213 21.8901 5.17773 19.9727 5.17773C18.0688 5.17773 16.6777 6.41162 16.6777 8.271L18.144 8.271C18.1372 7.17725 18.8447 6.46289 19.9419 6.46289C20.9775 6.46289 21.7637 7.09863 21.7637 8.11377C21.7637 9.0127 21.2271 9.65869 20.1333 10.8174L16.688 14.3857L16.688 15.5Z" fill="#FFFFFF" fill-opacity="1.000000" fill-rule="evenodd"/>
</svg>
