<svg width="40.000000" height="20.000000" viewBox="0 0 40 20" fill="none" xmlns="http://www.w3.org/2000/svg" xmlns:xlink="http://www.w3.org/1999/xlink">
	<desc>
			Created with Pixso.
	</desc>
	<defs/>
	<rect id="04" width="40.000000" height="20.000000" fill="#FFFFFF" fill-opacity="0"/>
	<path id="Vector" d="M0 10.8657L15.3481 9.99097L38.2207 1L40 3.54675L21.7793 9.70312L39.1104 8.9502L38.7246 12.0394L15.5308 11.8069L1.64014 17L1.08252 15.8927L12.0898 11.663L0.171387 11.8069L0 10.8325L0 10.8657Z" fill="#E07153" fill-opacity="1.000000" fill-rule="evenodd"/>
	<circle id="Ellipse 15" cx="20.000000" cy="10.000000" r="10.000000" fill="#1B1B1B" fill-opacity="1.000000"/>
	<path id="4" d="M16.1868 13.5107L21.013 13.5107L21.013 15.5L22.4793 15.5L22.4793 13.5107L23.8294 13.5107L23.8294 12.2085L22.4793 12.2085L22.4793 5.31787L20.5857 5.31787L16.1868 12.27L16.1868 13.5107ZM21.0232 12.2085L17.7967 12.2085L17.7967 12.1299L20.9446 7.14648L21.0232 7.14648L21.0232 12.2085Z" fill="#FFFFFF" fill-opacity="1.000000" fill-rule="evenodd"/>
</svg>
