<svg width="40.000000" height="64.000000" viewBox="0 0 40 64" fill="none" xmlns="http://www.w3.org/2000/svg" xmlns:xlink="http://www.w3.org/1999/xlink">
	<desc>
			Created with Pixso.
	</desc>
	<defs>
		<clipPath id="clip850_23018">
			<rect id="ic 1" width="40.000000" height="64.000000" fill="white" fill-opacity="0"/>
		</clipPath>
	</defs>
	<rect id="ic 1" width="40.000000" height="64.000000" fill="#FFFFFF" fill-opacity="0"/>
	<g clip-path="url(#clip850_23018)">
		<path id="Vector" d="M11.4414 19.6849C11.5 19.6849 11.5586 19.6562 11.6182 19.6276C11.7646 19.5418 11.8232 19.3415 11.7354 19.1985C10.6182 17.3959 10.2646 15.9653 10.7354 15.1356C11.2646 14.22 12.5879 14.077 13.3535 14.0484C13.5293 14.0484 13.6768 13.9053 13.6768 13.7336C13.6768 13.562 13.5293 13.4189 13.3535 13.4189C12.4707 13.4189 10.8535 13.6192 10.1768 14.8209C9.55859 15.8795 9.91211 17.4818 11.1768 19.5132C11.2061 19.6276 11.3232 19.6849 11.4414 19.6849Z" fill="#3C2012" fill-opacity="1.000000" fill-rule="nonzero"/>
		<path id="Vector" d="M26.5586 63.6611C27.0293 64.0045 27.4121 63.4894 27.4121 63.4894L8.5 1.4592C7.26465 1.2303 6 2.17448 6 2.17448L26.5586 63.6611Z" fill="#EEC357" fill-opacity="1.000000" fill-rule="evenodd"/>
		<path id="Vector" d="M26.8232 63.7756C26.8818 63.7756 26.9414 63.7756 27 63.7756L8.70605 6.86682L7 1.63087C6.82324 1.71671 6.67676 1.77394 6.5293 1.85977L26.7061 63.2892L26.8232 63.7756Z" fill="#F5E0B3" fill-opacity="1.000000" fill-rule="evenodd"/>
		<path id="Vector" d="M26.5586 63.6611C26.7061 63.7756 26.8525 63.8042 26.9707 63.7756L6.91211 1.6881C6.38281 1.88838 6 2.1745 6 2.1745L26.5586 63.6611Z" fill="#F3D99A" fill-opacity="1.000000" fill-rule="evenodd"/>
		<path id="Vector" d="M11.4707 21.2013C11.4707 21.2013 10.7061 21.2299 10.6475 20.6863C10.5879 20.1427 10.6475 18.9696 11.7939 19.084C12.9414 19.1985 13.0586 19.6563 12.7061 19.9996C12.3525 20.343 12.0879 20.0568 12.0879 20.0568C12.0879 20.0568 12.3525 21.1155 11.4707 21.2013Z" fill="#3C2012" fill-opacity="1.000000" fill-rule="evenodd"/>
		<path id="Vector" d="M17.2939 27.3814C17.3828 27.3814 17.4707 27.3528 17.5293 27.267C17.6475 27.1239 17.6182 26.9523 17.4707 26.8378C14.2939 24.32 15.2939 18.5976 15.2939 18.5404C15.3232 18.3687 15.2061 18.2257 15.0293 18.1685C14.8535 18.1398 14.7061 18.2543 14.6475 18.426C14.5889 18.6835 13.5889 24.5775 17.0293 27.3242C17.1475 27.3528 17.2354 27.3814 17.2939 27.3814Z" fill="#3C2012" fill-opacity="1.000000" fill-rule="nonzero"/>
		<path id="Vector" d="M17.2939 26.8378C17.2939 26.8378 15.2354 27.5531 15.8525 28.6404C16.4414 29.7276 17.9121 27.9251 18.1172 27.6962C18.2939 27.4673 17.9707 26.6662 17.2939 26.8378Z" fill="#3C2012" fill-opacity="1.000000" fill-rule="evenodd"/>
		<path id="Vector" d="M26.5303 27.8392C26.5596 27.8392 26.5889 27.8392 26.6182 27.8392C26.7949 27.782 26.8828 27.6389 26.8535 27.4673C25.7949 23.5475 28.4414 18.5404 28.4707 18.4832C28.5596 18.3401 28.5 18.1398 28.3242 18.054C28.1768 17.9682 27.9707 18.0254 27.8828 18.1971C27.7646 18.3974 25.1182 23.4616 26.2061 27.6103C26.2646 27.7534 26.3828 27.8392 26.5303 27.8392Z" fill="#3C2012" fill-opacity="1.000000" fill-rule="nonzero"/>
		<path id="Vector" d="M26.6768 27.3528C26.6768 27.3528 24.5889 26.752 24.4121 27.9823C24.2354 29.2126 26.5 28.5831 26.7949 28.5259C27.0889 28.4401 27.3242 27.6103 26.6768 27.3528Z" fill="#3C2012" fill-opacity="1.000000" fill-rule="evenodd"/>
		<path id="Vector" d="M11.6172 5.72234C11.2354 6.26596 10.9404 7.00986 11.3232 9.75659C11.6172 11.8452 12.0293 15.1928 12.4111 17.7393C12.8818 20.8579 13.2051 22.1169 16.6758 22.403C19.5 22.6319 26.2646 22.1169 29.3525 20.5718C30.5293 19.9996 31.5586 18.2257 31.3232 16.5662C31.1758 15.3645 29.8232 4.6637 29.8232 4.6637C29.8232 4.6637 29.8232 2.37476 27.3525 2.06003C25.2646 1.71669 14.7646 1.80252 11.6172 5.72234Z" fill="#2E5753" fill-opacity="1.000000" fill-rule="evenodd"/>
		<path id="Vector" d="M14.7051 22.0596C15.2051 22.2313 15.8525 22.3744 16.6758 22.4316C19.499 22.6605 26.2637 22.1455 29.3525 20.6004C30.0283 20.2571 30.6465 19.5418 31.0283 18.6548C31.0879 18.054 31.1172 17.2529 31.0283 16.509C30.8525 14.9639 29.6758 5.03564 29.6758 5.03564C29.6758 5.03564 29.3525 3.86256 28.5283 3.4334C27.7051 3.00421 25.3525 5.52205 25.3525 5.52205L22.0879 6.6093C22.0879 6.6093 25.9697 6.52345 26.4697 7.75377C26.4697 7.75377 27.8818 16.1942 27.7344 18.2543C27.5879 20.2857 25.793 20.8866 24.1465 21.1441C22.5283 21.4016 17.3818 22.6319 14.7051 22.0596Z" fill="#1E3E3B" fill-opacity="1.000000" fill-rule="evenodd"/>
		<path id="Vector" d="M17.9707 22.4602C21.2061 22.4888 26.6768 21.9166 29.3535 20.5718C29.7939 20.3716 30.2061 19.9996 30.5293 19.5132C30.6768 18.7693 30.7646 17.8537 30.6475 16.9381C30.3828 15.0498 29.3535 5.77957 29.3535 5.77957C29.3535 5.77957 29.0879 4.66371 28.7061 4.4062C28.3232 4.1487 26.1475 5.80818 26.1475 5.80818L26.2646 6.23735C26.2646 6.23735 27.3535 6.46625 27.5586 7.26738C27.7646 8.06851 29.0293 17.5962 29 18.5404C29 19.4846 27.8535 20.858 25.3828 21.3157C23.4121 21.6591 20.2061 22.3458 17.9707 22.4602Z" fill="#15312E" fill-opacity="1.000000" fill-rule="evenodd"/>
		<path id="Vector" d="M18.3818 2.80394C16.5586 3.2045 13.9414 3.94841 12.8818 4.94981C11.1758 6.58069 10.0879 7.86821 15.2939 7.8396C20.4707 7.81099 29.9111 6.49486 29.4707 4.00563C29.1172 1.94559 25.7646 2.03142 22.3818 2.26031C21 2.37476 19.7061 2.48921 18.3818 2.80394Z" fill="#718280" fill-opacity="1.000000" fill-rule="evenodd"/>
		<path id="Vector" d="M24.9707 3.86258C24.9707 3.86258 25.1182 3.94841 24.7646 4.06287C24.4121 4.17731 24.4121 4.03426 24.4121 4.03426C24.4121 4.03426 24.2939 4.34898 24.7061 4.32037C25.1182 4.26314 25.1768 3.9198 24.9707 3.86258Z" fill="#F1EFE5" fill-opacity="1.000000" fill-rule="evenodd"/>
		<path id="Vector" d="M17.7061 3.11868C16.0586 3.51924 14.0586 4.1487 13.1475 4.94983C11.4707 6.43764 10.4414 7.63934 15.4414 7.5535C20.4414 7.49628 29.5 6.23737 29.1182 3.97704C28.7646 2.14587 25.7061 2.1745 22.5 2.43199C20.8535 2.54645 19.3242 2.71811 17.7061 3.11868Z" fill="#FFFFFF" fill-opacity="1.000000" fill-rule="evenodd"/>
		<path id="Vector" d="M14.5 4.12009C13.9414 4.37758 13.4707 4.63509 13.1475 4.9212C11.4707 6.40903 10.4414 7.61072 15.4414 7.52487C20.4414 7.46765 29.5 6.20874 29.1182 3.94841C28.8242 2.28893 26.2646 2.17448 23.4121 2.34615C23.4707 2.37477 23.5586 2.40338 23.6475 2.43199C24 2.57504 23.8535 2.63226 24.2354 2.57504C24.5889 2.51782 24.5586 2.4606 24.7354 2.51782C24.9121 2.57504 25.2646 2.37477 25.2939 2.60365C25.2939 2.83255 24.8828 2.86116 25.2646 2.88977C25.6475 2.91838 25.4707 2.91838 25.6475 2.91838C25.8242 2.88977 26.1768 2.91838 26.1768 2.91838C26.1768 2.91838 26.5 2.63226 26.2939 2.88977C26.0889 3.14728 26.0293 3.14728 26.4121 3.17589C26.8242 3.2045 26.6475 3.11867 26.9414 3.26173C27.2646 3.40479 27.3535 3.4334 27.3535 3.4334C27.3535 3.4334 26.8828 3.4334 26.9414 3.66229C27 3.89119 26.9414 3.71951 26.9707 3.94841C27.0293 4.1487 26.5586 3.71951 26.6475 4.1487C26.7354 4.57787 26.9121 4.57787 26.7354 4.63509C26.5586 4.69232 26.8828 4.23453 26.2354 4.52065C25.6182 4.77815 25.4707 4.60648 25.4414 4.89259C25.4121 5.17871 25.1182 5.06427 24.9414 5.32178C24.7646 5.57928 24.5 5.57928 24.3535 5.55067C24.2061 5.49344 24.5586 5.17871 24.0889 5.52205C23.6475 5.8654 23.1475 5.29317 22.8242 5.63651C22.5 5.97984 21.8535 6.20874 21.8535 6.20874C21.8535 6.20874 21.1475 5.92262 20.9414 6.29457C20.7061 6.63791 20 6.46625 19.7646 6.55208C19.5586 6.58069 19.1475 6.63791 18.6475 6.29457C18.1768 5.97984 17.7061 5.8654 17.5 6.06567C17.2939 6.26596 17.4121 6.20874 16.8242 6.23735C16.2354 6.23735 16.0586 6.26596 16.0586 6.26596C16.0586 6.26596 15.7939 6.09428 15.5 6.20874C15.1768 6.32318 14.8828 5.92262 14.6768 6.09428C14.4707 6.26596 14.1768 6.00845 13.9707 6.15152C13.7646 6.29457 13.5 6.29457 13.2939 6.32318C13.0889 6.35179 12.9414 6.46625 12.9121 6.29457C12.8828 6.12289 12.3242 6.46625 12.9121 6.06567C13.5 5.66512 13.3828 5.43622 13.3828 5.43622C13.3828 5.43622 12.8535 5.40761 13.3535 5.1501C13.8535 4.89259 13.8535 4.80676 14.0586 4.74954C14.2354 4.69232 13.9707 4.94981 14.3535 4.43481C14.3828 4.32036 14.4414 4.23453 14.5 4.12009Z" fill="#F1EFE5" fill-opacity="1.000000" fill-rule="evenodd"/>
		<path id="Vector" d="M12.5 5.55067C11.3232 6.75237 11.1475 7.61072 15.4414 7.5535C20.4414 7.49628 29.5 6.23737 29.1182 3.97704C28.8828 2.6895 27.3232 2.34616 25.2939 2.31755C25.4414 2.43199 25.5889 2.51784 25.7354 2.60367C26.1475 2.83257 26.5586 2.60367 26.5586 2.60367C26.5586 2.60367 26.6182 2.71811 26.8232 2.9184C27.0586 3.11868 27.2061 2.86118 27.2061 2.86118C27.2061 2.86118 27.6475 3.03284 27.5586 3.26173C27.4414 3.49063 27.6475 3.43341 27.8232 3.54785C28 3.66231 28.3232 4.49205 28 4.46342C27.6475 4.46342 27.4414 4.09148 27.3232 4.37759C27.2061 4.66371 27.5293 5.12151 26.9707 5.17873C26.4414 5.20734 25.7939 5.03566 25.8232 5.40762C25.8535 5.77957 25.2061 6.15152 24.5293 6.12291C23.8828 6.0943 22.6182 6.29459 22.6475 6.46625C22.6768 6.63792 22.5 6.49487 21.7939 6.69514C21.1182 6.89543 20 6.89543 19.6768 7.03848C19.3828 7.18155 18.4414 7.43906 18.4121 7.03848C18.3828 6.63792 18 6.43764 17.5586 6.66653C17.1182 6.92404 16.6475 6.83821 16.4707 6.83821C16.2939 6.86682 16.1768 6.55209 15.6182 6.69514C15.0586 6.83821 14.9707 6.98126 14.9707 6.98126C14.9707 6.98126 14.9121 6.72375 14.5 6.78098C14.0889 6.83821 13.6768 6.86682 13.5889 6.95265C13.5 7.00987 13.2354 6.63792 12.7646 6.75237C12.2939 6.86682 12.3232 7.23877 12.2354 6.78098C12.1475 6.3232 12.0293 6.38042 12.2061 6.06569C12.2939 5.92264 12.4121 5.75096 12.5 5.55067Z" fill="#E7E5D8" fill-opacity="1.000000" fill-rule="evenodd"/>
		<path id="Vector" d="M26.207 3.37617C26.2656 3.37617 26.501 3.34756 26.5303 3.51924C26.5889 3.6909 26.5303 3.77675 26.4717 3.77675C26.4131 3.77675 26.207 3.80536 26.2363 3.74812C26.2656 3.6909 26.4131 3.66229 26.3242 3.57646C26.2363 3.51924 26.001 3.4334 26.001 3.4334L26.207 3.37617Z" fill="#F1EFE5" fill-opacity="1.000000" fill-rule="evenodd"/>
		<path id="Vector" d="M25.8232 4.03426C25.8232 4.03426 25.9707 4.12009 25.6172 4.23454C25.2646 4.34898 25.2646 4.20593 25.2646 4.20593C25.2646 4.20593 25.1465 4.52066 25.5586 4.49205C25.9707 4.43481 26.0293 4.09148 25.8232 4.03426Z" fill="#F1EFE5" fill-opacity="1.000000" fill-rule="evenodd"/>
		<path id="Vector" d="M24.9121 4.69232C24.9121 4.69232 25.0596 4.77815 24.7061 4.89261C24.3535 5.00705 24.3535 4.864 24.3535 4.864C24.3535 4.864 24.2354 5.17873 24.6475 5.15012C25.0596 5.12151 25.1182 4.74954 24.9121 4.69232Z" fill="#F1EFE5" fill-opacity="1.000000" fill-rule="evenodd"/>
		<path id="Vector" d="M25.3232 3.00421C25.3818 3.00421 25.6172 2.9756 25.6465 3.14728C25.6758 3.31894 25.6465 3.40479 25.5879 3.40479C25.5293 3.40479 25.3232 3.4334 25.3525 3.37617C25.3818 3.31894 25.5293 3.29033 25.4404 3.2045C25.3525 3.11867 25.1172 3.03282 25.1172 3.03282L25.3232 3.00421Z" fill="#F1EFE5" fill-opacity="1.000000" fill-rule="evenodd"/>
		<path id="Vector" d="M13.5586 5.49345C13.5586 5.49345 13.4414 5.60789 13.7939 5.63651C14.1768 5.63651 14.1475 5.52206 14.1475 5.52206C14.1475 5.52206 14.3525 5.80818 13.9414 5.8654C13.5293 5.92262 13.3818 5.60789 13.5586 5.49345Z" fill="#F1EFE5" fill-opacity="1.000000" fill-rule="evenodd"/>
		<path id="Vector" d="M14.9121 5.60789C14.9121 5.60789 14.9707 5.83679 15.1182 5.8654C15.2939 5.92264 15.5596 5.89401 15.5596 5.89401C15.5596 5.89401 15.2646 5.83679 15.1768 5.75096C15.0889 5.66513 14.8828 5.55067 14.9121 5.60789Z" fill="#F1EFE5" fill-opacity="1.000000" fill-rule="evenodd"/>
		<path id="Vector" d="M14.001 5.1501C14.001 5.1501 14.0303 5.29315 14.1182 5.32176C14.207 5.35037 14.3242 5.35037 14.3242 5.35037C14.3242 5.35037 14.1777 5.29315 14.1182 5.23593C14.0889 5.17871 14.001 5.09288 14.001 5.1501Z" fill="#F1EFE5" fill-opacity="1.000000" fill-rule="evenodd"/>
		<path id="Vector" d="M18.8818 3.49062C18.4697 3.60507 17.9404 3.6909 17.4111 3.80534C17.0576 3.89119 15.0283 4.57787 15.4111 5.55066C15.5576 5.89401 16.1172 6.12289 17.1758 6.20874C19.0283 6.35179 25.8525 5.66512 25.5576 4.09146C25.3525 2.94699 23.5576 2.97562 21.7051 3.09006C20.7344 3.14728 19.8232 3.23311 18.8818 3.49062Z" fill="#E7E5D8" fill-opacity="1.000000" fill-rule="evenodd"/>
		<path id="Vector" d="M18.9404 3.46201C18.5283 3.54785 18.0283 3.63368 17.5576 3.74812C17.2344 3.83397 15.293 4.46342 15.6465 5.379C15.7637 5.72234 16.3223 5.92262 17.293 6.00845C19.0283 6.15152 25.5283 5.49345 25.2637 4.00563C25.0869 2.9184 23.3818 2.94701 21.5869 3.06145C20.7051 3.14728 19.8223 3.23312 18.9404 3.46201Z" fill="#C94B17" fill-opacity="1.000000" fill-rule="evenodd"/>
		<path id="Vector" d="M18.8818 3.46201C18.7051 3.57646 18.5586 3.71951 18.5 3.80536C18.2646 4.06285 18.1465 4.23453 17.9707 4.9212C17.8818 5.29317 17.8818 5.72234 17.9111 6.00845C17.7354 6.00845 17.5879 6.00845 17.4707 6.00845C17.4404 5.55067 17.5 4.83537 17.8818 4.37759C18.1465 4.09148 18.3232 3.77673 18.4111 3.54785C18.5879 3.54785 18.7646 3.51924 18.8818 3.46201ZM17.0586 3.9198C17 4.09148 16.9111 4.26314 16.8232 4.34897C16.6172 4.57787 16.3818 4.9212 16.3525 5.17871C16.3525 5.29317 16.3525 5.57928 16.4111 5.8654C16.2939 5.83679 16.1758 5.80818 16.0879 5.75095C16.0879 5.63651 16.0879 5.49344 16.1172 5.379C16.1758 4.77815 16.4111 4.66371 16.7646 4.20592C16.8232 4.1487 16.8525 4.06285 16.8818 4.00563C16.9404 3.97702 17 3.94841 17.0586 3.9198ZM19.2939 5.97984C19.2646 5.75095 19.2051 5.35039 19.2646 4.94983C19.3232 4.34897 19.5586 4.23453 19.9111 3.77673C20.0293 3.60507 20.1465 3.40479 20.2051 3.23312C20.2354 3.23312 20.2939 3.23312 20.3525 3.2045C20.2354 3.46201 20.1465 3.77673 20 3.9198C19.7939 4.1487 19.5586 4.49203 19.5293 4.74954C19.5 4.9212 19.5879 5.63651 19.6465 5.95123C19.5293 5.95123 19.4111 5.97984 19.2939 5.97984ZM20.7354 5.83679C20.6758 5.40761 20.6758 4.52065 21.1172 4.00563C21.4111 3.66229 21.5879 3.29034 21.7051 3.09006C21.8525 3.09006 22 3.06145 22.1465 3.06145C21.9707 3.2045 21.8232 3.31895 21.7354 3.4334C21.5293 3.6909 21.3818 3.86258 21.2051 4.54926C21.0879 5.00705 21.1172 5.52206 21.1465 5.80817C21 5.77956 20.8818 5.80817 20.7354 5.83679ZM23.1465 4.4062C23.2354 4.03424 23.4111 3.83397 23.6465 3.54785C23.7354 3.40479 23.7939 3.23312 23.8232 3.09006C23.8818 3.09006 23.9404 3.11867 24 3.11867C23.9404 3.31895 23.8818 3.57646 23.7939 3.71951C23.6465 3.94841 23.5 4.17731 23.3818 4.63509C23.3232 4.86398 23.3818 5.1501 23.4404 5.35039C23.3232 5.379 23.2051 5.40761 23.0586 5.43622C23.0879 5.12149 23.0879 4.66371 23.1465 4.4062Z" fill="#D87B4A" fill-opacity="1.000000" fill-rule="evenodd"/>
		<path id="Vector" d="M18.9404 3.46201C18.5586 3.54784 18.0586 3.63368 17.5879 3.74812C17.2637 3.83395 15.3818 4.40619 15.7051 5.23593C15.8232 5.52205 16.3525 5.72234 17.3232 5.77956C19.0283 5.86539 25.3525 5.23593 25.1172 3.89119C24.9404 2.94699 23.293 2.9756 21.5586 3.09006C20.6758 3.14728 19.8232 3.23311 18.9404 3.46201Z" fill="#EE8744" fill-opacity="1.000000" fill-rule="evenodd"/>
		<path id="Vector" d="M18.9111 3.46201C18.7344 3.57646 18.5879 3.71951 18.5 3.83397C18.2646 4.09148 18.1465 4.26314 17.9697 4.94983C17.9111 5.20734 17.8818 5.52206 17.8818 5.77957C17.7344 5.77957 17.5879 5.77957 17.4404 5.77957C17.4404 5.35039 17.5293 4.80676 17.8525 4.43481C18.1172 4.12009 18.2939 3.80536 18.4111 3.57646C18.6172 3.51924 18.7646 3.49063 18.9111 3.46201ZM17.0586 3.89119C17 4.06287 16.9111 4.26314 16.8232 4.34898C16.6172 4.57787 16.3818 4.92122 16.3525 5.17871C16.3525 5.26456 16.3525 5.40761 16.3818 5.60789C16.2646 5.57928 16.1758 5.55067 16.1172 5.52206C16.1172 5.46483 16.1172 5.43622 16.1172 5.379C16.1758 4.77815 16.4111 4.66371 16.7646 4.20592C16.8232 4.12009 16.8818 4.03424 16.9111 3.97702C16.9697 3.94841 17 3.9198 17.0586 3.89119ZM19.2646 5.69373C19.2344 5.49344 19.2344 5.20734 19.2646 4.94983C19.3232 4.34898 19.5586 4.23453 19.9111 3.77675C20.0293 3.60507 20.1465 3.40479 20.2051 3.23312C20.2646 3.23312 20.2939 3.23312 20.3525 3.20451C20.2344 3.46201 20.1465 3.77675 20 3.9198C19.7939 4.1487 19.5586 4.49203 19.5293 4.74954C19.5 4.89259 19.5586 5.32178 19.6172 5.66512C19.4697 5.66512 19.3818 5.66512 19.2646 5.69373ZM20.7051 5.52206C20.7051 5.06427 20.7646 4.4062 21.1172 3.97702C21.4111 3.63368 21.6172 3.26173 21.7051 3.06145C21.8525 3.06145 22 3.03284 22.1465 3.03284C21.9697 3.17589 21.7939 3.29034 21.7344 3.40479C21.5293 3.66229 21.3818 3.83397 21.2051 4.52065C21.1172 4.83537 21.1172 5.17871 21.1172 5.46483C21 5.49344 20.8525 5.52206 20.7051 5.52206ZM23.1465 4.4062C23.2344 4.03424 23.4111 3.83397 23.6465 3.54785C23.7344 3.40479 23.7939 3.23312 23.8232 3.06145C23.8818 3.06145 23.9404 3.09006 24 3.09006C23.9111 3.29034 23.8818 3.54785 23.7939 3.6909C23.6465 3.9198 23.5 4.1487 23.3818 4.60648C23.3525 4.74954 23.3525 4.89259 23.3818 5.03566C23.2939 5.06427 23.2051 5.09288 23.0879 5.12149C23.0879 4.86398 23.1172 4.57787 23.1465 4.4062Z" fill="#F3A663" fill-opacity="1.000000" fill-rule="evenodd"/>
		<path id="Vector" d="M26.293 9.06992C26.293 9.06992 27.5283 17.6821 27.2051 18.7693C26.8818 19.8565 25.6758 20.486 24.4111 20.7721C23.1465 21.0582 22.4111 21.2013 22.4111 21.2013C22.4111 21.2013 21.8818 21.1154 22.6172 20.6291C23.3818 20.1427 26.6758 19.8279 26.5879 17.9109C26.499 15.994 26.2637 10.5005 26.1172 9.81381C25.999 9.09853 26.2344 8.326 26.293 9.06992Z" fill="#416260" fill-opacity="1.000000" fill-rule="evenodd"/>
		<path id="Vector" d="M12.5586 8.18294C12.5586 8.18294 11.7646 7.8396 11.7646 8.52628C11.7354 9.24158 12.0293 12.1314 12.3525 14.9353C12.6768 17.7393 13.2939 20.2857 13.9121 20.8293C14.5293 21.373 14.7354 20.5432 14.3232 19.7421C13.9121 18.941 13.7354 17.5676 13.3828 14.9639C13.0586 12.3889 12.7061 9.72798 13 9.2988C13.2939 8.86963 13.3525 8.44044 12.5586 8.18294Z" fill="#416260" fill-opacity="1.000000" fill-rule="evenodd"/>
		<path id="Vector" d="M14.4111 8.44044C13.9111 8.44044 13.9404 8.78378 14.3232 8.86961C14.7061 8.95546 15.9404 8.95546 16.2646 8.92685C16.5879 8.89822 16.2646 8.41183 15.8818 8.38322C15.4404 8.35461 14.4111 8.44044 14.4111 8.44044Z" fill="#416260" fill-opacity="1.000000" fill-rule="evenodd"/>
		<path id="Vector" d="M12.2646 8.38322C12.2646 8.38322 11.8232 8.12572 11.8828 8.84102C11.9414 9.5563 12.3232 14.5061 12.6768 16.5662C13.0293 18.6262 13.5 20.3429 13.7939 20.6004C14.0879 20.8579 14.0586 20.5718 13.8828 20.0854C13.7061 19.6276 13 15.7937 12.8232 14.3917C12.6475 12.9897 12.3525 9.7852 12.3828 9.35603C12.4121 8.92685 12.5879 8.41183 12.2646 8.38322Z" fill="#536D6A" fill-opacity="1.000000" fill-rule="evenodd"/>
		<path id="Vector" d="M12.2646 8.38322C12.2646 8.38322 11.8232 8.12572 11.8828 8.84102C11.9414 9.5563 12.3232 14.5061 12.6768 16.5662C13.0293 18.6262 13.5 20.3429 13.7939 20.6004C14.0293 20.8007 14.0586 20.6863 14 20.4002C13.7646 19.9996 13.5 19.4274 13.2939 18.6262C12.6172 16.0798 12.1768 10.4433 12.2061 9.44186C12.2061 8.81241 12.3232 8.5549 12.4121 8.44044C12.3828 8.41183 12.3525 8.38322 12.2646 8.38322Z" fill="#627976" fill-opacity="1.000000" fill-rule="evenodd"/>
		<path id="Vector" d="M18.9404 3.46202C18.999 3.46202 19.0293 3.43341 19.0879 3.43341C18.8818 3.57648 18.6465 3.74814 18.5586 3.86259C18.3232 4.1201 18.2051 4.29176 18.0293 4.94984C17.9404 5.32179 17.9404 5.75096 17.9697 6.03708C17.8232 6.03708 17.6758 6.03708 17.5293 6.03708C17.499 5.5793 17.5586 4.864 17.9404 4.43483C18.2344 4.1201 18.4111 3.77675 18.5293 3.54787C18.6758 3.51926 18.8232 3.49063 18.9404 3.46202ZM17.1465 3.8912C17.0586 4.09149 16.999 4.29176 16.8818 4.40622C16.6758 4.6351 16.4404 4.97845 16.4111 5.20734C16.4111 5.32179 16.4111 5.60791 16.4697 5.92264C16.3525 5.89403 16.2344 5.86542 16.1465 5.83681C16.1465 5.69374 16.1465 5.5793 16.1758 5.43623C16.2637 4.864 16.4697 4.72095 16.8232 4.29176C16.8818 4.20593 16.9404 4.09149 16.999 4.00565C17.0293 3.94843 17.0879 3.91982 17.1465 3.8912ZM19.3525 5.97986C19.3232 5.77957 19.2637 5.3504 19.3232 4.94984C19.4111 4.37761 19.6172 4.23454 19.9697 3.80537C20.1172 3.60509 20.2051 3.4048 20.2637 3.23314C20.3232 3.23314 20.3525 3.23314 20.4111 3.20451C20.2939 3.46202 20.1758 3.80537 20.0293 3.97704C19.8232 4.20593 19.5879 4.54927 19.5586 4.77817C19.5293 4.94984 19.6172 5.69374 19.6758 5.97986C19.5879 5.95125 19.4697 5.95125 19.3525 5.97986ZM20.7637 5.83681C20.7051 5.43623 20.7051 4.54927 21.1465 4.03426C21.4697 3.66231 21.6758 3.29036 21.7637 3.09007C21.9404 3.09007 22.0879 3.06146 22.2637 3.06146C22.0586 3.20451 21.8525 3.34758 21.7637 3.46202C21.5293 3.71953 21.4111 3.8912 21.2344 4.54927C21.1172 5.00706 21.1465 5.52208 21.1758 5.77957C21.0586 5.77957 20.9111 5.8082 20.7637 5.83681ZM23.2051 4.40622C23.2939 4.03426 23.499 3.86259 23.7051 3.57648C23.8232 3.43341 23.8818 3.23314 23.9111 3.09007C23.9697 3.09007 24.0293 3.11868 24.0879 3.11868C23.999 3.31897 23.9404 3.57648 23.8525 3.71953C23.7051 3.94843 23.5586 4.17732 23.4404 4.60649C23.3818 4.83539 23.4404 5.12151 23.499 5.32179C23.3818 5.3504 23.2637 5.37901 23.1172 5.43623C23.1172 5.12151 23.1465 4.66373 23.2051 4.40622Z" fill="#F09241" fill-opacity="1.000000" fill-rule="evenodd"/>
		<path id="Vector" d="M18.9404 3.46201C18.999 3.46201 19.0293 3.4334 19.0879 3.4334C18.8818 3.57646 18.6465 3.74812 18.5586 3.86258C18.3232 4.12009 18.2051 4.29175 18.0293 4.94983C17.9697 5.20734 17.9404 5.52206 17.9404 5.75095C17.7939 5.75095 17.6465 5.75095 17.499 5.75095C17.499 5.32178 17.5879 4.77815 17.9111 4.43481C18.2051 4.12009 18.3818 3.77675 18.499 3.54785C18.6758 3.51924 18.8232 3.49063 18.9404 3.46201ZM16.1465 5.55067C16.1465 5.49345 16.1465 5.43622 16.1758 5.379C16.2637 4.80676 16.4697 4.66371 16.8232 4.23453C16.8818 4.1487 16.9404 4.03424 16.999 3.94841C17.0586 3.9198 17.1172 3.9198 17.1465 3.89119C17.0586 4.09148 16.999 4.29175 16.8818 4.4062C16.6758 4.6351 16.4404 4.97844 16.4111 5.20734C16.4111 5.29317 16.4111 5.46483 16.4404 5.63651C16.3232 5.60789 16.2344 5.57928 16.1465 5.55067ZM19.3232 5.66512C19.2939 5.46483 19.2939 5.17871 19.3232 4.92122C19.4111 4.34898 19.6172 4.20592 19.9697 3.77675C20.1172 3.57646 20.2051 3.37617 20.2637 3.20451C20.2939 3.20451 20.2939 3.20451 20.3232 3.20451C20.2051 3.46201 20.0879 3.80536 19.9404 3.97702C19.7344 4.20592 19.499 4.54926 19.4697 4.77815C19.4404 4.92122 19.499 5.35039 19.5586 5.66512C19.5293 5.66512 19.4111 5.66512 19.3232 5.66512ZM20.7344 5.52206C20.7051 5.06427 20.7939 4.43481 21.1465 4.00563C21.4697 3.63368 21.6758 3.26173 21.7637 3.06145C21.9404 3.06145 22.0879 3.03284 22.2637 3.03284C22.0586 3.17589 21.8525 3.31895 21.7637 3.4334C21.5293 3.6909 21.4111 3.86258 21.2344 4.52065C21.1465 4.83537 21.1465 5.17871 21.1465 5.46483C21.0293 5.49345 20.8818 5.49345 20.7344 5.52206ZM23.2051 4.4062C23.2939 4.03424 23.499 3.86258 23.7051 3.57646C23.8232 3.4334 23.8818 3.23312 23.9111 3.09006C23.9697 3.09006 24.0293 3.11867 24.0879 3.11867C23.999 3.31895 23.9404 3.57646 23.8525 3.71951C23.7051 3.94841 23.5586 4.17731 23.4404 4.60648C23.4111 4.74954 23.4111 4.89259 23.4404 5.03566C23.3525 5.06427 23.2637 5.09288 23.1465 5.12149C23.1465 4.83537 23.1465 4.57787 23.2051 4.4062Z" fill="#FDC649" fill-opacity="1.000000" fill-rule="evenodd"/>
		<path id="Vector" d="M18.9404 3.46201C18.999 3.46201 19.0293 3.4334 19.0879 3.4334C18.8818 3.57646 18.6465 3.74812 18.5586 3.86258C18.3232 4.12009 18.2051 4.29175 18.0293 4.94983C17.9697 5.20734 17.9404 5.52206 17.9404 5.75095C17.7939 5.75095 17.6465 5.75095 17.499 5.75095C17.499 5.32178 17.5879 4.77815 17.9111 4.43481C18.2051 4.12009 18.3818 3.77675 18.499 3.54785C18.6758 3.51924 18.8232 3.49063 18.9404 3.46201ZM16.1465 5.55067C16.1465 5.49345 16.1465 5.43622 16.1758 5.379C16.2637 4.80676 16.4697 4.66371 16.8232 4.23453C16.8818 4.1487 16.9404 4.03424 16.999 3.94841C17.0586 3.9198 17.1172 3.9198 17.1465 3.89119C17.0586 4.09148 16.999 4.29175 16.8818 4.4062C16.6758 4.6351 16.4404 4.97844 16.4111 5.20734C16.4111 5.29317 16.4111 5.46483 16.4404 5.63651C16.3232 5.60789 16.2344 5.57928 16.1465 5.55067ZM19.3232 5.66512C19.2939 5.46483 19.2939 5.17871 19.3232 4.92122C19.4111 4.34898 19.6172 4.20592 19.9697 3.77675C20.1172 3.57646 20.2051 3.37617 20.2637 3.20451C20.2939 3.20451 20.2939 3.20451 20.3232 3.20451C20.2051 3.46201 20.0879 3.80536 19.9404 3.97702C19.7344 4.20592 19.499 4.54926 19.4697 4.77815C19.4404 4.92122 19.499 5.35039 19.5586 5.66512C19.5293 5.66512 19.4111 5.66512 19.3232 5.66512ZM20.7344 5.52206C20.7051 5.06427 20.7939 4.43481 21.1465 4.00563C21.4697 3.63368 21.6758 3.26173 21.7637 3.06145C21.9404 3.06145 22.0879 3.03284 22.2637 3.03284C22.0586 3.17589 21.8525 3.31895 21.7637 3.4334C21.5293 3.6909 21.4111 3.86258 21.2344 4.52065C21.1465 4.83537 21.1465 5.17871 21.1465 5.46483C21.0293 5.49345 20.8818 5.49345 20.7344 5.52206ZM23.2051 4.4062C23.2939 4.03424 23.499 3.86258 23.7051 3.57646C23.8232 3.4334 23.8818 3.23312 23.9111 3.09006C23.9697 3.09006 24.0293 3.11867 24.0879 3.11867C23.999 3.31895 23.9404 3.57646 23.8525 3.71951C23.7051 3.94841 23.5586 4.17731 23.4404 4.60648C23.4111 4.74954 23.4111 4.89259 23.4404 5.03566C23.3525 5.06427 23.2637 5.09288 23.1465 5.12149C23.1465 4.83537 23.1465 4.57787 23.2051 4.4062Z" fill="#FDC649" fill-opacity="1.000000" fill-rule="evenodd"/>
		<path id="Vector" d="M18.0596 3.80536C18.0596 3.80536 17.8242 3.86258 17.5596 3.9198C17.3242 4.00565 17.2354 3.86258 17.2061 4.03426C17.1475 4.20592 16.9121 4.29176 17.1475 4.26315C17.3828 4.23453 17.6182 4.06287 17.7949 4.06287C17.9414 4.06287 18.1768 3.83397 18.0596 3.80536Z" fill="#F29D50" fill-opacity="1.000000" fill-rule="evenodd"/>
		<path id="Vector" d="M16.6172 4.23453C16.6172 4.23453 16.0586 4.46341 15.9404 4.63509C15.8232 4.80676 15.7344 5.09286 15.8525 4.94981C15.9697 4.80676 16.0293 4.83537 16.1465 4.6637C16.2939 4.46341 16.8232 4.14868 16.6172 4.23453Z" fill="#F29D50" fill-opacity="1.000000" fill-rule="evenodd"/>
		<path id="Vector" d="M19.1465 3.54785C19.1465 3.54785 19.499 3.46202 19.7344 3.43341C19.9697 3.40479 20.0879 3.31895 19.9697 3.43341C19.8525 3.54785 19.8525 3.66229 19.6758 3.71953C19.499 3.77675 19.2939 3.80536 19.0879 3.86258C18.8818 3.89119 18.4697 4.03426 18.6172 3.94841C18.7344 3.83397 19.1465 3.54785 19.1465 3.54785Z" fill="#F29D50" fill-opacity="1.000000" fill-rule="evenodd"/>
		<path id="Vector" d="M20.5293 3.34755L20.3818 3.63367C20.3818 3.63367 20.8525 3.46201 21.0293 3.46201C21.2051 3.46201 21.5293 3.46201 21.4404 3.31894C21.3525 3.2045 21.1172 3.17589 20.5293 3.34755Z" fill="#F29D50" fill-opacity="1.000000" fill-rule="evenodd"/>
		<path id="Vector" d="M22.2051 3.31895C22.2637 3.23312 22.3223 3.11868 22.5576 3.14729C22.793 3.1759 23.293 3.14729 23.4111 3.20451C23.5283 3.26173 23.6758 3.37617 23.5283 3.43341C23.3516 3.46202 23.2344 3.46202 22.9111 3.43341C22.5576 3.4048 22.0283 3.4048 22.2051 3.31895Z" fill="#F29D50" fill-opacity="1.000000" fill-rule="evenodd"/>
		<path id="Vector" d="M24.293 3.49062C24.293 3.49062 24.1758 3.49062 24.1758 3.40479C24.1758 3.31895 24.1162 3.2045 24.293 3.26172C24.4697 3.31895 24.9404 3.4334 24.9404 3.66229C24.9404 3.9198 24.8809 3.9198 24.7637 3.71951C24.6758 3.51923 24.293 3.49062 24.293 3.49062Z" fill="#F29D50" fill-opacity="1.000000" fill-rule="evenodd"/>
		<path id="Vector" d="M23.6172 4.54926C23.5586 4.6351 23.5586 4.77815 23.8232 4.69232C24.0879 4.60649 24.2939 4.43481 24.1172 4.43481C23.9414 4.46342 23.6172 4.54926 23.6172 4.54926Z" fill="#F29D50" fill-opacity="1.000000" fill-rule="evenodd"/>
		<path id="Vector" d="M21.499 4.9212C21.499 4.9212 21.3223 5.17871 21.4697 5.20732C21.6172 5.23593 22.5283 5.1501 22.6758 5.00703C22.8223 4.86398 22.999 4.74953 22.7637 4.77814C22.499 4.77814 21.499 4.9212 21.499 4.9212Z" fill="#F29D50" fill-opacity="1.000000" fill-rule="evenodd"/>
		<path id="Vector" d="M20.4707 5.12149C20.4707 5.12149 19.8525 5.12149 19.8525 5.23593C19.8525 5.379 19.6172 5.52206 19.9111 5.46483C20.2061 5.40761 20.5 5.379 20.5293 5.29317C20.5879 5.20732 20.4707 5.12149 20.4707 5.12149Z" fill="#F29D50" fill-opacity="1.000000" fill-rule="evenodd"/>
		<path id="Vector" d="M19.1465 5.23593C19.1465 5.23593 18.5879 5.379 18.4404 5.379C18.2939 5.379 18.1758 5.35039 18.1758 5.43622C18.1758 5.52205 18.0879 5.57927 18.4111 5.57927C18.7344 5.57927 19.1758 5.60788 19.1758 5.43622C19.1465 5.29315 19.1172 5.20732 19.1465 5.23593Z" fill="#F29D50" fill-opacity="1.000000" fill-rule="evenodd"/>
		<path id="Vector" d="M17.3232 5.55067C17.3232 5.55067 16.9707 5.57928 16.8232 5.55067C16.6768 5.49345 16.6172 5.43622 16.6172 5.40761C16.6172 5.35039 16.5293 5.379 16.7939 5.379C17.0586 5.379 17.3232 5.32178 17.3232 5.32178L17.3232 5.55067Z" fill="#F29D50" fill-opacity="1.000000" fill-rule="evenodd"/>
		<path id="Vector" d="M17.7949 3.89119C17.7949 3.89119 17.4717 4.00563 17.3828 4.00563C17.2656 4.00563 17.1768 4.12009 17.2656 4.12009C17.3828 4.12009 17.4414 4.06287 17.5596 4.03424C17.6768 4.06287 17.8535 3.9198 17.7949 3.89119Z" fill="#F5B881" fill-opacity="1.000000" fill-rule="evenodd"/>
		<path id="Vector" d="M19.6465 3.49063C19.6465 3.49063 19.2637 3.54785 19.2051 3.57646C19.1172 3.60507 18.9111 3.71953 19.0283 3.71953C19.1465 3.71953 19.2051 3.69092 19.3223 3.66231C19.4404 3.66231 19.7344 3.51924 19.6465 3.49063Z" fill="#F5B881" fill-opacity="1.000000" fill-rule="evenodd"/>
		<path id="Vector" d="M21.1172 3.31895C21.1172 3.31895 20.8232 3.31895 20.7646 3.34756C20.6758 3.37617 20.5586 3.40479 20.5586 3.40479C20.5586 3.40479 20.4404 3.51924 20.5293 3.49063C20.6172 3.49063 20.6758 3.4334 20.8232 3.40479C20.9697 3.40479 21.2051 3.31895 21.1172 3.31895Z" fill="#F5B881" fill-opacity="1.000000" fill-rule="evenodd"/>
		<path id="Vector" d="M23.2354 3.2045C23.2354 3.2045 22.7354 3.17589 22.6475 3.2045C22.5586 3.2045 22.4707 3.2045 22.4414 3.23311C22.4121 3.23311 22.2646 3.31895 22.4121 3.31895C22.5586 3.31895 22.5889 3.29034 22.7354 3.31895C22.9121 3.31895 23.2939 3.23311 23.2354 3.2045Z" fill="#F5B881" fill-opacity="1.000000" fill-rule="evenodd"/>
		<path id="Vector" d="M23.1475 3.86256C23.1475 3.86256 23.0293 4.14868 22.9414 4.26312C22.8828 4.34897 22.6768 4.60646 22.4414 4.60646C22.2061 4.63509 21.9707 4.46341 22.1182 4.29173C22.2646 4.12007 22.3828 4.12007 22.5586 4.00562C22.7646 3.89117 23.2354 3.69089 23.1475 3.86256Z" fill="#F29D50" fill-opacity="1.000000" fill-rule="evenodd"/>
		<path id="Vector" d="M23.9404 3.80534C23.9404 3.80534 23.7344 4.03424 23.7051 4.17731C23.6758 4.32036 23.5 4.6637 23.6758 4.63509C23.8525 4.60648 24.2344 4.57787 24.1758 4.32036C24.1172 4.12009 24.0293 3.63368 23.9404 3.80534Z" fill="#F29D50" fill-opacity="1.000000" fill-rule="evenodd"/>
		<path id="Vector" d="M22.9111 4.06287C22.9111 4.06287 22.793 4.26315 22.7051 4.32037C22.5869 4.37759 22.4697 4.43481 22.4697 4.37759C22.4697 4.32037 22.5283 4.23454 22.6465 4.17731C22.7637 4.1487 22.9404 4.00565 22.9111 4.06287Z" fill="#F5B881" fill-opacity="1.000000" fill-rule="evenodd"/>
		<path id="Vector" d="M20.7344 4.43481C20.7344 4.43481 20.6465 4.83537 20.5586 4.86398C20.499 4.89259 20.2344 4.97844 20.2939 4.86398C20.3232 4.74954 20.3818 4.69232 20.4697 4.63509C20.5293 4.57787 20.7646 4.37759 20.7344 4.43481Z" fill="#F29D50" fill-opacity="1.000000" fill-rule="evenodd"/>
		<path id="Vector" d="M25.6768 11.5877C25.6768 11.5877 25.1768 10.5863 24.0586 10.9297C22.9414 11.273 22.8242 12.0169 22.8242 12.0169C22.6475 10.4147 25.3242 9.87105 25.6768 11.5877Z" fill="#3C2012" fill-opacity="1.000000" fill-rule="evenodd"/>
		<path id="Vector" d="M24.3535 11.788C24.8828 11.7308 25.3535 12.2172 25.4121 12.8753C25.4707 13.5334 25.1182 14.1056 24.5889 14.1628C24.0596 14.22 23.5889 13.7336 23.5303 13.0756C23.4707 12.4175 23.8242 11.8453 24.3535 11.788Z" fill="#FFFFFF" fill-opacity="1.000000" fill-rule="evenodd"/>
		<path id="Vector" d="M24.4707 12.0742C24.9121 12.0169 25.3242 12.4461 25.3828 12.9897C25.4414 13.5334 25.1475 14.0198 24.7061 14.077C24.2656 14.1342 23.8535 13.705 23.7949 13.1614C23.7354 12.5892 24.0303 12.1028 24.4707 12.0742Z" fill="#3C2012" fill-opacity="1.000000" fill-rule="evenodd"/>
		<path id="Vector" d="M25.2949 12.9325C25.2949 12.9325 25.2949 13.3045 25.0303 13.6192C24.7363 13.9339 24.3535 13.9625 24.3535 13.9625C24.3535 13.9625 24.8535 14.0484 25.0889 13.7909C25.2949 13.5334 25.4121 13.1042 25.2949 12.9325Z" fill="#878787" fill-opacity="1.000000" fill-rule="evenodd"/>
		<path id="Vector" d="M25.2949 12.9325C25.2949 12.9325 25.2949 13.3045 25.0303 13.6192C24.7363 13.9339 24.3535 13.9625 24.3535 13.9625C24.3535 13.9625 24.3828 13.9625 24.4121 13.9625C24.5596 13.9625 24.7656 13.9339 24.9121 13.8767C25.0889 13.7909 25.2061 13.5906 25.2949 13.3617C25.3535 13.1614 25.3242 13.0183 25.2949 12.9325Z" fill="#706F6F" fill-opacity="1.000000" fill-rule="evenodd"/>
		<path id="Vector" d="M25.2949 12.9611C25.2949 13.0756 25.2354 13.3617 25.0303 13.5906C24.7656 13.8767 24.4414 13.9053 24.3828 13.9339C24.5 13.9625 24.7949 13.9053 24.9414 13.8195C25.0889 13.7336 25.2656 13.4475 25.2949 13.3045C25.2949 13.19 25.2949 13.047 25.2949 12.9611Z" fill="#575756" fill-opacity="1.000000" fill-rule="evenodd"/>
		<path id="Vector" d="M25.2646 13.1042C25.2354 13.2472 25.1768 13.4189 25.0293 13.5906C24.8242 13.8195 24.5596 13.9053 24.4121 13.9053C24.5596 13.9053 24.7354 13.8481 24.8535 13.8195C24.9707 13.7623 25.1182 13.562 25.2061 13.3903C25.2646 13.3331 25.2646 13.19 25.2646 13.1042Z" fill="#3C3C3B" fill-opacity="1.000000" fill-rule="evenodd"/>
		<path id="Vector" d="M24.4414 12.2744C24.5889 12.3031 24.6768 12.4747 24.6182 12.675C24.5596 12.8467 24.4121 12.9611 24.2656 12.9325C24.1182 12.9039 24.0303 12.7322 24.0889 12.532C24.1475 12.3603 24.2949 12.2458 24.4414 12.2744Z" fill="#FFFFFF" fill-opacity="1.000000" fill-rule="evenodd"/>
		<path id="Vector" d="M14.2354 12.5033C14.2354 12.5033 14.5 11.4161 15.6768 11.5019C16.8535 11.5878 17.1182 12.303 17.1182 12.303C16.9121 10.6722 14.2061 10.7294 14.2354 12.5033Z" fill="#3C2012" fill-opacity="1.000000" fill-rule="evenodd"/>
		<path id="Vector" d="M18.7061 14.2486C18.4707 14.1342 17.6182 13.9625 17.9414 14.9353C18.2646 15.8795 19.4414 16.1084 20.4121 16.0512C21.4121 15.9939 22.4707 14.7636 22.4121 14.22C22.3535 13.6764 21.7061 13.7908 21.2939 13.9911C20.9121 14.1628 19.1182 14.3917 18.7061 14.2486Z" fill="#3C2012" fill-opacity="1.000000" fill-rule="evenodd"/>
		<path id="Vector" d="M18.7061 14.2486C18.6475 14.22 18.5293 14.1914 18.4414 14.1628C18.4707 14.3059 18.5889 14.5061 18.9707 14.592C19.5293 14.7064 20.5586 14.5634 21.0586 14.3917C21.4414 14.2486 21.5586 14.0484 21.5889 13.8481C21.5 13.8767 21.4121 13.9053 21.3242 13.9625C20.9121 14.1628 19.1182 14.3917 18.7061 14.2486Z" fill="#FFFFFF" fill-opacity="1.000000" fill-rule="evenodd"/>
		<path id="Vector" d="M18.7061 14.2486C18.6475 14.22 18.5293 14.1914 18.4414 14.1628C18.4707 14.2772 18.5586 14.4775 18.8828 14.5634C18.8242 14.5061 18.7061 14.4203 18.7061 14.3631C18.6768 14.3059 18.7646 14.3059 18.8535 14.3059C18.9414 14.3345 19.5889 14.3631 20.1182 14.2773C20.6768 14.1914 21.0293 14.1056 21.1475 14.077C21.2354 14.0484 21.4414 13.9911 21.2939 14.2773C21.5 14.1628 21.5889 13.9911 21.5889 13.8481C21.5 13.8767 21.4121 13.9053 21.3242 13.9625C20.9121 14.1628 19.1182 14.3917 18.7061 14.2486Z" fill="#E4E2D8" fill-opacity="1.000000" fill-rule="evenodd"/>
		<path id="Vector" d="M18.5293 15.6506C19.0293 15.9939 19.7646 16.0512 20.4121 16.0226C20.8818 15.9939 21.3818 15.7078 21.7646 15.3359C21.3232 14.9925 20.7939 14.735 20.1465 14.7636C19.4707 14.8209 18.8818 15.1356 18.5293 15.6506Z" fill="#EA5160" fill-opacity="1.000000" fill-rule="evenodd"/>
		<path id="Vector" d="M18.5293 15.6506C18.6465 15.7365 18.7939 15.7937 18.9414 15.8509C18.8818 15.7937 18.8232 15.6792 18.8232 15.5934C18.8525 15.4217 19.2354 15.0211 19.8525 14.9639C20.4707 14.9067 21.2354 15.1356 21.2354 15.3645C21.2354 15.5076 21.1465 15.7078 21 15.8795C21.2646 15.7651 21.5 15.5648 21.7354 15.3645C21.2939 15.0211 20.7646 14.7636 20.1172 14.7923C19.4707 14.8209 18.8818 15.1356 18.5293 15.6506Z" fill="#DF3255" fill-opacity="1.000000" fill-rule="evenodd"/>
		<path id="Vector" d="M20.0586 15.9081C20.0586 15.9081 19.4111 15.8509 19.3232 15.765C19.2637 15.6792 19.3232 15.6792 19.5586 15.6506C19.8232 15.6506 20.1465 15.7078 20.3818 15.7078C20.6172 15.7078 20.6758 15.7364 20.5586 15.8223C20.4697 15.9081 20.3818 15.9367 20.0586 15.9081Z" fill="#EF787B" fill-opacity="1.000000" fill-rule="evenodd"/>
		<path id="Vector" d="M24.7051 14.6206C25.0293 14.592 25.2637 14.735 25.2939 14.9067C25.2939 15.0784 25.0586 15.2214 24.7344 15.25C24.4111 15.2787 24.1758 15.1356 24.1465 14.9639C24.1465 14.7923 24.3818 14.6492 24.7051 14.6206Z" fill="#EA5160" fill-opacity="1.000000" fill-rule="evenodd"/>
		<path id="Vector" d="M15.9121 15.3073C16.1768 15.3073 16.3828 15.3931 16.3828 15.5362C16.3828 15.6792 16.1768 15.7937 15.9121 15.8223C15.6475 15.8223 15.4414 15.7365 15.4414 15.5934C15.4414 15.4503 15.6475 15.3359 15.9121 15.3073Z" fill="#EA5160" fill-opacity="1.000000" fill-rule="evenodd"/>
		<path id="Vector" d="M19.4121 16.5376C19.4121 16.5376 19.7354 16.9095 20.5 16.8237C21.2646 16.7379 21.7646 16.3373 21.1182 16.4231C20.4414 16.509 19.4121 16.5376 19.4121 16.5376Z" fill="#416260" fill-opacity="1.000000" fill-rule="evenodd"/>
		<path id="Vector" d="M19.1768 13.7622C19.1768 13.7622 19.9121 13.9339 20.5 13.7622C21.1182 13.5906 21.1768 13.2758 20.6768 13.4189C20.1475 13.5333 20.1182 13.562 19.7939 13.5333C19.5 13.4761 18.8242 13.562 19.1768 13.7622Z" fill="#416260" fill-opacity="1.000000" fill-rule="evenodd"/>
		<path id="Vector" d="M15.6475 12.4747C16.1768 12.4175 16.6475 12.9039 16.7061 13.562C16.7646 14.22 16.4121 14.7923 15.8828 14.8495C15.3535 14.9067 14.8828 14.4203 14.8242 13.7622C14.7646 13.1042 15.1182 12.5319 15.6475 12.4747Z" fill="#FFFFFF" fill-opacity="1.000000" fill-rule="evenodd"/>
		<path id="Vector" d="M15.7939 12.7608C16.2344 12.7036 16.6465 13.1328 16.7051 13.6764C16.7646 14.22 16.4697 14.7064 16.0293 14.7636C15.5879 14.8209 15.1758 14.3917 15.1172 13.8481C15.0293 13.2758 15.3525 12.7894 15.7939 12.7608Z" fill="#3C2012" fill-opacity="1.000000" fill-rule="evenodd"/>
		<path id="Vector" d="M16.5879 13.6192C16.5879 13.6192 16.5879 13.9911 16.3232 14.3059C16.0293 14.6206 15.6465 14.6492 15.6465 14.6492C15.6465 14.6492 16.1465 14.735 16.3818 14.4775C16.6172 14.22 16.7051 13.7908 16.5879 13.6192Z" fill="#878787" fill-opacity="1.000000" fill-rule="evenodd"/>
		<path id="Vector" d="M16.5879 13.6192C16.5879 13.6192 16.5879 13.9911 16.3232 14.3058C16.0293 14.6206 15.6465 14.6492 15.6465 14.6492C15.6465 14.6492 15.6758 14.6492 15.7051 14.6492C15.8525 14.6492 16.0586 14.6206 16.2051 14.5634C16.3818 14.4775 16.499 14.2772 16.5879 14.0483C16.6465 13.8481 16.6172 13.705 16.5879 13.6192Z" fill="#706F6F" fill-opacity="1.000000" fill-rule="evenodd"/>
		<path id="Vector" d="M16.5879 13.6478C16.5879 13.7622 16.5283 14.0483 16.3232 14.2772C16.0586 14.5634 15.7344 14.592 15.6758 14.6206C15.793 14.6492 16.0879 14.592 16.2344 14.5061C16.3818 14.4203 16.5586 14.1342 16.5879 13.9911C16.6172 13.8767 16.5879 13.7336 16.5879 13.6478Z" fill="#575756" fill-opacity="1.000000" fill-rule="evenodd"/>
		<path id="Vector" d="M16.5869 13.7908C16.5576 13.9339 16.499 14.1056 16.3516 14.2773C16.1465 14.5061 15.8818 14.592 15.7344 14.592C15.8818 14.592 16.0576 14.5348 16.1758 14.5061C16.293 14.4489 16.4404 14.2486 16.5283 14.077C16.5576 14.0197 16.5576 13.9053 16.5869 13.7908Z" fill="#3C3C3B" fill-opacity="1.000000" fill-rule="evenodd"/>
		<path id="Vector" d="M15.7354 12.9611C15.8828 12.9897 15.9707 13.1614 15.9121 13.3617C15.8535 13.5333 15.7061 13.6478 15.5596 13.6192C15.4121 13.5906 15.3242 13.4189 15.3828 13.2186C15.4414 13.0469 15.5889 12.9325 15.7354 12.9611Z" fill="#FFFFFF" fill-opacity="1.000000" fill-rule="evenodd"/>
		<path id="Vector" d="M20.2646 63.9186C20.5293 64.4337 21.1172 64.1475 21.1172 64.1475L33.2354 0.514999C32.2354 -0.257507 30.6768 0.0572205 30.6768 0.0572205L20.2646 63.9186Z" fill="#EEC357" fill-opacity="1.000000" fill-rule="evenodd"/>
		<path id="Vector" d="M20.4404 64.1475C20.499 64.1761 20.5576 64.2047 20.5879 64.2047L30.8818 5.40762L31.793 0C31.6172 0 31.4404 0 31.293 0L20.5576 63.6325L20.4404 64.1475Z" fill="#F5E0B3" fill-opacity="1.000000" fill-rule="evenodd"/>
		<path id="Vector" d="M20.2646 63.9186C20.3525 64.0903 20.4707 64.1761 20.5879 64.2047L31.7061 0C31.1172 -0.0286102 30.6475 0.0572205 30.6475 0.0572205L20.2646 63.9186Z" fill="#F3D99A" fill-opacity="1.000000" fill-rule="evenodd"/>
		<path id="Vector" d="M28.9111 9.52769C28.9111 9.52769 28.4111 10.0713 28.793 10.4719C29.1758 10.8725 30.1465 11.5591 30.793 10.6149C31.4404 9.67076 31.1465 9.29881 30.6172 9.35603C30.0879 9.41325 30.1758 9.7852 30.1758 9.7852C30.1758 9.7852 29.5586 8.89824 28.9111 9.52769Z" fill="#3C2012" fill-opacity="1.000000" fill-rule="evenodd"/>
		<path id="Vector" d="M30.8828 14.077C30.9121 14.077 30.9414 14.077 31.001 14.0484C31.6768 13.8195 32.0889 13.4189 32.2061 12.9325C32.3828 12.1886 31.9121 11.2444 30.7363 9.98549C30.6182 9.87103 30.4121 9.84242 30.2949 9.95688C30.1768 10.0713 30.1475 10.2716 30.2656 10.386C31.2656 11.4447 31.7363 12.2458 31.5889 12.7608C31.5303 13.0469 31.2656 13.2758 30.7656 13.4475C30.5889 13.5047 30.5303 13.6764 30.5889 13.8481C30.6475 13.9911 30.7656 14.077 30.8828 14.077Z" fill="#3C2012" fill-opacity="1.000000" fill-rule="nonzero"/>
	</g>
</svg>
