<svg width="81.000000" height="66.000000" viewBox="0 0 81 66" fill="none" xmlns="http://www.w3.org/2000/svg" xmlns:xlink="http://www.w3.org/1999/xlink">
	<desc>
			Created with Pixso.
	</desc>
	<defs/>
	<g opacity="0.030000">
		<path id="Vector" d="M61.01 60.57C61.06 63.35 48.05 65.75 31.94 65.95C15.87 66.14 2.81 64.03 2.76 61.24C2.71 58.45 15.72 56.05 31.84 55.86C47.91 55.67 61.01 57.78 61.01 60.57Z" fill="#4A7085" fill-opacity="1.000000" fill-rule="nonzero"/>
	</g>
	<g opacity="0.030000">
		<path id="Vector" d="M60.19 60.52C60.24 63.16 47.62 65.42 31.99 65.61C16.35 65.8 3.68 63.79 3.68 61.19C3.64 58.55 16.26 56.24 31.89 56.1C47.47 55.91 60.14 57.88 60.19 60.52Z" fill="#4A7085" fill-opacity="1.000000" fill-rule="nonzero"/>
	</g>
	<g opacity="0.030000">
		<path id="Vector" d="M59.27 60.52C59.31 62.97 47.08 65.08 31.98 65.23C16.89 65.42 4.61 63.59 4.61 61.14C4.56 58.69 16.79 56.58 31.89 56.43C46.98 56.24 59.22 58.07 59.27 60.52Z" fill="#4A7085" fill-opacity="1.000000" fill-rule="nonzero"/>
	</g>
	<g opacity="0.030000">
		<path id="Vector" d="M58.25 60.47C58.25 62.78 46.5 64.79 31.94 64.94C17.37 65.13 5.58 63.4 5.58 61.09C5.53 58.79 17.32 56.77 31.84 56.63C46.4 56.43 58.2 58.16 58.25 60.47Z" fill="#4A7085" fill-opacity="1.000000" fill-rule="nonzero"/>
	</g>
	<g opacity="0.030000">
		<path id="Vector" d="M57.28 60.37C57.32 62.58 45.97 64.51 31.99 64.65C17.96 64.79 6.6 63.16 6.6 60.95C6.55 58.74 17.91 56.82 31.89 56.67C45.87 56.53 57.23 58.21 57.28 60.37Z" fill="#4A7085" fill-opacity="1.000000" fill-rule="nonzero"/>
	</g>
	<g opacity="0.030000">
		<path id="Vector" d="M56.26 60.33C56.31 62.44 45.43 64.31 31.99 64.46C18.54 64.6 7.62 63.02 7.62 60.9C7.57 58.79 18.49 56.92 31.94 56.77C45.29 56.63 56.21 58.21 56.26 60.33Z" fill="#4A7085" fill-opacity="1.000000" fill-rule="nonzero"/>
	</g>
	<g opacity="0.030000">
		<path id="Vector" d="M55.43 60.28C55.48 62.34 44.95 64.17 31.94 64.31C18.93 64.46 8.34 62.92 8.34 60.85C8.34 58.79 18.83 56.96 31.84 56.82C44.85 56.63 55.43 58.16 55.43 60.28Z" fill="#4A7085" fill-opacity="1.000000" fill-rule="nonzero"/>
	</g>
	<g opacity="0.030000">
		<path id="Vector" d="M54.36 60.33C54.41 62.25 44.36 63.98 31.94 64.12C19.56 64.27 9.46 62.82 9.46 60.85C9.41 58.93 19.46 57.2 31.89 57.06C44.27 56.92 54.31 58.36 54.36 60.33Z" fill="#4A7085" fill-opacity="1.000000" fill-rule="nonzero"/>
	</g>
	<g opacity="0.030000">
		<path id="Vector" d="M53.44 60.33C53.44 62.15 43.83 63.79 31.94 63.93C20.04 64.07 10.33 62.68 10.33 60.85C10.33 59.03 19.95 57.4 31.84 57.25C43.78 57.11 53.44 58.45 53.44 60.33Z" fill="#4A7085" fill-opacity="1.000000" fill-rule="nonzero"/>
	</g>
	<path id="Vector" d="M22.23 59.32C21.84 59.32 21.5 59.03 21.45 58.64C20.24 48.27 28.25 36.88 28.59 36.4C28.83 36.06 29.31 35.97 29.65 36.21C29.99 36.45 30.09 36.93 29.85 37.27C29.75 37.36 21.84 48.7 23 58.45C23.05 58.88 22.76 59.22 22.32 59.27C22.32 59.32 22.28 59.32 22.23 59.32Z" fill="#3C2012" fill-opacity="1.000000" fill-rule="nonzero"/>
	<path id="Vector" d="M22.62 58.16C22.62 58.16 17.86 56 17.03 58.93C16.21 61.82 21.79 61.09 22.52 61C23.3 60.95 24.12 59.03 22.62 58.16Z" fill="#3C2012" fill-opacity="1.000000" fill-rule="evenodd"/>
	<path id="Vector" d="M45.77 59.32C45.72 59.32 45.72 59.32 45.67 59.32C45.24 59.27 44.95 58.88 44.99 58.5C46.21 48.7 38.25 37.41 38.15 37.31C37.91 36.98 38 36.5 38.34 36.26C38.68 36.02 39.17 36.11 39.41 36.45C39.75 36.93 47.76 48.32 46.5 58.69C46.45 59.03 46.11 59.32 45.77 59.32Z" fill="#3C2012" fill-opacity="1.000000" fill-rule="nonzero"/>
	<path id="Vector" d="M45.38 58.16C45.38 58.16 50.14 56 50.97 58.93C51.79 61.82 46.21 61.09 45.48 61C44.7 60.95 43.88 59.03 45.38 58.16Z" fill="#3C2012" fill-opacity="1.000000" fill-rule="evenodd"/>
	<path id="Vector" d="M59.95 30.35C58.05 30.35 55.58 29.68 52.37 28.33C51.99 28.19 51.79 27.71 51.99 27.32C52.13 26.94 52.62 26.74 53 26.94C57.71 28.95 60.63 29.39 62.13 28.28C63.3 27.42 63.73 25.5 63.39 22.47C63.34 22.04 63.64 21.7 64.07 21.65C64.51 21.6 64.85 21.89 64.9 22.32C65.29 25.93 64.7 28.28 63 29.53C62.23 30.06 61.21 30.35 59.95 30.35Z" fill="#3C2012" fill-opacity="1.000000" fill-rule="nonzero"/>
	<path id="Vector" d="M61.98 18.39C61.98 18.39 63.49 17.38 64.31 18.43C65.14 19.49 66.5 21.99 64.02 23.19C61.55 24.39 60.67 23.57 61.01 22.37C61.31 21.17 62.23 21.51 62.23 21.51C62.23 21.51 60.33 19.68 61.98 18.39Z" fill="#3C2012" fill-opacity="1.000000" fill-rule="evenodd"/>
	<path id="Vector" d="M0.14 39.43C-0.3 40.2 0.29 40.87 0.29 40.87L78.93 13.2C79.27 11.13 78.15 8.97 78.15 8.97L0.14 39.43Z" fill="#EEC357" fill-opacity="1.000000" fill-rule="evenodd"/>
	<path id="Vector" d="M0 39.91C0 40 0 40.1 0 40.2L72.18 13.2L78.78 10.7C78.68 10.41 78.64 10.12 78.54 9.88L0.63 39.72L0 39.91Z" fill="#F5E0B3" fill-opacity="1.000000" fill-rule="evenodd"/>
	<path id="Vector" d="M0.14 39.43C0 39.72 0 39.96 0 40.15L78.73 10.55C78.49 9.64 78.15 9.02 78.15 9.02L0.14 39.43Z" fill="#F3D99A" fill-opacity="1.000000" fill-rule="evenodd"/>
	<path id="Vector" d="M0.63 41.01C0.19 41.78 0.77 42.45 0.77 42.45L79.95 17.86C80.33 15.79 79.22 13.58 79.22 13.58L0.63 41.01Z" fill="#EEC357" fill-opacity="1.000000" fill-rule="evenodd"/>
	<path id="Vector" d="M0.43 41.49C0.43 41.59 0.43 41.69 0.43 41.78L73.15 17.62L79.8 15.36C79.75 15.07 79.66 14.78 79.56 14.54L1.06 41.3L0.43 41.49Z" fill="#F5E0B3" fill-opacity="1.000000" fill-rule="evenodd"/>
	<path id="Vector" d="M0.63 41.01C0.48 41.25 0.43 41.49 0.43 41.69L79.75 15.17C79.51 14.25 79.17 13.58 79.17 13.58L0.63 41.01Z" fill="#F3D99A" fill-opacity="1.000000" fill-rule="evenodd"/>
	<path id="Vector" d="M5.87 41.35C5.58 41.35 5.33 41.21 5.19 40.92C1.06 32.99 2.91 31.55 7.13 29.29C7.91 28.86 8.78 28.43 9.7 27.85C10.04 27.61 10.53 27.75 10.77 28.09C11.01 28.43 10.87 28.91 10.53 29.15C9.56 29.77 8.68 30.25 7.86 30.68C4.17 32.65 2.96 33.33 6.6 40.29C6.79 40.68 6.64 41.11 6.26 41.3C6.11 41.3 6.01 41.35 5.87 41.35Z" fill="#3C2012" fill-opacity="1.000000" fill-rule="nonzero"/>
	<path id="Vector" d="M52.86 6.95C53.93 8.15 54.9 9.83 54.9 16.61C54.9 21.75 55.04 30.01 54.99 36.31C54.95 43.99 54.56 47.16 46.4 48.94C39.8 50.38 23.54 51.29 15.63 48.6C12.66 47.59 9.61 43.66 9.61 39.57C9.61 36.59 9.22 10.31 9.22 10.31C9.22 10.31 8.44 4.74 14.22 3.2C19.07 1.67 44.07 -1.55 52.86 6.95Z" fill="#2E5753" fill-opacity="1.000000" fill-rule="evenodd"/>
	<path id="Vector" d="M50.97 47.4C49.8 48.03 48.34 48.51 46.4 48.94C39.8 50.38 23.54 51.29 15.63 48.6C13.93 48.03 12.18 46.44 11.01 44.47C10.67 43.03 10.33 41.16 10.29 39.28C10.24 35.44 9.7 11.08 9.7 11.08C9.7 11.08 10.04 8.15 11.89 6.86C13.68 5.61 20.09 10.84 20.09 10.84L28.25 12.43C28.25 12.43 18.98 13.49 18.2 16.66C18.2 16.66 17.66 37.55 18.68 42.41C19.7 47.31 24.22 48.12 28.2 48.22C32.18 48.36 44.8 49.66 50.97 47.4Z" fill="#1E3E3B" fill-opacity="1.000000" fill-rule="evenodd"/>
	<path id="Vector" d="M43.39 49.47C35.72 50.57 22.52 50.96 15.67 48.6C14.61 48.22 13.49 47.45 12.52 46.44C11.94 44.71 11.4 42.5 11.4 40.29C11.4 35.63 10.77 12.91 10.77 12.91C10.77 12.91 11.06 10.12 11.89 9.4C12.71 8.68 18.44 11.95 18.44 11.95L18.3 13C18.3 13 15.77 13.92 15.58 15.94C15.38 17.95 15.58 41.4 15.92 43.66C16.26 45.91 19.41 48.94 25.43 49.18C30.19 49.32 37.96 49.9 43.39 49.47Z" fill="#15312E" fill-opacity="1.000000" fill-rule="evenodd"/>
	<path id="Vector" d="M35.82 2.05C40.24 2.44 46.74 3.4 49.61 5.51C54.22 8.87 57.23 11.71 44.9 13.29C32.57 14.88 9.7 14.78 9.95 8.58C10.09 3.44 18.01 2.58 26.16 2.05C29.46 1.86 32.57 1.76 35.82 2.05Z" fill="#718280" fill-opacity="1.000000" fill-rule="evenodd"/>
	<path id="Vector" d="M37.52 2.63C41.6 3.06 46.55 3.92 48.93 5.56C53.39 8.63 56.26 11.18 44.36 12.62C32.47 14.06 10.48 13.97 10.67 8.34C10.87 3.83 18.2 2.96 25.87 2.48C29.8 2.24 33.54 2.2 37.52 2.63Z" fill="#FFFFFF" fill-opacity="1.000000" fill-rule="evenodd"/>
	<path id="Vector" d="M45.43 4.02C46.84 4.45 48.05 4.93 48.93 5.56C53.39 8.63 56.26 11.18 44.36 12.62C32.47 14.06 10.48 13.97 10.67 8.34C10.87 4.21 16.94 3.16 23.78 2.63C23.64 2.68 23.44 2.77 23.25 2.92C22.47 3.35 22.81 3.49 21.94 3.49C21.06 3.49 21.16 3.35 20.77 3.49C20.38 3.64 19.46 3.35 19.51 3.88C19.56 4.45 20.53 4.36 19.66 4.55C18.78 4.69 19.17 4.69 18.78 4.69C18.39 4.69 17.57 4.84 17.57 4.84C17.57 4.84 16.69 4.26 17.28 4.84C17.86 5.41 18.01 5.41 17.08 5.56C16.01 5.75 16.4 5.51 15.72 5.99C15.04 6.42 14.85 6.57 14.85 6.57C14.85 6.57 15.82 6.33 15.77 6.9C15.72 7.48 15.82 7.05 15.77 7.58C15.72 8.06 16.65 6.9 16.6 7.96C16.55 9.02 16.11 9.07 16.55 9.11C16.99 9.16 16.11 8.2 17.67 8.68C19.27 9.11 19.51 8.63 19.7 9.31C19.9 9.98 20.53 9.64 21.01 10.22C21.5 10.79 22.13 10.7 22.52 10.55C22.86 10.41 21.94 9.74 23.1 10.41C24.27 11.08 25.29 9.5 26.16 10.22C27.03 10.94 28.64 11.28 28.64 11.28C28.64 11.28 30.24 10.36 30.87 11.18C31.5 11.95 33.2 11.28 33.73 11.47C34.27 11.66 35.29 11.66 36.31 10.7C37.33 9.74 38.44 9.35 38.98 9.74C39.51 10.12 39.22 10.07 40.67 9.93C42.13 9.74 42.52 9.74 42.52 9.74C42.52 9.74 43.05 9.26 43.83 9.4C44.61 9.55 45.19 8.49 45.77 8.82C46.31 9.16 46.89 8.44 47.47 8.73C48.01 9.02 48.64 8.87 49.17 8.87C49.66 8.87 50.04 9.11 50.04 8.73C50.04 8.34 51.55 8.97 50 8.15C48.44 7.38 48.68 6.76 48.68 6.76C48.68 6.76 49.9 6.52 48.64 6.09C47.37 5.65 47.33 5.41 46.84 5.37C46.4 5.32 47.13 5.8 46.06 4.69C45.77 4.45 45.63 4.21 45.43 4.02Z" fill="#F1EFE5" fill-opacity="1.000000" fill-rule="evenodd"/>
	<path id="Vector" d="M50.72 6.81C53.93 9.31 54.61 11.37 44.41 12.62C32.52 14.06 10.53 13.97 10.72 8.34C10.82 5.17 14.46 3.78 19.22 3.11C18.93 3.4 18.54 3.68 18.25 3.92C17.33 4.6 16.26 4.16 16.26 4.16C16.26 4.16 16.16 4.5 15.72 4.98C15.24 5.51 14.75 4.98 14.75 4.98C14.75 4.98 13.73 5.51 14.07 6.04C14.41 6.57 13.98 6.47 13.54 6.81C13.15 7.19 12.67 9.26 13.44 9.11C14.27 8.97 14.61 8.01 15.04 8.63C15.43 9.26 14.85 10.51 16.16 10.41C17.47 10.31 18.88 9.74 18.98 10.6C19.07 11.47 20.72 12.19 22.28 11.95C23.83 11.66 26.89 11.76 26.89 12.19C26.89 12.62 27.28 12.19 28.98 12.48C30.68 12.76 33.35 12.38 34.12 12.67C34.9 12.96 37.23 13.2 37.13 12.24C37.03 11.28 37.91 10.65 39.02 11.08C40.14 11.56 41.26 11.18 41.65 11.18C42.03 11.18 42.28 10.41 43.64 10.55C45 10.7 45.29 11.08 45.29 11.08C45.29 11.08 45.38 10.46 46.35 10.46C47.33 10.46 48.3 10.41 48.54 10.55C48.78 10.7 49.27 9.69 50.43 9.79C51.6 9.88 51.65 10.79 51.69 9.69C51.74 8.58 52.03 8.68 51.55 7.96C51.31 7.67 51.02 7.24 50.72 6.81Z" fill="#E7E5D8" fill-opacity="1.000000" fill-rule="evenodd"/>
	<path id="Vector" d="M17.37 5.99C17.28 6.04 16.65 5.99 16.65 6.47C16.6 6.95 16.74 7.1 16.89 7.1C17.03 7.1 17.57 7.1 17.42 6.95C17.33 6.81 16.99 6.81 17.18 6.57C17.37 6.33 17.91 6.04 17.91 6.04L17.37 5.99Z" fill="#F1EFE5" fill-opacity="1.000000" fill-rule="evenodd"/>
	<path id="Vector" d="M18.49 7.48C18.49 7.48 18.15 7.72 19.02 7.86C19.9 8.01 19.9 7.72 19.9 7.72C19.9 7.72 20.29 8.49 19.27 8.49C18.3 8.49 18.01 7.67 18.49 7.48Z" fill="#F1EFE5" fill-opacity="1.000000" fill-rule="evenodd"/>
	<path id="Vector" d="M20.92 8.73C20.92 8.73 20.58 8.97 21.45 9.11C22.32 9.26 22.32 8.92 22.32 8.92C22.32 8.92 22.71 9.69 21.69 9.69C20.67 9.74 20.43 8.92 20.92 8.73Z" fill="#F1EFE5" fill-opacity="1.000000" fill-rule="evenodd"/>
	<path id="Vector" d="M19.32 4.79C19.22 4.84 18.59 4.79 18.59 5.27C18.54 5.75 18.68 5.89 18.83 5.89C18.98 5.89 19.51 5.89 19.36 5.75C19.27 5.61 18.93 5.61 19.12 5.37C19.32 5.13 19.85 4.84 19.85 4.84L19.32 4.79Z" fill="#F1EFE5" fill-opacity="1.000000" fill-rule="evenodd"/>
	<path id="Vector" d="M48.15 7.05C48.15 7.05 48.49 7.29 47.62 7.43C46.74 7.58 46.74 7.24 46.74 7.24C46.74 7.24 46.35 8.01 47.37 8.01C48.34 8.06 48.59 7.24 48.15 7.05Z" fill="#F1EFE5" fill-opacity="1.000000" fill-rule="evenodd"/>
	<path id="Vector" d="M45 7.77C45 7.77 44.95 8.3 44.56 8.49C44.17 8.68 43.54 8.68 43.54 8.68C43.54 8.68 44.22 8.39 44.41 8.2C44.61 7.96 45 7.58 45 7.77Z" fill="#F1EFE5" fill-opacity="1.000000" fill-rule="evenodd"/>
	<path id="Vector" d="M46.94 6.33C46.94 6.33 46.94 6.66 46.74 6.81C46.55 6.9 46.21 6.95 46.21 6.95C46.21 6.95 46.55 6.76 46.65 6.62C46.74 6.47 46.94 6.18 46.94 6.33Z" fill="#F1EFE5" fill-opacity="1.000000" fill-rule="evenodd"/>
	<path id="Vector" d="M19.07 19.78C19.07 19.78 18.98 40.97 20.14 43.51C21.31 46.06 24.32 47.16 27.47 47.45C30.58 47.74 32.37 47.84 32.37 47.84C32.37 47.84 33.64 47.45 31.65 46.54C29.7 45.63 21.74 45.87 21.31 41.25C20.87 36.59 19.61 23.24 19.7 21.51C19.8 19.78 18.98 17.95 19.07 19.78Z" fill="#416260" fill-opacity="1.000000" fill-rule="evenodd"/>
	<path id="Vector" d="M51.45 13.2C51.45 13.2 53.2 12.09 53.49 13.77C53.78 15.5 54.07 22.57 54.27 29.48C54.41 36.4 53.83 42.69 52.52 44.23C51.26 45.77 50.48 43.8 51.16 41.78C51.84 39.72 51.84 36.31 51.74 29.92C51.65 23.53 51.6 16.94 50.77 16.03C49.95 15.07 49.61 14.06 51.45 13.2Z" fill="#416260" fill-opacity="1.000000" fill-rule="evenodd"/>
	<path id="Vector" d="M47.13 14.4C48.34 14.25 48.39 15.07 47.52 15.41C46.64 15.74 43.73 16.18 42.96 16.18C42.18 16.18 42.76 14.93 43.68 14.73C44.61 14.59 47.13 14.4 47.13 14.4Z" fill="#416260" fill-opacity="1.000000" fill-rule="evenodd"/>
	<path id="Vector" d="M52.18 13.58C52.18 13.58 53.15 12.86 53.25 14.59C53.34 16.32 54.12 28.43 53.93 33.52C53.73 38.61 53.25 42.89 52.62 43.66C51.99 44.38 51.94 43.66 52.23 42.45C52.47 41.25 52.91 31.79 52.86 28.33C52.81 24.87 52.42 17.04 52.23 15.98C52.03 14.93 51.4 13.77 52.18 13.58Z" fill="#536D6A" fill-opacity="1.000000" fill-rule="evenodd"/>
	<path id="Vector" d="M52.18 13.58C52.18 13.58 53.15 12.86 53.25 14.59C53.34 16.32 54.12 28.43 53.93 33.52C53.73 38.61 53.25 42.89 52.62 43.66C52.18 44.23 52.03 43.94 52.08 43.27C52.52 42.21 52.91 40.77 53.15 38.76C53.93 32.37 53.05 18.63 52.66 16.18C52.42 14.69 52.08 14.11 51.84 13.87C51.89 13.73 51.99 13.63 52.18 13.58Z" fill="#627976" fill-opacity="1.000000" fill-rule="evenodd"/>
	<path id="Vector" d="M21.35 25.69C21.35 25.69 22.23 23.14 24.99 23.57C27.76 24.01 28.3 25.83 28.3 25.83C28.2 21.84 21.69 21.36 21.35 25.69Z" fill="#3C2012" fill-opacity="1.000000" fill-rule="evenodd"/>
	<path id="Vector" d="M24.65 25.74C23.39 25.78 22.42 27.08 22.47 28.71C22.52 30.3 23.59 31.6 24.85 31.55C26.11 31.5 27.08 30.2 27.03 28.57C26.94 26.98 25.87 25.74 24.65 25.74Z" fill="#FFFFFF" fill-opacity="1.000000" fill-rule="evenodd"/>
	<path id="Vector" d="M24.41 25.88C23.34 25.93 22.52 27.03 22.57 28.38C22.62 29.72 23.49 30.83 24.56 30.78C25.62 30.73 26.45 29.63 26.4 28.28C26.4 26.89 25.48 25.83 24.41 25.88Z" fill="#3C2012" fill-opacity="1.000000" fill-rule="evenodd"/>
	<path id="Vector" d="M22.76 28.19C22.76 28.19 22.86 29.1 23.63 29.77C24.41 30.44 25.33 30.35 25.33 30.35C25.33 30.35 24.17 30.73 23.54 30.2C22.95 29.68 22.57 28.67 22.76 28.19Z" fill="#878787" fill-opacity="1.000000" fill-rule="evenodd"/>
	<path id="Vector" d="M22.76 28.19C22.76 28.19 22.86 29.1 23.63 29.77C24.41 30.44 25.33 30.35 25.33 30.35C25.33 30.35 25.29 30.35 25.19 30.4C24.85 30.44 24.36 30.44 23.97 30.35C23.54 30.2 23.15 29.77 22.91 29.24C22.71 28.81 22.71 28.43 22.71 28.28C22.76 28.23 22.76 28.23 22.76 28.19Z" fill="#706F6F" fill-opacity="1.000000" fill-rule="evenodd"/>
	<path id="Vector" d="M22.81 28.33C22.86 28.62 23.05 29.24 23.63 29.77C24.31 30.35 25.14 30.35 25.33 30.35C25.04 30.44 24.36 30.4 23.97 30.25C23.59 30.06 23.1 29.48 22.95 29.1C22.86 28.86 22.81 28.52 22.81 28.33Z" fill="#575756" fill-opacity="1.000000" fill-rule="evenodd"/>
	<path id="Vector" d="M22.91 28.67C23 29 23.25 29.43 23.68 29.77C24.27 30.25 24.95 30.35 25.24 30.35C24.95 30.4 24.46 30.35 24.17 30.25C23.88 30.16 23.44 29.72 23.2 29.39C23 29.19 22.91 28.86 22.91 28.67Z" fill="#3C3C3B" fill-opacity="1.000000" fill-rule="evenodd"/>
	<path id="Vector" d="M24.56 26.36C24.22 26.5 24.12 26.94 24.27 27.37C24.46 27.8 24.85 28.04 25.19 27.9C25.53 27.75 25.63 27.32 25.48 26.89C25.33 26.46 24.9 26.22 24.56 26.36Z" fill="#FFFFFF" fill-opacity="1.000000" fill-rule="evenodd"/>
	<path id="Vector" d="M48.88 24.2C48.88 24.2 47.91 21.7 45.14 22.23C42.37 22.81 41.94 24.63 41.94 24.63C41.94 20.64 48.39 19.87 48.88 24.2Z" fill="#3C2012" fill-opacity="1.000000" fill-rule="evenodd"/>
	<path id="Vector" d="M24.7 32.7C23.98 32.75 23.39 33.13 23.44 33.57C23.49 34 24.12 34.29 24.85 34.19C25.58 34.14 26.16 33.76 26.11 33.33C26.11 32.94 25.48 32.65 24.7 32.7Z" fill="#EA5160" fill-opacity="1.000000" fill-rule="evenodd"/>
	<path id="Vector" d="M45.87 31.55C45.24 31.6 44.75 31.93 44.8 32.27C44.85 32.61 45.38 32.85 45.97 32.8C46.6 32.75 47.08 32.41 47.03 32.08C47.03 31.74 46.5 31.5 45.87 31.55Z" fill="#EA5160" fill-opacity="1.000000" fill-rule="evenodd"/>
	<path id="Vector" d="M45.53 24.63C44.27 24.68 43.3 25.98 43.34 27.61C43.39 29.19 44.46 30.49 45.72 30.44C46.98 30.4 47.96 29.1 47.91 27.47C47.86 25.83 46.79 24.58 45.53 24.63Z" fill="#FFFFFF" fill-opacity="1.000000" fill-rule="evenodd"/>
	<path id="Vector" d="M45.33 24.73C44.27 24.78 43.44 25.88 43.49 27.23C43.54 28.57 44.41 29.68 45.48 29.63C46.55 29.58 47.37 28.47 47.32 27.13C47.28 25.78 46.4 24.68 45.33 24.73Z" fill="#3C2012" fill-opacity="1.000000" fill-rule="evenodd"/>
	<path id="Vector" d="M43.68 27.08C43.68 27.08 43.78 27.99 44.56 28.67C45.33 29.34 46.26 29.24 46.26 29.24C46.26 29.24 45.09 29.63 44.46 29.1C43.88 28.52 43.44 27.51 43.68 27.08Z" fill="#878787" fill-opacity="1.000000" fill-rule="evenodd"/>
	<path id="Vector" d="M43.68 27.08C43.68 27.08 43.78 27.99 44.56 28.67C45.33 29.34 46.26 29.24 46.26 29.24C46.26 29.24 46.21 29.24 46.11 29.29C45.77 29.34 45.29 29.34 44.9 29.24C44.46 29.1 44.07 28.67 43.83 28.14C43.64 27.71 43.64 27.32 43.64 27.18C43.68 27.08 43.68 27.08 43.68 27.08Z" fill="#706F6F" fill-opacity="1.000000" fill-rule="evenodd"/>
	<path id="Vector" d="M43.68 27.18C43.73 27.47 43.93 28.09 44.51 28.62C45.19 29.19 46.01 29.19 46.21 29.19C45.92 29.29 45.24 29.24 44.85 29.1C44.46 28.91 43.98 28.33 43.83 27.95C43.73 27.71 43.73 27.37 43.68 27.18Z" fill="#575756" fill-opacity="1.000000" fill-rule="evenodd"/>
	<path id="Vector" d="M43.78 27.51C43.88 27.85 44.12 28.28 44.56 28.62C45.14 29.1 45.82 29.19 46.11 29.19C45.82 29.24 45.34 29.19 45.04 29.1C44.75 29 44.32 28.57 44.07 28.23C43.93 28.04 43.83 27.75 43.78 27.51Z" fill="#3C3C3B" fill-opacity="1.000000" fill-rule="evenodd"/>
	<path id="Vector" d="M45.48 25.21C45.14 25.35 45.04 25.78 45.19 26.22C45.38 26.65 45.77 26.89 46.11 26.74C46.45 26.6 46.55 26.17 46.4 25.74C46.21 25.3 45.82 25.06 45.48 25.21Z" fill="#FFFFFF" fill-opacity="1.000000" fill-rule="evenodd"/>
	<path id="Vector" d="M32.52 -0.06C33.78 -0.06 34.85 0.9 34.85 2.1C34.85 3.3 33.78 4.26 32.52 4.26C31.26 4.26 30.19 3.3 30.19 2.1C30.19 0.9 31.21 -0.06 32.52 -0.06Z" fill="#DB3715" fill-opacity="1.000000" fill-rule="evenodd"/>
	<path id="Vector" d="M32.57 0.08C33.83 0.08 34.8 1.04 34.8 2.2C34.8 3.35 33.78 4.31 32.57 4.31C31.31 4.31 30.33 3.35 30.33 2.2C30.33 0.99 31.35 0.08 32.57 0.08Z" fill="#BE2218" fill-opacity="1.000000" fill-rule="evenodd"/>
	<path id="Vector" d="M33.49 0.32C34.17 0.66 34.66 1.33 34.66 2.15C34.66 3.25 33.68 4.16 32.47 4.16C31.79 4.16 31.21 3.88 30.82 3.44C31.11 3.59 31.45 3.68 31.79 3.68C33 3.68 33.98 2.77 33.98 1.67C34.02 1.09 33.83 0.66 33.49 0.32Z" fill="#AC2014" fill-opacity="1.000000" fill-rule="evenodd"/>
	<path id="Vector" d="M32.03 0.32C32.52 0.32 32.96 0.66 32.96 1.09C32.96 1.52 32.57 1.86 32.03 1.86C31.55 1.86 31.11 1.52 31.11 1.09C31.11 0.66 31.55 0.32 32.03 0.32Z" fill="#DB3715" fill-opacity="1.000000" fill-rule="evenodd"/>
	<path id="Vector" d="M33.64 0.95C33.64 0.95 34.32 1.57 34.17 2.24C34.02 2.92 34.61 2.53 34.61 2.1C34.61 1.71 34.56 1.28 34.36 1.09C34.17 0.9 33.49 0.71 33.64 0.95Z" fill="#DB3715" fill-opacity="1.000000" fill-rule="evenodd"/>
	<path id="Vector" d="M31.94 0.71C32.13 0.71 32.28 0.85 32.28 0.99C32.28 1.19 32.13 1.28 31.94 1.28C31.74 1.28 31.6 1.14 31.6 0.99C31.6 0.85 31.74 0.71 31.94 0.71Z" fill="#E26037" fill-opacity="1.000000" fill-rule="evenodd"/>
	<path id="Vector" d="M45.09 0.66C46.6 0.66 47.81 1.81 47.81 3.25C47.81 4.69 46.6 5.85 45.09 5.85C43.59 5.85 42.37 4.69 42.37 3.25C42.42 1.81 43.64 0.66 45.09 0.66Z" fill="#DB3715" fill-opacity="1.000000" fill-rule="evenodd"/>
	<path id="Vector" d="M45.19 0.85C46.64 0.85 47.81 1.95 47.81 3.35C47.81 4.74 46.64 5.85 45.19 5.85C43.73 5.85 42.57 4.74 42.57 3.35C42.62 1.95 43.78 0.85 45.19 0.85Z" fill="#BE2218" fill-opacity="1.000000" fill-rule="evenodd"/>
	<path id="Vector" d="M46.31 1.09C47.13 1.47 47.66 2.29 47.66 3.25C47.66 4.6 46.55 5.65 45.14 5.65C44.36 5.65 43.68 5.32 43.2 4.79C43.54 4.98 43.93 5.08 44.36 5.08C45.77 5.08 46.89 4.02 46.89 2.68C46.89 2.05 46.64 1.52 46.31 1.09Z" fill="#AC2014" fill-opacity="1.000000" fill-rule="evenodd"/>
	<path id="Vector" d="M44.56 1.14C45.14 1.14 45.63 1.57 45.63 2.05C45.63 2.53 45.14 2.96 44.56 2.96C43.98 2.96 43.49 2.53 43.49 2.05C43.49 1.57 43.98 1.14 44.56 1.14Z" fill="#DB3715" fill-opacity="1.000000" fill-rule="evenodd"/>
	<path id="Vector" d="M44.46 1.62C44.7 1.62 44.85 1.76 44.85 2C44.85 2.24 44.65 2.39 44.46 2.39C44.22 2.39 44.07 2.24 44.07 2C44.07 1.76 44.22 1.62 44.46 1.62Z" fill="#E26037" fill-opacity="1.000000" fill-rule="evenodd"/>
	<path id="Vector" d="M41.69 1.28C43.2 1.28 44.41 2.44 44.41 3.88C44.41 5.32 43.2 6.47 41.69 6.47C40.19 6.47 38.97 5.32 38.97 3.88C38.97 2.44 40.19 1.28 41.69 1.28Z" fill="#C8231A" fill-opacity="1.000000" fill-rule="evenodd"/>
	<path id="Vector" d="M41.79 1.47C43.25 1.47 44.41 2.58 44.41 3.97C44.41 5.37 43.25 6.47 41.79 6.47C40.33 6.47 39.17 5.37 39.17 3.97C39.17 2.58 40.33 1.47 41.79 1.47Z" fill="#AD2419" fill-opacity="1.000000" fill-rule="evenodd"/>
	<path id="Vector" d="M42.86 1.71C43.68 2.15 44.27 2.96 44.27 3.88C44.27 5.22 43.15 6.28 41.74 6.28C40.96 6.28 40.29 5.94 39.8 5.41C40.14 5.61 40.53 5.7 40.96 5.7C42.37 5.7 43.49 4.65 43.49 3.3C43.49 2.68 43.25 2.15 42.86 1.71Z" fill="#941D0E" fill-opacity="1.000000" fill-rule="evenodd"/>
	<path id="Vector" d="M41.16 1.76C41.74 1.76 42.23 2.2 42.23 2.68C42.23 3.16 41.74 3.59 41.16 3.59C40.58 3.59 40.09 3.16 40.09 2.68C40.09 2.2 40.58 1.76 41.16 1.76Z" fill="#BE2218" fill-opacity="1.000000" fill-rule="evenodd"/>
	<path id="Vector" d="M43.05 2.53C43.05 2.53 43.83 3.25 43.68 4.07C43.49 4.89 44.17 4.41 44.17 3.92C44.17 3.44 44.12 2.96 43.88 2.72C43.63 2.48 42.81 2.2 43.05 2.53Z" fill="#BE2218" fill-opacity="1.000000" fill-rule="evenodd"/>
	<path id="Vector" d="M27.08 0.37C28.59 0.37 29.8 1.52 29.8 2.96C29.8 4.41 28.59 5.56 27.08 5.56C25.58 5.56 24.36 4.41 24.36 2.96C24.36 1.52 25.58 0.37 27.08 0.37Z" fill="#DB3715" fill-opacity="1.000000" fill-rule="evenodd"/>
	<path id="Vector" d="M27.18 0.56C28.64 0.56 29.8 1.67 29.8 3.06C29.8 4.45 28.64 5.56 27.18 5.56C25.72 5.56 24.56 4.45 24.56 3.06C24.56 1.67 25.72 0.56 27.18 0.56Z" fill="#BE2218" fill-opacity="1.000000" fill-rule="evenodd"/>
	<path id="Vector" d="M28.25 0.8C29.07 1.23 29.61 2 29.61 2.96C29.61 4.31 28.49 5.37 27.08 5.37C26.31 5.37 25.63 5.03 25.14 4.5C25.48 4.69 25.87 4.79 26.31 4.79C27.71 4.79 28.83 3.73 28.83 2.39C28.83 1.76 28.64 1.23 28.25 0.8Z" fill="#AC2014" fill-opacity="1.000000" fill-rule="evenodd"/>
	<path id="Vector" d="M26.5 0.85C27.08 0.85 27.57 1.28 27.57 1.76C27.57 2.29 27.08 2.68 26.5 2.68C25.92 2.68 25.43 2.24 25.43 1.76C25.48 1.28 25.92 0.85 26.5 0.85Z" fill="#DB3715" fill-opacity="1.000000" fill-rule="evenodd"/>
	<path id="Vector" d="M28.44 1.62C28.44 1.62 29.22 2.34 29.07 3.16C28.88 3.97 29.56 3.49 29.56 3.01C29.56 2.53 29.51 2.05 29.27 1.81C29.02 1.52 28.2 1.28 28.44 1.62Z" fill="#DB3715" fill-opacity="1.000000" fill-rule="evenodd"/>
	<path id="Vector" d="M26.4 1.33C26.65 1.33 26.79 1.47 26.79 1.71C26.79 1.91 26.6 2.1 26.4 2.1C26.16 2.1 26.01 1.95 26.01 1.71C26.01 1.47 26.21 1.33 26.4 1.33Z" fill="#E26037" fill-opacity="1.000000" fill-rule="evenodd"/>
	<path id="Vector" d="M28.93 2C30.43 2 31.65 3.16 31.65 4.6C31.65 6.04 30.43 7.19 28.93 7.19C27.42 7.19 26.21 6.04 26.21 4.6C26.21 3.2 27.42 2 28.93 2Z" fill="#DB3715" fill-opacity="1.000000" fill-rule="evenodd"/>
	<path id="Vector" d="M29.02 2.2C30.48 2.2 31.65 3.3 31.65 4.69C31.65 6.09 30.48 7.19 29.02 7.19C27.57 7.19 26.4 6.09 26.4 4.69C26.4 3.3 27.57 2.2 29.02 2.2Z" fill="#BE2218" fill-opacity="1.000000" fill-rule="evenodd"/>
	<path id="Vector" d="M30.09 2.48C30.92 2.87 31.45 3.68 31.45 4.65C31.45 5.99 30.33 7.05 28.93 7.05C28.15 7.05 27.47 6.71 26.98 6.18C27.32 6.37 27.71 6.47 28.15 6.47C29.56 6.47 30.67 5.41 30.67 4.07C30.67 3.44 30.48 2.92 30.09 2.48Z" fill="#AC2014" fill-opacity="1.000000" fill-rule="evenodd"/>
	<path id="Vector" d="M28.34 2.53C28.93 2.53 29.41 2.96 29.41 3.44C29.41 3.97 28.93 4.36 28.34 4.36C27.76 4.36 27.28 3.92 27.28 3.44C27.33 2.92 27.76 2.53 28.34 2.53Z" fill="#DB3715" fill-opacity="1.000000" fill-rule="evenodd"/>
	<path id="Vector" d="M30.29 3.25C30.29 3.25 31.06 3.97 30.92 4.79C30.72 5.61 31.4 5.13 31.4 4.65C31.4 4.16 31.35 3.68 31.11 3.44C30.87 3.2 30.04 2.96 30.29 3.25Z" fill="#DB3715" fill-opacity="1.000000" fill-rule="evenodd"/>
	<path id="Vector" d="M28.25 2.96C28.49 2.96 28.64 3.11 28.64 3.35C28.64 3.54 28.44 3.73 28.25 3.73C28 3.73 27.86 3.59 27.86 3.35C27.86 3.16 28.05 2.96 28.25 2.96Z" fill="#E26037" fill-opacity="1.000000" fill-rule="evenodd"/>
	<path id="Vector" d="M32.81 2.96C34.31 2.96 35.53 4.12 35.53 5.56C35.53 7 34.31 8.15 32.81 8.15C31.31 8.15 30.09 7 30.09 5.56C30.09 4.12 31.31 2.96 32.81 2.96Z" fill="#C8231A" fill-opacity="1.000000" fill-rule="evenodd"/>
	<path id="Vector" d="M32.91 3.16C34.36 3.16 35.53 4.26 35.53 5.65C35.53 7.05 34.36 8.15 32.91 8.15C31.45 8.15 30.29 7.05 30.29 5.65C30.29 4.26 31.45 3.16 32.91 3.16Z" fill="#AD2419" fill-opacity="1.000000" fill-rule="evenodd"/>
	<path id="Vector" d="M33.97 3.4C34.8 3.78 35.33 4.6 35.33 5.56C35.33 6.9 34.22 7.96 32.81 7.96C32.03 7.96 31.35 7.62 30.87 7.1C31.21 7.29 31.6 7.38 32.03 7.38C33.44 7.38 34.56 6.33 34.56 4.98C34.61 4.41 34.36 3.83 33.97 3.4Z" fill="#AC2014" fill-opacity="1.000000" fill-rule="evenodd"/>
	<path id="Vector" d="M32.28 3.44C32.86 3.44 33.34 3.88 33.34 4.36C33.34 4.84 32.86 5.27 32.28 5.27C31.69 5.27 31.21 4.84 31.21 4.36C31.21 3.88 31.69 3.44 32.28 3.44Z" fill="#BE2218" fill-opacity="1.000000" fill-rule="evenodd"/>
	<path id="Vector" d="M34.17 4.21C34.17 4.21 34.95 4.93 34.8 5.75C34.61 6.57 35.29 6.09 35.29 5.61C35.29 5.13 35.24 4.65 34.99 4.41C34.75 4.16 33.93 3.88 34.17 4.21Z" fill="#BE2218" fill-opacity="1.000000" fill-rule="evenodd"/>
	<path id="Vector" d="M30.09 6.09C31.6 6.09 32.81 7.24 32.81 8.68C32.81 10.12 31.6 11.28 30.09 11.28C28.59 11.28 27.37 10.12 27.37 8.68C27.37 7.24 28.59 6.09 30.09 6.09Z" fill="#DB3715" fill-opacity="1.000000" fill-rule="evenodd"/>
	<path id="Vector" d="M30.19 6.28C31.64 6.28 32.81 7.38 32.81 8.78C32.81 10.17 31.64 11.28 30.19 11.28C28.73 11.28 27.57 10.17 27.57 8.78C27.57 7.38 28.73 6.28 30.19 6.28Z" fill="#BE2218" fill-opacity="1.000000" fill-rule="evenodd"/>
	<path id="Vector" d="M31.26 6.52C32.08 6.9 32.62 7.72 32.62 8.68C32.62 10.03 31.5 11.08 30.09 11.08C29.31 11.08 28.63 10.75 28.15 10.22C28.49 10.41 28.88 10.51 29.31 10.51C30.72 10.51 31.84 9.45 31.84 8.1C31.84 7.48 31.64 6.95 31.26 6.52Z" fill="#AC2014" fill-opacity="1.000000" fill-rule="evenodd"/>
	<path id="Vector" d="M29.56 6.57C30.14 6.57 30.63 7 30.63 7.48C30.63 8.01 30.14 8.39 29.56 8.39C28.98 8.39 28.49 7.96 28.49 7.48C28.49 6.95 28.98 6.57 29.56 6.57Z" fill="#DB3715" fill-opacity="1.000000" fill-rule="evenodd"/>
	<path id="Vector" d="M31.45 7.29C31.45 7.29 32.23 8.01 32.08 8.82C31.89 9.64 32.62 9.16 32.62 8.68C32.62 8.2 32.57 7.72 32.32 7.48C32.03 7.24 31.21 7 31.45 7.29Z" fill="#DB3715" fill-opacity="1.000000" fill-rule="evenodd"/>
	<path id="Vector" d="M29.41 7.05C29.65 7.05 29.8 7.19 29.8 7.43C29.8 7.67 29.61 7.82 29.41 7.82C29.17 7.82 29.02 7.67 29.02 7.43C29.02 7.19 29.22 7.05 29.41 7.05Z" fill="#E26037" fill-opacity="1.000000" fill-rule="evenodd"/>
	<path id="Vector" d="M34.56 7C36.06 7 37.28 8.15 37.28 9.59C37.28 11.03 36.06 12.19 34.56 12.19C33.05 12.19 31.84 11.03 31.84 9.59C31.84 8.15 33.05 7 34.56 7Z" fill="#DB3715" fill-opacity="1.000000" fill-rule="evenodd"/>
	<path id="Vector" d="M34.65 7.19C36.11 7.19 37.28 8.3 37.28 9.69C37.28 11.08 36.11 12.19 34.65 12.19C33.2 12.19 32.03 11.08 32.03 9.69C32.03 8.3 33.2 7.19 34.65 7.19Z" fill="#BE2218" fill-opacity="1.000000" fill-rule="evenodd"/>
	<path id="Vector" d="M35.72 7.43C36.55 7.82 37.08 8.63 37.08 9.59C37.08 10.94 35.97 12 34.56 12C33.78 12 33.1 11.66 32.62 11.13C32.96 11.32 33.34 11.42 33.78 11.42C35.19 11.42 36.31 10.36 36.31 9.02C36.31 8.39 36.11 7.86 35.72 7.43Z" fill="#AC2014" fill-opacity="1.000000" fill-rule="evenodd"/>
	<path id="Vector" d="M33.98 7.48C34.56 7.48 35.04 7.91 35.04 8.39C35.04 8.92 34.56 9.31 33.98 9.31C33.39 9.31 32.91 8.87 32.91 8.39C32.96 7.86 33.39 7.48 33.98 7.48Z" fill="#DB3715" fill-opacity="1.000000" fill-rule="evenodd"/>
	<path id="Vector" d="M35.92 8.2C35.92 8.2 36.69 8.92 36.55 9.74C36.35 10.55 37.03 10.07 37.03 9.59C37.03 9.11 36.98 8.63 36.74 8.39C36.5 8.15 35.67 7.91 35.92 8.2Z" fill="#DB3715" fill-opacity="1.000000" fill-rule="evenodd"/>
	<path id="Vector" d="M33.88 7.96C34.12 7.96 34.27 8.1 34.27 8.34C34.27 8.54 34.07 8.73 33.88 8.73C33.64 8.73 33.49 8.58 33.49 8.34C33.49 8.1 33.68 7.96 33.88 7.96Z" fill="#E26037" fill-opacity="1.000000" fill-rule="evenodd"/>
	<path id="Vector" d="M36.98 1.04C38.49 1.04 39.7 2.2 39.7 3.64C39.7 5.08 38.49 6.23 36.98 6.23C35.48 6.23 34.27 5.08 34.27 3.64C34.27 2.2 35.48 1.04 36.98 1.04Z" fill="#DB3715" fill-opacity="1.000000" fill-rule="evenodd"/>
	<path id="Vector" d="M37.08 1.23C38.54 1.23 39.7 2.34 39.7 3.73C39.7 5.13 38.54 6.23 37.08 6.23C35.63 6.23 34.46 5.13 34.46 3.73C34.46 2.34 35.63 1.23 37.08 1.23Z" fill="#BE2218" fill-opacity="1.000000" fill-rule="evenodd"/>
	<path id="Vector" d="M38.15 1.47C38.97 1.86 39.51 2.68 39.51 3.64C39.51 4.98 38.39 6.04 36.98 6.04C36.21 6.04 35.53 5.7 35.04 5.17C35.38 5.37 35.77 5.46 36.21 5.46C37.62 5.46 38.73 4.41 38.73 3.06C38.78 2.44 38.54 1.91 38.15 1.47Z" fill="#AC2014" fill-opacity="1.000000" fill-rule="evenodd"/>
	<path id="Vector" d="M36.45 1.52C37.03 1.52 37.52 1.95 37.52 2.44C37.52 2.96 37.03 3.35 36.45 3.35C35.87 3.35 35.38 2.92 35.38 2.44C35.38 1.95 35.87 1.52 36.45 1.52Z" fill="#DB3715" fill-opacity="1.000000" fill-rule="evenodd"/>
	<path id="Vector" d="M36.35 2C36.6 2 36.74 2.15 36.74 2.39C36.74 2.58 36.55 2.77 36.35 2.77C36.11 2.77 35.97 2.63 35.97 2.39C35.92 2.15 36.11 2 36.35 2Z" fill="#E26037" fill-opacity="1.000000" fill-rule="evenodd"/>
	<path id="Vector" d="M37.66 4.07C39.17 4.07 40.38 5.22 40.38 6.66C40.38 8.1 39.17 9.26 37.66 9.26C36.16 9.26 34.95 8.1 34.95 6.66C34.95 5.22 36.16 4.07 37.66 4.07Z" fill="#DB3715" fill-opacity="1.000000" fill-rule="evenodd"/>
	<path id="Vector" d="M37.76 4.26C39.22 4.26 40.38 5.37 40.38 6.76C40.38 8.15 39.22 9.26 37.76 9.26C36.31 9.26 35.14 8.15 35.14 6.76C35.14 5.37 36.31 4.26 37.76 4.26Z" fill="#BE2218" fill-opacity="1.000000" fill-rule="evenodd"/>
	<path id="Vector" d="M38.83 4.55C39.65 4.93 40.19 5.75 40.19 6.71C40.19 8.06 39.07 9.11 37.66 9.11C36.89 9.11 36.21 8.78 35.72 8.25C36.06 8.44 36.45 8.54 36.89 8.54C38.3 8.54 39.41 7.48 39.41 6.13C39.46 5.51 39.22 4.93 38.83 4.55Z" fill="#AC2014" fill-opacity="1.000000" fill-rule="evenodd"/>
	<path id="Vector" d="M37.13 4.55C37.71 4.55 38.2 4.98 38.2 5.46C38.2 5.99 37.71 6.37 37.13 6.37C36.55 6.37 36.06 5.94 36.06 5.46C36.06 4.98 36.55 4.55 37.13 4.55Z" fill="#DB3715" fill-opacity="1.000000" fill-rule="evenodd"/>
	<path id="Vector" d="M39.02 5.32C39.02 5.32 39.8 6.04 39.65 6.86C39.46 7.67 40.14 7.19 40.14 6.71C40.14 6.23 40.09 5.75 39.85 5.51C39.61 5.27 38.83 5.03 39.02 5.32Z" fill="#DB3715" fill-opacity="1.000000" fill-rule="evenodd"/>
	<path id="Vector" d="M37.03 5.03C37.28 5.03 37.42 5.17 37.42 5.41C37.42 5.61 37.23 5.8 37.03 5.8C36.79 5.8 36.65 5.65 36.65 5.41C36.65 5.17 36.79 5.03 37.03 5.03Z" fill="#E26037" fill-opacity="1.000000" fill-rule="evenodd"/>
	<path id="Vector" d="M49.95 4.26C51.26 4.26 52.32 5.27 52.32 6.52C52.32 7.77 51.26 8.78 49.95 8.78C48.64 8.78 47.57 7.77 47.57 6.52C47.57 5.27 48.64 4.26 49.95 4.26Z" fill="#DB3715" fill-opacity="1.000000" fill-rule="evenodd"/>
	<path id="Vector" d="M50.04 4.41C51.3 4.41 52.37 5.41 52.37 6.62C52.37 7.82 51.35 8.83 50.04 8.83C48.73 8.83 47.71 7.82 47.71 6.62C47.71 5.41 48.73 4.41 50.04 4.41Z" fill="#BE2218" fill-opacity="1.000000" fill-rule="evenodd"/>
	<path id="Vector" d="M50.97 4.65C51.69 4.98 52.18 5.7 52.18 6.52C52.18 7.67 51.16 8.63 49.95 8.63C49.27 8.63 48.64 8.34 48.25 7.86C48.54 8.01 48.88 8.1 49.27 8.1C50.48 8.1 51.5 7.14 51.5 5.99C51.5 5.51 51.31 5.03 50.97 4.65Z" fill="#AC2014" fill-opacity="1.000000" fill-rule="evenodd"/>
	<path id="Vector" d="M49.46 4.69C49.99 4.69 50.38 5.08 50.38 5.51C50.38 5.94 49.95 6.33 49.46 6.33C48.93 6.33 48.54 5.94 48.54 5.51C48.54 5.03 48.93 4.69 49.46 4.69Z" fill="#DB3715" fill-opacity="1.000000" fill-rule="evenodd"/>
	<path id="Vector" d="M51.16 5.37C51.16 5.37 51.84 5.99 51.69 6.71C51.55 7.43 52.13 7 52.13 6.57C52.13 6.13 52.08 5.75 51.89 5.51C51.65 5.27 50.97 5.08 51.16 5.37Z" fill="#DB3715" fill-opacity="1.000000" fill-rule="evenodd"/>
	<path id="Vector" d="M46.01 2.68C47.52 2.68 48.73 3.83 48.73 5.27C48.73 6.71 47.52 7.86 46.01 7.86C44.51 7.86 43.3 6.71 43.3 5.27C43.3 3.83 44.51 2.68 46.01 2.68Z" fill="#DB3715" fill-opacity="1.000000" fill-rule="evenodd"/>
	<path id="Vector" d="M46.11 2.82C47.57 2.82 48.73 3.92 48.73 5.32C48.73 6.71 47.57 7.82 46.11 7.82C44.65 7.82 43.49 6.71 43.49 5.32C43.49 3.97 44.65 2.82 46.11 2.82Z" fill="#BE2218" fill-opacity="1.000000" fill-rule="evenodd"/>
	<path id="Vector" d="M47.18 3.11C48 3.49 48.54 4.31 48.54 5.27C48.54 6.62 47.42 7.67 46.01 7.67C45.24 7.67 44.56 7.34 44.07 6.81C44.41 7 44.8 7.1 45.24 7.1C46.65 7.1 47.76 6.04 47.76 4.69C47.76 4.07 47.52 3.54 47.18 3.11Z" fill="#AC2014" fill-opacity="1.000000" fill-rule="evenodd"/>
	<path id="Vector" d="M45.43 3.16C46.01 3.16 46.5 3.59 46.5 4.07C46.5 4.6 46.01 4.98 45.43 4.98C44.85 4.98 44.36 4.55 44.36 4.07C44.41 3.54 44.85 3.16 45.43 3.16Z" fill="#DB3715" fill-opacity="1.000000" fill-rule="evenodd"/>
	<path id="Vector" d="M45.33 3.59C45.58 3.59 45.72 3.73 45.72 3.97C45.72 4.16 45.53 4.36 45.33 4.36C45.09 4.36 44.95 4.21 44.95 3.97C44.95 3.78 45.14 3.59 45.33 3.59Z" fill="#E26037" fill-opacity="1.000000" fill-rule="evenodd"/>
	<path id="Vector" d="M41.94 5.32C43.44 5.32 44.65 6.47 44.65 7.91C44.65 9.35 43.44 10.51 41.94 10.51C40.43 10.51 39.22 9.35 39.22 7.91C39.22 6.47 40.43 5.32 41.94 5.32Z" fill="#DB3715" fill-opacity="1.000000" fill-rule="evenodd"/>
	<path id="Vector" d="M42.03 5.51C43.49 5.51 44.65 6.61 44.65 8.01C44.65 9.4 43.49 10.51 42.03 10.51C40.58 10.51 39.41 9.4 39.41 8.01C39.41 6.61 40.58 5.51 42.03 5.51Z" fill="#BE2218" fill-opacity="1.000000" fill-rule="evenodd"/>
	<path id="Vector" d="M43.1 5.75C43.93 6.13 44.46 6.95 44.46 7.91C44.46 9.26 43.34 10.31 41.94 10.31C41.16 10.31 40.48 9.98 39.99 9.45C40.33 9.64 40.72 9.74 41.16 9.74C42.57 9.74 43.68 8.68 43.68 7.34C43.68 6.71 43.49 6.18 43.1 5.75Z" fill="#AC2014" fill-opacity="1.000000" fill-rule="evenodd"/>
	<path id="Vector" d="M41.4 5.8C41.98 5.8 42.47 6.23 42.47 6.71C42.47 7.19 41.98 7.62 41.4 7.62C40.82 7.62 40.33 7.19 40.33 6.71C40.33 6.23 40.82 5.8 41.4 5.8Z" fill="#DB3715" fill-opacity="1.000000" fill-rule="evenodd"/>
	<path id="Vector" d="M43.29 6.57C43.29 6.57 44.07 7.29 43.93 8.1C43.73 8.92 44.41 8.44 44.41 7.96C44.41 7.48 44.36 7 44.12 6.76C43.88 6.47 43.05 6.23 43.29 6.57Z" fill="#DB3715" fill-opacity="1.000000" fill-rule="evenodd"/>
	<path id="Vector" d="M41.26 6.28C41.5 6.28 41.64 6.42 41.64 6.66C41.64 6.86 41.45 7.05 41.26 7.05C41.01 7.05 40.87 6.9 40.87 6.66C40.87 6.42 41.06 6.28 41.26 6.28Z" fill="#E26037" fill-opacity="1.000000" fill-rule="evenodd"/>
	<path id="Vector" d="M46.5 6.37C48 6.37 49.22 7.53 49.22 8.97C49.22 10.41 48 11.56 46.5 11.56C44.99 11.56 43.78 10.41 43.78 8.97C43.78 7.53 44.99 6.37 46.5 6.37Z" fill="#C8231A" fill-opacity="1.000000" fill-rule="evenodd"/>
	<path id="Vector" d="M46.6 6.57C48.05 6.57 49.22 7.67 49.22 9.07C49.22 10.46 48.05 11.56 46.6 11.56C45.14 11.56 43.97 10.46 43.97 9.07C43.97 7.67 45.14 6.57 46.6 6.57Z" fill="#AD2419" fill-opacity="1.000000" fill-rule="evenodd"/>
	<path id="Vector" d="M47.66 6.81C48.49 7.19 49.02 8.01 49.02 8.97C49.02 10.31 47.91 11.37 46.5 11.37C45.72 11.37 45.04 11.03 44.56 10.51C44.9 10.7 45.28 10.79 45.72 10.79C47.13 10.79 48.25 9.74 48.25 8.39C48.25 7.77 48.05 7.24 47.66 6.81Z" fill="#AC2014" fill-opacity="1.000000" fill-rule="evenodd"/>
	<path id="Vector" d="M45.97 6.86C46.55 6.86 47.03 7.29 47.03 7.77C47.03 8.3 46.55 8.68 45.97 8.68C45.38 8.68 44.9 8.25 44.9 7.77C44.9 7.29 45.38 6.86 45.97 6.86Z" fill="#DB3715" fill-opacity="1.000000" fill-rule="evenodd"/>
	<path id="Vector" d="M42.76 9.35C44.27 9.35 45.48 10.51 45.48 11.95C45.48 12.14 45.48 12.33 45.43 12.48C45.09 12.52 44.75 12.57 44.41 12.62C43.15 12.76 41.74 12.91 40.29 13.05C40.14 12.72 40.04 12.38 40.04 12C40.04 10.51 41.26 9.35 42.76 9.35Z" fill="#DB3715" fill-opacity="1.000000" fill-rule="evenodd"/>
	<path id="Vector" d="M42.86 9.55C44.31 9.55 45.48 10.65 45.48 12.04C45.48 12.19 45.48 12.33 45.43 12.48C45.09 12.52 44.75 12.57 44.41 12.62C43.2 12.76 41.84 12.91 40.43 13C40.29 12.72 40.24 12.38 40.24 12.04C40.24 10.65 41.4 9.55 42.86 9.55Z" fill="#BE2218" fill-opacity="1.000000" fill-rule="evenodd"/>
	<path id="Vector" d="M43.93 9.83C44.75 10.22 45.28 11.03 45.28 12C45.28 12.19 45.28 12.38 45.24 12.52C44.95 12.57 44.7 12.62 44.41 12.62L44.17 12.67C44.41 12.28 44.56 11.85 44.56 11.42C44.51 10.79 44.31 10.27 43.93 9.83Z" fill="#AC2014" fill-opacity="1.000000" fill-rule="evenodd"/>
	<path id="Vector" d="M42.18 9.88C42.76 9.88 43.25 10.31 43.25 10.79C43.25 11.32 42.76 11.71 42.18 11.71C41.6 11.71 41.11 11.28 41.11 10.79C41.16 10.27 41.6 9.88 42.18 9.88Z" fill="#DB3715" fill-opacity="1.000000" fill-rule="evenodd"/>
	<path id="Vector" d="M44.12 10.6C44.12 10.6 44.9 11.32 44.75 12.14C44.56 12.96 45.24 12.48 45.24 12C45.24 11.52 45.19 11.04 44.95 10.79C44.7 10.55 43.88 10.31 44.12 10.6Z" fill="#DB3715" fill-opacity="1.000000" fill-rule="evenodd"/>
	<path id="Vector" d="M42.08 10.31C42.32 10.31 42.47 10.46 42.47 10.7C42.47 10.89 42.28 11.08 42.08 11.08C41.84 11.08 41.69 10.94 41.69 10.7C41.69 10.51 41.89 10.31 42.08 10.31Z" fill="#E26037" fill-opacity="1.000000" fill-rule="evenodd"/>
	<path id="Vector" d="M38.25 8.58C39.75 8.58 40.97 9.74 40.97 11.18C40.97 11.95 40.63 12.62 40.09 13.1C39.02 13.2 37.86 13.24 36.74 13.29C36.01 12.81 35.58 12.04 35.58 11.18C35.58 9.74 36.79 8.58 38.25 8.58Z" fill="#DB3715" fill-opacity="1.000000" fill-rule="evenodd"/>
	<path id="Vector" d="M38.34 8.73C39.8 8.73 40.97 9.83 40.97 11.23C40.97 11.95 40.63 12.57 40.14 13.05C39.07 13.15 37.96 13.2 36.84 13.24C36.16 12.81 35.72 12.04 35.72 11.23C35.72 9.88 36.94 8.73 38.34 8.73Z" fill="#BE2218" fill-opacity="1.000000" fill-rule="evenodd"/>
	<path id="Vector" d="M39.41 9.02C40.24 9.4 40.77 10.22 40.77 11.18C40.77 11.95 40.38 12.67 39.75 13.1C38.83 13.15 37.91 13.24 36.99 13.29C36.74 13.15 36.5 12.96 36.31 12.76C36.65 12.96 37.03 13.05 37.47 13.05C38.88 13.05 40 12 40 10.65C40.04 9.98 39.8 9.45 39.41 9.02Z" fill="#AC2014" fill-opacity="1.000000" fill-rule="evenodd"/>
	<path id="Vector" d="M37.71 9.07C38.3 9.07 38.78 9.5 38.78 9.98C38.78 10.51 38.3 10.89 37.71 10.89C37.13 10.89 36.65 10.46 36.65 9.98C36.65 9.45 37.13 9.07 37.71 9.07Z" fill="#DB3715" fill-opacity="1.000000" fill-rule="evenodd"/>
	<path id="Vector" d="M39.61 9.79C39.61 9.79 40.38 10.51 40.24 11.32C40.04 12.14 40.72 11.66 40.72 11.18C40.72 10.7 40.67 10.22 40.43 9.98C40.19 9.74 39.41 9.5 39.61 9.79Z" fill="#DB3715" fill-opacity="1.000000" fill-rule="evenodd"/>
	<path id="Vector" d="M37.62 9.5C37.86 9.5 38 9.64 38 9.88C38 10.07 37.81 10.27 37.62 10.27C37.37 10.27 37.23 10.12 37.23 9.88C37.23 9.69 37.37 9.5 37.62 9.5Z" fill="#E26037" fill-opacity="1.000000" fill-rule="evenodd"/>
	<path id="Vector" d="M50.09 6.81C51.6 6.81 52.81 7.96 52.81 9.4C52.81 9.59 52.81 9.74 52.76 9.93C52.47 10.65 51.4 11.28 49.17 11.8C48.15 11.47 47.37 10.51 47.37 9.35C47.37 7.96 48.59 6.81 50.09 6.81Z" fill="#DB3715" fill-opacity="1.000000" fill-rule="evenodd"/>
	<path id="Vector" d="M50.19 6.95C51.64 6.95 52.81 8.06 52.81 9.45C52.81 9.55 52.81 9.69 52.76 9.79C52.52 10.51 51.5 11.18 49.22 11.76C48.25 11.37 47.57 10.51 47.57 9.45C47.57 8.1 48.73 6.95 50.19 6.95Z" fill="#BE2218" fill-opacity="1.000000" fill-rule="evenodd"/>
	<path id="Vector" d="M51.26 7.24C52.08 7.62 52.62 8.44 52.62 9.4C52.62 9.74 52.52 10.12 52.37 10.41C51.89 10.89 50.96 11.32 49.46 11.76C48.93 11.61 48.49 11.37 48.15 10.99C48.49 11.18 48.88 11.28 49.31 11.28C50.72 11.28 51.84 10.22 51.84 8.87C51.84 8.2 51.64 7.67 51.26 7.24Z" fill="#AC2014" fill-opacity="1.000000" fill-rule="evenodd"/>
	<path id="Vector" d="M49.51 7.29C50.09 7.29 50.58 7.72 50.58 8.2C50.58 8.73 50.09 9.11 49.51 9.11C48.93 9.11 48.44 8.68 48.44 8.2C48.49 7.67 48.93 7.29 49.51 7.29Z" fill="#DB3715" fill-opacity="1.000000" fill-rule="evenodd"/>
	<path id="Vector" d="M51.45 8.01C51.45 8.01 52.23 8.73 52.08 9.55C51.89 10.36 52.57 9.88 52.57 9.4C52.57 8.92 52.52 8.44 52.28 8.2C52.03 7.96 51.21 7.72 51.45 8.01Z" fill="#DB3715" fill-opacity="1.000000" fill-rule="evenodd"/>
	<path id="Vector" d="M49.41 7.72C49.65 7.72 49.8 7.86 49.8 8.1C49.8 8.3 49.61 8.49 49.41 8.49C49.17 8.49 49.02 8.34 49.02 8.1C49.02 7.91 49.22 7.72 49.41 7.72Z" fill="#E26037" fill-opacity="1.000000" fill-rule="evenodd"/>
	<path id="Vector" d="M47.52 9.98C48.63 9.98 49.61 10.65 49.99 11.56C48.73 11.95 47.03 12.28 44.8 12.57C44.8 11.13 46.01 9.98 47.52 9.98Z" fill="#DB3715" fill-opacity="1.000000" fill-rule="evenodd"/>
	<path id="Vector" d="M47.62 10.17C48.63 10.17 49.56 10.75 49.99 11.56C48.78 11.9 47.18 12.24 45.04 12.52C45.04 11.23 46.21 10.17 47.62 10.17Z" fill="#BE2218" fill-opacity="1.000000" fill-rule="evenodd"/>
	<path id="Vector" d="M48.68 10.41C49.22 10.65 49.61 11.08 49.85 11.56C49.65 11.61 49.46 11.66 49.27 11.71C49.22 11.28 49.02 10.79 48.68 10.41Z" fill="#AC2014" fill-opacity="1.000000" fill-rule="evenodd"/>
	<path id="Vector" d="M46.98 10.46C47.57 10.46 48.05 10.89 48.05 11.37C48.05 11.66 47.91 11.95 47.62 12.09C47.32 12.14 47.03 12.19 46.74 12.24C46.3 12.14 45.97 11.76 45.97 11.32C45.92 10.89 46.4 10.46 46.98 10.46Z" fill="#DB3715" fill-opacity="1.000000" fill-rule="evenodd"/>
	<path id="Vector" d="M48.88 11.23C48.88 11.23 49.12 11.47 49.31 11.76C49.51 11.71 49.7 11.66 49.85 11.61C49.8 11.52 49.75 11.47 49.7 11.42C49.46 11.18 48.63 10.89 48.88 11.23Z" fill="#DB3715" fill-opacity="1.000000" fill-rule="evenodd"/>
	<path id="Vector" d="M46.89 10.94C47.13 10.94 47.28 11.08 47.28 11.32C47.28 11.56 47.08 11.71 46.89 11.71C46.64 11.71 46.5 11.56 46.5 11.32C46.5 11.08 46.64 10.94 46.89 10.94Z" fill="#E26037" fill-opacity="1.000000" fill-rule="evenodd"/>
	<path id="Vector" d="M34.36 9.4C35.87 9.4 37.08 10.55 37.08 12C37.08 12.48 36.94 12.91 36.74 13.29C35.24 13.39 33.68 13.44 32.13 13.44C31.84 13 31.69 12.52 31.69 12C31.64 10.55 32.86 9.4 34.36 9.4Z" fill="#DB3715" fill-opacity="1.000000" fill-rule="evenodd"/>
	<path id="Vector" d="M34.41 9.59C35.87 9.59 37.03 10.7 37.03 12.09C37.03 12.52 36.94 12.91 36.69 13.29C35.24 13.39 33.73 13.44 32.18 13.44C31.94 13.05 31.79 12.57 31.79 12.09C31.84 10.7 33 9.59 34.41 9.59Z" fill="#BE2218" fill-opacity="1.000000" fill-rule="evenodd"/>
	<path id="Vector" d="M35.53 9.83C36.35 10.22 36.89 11.04 36.89 12C36.89 12.48 36.74 12.91 36.5 13.29C36.01 13.29 35.58 13.34 35.09 13.34C35.72 12.91 36.11 12.19 36.11 11.42C36.11 10.79 35.87 10.27 35.53 9.83Z" fill="#AC2014" fill-opacity="1.000000" fill-rule="evenodd"/>
	<path id="Vector" d="M33.78 9.88C34.36 9.88 34.85 10.31 34.85 10.79C34.85 11.32 34.36 11.71 33.78 11.71C33.2 11.71 32.71 11.28 32.71 10.79C32.71 10.31 33.2 9.88 33.78 9.88Z" fill="#DB3715" fill-opacity="1.000000" fill-rule="evenodd"/>
	<path id="Vector" d="M35.67 10.65C35.67 10.65 36.45 11.37 36.3 12.19C36.11 13 36.79 12.52 36.79 12.04C36.79 11.56 36.74 11.08 36.5 10.84C36.3 10.6 35.48 10.31 35.67 10.65Z" fill="#DB3715" fill-opacity="1.000000" fill-rule="evenodd"/>
	<path id="Vector" d="M33.68 10.36C33.93 10.36 34.07 10.51 34.07 10.75C34.07 10.94 33.88 11.13 33.68 11.13C33.44 11.13 33.29 10.99 33.29 10.75C33.29 10.51 33.49 10.36 33.68 10.36Z" fill="#E26037" fill-opacity="1.000000" fill-rule="evenodd"/>
	<path id="Vector" d="M27.13 9.11C28.63 9.11 29.85 10.27 29.85 11.71C29.85 12.38 29.61 12.96 29.17 13.44C27.76 13.44 26.35 13.39 24.99 13.29C24.65 12.86 24.41 12.28 24.41 11.71C24.41 10.27 25.63 9.11 27.13 9.11Z" fill="#DB3715" fill-opacity="1.000000" fill-rule="evenodd"/>
	<path id="Vector" d="M27.23 9.31C28.68 9.31 29.85 10.41 29.85 11.8C29.85 12.43 29.61 13 29.22 13.44C27.86 13.44 26.5 13.39 25.14 13.29C24.8 12.86 24.61 12.33 24.61 11.8C24.61 10.41 25.77 9.31 27.23 9.31Z" fill="#BE2218" fill-opacity="1.000000" fill-rule="evenodd"/>
	<path id="Vector" d="M28.29 9.55C29.12 9.93 29.65 10.75 29.65 11.71C29.65 12.38 29.36 12.96 28.93 13.39C28.39 13.39 27.81 13.39 27.28 13.34C28.25 13 28.93 12.14 28.93 11.08C28.93 10.51 28.68 9.98 28.29 9.55Z" fill="#AC2014" fill-opacity="1.000000" fill-rule="evenodd"/>
	<path id="Vector" d="M26.6 9.59C27.18 9.59 27.66 10.03 27.66 10.51C27.66 11.03 27.18 11.42 26.6 11.42C26.01 11.42 25.53 10.99 25.53 10.51C25.53 10.03 26.01 9.59 26.6 9.59Z" fill="#DB3715" fill-opacity="1.000000" fill-rule="evenodd"/>
	<path id="Vector" d="M28.49 10.36C28.49 10.36 29.27 11.08 29.12 11.9C28.93 12.72 29.61 12.24 29.61 11.76C29.61 11.28 29.56 10.79 29.31 10.55C29.07 10.27 28.25 10.03 28.49 10.36Z" fill="#DB3715" fill-opacity="1.000000" fill-rule="evenodd"/>
	<path id="Vector" d="M26.5 10.07C26.74 10.07 26.89 10.22 26.89 10.46C26.89 10.65 26.69 10.84 26.5 10.84C26.26 10.84 26.11 10.7 26.11 10.46C26.06 10.22 26.26 10.07 26.5 10.07Z" fill="#E26037" fill-opacity="1.000000" fill-rule="evenodd"/>
	<path id="Vector" d="M21.74 -0.25C23.25 -0.25 24.46 0.9 24.46 2.34C24.46 3.78 23.25 4.93 21.74 4.93C20.24 4.93 19.02 3.78 19.02 2.34C19.02 0.9 20.24 -0.25 21.74 -0.25Z" fill="#DB3715" fill-opacity="1.000000" fill-rule="evenodd"/>
	<path id="Vector" d="M21.84 -0.06C23.3 -0.06 24.46 1.04 24.46 2.44C24.46 3.83 23.3 4.93 21.84 4.93C20.38 4.93 19.22 3.83 19.22 2.44C19.22 1.04 20.38 -0.06 21.84 -0.06Z" fill="#BE2218" fill-opacity="1.000000" fill-rule="evenodd"/>
	<path id="Vector" d="M22.91 0.18C23.73 0.56 24.27 1.38 24.27 2.34C24.27 3.68 23.15 4.74 21.74 4.74C20.96 4.74 20.29 4.41 19.8 3.88C20.14 4.07 20.53 4.16 20.96 4.16C22.37 4.16 23.49 3.11 23.49 1.76C23.54 1.14 23.29 0.61 22.91 0.18Z" fill="#AC2014" fill-opacity="1.000000" fill-rule="evenodd"/>
	<path id="Vector" d="M21.21 0.23C21.79 0.23 22.28 0.66 22.28 1.14C22.28 1.67 21.79 2.05 21.21 2.05C20.63 2.05 20.14 1.62 20.14 1.14C20.14 0.66 20.63 0.23 21.21 0.23Z" fill="#DB3715" fill-opacity="1.000000" fill-rule="evenodd"/>
	<path id="Vector" d="M23.1 0.99C23.1 0.99 23.88 1.71 23.73 2.53C23.54 3.35 24.22 2.87 24.22 2.39C24.22 1.91 24.17 1.43 23.93 1.19C23.68 0.9 22.91 0.66 23.1 0.99Z" fill="#DB3715" fill-opacity="1.000000" fill-rule="evenodd"/>
	<path id="Vector" d="M21.11 0.71C21.35 0.71 21.5 0.85 21.5 1.09C21.5 1.33 21.31 1.47 21.11 1.47C20.87 1.47 20.72 1.33 20.72 1.09C20.72 0.85 20.87 0.71 21.11 0.71Z" fill="#E26037" fill-opacity="1.000000" fill-rule="evenodd"/>
	<path id="Vector" d="M13.88 2.63C15.38 2.63 16.6 3.78 16.6 5.22C16.6 6.66 15.38 7.82 13.88 7.82C12.37 7.82 11.16 6.66 11.16 5.22C11.16 3.83 12.37 2.63 13.88 2.63Z" fill="#DB3715" fill-opacity="1.000000" fill-rule="evenodd"/>
	<path id="Vector" d="M13.97 2.82C15.43 2.82 16.6 3.92 16.6 5.32C16.6 6.71 15.43 7.82 13.97 7.82C12.52 7.82 11.35 6.71 11.35 5.32C11.35 3.92 12.52 2.82 13.97 2.82Z" fill="#BE2218" fill-opacity="1.000000" fill-rule="evenodd"/>
	<path id="Vector" d="M15.04 3.11C15.87 3.49 16.4 4.31 16.4 5.27C16.4 6.61 15.29 7.67 13.88 7.67C13.1 7.67 12.42 7.34 11.94 6.81C12.28 7 12.66 7.1 13.1 7.1C14.51 7.1 15.63 6.04 15.63 4.69C15.63 4.07 15.43 3.54 15.04 3.11Z" fill="#AC2014" fill-opacity="1.000000" fill-rule="evenodd"/>
	<path id="Vector" d="M13.34 3.16C13.93 3.16 14.41 3.59 14.41 4.07C14.41 4.6 13.93 4.98 13.34 4.98C12.76 4.98 12.28 4.55 12.28 4.07C12.28 3.54 12.76 3.16 13.34 3.16Z" fill="#DB3715" fill-opacity="1.000000" fill-rule="evenodd"/>
	<path id="Vector" d="M15.24 3.88C15.24 3.88 16.01 4.6 15.87 5.41C15.67 6.23 16.35 5.75 16.35 5.27C16.35 4.79 16.3 4.31 16.06 4.07C15.82 3.83 14.99 3.59 15.24 3.88Z" fill="#DB3715" fill-opacity="1.000000" fill-rule="evenodd"/>
	<path id="Vector" d="M13.25 3.59C13.49 3.59 13.64 3.73 13.64 3.97C13.64 4.21 13.44 4.36 13.25 4.36C13 4.36 12.86 4.21 12.86 3.97C12.86 3.73 13 3.59 13.25 3.59Z" fill="#E26037" fill-opacity="1.000000" fill-rule="evenodd"/>
	<path id="Vector" d="M18.54 0.8C20.04 0.8 21.26 1.95 21.26 3.4C21.26 4.84 20.04 5.99 18.54 5.99C17.03 5.99 15.82 4.84 15.82 3.4C15.87 1.95 17.08 0.8 18.54 0.8Z" fill="#DB3715" fill-opacity="1.000000" fill-rule="evenodd"/>
	<path id="Vector" d="M18.64 0.99C20.09 0.99 21.26 2.1 21.26 3.49C21.26 4.89 20.09 5.99 18.64 5.99C17.18 5.99 16.01 4.89 16.01 3.49C16.01 2.1 17.23 0.99 18.64 0.99Z" fill="#BE2218" fill-opacity="1.000000" fill-rule="evenodd"/>
	<path id="Vector" d="M19.75 1.23C20.58 1.62 21.11 2.44 21.11 3.4C21.11 4.74 19.99 5.8 18.59 5.8C17.81 5.8 17.13 5.46 16.65 4.93C16.99 5.13 17.37 5.22 17.81 5.22C19.22 5.22 20.33 4.16 20.33 2.82C20.33 2.2 20.09 1.67 19.75 1.23Z" fill="#AC2014" fill-opacity="1.000000" fill-rule="evenodd"/>
	<path id="Vector" d="M18.01 1.28C18.59 1.28 19.07 1.71 19.07 2.2C19.07 2.72 18.59 3.11 18.01 3.11C17.42 3.11 16.94 2.68 16.94 2.2C16.94 1.71 17.42 1.28 18.01 1.28Z" fill="#DB3715" fill-opacity="1.000000" fill-rule="evenodd"/>
	<path id="Vector" d="M19.9 2.05C19.9 2.05 20.67 2.77 20.53 3.59C20.33 4.41 21.01 3.92 21.01 3.44C21.01 2.96 20.97 2.48 20.72 2.24C20.48 1.96 19.7 1.71 19.9 2.05Z" fill="#DB3715" fill-opacity="1.000000" fill-rule="evenodd"/>
	<path id="Vector" d="M17.91 1.76C18.15 1.76 18.3 1.91 18.3 2.15C18.3 2.39 18.1 2.53 17.91 2.53C17.67 2.53 17.52 2.39 17.52 2.15C17.52 1.91 17.67 1.76 17.91 1.76Z" fill="#E26037" fill-opacity="1.000000" fill-rule="evenodd"/>
	<path id="Vector" d="M17.08 4.93C18.59 4.93 19.8 6.09 19.8 7.53C19.8 8.97 18.59 10.12 17.08 10.12C15.58 10.12 14.36 8.97 14.36 7.53C14.36 6.09 15.58 4.93 17.08 4.93Z" fill="#C8231A" fill-opacity="1.000000" fill-rule="evenodd"/>
	<path id="Vector" d="M17.18 5.13C18.64 5.13 19.8 6.23 19.8 7.62C19.8 9.02 18.64 10.12 17.18 10.12C15.72 10.12 14.56 9.02 14.56 7.62C14.56 6.23 15.72 5.13 17.18 5.13Z" fill="#AD2419" fill-opacity="1.000000" fill-rule="evenodd"/>
	<path id="Vector" d="M18.25 5.37C19.07 5.75 19.61 6.57 19.61 7.53C19.61 8.87 18.49 9.93 17.08 9.93C16.31 9.93 15.63 9.59 15.14 9.07C15.48 9.26 15.87 9.35 16.31 9.35C17.71 9.35 18.83 8.3 18.83 6.95C18.83 6.37 18.59 5.8 18.25 5.37Z" fill="#AC2014" fill-opacity="1.000000" fill-rule="evenodd"/>
	<path id="Vector" d="M16.5 5.41C17.08 5.41 17.57 5.85 17.57 6.33C17.57 6.86 17.08 7.24 16.5 7.24C15.92 7.24 15.43 6.81 15.43 6.33C15.48 5.85 15.92 5.41 16.5 5.41Z" fill="#BE2218" fill-opacity="1.000000" fill-rule="evenodd"/>
	<path id="Vector" d="M18.39 6.18C18.39 6.18 19.17 6.9 19.02 7.72C18.83 8.54 19.51 8.06 19.51 7.58C19.51 7.1 19.46 6.62 19.22 6.37C19.02 6.13 18.2 5.85 18.39 6.18Z" fill="#BE2218" fill-opacity="1.000000" fill-rule="evenodd"/>
	<path id="Vector" d="M13.44 5.7C14.95 5.7 16.16 6.86 16.16 8.3C16.16 9.74 14.95 10.89 13.44 10.89C12.81 10.89 12.23 10.7 11.74 10.31C11.55 10.17 11.4 10.03 11.31 9.88C10.97 9.45 10.72 8.87 10.72 8.3C10.72 6.86 11.94 5.7 13.44 5.7Z" fill="#DB3715" fill-opacity="1.000000" fill-rule="evenodd"/>
	<path id="Vector" d="M13.54 5.89C14.99 5.89 16.16 7 16.16 8.39C16.16 9.79 14.99 10.89 13.54 10.89C12.08 10.89 10.92 9.79 10.92 8.39C10.92 7 12.08 5.89 13.54 5.89Z" fill="#BE2218" fill-opacity="1.000000" fill-rule="evenodd"/>
	<path id="Vector" d="M14.61 6.18C15.43 6.57 15.96 7.38 15.96 8.34C15.96 9.69 14.85 10.75 13.44 10.75C12.66 10.75 11.98 10.41 11.5 9.88C11.84 10.07 12.23 10.17 12.66 10.17C14.07 10.17 15.19 9.11 15.19 7.77C15.24 7.14 14.99 6.61 14.61 6.18Z" fill="#AC2014" fill-opacity="1.000000" fill-rule="evenodd"/>
	<path id="Vector" d="M12.91 6.23C13.49 6.23 13.98 6.66 13.98 7.14C13.98 7.67 13.49 8.06 12.91 8.06C12.32 8.06 11.84 7.62 11.84 7.14C11.84 6.61 12.32 6.23 12.91 6.23Z" fill="#DB3715" fill-opacity="1.000000" fill-rule="evenodd"/>
	<path id="Vector" d="M14.8 6.95C14.8 6.95 15.58 7.67 15.43 8.49C15.24 9.31 15.92 8.82 15.92 8.34C15.92 7.86 15.87 7.38 15.63 7.14C15.38 6.9 14.56 6.66 14.8 6.95Z" fill="#DB3715" fill-opacity="1.000000" fill-rule="evenodd"/>
	<path id="Vector" d="M12.81 6.66C13.05 6.66 13.2 6.81 13.2 7.05C13.2 7.29 13 7.43 12.81 7.43C12.57 7.43 12.42 7.29 12.42 7.05C12.42 6.81 12.57 6.66 12.81 6.66Z" fill="#E26037" fill-opacity="1.000000" fill-rule="evenodd"/>
	<path id="Vector" d="M24.46 0.71C25.97 0.71 27.18 1.86 27.18 3.3C27.18 4.74 25.97 5.89 24.46 5.89C22.96 5.89 21.74 4.74 21.74 3.3C21.74 1.86 22.96 0.71 24.46 0.71Z" fill="#C8231A" fill-opacity="1.000000" fill-rule="evenodd"/>
	<path id="Vector" d="M24.56 0.9C26.01 0.9 27.18 2 27.18 3.4C27.18 4.79 26.01 5.89 24.56 5.89C23.1 5.89 21.94 4.79 21.94 3.4C21.94 2 23.1 0.9 24.56 0.9Z" fill="#AD2419" fill-opacity="1.000000" fill-rule="evenodd"/>
	<path id="Vector" d="M25.63 1.14C26.45 1.52 26.98 2.34 26.98 3.3C26.98 4.65 25.87 5.7 24.46 5.7C23.68 5.7 23 5.37 22.52 4.84C22.86 5.03 23.25 5.13 23.68 5.13C25.09 5.13 26.21 4.07 26.21 2.72C26.21 2.1 25.96 1.57 25.63 1.14Z" fill="#AC2014" fill-opacity="1.000000" fill-rule="evenodd"/>
	<path id="Vector" d="M23.88 1.19C24.46 1.19 24.95 1.62 24.95 2.1C24.95 2.63 24.46 3.01 23.88 3.01C23.3 3.01 22.81 2.58 22.81 2.1C22.86 1.62 23.3 1.19 23.88 1.19Z" fill="#BE2218" fill-opacity="1.000000" fill-rule="evenodd"/>
	<path id="Vector" d="M25.82 1.95C25.82 1.95 26.6 2.68 26.45 3.49C26.26 4.31 26.94 3.83 26.94 3.35C26.94 2.87 26.89 2.39 26.64 2.15C26.4 1.91 25.58 1.62 25.82 1.95Z" fill="#BE2218" fill-opacity="1.000000" fill-rule="evenodd"/>
	<path id="Vector" d="M21.5 4.31C23 4.31 24.22 5.46 24.22 6.9C24.22 8.34 23 9.5 21.5 9.5C19.99 9.5 18.78 8.34 18.78 6.9C18.78 5.51 19.99 4.31 21.5 4.31Z" fill="#DB3715" fill-opacity="1.000000" fill-rule="evenodd"/>
	<path id="Vector" d="M21.6 4.5C23.05 4.5 24.22 5.61 24.22 7C24.22 8.39 23.05 9.5 21.6 9.5C20.14 9.5 18.97 8.39 18.97 7C18.97 5.61 20.14 4.5 21.6 4.5Z" fill="#BE2218" fill-opacity="1.000000" fill-rule="evenodd"/>
	<path id="Vector" d="M22.66 4.79C23.49 5.17 24.02 5.99 24.02 6.95C24.02 8.3 22.91 9.35 21.5 9.35C20.72 9.35 20.04 9.02 19.56 8.49C19.9 8.68 20.28 8.78 20.72 8.78C22.13 8.78 23.25 7.72 23.25 6.37C23.25 5.75 23.05 5.22 22.66 4.79Z" fill="#AC2014" fill-opacity="1.000000" fill-rule="evenodd"/>
	<path id="Vector" d="M20.97 4.84C21.55 4.84 22.03 5.27 22.03 5.75C22.03 6.28 21.55 6.66 20.97 6.66C20.38 6.66 19.9 6.23 19.9 5.75C19.9 5.22 20.38 4.84 20.97 4.84Z" fill="#DB3715" fill-opacity="1.000000" fill-rule="evenodd"/>
	<path id="Vector" d="M22.86 5.56C22.86 5.56 23.63 6.28 23.49 7.1C23.29 7.91 23.97 7.43 23.97 6.95C23.97 6.47 23.93 5.99 23.68 5.75C23.44 5.51 22.62 5.27 22.86 5.56Z" fill="#DB3715" fill-opacity="1.000000" fill-rule="evenodd"/>
	<path id="Vector" d="M20.82 5.27C21.06 5.27 21.21 5.41 21.21 5.65C21.21 5.89 21.01 6.04 20.82 6.04C20.58 6.04 20.43 5.89 20.43 5.65C20.43 5.41 20.63 5.27 20.82 5.27Z" fill="#E26037" fill-opacity="1.000000" fill-rule="evenodd"/>
	<path id="Vector" d="M25.33 5.13C26.84 5.13 28.05 6.28 28.05 7.72C28.05 9.16 26.84 10.31 25.33 10.31C23.83 10.31 22.62 9.16 22.62 7.72C22.62 6.28 23.83 5.13 25.33 5.13Z" fill="#DB3715" fill-opacity="1.000000" fill-rule="evenodd"/>
	<path id="Vector" d="M25.43 5.32C26.89 5.32 28.05 6.42 28.05 7.82C28.05 9.21 26.89 10.31 25.43 10.31C23.98 10.31 22.81 9.21 22.81 7.82C22.81 6.42 23.98 5.32 25.43 5.32Z" fill="#BE2218" fill-opacity="1.000000" fill-rule="evenodd"/>
	<path id="Vector" d="M26.5 5.61C27.32 5.99 27.86 6.81 27.86 7.77C27.86 9.11 26.74 10.17 25.33 10.17C24.56 10.17 23.88 9.83 23.39 9.31C23.73 9.5 24.12 9.59 24.56 9.59C25.96 9.59 27.08 8.54 27.08 7.19C27.08 6.57 26.89 5.99 26.5 5.61Z" fill="#AC2014" fill-opacity="1.000000" fill-rule="evenodd"/>
	<path id="Vector" d="M24.75 5.61C25.33 5.61 25.82 6.04 25.82 6.52C25.82 7.05 25.33 7.43 24.75 7.43C24.17 7.43 23.68 7 23.68 6.52C23.73 6.04 24.17 5.61 24.75 5.61Z" fill="#DB3715" fill-opacity="1.000000" fill-rule="evenodd"/>
	<path id="Vector" d="M26.69 6.37C26.69 6.37 27.47 7.1 27.32 7.91C27.13 8.73 27.81 8.25 27.81 7.77C27.81 7.29 27.76 6.81 27.52 6.57C27.28 6.33 26.45 6.09 26.69 6.37Z" fill="#DB3715" fill-opacity="1.000000" fill-rule="evenodd"/>
	<path id="Vector" d="M24.65 6.09C24.9 6.09 25.04 6.23 25.04 6.47C25.04 6.66 24.85 6.86 24.65 6.86C24.41 6.86 24.27 6.71 24.27 6.47C24.27 6.28 24.46 6.09 24.65 6.09Z" fill="#E26037" fill-opacity="1.000000" fill-rule="evenodd"/>
	<path id="Vector" d="M23.05 9.02C24.56 9.02 25.77 10.17 25.77 11.61C25.77 12.24 25.53 12.81 25.14 13.29C23.64 13.2 22.13 13.1 20.72 12.91C20.48 12.52 20.33 12.09 20.33 11.61C20.33 10.17 21.55 9.02 23.05 9.02Z" fill="#DB3715" fill-opacity="1.000000" fill-rule="evenodd"/>
	<path id="Vector" d="M23.15 9.21C24.61 9.21 25.77 10.31 25.77 11.71C25.77 12.33 25.53 12.86 25.19 13.29C23.68 13.2 22.28 13.1 20.92 12.96C20.67 12.57 20.58 12.19 20.58 11.71C20.53 10.31 21.69 9.21 23.15 9.21Z" fill="#BE2218" fill-opacity="1.000000" fill-rule="evenodd"/>
	<path id="Vector" d="M24.22 9.5C25.04 9.88 25.58 10.7 25.58 11.66C25.58 12.28 25.33 12.86 24.9 13.29C24.41 13.24 23.93 13.24 23.44 13.2C24.27 12.81 24.8 12 24.8 11.03C24.8 10.46 24.61 9.88 24.22 9.5Z" fill="#AC2014" fill-opacity="1.000000" fill-rule="evenodd"/>
	<path id="Vector" d="M22.52 9.5C23.1 9.5 23.59 9.93 23.59 10.41C23.59 10.94 23.1 11.32 22.52 11.32C21.94 11.32 21.45 10.89 21.45 10.41C21.45 9.93 21.94 9.5 22.52 9.5Z" fill="#DB3715" fill-opacity="1.000000" fill-rule="evenodd"/>
	<path id="Vector" d="M24.41 10.27C24.41 10.27 25.19 10.99 25.04 11.8C24.85 12.62 25.53 12.14 25.53 11.66C25.53 11.18 25.48 10.7 25.24 10.46C24.99 10.22 24.17 9.98 24.41 10.27Z" fill="#DB3715" fill-opacity="1.000000" fill-rule="evenodd"/>
	<path id="Vector" d="M22.42 9.98C22.66 9.98 22.81 10.12 22.81 10.36C22.81 10.55 22.62 10.75 22.42 10.75C22.18 10.75 22.03 10.6 22.03 10.36C21.99 10.17 22.18 9.98 22.42 9.98Z" fill="#E26037" fill-opacity="1.000000" fill-rule="evenodd"/>
	<path id="Vector" d="M30.96 9.02C32.47 9.02 33.68 10.17 33.68 11.61C33.68 12.28 33.39 12.91 32.96 13.39C31.64 13.44 30.33 13.44 29.07 13.39C28.59 12.91 28.29 12.28 28.29 11.61C28.25 10.17 29.46 9.02 30.96 9.02Z" fill="#DB3715" fill-opacity="1.000000" fill-rule="evenodd"/>
	<path id="Vector" d="M31.06 9.21C32.52 9.21 33.68 10.31 33.68 11.71C33.68 12.38 33.44 12.96 33 13.39C31.74 13.44 30.43 13.44 29.17 13.39C28.73 12.96 28.44 12.33 28.44 11.66C28.44 10.31 29.6 9.21 31.06 9.21Z" fill="#BE2218" fill-opacity="1.000000" fill-rule="evenodd"/>
	<path id="Vector" d="M32.13 9.5C32.96 9.88 33.49 10.7 33.49 11.66C33.49 12.38 33.15 13 32.66 13.44C31.98 13.44 31.26 13.44 30.58 13.44C31.79 13.24 32.71 12.24 32.71 11.03C32.71 10.46 32.47 9.88 32.13 9.5ZM29.27 13.44C29.17 13.34 29.12 13.29 29.02 13.2C29.27 13.29 29.51 13.39 29.75 13.44C29.61 13.44 29.41 13.44 29.27 13.44Z" fill="#AC2014" fill-opacity="1.000000" fill-rule="evenodd"/>
	<path id="Vector" d="M30.38 9.5C30.96 9.5 31.45 9.93 31.45 10.41C31.45 10.94 30.96 11.32 30.38 11.32C29.8 11.32 29.31 10.89 29.31 10.41C29.36 9.93 29.8 9.5 30.38 9.5Z" fill="#DB3715" fill-opacity="1.000000" fill-rule="evenodd"/>
	<path id="Vector" d="M32.32 10.27C32.32 10.27 33.1 10.99 32.96 11.8C32.76 12.62 33.44 12.14 33.44 11.66C33.44 11.18 33.39 10.7 33.15 10.46C32.91 10.22 32.08 9.98 32.32 10.27Z" fill="#DB3715" fill-opacity="1.000000" fill-rule="evenodd"/>
	<path id="Vector" d="M30.28 9.98C30.53 9.98 30.67 10.12 30.67 10.36C30.67 10.55 30.48 10.75 30.28 10.75C30.04 10.75 29.9 10.6 29.9 10.36C29.9 10.17 30.09 9.98 30.28 9.98Z" fill="#E26037" fill-opacity="1.000000" fill-rule="evenodd"/>
	<path id="Vector" d="M19.27 8.2C20.77 8.2 21.98 9.35 21.98 10.79C21.98 11.71 21.5 12.52 20.72 12.96C19.46 12.81 18.25 12.62 17.13 12.38C16.74 11.95 16.55 11.37 16.55 10.75C16.55 9.35 17.76 8.2 19.27 8.2Z" fill="#DB3715" fill-opacity="1.000000" fill-rule="evenodd"/>
	<path id="Vector" d="M19.36 8.34C20.82 8.34 21.98 9.45 21.98 10.84C21.98 11.71 21.5 12.48 20.82 12.91C19.61 12.76 18.39 12.57 17.32 12.38C16.98 11.95 16.74 11.42 16.74 10.84C16.74 9.5 17.91 8.34 19.36 8.34Z" fill="#BE2218" fill-opacity="1.000000" fill-rule="evenodd"/>
	<path id="Vector" d="M20.43 8.63C21.26 9.02 21.79 9.83 21.79 10.79C21.79 11.71 21.26 12.52 20.48 12.91C19.75 12.81 19.02 12.72 18.34 12.62C18.39 12.62 18.44 12.62 18.49 12.62C19.9 12.62 21.01 11.56 21.01 10.22C21.01 9.59 20.82 9.07 20.43 8.63ZM17.42 12.43C17.37 12.38 17.37 12.38 17.32 12.33C17.47 12.38 17.57 12.43 17.71 12.48C17.62 12.48 17.52 12.43 17.42 12.43Z" fill="#AC2014" fill-opacity="1.000000" fill-rule="evenodd"/>
	<path id="Vector" d="M18.73 8.68C19.32 8.68 19.8 9.11 19.8 9.59C19.8 10.12 19.32 10.51 18.73 10.51C18.15 10.51 17.66 10.07 17.66 9.59C17.66 9.07 18.15 8.68 18.73 8.68Z" fill="#DB3715" fill-opacity="1.000000" fill-rule="evenodd"/>
	<path id="Vector" d="M20.63 9.4C20.63 9.4 21.4 10.12 21.26 10.94C21.06 11.76 21.74 11.28 21.74 10.79C21.74 10.31 21.69 9.83 21.45 9.59C21.21 9.35 20.38 9.11 20.63 9.4Z" fill="#DB3715" fill-opacity="1.000000" fill-rule="evenodd"/>
	<path id="Vector" d="M18.59 9.11C18.83 9.11 18.97 9.26 18.97 9.5C18.97 9.69 18.78 9.88 18.59 9.88C18.34 9.88 18.2 9.74 18.2 9.5C18.2 9.31 18.39 9.11 18.59 9.11Z" fill="#E26037" fill-opacity="1.000000" fill-rule="evenodd"/>
	<path id="Vector" d="M15.04 8.3C16.55 8.3 17.76 9.45 17.76 10.89C17.76 11.47 17.57 11.95 17.28 12.38C15.24 11.95 13.54 11.42 12.37 10.7C12.42 9.4 13.59 8.3 15.04 8.3Z" fill="#DB3715" fill-opacity="1.000000" fill-rule="evenodd"/>
	<path id="Vector" d="M15.14 8.49C16.6 8.49 17.76 9.59 17.76 10.99C17.76 11.52 17.57 12 17.28 12.38C15.29 12 13.68 11.47 12.52 10.84C12.62 9.55 13.73 8.49 15.14 8.49Z" fill="#BE2218" fill-opacity="1.000000" fill-rule="evenodd"/>
	<path id="Vector" d="M16.21 8.78C17.03 9.16 17.57 9.98 17.57 10.94C17.57 11.47 17.37 12 17.03 12.38C16.64 12.28 16.31 12.24 15.92 12.14C16.45 11.71 16.74 11.08 16.74 10.36C16.84 9.74 16.6 9.21 16.21 8.78Z" fill="#AC2014" fill-opacity="1.000000" fill-rule="evenodd"/>
	<path id="Vector" d="M14.51 8.82C15.09 8.82 15.58 9.26 15.58 9.74C15.58 10.27 15.09 10.65 14.51 10.65C13.93 10.65 13.44 10.22 13.44 9.74C13.44 9.21 13.93 8.82 14.51 8.82Z" fill="#DB3715" fill-opacity="1.000000" fill-rule="evenodd"/>
	<path id="Vector" d="M16.4 9.55C16.4 9.55 17.18 10.27 17.03 11.08C16.84 11.9 17.52 11.42 17.52 10.94C17.52 10.46 17.47 9.98 17.23 9.74C16.98 9.5 16.21 9.26 16.4 9.55Z" fill="#DB3715" fill-opacity="1.000000" fill-rule="evenodd"/>
	<path id="Vector" d="M14.41 9.26C14.65 9.26 14.8 9.4 14.8 9.64C14.8 9.83 14.61 10.03 14.41 10.03C14.17 10.03 14.02 9.88 14.02 9.64C13.97 9.45 14.17 9.26 14.41 9.26Z" fill="#E26037" fill-opacity="1.000000" fill-rule="evenodd"/>
	<path id="Vector" d="M38.15 34.43C38.15 34.43 37.57 35.39 35.82 35.39C34.07 35.39 32.86 34.62 34.32 34.62C35.82 34.67 38.15 34.43 38.15 34.43Z" fill="#416260" fill-opacity="1.000000" fill-rule="evenodd"/>
	<path id="Vector" d="M37.96 28.38C37.96 28.38 36.35 28.95 34.95 28.71C33.54 28.47 33.3 27.8 34.51 27.95C35.72 28.09 35.77 28.14 36.5 27.99C37.18 27.85 38.68 27.85 37.96 28.38Z" fill="#416260" fill-opacity="1.000000" fill-rule="evenodd"/>
	<path id="Vector" d="M30.67 29.53C33.83 30.11 36.45 30.01 39.41 29C40.63 28.57 41.26 28.86 41.11 29.92C40.82 31.4 40 33.18 35.19 33.52C30.33 33.85 29.07 31.07 29.32 30.06C29.51 29 30.19 29.48 30.67 29.53Z" fill="#3C2012" fill-opacity="1.000000" fill-rule="evenodd"/>
	<path id="Vector" d="M40.67 31.21C40.04 32.27 38.64 33.23 35.19 33.47C32.62 33.66 31.06 32.94 30.19 32.13C30.19 30.59 31.01 30.59 31.01 30.59C31.01 30.59 37.62 30.73 39.27 30.35C40.04 30.2 40.43 30.64 40.67 31.21Z" fill="#FFFFFF" fill-opacity="1.000000" fill-rule="evenodd"/>
	<path id="Vector" d="M40.24 31.79C39.46 32.61 38 33.33 35.19 33.52C32.62 33.71 31.06 32.99 30.19 32.17C30.19 32.13 30.19 32.08 30.19 32.03L30.24 32.08C30.63 32.56 32.71 33.28 35.04 33.33C37.37 33.37 40.09 31.84 40.09 31.84L40.24 31.79Z" fill="#E4E2D8" fill-opacity="1.000000" fill-rule="evenodd"/>
	<path id="Vector" d="M40.67 31.21C40.53 31.45 40.34 31.74 40.09 31.98C40.04 31.55 39.95 30.97 39.75 30.88C39.46 30.73 38.93 31.5 36.94 31.55C34.95 31.6 31.35 31.4 31.11 31.31C30.97 31.21 30.63 31.84 30.63 32.56C30.48 32.46 30.38 32.37 30.24 32.22C30.24 30.68 31.06 30.68 31.06 30.68C31.06 30.68 37.67 30.83 39.32 30.44C40.04 30.2 40.43 30.64 40.67 31.21Z" fill="#E4E2D8" fill-opacity="1.000000" fill-rule="evenodd"/>
	<path id="Vector" d="M30.67 29.53C33.83 30.11 36.45 30.01 39.41 29C39.85 28.86 40.19 28.81 40.48 28.81C40.43 29.34 40.09 30.01 39.12 30.54C37.86 31.26 32.52 31.16 31.11 30.83C29.99 30.59 29.9 29.68 29.9 29.34C30.19 29.39 30.48 29.48 30.67 29.53Z" fill="#FFFFFF" fill-opacity="1.000000" fill-rule="evenodd"/>
	<path id="Vector" d="M30.67 29.53C33.83 30.11 36.45 30.01 39.41 29C39.85 28.86 40.19 28.81 40.48 28.81C40.43 29.29 40.14 29.87 39.36 30.4L39.41 30.35C40.19 28.95 39.36 29.34 38.54 29.68C37.66 30.06 34.46 30.2 33.54 30.16C32.62 30.16 31.45 29.87 31.16 29.82C30.87 29.77 30.67 29.87 30.72 30.2C30.77 30.49 31.16 30.73 31.31 30.83C31.26 30.83 31.16 30.78 31.11 30.78C29.99 30.54 29.9 29.63 29.9 29.29C30.19 29.39 30.48 29.48 30.67 29.53Z" fill="#E4E2D8" fill-opacity="1.000000" fill-rule="evenodd"/>
	<path id="Vector" d="M9.27 41.93C9.27 41.93 8.54 43.56 7.23 43.13C5.97 42.65 3.44 41.25 4.95 38.95C6.4 36.64 7.57 36.88 7.96 38.03C8.34 39.19 7.37 39.38 7.37 39.38C7.37 39.38 9.99 39.96 9.27 41.93Z" fill="#3C2012" fill-opacity="1.000000" fill-rule="evenodd"/>
</svg>
