<svg width="21.000000" height="21.000000" viewBox="0 0 21 21" fill="none" xmlns="http://www.w3.org/2000/svg" xmlns:xlink="http://www.w3.org/1999/xlink">
	<desc>
			Created with Pixso.
	</desc>
	<defs/>
	<path id="Vector" d="M14 0C14.5522 0 15 0.447723 15 1L15 1.99899L20 2L20 8L17.98 7.99902L20.7466 15.5953C20.9106 16.032 21 16.5051 21 16.999C21 19.2081 19.209 20.999 17 20.999C15.1367 20.999 13.5713 19.7251 13.1265 18.0008L8.87402 18.0007C8.42969 19.7256 6.86377 21 5 21C3.05518 21 1.43457 19.612 1.07471 17.7725C0.435547 17.439 0 16.7704 0 16L0 3C0 2.44772 0.447754 2 1 2L8 2C8.55225 2 9 2.44772 9 3L9 11C9 11.5128 9.38623 11.9355 9.8833 11.9933L10 12L12 12C12.5127 12 12.9355 11.614 12.9932 11.1166L13 11L13 2L10 2L10 0L14 0ZM5 15C3.89551 15 3 15.8954 3 17C3 18.1046 3.89551 19 5 19C6.10449 19 7 18.1046 7 17C7 15.8954 6.10449 15 5 15ZM17 14.999C15.8955 14.999 15 15.8945 15 16.999C15 18.1036 15.8955 18.999 17 18.999C18.1045 18.999 19 18.1036 19 16.999C19 15.8945 18.1045 14.999 17 14.999ZM15.8521 7.99902L15 7.99902L15 11C15 12.6569 13.6567 14 12 14L10 14C8.69434 14 7.58301 13.1656 7.1709 12.0009L2 12L2 14.3542C2.73291 13.5238 3.80518 13 5 13C6.86377 13 8.43018 14.2749 8.87402 16.0002L13.1255 16.0002C13.5693 14.2744 15.1357 12.999 17 12.999C17.2373 12.999 17.4697 13.0197 17.6958 13.0593L15.8521 7.99902ZM7 7L2 7L2 10L7 10L7 7ZM18 4L15 4L15 6L18 6L18 4ZM7 4L2 4L2 5L7 5L7 4Z" fill="#E07153" fill-opacity="1.000000" fill-rule="nonzero"/>
</svg>
