<svg width="18.000000" height="18.000000" viewBox="0 0 18 18" fill="none" xmlns="http://www.w3.org/2000/svg" xmlns:xlink="http://www.w3.org/1999/xlink">
	<desc>
			Created with Pixso.
	</desc>
	<defs/>
	<path id="Vector" d="M12.402 18L12.402 11.0342L14.735 11.0342L15.084 8.32617L12.402 8.32617L12.402 6.59814C12.402 5.81396 12.62 5.27881 13.744 5.27881L15.178 5.27881L15.178 2.85693C14.4838 2.7832 13.7861 2.74756 13.088 2.75C11.021 2.75 9.60602 4.01221 9.60602 6.33008L9.60602 8.32617L7.26801 8.32617L7.26801 11.0342L9.60602 11.0342L9.60602 18L1 18C0.734802 18 0.480408 17.8945 0.292908 17.707C0.105347 17.5195 0 17.2651 0 17L0 1C0 0.734863 0.105347 0.480469 0.292908 0.292969C0.480408 0.105469 0.734802 0 1 0L17 0C17.2652 0 17.5196 0.105469 17.7071 0.292969C17.8947 0.480469 18 0.734863 18 1L18 17C18 17.2651 17.8947 17.5195 17.7071 17.707C17.5196 17.8945 17.2652 18 17 18L12.402 18Z" fill="#FFFFFF" fill-opacity="1.000000" fill-rule="nonzero"/>
</svg>
