<svg width="19.067810" height="10.791016" viewBox="0 0 19.0678 10.791" fill="none" xmlns="http://www.w3.org/2000/svg" xmlns:xlink="http://www.w3.org/1999/xlink">
	<desc>
			Created with Pixso.
	</desc>
	<defs/>
	<path id="Vector" d="M18.278 8.74072C17.7102 8.06006 17.0421 7.479 16.41 6.86182C15.8397 6.30518 15.8037 5.98291 16.2621 5.34082C16.7625 4.64014 17.3006 3.96631 17.8055 3.26855C18.2767 2.6167 18.7585 1.9668 19.0065 1.18604C19.1638 0.689453 19.0247 0.470215 18.5154 0.383301C18.4277 0.368164 18.337 0.367188 18.2477 0.367188L15.2265 0.36377C14.8544 0.35791 14.6487 0.520508 14.5171 0.850098C14.3395 1.2959 14.1562 1.74121 13.9446 2.17139C13.4645 3.14697 12.9282 4.08984 12.1763 4.88818C12.0104 5.06396 11.8271 5.28662 11.55 5.19482C11.2034 5.06836 11.1013 4.49707 11.107 4.3042L11.1041 0.816895C11.0369 0.318848 10.9264 0.0966797 10.4318 0L7.2934 0.000488281C6.87451 0.000488281 6.66443 0.162598 6.44073 0.424316C6.31171 0.575684 6.27277 0.673828 6.53796 0.724121C7.05884 0.823242 7.35229 1.16016 7.43018 1.68262C7.55505 2.51709 7.54633 3.35498 7.47443 4.19238C7.45331 4.43701 7.41119 4.68115 7.31415 4.90967C7.16241 5.26855 6.91736 5.3418 6.59546 5.12109C6.30402 4.9209 6.0993 4.63867 5.89893 4.35547C5.14624 3.29199 4.54572 2.14502 4.05603 0.939941C3.91455 0.591797 3.67053 0.380371 3.30157 0.375C2.39514 0.360352 1.48853 0.35791 0.582153 0.375488C0.0367432 0.385742 -0.125916 0.650879 0.0961914 1.14502C1.08344 3.34131 2.18231 5.47607 3.61676 7.4209C4.35321 8.41895 5.19879 9.30029 6.29114 9.92432C7.52917 10.6323 8.86182 10.8452 10.2654 10.7798C10.9227 10.749 11.1201 10.5781 11.1505 9.92285C11.171 9.47461 11.2218 9.0293 11.4429 8.62646C11.6599 8.23145 11.9885 8.15576 12.3673 8.40186C12.5568 8.5249 12.7165 8.68164 12.8673 8.84668C13.2372 9.25146 13.5939 9.66846 13.9778 10.0596C14.4594 10.5498 15.0299 10.8389 15.7472 10.7798L18.5239 10.7808C18.9713 10.7515 19.2033 10.2026 18.9464 9.70361C18.766 9.35352 18.5293 9.04248 18.278 8.74072Z" fill="#FFFFFF" fill-opacity="1.000000" fill-rule="nonzero"/>
</svg>
