<svg width="32.000000" height="32.000000" viewBox="0 0 32 32" fill="none" xmlns="http://www.w3.org/2000/svg" xmlns:xlink="http://www.w3.org/1999/xlink">
	<rect id="dessert" width="32.000000" height="32.000000" fill="#FFFFFF" fill-opacity="0"/>
	<path id="Vector" d="M31 18.652C30.917 18.5388 30.8026 18.4534 30.6714 18.4064C28.1986 17.6083 21.351 15.3281 19.0684 16.2314C18.582 16.5099 18.132 16.8487 17.7281 17.24L2.41589 31.1668C2.35303 31.2389 2.31299 31.3283 2.30066 31.4236C2.28833 31.5189 2.30432 31.6158 2.34668 31.7018C2.38623 31.7877 2.44824 31.8609 2.526 31.9135C2.60376 31.9661 2.69421 31.996 2.7876 32L23.1925 29.369C23.7471 29.3187 24.2932 29.1979 24.818 29.0094C27.239 27.7027 29.876 21.6513 30.9568 19.0817C30.999 18.9506 30.999 18.8093 30.9568 18.6783L31 18.652ZM13.7078 7.1544C11.9266 6.14585 10.0591 6.09322 9.54028 7.04039C9.02148 7.98756 10.0504 9.56617 11.8315 10.5484C13.6127 11.5307 15.4716 11.6008 15.9989 10.6624C16.5264 9.72403 15.4888 8.12788 13.7078 7.1544ZM17.9097 0.0331192C17.7777 -0.0110397 17.6354 -0.0110397 17.5034 0.0331192C15.0479 0.910126 7.99268 3.4622 6.70435 5.55825C6.47485 6.07572 6.31213 6.62104 6.22021 7.18072L2.00085 27.5887C1.99536 27.6839 2.01636 27.7788 2.06165 27.8625C2.10681 27.9462 2.17432 28.0153 2.25635 28.0619C2.33838 28.1086 2.43176 28.1309 2.52563 28.1263C2.61963 28.1217 2.71033 28.0904 2.7876 28.0359L17.6849 13.653C18.1036 13.279 18.4727 12.8516 18.783 12.3814C19.9762 9.88189 18.7831 3.10264 18.1173 0.383919C18.0903 0.246094 18.017 0.122078 17.9097 0.0331192ZM15.1084 4.97945C12.1687 3.33068 8.51135 4.32168 7.62085 5.95291C6.73035 7.58414 8.37305 10.2415 11.3041 11.899C14.2351 13.5565 17.3564 13.5741 18.2211 11.9516C19.0857 10.3292 18.0308 6.63699 15.0997 4.97945L15.1084 4.97945ZM23.9967 21.8179C23.1321 19.9324 21.6708 18.7747 20.7025 19.1869C19.7341 19.5991 19.6304 21.5285 20.4863 23.4141C21.3423 25.2997 22.8035 26.4573 23.7805 26.0013C24.7574 25.5452 24.844 23.6597 23.9967 21.7829L23.9967 21.8179ZM26.1754 20.7831C24.7748 17.6873 21.2472 16.2928 19.5785 17.0646C17.9098 17.8363 17.6763 20.976 19.077 24.0806C20.4777 27.1852 22.9591 29.062 24.6278 28.2815C26.2965 27.5009 27.5675 23.8965 26.1754 20.7919L26.1754 20.7831Z" fill="#1B1B1B" fill-opacity="1.000000" fill-rule="evenodd"/>
	<path id="Vector" d="M13.7078 7.1544C11.9266 6.14585 10.0591 6.09322 9.54028 7.04039C9.02148 7.98756 10.0504 9.56617 11.8315 10.5484C13.6127 11.5307 15.4716 11.6008 15.9989 10.6624C16.5264 9.72403 15.4888 8.12788 13.7078 7.1544ZM23.9967 21.8179C23.1321 19.9324 21.6708 18.7747 20.7025 19.1869C19.7341 19.5991 19.6304 21.5285 20.4863 23.4141C21.3423 25.2997 22.8035 26.4573 23.7805 26.0013C24.7574 25.5452 24.844 23.6597 23.9967 21.7829L23.9967 21.8179Z" fill="#E07153" fill-opacity="1.000000" fill-rule="evenodd"/>
</svg>
