<svg width="32.000000" height="32.000000" viewBox="0 0 32 32" fill="none" xmlns="http://www.w3.org/2000/svg" xmlns:xlink="http://www.w3.org/1999/xlink">
	<rect id="drink" width="32.000000" height="32.000000" fill="#FFFFFF" fill-opacity="0"/>
	<path id="Vector" d="M28.4406 20.2408C28.0807 21.4892 27.4921 22.6607 26.7042 23.6963L18.5002 23.6963L18.4221 24.206C18.4221 24.4133 18.3613 24.6206 18.344 24.8193C18.3267 25.018 18.344 25.234 18.344 25.4327C18.3403 26.4551 18.5502 27.4671 18.9603 28.4044C18.0732 28.5719 17.1721 28.6558 16.269 28.655C14.0964 28.6991 11.948 28.1945 10.0245 27.1884C8.10095 26.1822 6.46509 24.7074 5.26965 22.9015C4.96838 22.8302 4.67688 22.7229 4.40149 22.5819C3.09924 21.934 2.80408 18.4525 2.10095 17.0962C1.5061 16.1527 0.800903 15.2827 0 14.5046L3.7417 14.1763L6.52844 15.9473L6.71082 15.7486C6.70654 15.6853 6.70654 15.6218 6.71082 15.5585L5.92078 9.0103C5.33044 4.09481 9.99243 0 14.9756 0L17.7362 0C22.7107 0 27.3813 4.09481 26.791 9.0103L26.0011 15.5585C26.0011 15.6622 26.0011 15.7572 26.0011 15.8522C27.1699 17.0922 28.0269 18.5902 28.5013 20.2235L28.4406 20.2408ZM31.9131 25.0094C31.9686 25.3464 31.9976 25.6872 31.9999 26.0288C31.9397 27.6326 31.2571 29.1508 30.0956 30.2644C28.934 31.3779 27.3839 32 25.771 32C24.1581 32 22.608 31.3779 21.4464 30.2644C20.2848 29.1508 19.6022 27.6326 19.542 26.0288C19.5443 25.6872 19.5734 25.3464 19.6288 25.0094L31.9131 25.0094ZM16.9636 11.1873C20.4362 11.4983 23.2577 11.8179 23.2577 12.5436C23.2577 13.2692 20.1237 13.9171 16.2517 13.9171C12.3798 13.9171 9.23706 13.2779 9.23706 12.5436C9.23706 11.8093 12.0586 11.4983 15.5311 11.1873C15.7482 11.1873 15.0972 9.31264 15.0972 8.88071C15.0972 7.60216 15.6179 6.56551 16.2517 6.56551C16.8855 6.56551 17.3977 7.60216 17.3977 8.88071C17.3977 9.31264 16.7466 11.17 16.9636 11.1873ZM7.80469 14.686C8.07373 14.47 8.35156 14.2627 8.67285 14.064C9.84485 14.6514 12.7617 15.0661 16.1649 15.0661C19.5681 15.0661 22.6674 14.6169 23.7612 14.0035C24.1259 14.2454 24.4731 14.5046 24.803 14.7724L25.4281 9.5891C25.9403 5.26968 21.8687 1.72776 17.528 1.72776L15.1144 1.72776C10.7737 1.72776 6.70215 5.2956 7.21436 9.5891L7.83069 14.6687L7.80469 14.686Z" fill="#1B1B1B" fill-opacity="1.000000" fill-rule="evenodd"/>
	<path id="Vector" d="M31.9132 25.0094C31.9686 25.3464 31.9977 25.6872 32 26.0288C31.9398 27.6326 31.2572 29.1508 30.0956 30.2644C28.934 31.3779 27.3839 32 25.771 32C24.1581 32 22.608 31.3779 21.4464 30.2644C20.2848 29.1508 19.6022 27.6326 19.542 26.0288C19.5443 25.6872 19.5734 25.3464 19.6288 25.0094L31.9132 25.0094Z" fill="#E07153" fill-opacity="1.000000" fill-rule="evenodd"/>
</svg>
