<svg width="32.000000" height="32.000000" viewBox="0 0 32 32" fill="none" xmlns="http://www.w3.org/2000/svg" xmlns:xlink="http://www.w3.org/1999/xlink">
	<rect id="pizza" width="32.000000" height="32.000000" fill="#FFFFFF" fill-opacity="0"/>
	<path id="image 32 (Traced)" d="M17.1281 0.171989L16.9587 0.341782L16.9587 7.56327L16.9587 14.7848L17.1183 14.9352L17.278 15.0857L24.4695 15.0857L31.6611 15.0857L31.8406 14.9056C32.02 14.7258 32.02 14.7249 31.975 13.8851C31.583 6.58498 26.0579 0.778374 18.8315 0.0719376C17.6421 -0.0443039 17.3251 -0.0256882 17.1281 0.171989ZM18.945 1.18217C21.2866 1.43742 23.6473 2.36755 25.51 3.76886C28.599 6.0927 30.5079 9.55389 30.8643 13.477L30.9099 13.9786L30.5938 13.9786C30.3203 13.9786 30.2737 13.9576 30.249 13.8229C30.0999 13.0084 29.8609 12.1876 29.5562 11.4437C27.651 6.79235 27.4957 6.48348 26.593 5.54872C25.7752 4.7019 25.0646 4.2916 22.8578 3.39191C22.1368 3.09798 21.1277 2.6854 20.6155 2.47514C19.8189 2.14814 19.0427 1.91497 18.2523 1.76517C18.0789 1.73238 18.0626 1.70262 18.0626 1.41922C18.0626 1.06184 17.9987 1.07908 18.945 1.18217ZM13.4399 3.04976C8.79645 3.38582 4.53516 6.00074 2.10431 10.0057C0.567627 12.5375 -0.191406 15.5979 0.0413208 18.3233C0.269287 20.9925 0.991516 23.3397 2.19495 25.3227C4.35083 28.875 7.99005 31.2327 12.3087 31.8751C13.4273 32.0415 15.5901 32.0417 16.6827 31.8754C21.057 31.2098 24.6757 28.8514 26.8382 25.2567C28.0024 23.3214 28.7535 20.8567 28.9561 18.3061C29.0103 17.6248 29.0043 17.4448 28.9222 17.2855C28.8673 17.1792 28.8155 17.0848 28.8069 17.0757C28.7985 17.0667 25.7022 17.0434 21.9264 17.0238L15.0613 16.9884L15.0259 10.104C15.0065 6.3175 14.9832 3.2125 14.9742 3.20399C14.9651 3.1954 14.8661 3.14095 14.7542 3.0829C14.5367 2.97005 14.54 2.97012 13.4399 3.04976ZM13.9229 4.44935L13.9229 4.74507L13.4226 4.82512C12.7723 4.92918 11.8661 5.23701 10.617 5.77808C10.0635 6.0179 9.1759 6.39084 8.64465 6.60692C5.72284 7.79513 4.79755 8.70381 3.63953 11.5224C3.40503 12.0932 3.04242 12.9494 2.83386 13.4251C1.5047 16.4561 1.40088 18.1849 2.40173 20.6209C2.58154 21.0585 2.95172 21.9615 3.22437 22.6274C4.82672 26.5409 5.58826 27.3027 9.4726 28.8786C10.0798 29.125 10.7628 29.4104 10.9905 29.5129C13.5147 30.6499 15.4626 30.6298 18.1814 29.4388C18.6663 29.2263 19.5909 28.8352 20.236 28.5695C22.1911 27.7643 23.1512 27.154 23.9201 26.2274C24.504 25.5238 24.8408 24.888 25.5153 23.2156C25.6995 22.7589 26.0716 21.8572 26.3421 21.2118C26.8484 20.0043 27.1387 19.1161 27.2253 18.5106L27.2748 18.1646L27.601 18.1436C27.9233 18.1228 27.9268 18.1248 27.8967 18.3166C27.8801 18.4233 27.848 18.727 27.8254 18.9914C27.7174 20.2577 27.2514 21.9417 26.6549 23.2219C25.1006 26.5574 22.1956 29.1489 18.7181 30.3023C16.692 30.9742 14.7687 31.1398 12.6597 30.8239C8.06781 30.136 4.54443 27.6533 2.59808 23.7345C1.46588 21.4547 0.960083 18.6433 1.23138 16.1381C1.7998 10.8884 4.96997 6.74046 9.73077 5.01699C10.4456 4.75822 11.5736 4.46291 12.3359 4.33491C13.2708 4.17799 13.3051 4.17342 13.6296 4.16297L13.9229 4.15356L13.9229 4.44935ZM20.1378 5.18609C20.2487 5.29735 20.3395 5.4504 20.3395 5.5263C20.3395 5.60213 20.3783 5.67818 20.4257 5.69527C20.5659 5.74564 20.7534 5.61251 20.7534 5.46258C20.7534 5.26511 21.0588 4.98385 21.2731 4.98385C21.4833 4.98385 21.8576 5.3242 21.8569 5.51475C21.8556 5.98739 21.4691 6.58284 21.05 6.75851C20.5988 6.94754 20.0001 6.84528 19.6249 6.51496C19.231 6.16832 19.1141 5.44521 19.4049 5.15371C19.6328 4.92517 19.8889 4.93652 20.1378 5.18609ZM20.3232 8.69647C21.158 9.21402 21.3337 10.3335 20.6974 11.0791C20.2364 11.6192 19.4556 11.8059 19.1716 11.4438C19.0929 11.3436 19.0286 11.1921 19.0286 11.1072C19.0286 10.8789 19.2695 10.6126 19.5222 10.5619C19.8367 10.4988 19.9945 10.3308 19.9945 10.0586C19.9945 9.78 19.7905 9.55042 19.5429 9.55042C19.4463 9.55042 19.2911 9.47397 19.1979 9.38056C18.9703 9.15237 18.9738 8.83797 19.2063 8.6048C19.3589 8.45174 19.4276 8.43147 19.6921 8.46136C19.8616 8.48053 20.1456 8.58632 20.3232 8.69647ZM25.1077 8.95387C25.4319 9.10844 25.7643 9.43841 25.9489 9.78893C26.1565 10.1833 26.1552 10.9266 25.946 11.3241C25.2723 12.6045 23.675 12.6227 23.0161 11.3575C22.2825 9.94945 23.7231 8.29392 25.1077 8.95387ZM10.9931 9.50656C11.407 9.69981 11.866 10.1973 11.9788 10.5749C12.3213 11.7214 11.4384 12.879 10.2316 12.8656C10.0038 12.8631 9.71869 12.8245 9.5979 12.7798C8.87415 12.5123 8.37268 11.8287 8.37061 11.1072C8.36859 10.404 8.87921 9.68438 9.55035 9.44443C9.97693 9.292 10.5902 9.31836 10.9931 9.50656ZM6.92175 14.0928C6.98602 14.1175 7.07812 14.2321 7.12646 14.3473C7.26398 14.6753 7.1405 14.9314 6.76764 15.0917C6.40833 15.2462 6.38727 15.4266 6.71844 15.5127C7.19891 15.6375 7.34424 16.1457 6.98761 16.4534C6.8252 16.5935 6.73889 16.6171 6.49188 16.5892C5.64001 16.4929 5.1106 15.5155 5.49799 14.7542C5.64697 14.4616 5.79614 14.3115 6.09192 14.1568C6.30511 14.0453 6.71613 14.0136 6.92175 14.0928ZM11.009 17.822C11.35 17.9648 11.5684 18.1757 11.7225 18.5106C11.8835 18.8604 11.8837 19.1279 11.7233 19.4821C11.3243 20.3628 10.1281 20.5101 10.1281 19.6785C10.1281 19.4627 10.3691 19.1679 10.5456 19.1679C10.6103 19.1679 10.6995 19.124 10.7439 19.0703C10.8325 18.9634 10.8149 18.9453 10.4393 18.754C10.0583 18.5601 10.0283 18.0187 10.3877 17.8232C10.6291 17.6919 10.6981 17.6917 11.009 17.822ZM21.2487 19.2761C22.0618 19.8505 22.0657 21.1118 21.2562 21.6837C20.2375 22.4033 18.8654 21.3954 19.1641 20.147C19.2582 19.7534 19.5599 19.3589 19.9146 19.1654C20.2905 18.9604 20.8698 19.0085 21.2487 19.2761ZM9.3548 20.7305C10.1044 21.1052 10.5182 21.8398 10.4575 22.6886C10.312 24.7213 7.59167 25.2689 6.68439 23.4483C6.1814 22.4388 6.58282 21.2336 7.58948 20.7305C7.87994 20.5854 8.04602 20.5517 8.47217 20.5517C8.89825 20.5517 9.06433 20.5854 9.3548 20.7305ZM17.9798 23.4858C18.3859 23.6977 18.6835 24.1872 18.6835 24.6433C18.6835 25.2646 18.2108 25.8221 17.6017 25.9189C17.351 25.9588 17.2903 25.9415 17.136 25.7868C16.7987 25.4485 16.9399 24.9778 17.417 24.8498C17.7331 24.7651 17.7054 24.5843 17.3531 24.4329C17.0293 24.2936 16.9587 24.1924 16.9587 23.8672C16.9587 23.4456 17.5089 23.2401 17.9798 23.4858ZM11.5943 24.2176C11.6981 24.2995 11.7875 24.4599 11.8161 24.6154C11.8804 24.9646 12.0964 25.1875 12.3704 25.1875C12.6445 25.1875 12.8604 24.9646 12.9247 24.6154C12.9781 24.3258 13.2301 24.0804 13.4744 24.0804C13.559 24.0804 13.71 24.145 13.81 24.2239C13.9628 24.3443 13.9918 24.4221 13.9918 24.7104C13.9918 25.3355 13.6516 25.8561 13.0632 26.1308C12.2202 26.5245 11.1996 26.1318 10.842 25.2762C10.7909 25.1537 10.749 24.8991 10.749 24.7104C10.749 24.4221 10.7781 24.3443 10.9308 24.2239C11.1592 24.0437 11.3712 24.0417 11.5943 24.2176Z" fill="#1B1B1B" fill-opacity="1.000000" fill-rule="evenodd"/>
	<path id="image 32 (Traced)" d="M17.1281 0.171989L16.9587 0.341782L16.9587 7.56327L16.9587 14.7848L17.1183 14.9352L17.2781 15.0857L24.4696 15.0857L31.6611 15.0857L31.8406 14.9056C32.02 14.7258 32.02 14.7249 31.975 13.8851C31.583 6.58498 26.0579 0.778374 18.8315 0.0719376C17.6421 -0.0443039 17.3251 -0.0256882 17.1281 0.171989ZM18.945 1.18217C21.2866 1.43742 23.6473 2.36755 25.5101 3.76886C28.599 6.0927 30.508 9.55389 30.8643 13.477L30.9099 13.9786L30.5938 13.9786C30.3203 13.9786 30.2737 13.9576 30.249 13.8229C30.0999 13.0084 29.861 12.1876 29.5563 11.4437C27.651 6.79235 27.4957 6.48348 26.593 5.54872C25.7752 4.7019 25.0646 4.2916 22.8578 3.39191C22.1368 3.09798 21.1277 2.6854 20.6155 2.47514C19.8189 2.14814 19.0427 1.91497 18.2524 1.76517C18.0789 1.73238 18.0626 1.70262 18.0626 1.41922C18.0626 1.06184 17.9987 1.07908 18.945 1.18217ZM20.1378 5.18609C20.2488 5.29735 20.3395 5.4504 20.3395 5.5263C20.3395 5.60213 20.3784 5.67818 20.4257 5.69527C20.5659 5.74564 20.7535 5.61251 20.7535 5.46258C20.7535 5.26511 21.0588 4.98385 21.2731 4.98385C21.4833 4.98385 21.8576 5.3242 21.857 5.51475C21.8556 5.98739 21.4692 6.58284 21.05 6.75851C20.5988 6.94755 20.0002 6.84528 19.6249 6.51496C19.2311 6.16832 19.1142 5.44521 19.4049 5.15371C19.6328 4.92517 19.8889 4.93652 20.1378 5.18609ZM20.3232 8.69647C21.158 9.21402 21.3338 10.3335 20.6974 11.0791C20.2364 11.6192 19.4556 11.8059 19.1716 11.4438C19.093 11.3436 19.0286 11.1921 19.0286 11.1072C19.0286 10.8789 19.2696 10.6126 19.5222 10.5619C19.8368 10.4988 19.9945 10.3308 19.9945 10.0586C19.9945 9.78 19.7905 9.55042 19.5429 9.55042C19.4464 9.55042 19.2911 9.47397 19.1979 9.38056C18.9703 9.15237 18.9738 8.83797 19.2063 8.6048C19.3589 8.45174 19.4276 8.43147 19.6921 8.46136C19.8616 8.48053 20.1456 8.58633 20.3232 8.69647ZM25.1077 8.95387C25.4319 9.10844 25.7643 9.43841 25.9489 9.78893C26.1566 10.1833 26.1552 10.9266 25.946 11.3241C25.2723 12.6045 23.6751 12.6227 23.0161 11.3575C22.2825 9.94945 23.7231 8.29392 25.1077 8.95387Z" fill="#E07153" fill-opacity="1.000000" fill-rule="evenodd"/>
</svg>
