<svg width="32.000000" height="32.000000" viewBox="0 0 32 32" fill="none" xmlns="http://www.w3.org/2000/svg" xmlns:xlink="http://www.w3.org/1999/xlink">
	<desc>
			Created with Pixso.
	</desc>
	<defs/>
	<rect id="Frame 12" width="32.000000" height="32.000000" fill="#FFFFFF" fill-opacity="0"/>
	<path id="image 29 (Traced)" d="M5.72595 0.100922C5.01782 0.409363 4.85046 1.35084 5.40527 1.90574C5.86072 2.36103 6.51086 2.36103 6.96619 1.90574C7.8374 1.03446 6.8573 -0.391861 5.72595 0.100922ZM13.0264 1.78563C12.3181 2.09407 12.1509 3.03555 12.7057 3.59045C13.1611 4.04574 13.8113 4.04574 14.2666 3.59045C15.1378 2.71917 14.1577 1.29285 13.0264 1.78563ZM20.927 1.79602C19.6815 2.06354 18.4836 2.99918 17.9182 4.14612C17.55 4.89287 17.4199 5.50905 17.4183 6.51286L17.4171 7.30257L18.7684 7.30137C20.3717 7.2999 20.8522 7.21791 21.6968 6.80151C22.8481 6.23389 23.7892 5.01746 24.0514 3.75765C24.1075 3.4874 24.1541 2.91095 24.1548 2.47657L24.156 1.68687L22.7697 1.69241C21.8683 1.69606 21.2236 1.73228 20.927 1.79602ZM2.6759 5.54836C1.64734 5.67212 0.907959 5.98877 0.413574 6.51735C0.0408936 6.91579 -0.0269775 7.10194 0.0391846 7.5439C0.194702 8.58063 3.02136 12.9913 5.22668 15.6384L5.7677 16.2877L6.25879 16.2877L6.75 16.2877L6.70679 16.0946C6.00745 12.9654 4.71313 10.5468 2.58936 8.39994L1.90417 7.70731L2.26611 7.28937L2.62817 6.87149L3.28955 7.52572C4.08179 8.3096 4.9386 9.35265 5.49927 10.2157C6.30701 11.4589 7.12854 13.2448 7.4541 14.4646C7.54138 14.7917 7.63574 15.0859 7.66382 15.1184C7.73853 15.2048 8.12 14.1694 8.26782 13.4787C8.44531 12.6504 8.44531 10.8701 8.26782 10.0402C8.10962 9.29951 7.7594 8.35522 7.44348 7.81668C7.31152 7.59184 6.94678 7.14694 6.63281 6.82796C6.1803 6.36846 5.95459 6.19901 5.54468 6.01144C4.65112 5.60255 3.61536 5.43534 2.6759 5.54836ZM9.85034 6.87395C9.45935 7.009 9.0592 7.2933 8.83228 7.59718C8.69763 7.77758 8.69775 7.78053 8.88 8.23582C9.56726 9.9538 9.72974 12.0371 9.31628 13.8308C9.22278 14.2362 9.12329 14.6311 9.09509 14.7083C8.91125 15.2123 9.81213 13.8691 10.225 13.0236C10.625 12.2044 10.9818 11.1013 11.1393 10.1973L11.2646 9.47689L11.4803 9.50981C11.5991 9.52785 11.8486 9.56211 12.0349 9.58598L12.3737 9.62922L12.3292 9.9225C11.9825 12.2075 11.1022 14.2055 9.729 15.8242L9.33582 16.2877L10.647 16.2877L11.9583 16.2877L11.9108 16.1297C11.8848 16.0428 11.8464 15.7033 11.8258 15.3751C11.7164 13.6441 12.7169 11.9224 14.2688 11.1712C14.5969 11.0125 14.9182 10.8826 14.9829 10.8826C15.3328 10.8826 14.8602 9.53586 14.2163 8.69807C13.1025 7.24879 11.1395 6.42862 9.85034 6.87395ZM25.4877 7.68043C24.6237 8.01316 23.9918 8.50889 23.599 9.16235C23.3888 9.51192 23.3541 9.63701 23.3278 10.1376C23.3019 10.6303 23.3357 10.8659 23.5662 11.7974C24.0028 13.5628 23.9142 14.1591 23.1445 14.6346C22.8356 14.8256 22.7448 14.8468 22.2671 14.8402C21.974 14.8361 21.5402 14.7811 21.303 14.7179C21.0657 14.6547 20.8446 14.603 20.8115 14.603C20.7786 14.603 20.7515 14.8636 20.7515 15.1821C20.7515 15.5006 20.7297 15.8802 20.703 16.0256L20.6547 16.2901L22.4535 16.2713L24.2526 16.2526L24.4784 15.1294C24.6028 14.5117 24.788 13.6746 24.8901 13.2692C25.1317 12.3111 25.7649 10.1629 25.8433 10.0361C25.8942 9.9538 25.9851 9.96574 26.3988 10.1092C26.671 10.2036 26.8937 10.3087 26.8937 10.3428C26.8937 10.3769 26.7684 10.8044 26.6155 11.293C26.1571 12.7572 25.4196 15.7721 25.4196 16.182C25.4196 16.2743 25.77 16.2877 28.1923 16.2877C29.7173 16.2877 30.9651 16.2607 30.9651 16.2277C30.9651 16.1947 30.7916 16.0036 30.5796 15.8031C30.0112 15.2656 29.4719 15.0394 28.4849 14.9246C27.621 14.8241 27.3313 14.7116 27.0845 14.3804C26.9095 14.1457 26.903 13.7309 27.0691 13.4096C27.1376 13.2772 27.3441 12.9725 27.5282 12.7324C28.0903 11.999 28.1843 11.6659 28.1886 10.3912C28.1926 9.20207 28.1134 8.81522 27.7552 8.27401C27.4552 7.82047 27.0492 7.62912 26.337 7.60525C25.9521 7.59233 25.6461 7.61943 25.4877 7.68043ZM15.2372 11.9671C14.7527 12.1456 14.3749 12.3734 14.0267 12.6967C13.7089 12.9918 13.2756 13.5697 13.2756 13.6984C13.2756 13.7264 13.481 13.8175 13.7318 13.901C13.9828 13.9845 14.1881 14.0705 14.1881 14.0922C14.1881 14.2825 13.8818 15.0943 13.8101 15.0943C13.7599 15.0943 13.5355 15.0313 13.3116 14.9543L12.9045 14.8143L12.9432 15.3579C12.9645 15.657 13.0156 15.9885 13.0568 16.0946L13.1317 16.2877L16.2941 16.2877L19.4563 16.2877L19.516 16.1297C19.5488 16.0428 19.5981 15.8384 19.6254 15.6752L19.6752 15.3786L19.2722 15.5173C19.0507 15.5935 18.8331 15.6559 18.7888 15.6559C18.7245 15.6559 18.3999 14.8218 18.3999 14.6564C18.3999 14.6334 18.6538 14.53 18.9641 14.4266C19.6071 14.2125 19.5983 14.2427 19.226 13.5352C18.8387 12.7993 17.8585 12.048 17.0837 11.8933L16.8556 11.8478L16.8556 12.383L16.8556 12.9183L16.2941 12.9183L15.7324 12.9183L15.7324 12.3918C15.7324 11.8047 15.7161 11.7907 15.2372 11.9671ZM1.90381 14.1386C0.524902 14.7152 0.0140381 15.2145 0.0100098 15.9893L0.00854492 16.2877L2.1554 16.2877L4.30237 16.2877L4.00623 15.9192C3.84326 15.7165 3.44189 15.1953 3.11414 14.7609C2.77344 14.3093 2.46948 13.9725 2.40417 13.9742C2.34131 13.9758 2.11609 14.0498 1.90381 14.1386ZM16.8556 14.603L16.8556 15.1645L16.2941 15.1645L15.7324 15.1645L15.7324 14.603L15.7324 14.0414L16.2941 14.0414L16.8556 14.0414L16.8556 14.603ZM0.0460205 17.9197C0.391235 21.7335 1.87646 24.9696 4.46802 27.5542C7.01221 30.0915 10.2574 31.6089 13.8612 31.9463C14.9851 32.0515 17.6085 31.9942 18.5531 31.8439C24.6406 30.875 29.5103 26.4376 30.9967 20.5049C31.1677 19.8224 31.3433 18.7446 31.4235 17.8847L31.4675 17.4108L15.7338 17.4108L0 17.4108L0.0460205 17.9197ZM4.41821 23.5697C5.58765 25.2416 7.28076 26.7614 9.06384 27.74C9.43054 27.9413 9.74438 28.1167 9.76123 28.1297C9.77795 28.1427 9.68457 28.3748 9.55359 28.6454C9.37781 29.0089 9.28735 29.127 9.20728 29.0974C9.14771 29.0754 8.76367 28.8663 8.35388 28.6328C6.41455 27.5274 4.5625 25.8052 3.31055 23.9432L2.89197 23.3207L3.36304 23.0359C3.79663 22.7737 3.84131 22.7606 3.92395 22.8712C3.97339 22.9373 4.1958 23.2516 4.41821 23.5697ZM11.8015 29.2038L11.8015 29.7654L11.2399 29.7654L10.6783 29.7654L10.6783 29.2038L10.6783 28.6422L11.2399 28.6422L11.8015 28.6422L11.8015 29.2038Z" fill="#E07153" fill-opacity="1.000000" fill-rule="evenodd"/>
	<path id="image 29 (Traced)" d="M0.0460205 17.9198C0.391235 21.7335 1.87646 24.9696 4.46802 27.5542C7.01221 30.0915 10.2574 31.6089 13.8612 31.9463C14.9851 32.0515 17.6085 31.9942 18.5531 31.8439C24.6406 30.875 29.5103 26.4376 30.9967 20.5049C31.1677 19.8224 31.3433 18.7446 31.4235 17.8847L31.4675 17.4108L15.7338 17.4108L0 17.4108L0.0460205 17.9198ZM4.41821 23.5697C5.58765 25.2416 7.28076 26.7614 9.06384 27.74C9.43054 27.9413 9.74438 28.1167 9.76123 28.1297C9.77795 28.1427 9.68457 28.3748 9.55359 28.6455C9.37781 29.0089 9.28735 29.127 9.20728 29.0974C9.14771 29.0754 8.76367 28.8663 8.35388 28.6328C6.41455 27.5274 4.5625 25.8052 3.31055 23.9432L2.89197 23.3207L3.36304 23.0359C3.79663 22.7738 3.84131 22.7606 3.92395 22.8713C3.97339 22.9373 4.1958 23.2516 4.41821 23.5697ZM11.8015 29.2038L11.8015 29.7654L11.2399 29.7654L10.6783 29.7654L10.6783 29.2038L10.6783 28.6422L11.2399 28.6422L11.8015 28.6422L11.8015 29.2038Z" fill="#1B1B1B" fill-opacity="1.000000" fill-rule="evenodd"/>
</svg>
