<svg width="32.000000" height="32.130356" viewBox="0 0 32 32.1304" fill="none" xmlns="http://www.w3.org/2000/svg" xmlns:xlink="http://www.w3.org/1999/xlink">
	<desc>
			Created with Pixso.
	</desc>
	<defs/>
	<rect id="sale" width="32.000000" height="32.000000" fill="#FFFFFF" fill-opacity="0"/>
	<path id="image 31 (Traced)" d="M10.7717 0.0890045C9.92139 0.276192 9.28735 0.636383 8.69678 1.26757C7.59534 2.44513 7.34094 4.19713 8.05798 5.66838L8.24829 6.05901L10.0725 6.05407L11.8967 6.04913L11.33 5.90488C10.6033 5.71994 10.316 5.57032 10.0015 5.21288C9.36047 4.48463 9.37817 3.30595 10.0415 2.55038C10.3215 2.23145 10.9005 1.94151 11.3514 1.89438C12.0481 1.82157 12.735 2.10607 13.1089 2.62238C13.4442 3.08526 13.7992 4.19675 13.9868 5.37151L14.0917 6.02776L15.0192 6.04513L15.9467 6.06244L15.9076 5.59995C15.8235 4.60613 15.3566 2.84538 14.9773 2.09245C14.1954 0.54007 12.4657 -0.283928 10.7717 0.0890045ZM19.553 0.0936966C18.9144 0.230881 18.1614 0.635696 17.7152 1.08195C16.948 1.8492 16.3612 3.37338 16.085 5.31631C16.0343 5.67326 15.9923 5.98638 15.9916 6.01213C15.991 6.03788 16.4119 6.05901 16.9268 6.05901C17.8483 6.05901 17.8635 6.05676 17.8898 5.91838C17.9045 5.84106 17.9601 5.51057 18.0134 5.18401C18.2083 3.99069 18.6472 2.79019 19.0282 2.40907C19.5455 1.89151 20.5437 1.73738 21.2458 2.06657C22.462 2.6367 22.8164 4.22813 21.952 5.23801C21.6698 5.56776 21.3691 5.72194 20.6511 5.90538L20.0842 6.05013L21.8967 6.03894L23.7092 6.02776L23.9114 5.62151C24.2269 4.98744 24.3226 4.5125 24.2888 3.74725C24.2671 3.2525 24.2192 2.97488 24.0952 2.62294C23.4445 0.775444 21.4777 -0.319679 19.553 0.0936966ZM0.421631 8.07588C0.0123291 8.34932 -0.0148926 8.47944 0.0045166 10.0702C0.0234375 11.6273 0.0274658 11.6444 0.452026 11.9614L0.624634 12.0903L15.9905 12.0903L31.3563 12.0903L31.5289 11.9614C31.9535 11.6444 31.9575 11.6273 31.9764 10.0702C31.996 8.47944 31.9688 8.34932 31.5593 8.07588L31.347 7.93401L15.9905 7.93401L0.634033 7.93401L0.421631 8.07588ZM1.55298 21.7122C1.55298 27.145 1.57361 29.5258 1.62268 29.7591C1.84778 30.8296 2.71399 31.6953 3.79041 31.9256C5.68347 32.3307 27.7158 32.0267 28.1906 31.9267C29.2512 31.7034 30.137 30.8178 30.3586 29.7591C30.4073 29.5267 30.428 27.1234 30.428 21.7122L30.428 13.9965L15.9905 13.9965L1.55298 13.9965L1.55298 21.7122ZM11.7335 17.4378C12.7445 17.6709 13.6287 18.5549 13.8617 19.566C14.2181 21.1119 13.1565 22.6719 11.562 22.9454C10.3866 23.1469 9.16614 22.5281 8.6283 21.4575C8.05933 20.3254 8.25403 19.1076 9.14648 18.215C9.85059 17.5109 10.8059 17.2239 11.7335 17.4378ZM18.9258 17.8246C19.3561 18.0453 19.5637 18.6191 19.3569 19.0163C19.1306 19.4506 14.2648 27.8607 14.1831 27.9587C14.1287 28.0239 13.9633 28.1313 13.8156 28.1974C13.0381 28.5452 12.2599 27.6848 12.6559 26.9153C13.0277 26.1929 17.7258 18.1192 17.8558 17.9792C18.1406 17.6728 18.5221 17.6176 18.9258 17.8246ZM10.677 19.3605C10.4312 19.4892 10.178 19.9173 10.178 20.2044C10.178 20.6442 10.6775 21.1215 11.1377 21.1215C11.4341 21.1215 11.7894 20.8931 11.9341 20.6096C12.3508 19.7926 11.4885 18.9357 10.677 19.3605ZM21.537 23.0853C22.6475 23.3809 23.4362 24.2489 23.6317 25.3907C23.8297 26.5463 23.16 27.8148 22.0867 28.317C20.9542 28.847 19.7565 28.6465 18.8922 27.7822C17.7405 26.6304 17.777 24.844 18.975 23.7443C19.6765 23.1003 20.6516 22.8495 21.537 23.0853ZM20.4417 24.9754C19.9963 25.1949 19.8018 25.8078 20.0381 26.2465C20.1659 26.4836 20.5974 26.7465 20.859 26.7465C21.163 26.7465 21.5371 26.5062 21.6742 26.223C21.8328 25.8955 21.8342 25.7276 21.6813 25.3908C21.4769 24.9405 20.9028 24.7481 20.4417 24.9754Z" fill="#1B1B1B" fill-opacity="1.000000" fill-rule="evenodd"/>
	<path id="image 31 (Traced)" d="M0.421631 8.07588C0.0123291 8.34932 -0.0148926 8.47945 0.0045166 10.0702C0.0234375 11.6273 0.0274658 11.6444 0.452026 11.9614L0.624634 12.0903L15.9905 12.0903L31.3563 12.0903L31.5289 11.9614C31.9535 11.6444 31.9575 11.6273 31.9764 10.0702C31.996 8.47945 31.9688 8.34932 31.5593 8.07588L31.347 7.93401L15.9905 7.93401L0.634033 7.93401L0.421631 8.07588Z" fill="#E07153" fill-opacity="1.000000" fill-rule="evenodd"/>
</svg>
