<svg width="32.000000" height="32.000000" viewBox="0 0 32 32" fill="none" xmlns="http://www.w3.org/2000/svg" xmlns:xlink="http://www.w3.org/1999/xlink">
	<rect id="set" width="32.000000" height="32.000000" fill="#FFFFFF" fill-opacity="0"/>
	<path id="Vector" d="M4.24164 27.1791L6.98431 27.1791C7.08636 27.1631 7.1908 27.1714 7.28906 27.2034C7.38727 27.2355 7.47656 27.2902 7.54968 27.3633C7.62274 27.4364 7.67749 27.5257 7.70953 27.6239C7.74152 27.7222 7.74988 27.8266 7.73383 27.9286L7.73383 30.7309C7.75031 30.8327 7.74213 30.9369 7.71014 31.0349C7.67816 31.133 7.62323 31.2219 7.54993 31.2944C7.47656 31.3669 7.38696 31.4208 7.28857 31.4517C7.19019 31.4826 7.08588 31.4895 6.98431 31.4719L4.24164 31.4719C4.14008 31.4895 4.03577 31.4826 3.93738 31.4517C3.83899 31.4208 3.74945 31.3669 3.67609 31.2944C3.60278 31.2219 3.54785 31.133 3.51581 31.0349C3.48383 30.9369 3.47571 30.8327 3.49213 30.7309L3.49213 27.9286C3.47614 27.8266 3.4845 27.7222 3.51648 27.6239C3.54852 27.5257 3.60327 27.4364 3.67633 27.3633C3.74939 27.2902 3.83868 27.2355 3.93695 27.2034C4.03516 27.1714 4.13959 27.1631 4.24164 27.1791ZM0.647339 22.4434L19.9904 22.4434C18.8099 21.9485 17.8311 21.0694 17.2127 19.9485C16.5943 18.8277 16.3726 17.5309 16.5835 16.2683L27.7498 16.2683C27.9718 17.5318 27.7549 18.8333 27.1351 19.9566C26.5154 21.0799 25.5301 21.9574 24.3428 22.4434L31.3271 22.4434C31.8893 22.4434 32 22.5456 32 23.1078L32 25.663C32 26.2252 31.8893 26.3274 31.3271 26.3274L0.664368 26.3274C0.102234 26.3274 0 26.2252 0 25.663L0 23.1078C0 22.5456 0.102234 22.4434 0.664368 22.4434L0.647339 22.4434ZM24.9902 27.1791L27.7413 27.1791C27.8427 27.1646 27.9462 27.1741 28.0433 27.2067C28.1404 27.2394 28.2285 27.2944 28.3005 27.3673C28.3726 27.4401 28.4266 27.5289 28.4581 27.6264C28.4897 27.7238 28.498 27.8274 28.4823 27.9286L28.4823 30.7309C28.4984 30.8318 28.4903 30.9352 28.4587 31.0324C28.4272 31.1297 28.373 31.2181 28.3008 31.2903C28.2285 31.3626 28.1401 31.4168 28.0428 31.4483C27.9456 31.4799 27.8422 31.488 27.7413 31.4719L24.9902 31.4719C24.8889 31.4876 24.7853 31.4793 24.6879 31.4477C24.5904 31.4162 24.5016 31.3622 24.4288 31.2902C24.3559 31.2181 24.3009 31.13 24.2682 31.0329C24.2355 30.9357 24.2261 30.8323 24.2406 30.7309L24.2406 27.9286C24.2246 27.8266 24.233 27.7222 24.265 27.6239C24.297 27.5257 24.3517 27.4364 24.4247 27.3633C24.4978 27.2902 24.5871 27.2355 24.6854 27.2034C24.7836 27.1714 24.8881 27.1631 24.9902 27.1791Z" fill="#1B1B1B" fill-opacity="1.000000" fill-rule="evenodd"/>
	<path id="Vector" d="M0.09375 7.58904L12.2907 6.91615L30.4669 0L31.8808 1.95901L17.4012 6.6947L31.1738 6.11551L30.8672 8.49188L12.4355 8.31301L1.39691 12.3077L0.954041 11.4559L9.70142 8.20228L0.230042 8.31301L0.09375 7.56347L0.09375 7.58904Z" fill="#E07153" fill-opacity="1.000000" fill-rule="evenodd"/>
</svg>
