<svg width="32.000000" height="32.000000" viewBox="0 0 32 32" fill="none" xmlns="http://www.w3.org/2000/svg" xmlns:xlink="http://www.w3.org/1999/xlink">
	<desc>
			Created with Pixso.
	</desc>
	<defs/>
	<rect id="soup" width="32.000000" height="32.000000" fill="#FFFFFF" fill-opacity="0"/>
	<path id="Vector" d="M15.6112 13.5373C16.2222 13.5373 16.833 13.5373 17.4246 13.5885C18.6951 12.2647 19.6663 10.6555 20.2657 8.88072C25.3665 -5.84642 36.5082 2.92436 23.9021 11.5519C22.8489 12.1373 21.9796 13.0334 21.4003 14.1309C23.4313 14.463 25.3699 15.2556 27.0828 16.4541C24.6586 17.9074 20.4501 18.8694 15.6694 18.8694C10.8888 18.8694 6.61243 17.8971 4.19788 16.4234C4.57495 16.1305 4.97375 15.8704 5.39062 15.6456C5.41418 15.5422 5.45703 15.4447 5.51672 15.359L7.06824 13.1791C7.21265 12.9962 7.40295 12.8599 7.61719 12.7857C7.83154 12.7115 8.0614 12.7024 8.2804 12.7595L11.1895 13.5169C11.2694 13.5351 11.3436 13.5748 11.4048 13.6322C11.4659 13.6896 11.512 13.7626 11.5386 13.8443C12.9054 13.6604 14.2819 13.5682 15.6598 13.568L15.6112 13.5373ZM31.2622 16.7509C31.2622 25.1737 24.2609 32 15.6306 32C7.00037 32 0.00878906 25.1737 0.00878906 16.7509C-0.0303955 15.9993 0.0616455 15.2465 0.280396 14.5301C1.33728 11.4598 7.80518 9.07518 15.6306 9.07518C16.6584 9.07518 18.1616 9.16728 19.1312 9.24916L18.2682 10.5694C17.5603 10.5694 16.3289 10.4568 15.621 10.4568C14.9131 10.4568 14.1858 10.4568 13.4877 10.5182C6.89368 10.8764 1.8512 12.8619 1.8512 15.2669C1.8512 17.9176 8.01843 20.077 15.6306 20.077C23.2427 20.077 29.4003 17.9176 29.4003 15.2669C29.4003 13.8648 27.6743 12.5958 24.9203 11.7156L26.4816 10.8867C28.9252 11.9101 30.5737 13.1587 31.0198 14.6222C31.2184 15.3113 31.3036 16.0313 31.2719 16.7509L31.2622 16.7509ZM21.0609 15.5228L19.3156 17.3854C19.1216 17.5901 19.1216 18.1018 19.3931 18.0507L23.1458 17.4263C23.4172 17.4263 23.2719 16.976 23.0682 16.7611L21.8367 15.4409C21.7192 15.355 21.5767 15.3161 21.4346 15.3311C21.2924 15.3461 21.1599 15.4141 21.0609 15.5228ZM8.29004 13.3736L10.4719 13.9467C10.8015 14.0388 10.8209 14.3868 10.6949 14.7245L9.78333 16.9965C9.68945 17.1687 9.53723 17.297 9.35742 17.3559C9.17761 17.4147 8.9834 17.3997 8.81372 17.3138L6.44763 16.1266C6.37732 16.0996 6.31421 16.0555 6.26318 15.9978C6.21204 15.9402 6.17468 15.8706 6.15393 15.7948C6.13306 15.7191 6.12952 15.6392 6.14355 15.5617C6.15747 15.4842 6.1886 15.4112 6.23425 15.3488L7.41736 13.6908C7.52551 13.5527 7.66846 13.4497 7.82971 13.3936C7.99097 13.3375 8.16394 13.3305 8.32886 13.3736L8.29004 13.3736ZM16.1058 15.1032L17.1434 16.7509C17.3276 17.0477 17.1434 17.2114 16.7653 17.3035L14.021 18.0404C13.8193 18.0792 13.6113 18.0496 13.4266 17.9558C13.2419 17.8621 13.0902 17.7089 12.993 17.5184L12.4888 15.4716C12.4015 15.1339 12.4888 14.9804 12.8669 14.919L15.0875 14.6017C15.2843 14.5908 15.4803 14.6319 15.6582 14.7213C15.8359 14.8106 15.9899 14.9454 16.1058 15.1134L16.1058 15.1032Z" fill="#E07153" fill-opacity="1.000000" fill-rule="evenodd"/>
	<path id="Vector" d="M31.2622 16.7509C31.2622 25.1737 24.2609 32 15.6306 32C7.00037 32 0.00878906 25.1737 0.00878906 16.7509C-0.0303955 15.9993 0.0616455 15.2465 0.280396 14.5301C1.33728 11.4598 7.80518 9.07518 15.6306 9.07518C16.6584 9.07518 18.1616 9.16729 19.1312 9.24916L18.2682 10.5694C17.5603 10.5694 16.3289 10.4568 15.621 10.4568C14.9131 10.4568 14.1858 10.4568 13.4877 10.5182C6.89368 10.8764 1.8512 12.8619 1.8512 15.2669C1.8512 17.9176 8.01843 20.077 15.6306 20.077C23.2427 20.077 29.4003 17.9176 29.4003 15.2669C29.4003 13.8648 27.6743 12.5958 24.9203 11.7156L26.4816 10.8867C28.9252 11.9101 30.5737 13.1587 31.0198 14.6222C31.2184 15.3113 31.3036 16.0313 31.2719 16.7509L31.2622 16.7509Z" fill="#1B1B1B" fill-opacity="1.000000" fill-rule="evenodd"/>
</svg>
