<svg width="32.000061" height="32.000000" viewBox="0 0 32.0001 32" fill="none" xmlns="http://www.w3.org/2000/svg" xmlns:xlink="http://www.w3.org/1999/xlink">
	<desc>
			Created with Pixso.
	</desc>
	<defs/>
	<rect id="sushi" width="32.000000" height="32.000000" fill="#FFFFFF" fill-opacity="0"/>
	<path id="Vector" d="M0.240784 12.9885C0.240784 13.4928 1.02435 14.3665 1.47467 14.3395L7.96826 13.9342C6.81543 12.7183 6.2121 9.07967 6.2121 7.35043L0.366821 10.8179C-0.371704 11.2502 0.23175 12.0518 0.240784 12.9885Z" fill="#E07153" fill-opacity="1.000000" fill-rule="evenodd"/>
	<path id="Vector" d="M13.2101 4.01801C9.40942 4.50436 8.24756 5.81931 7.30188 6.89108C7.11224 9.24924 7.60297 11.6123 8.71594 13.6999L9.94983 13.5559L9.78772 9.05263C9.36438 6.21559 12.1294 4.34225 13.2101 4L13.2101 4.01801Z" fill="#E07153" fill-opacity="1.000000" fill-rule="evenodd"/>
	<path id="Vector" d="M21.2977 7.70163C22.5496 8.75539 23.5583 9.98027 24.8102 11.043C21.6219 12.8984 20.8384 12.9524 19.0731 16.9242L17.6681 15.8795C17.6681 11.8446 17.3979 9.57497 21.2707 7.77368L21.2977 7.70163Z" fill="#E07153" fill-opacity="1.000000" fill-rule="evenodd"/>
	<path id="Vector" d="M25.576 11.8086C26.5306 12.4493 27.3432 13.2798 27.963 14.2482C28.5828 15.2167 28.9966 16.3023 29.1785 17.4376C27.044 18.3383 23.7747 21.4365 22.7839 20.1396L19.8298 17.987C21.6311 13.6279 24.0178 12.8983 25.5939 11.8446L25.576 11.8086Z" fill="#E07153" fill-opacity="1.000000" fill-rule="evenodd"/>
	<path id="Vector" d="M22.3877 7.41347L25.7831 10.5297L29.6919 9.53899C29.1065 8.89053 28.1879 6.68394 22.3877 7.41347Z" fill="#E07153" fill-opacity="1.000000" fill-rule="evenodd"/>
	<path id="Vector" d="M30.4484 10.3856L26.7738 11.2862C28.4526 12.6889 29.5635 14.6545 29.899 16.8162C32.601 15.9156 32.601 12.8624 30.4484 10.3856Z" fill="#E07153" fill-opacity="1.000000" fill-rule="evenodd"/>
	<path id="Vector" d="M16.3714 4.08106L16.9117 4.08106C20.6854 3.97298 23.0361 4.83761 24.252 6.43175C23.524 6.36404 22.7914 6.36404 22.0635 6.43175C20.6416 6.60307 19.3314 7.28812 18.3793 8.35798C17.4271 9.42784 16.8989 10.8088 16.8937 12.2409L16.8937 24.7419C16.8812 25.0793 16.9459 25.415 17.0829 25.7236L23.6666 26.8944C23.8536 26.9303 24.0436 26.9483 24.234 26.9485C25.6211 26.9312 26.9573 26.4233 28.0059 25.515C29.0543 24.6066 29.7474 23.3564 29.9622 21.9859C29.9816 21.7672 29.9816 21.5471 29.9622 21.3284L29.9622 18.7256C29.9711 18.5546 29.9711 18.3832 29.9622 18.2122L31.2321 17.3116C31.3329 17.7822 31.3842 18.2622 31.3851 18.7436L31.3851 21.2834C31.3835 21.585 31.3595 21.886 31.3131 22.1841C31.1232 23.9282 30.2916 25.5394 28.98 26.7045C27.6683 27.8697 25.9703 28.5056 24.216 28.4886C23.9533 28.4853 23.6913 28.4612 23.4324 28.4165L10.0219 26.0208C8.59656 25.7299 7.33295 24.9132 6.4823 23.7332C5.54639 22.5092 5.0343 21.0138 5.02325 19.4731L5.02325 15.186L6.41022 15.114L6.41022 19.4821C6.41986 20.6668 6.8186 21.8155 7.54504 22.7515C8.18658 23.6709 9.15155 24.3142 10.247 24.5527L11.8771 24.841C11.1349 23.8309 10.7371 22.6089 10.7423 21.3554L10.7423 8.79145C10.7423 5.81932 13.7234 4.08106 16.3624 4.08106L16.3714 4.08106Z" fill="#1B1B1B" fill-opacity="1.000000" fill-rule="evenodd"/>
</svg>
