<svg width="24.000000" height="19.000000" viewBox="0 0 24 19" fill="none" xmlns="http://www.w3.org/2000/svg" xmlns:xlink="http://www.w3.org/1999/xlink">
	<path id="Vector" d="M0.18 6.74C0.18 7.11 0.76 7.77 1.1 7.75L5.97 7.45C5.11 6.53 4.65 3.8 4.65 2.51L0.27 5.11C-0.28 5.43 0.17 6.03 0.18 6.74Z" fill="#E07153" fill-opacity="1.000000" fill-rule="evenodd"/>
	<path id="Vector" d="M9.9 0.01C7.05 0.37 6.18 1.36 5.47 2.16C5.33 3.93 5.7 5.7 6.53 7.27L7.46 7.16L7.34 3.78C7.02 1.66 9.09 0.25 9.9 0L9.9 0.01Z" fill="#E07153" fill-opacity="1.000000" fill-rule="evenodd"/>
	<path id="Vector" d="M15.97 2.77C16.91 3.56 17.66 4.48 18.6 5.28C16.21 6.67 15.62 6.71 14.3 9.69L13.25 8.9C13.25 5.88 13.04 4.18 15.95 2.83L15.97 2.77Z" fill="#E07153" fill-opacity="1.000000" fill-rule="evenodd"/>
	<path id="Vector" d="M19.18 5.85C19.89 6.33 20.5 6.95 20.97 7.68C21.43 8.41 21.74 9.22 21.88 10.07C20.28 10.75 17.83 13.07 17.08 12.1L14.87 10.49C16.22 7.22 18.01 6.67 19.19 5.88L19.18 5.85Z" fill="#E07153" fill-opacity="1.000000" fill-rule="evenodd"/>
	<path id="Vector" d="M16.79 2.56L19.33 4.89L22.26 4.15C21.82 3.66 21.14 2.01 16.79 2.56Z" fill="#E07153" fill-opacity="1.000000" fill-rule="evenodd"/>
	<path id="Vector" d="M22.83 4.78L20.08 5.46C21.33 6.51 22.17 7.99 22.42 9.61C24.45 8.93 24.45 6.64 22.83 4.78Z" fill="#E07153" fill-opacity="1.000000" fill-rule="evenodd"/>
	<path id="Vector" d="M12.27 0.06L12.68 0.06C15.51 -0.03 17.27 0.62 18.18 1.82C17.64 1.77 17.09 1.77 16.54 1.82C15.48 1.95 14.49 2.46 13.78 3.26C13.07 4.07 12.67 5.1 12.67 6.18L12.67 15.55C12.66 15.8 12.7 16.06 12.81 16.29L17.74 17.17C17.89 17.19 18.03 17.21 18.17 17.21C19.21 17.19 20.21 16.81 21 16.13C21.79 15.45 22.31 14.51 22.47 13.48C22.48 13.32 22.48 13.16 22.47 12.99L22.47 11.04C22.47 10.91 22.47 10.78 22.47 10.65L23.42 9.98C23.49 10.33 23.53 10.69 23.53 11.05L23.53 12.96C23.53 13.18 23.51 13.41 23.48 13.63C23.34 14.94 22.71 16.15 21.73 17.02C20.75 17.9 19.47 18.37 18.16 18.36C17.96 18.36 17.76 18.34 17.57 18.31L7.51 16.51C6.44 16.29 5.49 15.68 4.86 14.79C4.15 13.88 3.77 12.76 3.76 11.6L3.76 8.38L4.8 8.33L4.8 11.61C4.81 12.5 5.11 13.36 5.65 14.06C6.13 14.75 6.86 15.23 7.68 15.41L8.9 15.63C8.35 14.87 8.05 13.95 8.05 13.01L8.05 3.59C8.05 1.36 10.29 0.06 12.27 0.06L12.27 0.06Z" fill="#1B1B1B" fill-opacity="1.000000" fill-rule="evenodd"/>
</svg>
