<svg width="24.000000" height="24.000000" viewBox="0 0 24 24" fill="none" xmlns="http://www.w3.org/2000/svg" xmlns:xlink="http://www.w3.org/1999/xlink">
	<desc>
			Created with Pixso.
	</desc>
	<defs/>
	<path id="Vector" d="M4 8L20 8L20 21C20 21.2652 19.8945 21.5196 19.707 21.7071C19.5195 21.8947 19.2651 22 19 22L5 22C4.73486 22 4.48047 21.8947 4.29297 21.7071C4.10547 21.5196 4 21.2652 4 21L4 8ZM6 10L6 20L18 20L18 10L6 10ZM9 12L11 12L11 18L9 18L9 12ZM13 12L15 12L15 18L13 18L13 12ZM7 5L7 3C7 2.73477 7.10547 2.48044 7.29297 2.29291C7.48047 2.10535 7.73486 2 8 2L16 2C16.2651 2 16.5195 2.10535 16.707 2.29291C16.8945 2.48044 17 2.73477 17 3L17 5L22 5L22 7L2 7L2 5L7 5ZM9 4L9 5L15 5L15 4L9 4Z" fill="#E07153" fill-opacity="1.000000" fill-rule="nonzero"/>
</svg>
