<svg width="26.666626" height="26.666504" viewBox="0 0 26.6666 26.6665" fill="none" xmlns="http://www.w3.org/2000/svg" xmlns:xlink="http://www.w3.org/1999/xlink">
	<desc>
			Created with Pixso.
	</desc>
	<defs/>
	<path id="Vector" d="M13.3334 9.3335C12.2725 9.3335 11.255 9.75488 10.5049 10.5049C9.75476 11.2549 9.33337 12.2725 9.33337 13.3335C9.33337 14.394 9.75476 15.4116 10.5049 16.1616C11.255 16.9121 12.2725 17.3335 13.3334 17.3335C14.3942 17.3335 15.4116 16.9121 16.1617 16.1616C16.9119 15.4116 17.3334 14.394 17.3334 13.3335C17.3334 12.2725 16.9119 11.2549 16.1617 10.5049C15.4116 9.75488 14.3942 9.3335 13.3334 9.3335ZM13.3334 6.6665C15.1014 6.6665 16.7971 7.36914 18.0474 8.61914C19.2976 9.86963 20 11.5654 20 13.3335C20 15.1016 19.2976 16.7974 18.0474 18.0474C16.7971 19.2979 15.1014 20 13.3334 20C11.5652 20 9.86951 19.2979 8.61926 18.0474C7.36902 16.7974 6.66663 15.1016 6.66663 13.3335C6.66663 11.5654 7.36902 9.86963 8.61926 8.61914C9.86951 7.36914 11.5652 6.6665 13.3334 6.6665ZM22 6.3335C22 6.77539 21.8245 7.19922 21.5118 7.51172C21.1993 7.82422 20.7754 8 20.3334 8C19.8914 8 19.4674 7.82422 19.1548 7.51172C18.8423 7.19922 18.6666 6.77539 18.6666 6.3335C18.6666 5.89111 18.8423 5.46729 19.1548 5.15479C19.4674 4.84229 19.8914 4.6665 20.3334 4.6665C20.7754 4.6665 21.1993 4.84229 21.5118 5.15479C21.8245 5.46729 22 5.89111 22 6.3335ZM13.3334 2.6665C10.0347 2.6665 9.49597 2.67578 7.9613 2.74414C6.91602 2.79346 6.21472 2.93311 5.56396 3.18652C4.98535 3.41064 4.56799 3.67871 4.12402 4.12402C3.70667 4.52734 3.38586 5.01953 3.1853 5.56396C2.93201 6.21729 2.79199 6.91748 2.74402 7.96143C2.67468 9.43311 2.66663 9.94824 2.66663 13.3335C2.66663 16.6318 2.67603 17.1709 2.74402 18.7056C2.79333 19.7495 2.93335 20.4521 3.1853 21.1016C3.41199 21.6812 3.67871 22.0986 4.12134 22.5415C4.57068 22.9893 4.98804 23.2573 5.56128 23.4785C6.21997 23.7334 6.92139 23.8745 7.9613 23.9229C9.43335 23.9922 9.948 24 13.3334 24C16.632 24 17.1707 23.9907 18.7053 23.9229C19.748 23.8735 20.4507 23.7334 21.1013 23.4814C21.6787 23.2559 22.0986 22.9878 22.5414 22.5454C22.9907 22.0962 23.2587 21.6787 23.48 21.1055C23.7333 20.4482 23.8746 19.7451 23.9226 18.7056C23.9919 17.2334 24 16.7188 24 13.3335C24 10.0347 23.9907 9.49609 23.9226 7.96143C23.8733 6.91846 23.7333 6.21484 23.48 5.56396C23.2791 5.02002 22.9587 4.52783 22.5427 4.12402C22.1396 3.70654 21.6473 3.38574 21.1027 3.18555C20.4493 2.93213 19.748 2.79199 18.7053 2.74414C17.2333 2.6748 16.7186 2.6665 13.3334 2.6665ZM13.3334 0C16.9561 0 17.408 0.0131836 18.8293 0.0800781C20.2494 0.146484 21.2159 0.369141 22.0667 0.700195C22.9467 1.03857 23.688 1.49756 24.4293 2.2373C25.1073 2.90381 25.632 3.70996 25.9667 4.6001C26.296 5.44922 26.52 6.41748 26.5867 7.8374C26.6493 9.25879 26.6666 9.71045 26.6666 13.3335C26.6666 16.9561 26.6533 17.4082 26.5867 18.8291C26.52 20.2495 26.296 21.2158 25.9667 22.0669C25.6329 22.957 25.1082 23.7637 24.4293 24.4292C23.7626 25.1069 22.9564 25.6318 22.0667 25.9668C21.2173 26.2959 20.2494 26.52 18.8293 26.5864C17.408 26.6494 16.9561 26.6665 13.3334 26.6665C9.71069 26.6665 9.25867 26.6533 7.83728 26.5864C6.41736 26.52 5.45068 26.2959 4.59998 25.9668C3.70972 25.6328 2.90332 25.1079 2.2373 24.4292C1.5592 23.7627 1.03455 22.9565 0.699951 22.0669C0.369385 21.2173 0.146606 20.2495 0.0799561 18.8291C0.017334 17.4082 0 16.9561 0 13.3335C0 9.71045 0.0133057 9.25879 0.0799561 7.8374C0.146606 6.41602 0.369385 5.45068 0.699951 4.6001C1.03369 3.70947 1.55835 2.90332 2.2373 2.2373C2.90356 1.55908 3.70996 1.03418 4.59998 0.700195C5.45068 0.369141 6.41602 0.146484 7.83728 0.0800781C9.25867 0.0170898 9.71069 0 13.3334 0Z" fill="#FFFFFF" fill-opacity="1.000000" fill-rule="nonzero"/>
</svg>
